<svg width="610" height="539" viewBox="0 0 610 539" fill="none" xmlns="http://www.w3.org/2000/svg">
<path opacity="0.18" d="M594.262 306.993C602.248 324.906 608.139 343.109 609.195 361.959C609.431 366.791 609.232 371.636 608.599 376.432C607.951 381.765 606.811 387.027 605.194 392.149" fill="#3A3A3A"/>
<path opacity="0.18" d="M558.104 472.466C545.001 492.215 525.628 507.763 503.341 513.005C477.782 519.002 451.422 511.3 426.29 503.741C389.247 492.574 351.13 481.64 312.792 485.393C248.981 491.551 192.428 537.602 128.378 538.984C108.504 539.284 88.785 535.256 70.457 527.153C52.129 519.049 35.5866 507.045 21.8663 491.892C14.6588 483.813 8.23502 474.746 4.4353 464.369C0.107367 452.43 -0.454919 439.324 0.260724 426.558C2.18614 392.608 12.6482 361.405 29.7554 333.199L30.1644 332.517C47.7002 303.653 57.8006 270.475 59.4716 236.249C60.068 223.79 59.4716 211.276 60.3747 198.834C61.9594 175.117 68.5365 151.993 77.4138 130.161C90.4317 98.2573 109.055 68.2926 134.972 46.9816C152.556 32.511 172.969 22.421 193.195 12.4746C203.571 7.35784 214.153 2.18718 225.569 0.553393C233.511 -0.347105 241.531 -0.147921 249.424 1.14586C256.239 2.05552 262.947 3.30629 269.547 4.89818C308.213 14.2486 344.019 33.7176 373.656 61.5062C404.837 90.6091 430.873 123.195 456.739 157.487C492.112 204.364 532.869 247.758 558.224 301.367C563.071 311.607 567.177 322.218 570.509 333.109C584.89 380.13 584.566 432.681 558.104 472.466Z" fill="#5B6B54"/>
<path opacity="0.39" d="M330.738 458.95C417.483 458.95 487.803 446.264 487.803 430.615C487.803 414.967 417.483 402.281 330.738 402.281C243.993 402.281 173.673 414.967 173.673 430.615C173.673 446.264 243.993 458.95 330.738 458.95Z" fill="#5B6B54"/>
<path d="M265.76 452.104C217.162 451.406 177.981 434.753 178.236 414.95C178.236 412.736 176.533 400.271 177.538 398.296C185.201 381.626 223.513 379.566 266.764 380.281C309.334 380.894 345.007 380.281 352.976 396.713C354.117 399.063 354.339 415.052 354.288 417.436C353.981 437.29 314.357 452.7 265.76 452.104Z" fill="#E8A825"/>
<path d="M346.647 394.496C346.845 374.664 307.6 358.194 258.992 357.711C210.384 357.227 170.819 372.913 170.622 392.745C170.424 412.578 209.669 429.047 258.277 429.531C306.885 430.014 346.45 414.329 346.647 394.496Z" fill="#F8C244"/>
<path d="M340.604 400.739C340.846 383.841 307.471 369.663 266.059 369.07C224.647 368.477 190.879 381.695 190.637 398.593C190.396 415.49 223.771 429.669 265.183 430.262C306.595 430.855 340.362 417.637 340.604 400.739Z" fill="#E8A825"/>
<path d="M218.32 396.049L230.341 396.236C230.576 394.675 231.183 393.193 232.11 391.916C233.038 390.639 234.259 389.603 235.671 388.897L243.623 390.174C242.257 390.823 241.068 391.794 240.16 393.005C239.253 394.215 238.653 395.628 238.413 397.121C238.413 400.527 243.231 402.945 250.009 403.064C252.622 403.251 255.245 402.874 257.701 401.961C260.157 401.047 262.388 399.618 264.244 397.768C266.897 395.02 270.133 392.902 273.714 391.57C277.294 390.238 281.128 389.726 284.933 390.072C294.843 390.072 302.284 393.154 304.021 397.666L316.043 397.854V400.85L304.532 400.68C304.329 401.974 303.842 403.207 303.106 404.291C302.37 405.374 301.403 406.281 300.275 406.946L292.425 405.584C293.541 404.972 294.494 404.1 295.202 403.042C295.911 401.984 296.354 400.771 296.495 399.505C296.495 395.827 291.063 394.295 286.278 394.21C283.71 394.061 281.143 394.512 278.779 395.525C276.415 396.539 274.319 398.088 272.656 400.05C267.547 404.971 261.349 407.389 250.639 407.389C241.239 407.389 232.3 404.494 230.495 399.42H218.132L218.32 396.049Z" fill="#F8C244"/>
<path d="M274.818 424.162C226.204 423.463 187.023 406.844 187.312 386.99C187.312 384.793 185.609 372.312 186.614 370.336C194.276 353.683 232.589 351.725 275.84 352.321C318.41 352.951 354.066 352.321 362.018 368.753C363.193 371.103 363.38 387.092 363.346 389.476C363.091 409.279 323.416 424.843 274.818 424.162Z" fill="#E8A825"/>
<path d="M362.718 372.924C363.002 353.092 323.83 336.452 275.224 335.756C226.619 335.061 186.986 350.573 186.702 370.405C186.418 390.236 225.591 406.877 274.196 407.572C322.802 408.268 362.435 392.756 362.718 372.924Z" fill="#F8C244"/>
<path d="M349.693 372.738C349.935 355.84 316.56 341.661 275.148 341.068C233.736 340.476 199.969 353.694 199.727 370.591C199.485 387.489 232.86 401.668 274.272 402.26C315.684 402.853 349.452 389.635 349.693 372.738Z" fill="#E8A825"/>
<path d="M227.413 368.31H239.417C239.653 366.747 240.261 365.264 241.192 363.986C242.123 362.708 243.348 361.674 244.764 360.971L252.733 362.265C251.359 362.89 250.162 363.848 249.252 365.052C248.343 366.256 247.748 367.669 247.523 369.162C247.523 372.567 252.325 375.036 259.068 375.104C261.687 375.317 264.321 374.955 266.786 374.044C269.251 373.132 271.487 371.692 273.337 369.826C275.985 367.064 279.222 364.936 282.807 363.6C286.393 362.264 290.234 361.756 294.043 362.112C303.902 362.112 311.394 365.228 313.114 369.706L325.119 369.894V372.908L313.557 372.72C313.379 374.023 312.902 375.266 312.164 376.353C311.425 377.44 310.445 378.342 309.3 378.987L301.484 377.676C302.601 377.056 303.555 376.18 304.268 375.12C304.982 374.061 305.434 372.847 305.588 371.58C305.588 367.919 300.207 366.369 295.371 366.301C292.818 366.156 290.266 366.593 287.906 367.578C285.546 368.563 283.441 370.071 281.749 371.988C276.64 376.892 270.459 379.327 259.732 379.327C250.315 379.327 241.393 376.381 239.605 371.358L227.243 371.171L227.413 368.31Z" fill="#F8C244"/>
<path d="M274.818 394.431C226.204 393.733 187.023 377.114 187.312 357.276C187.312 355.08 185.609 342.598 186.614 340.623C194.276 323.952 232.589 322.011 275.84 322.607C318.41 323.22 354.066 322.607 362.018 339.039C363.193 341.389 363.38 357.378 363.346 359.762C363.091 379.617 323.416 395.129 274.818 394.431Z" fill="#E8A825"/>
<path d="M362.721 343.228C363.005 323.396 323.833 306.756 275.227 306.06C226.622 305.364 186.989 320.877 186.705 340.708C186.421 360.54 225.594 377.181 274.199 377.876C322.805 378.572 362.438 363.059 362.721 343.228Z" fill="#F8C244"/>
<path d="M349.697 336.805C349.939 319.907 316.564 305.729 275.152 305.136C233.74 304.543 199.973 317.761 199.731 334.659C199.489 351.556 232.864 365.735 274.276 366.328C315.688 366.921 349.455 353.703 349.697 336.805Z" fill="#E8A825"/>
<path d="M227.413 338.375L239.418 338.563C239.646 336.997 240.252 335.511 241.183 334.232C242.115 332.953 243.344 331.921 244.764 331.224L252.733 332.467C251.358 333.103 250.162 334.071 249.253 335.284C248.343 336.496 247.749 337.915 247.523 339.414C247.523 342.82 252.325 345.272 259.068 345.357C261.688 345.566 264.323 345.201 266.788 344.286C269.253 343.372 271.488 341.93 273.337 340.061C275.986 337.301 279.224 335.175 282.809 333.843C286.395 332.51 290.235 332.005 294.043 332.364C303.902 332.364 311.395 335.48 313.114 339.959L325.119 340.146V343.143L313.557 342.973C313.373 344.273 312.894 345.514 312.156 346.6C311.418 347.686 310.441 348.589 309.3 349.239L301.518 347.979C302.636 347.365 303.592 346.493 304.306 345.436C305.02 344.379 305.471 343.167 305.622 341.9C305.622 338.222 300.241 336.689 295.405 336.604C292.839 336.472 290.277 336.929 287.916 337.942C285.554 338.954 283.456 340.495 281.783 342.445C276.675 347.366 270.476 349.784 259.766 349.784C250.35 349.784 241.427 346.855 239.622 341.815L227.26 341.645L227.413 338.375Z" fill="#F8C244"/>
<path d="M274.921 360.971C226.306 360.375 187.091 343.807 187.312 323.987C187.312 321.79 185.609 309.326 186.58 307.333C194.208 290.663 232.555 288.603 275.755 289.13C318.325 289.658 354.083 288.96 362.018 305.375C363.159 307.725 363.415 323.714 363.38 326.098C363.125 345.953 323.535 361.448 274.921 360.971Z" fill="#E8A825"/>
<path d="M362.853 303.36C363.051 283.527 323.806 267.058 275.198 266.574C226.59 266.091 187.025 281.776 186.828 301.609C186.63 321.441 225.875 337.911 274.483 338.394C323.091 338.878 362.656 323.192 362.853 303.36Z" fill="#F8C244"/>
<path d="M224.109 307.572L236.131 307.759C236.366 306.198 236.973 304.716 237.9 303.439C238.828 302.162 240.049 301.126 241.461 300.42L249.413 301.714C248.046 302.358 246.857 303.326 245.948 304.533C245.04 305.741 244.441 307.152 244.202 308.644C244.202 312.05 249.021 314.468 255.798 314.587C258.41 314.774 261.032 314.399 263.487 313.489C265.943 312.578 268.175 311.153 270.034 309.309C272.685 306.557 275.921 304.436 279.502 303.101C283.082 301.766 286.917 301.251 290.723 301.595C300.633 301.595 308.074 304.677 309.811 309.189L321.832 309.377V312.374L310.322 312.203C310.119 313.497 309.632 314.73 308.896 315.814C308.16 316.897 307.193 317.804 306.065 318.47L298.215 317.107C299.331 316.495 300.284 315.623 300.992 314.565C301.7 313.507 302.144 312.294 302.284 311.028C302.284 307.35 296.853 305.818 292.068 305.75C289.501 305.594 286.933 306.039 284.568 307.05C282.203 308.061 280.107 309.61 278.445 311.573C273.337 316.494 267.139 318.912 256.428 318.912C247.029 318.912 238.089 316.018 236.284 310.943H223.922L224.109 307.572Z" fill="#F8C244"/>
<path d="M277.543 328.686C228.928 327.988 189.747 311.369 190.054 291.514C190.054 289.318 188.351 276.853 189.356 274.861C197.018 258.208 235.331 256.267 278.565 256.846C321.135 257.476 356.791 256.846 364.76 273.295C365.918 275.627 366.105 291.634 366.071 294.017C365.816 313.923 326.158 329.384 277.543 328.686Z" fill="#E8A825"/>
<path d="M365.441 277.462C365.724 257.63 326.552 240.99 277.946 240.294C229.341 239.598 189.708 255.111 189.424 274.943C189.14 294.774 228.313 311.415 276.919 312.11C325.524 312.806 365.157 297.293 365.441 277.462Z" fill="#F8C244"/>
<path d="M352.416 277.275C352.658 260.378 319.283 246.199 277.87 245.606C236.458 245.013 202.691 258.231 202.449 275.129C202.208 292.027 235.583 306.205 276.995 306.798C318.407 307.391 352.174 294.173 352.416 277.275Z" fill="#E8A825"/>
<path d="M233.202 279.867H245.207C245.442 278.304 246.051 276.821 246.982 275.543C247.912 274.265 249.138 273.231 250.554 272.528L258.523 273.822C257.159 274.439 255.97 275.384 255.06 276.572C254.151 277.761 253.551 279.156 253.312 280.634C253.312 284.039 258.114 286.508 264.857 286.576C267.477 286.789 270.111 286.427 272.576 285.516C275.041 284.604 277.276 283.164 279.126 281.298C281.777 278.547 285.014 276.43 288.596 275.103C292.178 273.777 296.013 273.275 299.815 273.635C309.674 273.635 317.167 276.751 318.887 281.23L330.806 281.417V284.431L319.244 284.243C319.066 285.546 318.59 286.789 317.851 287.876C317.112 288.963 316.132 289.865 314.987 290.51L307.171 289.199C308.288 288.579 309.242 287.703 309.956 286.644C310.669 285.584 311.121 284.371 311.275 283.103C311.275 279.442 305.894 277.892 301.058 277.824C298.505 277.679 295.953 278.116 293.593 279.101C291.233 280.086 289.128 281.594 287.436 283.511C282.328 288.432 276.147 290.85 265.419 290.85C256.003 290.85 247.08 287.904 245.292 282.881L232.93 282.694L233.202 279.867Z" fill="#F8C244"/>
<path d="M276.181 300.403C227.583 299.705 188.402 283.086 188.692 263.231C188.692 261.034 186.989 248.553 187.993 246.578C195.656 229.925 233.969 227.983 277.22 228.562C319.789 229.192 355.429 228.562 363.398 244.994C364.573 247.344 364.76 263.35 364.709 265.734C364.522 285.572 324.795 301.101 276.181 300.403Z" fill="#E8A825"/>
<path d="M364.096 249.183C364.38 229.351 325.207 212.71 276.602 212.015C227.996 211.319 188.363 226.832 188.079 246.663C187.796 266.495 226.968 283.135 275.574 283.831C324.179 284.527 363.812 269.014 364.096 249.183Z" fill="#F8C244"/>
<path d="M351.071 248.996C351.313 232.098 317.938 217.92 276.526 217.327C235.114 216.734 201.347 229.952 201.105 246.85C200.863 263.747 234.238 277.926 275.65 278.519C317.062 279.112 350.829 265.894 351.071 248.996Z" fill="#E8A825"/>
<path d="M228.792 244.347L240.711 244.517C240.951 242.954 241.563 241.47 242.497 240.193C243.431 238.916 244.658 237.882 246.075 237.178L254.027 238.438C252.657 239.077 251.464 240.044 250.556 241.252C249.647 242.461 249.05 243.875 248.817 245.369C248.817 248.774 253.636 251.243 260.379 251.312C262.998 251.525 265.632 251.163 268.097 250.251C270.562 249.339 272.798 247.899 274.648 246.033C277.293 243.272 280.528 241.145 284.11 239.809C287.692 238.474 291.53 237.964 295.337 238.319C305.213 238.319 312.705 241.435 314.425 245.914L326.345 246.101V249.115L314.8 248.928C314.622 250.23 314.145 251.473 313.407 252.56C312.668 253.647 311.688 254.549 310.543 255.194L302.727 253.883C303.842 253.261 304.795 252.385 305.508 251.325C306.221 250.266 306.674 249.054 306.831 247.787C306.831 244.126 301.433 242.576 296.614 242.508C294.049 242.37 291.486 242.823 289.124 243.833C286.762 244.842 284.664 246.382 282.992 248.332C277.883 253.253 271.685 255.671 260.975 255.671C251.541 255.671 242.636 252.742 240.831 247.719L228.639 247.514L228.792 244.347Z" fill="#F8C244"/>
<path d="M325.459 241.146C327.963 244.092 327.486 248.723 325.323 251.942C322.954 255.014 319.867 257.458 316.333 259.059C294.196 270.843 269.148 275.747 244.679 281.298C243.755 281.428 242.878 281.785 242.125 282.336C240.746 283.545 240.848 285.742 240.729 287.445C240.269 293.456 236.097 298.496 234.394 304.285C233.386 308.671 233.081 313.188 233.492 317.669L234.973 354.194C235.144 355.487 234.949 356.803 234.411 357.991C233.589 359.163 232.385 360.011 231.006 360.392C225.987 362.114 220.528 362.06 215.544 360.239C214.643 359.972 213.832 359.466 213.195 358.775C212.606 357.854 212.287 356.786 212.275 355.693C210.027 333.199 206.673 310.807 202.195 288.654C201.42 285.978 201.321 283.153 201.905 280.429C203.284 275.883 208.086 273.465 212.428 271.524L264.057 248.621C267.128 247.414 270.035 245.823 272.707 243.887C274.529 242.44 276.113 240.686 277.815 239.171C284.252 233.705 292.476 232.564 300.411 234.539C307.563 236.293 320.521 235.322 325.459 241.146Z" fill="url(#paint0_linear_25_23)"/>
<path d="M223.394 354.62C223.394 359.881 214.88 364.837 210.742 366.08C208.983 366.461 207.27 367.031 205.634 367.782C204.835 368.176 204.165 368.788 203.701 369.548C203.236 370.307 202.997 371.183 203.012 372.073C203.182 373.623 204.442 374.866 204.714 376.381C204.88 377.696 204.71 379.032 204.221 380.264C202.654 385.372 196.371 388.539 194.821 393.631C186.12 392.745 182.187 393.477 173.57 392.03L166.385 387.433C169.995 380.621 173.587 373.912 177.248 367.118C178.635 364.245 180.349 361.543 182.357 359.064C184.714 356.597 187.395 354.46 190.326 352.713C197.925 347.787 205.837 343.361 214.012 339.465C212.973 340.01 223.394 353.258 223.394 354.62Z" fill="url(#paint1_linear_25_23)"/>
<path d="M233.73 190.352C232.761 190.871 231.655 191.08 230.563 190.948C230.75 186.274 231.734 181.667 233.475 177.325C235.263 173.545 238.174 170.412 240.592 166.99C241.873 165.013 243.254 163.103 244.73 161.268C246.186 159.391 248.174 157.997 250.435 157.267C250.609 157.189 250.801 157.16 250.99 157.184C251.179 157.208 251.358 157.284 251.507 157.403C251.633 157.566 251.709 157.76 251.729 157.965L253.789 169.697C254.289 171.564 254.26 173.533 253.704 175.384C252.662 177.06 251.324 178.532 249.753 179.726C246.741 182.583 243.417 185.09 239.843 187.202C237.871 188.375 235.83 189.427 233.73 190.352V190.352Z" fill="#FBC6D7"/>
<path d="M233.73 190.352C232.761 190.871 231.655 191.08 230.563 190.948C230.75 186.274 231.734 181.667 233.475 177.325C235.263 173.545 238.174 170.412 240.592 166.99C241.873 165.013 243.254 163.103 244.73 161.268C246.186 159.391 248.174 157.997 250.435 157.267C250.609 157.189 250.801 157.16 250.99 157.184C251.179 157.208 251.358 157.284 251.507 157.403C251.633 157.566 251.709 157.76 251.729 157.965L253.789 169.697C254.289 171.564 254.26 173.533 253.704 175.384C252.662 177.06 251.324 178.532 249.753 179.726C246.741 182.583 243.417 185.09 239.843 187.202C237.871 188.375 235.83 189.427 233.73 190.352V190.352Z" fill="#BE7F6C"/>
<path d="M218.337 330.73C219.222 333.624 220.04 337.03 218.337 339.465C217.51 340.501 216.414 341.291 215.17 341.747C213.723 342.46 212.103 342.747 210.499 342.575C208.896 342.403 207.374 341.779 206.111 340.776C204.778 339.301 203.836 337.515 203.369 335.583C201.083 328.524 199.43 321.275 198.431 313.923C198.285 313.245 198.32 312.54 198.533 311.88C198.901 311.167 199.502 310.602 200.236 310.279C204.101 308.202 210.129 306.533 212.292 311.148C215.101 317.056 216.379 324.395 218.337 330.73Z" fill="#FBC6D7"/>
<path d="M206.69 334.084C205.871 333.972 205.037 334.053 204.255 334.323C203.722 334.62 203.258 335.026 202.893 335.515L194.532 345.067C192.914 346.906 191.126 349.443 192.335 351.623C192.735 352.229 193.264 352.738 193.886 353.112C194.508 353.487 195.206 353.717 195.928 353.785C199.913 354.501 203.948 353.07 207.678 351.453C210.249 350.329 212.786 349.086 215.272 347.758C217.146 346.913 218.779 345.613 220.023 343.977C221.93 341.015 222.492 333.931 219.086 331.717C217.383 330.61 215.885 331.411 214.25 332.177C211.928 333.432 209.329 334.087 206.69 334.084V334.084Z" fill="#3AE104"/>
<path d="M171.97 363.202C171.898 363.741 171.957 364.29 172.14 364.802C172.426 365.318 172.851 365.742 173.366 366.028C174.95 367.138 176.816 367.776 178.747 367.867C179.72 367.906 180.689 367.717 181.576 367.315C182.463 366.913 183.243 366.309 183.856 365.552C184.754 364.117 185.297 362.488 185.439 360.801C186.141 357.165 186.489 353.47 186.478 349.767C186.501 349.507 186.472 349.246 186.393 348.997C186.314 348.749 186.186 348.518 186.018 348.319C185.739 348.11 185.41 347.975 185.065 347.928C182.034 347.298 176.057 345.697 174.524 349.443C172.942 353.863 172.08 358.508 171.97 363.202V363.202Z" fill="#FBC6D7"/>
<path d="M159.233 362.827C156.652 362.961 154.101 363.453 151.656 364.292C150.432 364.722 149.309 365.396 148.355 366.275C147.4 367.153 146.635 368.216 146.105 369.4C145.622 370.582 145.568 371.895 145.951 373.112C146.786 374.895 148.255 376.304 150.072 377.063C158.675 381.709 168.412 383.839 178.168 383.21C180.685 383.3 183.135 382.387 184.979 380.672C186.563 378.85 186.682 376.194 186.784 373.759L187.125 362.197C184.945 361.857 182.936 363.287 180.859 364.002C177.283 365.228 175.869 362.299 172.907 361.567C169.024 360.699 163.184 362.436 159.233 362.827Z" fill="#3AE104"/>
<path d="M206.69 334.084C205.871 333.972 205.037 334.053 204.255 334.323C203.722 334.62 203.258 335.026 202.893 335.515L194.532 345.067C192.914 346.906 191.126 349.443 192.335 351.623C192.735 352.229 193.264 352.738 193.886 353.112C194.508 353.487 195.206 353.717 195.928 353.785C199.913 354.501 203.948 353.07 207.678 351.453C210.249 350.329 212.786 349.086 215.272 347.758C217.146 346.913 218.779 345.613 220.023 343.977C221.93 341.015 222.492 333.931 219.086 331.717C217.383 330.61 215.885 331.411 214.25 332.177C211.928 333.432 209.329 334.087 206.69 334.084Z" fill="#5B6B54"/>
<path d="M159.233 362.827C156.652 362.961 154.101 363.453 151.656 364.292C150.432 364.722 149.309 365.396 148.355 366.275C147.4 367.153 146.635 368.216 146.105 369.4C145.622 370.582 145.568 371.895 145.951 373.112C146.786 374.895 148.255 376.304 150.072 377.063C158.675 381.709 168.412 383.839 178.168 383.21C180.685 383.3 183.135 382.387 184.979 380.672C186.563 378.85 186.682 376.194 186.784 373.759L187.125 362.197C184.945 361.857 182.936 363.287 180.859 364.002C177.283 365.228 175.869 362.299 172.907 361.567C169.024 360.699 163.184 362.436 159.233 362.827Z" fill="#5B6B54"/>
<path d="M190.122 235.169C187.653 235.673 185.371 236.852 183.532 238.575C181.387 240.993 181.199 244.569 181.199 247.821C181.255 271.179 185.595 294.328 194.004 316.12C194.413 317.739 195.448 319.129 196.882 319.985C198.167 320.357 199.538 320.291 200.781 319.798C205.829 318.383 210.802 316.712 215.681 314.792L209.074 270.4C208.765 269.165 208.836 267.865 209.278 266.671C209.759 265.81 210.443 265.079 211.27 264.542C218.807 258.968 226.779 254.008 235.11 249.711C241.716 246.305 249.294 242.423 251.116 235.118C251.482 233.891 251.554 232.595 251.326 231.335C251.099 230.074 250.577 228.885 249.805 227.864C248.762 226.812 247.524 225.974 246.161 225.395C241.767 223.199 236.233 220.372 231.176 220.9C227.14 221.325 225.591 223.692 222.202 225.446C212.718 230.367 200.287 232.189 190.122 235.169Z" fill="#282328"/>
<path d="M261.639 234.301C257.54 232.694 253.557 230.805 249.719 228.648C235.126 220.491 247.08 216.473 251.95 206.63C255.355 199.666 254.01 191.305 252.188 183.745C249.021 170.446 244.781 156.688 247.846 143.372C248.243 141.216 249.09 139.168 250.332 137.361C251.222 136.247 252.246 135.246 253.38 134.381C256.458 131.704 259.994 129.604 263.818 128.183C271.174 125.765 279.331 127.536 286.244 131.061C313.403 144.887 319.193 179.863 318.12 207.805C317.814 215.57 316.656 223.795 311.718 229.72C307.086 235.288 299.798 237.911 292.698 238.813C282.13 239.916 271.455 238.365 261.639 234.301V234.301Z" fill="#3C8F7C"/>
<path d="M278.037 147.254C276.852 148.742 275.368 149.965 273.682 150.845C271.996 151.725 270.144 152.242 268.246 152.362C267.652 152.434 267.052 152.302 266.543 151.988C266.008 151.434 265.703 150.697 265.692 149.927C265.521 148.395 265.3 146.42 265.13 144.462C264.959 142.503 264.653 140.102 264.448 138.434C263.991 133.991 262.304 129.763 259.578 126.225C259.025 125.451 258.379 124.747 257.654 124.13C252.955 119.89 272.094 121.559 274.682 115.804C277.594 119.55 277.339 124.845 278.616 129.426C279.444 131.658 280.154 133.931 280.744 136.237C281.101 138.16 281.044 140.138 280.577 142.037C280.11 143.937 279.244 145.715 278.037 147.254V147.254Z" fill="#F8A58D"/>
<path d="M265.385 145.347L265.129 144.445C264.874 142.265 264.653 140.085 264.448 138.417C263.991 133.974 262.304 129.746 259.578 126.208L259.442 125.731C259.442 125.731 274.614 115.787 276.232 127.434C277.849 139.081 265.385 145.347 265.385 145.347Z" fill="url(#paint2_linear_25_23)"/>
<path d="M249.481 119.311C249.174 121.737 249.62 124.198 250.758 126.361C251.363 127.266 252.124 128.056 253.006 128.694C259.034 133.24 268.093 132.321 274.086 127.621C280.08 122.921 283.179 115.106 283.503 107.46C283.656 103.475 283.026 99.2015 280.353 96.2897C278.87 94.8522 277.05 93.8092 275.06 93.2559C273.07 92.7026 270.973 92.6568 268.961 93.1225C263.449 94.3891 258.429 97.2424 254.521 101.33C250.707 105.621 249.754 113.862 249.481 119.311Z" fill="#F8A58D"/>
<path d="M194.856 266.126C191.727 270.15 189.256 274.644 187.534 279.442C177.991 302.862 171.8 327.512 169.143 352.662C176.928 353.649 184.806 353.649 192.591 352.662C193.203 334.89 195.907 317.253 200.645 300.113C201.482 296.438 202.914 292.923 204.885 289.709C208.291 284.601 214.046 281.655 219.512 278.897C232.089 272.634 245.26 267.643 258.829 263.997C264.551 262.38 270.323 260.932 275.857 259.008C280.673 257.567 285.186 255.259 289.173 252.197C291.173 250.632 292.839 248.682 294.073 246.462C295.307 244.242 296.085 241.798 296.359 239.273C296.274 240.55 267.922 239.154 265.283 238.864C256.394 237.911 245.905 232.734 237.119 236.378C230.308 239.239 223.956 245.198 217.775 249.319C210.181 254.325 200.917 258.974 194.856 266.126Z" fill="#473F47"/>
<path d="M235.348 264.236L284.831 239.681L227.549 219.044L182.425 239.068L235.348 264.236Z" fill="#5B6B54"/>
<path d="M235.058 260.507L276.385 240.005L228.554 222.773L190.871 239.494L235.058 260.507Z" fill="url(#paint3_linear_25_23)"/>
<path d="M304.038 159.089C304.174 159.94 304.276 160.791 304.362 161.643C305.707 174.226 304.498 186.623 304.038 199.104C303.749 206.869 302.744 221.649 294.622 225.617C279.433 233.058 250.145 230.197 250.145 230.197C246.746 229.647 243.272 229.786 239.928 230.606C238.106 231.185 236.437 232.155 234.649 232.836C228.247 235.339 221.027 234.079 214.352 232.836C213.186 232.69 212.062 232.308 211.049 231.713C208.426 230.01 208.546 225.702 210.504 223.199C212.668 220.86 215.517 219.268 218.643 218.652C227.157 216.166 236.437 215.076 244.985 217.613C246.109 217.937 247.233 218.329 248.391 218.55C249.736 218.765 251.098 218.862 252.461 218.839L262.814 218.925C274.733 219.044 285.886 219.095 287.674 204.962C288.338 199.738 288.475 194.462 288.083 189.211C287.368 179.709 284.933 170.31 285.444 160.808C285.462 157.808 286.191 154.856 287.572 152.192C288.271 150.879 289.296 149.768 290.548 148.966C291.801 148.164 293.239 147.697 294.724 147.612C296.277 147.736 297.771 148.263 299.058 149.141C300.345 150.019 301.381 151.217 302.063 152.618C303.093 154.643 303.762 156.833 304.038 159.089V159.089Z" fill="#F8A58D"/>
<path d="M163.848 193.893L226.902 226.485L235.348 264.236L182.425 239.068L163.848 193.893Z" fill="#5B6B54"/>
<path d="M272.145 112.994C272.698 115.871 272.921 118.802 272.809 121.729C274.818 120.027 274.665 115.48 277.338 115.599C278.939 115.599 279.688 117.898 278.939 119.345C278.493 120.024 277.914 120.605 277.238 121.056C276.563 121.506 275.803 121.816 275.006 121.968C274.546 128.115 279.433 132.338 283.52 136.067C287.988 140.404 291.11 145.938 292.51 152.005C294.451 159.633 294.349 167.637 294.213 175.555C296.393 173.852 299.475 174.737 302.216 175.027C310.304 175.861 318.376 169.459 320.13 161.404C320.875 157.369 320.36 153.202 318.654 149.47C316.948 145.737 314.134 142.621 310.594 140.545C308.414 139.302 305.894 138.332 304.549 136.203C302.71 133.291 303.8 129.494 303.902 125.986C303.936 122.176 302.691 118.465 300.367 115.445C298.042 112.426 294.772 110.274 291.08 109.333C292.572 106.633 293.515 103.664 293.855 100.598C293.857 98.5403 293.435 96.5047 292.614 94.6179C291.794 92.7312 290.593 91.0338 289.088 89.6318C286.093 86.8772 282.634 84.6749 278.871 83.1271C275.346 81.5095 271.396 80.0621 267.667 81.1689C263.29 82.48 260.566 86.9073 259.016 91.2324C257.966 90.7463 256.788 90.6064 255.652 90.8329C254.517 91.0594 253.483 91.6405 252.699 92.4924C251.911 93.3736 251.305 94.402 250.916 95.5184C250.528 96.6348 250.364 97.8171 250.434 98.9971C250.471 100.534 250.788 102.052 251.371 103.475C252.818 101.773 254.555 100.07 256.292 101.313C258.029 102.556 259.068 105.11 260.668 106.421C262.402 107.872 264.286 109.134 266.287 110.184C266.985 110.627 272.026 112.415 272.145 112.994Z" fill="#17282F"/>
<path d="M250.213 148.446C250.247 148.25 250.322 148.064 250.434 147.899C250.545 147.735 250.691 147.596 250.86 147.492C251.456 147.271 252.018 147.918 252.665 148.02C252.901 148.038 253.138 148.002 253.359 147.917C253.58 147.831 253.779 147.698 253.942 147.526C254.271 147.189 254.579 146.831 254.862 146.454C255.355 145.909 255.968 145.466 256.445 144.904C256.899 144.338 257.201 143.666 257.323 142.951C257.445 142.236 257.383 141.502 257.143 140.817C257.873 140.657 258.52 140.24 258.97 139.644C259.42 139.048 259.641 138.311 259.595 137.565C259.536 137.348 259.536 137.118 259.595 136.901C259.749 136.595 260.123 136.526 260.447 136.441C260.964 136.293 261.439 136.025 261.833 135.658C262.227 135.291 262.528 134.836 262.712 134.33C262.838 134.051 262.879 133.74 262.831 133.438C262.782 133.135 262.646 132.853 262.439 132.627C262.18 132.45 261.882 132.339 261.571 132.304C259.102 131.81 256.633 131.384 254.146 131.026C253.774 130.98 253.408 130.889 253.057 130.754C252.529 130.499 252.154 130.022 251.66 129.732C250.962 129.422 250.175 129.373 249.443 129.595C248.712 129.817 248.084 130.295 247.676 130.941C246.967 132.384 246.468 133.921 246.194 135.505C245.564 137.208 245.633 139.115 244.917 140.817C244.388 142.006 243.755 143.145 243.027 144.223C239.843 149.331 227.242 166.206 224.45 169.765C221.47 173.613 218.558 177.785 217.945 182.604C217.674 184.284 217.857 186.007 218.473 187.593C220.738 192.94 228.366 194.404 232.674 190.845C234.769 188.931 236.365 186.535 237.323 183.864C238.14 181.872 238.583 179.777 239.349 177.785C240.085 176.313 240.898 174.881 241.784 173.494C243.78 169.653 245.487 165.669 246.893 161.574C247.744 159.105 248.459 156.602 249.072 154.065C249.362 152.788 249.634 151.511 249.872 150.217C250.009 149.842 250.043 149.076 250.213 148.446Z" fill="#F8A58D"/>
<defs>
<linearGradient id="paint0_linear_25_23" x1="207.882" y1="235.544" x2="360.571" y2="395.759" gradientUnits="userSpaceOnUse">
<stop offset="0.01"/>
<stop offset="0.13" stop-opacity="0.69"/>
<stop offset="0.25" stop-opacity="0.32"/>
<stop offset="1" stop-opacity="0"/>
</linearGradient>
<linearGradient id="paint1_linear_25_23" x1="143.635" y1="320.309" x2="276.981" y2="443.59" gradientUnits="userSpaceOnUse">
<stop offset="0.01"/>
<stop offset="0.13" stop-opacity="0.69"/>
<stop offset="0.25" stop-opacity="0.32"/>
<stop offset="1" stop-opacity="0"/>
</linearGradient>
<linearGradient id="paint2_linear_25_23" x1="258.42" y1="108.856" x2="287.964" y2="173.358" gradientUnits="userSpaceOnUse">
<stop offset="0.01"/>
<stop offset="0.13" stop-opacity="0.69"/>
<stop offset="0.25" stop-opacity="0.32"/>
<stop offset="1" stop-opacity="0"/>
</linearGradient>
<linearGradient id="paint3_linear_25_23" x1="225.404" y1="258.123" x2="244.492" y2="215.434" gradientUnits="userSpaceOnUse">
<stop/>
<stop offset="1" stop-opacity="0"/>
</linearGradient>
</defs>
</svg>
