<svg xmlns="http://www.w3.org/2000/svg" viewBox="0 0 491.17 461.52"><defs><style>.cls-1,.cls-11,.cls-17{fill:#f5f5f5;}.cls-2{fill:#e0e0e0;}.cls-19,.cls-3,.cls-5{fill:#fff;}.cls-4{fill:#ebebeb;}.cls-11,.cls-12,.cls-13,.cls-14,.cls-15,.cls-16,.cls-17,.cls-18,.cls-19,.cls-20,.cls-5{stroke:#000;stroke-miterlimit:10;}.cls-14,.cls-6{fill:#8ea382;}.cls-7{opacity:0.8;}.cls-12,.cls-16,.cls-8{fill:#263238;}.cls-9{opacity:0.2;}.cls-10{fill:#455a64;}.cls-11,.cls-12,.cls-13,.cls-14{stroke-width:0.5px;}.cls-13,.cls-18,.cls-20{fill:none;}.cls-15,.cls-22{fill:#fafafa;}.cls-15,.cls-16,.cls-17,.cls-18{stroke-width:0.75px;}.cls-19,.cls-20{stroke-width:0.25px;}.cls-21{opacity:0.3;}.cls-23{fill:#ffbf9d;}.cls-24{fill:#ff9a6c;}.cls-25{opacity:0.78;}.cls-26{opacity:0.5;}</style></defs><title>idea</title><g id="Desk"><polygon class="cls-1" points="114.44 410.88 114.44 453.6 176.91 453.6 245.81 453.6 245.81 410.88 114.44 410.88"/><polygon class="cls-2" points="108.93 398.94 108.93 410.88 250.41 410.88 250.41 398.94 176.91 398.94 108.93 398.94"/><polygon class="cls-2" points="179.67 453.6 245.81 453.6 245.81 410.88 250.41 410.88 250.41 398.94 176.91 398.94 176.91 409.77 179.67 453.6"/><rect class="cls-2" x="132.82" y="417.77" width="26.64" height="6.43"/><rect class="cls-3" x="129.39" y="432.24" width="34.21" height="13.58"/><polygon class="cls-1" points="129.53 366.12 129.53 398.94 177.51 398.94 230.44 398.94 230.44 366.12 129.53 366.12"/><polygon class="cls-2" points="125.3 356.95 125.3 366.12 233.97 366.12 233.97 356.95 177.51 356.95 125.3 356.95"/><polygon class="cls-4" points="179.63 398.94 230.44 398.94 230.44 366.12 233.97 366.12 233.97 356.95 177.51 356.95 177.51 365.27 179.63 398.94"/><rect class="cls-2" x="143.64" y="371.41" width="20.46" height="4.94"/><rect class="cls-3" x="141.01" y="382.53" width="26.28" height="10.43"/><path class="cls-1" d="M329.24,452.51c-22.09-15.09-27.36-43.48-26.76-69.05.1-4.27-.41-8.76,1.58-12.53s6.7-6.37,10.54-4.61c3.18,1.46,4.6,5.13,6.41,8.16a25,25,0,0,0,10.1,9.45c2.74,1.39,6.11,2.21,8.77.71,3.66-2.07,4.05-7.16,4-11.41l-.39-23.72c-.07-4.25-.13-8.58,1.15-12.62s4.16-7.82,8.18-9,9,1.1,9.94,5.25c.37,1.72,0,3.52.17,5.28s1,3.7,2.66,4.18,3.39-.74,4.64-2c4.34-4.33,7.25-9.88,10-15.4s5.36-11.17,9.29-15.88,9.38-8.48,15.46-8.89,12.59,3.28,14.19,9.23-1.83,12.08-5.58,17a94.85,94.85,0,0,1-19.53,19c-1.32,1-2.76,2-3.26,3.58-.89,2.84,1.82,5.62,4.62,6.52,3.18,1,6.61.66,9.92,1s6.91,1.78,8.2,4.89c1.78,4.32-1.8,8.91-5.34,11.92a81.22,81.22,0,0,1-23.87,14.12c-3.11,1.17-6.39,2.21-8.88,4.43s-4,6.05-2.43,9,5.47,3.89,8.73,3.25,6.18-2.44,9.28-3.65c5.81-2.26,13.35-1.94,17.13,3.06,2.49,3.29,2.76,7.9,1.56,11.86S406,423,403.33,426.21c-9.23,11.06-21.11,20-34.59,24.85s-26,6.23-39.5,1.45"/><path class="cls-2" d="M335.67,436.42a382.59,382.59,0,0,1,14.67-41.1q2.24-5.35,4.4-10.58c1.45-3.46,2.89-6.9,4.51-10.18a189.28,189.28,0,0,1,10.36-18.3c3.58-5.66,7.18-10.9,10.59-15.77s6.68-9.35,9.83-13.31a150.3,150.3,0,0,1,16.26-17.54c2.07-1.91,3.73-3.35,4.86-4.3l1.3-1.08c.3-.24.45-.36.46-.34a3.79,3.79,0,0,1-.4.4l-1.25,1.14c-1.1,1-2.73,2.46-4.77,4.41a158.86,158.86,0,0,0-16,17.66c-3.11,4-6.35,8.45-9.73,13.33s-7,10.14-10.51,15.8a189.39,189.39,0,0,0-10.28,18.24c-1.61,3.26-3,6.67-4.48,10.15l-4.4,10.57a391.63,391.63,0,0,0-14.7,41"/><path class="cls-2" d="M359.47,374.53a9.13,9.13,0,0,1-.43-1.81c-.24-1.17-.52-2.87-.84-5-.64-4.22-1.33-10.08-2.07-16.54s-1.51-12.3-2.22-16.49c-.34-2.1-.64-3.8-.86-5a8.48,8.48,0,0,1-.26-1.84,8.4,8.4,0,0,1,.55,1.77c.32,1.16.7,2.84,1.11,4.94.85,4.18,1.72,10,2.45,16.5s1.36,12.14,1.85,16.55c.23,2,.43,3.67.59,5A7.65,7.65,0,0,1,359.47,374.53Z"/><path class="cls-2" d="M413.93,363.76a10.65,10.65,0,0,1-2.17.29c-1.4.14-3.43.33-5.92.64-5,.59-11.86,1.65-19.38,3.15s-14.28,3.17-19.13,4.51c-2.43.66-4.38,1.24-5.73,1.63a12.1,12.1,0,0,1-2.13.55,12.22,12.22,0,0,1,2-.84c1.33-.48,3.26-1.15,5.68-1.87,4.82-1.49,11.58-3.24,19.12-4.76a193.1,193.1,0,0,1,19.48-2.92c2.51-.25,4.55-.36,6-.4A12,12,0,0,1,413.93,363.76Z"/><path class="cls-2" d="M336.33,435.41a3.48,3.48,0,0,1-.38-.66c-.25-.53-.57-1.18-.95-2-.82-1.71-1.94-4.21-3.29-7.32-2.7-6.23-6.15-14.94-9.84-24.61s-7.05-18.4-9.61-24.67l-3.06-7.42-.82-2a2.59,2.59,0,0,1-.24-.72,3.08,3.08,0,0,1,.38.66l1,2c.82,1.71,1.95,4.21,3.29,7.33,2.7,6.22,6.16,14.94,9.84,24.61s7,18.4,9.62,24.67l3.06,7.42c.32.81.6,1.47.82,2A2.4,2.4,0,0,1,336.33,435.41Z"/><path class="cls-2" d="M408.6,411.29a3.1,3.1,0,0,1-.72.3l-2.1.73-7.73,2.59c-6.54,2.2-15.53,5.33-25.45,8.81s-19,6.53-25.54,8.59c-3.29,1-6,1.84-7.82,2.36l-2.14.59a2.87,2.87,0,0,1-.77.15,3,3,0,0,1,.72-.31l2.1-.72,7.74-2.6c6.53-2.19,15.52-5.33,25.45-8.81s19-6.53,25.54-8.59c3.29-1,6-1.84,7.82-2.35l2.14-.59A2.41,2.41,0,0,1,408.6,411.29Z"/><path class="cls-2" d="M431.1,76.33a10.22,10.22,0,0,0,6.1-9.47c0-5.65-4.25-10.26-9.55-10.28S418,61.12,418,66.77a10.22,10.22,0,0,0,6.11,9.56C409.35,78.55,410,94.61,410,94.61l34.93.16S445.75,78.54,431.1,76.33Z"/><path class="cls-2" d="M426,199.91a15.7,15.7,0,0,1,3.86-1.68l.79-3.82,6.45-.11.93,3.79a15.59,15.59,0,0,1,3.92,1.54l3.26-2.14,4.64,4.48-2,3.34a16,16,0,0,1,1.67,3.85l3.82.8.11,6.45-3.78.93a16.15,16.15,0,0,1-1.54,3.91l2.13,3.26-4.48,4.64-3.33-2a15.7,15.7,0,0,1-3.86,1.68l-.79,3.82-6.45.11-.93-3.79a15.59,15.59,0,0,1-3.92-1.54l-3.26,2.14-4.64-4.48,2-3.33a16.05,16.05,0,0,1-1.67-3.86l-3.82-.8-.11-6.45,3.78-.93a16.15,16.15,0,0,1,1.54-3.91l-2.13-3.26,4.48-4.64,3.33,2Zm3.44,8.59a6.92,6.92,0,1,0,9.79-.17A6.92,6.92,0,0,0,429.43,208.5Z"/><path class="cls-2" d="M429.43,208.5a5.17,5.17,0,0,1,1.29-1.13,6.94,6.94,0,0,1,4.51-1.07,7,7,0,0,1,5.55,3.89,7.09,7.09,0,0,1,.67,4.07,7.08,7.08,0,0,1-5.84,6.06,6.93,6.93,0,0,1-2.13,0,6.72,6.72,0,0,1-2-.56,7.12,7.12,0,0,1-2.89-2.38,7,7,0,0,1-.29-7.58,5.22,5.22,0,0,1,1.09-1.33s-.42.46-.95,1.41a7,7,0,0,0-.77,4.43,6.76,6.76,0,0,0,5.82,5.64,6.18,6.18,0,0,0,2,0,6.69,6.69,0,0,0,5.53-5.72,6.44,6.44,0,0,0,0-2,6.34,6.34,0,0,0-.58-1.85,6.8,6.8,0,0,0-5.26-3.77,6.92,6.92,0,0,0-4.4.92C429.87,208.07,429.46,208.54,429.43,208.5Z"/><path class="cls-2" d="M426,199.91l-.21-.11-.64-.37-2.52-1.49h.08l-4.45,4.67v-.13c.65,1,1.38,2.08,2.15,3.26l0,.05,0,.07a15.84,15.84,0,0,0-1.51,3.88l0,.08-.08,0-3.78.94.11-.14c0,2,.08,4.19.12,6.45l-.12-.15,3.82.79.1,0,0,.09a15.86,15.86,0,0,0,1.67,3.82l.05.09-.05.08c-.63,1-1.31,2.18-2,3.34l0-.22,4.65,4.48-.23,0,3.26-2.15.1-.06.1.06a16,16,0,0,0,3.86,1.52l.12,0,0,.12c.3,1.18.61,2.48.94,3.78l-.2-.14,6.45-.12-.19.16c.25-1.21.53-2.51.8-3.82l0-.12.12,0a15.63,15.63,0,0,0,3.8-1.66h0l.1-.06.1.06c1.12.68,2.23,1.36,3.34,2l-.25,0,4.48-4.64,0,.24c-.72-1.1-1.43-2.19-2.14-3.26l-.06-.1.06-.1a16,16,0,0,0,1.52-3.87l0-.11.11,0,3.79-.92-.14.18q-.06-3.3-.11-6.45l.14.18-3.81-.8-.11,0,0-.11a15.54,15.54,0,0,0-1.65-3.82l-.05-.08.05-.09,2-3.33,0,.2-4.63-4.49.19,0L442,199.75l-.07,0-.07,0a16.15,16.15,0,0,0-3.88-1.54h-.08v-.08c-.34-1.38-.64-2.62-.92-3.79l.12.09-6.46.08.09-.07c-.33,1.53-.6,2.77-.82,3.82v0h0a15.82,15.82,0,0,0-2.95,1.14l-.7.36-.23.12a1,1,0,0,1,.22-.15l.68-.39a14.71,14.71,0,0,1,2.94-1.2l0,.05c.21-1,.46-2.3.77-3.82v-.07h.07l6.45-.14h.09l0,.09.94,3.79-.1-.1a16.26,16.26,0,0,1,4,1.54h-.15l3.25-2.15.1-.06.09.08,4.65,4.47.1.1-.07.11-2,3.33v-.17a15.68,15.68,0,0,1,1.7,3.9l-.13-.13,3.82.79.14,0V210q.06,3.14.12,6.45v.15l-.15,0-3.79.93.14-.14a15.81,15.81,0,0,1-1.55,4v-.21l2.14,3.26.08.14-.1.11q-2.22,2.28-4.48,4.64l-.11.12-.14-.09-3.33-2h.2a16,16,0,0,1-3.9,1.7l.14-.15c-.28,1.31-.55,2.61-.8,3.82l0,.15h-.16l-6.45.11h-.16l0-.15L430.2,229l.14.14a16.19,16.19,0,0,1-4-1.56h.2l-3.27,2.13-.12.09-.1-.11-4.64-4.48-.1-.1.07-.12,2-3.33v.17a16.07,16.07,0,0,1-1.69-3.9l.12.12-3.81-.8-.13,0v-.12c0-2.27-.07-4.42-.1-6.46v-.11l.11,0,3.79-.91-.09.09a16,16,0,0,1,1.56-3.94v.12c-.77-1.17-1.48-2.28-2.13-3.27l0-.06.05-.06c1.84-1.88,3.36-3.43,4.51-4.62l0,0,0,0,2.46,1.53.63.4A1.07,1.07,0,0,1,426,199.91Z"/><path class="cls-2" d="M85.57,58.48A7.55,7.55,0,0,0,92.69,57c1.24,1.78,2.81,3.89,4.58,6.15,1,1.24,1.92,2.39,2.82,3.47a7.72,7.72,0,0,0-4,9.08c-1.67.52-3.55,1.15-5.57,1.9-1.78.65-3.43,1.3-4.91,1.92a8.19,8.19,0,1,0,.3,1.9c1.61-.51,3.42-1.12,5.34-1.83s4-1.51,5.59-2.21a7.74,7.74,0,1,0,5.21-11.41c-.94-1.29-2-2.69-3.14-4.14-1.83-2.33-3.57-4.4-5-6.05a8.73,8.73,0,0,0,1.56-2.94c1.4-4.42-.76-9-4.83-10.33s-8.5,1.26-9.9,5.69S81.5,57.2,85.57,58.48Z"/><path class="cls-5" d="M154,29.87l3,6a.8.8,0,0,0,.59.43l6.64,1a.77.77,0,0,1,.43,1.32l-4.82,4.68a.78.78,0,0,0-.22.68l1.13,6.63a.77.77,0,0,1-1.12.81l-6-3.13a.76.76,0,0,0-.72,0L147,51.4a.77.77,0,0,1-1.12-.81L147,44a.77.77,0,0,0-.22-.68L142,38.59a.77.77,0,0,1,.43-1.32l6.65-1a.78.78,0,0,0,.58-.43l3-6A.78.78,0,0,1,154,29.87Z"/><path class="cls-2" d="M332.26,276.89a14,14,0,1,0-26,7.05h0l0,.06c.54.9,1.21,1.54,1.89,2.49l8.1,10.74a2.52,2.52,0,0,0,4,0l8-10.56a30.58,30.58,0,0,0,2-2.69l0,0h0A13.85,13.85,0,0,0,332.26,276.89Zm-14,6.08a6.15,6.15,0,1,1,6.14-6.15A6.15,6.15,0,0,1,318.3,283Z"/><path class="cls-6" d="M254.89,89.7c.14,0-.49,5.38-1.41,12s-1.79,11.92-1.93,11.9.49-5.38,1.41-12S254.74,89.68,254.89,89.7Z"/><path class="cls-6" d="M355,82.76a7.34,7.34,0,0,1-.66.58l-2,1.6c-1.77,1.39-4.25,3.36-7.3,5.78l-24.2,18.93-24.3,18.8c-3.09,2.37-5.61,4.29-7.4,5.65l-2,1.52a5.33,5.33,0,0,1-.73.5,7.34,7.34,0,0,1,.66-.58l2-1.6,7.3-5.78,24.21-18.93,24.29-18.81,7.4-5.65,2-1.52A4.31,4.31,0,0,1,355,82.76Z"/><path class="cls-6" d="M403.43,148.6c0,.14-24.5,2.17-54.73,4.54s-54.76,4.16-54.77,4,24.49-2.18,54.73-4.54S403.42,148.45,403.43,148.6Z"/><path class="cls-6" d="M335.73,208.79c-.07.13-10.46-5-23.21-11.55s-23-11.89-23-12,10.46,5.05,23.21,11.56S335.79,208.67,335.73,208.79Z"/><path class="cls-6" d="M211.77,125.6a6,6,0,0,1-.51-.62l-1.39-1.83c-1.2-1.59-2.91-3.91-5-6.79-4.19-5.76-9.89-13.79-16-22.75s-11.56-17.19-15.41-23.18c-1.93-3-3.48-5.43-4.53-7.12l-1.2-2a5.37,5.37,0,0,1-.39-.7,3.94,3.94,0,0,1,.48.65c.32.47.75,1.1,1.28,1.9,1.13,1.7,2.72,4.09,4.66,7,3.94,5.93,9.4,14.11,15.54,23.08s11.8,17,15.91,22.83L210,123l1.31,1.89A3.9,3.9,0,0,1,211.77,125.6Z"/><path class="cls-6" d="M198.58,144.51c-.07.13-6.87-2.95-15.21-6.88s-15.05-7.22-15-7.35,6.87,2.95,15.21,6.88S198.64,144.38,198.58,144.51Z"/><path class="cls-6" d="M194.7,163.06c0,.15-23-1.79-51.28-4.33S92.17,154,92.19,153.87s23,1.8,51.28,4.34S194.71,162.92,194.7,163.06Z"/><path class="cls-6" d="M202.9,190.5c0,.13-13.58,6.06-30.44,13.25s-30.6,12.9-30.65,12.77,13.57-6.06,30.44-13.25S202.84,190.36,202.9,190.5Z"/><circle class="cls-6" cx="244.67" cy="163.06" r="49.97"/><g class="cls-7"><circle class="cls-3" cx="244.67" cy="163.06" r="49.97"/></g><path class="cls-6" d="M261.47,150.34a19.85,19.85,0,1,0-21.68,25.56c.69,2.25,1.48,4.78,1.48,4.78l16.61-5.17s-.73-2.71-1.44-5.12A19.84,19.84,0,0,0,261.47,150.34Z"/><path class="cls-8" d="M251.85,177.3s0-.08,0-.24-.08-.4-.14-.71c-.11-.62-.28-1.54-.47-2.73s-.39-2.64-.53-4.35a30.08,30.08,0,0,1,.08-5.81,18,18,0,0,1,.68-3.32,3.63,3.63,0,0,1,.93-1.57,2.06,2.06,0,0,1,1.82-.5,1.36,1.36,0,0,1,1.05,1.56,2.8,2.8,0,0,1-1.07,1.72,5.4,5.4,0,0,1-4,1,5.54,5.54,0,0,1-3.66-2.33,4.21,4.21,0,0,1-.8-2.15A1.8,1.8,0,0,1,247,156a1.3,1.3,0,0,1,1.17.37,1.76,1.76,0,0,1,.51,1.12,3.85,3.85,0,0,1-.74,2.3,5.94,5.94,0,0,1-4,2.66,5.17,5.17,0,0,1-4.51-1.59,3,3,0,0,1-.85-2.26,1.51,1.51,0,0,1,.57-1.09,1.48,1.48,0,0,1,1.2-.26,2,2,0,0,1,1.06.58,3.19,3.19,0,0,1,.63,1,5.7,5.7,0,0,1,.39,2.26,6,6,0,0,1-1.68,4,6,6,0,0,1-3.76,1.76,3.14,3.14,0,0,1-2-.37,1.55,1.55,0,0,1-.67-1.8A1.33,1.33,0,0,1,235,164a1.86,1.86,0,0,1,1-.1,2.87,2.87,0,0,1,1.57.93c.79.88,1.49,1.76,2.17,2.6,2.71,3.34,4.76,6.16,6.16,8.11.7,1,1.23,1.75,1.59,2.27l.4.6a1.94,1.94,0,0,1,.13.21l-.15-.2-.42-.58-1.63-2.24c-1.42-1.94-3.49-4.73-6.21-8.06-.69-.83-1.4-1.72-2.18-2.57a2.71,2.71,0,0,0-1.46-.88,1.19,1.19,0,0,0-.86,2.21,3,3,0,0,0,1.85.34,5.85,5.85,0,0,0,3.62-1.71,5.7,5.7,0,0,0,1.6-3.86,5.35,5.35,0,0,0-.37-2.16,2.16,2.16,0,0,0-1.51-1.44,1.25,1.25,0,0,0-1,.22,1.29,1.29,0,0,0-.48.93,2.74,2.74,0,0,0,.79,2.07,4.91,4.91,0,0,0,4.3,1.51,5.73,5.73,0,0,0,3.85-2.55,3.68,3.68,0,0,0,.7-2.15,1.56,1.56,0,0,0-.44-1,1,1,0,0,0-1-.3,1.35,1.35,0,0,0-.84.6,1.63,1.63,0,0,0-.28,1,4,4,0,0,0,.75,2,5.25,5.25,0,0,0,3.5,2.23,5.19,5.19,0,0,0,3.86-.89,2.67,2.67,0,0,0,1-1.58,1.17,1.17,0,0,0-.9-1.33,1.82,1.82,0,0,0-1.64.45,3.57,3.57,0,0,0-.89,1.48,20.17,20.17,0,0,0-.68,3.28,29.94,29.94,0,0,0-.11,5.78c.12,1.7.32,3.16.49,4.35s.32,2.1.42,2.74c0,.3.09.54.11.71A1.47,1.47,0,0,1,251.85,177.3Z"/><path class="cls-8" d="M257.56,179l-14.26,4.44a1.11,1.11,0,0,1-1.4-.73h0a1.12,1.12,0,0,1,.74-1.41l14.26-4.44a1.12,1.12,0,0,1,1.4.74h0A1.12,1.12,0,0,1,257.56,179Z"/><path class="cls-8" d="M257.85,179.92l-14.26,4.44a1.11,1.11,0,0,0-.73,1.4,1.12,1.12,0,0,0,1.4.74l1.57-.49,3.3,3.31a1.44,1.44,0,0,0,1.45.35l5.09-1.58a1.46,1.46,0,0,0,1-1.13l.79-4.57,1.06-.33a1.12,1.12,0,1,0-.67-2.14Z"/><g class="cls-9"><path class="cls-3" d="M226.58,148a14.58,14.58,0,0,1,3-3.7,10.4,10.4,0,0,1,2.66-1.76c.69-.3,1.12-.36,1.21-.22.18.32-1.09,1.28-2.63,3.17A16.33,16.33,0,0,0,228.5,163c1,2.23,2,3.49,1.7,3.75s-.52-.06-1.11-.53a10.32,10.32,0,0,1-2.1-2.39,14.71,14.71,0,0,1-1.94-4.36,15.63,15.63,0,0,1-.38-5.9"/></g><g class="cls-9"><path class="cls-3" d="M238.27,141.68c-1.21.36-2.37.36-2.69-.23a1,1,0,0,1,.32-1.11,3.76,3.76,0,0,1,1.65-1,3.61,3.61,0,0,1,1.93-.1c.52.13.84.4.88.73"/></g><path class="cls-10" d="M256.51,187.38a10.33,10.33,0,0,1-1.08,0,8.34,8.34,0,0,0-4.77,1.64c-.53.39-.82.69-.85.66a2.93,2.93,0,0,1,.74-.79,7.23,7.23,0,0,1,2.29-1.29,7.36,7.36,0,0,1,2.59-.39A3,3,0,0,1,256.51,187.38Z"/><path class="cls-10" d="M257.5,182.43c0,.06-2.54.92-5.72,1.91S246,186.08,246,186s2.54-.92,5.72-1.91S257.48,182.36,257.5,182.43Z"/><path class="cls-10" d="M257.14,184.4a9.36,9.36,0,0,1-1.36.58c-.86.32-2,.75-3.37,1.18s-2.53.79-3.41,1a9.16,9.16,0,0,1-1.44.34A9.71,9.71,0,0,1,249,187l3.39-1.1,3.38-1.11A8.48,8.48,0,0,1,257.14,184.4Z"/><path class="cls-6" d="M178,41.21a3,3,0,0,1-.05-.4c0-.28,0-.67-.08-1.16l-.06-.86c0-.31-.1-.65-.16-1a17.29,17.29,0,0,0-.52-2.53,23,23,0,0,0-2.73-6.5,24.35,24.35,0,0,0-29.24-10.37A26.06,26.06,0,0,0,142,19.76a27,27,0,0,0-3,1.92A27.67,27.67,0,0,0,136.22,24a26.76,26.76,0,0,0-2.38,2.81,23.43,23.43,0,0,0-3.47,6.7,25.89,25.89,0,0,0-1.26,7.67,25.94,25.94,0,0,0,1.26,7.67,23.38,23.38,0,0,0,3.47,6.69,25.89,25.89,0,0,0,2.38,2.82A26.59,26.59,0,0,0,139,60.74a27,27,0,0,0,3,1.92,26.06,26.06,0,0,0,3.17,1.39,24.45,24.45,0,0,0,29.25-10.37,23.65,23.65,0,0,0,2.73-6.5,18.56,18.56,0,0,0,.51-2.53c.06-.37.13-.71.16-1l.06-.86c0-.49.06-.88.08-1.16a3,3,0,0,1,.05-.4,2.38,2.38,0,0,1,0,.4c0,.29,0,.67,0,1.17,0,.26,0,.55,0,.86s-.08.66-.13,1a18.45,18.45,0,0,1-.48,2.56,23.23,23.23,0,0,1-2.67,6.59A24.76,24.76,0,0,1,158,65.55a24.9,24.9,0,0,1-13-1,25.49,25.49,0,0,1-3.23-1.41,26.65,26.65,0,0,1-3-2,28.76,28.76,0,0,1-2.82-2.39,29.22,29.22,0,0,1-2.43-2.87A24.19,24.19,0,0,1,129.87,49a26.63,26.63,0,0,1-1.28-7.83,26.27,26.27,0,0,1,1.29-7.83,23.91,23.91,0,0,1,3.55-6.84,28.1,28.1,0,0,1,2.43-2.87,28.76,28.76,0,0,1,2.82-2.39,26.65,26.65,0,0,1,3-2A25.49,25.49,0,0,1,145,17.92a24.87,24.87,0,0,1,13-1.05,24.72,24.72,0,0,1,16.64,11.72,23,23,0,0,1,2.68,6.6,18.45,18.45,0,0,1,.48,2.56c.05.37.11.71.13,1s0,.6,0,.86c0,.5,0,.88,0,1.17A2.38,2.38,0,0,1,178,41.21Z"/><circle class="cls-3" cx="59.35" cy="149.91" r="32.84"/><path class="cls-6" d="M92.19,149.91s0-.18-.06-.53-.06-.89-.1-1.55c0-.35,0-.73-.07-1.15s-.14-.88-.21-1.37a24.3,24.3,0,0,0-.69-3.39,31.38,31.38,0,0,0-3.64-8.7,32.85,32.85,0,0,0-22-15.35,30.87,30.87,0,0,0-4.13-.48c-.7,0-1.41-.09-2.12-.08l-2.16.11c-.36,0-.73,0-1.09.07l-1.09.17c-.72.12-1.46.21-2.19.36a33.13,33.13,0,0,0-4.35,1.28A33.81,33.81,0,0,0,44,121.16c-.69.38-1.35.81-2,1.22a17.19,17.19,0,0,0-2,1.35,36.38,36.38,0,0,0-3.69,3.15,37.45,37.45,0,0,0-3.2,3.77,31.53,31.53,0,0,0-4.65,9,32.2,32.2,0,0,0,0,20.56,31.54,31.54,0,0,0,4.66,9A36.49,36.49,0,0,0,36.3,173,36.38,36.38,0,0,0,40,176.1a17.6,17.6,0,0,0,2,1.35c.68.41,1.34.84,2,1.21a32.48,32.48,0,0,0,4.25,1.87,33.13,33.13,0,0,0,4.35,1.28c.73.15,1.47.24,2.19.36l1.09.17c.36,0,.73,0,1.09.07l2.16.11c.71,0,1.42-.06,2.12-.08a30.87,30.87,0,0,0,4.13-.48,32.78,32.78,0,0,0,22-15.35,31.38,31.38,0,0,0,3.64-8.7,24.3,24.3,0,0,0,.69-3.39c.07-.49.16-1,.21-1.37s.05-.8.07-1.15c0-.66.08-1.18.1-1.55s.06-.54.06-.54,0,.19,0,.54,0,.89-.06,1.56c0,.35,0,.73,0,1.15s-.12.88-.19,1.38a22.58,22.58,0,0,1-.64,3.42,31,31,0,0,1-3.59,8.8,33.08,33.08,0,0,1-22.22,15.63,30.21,30.21,0,0,1-4.18.49c-.71,0-1.43.1-2.16.09l-2.18-.11c-.37,0-.74,0-1.11-.07l-1.1-.16c-.74-.12-1.49-.21-2.23-.36a35.84,35.84,0,0,1-8.73-3.17c-.7-.38-1.37-.82-2.06-1.23a16.07,16.07,0,0,1-2-1.37,37.75,37.75,0,0,1-3.76-3.19,37.34,37.34,0,0,1-3.25-3.83A32.42,32.42,0,0,1,28,160.36a32.76,32.76,0,0,1,0-20.89,32.15,32.15,0,0,1,4.74-9.12,36.3,36.3,0,0,1,3.25-3.83,37.75,37.75,0,0,1,3.76-3.19,16.85,16.85,0,0,1,2-1.37c.69-.41,1.36-.85,2.06-1.23a35.84,35.84,0,0,1,8.73-3.17c.74-.15,1.49-.24,2.23-.36l1.1-.16c.37-.05.74-.05,1.1-.07l2.19-.11c.73,0,1.45.06,2.16.09a30.21,30.21,0,0,1,4.18.49,33,33,0,0,1,22.22,15.63,31.19,31.19,0,0,1,3.59,8.8,22.58,22.58,0,0,1,.64,3.42c.07.49.15,1,.19,1.38s0,.8,0,1.15q0,1,.06,1.56C92.2,149.73,92.19,149.91,92.19,149.91Z"/><circle class="cls-11" cx="59.44" cy="150.72" r="17.51" transform="translate(-54.45 35.48) rotate(-23.14)"/><path class="cls-12" d="M77,150.72s0-.38-.08-1.11a8.28,8.28,0,0,0-.15-1.34,12.27,12.27,0,0,0-.36-1.81,16.82,16.82,0,0,0-1.94-4.65,17.41,17.41,0,0,0-20.92-7.44,16,16,0,0,0-4.41,2.37,18.24,18.24,0,0,0-2,1.68,19.49,19.49,0,0,0-1.71,2,17.31,17.31,0,0,0,0,20.58,18.6,18.6,0,0,0,1.71,2,17.33,17.33,0,0,0,2,1.68,16,16,0,0,0,4.41,2.37,17.45,17.45,0,0,0,20.92-7.44A16.82,16.82,0,0,0,76.37,155a12.52,12.52,0,0,0,.36-1.81,8.28,8.28,0,0,0,.15-1.34c0-.73.08-1.12.08-1.12s0,.39,0,1.12a8.2,8.2,0,0,1-.13,1.35,12.35,12.35,0,0,1-.34,1.82,16.71,16.71,0,0,1-1.92,4.69A17.64,17.64,0,0,1,62.69,168a17.53,17.53,0,0,1-9.25-.75A16.48,16.48,0,0,1,49,164.87a21.05,21.05,0,0,1-2-1.69,21.07,21.07,0,0,1-1.72-2,17.53,17.53,0,0,1,0-20.83,21.07,21.07,0,0,1,1.72-2,21.05,21.05,0,0,1,2-1.69,16.48,16.48,0,0,1,4.46-2.39,17.53,17.53,0,0,1,9.25-.75,17.64,17.64,0,0,1,11.84,8.31,16.59,16.59,0,0,1,1.92,4.69,12.35,12.35,0,0,1,.34,1.82,8.2,8.2,0,0,1,.13,1.35C77,150.34,77,150.72,77,150.72Z"/><path class="cls-13" d="M59.44,139.28a11.44,11.44,0,1,0,11.44,11.44A11.46,11.46,0,0,0,59.44,139.28Z"/><path class="cls-14" d="M59.44,139.28a9.1,9.1,0,0,1,2.82.27,11.52,11.52,0,0,1,8.63,9,11.71,11.71,0,0,1-.48,6.13,11.14,11.14,0,0,1-1.58,3,11,11,0,0,1-2.48,2.48,11.57,11.57,0,0,1-13.82,0,11.85,11.85,0,0,1-4.06-5.44,11.52,11.52,0,0,1,1.74-11,11.38,11.38,0,0,1,6.42-4.14,9,9,0,0,1,2.81-.27,26,26,0,0,0-2.76.46,11.44,11.44,0,0,0-6.18,4.18,11.12,11.12,0,0,0-2.08,4.73,11.23,11.23,0,0,0,.51,5.89,11.21,11.21,0,0,0,3.91,5.19,11.14,11.14,0,0,0,13.21,0A11.21,11.21,0,0,0,70,154.54a11.18,11.18,0,0,0-1.57-10.62,11.48,11.48,0,0,0-6.18-4.18A25.94,25.94,0,0,0,59.44,139.28Z"/><path class="cls-13" d="M59.44,147.09a3.64,3.64,0,1,0,3.63,3.63A3.64,3.64,0,0,0,59.44,147.09Z"/><path class="cls-14" d="M59.44,147.09a1.85,1.85,0,0,1,.91,0,3.58,3.58,0,0,1,2.12,1.31,3.76,3.76,0,0,1,.61,3.62,3.85,3.85,0,0,1-7.27,0,3.76,3.76,0,0,1,.6-3.62,3.63,3.63,0,0,1,2.12-1.31,1.83,1.83,0,0,1,.91,0s-.32,0-.86.22a3.65,3.65,0,0,0-1.88,1.33,3.41,3.41,0,1,0,5.48,0,3.61,3.61,0,0,0-1.88-1.33C59.77,147.14,59.44,147.14,59.44,147.09Z"/><path class="cls-11" d="M40.78,163.35c6-4.22,12.61-8.41,18.66-12.63"/><path class="cls-12" d="M59.44,150.73s-4.12,2.91-9.27,6.39-9.36,6.27-9.39,6.23,4.12-2.92,9.27-6.4S59.41,150.68,59.44,150.73Z"/><path class="cls-12" d="M42.84,162.12a11.29,11.29,0,0,1-2.17,0,10.73,10.73,0,0,1-2.15-.18,11.11,11.11,0,0,1,2.16,0A13.2,13.2,0,0,1,42.84,162.12Z"/><path class="cls-12" d="M42.1,165a5.79,5.79,0,0,1,.21-1.48,5.48,5.48,0,0,1,.42-1.44,5.38,5.38,0,0,1-.21,1.48A5.64,5.64,0,0,1,42.1,165Z"/><path class="cls-12" d="M43.16,164.63a5.69,5.69,0,0,1,.17-1.54,5.5,5.5,0,0,1,.38-1.51,5.69,5.69,0,0,1-.17,1.54A5.5,5.5,0,0,1,43.16,164.63Z"/><path class="cls-12" d="M40.68,160.88a5.21,5.21,0,0,1,1.5.25,5.13,5.13,0,0,1,1.45.45,6.2,6.2,0,0,1-1.5-.25A5.54,5.54,0,0,1,40.68,160.88Z"/><circle class="cls-3" cx="154.12" cy="117.78" r="19.04" transform="translate(-33.1 67.05) rotate(-22.23)"/><path class="cls-6" d="M173.15,117.78a1.61,1.61,0,0,1,0-.31c0-.23,0-.53-.07-.9a10.25,10.25,0,0,0-.17-1.46,15.72,15.72,0,0,0-.41-2,18.37,18.37,0,0,0-2.12-5,19,19,0,0,0-4.82-5.34,18.8,18.8,0,0,0-17.81-2.67,17.57,17.57,0,0,0-4.75,2.57,21.25,21.25,0,0,0-2.13,1.81,20.38,20.38,0,0,0-1.84,2.18,18.7,18.7,0,0,0,0,22.2,21.41,21.41,0,0,0,1.84,2.18,20.19,20.19,0,0,0,2.13,1.81,17.54,17.54,0,0,0,4.75,2.56,18.9,18.9,0,0,0,9.88.84,19.07,19.07,0,0,0,12.75-8.84,18.42,18.42,0,0,0,2.12-5,15,15,0,0,0,.41-2A10.14,10.14,0,0,0,173,119c0-.37.05-.67.07-.9a1.44,1.44,0,0,1,0-.31.9.9,0,0,1,0,.31c0,.23,0,.53,0,.91a8.47,8.47,0,0,1-.12,1.47,13.32,13.32,0,0,1-.36,2,18.06,18.06,0,0,1-2.07,5.12,19.13,19.13,0,0,1-23,8.31,17.93,17.93,0,0,1-4.89-2.61,22.45,22.45,0,0,1-2.19-1.86,20.4,20.4,0,0,1-1.89-2.23,19.18,19.18,0,0,1,0-22.81,22.48,22.48,0,0,1,1.89-2.23,21,21,0,0,1,2.19-1.85,18,18,0,0,1,4.89-2.62,19.26,19.26,0,0,1,10.12-.8A19.17,19.17,0,0,1,170.59,108a18.22,18.22,0,0,1,2.07,5.13,13.32,13.32,0,0,1,.36,2,8.47,8.47,0,0,1,.12,1.47c0,.38,0,.68,0,.91A.94.94,0,0,1,173.15,117.78Z"/><path class="cls-11" d="M155.69,118.06a4.45,4.45,0,0,0,2.65-4.11,4.18,4.18,0,1,0-8.35,0,4.45,4.45,0,0,0,2.66,4.15c-6.42,1-6.13,8-6.13,8l15.19.07S162.05,119,155.69,118.06Z"/><path class="cls-12" d="M155.69,118.06a7.55,7.55,0,0,1,2.8,1,6.79,6.79,0,0,1,2.31,2.58,10,10,0,0,1,1,4.46v.08h-.08l-15.19,0h-.1V126a9.77,9.77,0,0,1,1-4.29,6.52,6.52,0,0,1,2.2-2.59,8,8,0,0,1,3.07-1.17l0,.2a4.52,4.52,0,0,1-2.7-4,4.65,4.65,0,0,1,1.91-4,4.08,4.08,0,0,1,4-.4,4.47,4.47,0,0,1,2.34,2.57,4.7,4.7,0,0,1,.1,2.86,4.43,4.43,0,0,1-1,1.87,3.82,3.82,0,0,1-1.07.83,2.68,2.68,0,0,1-.42.19,4.66,4.66,0,0,0,1.44-1.06,4.42,4.42,0,0,0,1-1.86,4.65,4.65,0,0,0-.13-2.79,4.27,4.27,0,0,0-2.27-2.47,3.91,3.91,0,0,0-3.8.41,4.45,4.45,0,0,0-1.82,3.87,4.34,4.34,0,0,0,2.59,3.81l.32.13-.34.06a7.82,7.82,0,0,0-3,1.14,6.35,6.35,0,0,0-2.13,2.51,9.66,9.66,0,0,0-.93,4.19l-.11-.09,15.19.09-.08.07a9.77,9.77,0,0,0-.95-4.39,6.59,6.59,0,0,0-2.24-2.56,5.15,5.15,0,0,0-1.12-.57,4.23,4.23,0,0,0-.89-.3Z"/><circle class="cls-3" cx="110.91" cy="228.6" r="33.17" transform="translate(-132.02 303.08) rotate(-81.17)"/><path class="cls-6" d="M144.08,228.6s0-.18-.06-.54-.06-.9-.1-1.57c0-.35,0-.74-.07-1.16s-.14-.88-.21-1.39a23.66,23.66,0,0,0-.7-3.42,31.26,31.26,0,0,0-3.68-8.79A33.16,33.16,0,0,0,117,196.23a28.61,28.61,0,0,0-4.17-.48c-.71,0-1.43-.1-2.15-.09l-2.18.12c-.36,0-.73,0-1.1.07l-1.1.17c-.73.12-1.47.21-2.21.36a34.87,34.87,0,0,0-4.39,1.29,33.24,33.24,0,0,0-4.3,1.89c-.69.37-1.36.81-2,1.22a16.63,16.63,0,0,0-2,1.37,37.23,37.23,0,0,0-3.74,3.18,35.81,35.81,0,0,0-3.22,3.81,32.06,32.06,0,0,0-4.71,9.07,32.57,32.57,0,0,0,0,20.77,31.9,31.9,0,0,0,4.7,9.07,37.23,37.23,0,0,0,3.23,3.82,38.27,38.27,0,0,0,3.73,3.18,17.59,17.59,0,0,0,2,1.37c.69.4,1.36.84,2,1.22a33.24,33.24,0,0,0,4.3,1.89,34.87,34.87,0,0,0,4.39,1.29c.74.15,1.48.24,2.21.36l1.1.17c.37,0,.74,0,1.1.07l2.18.11c.73,0,1.44,0,2.15-.08A29.88,29.88,0,0,0,117,261a33.06,33.06,0,0,0,22.27-15.51,31.14,31.14,0,0,0,3.68-8.79,23.39,23.39,0,0,0,.7-3.42c.07-.5.16-1,.21-1.38s.05-.81.07-1.16c0-.68.08-1.2.1-1.57s.06-.54.06-.54,0,.18,0,.54,0,.9-.06,1.58c0,.35,0,.73,0,1.16s-.12.89-.19,1.39a23,23,0,0,1-.65,3.45,31.49,31.49,0,0,1-3.62,8.89,33.41,33.41,0,0,1-22.45,15.79,32.43,32.43,0,0,1-4.22.5c-.72,0-1.45.1-2.18.09l-2.21-.11c-.37,0-.74,0-1.12-.07l-1.11-.17c-.74-.12-1.5-.21-2.25-.36a37,37,0,0,1-4.46-1.3,34.13,34.13,0,0,1-4.36-1.91c-.71-.38-1.38-.82-2.08-1.24a17.16,17.16,0,0,1-2-1.38,39.71,39.71,0,0,1-3.8-3.22A38.28,38.28,0,0,1,84,248.36a32.52,32.52,0,0,1-4.78-9.21,33,33,0,0,1,0-21.1A32,32,0,0,1,84,208.84a30.76,30.76,0,0,1,7.07-7.09,16,16,0,0,1,2-1.38c.7-.42,1.38-.86,2.08-1.24a34.13,34.13,0,0,1,4.36-1.91,35.23,35.23,0,0,1,4.46-1.3c.75-.15,1.51-.24,2.25-.36l1.11-.17c.37,0,.75,0,1.12-.07l2.21-.11c.73,0,1.46.06,2.18.09a30.79,30.79,0,0,1,4.22.5,33.31,33.31,0,0,1,22.44,15.78,31.3,31.3,0,0,1,3.63,8.9,23.16,23.16,0,0,1,.65,3.44c.07.51.15,1,.19,1.4s0,.81,0,1.16c0,.68,0,1.21.06,1.58S144.08,228.6,144.08,228.6Z"/><circle class="cls-11" cx="110.83" cy="228.43" r="17.63" transform="translate(-124.06 132.04) rotate(-41.81)"/><path class="cls-12" d="M93.24,227.28s0,.09,0,.28V229c0,.22,0,.47.07.74a12.78,12.78,0,0,0,.25,1.83,16.77,16.77,0,0,0,1.66,4.78,17.45,17.45,0,0,0,20.44,8.79,18.76,18.76,0,0,0,2.34-.85,17.29,17.29,0,0,0,2.22-1.23,20.4,20.4,0,0,0,2.08-1.55,20.68,20.68,0,0,0,1.84-1.9A17.06,17.06,0,0,0,127,235a18.38,18.38,0,0,0,1.26-5.43,18.64,18.64,0,0,0-.53-5.54,17.24,17.24,0,0,0-2.17-5,20.59,20.59,0,0,0-1.58-2.13,18.58,18.58,0,0,0-1.86-1.8,16.27,16.27,0,0,0-2-1.51,17.1,17.1,0,0,0-2.2-1.15,17.49,17.49,0,0,0-21.42,6A16.67,16.67,0,0,0,94.15,223a12.72,12.72,0,0,0-.5,1.79c-.05.26-.12.5-.16.72s-.06.43-.08.61l-.12.83c0,.19-.05.29-.05.29a.93.93,0,0,1,0-.29c0-.21,0-.49.08-.84l.06-.61c0-.23.09-.47.14-.74A12.66,12.66,0,0,1,94,223a17,17,0,0,1,2.23-4.6A17.7,17.7,0,0,1,118,212.13a15.7,15.7,0,0,1,4.35,2.71,20.65,20.65,0,0,1,1.91,1.84,21.77,21.77,0,0,1,1.61,2.17,17.34,17.34,0,0,1,2.22,5.07,18.6,18.6,0,0,1,.55,5.68,19.26,19.26,0,0,1-1.28,5.56,17.44,17.44,0,0,1-2.87,4.73,19.26,19.26,0,0,1-1.89,1.94,18.92,18.92,0,0,1-2.13,1.58,18.09,18.09,0,0,1-2.27,1.26,20.14,20.14,0,0,1-2.39.86,17.85,17.85,0,0,1-9.39.13A17.77,17.77,0,0,1,95,236.47a16.68,16.68,0,0,1-1.6-4.85,12.61,12.61,0,0,1-.22-1.85c0-.27,0-.52,0-.75s0-.43,0-.62l0-.84A.9.9,0,0,1,93.24,227.28Z"/><path class="cls-12" d="M118.83,229a2.78,2.78,0,0,1-.62,0l-1.71,0-5.77,0h-.11v-1.26c0-2.55,0-4.87,0-6.54,0-.81,0-1.47,0-2a4.28,4.28,0,0,1,0-.73,3.85,3.85,0,0,1,0,.73c0,.51,0,1.17,0,2,0,1.67,0,4,0,6.54V229l-.11-.11c2.29,0,4.31,0,5.77,0l1.71,0A3.84,3.84,0,0,1,118.83,229Z"/><path class="cls-12" d="M110.78,213.7a9.19,9.19,0,0,1,0,3,10,10,0,0,1,0-3Z"/><path class="cls-12" d="M118.82,216.08a5.24,5.24,0,0,1-1,1.11,4.77,4.77,0,0,1-1.11.95,5,5,0,0,1,1-1.11A4.43,4.43,0,0,1,118.82,216.08Z"/><path class="cls-12" d="M123.51,221.21a6.74,6.74,0,0,1-1.21.81,6.48,6.48,0,0,1-1.28.7,6.39,6.39,0,0,1,2.49-1.51Z"/><path class="cls-12" d="M126.26,228.82a18.51,18.51,0,0,1-4,0,18.51,18.51,0,0,1,4,0Z"/><path class="cls-12" d="M98.26,228.55a16.55,16.55,0,0,1-3.81,0,16.55,16.55,0,0,1,3.81,0Z"/><path class="cls-12" d="M100.24,234.22a7.89,7.89,0,0,1-1.44,1.31,8.33,8.33,0,0,1-1.58,1.13,7.89,7.89,0,0,1,1.44-1.31A8.33,8.33,0,0,1,100.24,234.22Z"/><path class="cls-12" d="M105.13,238.6a13.37,13.37,0,0,1-1,1.7,13.85,13.85,0,0,1-1,1.67,6.24,6.24,0,0,1,.84-1.79A6.56,6.56,0,0,1,105.13,238.6Z"/><path class="cls-12" d="M110.78,244.26a18.6,18.6,0,0,1,0-4,17.06,17.06,0,0,1,0,4Z"/><path class="cls-12" d="M119.49,241.57a6.16,6.16,0,0,1-1.67-1.15,5.74,5.74,0,0,1-1.35-1.49s.67.6,1.5,1.32A19.47,19.47,0,0,1,119.49,241.57Z"/><path class="cls-12" d="M123.57,237.17a7.68,7.68,0,0,1-1.33-1.18,6.36,6.36,0,0,1-1.18-1.34,7.42,7.42,0,0,1,1.34,1.18A6.47,6.47,0,0,1,123.57,237.17Z"/><path class="cls-12" d="M100.06,223.12a5.1,5.1,0,0,1-1.18-1,5.42,5.42,0,0,1-1-1.18,10.75,10.75,0,0,1,2.2,2.2Z"/><path class="cls-12" d="M105.1,217.81a5.6,5.6,0,0,1-1.16-1,5.22,5.22,0,0,1-1-1.16,5.08,5.08,0,0,1,1.16,1A5.48,5.48,0,0,1,105.1,217.81Z"/><path class="cls-6" d="M400.22,226.27s0-.18-.05-.55-.06-.94-.11-1.64l-.07-1.2c-.05-.44-.14-.92-.22-1.44a25.51,25.51,0,0,0-.72-3.56,33,33,0,0,0-3.82-9.13,34.41,34.41,0,0,0-23.15-16.12,32.41,32.41,0,0,0-4.33-.5c-.74,0-1.48-.1-2.23-.08l-2.27.11c-.38,0-.76,0-1.14.08l-1.15.17c-.76.13-1.53.22-2.3.38a36.39,36.39,0,0,0-4.56,1.34,35.88,35.88,0,0,0-4.47,2c-.72.39-1.41.85-2.13,1.27a18,18,0,0,0-2.06,1.43,37.63,37.63,0,0,0-3.88,3.3,38.71,38.71,0,0,0-3.35,4,33.17,33.17,0,0,0-4.9,9.43,34,34,0,0,0,0,21.59,33.34,33.34,0,0,0,4.89,9.42,31.49,31.49,0,0,0,7.24,7.27,18,18,0,0,0,2.06,1.43c.72.42,1.41.88,2.13,1.27a35.88,35.88,0,0,0,4.47,2,36.39,36.39,0,0,0,4.56,1.34c.77.16,1.54.25,2.3.38l1.15.17c.38.05.76.05,1.14.08l2.27.11c.75,0,1.49-.06,2.23-.08a32.41,32.41,0,0,0,4.33-.5,34.49,34.49,0,0,0,23.15-16.12,33.08,33.08,0,0,0,3.82-9.14,25.39,25.39,0,0,0,.72-3.55c.08-.52.17-1,.22-1.44s.05-.84.07-1.2c.05-.71.08-1.25.11-1.64s.05-.56.05-.56,0,.19,0,.56,0,.94-.05,1.64c0,.37,0,.77-.05,1.21s-.13.93-.2,1.45a23.81,23.81,0,0,1-.68,3.58,32.53,32.53,0,0,1-3.76,9.24,34.65,34.65,0,0,1-23.32,16.39,31.35,31.35,0,0,1-4.39.52c-.74,0-1.5.11-2.26.1l-2.29-.12c-.39,0-.78,0-1.16-.07l-1.16-.17c-.77-.13-1.56-.22-2.34-.38a38.07,38.07,0,0,1-9.16-3.33c-.73-.4-1.43-.86-2.16-1.29a17.36,17.36,0,0,1-2.1-1.44,31.83,31.83,0,0,1-7.35-7.36,33.75,33.75,0,0,1-5-9.57,34.45,34.45,0,0,1,0-21.92,33.83,33.83,0,0,1,5-9.56,38.89,38.89,0,0,1,3.41-4,37.44,37.44,0,0,1,3.94-3.34,17.36,17.36,0,0,1,2.1-1.44c.73-.43,1.43-.89,2.16-1.29a38.07,38.07,0,0,1,9.16-3.33c.78-.16,1.57-.25,2.34-.38l1.16-.17c.38-.05.77-.05,1.16-.07l2.29-.12c.76,0,1.52.07,2.26.1a31.71,31.71,0,0,1,4.39.52,34.65,34.65,0,0,1,23.32,16.39,32.48,32.48,0,0,1,3.76,9.23,24.16,24.16,0,0,1,.68,3.59c.07.52.16,1,.2,1.44s0,.85.05,1.21c0,.71,0,1.26.05,1.65S400.22,226.27,400.22,226.27Z"/><path class="cls-6" d="M455.52,147.82a3.81,3.81,0,0,1,0-.42c0-.31-.05-.71-.08-1.24q0-.41-.06-.9c0-.33-.11-.69-.17-1.09a19.89,19.89,0,0,0-.55-2.67,24.83,24.83,0,0,0-2.88-6.87,26.05,26.05,0,0,0-6.57-7.31,25.6,25.6,0,0,0-10.85-4.8,26.14,26.14,0,0,0-16.87,2.61,26.36,26.36,0,0,0-3.15,2,27.18,27.18,0,0,0-2.92,2.48,29.14,29.14,0,0,0-2.52,3,24.81,24.81,0,0,0-3.67,7.08,25.42,25.42,0,0,0,0,16.23,24.82,24.82,0,0,0,3.67,7.08,27.92,27.92,0,0,0,2.52,3,27.18,27.18,0,0,0,2.92,2.48,26.36,26.36,0,0,0,3.15,2,26.14,26.14,0,0,0,16.87,2.61,25.6,25.6,0,0,0,10.85-4.8,25.9,25.9,0,0,0,6.57-7.31,24.71,24.71,0,0,0,2.88-6.87,19.89,19.89,0,0,0,.55-2.67c.06-.4.13-.75.17-1.09s0-.63.06-.9c0-.52.06-.93.08-1.23a3.39,3.39,0,0,1,0-.42,2.66,2.66,0,0,1,0,.42c0,.3,0,.71,0,1.23l0,.92c0,.33-.09.69-.15,1.09a18.06,18.06,0,0,1-.5,2.7,24.94,24.94,0,0,1-2.83,7,26.07,26.07,0,0,1-31.35,11.28,27.1,27.1,0,0,1-3.42-1.5,25,25,0,0,1-3.22-2.06,29.44,29.44,0,0,1-3-2.52,29.05,29.05,0,0,1-2.57-3,25.44,25.44,0,0,1-3.76-7.22,28.26,28.26,0,0,1-1.35-8.28,27.92,27.92,0,0,1,1.36-8.27,25.16,25.16,0,0,1,3.75-7.22,29.05,29.05,0,0,1,2.57-3,29.44,29.44,0,0,1,3-2.52,27.41,27.41,0,0,1,3.22-2.06,27.1,27.1,0,0,1,3.42-1.5,26.21,26.21,0,0,1,13.76-1.1A26.13,26.13,0,0,1,452,134.48a24.94,24.94,0,0,1,2.83,7,18.06,18.06,0,0,1,.5,2.7c.06.4.12.76.15,1.1s0,.63,0,.91c0,.52,0,.93,0,1.23A2.85,2.85,0,0,1,455.52,147.82Z"/><path class="cls-15" d="M430.37,133.94l3.47,7a.92.92,0,0,0,.68.5l7.77,1.13a.9.9,0,0,1,.5,1.54l-5.62,5.47a.89.89,0,0,0-.26.8l1.32,7.73a.91.91,0,0,1-1.31,1L430,155.45a.89.89,0,0,0-.84,0l-6.95,3.65a.91.91,0,0,1-1.31-1l1.33-7.73a.92.92,0,0,0-.26-.8l-5.62-5.47a.9.9,0,0,1,.5-1.54l7.77-1.13a.92.92,0,0,0,.68-.5l3.47-7A.9.9,0,0,1,430.37,133.94Z"/><path class="cls-16" d="M430.37,133.94a1.5,1.5,0,0,0-.15-.19.85.85,0,0,0-.6-.27.89.89,0,0,0-.86.55c-.19.41-.42.88-.67,1.41l-1.87,3.86-.56,1.16-.3.62a1.09,1.09,0,0,1-.61.48c-1,.16-1.93.29-3,.45l-3.26.49-1.72.26a.75.75,0,0,0-.41,1.19l5.64,5.49a1.13,1.13,0,0,1,.35,1.11l-.18,1q-.18,1-.36,2.13c-.25,1.43-.5,2.9-.75,4.39a.71.71,0,0,0,.31.79.69.69,0,0,0,.44.11,1.12,1.12,0,0,0,.46-.18l2-1.08,4.21-2.21.53-.28a1,1,0,0,1,.71-.08,3,3,0,0,1,.59.26l.52.28,2.09,1.1,4.07,2.13a.71.71,0,0,0,.82-.18.67.67,0,0,0,.18-.4,2,2,0,0,0-.06-.5c-.12-.73-.25-1.45-.37-2.17l-.71-4.21-.18-1a1.12,1.12,0,0,1,.39-1.06l1.44-1.4,2.75-2.66,1.3-1.27a.76.76,0,0,0-.09-1.25,2.9,2.9,0,0,0-.78-.17l-.82-.12-1.6-.24-3-.44-1.37-.21c-.22,0-.42-.05-.66-.11a1,1,0,0,1-.55-.44c-.73-1.5-1.36-2.79-1.87-3.86l-1.17-2.44-.29-.64a.67.67,0,0,1-.09-.22.77.77,0,0,1,.12.2l.33.63,1.23,2.41c.53,1,1.18,2.33,1.92,3.81a.79.79,0,0,0,.44.34c.17,0,.41.06.63.1l1.36.19,3,.42,1.6.22.82.12a3.1,3.1,0,0,1,.88.19,1.06,1.06,0,0,1,.53.82,1.08,1.08,0,0,1-.36.91l-1.3,1.27-2.74,2.68-1.43,1.4a.77.77,0,0,0-.29.76l.18,1c.24,1.37.48,2.77.73,4.21.12.71.25,1.44.37,2.17a1.85,1.85,0,0,1,.06.6,1,1,0,0,1-.26.61,1.11,1.11,0,0,1-1.25.28l-4.09-2.15-2.09-1.1-.53-.27a2.1,2.1,0,0,0-.49-.23.67.67,0,0,0-.46,0l-.53.28-4.2,2.21-2.06,1.08a1.47,1.47,0,0,1-.6.21,1,1,0,0,1-.66-.16,1.11,1.11,0,0,1-.49-1.18c.26-1.49.51-2.95.76-4.38.12-.72.25-1.43.37-2.13l.18-1a.77.77,0,0,0-.24-.8l-5.64-5.54a1,1,0,0,1-.17-1,1,1,0,0,1,.75-.68l1.75-.25,3.26-.46,2.95-.42a.83.83,0,0,0,.47-.37l.3-.6c.2-.4.4-.79.58-1.16l1.93-3.82.7-1.4a1,1,0,0,1,1-.58.88.88,0,0,1,.63.33A.56.56,0,0,1,430.37,133.94Z"/><path class="cls-6" d="M386.17,68.06a1.61,1.61,0,0,1,0-.31c0-.23,0-.53-.07-.9a10.25,10.25,0,0,0-.17-1.46,15.72,15.72,0,0,0-.41-2,18.37,18.37,0,0,0-2.12-5,19,19,0,0,0-4.82-5.34,18.8,18.8,0,0,0-17.81-2.67A17.81,17.81,0,0,0,356,53a21.56,21.56,0,0,0-2.13,1.82A20.38,20.38,0,0,0,352,57a18.7,18.7,0,0,0,0,22.2,21.41,21.41,0,0,0,1.84,2.18A20.19,20.19,0,0,0,356,83.15a17.39,17.39,0,0,0,4.75,2.56,19,19,0,0,0,9.88.84,19,19,0,0,0,12.75-8.85,18.37,18.37,0,0,0,2.12-5,15,15,0,0,0,.41-2,10.3,10.3,0,0,0,.17-1.45c0-.38.05-.67.07-.9a.16.16,0,1,1,.05,0c0,.23,0,.53,0,.9a8.57,8.57,0,0,1-.12,1.48,13.55,13.55,0,0,1-.36,2,18.06,18.06,0,0,1-2.07,5.12A19.14,19.14,0,0,1,370.69,87a19.26,19.26,0,0,1-10.12-.81,18.05,18.05,0,0,1-4.89-2.61,22.45,22.45,0,0,1-2.19-1.86,21.39,21.39,0,0,1-1.89-2.23,19.18,19.18,0,0,1,0-22.81,17.73,17.73,0,0,1,4.08-4.09A18.2,18.2,0,0,1,360.57,50a19.37,19.37,0,0,1,10.12-.81,19.28,19.28,0,0,1,12.92,9.12,18.17,18.17,0,0,1,2.07,5.12,15.16,15.16,0,0,1,.36,2,8.47,8.47,0,0,1,.12,1.47c0,.38,0,.68,0,.91A1.5,1.5,0,0,1,386.17,68.06Z"/><path class="cls-17" d="M375.59,65.76a8.68,8.68,0,1,0-16.17,4.39h0l0,0c.33.56.75,1,1.17,1.55l5,6.68a1.58,1.58,0,0,0,2.51,0l4.95-6.57a18.64,18.64,0,0,0,1.27-1.67v0h0A8.6,8.6,0,0,0,375.59,65.76Zm-8.68,3.78a3.82,3.82,0,1,1,3.82-3.82A3.83,3.83,0,0,1,366.91,69.54Z"/><path class="cls-18" d="M375.59,65.76a8.68,8.68,0,1,0-16.17,4.39h0l0,0c.33.56.75,1,1.17,1.55l5,6.68a1.58,1.58,0,0,0,2.51,0l4.95-6.57a18.64,18.64,0,0,0,1.27-1.67v0h0A8.6,8.6,0,0,0,375.59,65.76Zm-8.68,3.78a3.82,3.82,0,1,1,3.82-3.82A3.83,3.83,0,0,1,366.91,69.54Z"/><path class="cls-16" d="M366.91,69.54a6,6,0,0,0,.92-.16,3.77,3.77,0,0,0,2.57-4.93A3.73,3.73,0,1,0,363.93,68,3.76,3.76,0,0,0,366,69.38a6,6,0,0,0,.93.16,3,3,0,0,1-1-.08,3.8,3.8,0,0,1-2.15-1.38,3.9,3.9,0,1,1,6.19,0,3.8,3.8,0,0,1-2.15,1.38A2.91,2.91,0,0,1,366.91,69.54Z"/><path class="cls-16" d="M375.59,65.76a6.13,6.13,0,0,1-.06,1.21,8.55,8.55,0,0,1-1.09,3.21l-.05-.09h.11l-.06.09,0,0h0l-5.94,7.94a2,2,0,0,1-1.23,1,1.65,1.65,0,0,1-1.54-.47c-.69-.86-1.33-1.75-2-2.66l-4.33-5.72h0l0,0-.12-.16h.21l-.09.15a9.54,9.54,0,0,1-.76-1.68,8.77,8.77,0,0,1,3.8-10.28,8.72,8.72,0,0,1,9.16.1,8.69,8.69,0,0,1,3.77,5.08,5.42,5.42,0,0,1,.2,1,4.58,4.58,0,0,1,.08.74c0,.4,0,.61,0,.61a12.55,12.55,0,0,0-.37-2.32,8.64,8.64,0,0,0-7.93-6.26,8.58,8.58,0,0,0-8.53,11.27,9.21,9.21,0,0,0,.75,1.65l.09.15h-.18l.08-.16,0,0h0l4.31,5.71,2,2.65a1.5,1.5,0,0,0,1.37.42,1.76,1.76,0,0,0,1.12-.88l6-7.89h0l0,0,0,.08h-.1l0-.08A8.64,8.64,0,0,0,375.48,67c0-.39.07-.69.09-.89S375.59,65.76,375.59,65.76Z"/><path class="cls-6" d="M293.69,56.49s0-.19-.06-.55-.06-.91-.1-1.59c0-.36,0-.75-.08-1.18s-.13-.89-.21-1.4a23.94,23.94,0,0,0-.7-3.47,32.24,32.24,0,0,0-3.73-8.91,33.5,33.5,0,0,0-8.51-9.48,33.15,33.15,0,0,0-14.07-6.23,30.6,30.6,0,0,0-4.22-.49c-.72,0-1.44-.1-2.18-.08l-2.2.11c-.38,0-.75,0-1.12.07l-1.11.18c-.75.12-1.5.21-2.25.36a34.67,34.67,0,0,0-4.45,1.31,35.46,35.46,0,0,0-4.35,1.91c-.71.38-1.38.83-2.08,1.24a17.13,17.13,0,0,0-2,1.39,38.2,38.2,0,0,0-3.79,3.22,38.19,38.19,0,0,0-3.27,3.87A32.09,32.09,0,0,0,228.44,46a35.55,35.55,0,0,0-1.73,10.52A36,36,0,0,0,228.43,67a32.5,32.5,0,0,0,4.77,9.19,38.19,38.19,0,0,0,3.27,3.87,37.09,37.09,0,0,0,3.79,3.22,17.13,17.13,0,0,0,2,1.39c.7.41,1.37.86,2.08,1.24a35.46,35.46,0,0,0,4.35,1.91,34.67,34.67,0,0,0,4.45,1.31c.75.15,1.5.24,2.25.37l1.11.17c.37,0,.75,0,1.12.07l2.21.11c.73,0,1.45,0,2.17-.08a30.75,30.75,0,0,0,4.23-.49,33.1,33.1,0,0,0,14.06-6.23,33.5,33.5,0,0,0,8.51-9.48,32.24,32.24,0,0,0,3.73-8.91,24.2,24.2,0,0,0,.7-3.47c.08-.51.17-1,.21-1.4s.05-.82.08-1.18c0-.68.08-1.21.1-1.59s.06-.54.06-.54,0,.18,0,.54,0,.91-.06,1.6c0,.35,0,.75-.05,1.18s-.12.9-.19,1.41a22.7,22.7,0,0,1-.66,3.5,31.65,31.65,0,0,1-3.67,9,33.36,33.36,0,0,1-27,16.51c-.73,0-1.47.1-2.21.09l-2.24-.11c-.37,0-.75,0-1.13-.07L255.33,90c-.75-.12-1.52-.21-2.28-.36a34,34,0,0,1-4.51-1.32,35,35,0,0,1-4.42-1.93c-.72-.39-1.41-.84-2.11-1.26a16.85,16.85,0,0,1-2-1.4,39.3,39.3,0,0,1-3.85-3.26,39.38,39.38,0,0,1-3.32-3.93,32.73,32.73,0,0,1-4.85-9.33,36,36,0,0,1-1.75-10.69,36.42,36.42,0,0,1,1.75-10.69,32.86,32.86,0,0,1,4.85-9.33,38.05,38.05,0,0,1,3.33-3.92A36.79,36.79,0,0,1,240,29.28a17.67,17.67,0,0,1,2-1.4c.71-.42,1.39-.87,2.11-1.26a35,35,0,0,1,4.42-1.93,35.57,35.57,0,0,1,4.51-1.32c.76-.15,1.53-.24,2.28-.36l1.13-.17c.38-.05.76-.05,1.13-.08l2.24-.11c.74,0,1.48.07,2.21.09a33,33,0,0,1,4.27.51,33.84,33.84,0,0,1,22.75,16,31.69,31.69,0,0,1,3.67,9,22.7,22.7,0,0,1,.66,3.5c.07.51.16,1,.19,1.41s0,.83.05,1.18c0,.69,0,1.22.06,1.6S293.69,56.49,293.69,56.49Z"/><path class="cls-19" d="M261.89,42.31a15.37,15.37,0,0,1,4,1l2.92-2.45,5,3.82-1.58,3.47a15.65,15.65,0,0,1,2.07,3.55l3.79.33.85,6.25-3.57,1.34a15.3,15.3,0,0,1-1.05,4l2.45,2.92-3.82,5L269.48,70a14.94,14.94,0,0,1-3.55,2.07l-.34,3.8-6.25.85L258,73.15a15.78,15.78,0,0,1-4-1.05l-2.92,2.45-5-3.82,1.59-3.47a15.74,15.74,0,0,1-2.08-3.55l-3.79-.34L241,57.12l3.57-1.33a15.27,15.27,0,0,1,1.05-4l-2.45-2.92,3.82-5,3.47,1.58A15.86,15.86,0,0,1,254,43.38l.34-3.8,6.25-.84,1.33,3.57ZM259.32,51a6.77,6.77,0,1,0,7.62,5.8A6.77,6.77,0,0,0,259.32,51Z"/><path class="cls-19" d="M259.32,51a1.33,1.33,0,0,1,.43-.09,5.42,5.42,0,0,1,1.25,0,6.7,6.7,0,0,1,4.15,1.9,7,7,0,1,1-11,1.49,6.74,6.74,0,0,1,3.49-2.94,5.2,5.2,0,0,1,1.21-.31,1.17,1.17,0,0,1,.43,0c0,.06-.59.12-1.56.53a6.81,6.81,0,0,0-3.24,2.94,6.6,6.6,0,0,0-.05,6.26,6.53,6.53,0,0,0,12.13-1.65,6.6,6.6,0,0,0-1.72-6,6.7,6.7,0,0,0-3.9-2C259.93,50.94,259.33,51,259.32,51Z"/><path class="cls-19" d="M261.89,42.31a2,2,0,0,1-.1-.22l-.27-.66-1-2.66.1,0-6.25.9.12-.12c-.09,1.15-.2,2.43-.31,3.79v.1l-.09,0a15.86,15.86,0,0,0-3.5,2.06l-.09.07-.1,0-3.47-1.56.24-.06-3.81,5v-.27l2.45,2.92.09.1-.05.13a15.12,15.12,0,0,0-1,3.92V56l-.14,0-3.56,1.34.15-.26c.27,2,.56,4.08.86,6.25l-.23-.22,3.8.33h.15l.06.15a15.35,15.35,0,0,0,2,3.48l.1.13-.06.15c-.5,1.08-1,2.27-1.58,3.47l-.08-.33,5,3.82h-.34l2.92-2.45.13-.11.15.07a15.22,15.22,0,0,0,3.9,1h0c.1.07-.22-.18.23.17h0v0l0,.06,0,.11.08.23.17.45.33.89c.23.6.45,1.19.67,1.78l-.29-.17,6.25-.85-.23.24.33-3.79,0-.16.15-.06a15.57,15.57,0,0,0,3.49-2l.13-.1.14.07,3.47,1.59-.32.08,3.83-5v.32l-2.45-2.93-.09-.11,0-.14a15.43,15.43,0,0,0,1.05-3.91v-.15l.14,0,3.57-1.33-.14.24c-.3-2.2-.57-4.27-.83-6.25l.18.18-3.79-.35h-.12l0-.11a15.48,15.48,0,0,0-2-3.51l-.06-.09,0-.1c.58-1.26,1.11-2.39,1.6-3.46l0,.2-5-3.86h.16l-2.95,2.42,0,0-.05,0a16.42,16.42,0,0,0-2.94-.93l-.75-.15-.25,0a.75.75,0,0,1,.26,0,7.27,7.27,0,0,1,.76.1,15.45,15.45,0,0,1,3,.85l-.09,0,2.9-2.48.07-.06.08.06,5,3.79.11.08-.06.11c-.48,1.08-1,2.22-1.56,3.48l0-.18a15.94,15.94,0,0,1,2.11,3.58l-.17-.12,3.8.32.17,0,0,.16c.27,2,.56,4.05.87,6.25l0,.18-.17.07-3.57,1.34.16-.19a16,16,0,0,1-1.06,4l0-.25L277,66.4l.13.16-.12.16-3.81,5-.13.17-.19-.09-3.47-1.58.27,0A15.46,15.46,0,0,1,266,72.32l.17-.22c-.11,1.25-.22,2.51-.34,3.79v.22l-.22,0-6.25.85-.22,0-.07-.21c-.22-.59-.44-1.18-.67-1.78l-.33-.89-.17-.45-.08-.23,0-.11,0,0v0h0l.23.18h0a15.9,15.9,0,0,1-4-1.07l.28,0-2.92,2.44-.17.14-.17-.13-5-3.82-.17-.13.09-.19,1.58-3.47,0,.27a16.32,16.32,0,0,1-2.11-3.61l.22.15-3.79-.34h-.21l0-.21c-.29-2.17-.58-4.28-.84-6.25l0-.19.19-.07,3.57-1.32-.15.19a15.65,15.65,0,0,1,1.07-4l0,.24L243,49l-.11-.14.1-.13,3.84-5,.09-.12.14.06,3.46,1.6-.18,0a15.78,15.78,0,0,1,3.6-2.08l-.1.14c.13-1.37.25-2.65.36-3.8v-.11h.11l6.25-.8h.07l0,.07c.4,1.14.72,2,.94,2.65l.24.7A1,1,0,0,1,261.89,42.31Z"/><path class="cls-20" d="M261.89,42.17a15.77,15.77,0,0,1,4,1l2.92-2.44,5,3.82-1.58,3.46a15.93,15.93,0,0,1,2.07,3.56l3.79.33.85,6.25-3.57,1.34a15.3,15.3,0,0,1-1.05,4l2.45,2.92-3.82,5-3.47-1.58a14.94,14.94,0,0,1-3.55,2.07l-.34,3.8-6.25.85L258,73A15.78,15.78,0,0,1,254,72l-2.92,2.45-5-3.82,1.59-3.47a15.59,15.59,0,0,1-2.08-3.56l-3.79-.33L241,57l3.57-1.33a15.27,15.27,0,0,1,1.05-4l-2.45-2.92,3.82-5,3.47,1.58A15.49,15.49,0,0,1,254,43.24l.34-3.8,6.25-.84,1.33,3.57Zm-2.57,8.67a6.77,6.77,0,1,0,7.62,5.8A6.77,6.77,0,0,0,259.32,50.84Z"/><path class="cls-20" d="M259.32,50.84a1.33,1.33,0,0,1,.43-.09,5.31,5.31,0,0,1,1.25,0,6.78,6.78,0,0,1,4.15,1.91,7,7,0,0,1,0,10,7,7,0,0,1-3.94,1.92,7,7,0,0,1-7-10.4,6.74,6.74,0,0,1,3.49-2.94,5.2,5.2,0,0,1,1.21-.31,1.17,1.17,0,0,1,.43,0c0,.06-.59.12-1.56.53a6.81,6.81,0,0,0-3.24,2.94,6.6,6.6,0,0,0-.05,6.26,6.53,6.53,0,0,0,12.13-1.65,6.63,6.63,0,0,0-1.72-6,6.74,6.74,0,0,0-3.9-2C259.93,50.8,259.33,50.9,259.32,50.84Z"/><path class="cls-20" d="M261.89,42.17a2,2,0,0,1-.1-.22l-.27-.66-1-2.66.1,0-6.25.9.12-.12c-.09,1.15-.2,2.43-.31,3.79v.1l-.09,0a15.12,15.12,0,0,0-3.5,2.06l-.09.07-.1-.05-3.47-1.56.24-.06-3.81,5v-.27c.76.9,1.59,1.9,2.45,2.91l.09.11-.05.13a15.16,15.16,0,0,0-1,3.91v.15l-.14,0-3.56,1.34.15-.26c.27,2,.56,4.08.86,6.25l-.23-.22,3.8.33h.15l.06.14a15.41,15.41,0,0,0,2,3.49l.1.13-.06.15c-.5,1.08-1,2.27-1.58,3.47l-.08-.33,5,3.82h-.34l2.92-2.45.13-.11.15.06a14.82,14.82,0,0,0,3.9,1h0c.1.07-.22-.18.23.17h0v0l0,.06,0,.11.08.23.17.45.33.89c.23.6.45,1.19.67,1.78l-.29-.17,6.25-.85-.23.24.33-3.79,0-.16.15-.07a15.17,15.17,0,0,0,3.49-2l.13-.1.14.07,3.47,1.59-.32.07,3.83-5v.32l-2.45-2.93-.09-.12,0-.13a15.43,15.43,0,0,0,1.05-3.91v-.15l.14-.05L278.86,58l-.14.24c-.3-2.2-.57-4.27-.83-6.25l.18.18-3.79-.35h-.12l0-.11a15.48,15.48,0,0,0-2-3.51l-.06-.09,0-.1c.58-1.26,1.11-2.39,1.6-3.46l0,.19-5-3.85h.16l-2.95,2.42,0,0-.05,0a16.42,16.42,0,0,0-2.94-.93l-.75-.15-.25,0a.75.75,0,0,1,.26,0,7.27,7.27,0,0,1,.76.1,15.45,15.45,0,0,1,3,.85l-.09,0,2.9-2.48.07-.06.08.06,5,3.79.11.07-.06.12c-.48,1.08-1,2.22-1.56,3.48l0-.19a16.25,16.25,0,0,1,2.11,3.59l-.17-.12,3.8.32.17,0,0,.16c.27,2,.56,4.05.87,6.25l0,.18-.17.06-3.57,1.35.16-.19a15.9,15.9,0,0,1-1.06,4l0-.25L277,66.26l.13.16-.12.16-3.81,5-.13.17-.19-.09-3.47-1.58.27,0A15.82,15.82,0,0,1,266,72.18l.17-.22c-.11,1.25-.22,2.51-.34,3.79V76l-.22,0-6.25.85-.22,0-.07-.21c-.22-.59-.44-1.18-.67-1.78l-.33-.89-.17-.45-.08-.23,0-.11,0-.06v0h0l.23.18h0a15.9,15.9,0,0,1-4-1.07l.28,0-2.92,2.44-.17.14-.17-.13-5-3.82-.17-.13.09-.2c.55-1.19,1.09-2.38,1.58-3.46l0,.27a16.16,16.16,0,0,1-2.11-3.62l.22.16-3.79-.34-.21,0,0-.2c-.29-2.17-.58-4.28-.84-6.25l0-.19.19-.07,3.57-1.32-.15.19a15.65,15.65,0,0,1,1.07-4l0,.23L243,48.89l-.11-.14.1-.13,3.84-5,.09-.12.14.06,3.46,1.6-.18,0a15.78,15.78,0,0,1,3.6-2.08l-.1.14c.13-1.37.25-2.65.36-3.8v-.11h.11l6.25-.8h.07l0,.07c.4,1.14.72,2,.94,2.65l.24.7A1,1,0,0,1,261.89,42.17Z"/><path class="cls-6" d="M219.1,305.67l-1.4.47c-6.24,2.11-24.81,8.25-30.43,10.55,0,0,9.94,87.91,11.11,96.08s1.46,40.85,1.46,40.85H305.58s-.29-88.1,0-101.77c.4-17.68,2.59-35.16,2.59-35.16l-18.47-7.22-21.6-11.39Z"/><g class="cls-21"><path d="M242.62,324.69q-12.94,48.09-27.28,95.79c-1.13,3.74-2.25,7.86-.73,11.46a10.3,10.3,0,0,0,8.16,5.81,16.45,16.45,0,0,0,10-2.27c7.14-4,11.78-11.5,14.07-19.36s2.48-16.15,2.67-24.34l1.5-65.47Z"/></g><path class="cls-6" d="M187.27,316.69s-15.5,6.87-14.3,34.43a340.9,340.9,0,0,0,3.67,35.9l43.61-12.56-11.09-47.85Z"/><path class="cls-6" d="M290.7,361l-2.34,31.81,43.84-14.2s-9.4-56.14-24.28-62l-16.05,27.43Z"/><path class="cls-8" d="M295.68,351.85a2.68,2.68,0,0,1,.08.65c0,.48.08,1.1.14,1.86.09,1.68.22,4,.37,6.85.29,5.78.6,13.78.88,22.61s.54,16.77.73,22.61c.09,2.85.16,5.18.21,6.86q0,1.14,0,1.86a2.48,2.48,0,0,1,0,.65,2.42,2.42,0,0,1-.08-.64c0-.48-.08-1.1-.13-1.86-.1-1.68-.22-4-.38-6.85-.29-5.79-.6-13.78-.88-22.61s-.54-16.77-.73-22.62c-.08-2.84-.15-5.17-.21-6.85,0-.77,0-1.38,0-1.86A3.37,3.37,0,0,1,295.68,351.85Z"/><path class="cls-8" d="M209,338.46a4.65,4.65,0,0,1-.58-1L207,334.63a47,47,0,0,0-5.46-8.78,21.32,21.32,0,0,0-8.12-6.19,25.48,25.48,0,0,0-4.12-1.16,5.19,5.19,0,0,1,1.17.05,13.68,13.68,0,0,1,3.09.77,20.42,20.42,0,0,1,8.38,6.2,40.72,40.72,0,0,1,5.39,9c.56,1.21,1,2.21,1.27,2.9A5.48,5.48,0,0,1,209,338.46Z"/><path class="cls-8" d="M300.81,315.35a65.34,65.34,0,0,0-2.77,7.36,64.08,64.08,0,0,0-1.29,7.75,7.7,7.7,0,0,1-.09-2.33,26.68,26.68,0,0,1,.88-5.56,27.1,27.1,0,0,1,2-5.25A7.78,7.78,0,0,1,300.81,315.35Z"/><path class="cls-22" d="M203.3,329.05s-.16,0-.43,0a1.72,1.72,0,0,0-1,.7,4.08,4.08,0,0,0-.67,1.82,7.57,7.57,0,0,1-.32,1.24A2.41,2.41,0,0,1,200,334a2.94,2.94,0,0,1-3.25-.35,11.7,11.7,0,0,1-2.32-2.95,5.33,5.33,0,0,0-1.29-1.39,2.93,2.93,0,0,0-1.78-.61,1.94,1.94,0,0,0-1.53,1,5,5,0,0,0-.46,2c0,.74-.06,1.48-.15,2.23a4.64,4.64,0,0,1-.7,2.15,1.77,1.77,0,0,1-.39.43,2.22,2.22,0,0,1-.45.36,2.84,2.84,0,0,1-1.08.34,4,4,0,0,1-2.07-.39,8.47,8.47,0,0,1-2.76-2.57,10.23,10.23,0,0,0-2.21-2.24,3.3,3.3,0,0,0-2.38-.63,2.5,2.5,0,0,0-1.55,1,1.76,1.76,0,0,0-.33,1.15c0,.28.09.42.06.43a.86.86,0,0,1-.16-.42,1.77,1.77,0,0,1,.26-1.27,2.7,2.7,0,0,1,1.65-1.21,3.57,3.57,0,0,1,2.65.6,10.07,10.07,0,0,1,2.34,2.28,8.31,8.31,0,0,0,2.63,2.4,3.46,3.46,0,0,0,1.82.33,2.12,2.12,0,0,0,1.55-.93c.73-1.09.64-2.63.75-4.12a5.53,5.53,0,0,1,.53-2.26,2.42,2.42,0,0,1,2-1.25,4.32,4.32,0,0,1,3.5,2.24,11.27,11.27,0,0,0,2.18,2.87,2.54,2.54,0,0,0,2.78.39,3.35,3.35,0,0,0,1.13-2.18,4.07,4.07,0,0,1,.79-1.88,1.69,1.69,0,0,1,1.1-.68A.78.78,0,0,1,203.3,329.05Z"/><path class="cls-22" d="M212.16,343.8a1.9,1.9,0,0,1,0,.57,3.56,3.56,0,0,1-.54,1.56,4.65,4.65,0,0,1-2,1.72,3.9,3.9,0,0,1-3.43,0c-1.17-.57-2.15-1.69-3.51-2.06s-2.87.54-3.74,1.87-1.28,3.1-2.19,4.73a5.61,5.61,0,0,1-2,2.08,3.21,3.21,0,0,1-3,.23,5.17,5.17,0,0,1-2.08-2.12c-.5-.81-.91-1.64-1.41-2.37a3.51,3.51,0,0,0-1.9-1.54,2.68,2.68,0,0,0-2.24.44,8.45,8.45,0,0,0-2.69,3.68,30.52,30.52,0,0,1-1.88,3.71,6.38,6.38,0,0,1-4.93,3.23,3.41,3.41,0,0,1-1.62-.28,3.9,3.9,0,0,1-.38-.2l-.11-.09a4.44,4.44,0,0,0,2.1.37,6.24,6.24,0,0,0,4.63-3.23,31.81,31.81,0,0,0,1.8-3.69,8.81,8.81,0,0,1,2.82-3.9,3.12,3.12,0,0,1,2.63-.52,4,4,0,0,1,2.19,1.73c.53.77,1,1.61,1.43,2.39A4.82,4.82,0,0,0,192,354a2.68,2.68,0,0,0,2.5-.21,5.1,5.1,0,0,0,1.81-1.88c.88-1.54,1.26-3.31,2.25-4.75a5.36,5.36,0,0,1,1.85-1.73,3.19,3.19,0,0,1,2.39-.29,6.17,6.17,0,0,1,1.95,1.05,13.27,13.27,0,0,0,1.62,1.1,3.56,3.56,0,0,0,3.14.11,4.42,4.42,0,0,0,1.92-1.56A4.32,4.32,0,0,0,212.16,343.8Z"/><path class="cls-22" d="M207.07,365.15s-.13,0-.37,0a1.39,1.39,0,0,0-1,.31,2.84,2.84,0,0,0-.92,1.36,4.82,4.82,0,0,0-.1,2.24,5.66,5.66,0,0,1-.22,2.9,3,3,0,0,1-2.9,1.66,4.59,4.59,0,0,1-3.44-1.59,14,14,0,0,1-2.18-3.5l.18.14a2.94,2.94,0,0,0-2.72,1.35,6.89,6.89,0,0,0-1.14,3.29,25.25,25.25,0,0,1-.49,2.71,5.89,5.89,0,0,1-1.3,2.41,3.26,3.26,0,0,1-2.43,1.12,3.85,3.85,0,0,1-2.36-1c-1.27-1.09-1.91-2.54-2.78-3.6a4.24,4.24,0,0,0-3.16-1.81,4,4,0,0,0-2.88,1,4.19,4.19,0,0,0-1.23,2,5.35,5.35,0,0,0-.09,2,1.11,1.11,0,0,1-.05-.13,2.11,2.11,0,0,1-.1-.39,4.06,4.06,0,0,1,0-1.57,4.3,4.3,0,0,1,1.22-2.17,4.24,4.24,0,0,1,3.09-1.11,4.09,4.09,0,0,1,1.89.51,5.55,5.55,0,0,1,1.6,1.39c.92,1.11,1.57,2.52,2.75,3.5a3.34,3.34,0,0,0,2.06.88,2.76,2.76,0,0,0,2-1,5.37,5.37,0,0,0,1.17-2.2,23.77,23.77,0,0,0,.47-2.64,7.4,7.4,0,0,1,1.25-3.53,3.44,3.44,0,0,1,3.22-1.54l.13,0,.05.11a13.8,13.8,0,0,0,2.08,3.4,4.16,4.16,0,0,0,3.09,1.48,2.65,2.65,0,0,0,2.56-1.39,5.39,5.39,0,0,0,.24-2.71,5.15,5.15,0,0,1,.18-2.35,3.05,3.05,0,0,1,1.06-1.42,1.46,1.46,0,0,1,1.07-.26A.87.87,0,0,1,207.07,365.15Z"/><path class="cls-22" d="M328.47,360.92s-.19,0-.51.15a2.43,2.43,0,0,0-1.12.9,6.17,6.17,0,0,0-.9,2.17,12.63,12.63,0,0,1-.84,3.09,3.23,3.23,0,0,1-1.27,1.46,2.3,2.3,0,0,1-2.12.06,4.13,4.13,0,0,1-1.61-1.55,14.2,14.2,0,0,1-1.06-2.05,6.41,6.41,0,0,0-1.29-1.89,2.26,2.26,0,0,0-2-.78,1.93,1.93,0,0,0-1.36,1.68,13.88,13.88,0,0,0-.13,2.61,7.24,7.24,0,0,1-1.83,5,4.39,4.39,0,0,1-4.75,1.14c-1.52-.69-2.44-1.95-3.46-2.84a3.6,3.6,0,0,0-3.31-1.15,4.2,4.2,0,0,0-2.38,1.8,7.61,7.61,0,0,0-.94,2.16c-.34,1.27-.46,2-.5,2a1.64,1.64,0,0,1,0-.53,12,12,0,0,1,.27-1.5,7.5,7.5,0,0,1,.88-2.26,4.41,4.41,0,0,1,2.54-2,3.12,3.12,0,0,1,1.93.08,5.38,5.38,0,0,1,1.75,1.1c1.07.91,2,2.12,3.37,2.72a3.91,3.91,0,0,0,4.2-1.06,6.81,6.81,0,0,0,1.67-4.64,14.47,14.47,0,0,1,.14-2.7,3.24,3.24,0,0,1,.55-1.3,2.13,2.13,0,0,1,1.2-.77,2.71,2.71,0,0,1,2.47.91,6.92,6.92,0,0,1,1.38,2.05,13.82,13.82,0,0,0,1,2,3.79,3.79,0,0,0,1.42,1.42,1.91,1.91,0,0,0,1.73,0,2.86,2.86,0,0,0,1.14-1.27,13.25,13.25,0,0,0,.89-3,6.19,6.19,0,0,1,1-2.22,2.38,2.38,0,0,1,1.26-.88A1.31,1.31,0,0,1,328.47,360.92Z"/><path class="cls-22" d="M323.26,337.43s0,.13-.18.36-.34.57-.63,1a10.33,10.33,0,0,1-1.2,1.44,5.37,5.37,0,0,1-2.13,1.31,3.76,3.76,0,0,1-3-.27c-1-.62-1.48-1.79-2.38-2.41a1.52,1.52,0,0,0-1.51-.16A2.72,2.72,0,0,0,311,340a4.67,4.67,0,0,0-.47,1.81c0,.65,0,1.34,0,2a5.83,5.83,0,0,1-.39,2.1,3,3,0,0,1-1.46,1.55,4.71,4.71,0,0,1-3.85-.23,17.19,17.19,0,0,1-2.87-1.89,8.5,8.5,0,0,0-2.53-1.39,3.4,3.4,0,0,0-2.29.12,3.07,3.07,0,0,0-1.39,1.06,2.35,2.35,0,0,0-.34,1.45.89.89,0,0,1-.11-.4,1.92,1.92,0,0,1,.28-1.16,3.21,3.21,0,0,1,1.45-1.22,3.66,3.66,0,0,1,2.5-.2A8.71,8.71,0,0,1,302.2,345a18.15,18.15,0,0,0,2.82,1.81,4.27,4.27,0,0,0,3.43.2,2.43,2.43,0,0,0,1.2-1.3,5.36,5.36,0,0,0,.35-1.91c0-.68,0-1.36,0-2a5.14,5.14,0,0,1,.54-2,3,3,0,0,1,1.41-1.48,2,2,0,0,1,2,.21c1.06.79,1.48,1.92,2.34,2.44a3.35,3.35,0,0,0,2.7.28,5,5,0,0,0,2-1.17,10.16,10.16,0,0,0,1.23-1.34A13.12,13.12,0,0,1,323.26,337.43Z"/><path class="cls-22" d="M297.71,395a1.54,1.54,0,0,1-.52.59,2.86,2.86,0,0,1-2.19.35,5.38,5.38,0,0,1-1.55-.53,14.72,14.72,0,0,1-1.62-1.05,9.4,9.4,0,0,0-1.87-1.07,3.19,3.19,0,0,0-2.28-.06,4,4,0,0,0-1.86,1.74,20.33,20.33,0,0,0-1.3,2.6,14.86,14.86,0,0,1-1.53,2.8,4.09,4.09,0,0,1-1.29,1.15,2.44,2.44,0,0,1-.84.32l-.45.09H280a3.13,3.13,0,0,1-1.73-.61,6.41,6.41,0,0,1-1.33-1.27c-.76-.95-1.39-2-2.14-3a5.67,5.67,0,0,0-2.82-2.17,4.55,4.55,0,0,0-3.51.73,8.25,8.25,0,0,0-2.59,2.73c-.68,1.06-1.24,2.2-1.87,3.28a11.18,11.18,0,0,1-2.3,2.93,6,6,0,0,1-3.25,1.55,4.47,4.47,0,0,1-3.28-1,11.1,11.1,0,0,1-2.13-2.4c-1.16-1.66-2.17-3.29-3.6-4.2a4.14,4.14,0,0,0-2.23-.67,5.12,5.12,0,0,0-2.07.47,5.68,5.68,0,0,0-2.54,2.24,4.67,4.67,0,0,0-.67,2.06c0,.5,0,.77,0,.77s0-.06,0-.19a5.44,5.44,0,0,1-.05-.59,4.44,4.44,0,0,1,.59-2.15,5.78,5.78,0,0,1,2.6-2.4,5.43,5.43,0,0,1,2.18-.54,4.37,4.37,0,0,1,2.43.69c1.54.95,2.6,2.63,3.76,4.26a10.86,10.86,0,0,0,2.05,2.29,4.1,4.1,0,0,0,3,.87,5.58,5.58,0,0,0,3-1.45,10.82,10.82,0,0,0,2.19-2.82c.62-1.06,1.17-2.2,1.87-3.3a9,9,0,0,1,2.75-2.89,5.05,5.05,0,0,1,3.92-.79,6.08,6.08,0,0,1,3.09,2.36c.77,1,1.4,2,2.13,3a3.86,3.86,0,0,0,2.7,1.71,3.12,3.12,0,0,0,2.65-1.35,13.47,13.47,0,0,0,1.49-2.7,22.57,22.57,0,0,1,1.36-2.64,4.38,4.38,0,0,1,2.07-1.86,3.48,3.48,0,0,1,2.53.09A9.57,9.57,0,0,1,292,394.1a16,16,0,0,0,1.56,1.06,5.45,5.45,0,0,0,1.47.55,2.8,2.8,0,0,0,2.1-.24A4.34,4.34,0,0,0,297.71,395Z"/><path class="cls-22" d="M295.8,361.69s0,.06-.08.16a1.1,1.1,0,0,1-.4.35,2.3,2.3,0,0,1-2-.18c-.83-.39-1.48-1.33-2.58-1.77a1.63,1.63,0,0,0-1.68.3,4.17,4.17,0,0,0-.93,1.87,12.54,12.54,0,0,1-.81,2.34,3.23,3.23,0,0,1-.87,1.06,2.76,2.76,0,0,1-1.34.52c-2,.2-3.86-1.12-5.14-2.69a15.56,15.56,0,0,0-2.2-2.17,4.53,4.53,0,0,0-2.91-.93,8,8,0,0,0-5.59,3.28c-1.42,1.85-2.38,4-3.64,5.85a9.71,9.71,0,0,1-5,4.13,5.5,5.5,0,0,1-3.08.19,5.23,5.23,0,0,1-2.49-1.5c-1.29-1.34-2.13-2.87-3.42-3.66a3.35,3.35,0,0,0-2-.51,3.47,3.47,0,0,0-1.75.65,8.11,8.11,0,0,0-2.07,2.28c-.91,1.47-1.24,2.38-1.29,2.36a3.59,3.59,0,0,1,.23-.66,13.12,13.12,0,0,1,.89-1.8,8,8,0,0,1,2.08-2.42,3.75,3.75,0,0,1,1.88-.74,3.65,3.65,0,0,1,2.22.52c1.41.85,2.29,2.42,3.54,3.67a4.8,4.8,0,0,0,2.29,1.37,5.16,5.16,0,0,0,2.82-.2,9.31,9.31,0,0,0,4.71-4c1.22-1.83,2.18-4,3.65-5.88a8.45,8.45,0,0,1,6-3.47,4.94,4.94,0,0,1,3.22,1,15.6,15.6,0,0,1,2.27,2.25,8.71,8.71,0,0,0,2.17,1.93,4.4,4.4,0,0,0,2.56.65,2.39,2.39,0,0,0,1.91-1.35,12.53,12.53,0,0,0,.81-2.24,4.38,4.38,0,0,1,1.06-2,1.93,1.93,0,0,1,2-.32c1.2.53,1.81,1.49,2.56,1.86a2.25,2.25,0,0,0,1.85.26A1.45,1.45,0,0,0,295.8,361.69Z"/><path class="cls-22" d="M296.32,327.18a5.86,5.86,0,0,0-.51-.34,2.35,2.35,0,0,0-1.7-.12,3.31,3.31,0,0,0-2.06,1.68,17.79,17.79,0,0,0-1.24,3.51,7.72,7.72,0,0,1-1,2,3.7,3.7,0,0,1-2,1.47,4.59,4.59,0,0,1-2.62-.07,9.48,9.48,0,0,1-2.49-1.19c-1.54-1-3-2.34-4.94-2.68a4.6,4.6,0,0,0-2.81.46,8.21,8.21,0,0,0-2.37,1.89c-1.42,1.53-2.38,3.4-3.72,4.95a10.23,10.23,0,0,1-2.24,2,5.49,5.49,0,0,1-2.78.9,7.76,7.76,0,0,1-4.87-2c-1.3-1-2.37-2.12-3.51-2.88a6.13,6.13,0,0,0-3.39-1.24,4.4,4.4,0,0,0-2.58.83,3,3,0,0,0-1.05,1.37c-.13.38-.13.6-.16.6a1.45,1.45,0,0,1,.06-.63,2.94,2.94,0,0,1,1-1.5,4.52,4.52,0,0,1,2.7-1,6.46,6.46,0,0,1,3.6,1.22c1.19.77,2.3,1.85,3.57,2.85a7.39,7.39,0,0,0,4.6,1.88,6.64,6.64,0,0,0,4.64-2.77c1.29-1.49,2.24-3.37,3.72-5a8.75,8.75,0,0,1,2.53-2,5,5,0,0,1,3.12-.5c2.12.39,3.62,1.8,5.13,2.78s3.21,1.67,4.72,1.25a3.34,3.34,0,0,0,1.77-1.3,7.78,7.78,0,0,0,.93-1.9,17.32,17.32,0,0,1,1.34-3.54,4.22,4.22,0,0,1,1.05-1.19,3.44,3.44,0,0,1,1.22-.54,2.38,2.38,0,0,1,1.79.23A1.2,1.2,0,0,1,296.32,327.18Z"/><path class="cls-22" d="M291.18,311s0,.14-.06.38a5.54,5.54,0,0,1-.36,1,3.3,3.3,0,0,1-1.05,1.39,1.82,1.82,0,0,1-2.28-.15,10.38,10.38,0,0,1-1.54-2.3,3.38,3.38,0,0,0-.95-1,2.9,2.9,0,0,0-1.41-.45,4.08,4.08,0,0,0-3,1.12,9.72,9.72,0,0,0-2.07,2.94,7.88,7.88,0,0,1-1.05,1.64,2.22,2.22,0,0,1-1.82.82,2.51,2.51,0,0,1-1.66-1,4.93,4.93,0,0,1-.82-1.57,6.34,6.34,0,0,0-1.28-2.71,2.19,2.19,0,0,0-1.12-.59,1.36,1.36,0,0,0-1.07.33,4.59,4.59,0,0,0-1,1.87,4.58,4.58,0,0,1-.86,1.51,1.75,1.75,0,0,1-1,.55.64.64,0,0,1-.38,0,1.69,1.69,0,0,0,1.19-.66,4.38,4.38,0,0,0,.73-1.47,4.76,4.76,0,0,1,1.08-2,1.72,1.72,0,0,1,1.35-.44,2.37,2.37,0,0,1,1.37.67,6.41,6.41,0,0,1,1.44,2.86,4.35,4.35,0,0,0,.75,1.41,2.06,2.06,0,0,0,1.32.77,1.69,1.69,0,0,0,1.39-.66,6.54,6.54,0,0,0,1-1.53,10.18,10.18,0,0,1,2.2-3.08,4.55,4.55,0,0,1,3.34-1.22,3.31,3.31,0,0,1,1.63.55,3.59,3.59,0,0,1,1.06,1.19,11.32,11.32,0,0,0,1.42,2.26,1.5,1.5,0,0,0,1.87.18,3.29,3.29,0,0,0,1-1.24C291,311.45,291.13,310.94,291.18,311Z"/><path class="cls-22" d="M226,311a2,2,0,0,1,.09.47,11.56,11.56,0,0,1,.12,1.38,6.29,6.29,0,0,1-.26,2.2,3.68,3.68,0,0,1-1.89,2.24,2.63,2.63,0,0,1-1.76.22,2.76,2.76,0,0,1-1.56-1.12c-.4-.53-.69-1.12-1.05-1.66a2.88,2.88,0,0,0-1.38-1.27,2.94,2.94,0,0,0-3.44,1.52,5.27,5.27,0,0,0-.62,2.13,15.89,15.89,0,0,0,0,2.38,7.45,7.45,0,0,1-.18,2.48,3.42,3.42,0,0,1-1.41,2,2.73,2.73,0,0,1-2.39.19A5.27,5.27,0,0,1,208.4,323c-1-1.07-1.65-2.27-2.53-3.12a3.82,3.82,0,0,0-3-1.21,3.7,3.7,0,0,0-2.48,1.06,4,4,0,0,0-1,1.82,5.82,5.82,0,0,0-.1,1.81,1.19,1.19,0,0,1-.13-.46,3.7,3.7,0,0,1,0-1.4,4.16,4.16,0,0,1,1-2,4,4,0,0,1,2.67-1.23,4.24,4.24,0,0,1,3.31,1.27c1,.9,1.61,2.12,2.57,3.09a4.77,4.77,0,0,0,1.71,1.11,2.21,2.21,0,0,0,2-.15,3,3,0,0,0,1.18-1.75,7.1,7.1,0,0,0,.16-2.32,8.08,8.08,0,0,1,.66-4.78,3.42,3.42,0,0,1,4.05-1.72,3.38,3.38,0,0,1,1.6,1.47c.37.58.65,1.16,1,1.65a2.36,2.36,0,0,0,1.3,1,2.24,2.24,0,0,0,1.51-.17,3.37,3.37,0,0,0,1.78-2,6.68,6.68,0,0,0,.33-2.11C226,311.7,225.93,311,226,311Z"/><path class="cls-8" d="M279.54,195.89c-6.77-1.46-13.15,5-20,4.28-4.18-.46-7.57-3.49-11.4-5.22-5.73-2.59-13.51-2.43-18.86.88s-8.69,6.64-8.92,12.93c-5.34-2.49-13.28,4.63-15.65,11.05s-1.1,12.75,1.1,19.23a90.35,90.35,0,0,0,17.57,30.42c.69.79,1.75,1.63,2.65,1.11a2.29,2.29,0,0,0,.83-1.91c.46-6.14-.83-12.25-1.87-18.32s-1.83-12.34-.4-18.32,5.54-11.68,11.46-13.38c4.37-1.25,9.1-.19,13.24,1.69s7.86,4.55,11.84,6.76,8.37,4,12.91,3.79,9.22-2.73,10.8-7-1.07-9.91-5.58-10.47a8.94,8.94,0,0,0,.31-17.53Z"/><path class="cls-23" d="M268.17,303.75l-1.75-13.05s17-4.77,15.13-22.1c-.9-8.37-4.16-25.45-7.29-40.88a32.48,32.48,0,0,0-35.71-25.8l-1.67.2c-17.88,3.22-25.13,20.2-21.43,38l10.08,69.6a21.53,21.53,0,0,0,24.25,18.24h0A21.53,21.53,0,0,0,268.17,303.75Z"/><path class="cls-24" d="M266.44,290.69a40.57,40.57,0,0,1-23.33-3.7s6.83,11.81,23.91,8.18Z"/><path class="cls-8" d="M268.94,238.23a2.54,2.54,0,0,1-2.07,2.88,2.42,2.42,0,0,1-2.83-2,2.55,2.55,0,0,1,2.07-2.88A2.43,2.43,0,0,1,268.94,238.23Z"/><path class="cls-8" d="M271.56,237.78c-.27.36-2.31-.8-5-.47s-4.45,1.89-4.77,1.6c-.16-.13.08-.75.85-1.47a6.83,6.83,0,0,1,3.78-1.68,6.55,6.55,0,0,1,4,.78C271.34,237.07,271.69,237.62,271.56,237.78Z"/><path class="cls-8" d="M243.62,240.36a2.57,2.57,0,0,1-2.06,2.93,2.45,2.45,0,0,1-2.84-2.07,2.58,2.58,0,0,1,2.06-2.93A2.46,2.46,0,0,1,243.62,240.36Z"/><path class="cls-8" d="M246,239.86c-.27.35-2.31-.81-5-.48s-4.45,1.89-4.77,1.6c-.16-.13.08-.75.86-1.47a6.9,6.9,0,0,1,3.77-1.68,6.62,6.62,0,0,1,4,.78C245.81,239.14,246.16,239.69,246,239.86Z"/><path class="cls-8" d="M257.49,258.83c0-.15,1.59-.63,4.23-1.3.67-.15,1.3-.36,1.36-.84a3.46,3.46,0,0,0-.7-2l-2.63-4.93c-3.67-7-6.42-12.84-6.13-13s3.49,5.43,7.16,12.46l2.55,5a3.91,3.91,0,0,1,.67,2.62,1.71,1.71,0,0,1-1,1.13,4.84,4.84,0,0,1-1.14.3C259.19,258.77,257.52,259,257.49,258.83Z"/><path class="cls-8" d="M249.89,261.61c.43-.08.78,2.81,3.5,4.56s5.75,1.07,5.82,1.47c.06.17-.62.64-1.91.83a7.22,7.22,0,0,1-4.84-1.06,6.3,6.3,0,0,1-2.75-3.85C249.45,262.37,249.69,261.62,249.89,261.61Z"/><path class="cls-8" d="M244.69,227.69c-.18.76-2.87.73-5.95,1.48s-5.5,1.91-6,1.31c-.22-.29.14-1,1.07-1.84a10.6,10.6,0,0,1,9.09-2.13C244.11,226.84,244.76,227.33,244.69,227.69Z"/><path class="cls-8" d="M269.66,229.05c-.4.66-2.31.25-4.51.49s-4,.89-4.53.31c-.22-.28,0-.92.74-1.59a6.57,6.57,0,0,1,7.28-.65C269.5,228.14,269.83,228.73,269.66,229.05Z"/><path class="cls-23" d="M218.4,252.75c-.31-.1-12.31-2.09-10.51,9.69s13.26,7.55,13.23,7.21S218.4,252.75,218.4,252.75Z"/><path class="cls-24" d="M216.84,265.73c-.06,0-.19.18-.51.39a2.08,2.08,0,0,1-1.53.27c-1.31-.27-2.66-2.09-3-4.2a6.79,6.79,0,0,1,.12-3,2.41,2.41,0,0,1,1.31-1.81,1,1,0,0,1,1.29.38c.21.3.17.55.24.56s.22-.24.05-.71a1.31,1.31,0,0,0-.57-.67,1.6,1.6,0,0,0-1.19-.12,2.89,2.89,0,0,0-1.86,2.15,7,7,0,0,0-.21,3.4c.44,2.36,2,4.4,3.77,4.63a2.24,2.24,0,0,0,1.83-.6C216.86,266,216.88,265.75,216.84,265.73Z"/><path class="cls-8" d="M277.49,223.66a25.2,25.2,0,0,1-22.81-2.34c-4.64-3.06-8.5-7.81-14-8.8a14.2,14.2,0,0,0-10.58,2.77,27.22,27.22,0,0,0-7.24,8.46c4.4,8.4,3.33,18.49,2.15,27.89a4.7,4.7,0,0,1-1,2.89c-1.27,1.25-3.47.66-4.84-.47-2.2-1.81-3.31-4.61-4.14-7.33a48.91,48.91,0,0,1-2.19-19.21,33.43,33.43,0,0,1,7.1-17.82,31.65,31.65,0,0,1,21-11,38.85,38.85,0,0,1,23.32,5.31,22.7,22.7,0,0,1,8.27,7.5"/><path class="cls-10" d="M285,199.46a2.46,2.46,0,0,1,0,1,4.82,4.82,0,0,1-1.36,2.64,7.57,7.57,0,0,1-4.25,2,12.26,12.26,0,0,1-2.95.18,6.41,6.41,0,0,1-3.19-1,4.24,4.24,0,0,1-1.88-3.16,3.71,3.71,0,0,1,2.15-3.32,4.54,4.54,0,0,1,2.1-.53,3.86,3.86,0,0,1,2.14.67,5.41,5.41,0,0,1,2.26,3.92,6.32,6.32,0,0,1-1.34,4.57,9.5,9.5,0,0,1-4,2.94,15.68,15.68,0,0,1-10.24.12,44.94,44.94,0,0,1-9.38-4.22,56.87,56.87,0,0,0-8.55-4.11,17.69,17.69,0,0,0-8.37-1,17,17,0,0,0-6.86,2.67,21.07,21.07,0,0,0-7,8.08,26.19,26.19,0,0,0-1.2,2.69,9.77,9.77,0,0,1-.39,1,1,1,0,0,1,.05-.26c.05-.16.12-.41.23-.74a23.32,23.32,0,0,1,1.1-2.75,20.79,20.79,0,0,1,7-8.32,17.15,17.15,0,0,1,7-2.81,18.14,18.14,0,0,1,8.62,1,56.52,56.52,0,0,1,8.64,4.12,44.18,44.18,0,0,0,9.27,4.16,15.19,15.19,0,0,0,9.86-.08,9,9,0,0,0,3.77-2.76,5.77,5.77,0,0,0,1.25-4.16,4.89,4.89,0,0,0-2-3.55,3.58,3.58,0,0,0-3.72-.14,3.23,3.23,0,0,0-1.92,2.87,3.78,3.78,0,0,0,1.66,2.84,6,6,0,0,0,3,1,12.83,12.83,0,0,0,2.87-.12,7.45,7.45,0,0,0,4.14-1.84,4.93,4.93,0,0,0,1.4-2.5A7.61,7.61,0,0,0,285,199.46Z"/><path class="cls-10" d="M203.8,230.26a20.24,20.24,0,0,0,3.73.5,10.13,10.13,0,0,0,3.91-.89,17,17,0,0,0,4.18-2.66,14,14,0,0,0,4.43-7.69,28.11,28.11,0,0,0,.34-3.76,3.08,3.08,0,0,1,.19,1,12,12,0,0,1-.12,2.82,13.63,13.63,0,0,1-4.45,8.05,16.6,16.6,0,0,1-4.36,2.73,10.28,10.28,0,0,1-4.13.8,9.43,9.43,0,0,1-2.78-.5A3.12,3.12,0,0,1,203.8,230.26Z"/><path class="cls-10" d="M205.34,238.76c0-.11,1.43,0,3.64-.36a16.31,16.31,0,0,0,12.71-10.79c.75-2.12.84-3.54.95-3.53a2.77,2.77,0,0,1,0,1,13.2,13.2,0,0,1-.54,2.66,15.76,15.76,0,0,1-13,11.07,13.39,13.39,0,0,1-2.72.1A3,3,0,0,1,205.34,238.76Z"/><path class="cls-24" d="M238,252.63a.32.32,0,0,1-.39-.21.32.32,0,0,1,.18-.4.3.3,0,0,1,.38.21A.31.31,0,0,1,238,252.63Z"/><path class="cls-24" d="M242.94,250.87a.35.35,0,0,1-.4-.26.34.34,0,0,1,.17-.44.38.38,0,0,1,.23.7Z"/><path class="cls-24" d="M246.35,250.38c-.16,0-.34-.14-.4-.4s0-.5.17-.54.33.14.4.39S246.51,250.34,246.35,250.38Z"/><path class="cls-24" d="M240.88,255.52c-.17,0-.31-.05-.32-.15s.11-.2.27-.22.3,0,.32.15S241,255.5,240.88,255.52Z"/><path class="cls-24" d="M245.41,253.88a.31.31,0,0,1-.36-.27.3.3,0,0,1,.22-.38.31.31,0,0,1,.36.26A.32.32,0,0,1,245.41,253.88Z"/><path class="cls-24" d="M269.31,248.07a.3.3,0,0,1-.38-.22.31.31,0,0,1,.17-.41.32.32,0,0,1,.39.23A.3.3,0,0,1,269.31,248.07Z"/><path class="cls-24" d="M272.74,247.34a.34.34,0,0,1-.37-.3.34.34,0,0,1,.21-.43.33.33,0,0,1,.36.3A.33.33,0,0,1,272.74,247.34Z"/><path class="cls-24" d="M266.26,248.53a.28.28,0,0,1-.36-.16.3.3,0,0,1,.2-.34.27.27,0,0,1,.36.16A.27.27,0,0,1,266.26,248.53Z"/><path class="cls-24" d="M269.25,251.68a.32.32,0,0,1-.43-.14.33.33,0,0,1,.08-.45.33.33,0,0,1,.43.15A.32.32,0,0,1,269.25,251.68Z"/><path class="cls-24" d="M272.13,250.74a.28.28,0,0,1-.25-.29.28.28,0,0,1,.33-.21.26.26,0,1,1-.08.5Z"/><path class="cls-8" d="M207.26,259c0,.06-.65.06-1.18-.71a2.05,2.05,0,0,1-.31-1.55,2.57,2.57,0,0,1,1.07-1.59,2.72,2.72,0,0,1,1.85-.46,3,3,0,0,1,1.44.55c.72.54.85,1.12.8,1.13s-.32-.43-1-.82a2.66,2.66,0,0,0-2.79,0,2.19,2.19,0,0,0-.9,1.27,1.8,1.8,0,0,0,.15,1.25C206.75,258.76,207.29,258.9,207.26,259Z"/><path class="cls-23" d="M296.76,388.16l.89,25.82s-74.86,14.83-84.49,19.79-13.56,5.73-13,20l119.63-.2s14.74-5.53,14.45-21.58S330,377.41,330,377.41Z"/><path class="cls-23" d="M212.57,454.2l9.94-.91L232,430.62c-1.54-.26-33.56-5-35.44-4.48l-7.68,27.28S211.88,454.2,212.57,454.2Z"/><path class="cls-23" d="M190.68,453.85s.21.09.53.12c2.64.29,14.85-.45,14.85-.45.56-1.58-.49-6.31-2-6.59s-14.52.6-14.52.6-2.05.27-2.55,3.71C186.66,453.36,190.68,453.85,190.68,453.85Z"/><path class="cls-23" d="M186.55,446.91s.21.09.53.12c2.65.29,14.19.17,14.69-1.24.56-1.58-.33-5.52-1.85-5.8s-14.51.6-14.51.6-2,.27-2.56,3.71C182.53,446.42,186.55,446.91,186.55,446.91Z"/><path class="cls-23" d="M184.5,440.13c0,.05.22.09.54.12,2.64.29,14.18.17,14.68-1.24.56-1.58-.33-5.53-1.85-5.8s-14.51.6-14.51.6-2.05.27-2.56,3.71C180.49,439.64,184.5,440.13,184.5,440.13Z"/><path class="cls-23" d="M182.58,433.39a1.4,1.4,0,0,0,.54.12c2.64.29,14.18.16,14.68-1.25.56-1.57-.33-5.52-1.85-5.8s-14.51.6-14.51.6-2.05.27-2.56,3.71C178.57,432.9,182.58,433.39,182.58,433.39Z"/><path class="cls-24" d="M200.67,446.86c0,.2-2.53.43-5.62.52s-5.57,0-5.56-.2,2.54-.43,5.62-.52S200.69,446.66,200.67,446.86Z"/><path class="cls-24" d="M200.73,440.06c0,.2-3.57.47-8,.61s-8,.09-8-.11,3.57-.47,8-.61S200.73,439.86,200.73,440.06Z"/><g class="cls-25"><path class="cls-24" d="M200.19,433.14c0,.2-3.57.48-8,.62s-8,.09-8-.11,3.57-.48,8-.62S200.18,432.94,200.19,433.14Z"/></g><path class="cls-23" d="M218.71,428.86s-21.79-9.69-23.15-8.29-3.46,5.9-3.46,5.9Z"/><path class="cls-24" d="M314.39,436.51c-.09,0-.54-1.56-1.57-4a41.92,41.92,0,0,0-2.07-4.15,40,40,0,0,0-7-8.93,39.22,39.22,0,0,0-3.52-3c-2.11-1.6-3.54-2.42-3.49-2.5a4.77,4.77,0,0,1,1,.51,26.15,26.15,0,0,1,2.67,1.69,35.19,35.19,0,0,1,3.63,3,38.66,38.66,0,0,1,3.88,4.24,39.53,39.53,0,0,1,3.17,4.79,37.58,37.58,0,0,1,2,4.25,26.78,26.78,0,0,1,1,3A5.07,5.07,0,0,1,314.39,436.51Z"/><path class="cls-23" d="M226.75,314.94l-22.54,64.15-25.35,7.3s9.19,38.89,18.57,45.87c3.19,2.37,8.41,4.94,13.75,4.57,10.13-.7,21.49-7.85,25.82-17.82,3.85-8.86,14.13-100.49,14.13-100.49Z"/><path class="cls-23" d="M250.82,321.25l1.31-15.63-3.62-12.55-1.41-4.8,2.75,2.8,5-5.33s-1.63-9.46-3-9.46a25.43,25.43,0,0,0-5.06,1.48l-1.8.68-4.23,2.16,4.23-6.49s4.36,3.63,6.59.48c1.71-2.41-4.64-7.82-7-9.72a2.38,2.38,0,0,0-1.94-.47l-2.47.5a3.6,3.6,0,0,0-3.62-3.29,5.56,5.56,0,0,0-4.73,2.83l-2.6.47a4.34,4.34,0,0,0-4.07,2.84l-5.72,15.56,7.34,31.63"/><path class="cls-24" d="M226.75,314.94a5.69,5.69,0,0,1-.16-.56l-.42-1.66c-.36-1.48-.87-3.62-1.53-6.34-1.3-5.52-3.16-13.41-5.43-23l0-.06,0-.06,3.58-9.78c.63-1.72,1.27-3.47,1.92-5.27a5.14,5.14,0,0,1,1.61-2.5,4.65,4.65,0,0,1,2.87-1h0l2.61-.47-.18.13a6.48,6.48,0,0,1,1.91-2.06,5.22,5.22,0,0,1,2.72-.9,4,4,0,0,1,2.8.88,3.4,3.4,0,0,1,1.39,2.66l-.3-.26,1.87-.38c.31,0,.61-.14,1-.17a2.64,2.64,0,0,1,1,.16,2.88,2.88,0,0,1,.9.54l.76.62c.5.41,1,.84,1.48,1.28a34.11,34.11,0,0,1,2.82,2.82,9.22,9.22,0,0,1,2.12,3.5,2.2,2.2,0,0,1,0,1.27,3.07,3.07,0,0,1-3,1.84,7.8,7.8,0,0,1-4.21-1.82l.38-.06c-1.43,2.2-2.85,4.37-4.24,6.49l-.33-.36,4.24-2.16h0c1.43-.55,2.84-1.08,4.26-1.53a17.81,17.81,0,0,1,2.17-.59,1.81,1.81,0,0,1,.64,0,1,1,0,0,1,.56.44,5.1,5.1,0,0,1,.52,1,50.26,50.26,0,0,1,2,8.21l0,.11-.08.08-5,5.32-.15.17-.16-.17-2.74-2.8.35-.21c1.93,6.72,3.6,12.56,5,17.36v.06c-.44,4.92-.79,8.82-1,11.52-.12,1.31-.22,2.33-.29,3.05,0,.33-.07.59-.09.79a1.11,1.11,0,0,1,0,.26.92.92,0,0,1,0-.27c0-.2,0-.46.05-.79,0-.71.12-1.74.21-3.05.21-2.7.52-6.61.9-11.54v.06l-5.09-17.33-.23-.8.58.59,2.75,2.8h-.31l5-5.33-.06.19a49.24,49.24,0,0,0-2-8.09,5,5,0,0,0-.47-.92.66.66,0,0,0-.26-.24,1.57,1.57,0,0,0-.45,0,16.43,16.43,0,0,0-2.1.58c-1.41.45-2.81,1-4.23,1.52h0l-4.23,2.17-.86.44.53-.81L244.8,274l.15-.23.23.17a7.31,7.31,0,0,0,3.89,1.7,2.58,2.58,0,0,0,2.48-1.49,1.84,1.84,0,0,0,0-1,8.77,8.77,0,0,0-2-3.27,32.8,32.8,0,0,0-2.76-2.77c-.49-.44-1-.86-1.48-1.27a6.44,6.44,0,0,0-1.49-1.08,2.84,2.84,0,0,0-1.75,0l-1.87.37-.32.06v-.32a2.92,2.92,0,0,0-1.19-2.24,3.52,3.52,0,0,0-2.47-.78,5.21,5.21,0,0,0-4.21,2.69l-.06.11-.12,0-2.6.46h-.05a4.18,4.18,0,0,0-2.57.9,4.55,4.55,0,0,0-1.46,2.3c-.67,1.79-1.31,3.54-1.95,5.25q-1.89,5.14-3.61,9.77v-.12c2.19,9.63,4,17.54,5.26,23.07.61,2.73,1.09,4.87,1.42,6.36.15.72.27,1.27.36,1.67S226.75,314.94,226.75,314.94Z"/><path class="cls-24" d="M244.81,286.24a27.62,27.62,0,0,1,4.38-2.36l1.63-.79-1.36,1.21a4.29,4.29,0,0,0-1.4,3.47,4.39,4.39,0,0,0,.6,1.86,9.31,9.31,0,0,0,1.19,1.44c0,.05-.78-.22-1.5-1.24a4.37,4.37,0,0,1-.77-2,4.55,4.55,0,0,1,.52-2.6,4.41,4.41,0,0,1,1-1.29l.28.42A28.41,28.41,0,0,1,244.81,286.24Z"/><path class="cls-24" d="M232.82,277.79a13.5,13.5,0,0,1,1.23-2.36c.81-1.42,2-3.37,3.27-5.5.65-1.07,1.26-2.08,1.86-3a6.28,6.28,0,0,1,2.08-2.09,3.17,3.17,0,0,1,1.94-.43c.48.06.7.22.69.24s-.26,0-.7,0a3.38,3.38,0,0,0-1.75.55c-1.38.81-2.34,2.94-3.68,5s-2.51,4.05-3.4,5.43A13,13,0,0,1,232.82,277.79Z"/><path class="cls-24" d="M225.07,277.74a10,10,0,0,1,.74-2.13c.53-1.28,1.31-3,2.25-4.93s1.87-3.58,2.57-4.78a9.07,9.07,0,0,1,1.24-1.87,9.9,9.9,0,0,1-.92,2.05l-2.42,4.83-2.38,4.85A9.67,9.67,0,0,1,225.07,277.74Z"/><path class="cls-24" d="M207,372.83a4.73,4.73,0,0,1-.36,1.16l-1.16,3.1c-1,2.62-2.34,6.23-3.77,10.25S199,395,198.13,397.67l-1.06,3.14a4.65,4.65,0,0,1-.45,1.13,5.9,5.9,0,0,1,.26-1.19c.19-.76.5-1.85.9-3.19.8-2.68,2-6.37,3.4-10.39S204,379.54,205.1,377c.54-1.29,1-2.33,1.31-3A5.86,5.86,0,0,1,207,372.83Z"/><path class="cls-24" d="M240.39,402.4a1.35,1.35,0,0,1,0,.3l-.12.86c-.11.79-.27,1.9-.48,3.31s-.48,3.18-.88,5.21a42.29,42.29,0,0,1-1.89,6.76,22.34,22.34,0,0,1-4.41,7.27,33,33,0,0,1-7.6,6.13,40.54,40.54,0,0,1-10,4.14,22.25,22.25,0,0,1-5.68.8,17.5,17.5,0,0,1-5.83-1,21.45,21.45,0,0,1-9.28-6.86,36.8,36.8,0,0,1-5.38-9.36c-1.31-3.2-2.08-6.38-3-9.28l-2.51-8.1c-1.55-4.95-2.73-9-3.46-11.79-.37-1.4-.64-2.49-.81-3.24l-.19-.85a1.28,1.28,0,0,1,0-.29,1.33,1.33,0,0,1,.1.28l.24.84q.33,1.15.9,3.21c.8,2.79,2,6.79,3.62,11.73.79,2.47,1.65,5.18,2.57,8.08s1.71,6.08,3,9.23a36.76,36.76,0,0,0,5.33,9.21,20.93,20.93,0,0,0,9.07,6.69,16.74,16.74,0,0,0,5.65,1,21.8,21.8,0,0,0,5.55-.77,40.77,40.77,0,0,0,9.85-4.07,32.8,32.8,0,0,0,7.53-6,22.06,22.06,0,0,0,4.38-7.11A42.27,42.27,0,0,0,238.6,412c.43-2,.73-3.76,1-5.19s.44-2.5.58-3.29l.17-.85A1.48,1.48,0,0,1,240.39,402.4Z"/><path class="cls-6" d="M52.56,387.7c-.9-3.12-2.83-6.14-5.82-7.43s-6.7-.58-9.88.58-6.3,2.7-9.68,2.91-7.19-1.4-8.2-4.62c-.95-3,.88-6.28,3.17-8.48a20.38,20.38,0,0,1,18.55-5,20.38,20.38,0,0,1,14.24,12.91"/><g class="cls-26"><path d="M52.56,387.7c-.9-3.12-2.83-6.14-5.82-7.43s-6.7-.58-9.88.58-6.3,2.7-9.68,2.91-7.19-1.4-8.2-4.62c-.95-3,.88-6.28,3.17-8.48a20.38,20.38,0,0,1,18.55-5,20.38,20.38,0,0,1,14.24,12.91"/></g><path class="cls-6" d="M79.32,401.26c5-4.7,4.7-12.89,2.23-19.26s-7.86-11.27-13.89-14.49a44,44,0,0,0-38.33-1.24A18.19,18.19,0,0,1,44,374.91c2.71,4.5,3.32,10,5.56,14.74a23.21,23.21,0,0,0,29.72,11.61"/><path class="cls-6" d="M81.7,373c5.48-6.47,6.21-16.87,5.4-25.31s-2.76-16.95-1.43-25.33c.79-5,2.72-9.7,3.37-14.69S88.76,297,84.9,293.82c-4.44-3.69-11.43-2.82-16,.65s-7.3,8.93-9.25,14.36c-4.3,11.95-5.88,25.19-2.35,37.39s11.81,23.09,24,26.77"/><path class="cls-8" d="M84.33,426.11a6.2,6.2,0,0,0,0-.75c0-.49,0-1.21,0-2.14-.07-1.85-.25-4.54-.67-7.84a104.73,104.73,0,0,0-2.1-11.48,53.28,53.28,0,0,0-5.24-13.29,55.27,55.27,0,0,0-8.57-11.45,53.61,53.61,0,0,0-9-7.46c-1.37-.95-2.7-1.67-3.84-2.34s-2.19-1.12-3-1.52l-2-.83a5.74,5.74,0,0,0-.7-.26,5.66,5.66,0,0,0,.67.34l1.93.91c.82.43,1.83.95,3,1.58S57.23,371,58.58,372a55.55,55.55,0,0,1,8.85,7.49,56.26,56.26,0,0,1,8.47,11.38c5,8.82,6.42,18.09,7.43,24.6.45,3.28.68,5.95.8,7.8.05.9.1,1.61.13,2.14A4,4,0,0,0,84.33,426.11Z"/><path class="cls-6" d="M131.64,347.45c10.14,6.12,10.11,11.7,8.42,17s-7.93,8.91-13.09,6.94c-2.92-1.11-5-3.65-6.84-6.2s-3.5-5.28-6-7.11-6.2-2.53-8.74-.71"/><g class="cls-26"><path d="M131.64,347.45c10.14,6.12,10.11,11.7,8.42,17s-7.93,8.91-13.09,6.94c-2.92-1.11-5-3.65-6.84-6.2s-3.5-5.28-6-7.11-6.2-2.53-8.74-.71"/></g><path class="cls-6" d="M139.23,354.16c-2.65-3.66-9.21-4.72-13.34-2.89s-7.18,5.45-9.89,9.07-5.35,7.45-9.11,10-9,3.43-12.76.89a10.91,10.91,0,0,1-4.33-7.5,25,25,0,0,1,.59-8.85c.9-4.25,2.36-8.7,5.77-11.4,3.79-3,9.06-3.16,13.9-3,5.56.18,11.2.6,16.42,2.53s10.54,6.08,12.75,11.18"/><path class="cls-8" d="M92.76,418s0-.07,0-.22,0-.39,0-.65c0-.62.05-1.46.09-2.52.07-2.23.16-5.38.27-9.27s.28-8.56.56-13.72.67-10.84,1.46-16.75a53.74,53.74,0,0,1,1.68-8.5,44.15,44.15,0,0,1,3.11-7.44,42.25,42.25,0,0,1,3.92-6.16,39.11,39.11,0,0,1,4.29-4.7,31.43,31.43,0,0,1,7.59-5.18c.5-.23.93-.45,1.32-.61l1-.38.61-.25a1,1,0,0,0,.2-.1,1.16,1.16,0,0,0-.22.06l-.62.2-1,.35c-.4.14-.84.35-1.34.57a30,30,0,0,0-7.74,5.1,40.4,40.4,0,0,0-4.37,4.71,42.81,42.81,0,0,0-4,6.19,44.34,44.34,0,0,0-3.17,7.51,54.17,54.17,0,0,0-1.7,8.57c-.79,5.93-1.16,11.62-1.43,16.79s-.38,9.82-.46,13.74-.11,7.08-.12,9.26c0,1.07,0,1.91,0,2.52,0,.27,0,.48,0,.66A.89.89,0,0,0,92.76,418Z"/><path class="cls-8" d="M89.11,422.57a28.83,28.83,0,0,0,1.11-4.36A45.69,45.69,0,0,0,90.69,406a81.74,81.74,0,0,0-3.87-17.77c-2.08-6.52-4.91-13.51-7.32-21a96.76,96.76,0,0,1-2.92-11.12,99.23,99.23,0,0,1-1.44-10.61,153.74,153.74,0,0,1-.32-18.14c.17-5.17.45-9.34.62-12.23.08-1.43.15-2.54.2-3.33,0-.36,0-.65,0-.87v-.29a1,1,0,0,0-.05.29c0,.22,0,.5-.08.86-.07.79-.17,1.91-.29,3.32-.22,2.89-.54,7.07-.76,12.24a148.73,148.73,0,0,0,.23,18.19,96,96,0,0,0,1.42,10.66,94.9,94.9,0,0,0,2.91,11.17c2.43,7.53,5.26,14.5,7.36,21a82.29,82.29,0,0,1,4,17.67,47.3,47.3,0,0,1-.32,12.18c-.25,1.42-.48,2.52-.68,3.26-.08.35-.15.62-.2.84A1.09,1.09,0,0,0,89.11,422.57Z"/><polygon class="cls-10" points="63.95 427.15 111.6 427.15 112.69 417.98 63.95 417.98 63.95 427.15"/><polygon class="cls-10" points="106.49 426.11 100.53 453.62 74.64 453.62 69.07 426.11 106.49 426.11"/><path class="cls-10" d="M64,427.15c0,.13,10.48.2,23.4.17s23.4-.17,23.4-.3-10.48-.19-23.4-.16S64,427,64,427.15Z"/><path class="cls-8" d="M72.13,440.73a20.31,20.31,0,0,1,4.2-2.4,14.91,14.91,0,0,1,5.1-1,18.11,18.11,0,0,1,6.27,1.15c2.18.74,4.2,1.59,6.18,2.06a14.81,14.81,0,0,0,5.34.17,11.13,11.13,0,0,0,3.43-1.09,5.34,5.34,0,0,0,.82-.53c.18-.13.27-.21.26-.22s-.41.24-1.16.59a11.86,11.86,0,0,1-3.4.93,15.16,15.16,0,0,1-5.2-.25c-1.91-.48-3.93-1.34-6.12-2.09a17.86,17.86,0,0,0-6.43-1.13A14.58,14.58,0,0,0,76.21,438a14,14,0,0,0-3.11,1.81,8.78,8.78,0,0,0-.74.64C72.2,440.64,72.12,440.72,72.13,440.73Z"/><path class="cls-3" d="M72.49,442.57a21,21,0,0,1,4-2.37,13.74,13.74,0,0,1,4.92-1,17.59,17.59,0,0,1,6.07,1.1c2.1.7,4.07,1.51,5.95,2a15.32,15.32,0,0,0,5.13.57A8.6,8.6,0,0,0,102,442a5.26,5.26,0,0,0,.8-.5c.18-.13.26-.21.25-.22s-.39.23-1.12.56a9.12,9.12,0,0,1-3.31.74,15.38,15.38,0,0,1-5-.66c-1.84-.51-3.79-1.34-5.92-2.05a17.49,17.49,0,0,0-6.22-1.07,13.43,13.43,0,0,0-5,1.13,13.09,13.09,0,0,0-3,1.8c-.32.26-.55.47-.71.62S72.48,442.56,72.49,442.57Z"/><path class="cls-3" d="M71.66,438.91A22.92,22.92,0,0,1,76,436.37a15.81,15.81,0,0,1,5.23-1.26,17,17,0,0,1,6.47,1.14,56.52,56.52,0,0,0,6.4,2.09,16.13,16.13,0,0,0,5.51,0,12.39,12.39,0,0,0,3.54-1.12,7.33,7.33,0,0,0,.86-.53c.18-.14.27-.22.26-.23s-.41.24-1.2.6a13.68,13.68,0,0,1-3.51,1,16.42,16.42,0,0,1-5.39-.1,64.08,64.08,0,0,1-6.32-2.11,16.75,16.75,0,0,0-6.65-1.12,15.38,15.38,0,0,0-5.33,1.38A15,15,0,0,0,72.66,438a9.43,9.43,0,0,0-.76.66C71.73,438.81,71.65,438.9,71.66,438.91Z"/><path class="cls-8" d="M63.53,427.19c0,.13,10.72.23,23.94.23s23.94-.1,23.94-.23S100.69,427,87.47,427,63.53,427.07,63.53,427.19Z"/><path class="cls-8" d="M454.79,453.62c0,.15-97.46.26-217.67.26s-217.69-.11-217.69-.26,97.45-.26,217.69-.26S454.79,453.48,454.79,453.62Z"/><path class="cls-11" d="M372.64,231.88a4.87,4.87,0,0,0-4.09,2.34c-1.11-.85-2.49-1.85-4-2.9-.84-.57-1.65-1.1-2.41-1.59a5,5,0,0,0,.67-6.37c.92-.65,2-1.41,3.06-2.26s1.86-1.48,2.65-2.14a5.53,5.53,0,1,0-.55-1.12c-.9.63-1.89,1.36-2.94,2.17s-2.14,1.71-3,2.46a4.89,4.89,0,0,0-3.35-1.31,5,5,0,0,0,0,10,4.94,4.94,0,0,0,2.36-.62c.84.61,1.76,1.26,2.75,1.93,1.59,1.08,3.06,2,4.29,2.75a5.86,5.86,0,0,0-.39,2.11,5,5,0,1,0,5-5.44Z"/><path class="cls-12" d="M372.64,231.88a3.71,3.71,0,0,1,1.87.34,5.4,5.4,0,0,1,3.16,4.19,5.87,5.87,0,0,1-.66,3.81,5.1,5.1,0,0,1-3.69,2.62,5,5,0,0,1-4.7-2,6,6,0,0,1-.74-5.67l.07.21c-2.23-1.42-4.65-2.92-7.06-4.68l.2,0a5.17,5.17,0,0,1-7.65-4.75,5.19,5.19,0,0,1,8.69-3.64h-.28l2.94-2.4,3-2.24-.08.24a5.12,5.12,0,0,1,.26-4.18,5.21,5.21,0,1,1,.35,5.33l.26,0c-2,1.65-3.92,3.09-5.74,4.4l0-.22a5.16,5.16,0,0,1-.71,6.56l0-.21c2.7,1.74,4.77,3.35,6.42,4.53l-.12,0a5.06,5.06,0,0,1,2.9-2.16,3.55,3.55,0,0,1,1.26-.13,7,7,0,0,0-1.24.22,5,5,0,0,0-2.78,2.16l-.05.08-.07-.05c-1.67-1.16-3.75-2.74-6.46-4.45l-.15-.09.13-.11a4.87,4.87,0,0,0,.63-6.19l-.09-.13.13-.09c1.8-1.31,3.72-2.76,5.69-4.41l.15-.13.11.17a4.83,4.83,0,1,0-.26-4.93,4.71,4.71,0,0,0-.24,3.84l.06.15-.14.1-3,2.23-2.93,2.38-.15.12-.13-.12a4.77,4.77,0,1,0-5.64,7.64,4.7,4.7,0,0,0,4.71.08l.11-.06.1.08c2.39,1.75,4.79,3.26,7,4.69l.13.08-.05.13a5.67,5.67,0,0,0,.67,5.35,4.67,4.67,0,0,0,4.4,1.94,4.82,4.82,0,0,0,3.51-2.46,5.69,5.69,0,0,0,.68-3.66,5.3,5.3,0,0,0-3-4.12A5.39,5.39,0,0,0,372.64,231.88Z"/><path class="cls-2" d="M34,191.71l7.19,7.5a1.17,1.17,0,0,0,1.05.35l10.26-1.67a1.2,1.2,0,0,1,1.25,1.75l-4.92,9.16a1.21,1.21,0,0,0,0,1.11l4.76,9.24a1.19,1.19,0,0,1-1.27,1.72L42.08,219a1.18,1.18,0,0,0-1.06.33l-7.32,7.38a1.19,1.19,0,0,1-2-.68l-1.41-10.29a1.18,1.18,0,0,0-.65-.91l-9.28-4.68a1.19,1.19,0,0,1,0-2.14l9.36-4.52a1.21,1.21,0,0,0,.66-.9L32,192.35A1.2,1.2,0,0,1,34,191.71Z"/><path class="cls-2" d="M15.87,189.59l3.05,3.18a.49.49,0,0,0,.44.15l4.35-.71a.51.51,0,0,1,.52.74l-2.08,3.88a.49.49,0,0,0,0,.47l2,3.91a.5.5,0,0,1-.54.73l-4.33-.78a.54.54,0,0,0-.45.14l-3.09,3.13a.51.51,0,0,1-.87-.29l-.59-4.36a.5.5,0,0,0-.28-.38l-3.92-2a.51.51,0,0,1,0-.91l4-1.91a.54.54,0,0,0,.28-.38l.67-4.35A.5.5,0,0,1,15.87,189.59Z"/></g></svg>