<svg xmlns="http://www.w3.org/2000/svg" viewBox="0 0 479.49 497.87"><defs><style>.cls-1{fill:#e0e0e0;}.cls-2{fill:#fff;}.cls-3{fill:#fafafa;}.cls-4{fill:#ebebeb;}.cls-5{fill:#f5f5f5;}.cls-6{fill:#263238;}.cls-7{fill:#8ea382;}.cls-8{opacity:0.4;}.cls-9{opacity:0.2;}.cls-10{fill:#455a64;}.cls-11{fill:#ff9a6c;}.cls-12{fill:#bb724d;}.cls-13{opacity:0.6;}.cls-14{opacity:0.3;}</style></defs><title>login2</title><g id="Desk"><polygon class="cls-1" points="441.78 92.5 441.78 158.19 347.44 158.19 344.04 92.96 441.78 92.5"/><rect class="cls-2" x="358.67" y="78.33" width="65.09" height="94.35" transform="translate(265.7 516.72) rotate(-90)"/><path class="cls-1" d="M438.83,158.5H343.59v-66h95.24Zm-94.34-.9h93.45V93.41H344.49Z"/><rect class="cls-2" x="354.26" y="101.05" width="73.91" height="48.92"/><path class="cls-1" d="M428.17,101.05h-1.42l-4.06,0-15.23.06-53.2.1.21-.21c0,14.94,0,31.5,0,48.91h0l-.23-.24,73.91.05L428,150c0-14.89.07-27.1.1-35.6,0-4.24,0-7.56.05-9.84,0-1.12,0-2,0-2.58s0-.9,0-.9,0,.28,0,.86,0,1.44,0,2.55c0,2.26,0,5.57,0,9.8,0,8.53.06,20.77.1,35.71v.18h-.18l-73.91,0H354V150h0c0-17.41,0-34,0-48.91v-.22h.22l53.34.11,15.18.06,4,0,1,0Z"/><path class="cls-1" d="M344,92.78a7.64,7.64,0,0,1,1.62,1c1,.7,2.28,1.69,3.7,2.82s2.67,2.21,3.55,3a7.85,7.85,0,0,1,1.35,1.38,64,64,0,0,1-5.19-4A51.13,51.13,0,0,1,344,92.78Z"/><path class="cls-1" d="M438.38,93a46.38,46.38,0,0,1-5,4.23,46.26,46.26,0,0,1-5.25,3.86,46.38,46.38,0,0,1,5-4.23A46.26,46.26,0,0,1,438.38,93Z"/><path class="cls-2" d="M438.31,158.06l-10.52-8.52"/><path class="cls-1" d="M427.79,149.54a48.83,48.83,0,0,1,5.41,4.08,49.55,49.55,0,0,1,5.11,4.44A50.41,50.41,0,0,1,432.9,154,49.55,49.55,0,0,1,427.79,149.54Z"/><path class="cls-1" d="M344,158.05a45.35,45.35,0,0,1,4.91-4.18,44.82,44.82,0,0,1,5.2-3.82,44.73,44.73,0,0,1-4.91,4.19A45.39,45.39,0,0,1,344,158.05Z"/><rect class="cls-1" x="384.33" y="101.23" width="16.38" height="46.5" transform="translate(268.04 516.99) rotate(-90)"/><path class="cls-1" d="M181,55.69s-.08,0-.23-.07l-.67-.26-2.52-1-9.24-4L137.9,37.1l-1.05-.46h.22l-29.8,12.74-9,3.79-2.46,1a5.67,5.67,0,0,1-.87.32,5.14,5.14,0,0,1,.82-.42L98.17,53l9-3.95,29.73-12.89.11,0,.11,0,1.05.46L168.46,50l9.18,4.12,2.48,1.15.64.31A.88.88,0,0,1,181,55.69Z"/><rect class="cls-1" x="33.11" y="51.32" width="195.29" height="146.23"/><rect class="cls-3" x="39.93" y="58.12" width="182.37" height="133.42"/><path class="cls-1" d="M80.22,116.42s.19,22.39,1.33,29.23l28.09-1.33s-2.47-22-1.52-27.9Z"/><path class="cls-2" d="M94.05,119.58h.41a6.62,6.62,0,0,1,1.17.06,6.22,6.22,0,0,1,1.78.53,5.68,5.68,0,0,1,2,1.54,6.86,6.86,0,0,1,1.35,2.7,6.53,6.53,0,0,1-.3,3.47,10.38,10.38,0,0,1-.79,1.74,18,18,0,0,0-.9,1.75,14.72,14.72,0,0,0-1.13,4l0,.09h-.09l-2.77,0-2.91,0h-.1v-.1a8.16,8.16,0,0,0-1.35-3.84c-.33-.58-.7-1.12-1-1.66a15.05,15.05,0,0,1-1-1.61,5.38,5.38,0,0,1-.44-3.42,7.22,7.22,0,0,1,1.08-2.8,5.39,5.39,0,0,1,1.83-1.65,6.93,6.93,0,0,1,1.72-.67,7.14,7.14,0,0,1,1.15-.18,1.63,1.63,0,0,1,.3,0h.1s0,0-.1,0l-.3,0a8,8,0,0,0-1.13.22,6.92,6.92,0,0,0-1.69.69,5.38,5.38,0,0,0-1.77,1.63,7.28,7.28,0,0,0-1,2.74,5.26,5.26,0,0,0,.44,3.32,17.1,17.1,0,0,0,1,1.58c.34.54.72,1.09,1.06,1.66a8.54,8.54,0,0,1,1.38,3.94l-.1-.1,2.91-.05,2.77,0-.1.09a15,15,0,0,1,1.16-4,16.36,16.36,0,0,1,.91-1.77,9.24,9.24,0,0,0,.78-1.7,6.28,6.28,0,0,0,.31-3.37,6.57,6.57,0,0,0-1.29-2.65,5.8,5.8,0,0,0-1.88-1.53,6.59,6.59,0,0,0-1.75-.56,7.2,7.2,0,0,0-1.16-.09h-.3C94.09,119.59,94.05,119.59,94.05,119.58Z"/><path class="cls-2" d="M95.49,135.19a.62.62,0,0,0,0-.09l0-.26c0-.24-.08-.57-.15-1-.12-.87-.31-2.13-.44-3.7,0-.39-.06-.81-.07-1.24s0-.87,0-1.34a3.7,3.7,0,0,1,.32-1.4,2.12,2.12,0,0,1,1.07-1.08,1.45,1.45,0,0,1,1.53.29,1.11,1.11,0,0,1,.33.77,1.4,1.4,0,0,1-.29.81,1.81,1.81,0,0,1-.68.54,3,3,0,0,1-.83.28,10.44,10.44,0,0,1-1.77.21,10.63,10.63,0,0,1-1.79-.09,3.38,3.38,0,0,1-.84-.24,2.11,2.11,0,0,1-.71-.51,1.59,1.59,0,0,1-.41-.75,1.31,1.31,0,0,1,.1-.83,1.13,1.13,0,0,1,.59-.57,1,1,0,0,1,.8,0,1.44,1.44,0,0,1,.59.5,2.15,2.15,0,0,1,.3.7,8,8,0,0,1,.14,1.44c.05.92.1,1.78.14,2.57.08,1.57.14,2.84.19,3.72,0,.44,0,.78,0,1v.26a.21.21,0,0,1,0,.09.62.62,0,0,0,0-.09c0-.06,0-.15,0-.26s0-.58-.07-1c0-.89-.12-2.16-.21-3.73-.05-.79-.1-1.65-.15-2.57a8.64,8.64,0,0,0-.14-1.42,2,2,0,0,0-.29-.67,1.4,1.4,0,0,0-.57-.48.92.92,0,0,0-.73,0,1.05,1.05,0,0,0-.54.54,1.14,1.14,0,0,0-.1.77,1.51,1.51,0,0,0,.39.71,2.54,2.54,0,0,0,1.51.73,11.41,11.41,0,0,0,1.76.08,10.2,10.2,0,0,0,1.76-.2,4.28,4.28,0,0,0,.81-.27,1.76,1.76,0,0,0,.65-.52,1.26,1.26,0,0,0,.27-.76,1,1,0,0,0-.3-.71,1.37,1.37,0,0,0-1.44-.27,2.07,2.07,0,0,0-1,1,3.75,3.75,0,0,0-.32,1.38c0,.45,0,.9,0,1.33s0,.84.06,1.23c.12,1.57.3,2.84.41,3.71.06.43.11.77.14,1l0,.27Z"/><path class="cls-2" d="M91.8,135.33s0,.35.07.94.08,1.49.12,2.43l0-.06,1.89,2.18-.1,0,2.19-.12-.09,0L97,139.37l.54-.66,0,.08c0-1.28,0-2.49-.08-3.6l.12.12-4.08,0H92.24a2.3,2.3,0,0,1-.44,0,1.7,1.7,0,0,1,.39,0l1.15-.06,4.15-.17h.12v.12c0,1.1.07,2.32.11,3.6v0l0,0-.54.67c-.38.45-.74.9-1.09,1.32l0,0H96l-2.18.11h-.06l0,0-1.86-2.21,0,0v0c0-1,0-1.8,0-2.5A5.79,5.79,0,0,1,91.8,135.33Z"/><path class="cls-2" d="M97.44,138.5l-.21-.09a5,5,0,0,0-.57-.22,5.38,5.38,0,0,0-3.92.12c-.24.09-.43.19-.56.25s-.19.11-.2.1l.19-.13a4.22,4.22,0,0,1,.54-.28,5.12,5.12,0,0,1,2-.45,5,5,0,0,1,2,.33,4.24,4.24,0,0,1,.57.25Z"/><path class="cls-2" d="M97.44,137.62a1,1,0,0,1-.21-.08,4.68,4.68,0,0,0-.57-.23,5.67,5.67,0,0,0-2-.3,5.44,5.44,0,0,0-2,.42c-.24.1-.43.19-.56.26l-.2.1.19-.13a4,4,0,0,1,.54-.29,5.25,5.25,0,0,1,4-.12,6.1,6.1,0,0,1,.57.25Z"/><path class="cls-2" d="M97.39,136.79s-.08,0-.21-.09a5,5,0,0,0-.57-.22,5.44,5.44,0,0,0-2-.3,5.55,5.55,0,0,0-2,.42l-.55.26-.2.1a.61.61,0,0,1,.18-.13,5.11,5.11,0,0,1,.55-.29,5.3,5.3,0,0,1,2-.45,5.48,5.48,0,0,1,2,.33,3.53,3.53,0,0,1,.56.25Z"/><path class="cls-4" d="M48.93,79.8s.19,22.4,1.33,29.23l28.09-1.33s-2.47-22-1.52-27.9Z"/><path class="cls-2" d="M72.6,89.21a81,81,0,0,1-9.41.84,82.18,82.18,0,0,1-9.44.29,81,81,0,0,1,9.41-.84A82.16,82.16,0,0,1,72.6,89.21Z"/><path class="cls-2" d="M72.61,94a81.28,81.28,0,0,1-9.41.84,81,81,0,0,1-9.44.3,79.53,79.53,0,0,1,9.4-.85A82.34,82.34,0,0,1,72.61,94Z"/><path class="cls-2" d="M67.83,98.61a26.72,26.72,0,0,1-5.35.6,26.65,26.65,0,0,1-5.39.05,25.91,25.91,0,0,1,5.36-.6A26.57,26.57,0,0,1,67.83,98.61Z"/><path class="cls-4" d="M47.6,145.69s.19,22.4,1.33,29.23L77,173.6s-2.47-22-1.52-27.91Z"/><path class="cls-2" d="M71.27,155.1a81,81,0,0,1-9.41.84,81,81,0,0,1-9.44.3,79.57,79.57,0,0,1,9.41-.85A82.16,82.16,0,0,1,71.27,155.1Z"/><path class="cls-2" d="M71.28,159.85a84,84,0,0,1-9.41.84,82.18,82.18,0,0,1-9.44.29,81,81,0,0,1,9.41-.84A79.52,79.52,0,0,1,71.28,159.85Z"/><path class="cls-2" d="M66.5,164.5a25.87,25.87,0,0,1-5.35.6,26.65,26.65,0,0,1-5.39.05,26.76,26.76,0,0,1,5.36-.6A26.57,26.57,0,0,1,66.5,164.5Z"/><polygon class="cls-4" points="124.37 85.74 127.15 150.34 207.79 151.31 204.18 86.59 124.37 85.74"/><rect class="cls-5" x="123.44" y="85.27" width="80.11" height="60.49"/><path class="cls-1" d="M203.54,145.76s0-.39,0-1.12,0-1.82,0-3.23c0-2.83,0-7-.06-12.24,0-10.54-.06-25.64-.11-43.9l.22.23-80.1,0h0l.27-.28c0,21.76,0,42.36,0,60.49l-.24-.25,57.78.13,16.43.06,4.37,0,1.13,0h.39l-.36,0h-1.1l-4.32,0-16.38.07-57.94.12h-.25v-.25c0-18.13,0-38.73,0-60.49V85h.28l80.1,0h.23v.22c-.05,18.32-.09,33.46-.12,44.05,0,5.25,0,9.36-.06,12.18,0,1.39,0,2.45,0,3.19S203.54,145.76,203.54,145.76Z"/><rect class="cls-5" x="133.1" y="98.09" width="32.47" height="40.87"/><path class="cls-1" d="M165.57,139s0-.08,0-.21l0-.58c0-.54,0-1.28,0-2.23,0-2,0-4.81-.06-8.39,0-7.19-.07-17.37-.12-29.46l.24.25-32.47,0,.27-.26h0v11.11c0,3.63,0,7.17,0,10.6,0,6.86,0,13.3,0,19.14l-.23-.23,23.51.12,6.6.06,1.75,0,.61,0a5.48,5.48,0,0,1-.56,0l-1.71,0-6.55.06-23.65.12h-.23V139c0-5.84,0-12.28,0-19.14,0-3.43,0-7,0-10.6,0-1.82,0-3.66,0-5.51v-5.6h0l.28-.29,32.47,0h.25v.25c0,12.15-.09,22.39-.12,29.62,0,3.55,0,6.37-.07,8.33q0,1.4,0,2.19c0,.22,0,.4,0,.55S165.58,139,165.57,139Z"/><rect class="cls-5" x="134.34" y="88.74" width="62.23" height="5.89"/><path class="cls-1" d="M196.58,94.63a2.45,2.45,0,0,1,0-.41c0-.28,0-.66,0-1.14,0-1,0-2.48-.06-4.34l.11.11c-10.5.1-34.42.16-62.23.16h0c.55-.55.16-.15.28-.27h0v5.87l-.28-.28,44.12.12,13.24.08,3.6,0,.94,0a1.37,1.37,0,0,1,.34,0h-.3l-.91,0-3.54,0-13.17.08-44.32.12h-.27V88.76h0c.12-.12-.28.27.27-.28h0c27.81,0,51.73.07,62.23.17h.11v.11c0,1.89-.05,3.37-.07,4.41,0,.46,0,.83,0,1.11S196.58,94.63,196.58,94.63Z"/><rect class="cls-5" x="169.55" y="98.09" width="27.03" height="24.63"/><path class="cls-1" d="M196.58,122.72a3.23,3.23,0,0,1,0-.48l0-1.33c0-1.21,0-2.9-.06-5,0-4.34-.07-10.46-.12-17.8l.24.23-27,0,.27-.27h0v6.59q0,3.26,0,6.36c0,4.13,0,8,0,11.66l-.24-.24,19.49.12,5.54.06,1.47,0,.53,0a2.62,2.62,0,0,1-.48,0l-1.42,0-5.48.06-19.65.12h-.24v-.24c0-3.61,0-7.53,0-11.66q0-3.11,0-6.36V98.11h0l.28-.28,27,0h.23v.24c-.05,7.41-.09,13.58-.12,17.94,0,2.11-.05,3.78-.06,5,0,.54,0,1,0,1.3A3.14,3.14,0,0,1,196.58,122.72Z"/><rect class="cls-5" x="169.55" y="126.58" width="27.03" height="12.38"/><path class="cls-1" d="M196.58,139a7,7,0,0,1-.05-.9l-.05-2.48c0-2.19-.06-5.25-.1-9l.2.2-27,.08c-.25.24.33-.34.27-.28h0V133c0,2.07,0,4.08,0,6l-.26-.26,19.33.12,5.63.07,1.52,0,.55,0a2.83,2.83,0,0,1-.49,0l-1.47,0-5.57.07-19.5.13h-.26V139c0-1.92,0-3.93,0-6,0-1,0-2.09,0-3.15v-3.22h0c-.06.06.52-.52.28-.27l27,.07h.2v.2c-.05,3.8-.08,6.9-.11,9.12,0,1,0,1.83,0,2.44S196.59,139,196.58,139Z"/><path class="cls-2" d="M164.77,98.16c-10.05,13.89-21.62,26.91-31.67,40.8"/><path class="cls-1" d="M133.1,139a2,2,0,0,1,.26-.46l.85-1.24c.75-1.08,1.86-2.61,3.25-4.49,2.79-3.75,6.79-8.83,11.26-14.38s8.51-10.59,11.37-14.28l3.39-4.38.93-1.18q.33-.4.36-.39a2.38,2.38,0,0,1-.27.46c-.23.33-.51.74-.84,1.24-.75,1.08-1.86,2.61-3.26,4.48-2.79,3.76-6.78,8.84-11.25,14.39s-8.51,10.59-11.38,14.28l-3.38,4.37-.94,1.19A2.25,2.25,0,0,1,133.1,139Z"/><line class="cls-2" x1="133.1" y1="98.09" x2="165.57" y2="138.96"/><path class="cls-1" d="M165.57,139c-.12.09-7.48-9-16.45-20.26S133,98.18,133.1,98.09s7.48,9,16.45,20.26S165.69,138.86,165.57,139Z"/><path class="cls-1" d="M127.15,98.18a5.08,5.08,0,1,1-5.08-5.08A5.08,5.08,0,0,1,127.15,98.18Z"/><path class="cls-1" d="M210.24,85.84a5.08,5.08,0,1,1-5.08-5.08A5.07,5.07,0,0,1,210.24,85.84Z"/><path class="cls-5" d="M357.66,438.11v22.77h-3.8v2.47h3.8v15.24h71.07V464.73h-5.26v-3h5.26v-4.54h2.34v-2.06h-2.78v-17Z"/><polygon class="cls-1" points="409.86 438.18 409.86 478.34 428.73 478.34 428.73 464.47 423.47 464.47 423.47 461.7 428.73 461.8 428.73 457.27 431.12 457.27 431.07 454.93 428.29 454.86 428.29 438.11 409.86 438.18"/><path class="cls-1" d="M411.2,463c0,.14-12.86.25-28.72.25s-28.72-.11-28.72-.25,12.85-.26,28.72-.26S411.2,462.89,411.2,463Z"/><path class="cls-1" d="M411.2,460.71c0,.14-12.86.26-28.72.26s-28.72-.12-28.72-.26,12.85-.25,28.72-.25S411.2,460.57,411.2,460.71Z"/><path class="cls-1" d="M414.89,454.49c0,.14-12.86.25-28.72.25s-28.72-.11-28.72-.25,12.85-.26,28.72-.26S414.89,454.35,414.89,454.49Z"/><path class="cls-1" d="M415.25,471.45c0,.14-12.86.25-28.73.25s-28.72-.11-28.72-.25,12.86-.25,28.72-.25S415.25,471.31,415.25,471.45Z"/><path class="cls-4" d="M143.08,365.86H197.3a6.9,6.9,0,0,0,6.9-6.91v-16.7a11.64,11.64,0,0,0-11.64-11.64H142.67Z"/><path class="cls-4" d="M196.39,376.37H89.78a5.27,5.27,0,0,1-5.26-5.26h0a5.26,5.26,0,0,1,5.26-5.25H196.39a5.25,5.25,0,0,1,5.25,5.25h0A5.26,5.26,0,0,1,196.39,376.37Z"/><path class="cls-1" d="M68.05,225.89l58.65-1,37.23,140.7-79.41.8L54.59,243A13.85,13.85,0,0,1,68.05,225.89Z"/><polygon class="cls-4" points="97.27 376.37 79.72 478.35 84.52 478.35 107.6 376.37 97.27 376.37"/><polygon class="cls-1" points="138.64 376.37 119.99 478.35 124.8 478.35 148.97 376.37 138.64 376.37"/><polygon class="cls-4" points="184.39 376.37 205.2 478.35 200.39 478.35 174.06 376.37 184.39 376.37"/><path class="cls-4" d="M120,224.85,149,365.7h22.26L148,241.25a20.05,20.05,0,0,0-19.71-16.4Z"/><path class="cls-6" d="M447.18,478.9c0,.15-92.52.26-206.61.26s-206.63-.11-206.63-.26,92.49-.26,206.63-.26S447.18,478.76,447.18,478.9Z"/><polygon class="cls-7" points="185.09 479.19 108.63 479.19 114.41 423.53 185.09 423.08 185.09 479.19"/><g class="cls-8"><polygon points="185.09 479.19 108.63 479.19 114.41 423.53 185.09 423.08 185.09 479.19"/></g><rect class="cls-7" x="119.77" y="423.08" width="76.46" height="56.11"/><g class="cls-9"><rect x="119.77" y="423.08" width="76.46" height="56.11"/></g><path class="cls-6" d="M196.88,450.24c0,.15-17.2.26-38.42.26s-38.42-.11-38.42-.26,17.2-.26,38.42-.26S196.88,450.1,196.88,450.24Z"/><path class="cls-6" d="M133.4,455.65a34.13,34.13,0,0,1,0-8.41,34.13,34.13,0,0,1,0,8.41Z"/><path class="cls-6" d="M186.53,455.34a27.17,27.17,0,0,1,0-7.5,27.17,27.17,0,0,1,0,7.5Z"/><path class="cls-6" d="M169.72,423.37c-.05,0,0-.61-.18-1.67a10.74,10.74,0,0,0-1.7-4.15,12.27,12.27,0,0,0-5.05-4.23,18,18,0,0,0-8-1.51,19.48,19.48,0,0,0-8,1.79,13.19,13.19,0,0,0-5.11,4.21,11.32,11.32,0,0,0-1.87,4.08c-.24,1-.25,1.65-.3,1.64a2.06,2.06,0,0,1,0-.43,6.73,6.73,0,0,1,.12-1.25,10.77,10.77,0,0,1,1.77-4.25,13.32,13.32,0,0,1,5.2-4.44,19.62,19.62,0,0,1,8.15-1.87,18.14,18.14,0,0,1,8.2,1.59,12.39,12.39,0,0,1,5.16,4.47,10.14,10.14,0,0,1,1.59,4.33,7.09,7.09,0,0,1,0,1.25A1.29,1.29,0,0,1,169.72,423.37Z"/><path class="cls-7" d="M141,206.65a18.92,18.92,0,0,1,11.72-1.43c2.13.35,4.34,1,5.79,2.59s1.72,4.41.06,5.78a5.5,5.5,0,0,1-3.65.92c-3.1,0-6.53-.58-9,1.29-1.41,1.06-2.35,2.83-4,3.35a4,4,0,0,1-4.39-2,6.81,6.81,0,0,1-.5-5A7.68,7.68,0,0,1,141,206.65Z"/><path class="cls-7" d="M132.87,190.88c2.18,3.11,6.42,2.08,8.39.18s2.79-4.65,3.55-7.28c1.72-6,3.46-12.29,2.18-18.41a10.26,10.26,0,0,0-2.35-5,5.35,5.35,0,0,0-5.06-1.69c-2.14.57-3.47,2.66-4.43,4.65a43.86,43.86,0,0,0-4.33,18.83c0,3,.34,6.22,2.05,8.72"/><path class="cls-7" d="M126.89,195.35a11.34,11.34,0,0,0,1.76-10.43,20,20,0,0,0-6.17-8.95,33.3,33.3,0,0,0-11.06-6.53,11.84,11.84,0,0,0-5-.84,5.23,5.23,0,0,0-4.18,2.52c-1.16,2.22,0,4.91,1.16,7.11a85.3,85.3,0,0,0,7.26,11.06c2.18,2.81,4.68,5.57,8,6.84s6.77,1.12,8.52-1.18"/><path class="cls-6" d="M132.73,237.85a7.46,7.46,0,0,0,.19-1.42c.1-1,.23-2.32.38-3.86a56.14,56.14,0,0,1,.87-5.66,43.24,43.24,0,0,1,2.06-6.69,24.46,24.46,0,0,1,3.41-6,12.73,12.73,0,0,1,4.31-3.59,12.23,12.23,0,0,1,3.64-1.13,7.2,7.2,0,0,0,1.41-.21,7.28,7.28,0,0,0-1.44,0,10.86,10.86,0,0,0-3.79,1,12.7,12.7,0,0,0-4.55,3.62,24.3,24.3,0,0,0-3.54,6.16,40.82,40.82,0,0,0-2,6.8,47.68,47.68,0,0,0-.75,5.73c-.12,1.64-.17,3-.19,3.89A6.69,6.69,0,0,0,132.73,237.85Z"/><path class="cls-6" d="M133,234.88a2.5,2.5,0,0,0,0-.66v-1.88c0-1.63,0-4,.08-6.9.14-5.82.64-12.08,1.61-20.92.92-8.31,2.15-18,3.45-24.26.28-1.43.56-2.72.82-3.84s.47-2.1.68-2.89.32-1.35.44-1.83a2.76,2.76,0,0,0,.11-.64,2.37,2.37,0,0,0-.23.61l-.54,1.8c-.24.78-.49,1.75-.77,2.87s-.61,2.41-.91,3.84a211.71,211.71,0,0,0-3.63,22.51c-1,8.85-1.4,16.91-1.44,22.75,0,2.91,0,5.28.1,6.91,0,.76.08,1.38.11,1.87A3.55,3.55,0,0,0,133,234.88Z"/><path class="cls-6" d="M133,219.33a11.78,11.78,0,0,0,0-2c-.07-1.26-.25-3.08-.6-5.32a70.73,70.73,0,0,0-1.73-7.74,63.72,63.72,0,0,0-3.24-9.15,48.86,48.86,0,0,0-9.5-14.81,25.25,25.25,0,0,0-2.24-2.07c-.34-.29-.65-.58-.95-.81l-.87-.6a13.2,13.2,0,0,0-1.65-1.06,59.81,59.81,0,0,1,5.41,4.83,51.49,51.49,0,0,1,9.27,14.75,72.23,72.23,0,0,1,3.25,9.07c.85,2.85,1.41,5.46,1.84,7.67s.64,4,.78,5.26A13.26,13.26,0,0,0,133,219.33Z"/><polygon class="cls-6" points="118 246.75 119.56 268.1 146.98 268.1 148.54 246.75 118 246.75"/><rect class="cls-6" x="115.36" y="238.34" width="36.45" height="8.41"/><polygon class="cls-10" points="115.36 267.28 115.36 269.61 117.07 269.61 151.21 269.61 151.21 267.28 115.36 267.28"/><polygon class="cls-10" points="118.75 273.71 117.07 269.61 149.9 269.61 147.94 273.71 118.75 273.71"/><path class="cls-1" d="M148,253.73a.89.89,0,0,1-.13.19l-.41.55-1.6,2-.07.09-.06-.09-3.93-5.43h.23l-3.87,5.47-.12.17-.13-.16-4.58-5.45h.26c-.08.1-.17.2-.25.31l-4.1,5.14-.14.17-.12-.18-3.87-5.47h.23l-4.76,5.43-.09.09-.06-.11L119,254l-.39-.67a1,1,0,0,1-.11-.23s.06.06.16.21l.42.64,1.57,2.46h-.15l4.68-5.49.12-.14.11.15,3.9,5.44H129l4.09-5.14.25-.32.13-.16.14.16,4.57,5.46h-.26l3.9-5.44.12-.16.11.16,3.84,5.49h-.14c.7-.84,1.25-1.51,1.66-2l.44-.52C148,253.78,148,253.72,148,253.73Z"/><path class="cls-10" d="M148.92,246.61c0,.1-6.87.17-15.34.17s-15.35-.07-15.35-.17,6.87-.17,15.35-.17S148.92,246.52,148.92,246.61Z"/><path class="cls-6" d="M150.31,269.84c0,.09-7.47.17-16.68.17s-16.68-.08-16.68-.17,7.47-.17,16.68-.17S150.31,269.75,150.31,269.84Z"/><rect class="cls-6" x="292.16" y="270.29" width="80.28" height="3.9" transform="translate(664.6 544.48) rotate(180)"/><polygon class="cls-6" points="384.88 274.19 399.93 217.76 337.25 217.76 323.62 274.19 384.88 274.19"/><polygon class="cls-10" points="327.38 269.92 383.37 269.92 396.4 220.37 340.12 220.37 327.38 269.92"/><path class="cls-6" d="M383.76,270.42h-57l13-50.55h57.32Zm-55.74-1h55l12.77-48.55H340.51Z"/><rect class="cls-10" x="126.71" y="285.15" width="4.05" height="193.56"/><rect class="cls-6" x="130.77" y="285.7" width="4.05" height="193"/><rect class="cls-10" x="376.48" y="285.15" width="4.05" height="193.56"/><rect class="cls-6" x="380.53" y="285.7" width="4.05" height="193"/><rect class="cls-10" x="79.72" y="273.9" width="361.43" height="15.88"/><rect class="cls-10" x="242.94" y="289.78" width="135.57" height="26.28"/><path class="cls-6" d="M316.77,301.1a3,3,0,1,1-3-3A3,3,0,0,1,316.77,301.1Z"/><path class="cls-6" d="M408,289.78c0,.14-47,.26-104.9.26s-104.91-.12-104.91-.26,47-.26,104.91-.26S408,289.63,408,289.78Z"/><path class="cls-11" d="M282.94,103c.54,0,7.85,1.22,7.85,1.22l9.88,12.46,1.49,2.36-13.33,8.52-5.89-8.72-5-3.25a5.1,5.1,0,0,1,5.28-.54,15.62,15.62,0,0,0,6.23,1.22l-1.76-5-5.42-1.08Z"/><path class="cls-6" d="M283.57,94.24a1.55,1.55,0,0,1,1.91,1.26c.81,5.11,3.26,20.48,4,25a1.46,1.46,0,0,1-1.06,1.66l-11.82,3.27a1.47,1.47,0,0,1-1.85-1.24L271.6,98.68A1.55,1.55,0,0,1,272.75,97Z"/><path class="cls-4" d="M275.66,122.29l12-3.34-3.18-21.24A2.06,2.06,0,0,0,281.9,96l-9.61,2.56Z"/><path class="cls-11" d="M287.41,106.75,282,110.81s.44,1.41,1.27,1.52a33,33,0,0,0,5.16-1.1Z"/><path class="cls-11" d="M286.76,103.53,281.11,106s-.37,1.84,1.75,1.59L281,108.94s.47.82,2.83.92,4.65-3.17,4.65-3.17Z"/><path class="cls-12" d="M292.36,109.81c0,.08-.68-.06-1.44-.75a11.33,11.33,0,0,0-1.29-1.09,1.86,1.86,0,0,0-1.79-.23,33.08,33.08,0,0,1-4.91,2.32,25.37,25.37,0,0,1,4.73-2.81,2.27,2.27,0,0,1,1.21-.13,2.64,2.64,0,0,1,1,.45,9.74,9.74,0,0,1,1.29,1.22A9.38,9.38,0,0,0,292.36,109.81Z"/><path class="cls-12" d="M291.26,123.9a7.74,7.74,0,0,1-.9-8.5,17.83,17.83,0,0,0-.31,4.33A18.16,18.16,0,0,0,291.26,123.9Z"/><path class="cls-12" d="M290.51,106c-.07,0-.37-.37-1.09-.6a3.83,3.83,0,0,0-2.87.33c-1.07.5-2,1.15-2.75,1.47s-1.28.38-1.29.32.44-.25,1.12-.65,1.56-1.07,2.71-1.62a4.92,4.92,0,0,1,1.74-.47,3.28,3.28,0,0,1,1.47.27C290.35,105.45,290.57,106,290.51,106Z"/><path class="cls-7" d="M290.09,141.41l29.39,18.87-7.79,22.28s-20.11-6.2-19.74-6.86S290.09,141.41,290.09,141.41Z"/><path class="cls-6" d="M282.48,443l-4.62,21.29s20.09,11.85,19.62,15.87l-41.6-7.48,5.84-33.47Z"/><path class="cls-10" d="M255.88,472.7l.72-3.35,39.62,8.42s1.7,1.14,1.26,2.41Z"/><path class="cls-6" d="M235.17,445.37l-.69,21.77s21.9,8,22.17,12.05l-42.27.18-.32-34Z"/><g class="cls-13"><path class="cls-10" d="M214.38,479.37l.1-3.42,40.49,1.1s1.89.81,1.68,2.14Z"/></g><path class="cls-11" d="M241.3,88.31l4.3,49.95,25-2c.16-2.92-.05-14.22-.05-14.22s10.41-1.62,10.54-12c.06-5.06-.66-15.51-1.42-24.92a19.26,19.26,0,0,0-20.33-17.68h0A19.26,19.26,0,0,0,241.3,88.31Z"/><path class="cls-12" d="M270.59,121.89A24.18,24.18,0,0,1,257,118s3.21,7.49,13.59,6.55Z"/><path class="cls-6" d="M275.66,92.4a1.5,1.5,0,0,1-1.44,1.5,1.43,1.43,0,0,1-1.53-1.34,1.48,1.48,0,0,1,1.43-1.5A1.42,1.42,0,0,1,275.66,92.4Z"/><path class="cls-6" d="M277.46,90.35c-.18.19-1.31-.64-2.91-.64s-2.77.81-2.94.61.1-.43.61-.81a4.06,4.06,0,0,1,2.36-.72,3.94,3.94,0,0,1,2.32.74C277.39,89.91,277.55,90.26,277.46,90.35Z"/><path class="cls-6" d="M260.3,92.4a1.5,1.5,0,0,1-1.43,1.5,1.43,1.43,0,0,1-1.54-1.34,1.49,1.49,0,0,1,1.44-1.5A1.42,1.42,0,0,1,260.3,92.4Z"/><path class="cls-6" d="M261.74,90.65c-.18.19-1.31-.64-2.91-.64s-2.77.81-2.94.61.1-.44.61-.81a4,4,0,0,1,2.36-.72,3.91,3.91,0,0,1,2.31.74C261.66,90.21,261.83,90.56,261.74,90.65Z"/><path class="cls-6" d="M267.55,102.51a10.68,10.68,0,0,1,2.59-.47c.41,0,.8-.12.87-.4a2.17,2.17,0,0,0-.27-1.21c-.39-1-.79-2-1.21-3.11-1.68-4.43-2.89-8.07-2.71-8.14s1.68,3.47,3.36,7.9c.4,1.09.79,2.13,1.15,3.13a2.31,2.31,0,0,1,.21,1.6,1,1,0,0,1-.67.6,3.18,3.18,0,0,1-.69.1A10.72,10.72,0,0,1,267.55,102.51Z"/><path class="cls-6" d="M262.84,103.62c.26,0,.26,1.72,1.75,2.95s3.33,1,3.35,1.28-.42.34-1.2.36a4.32,4.32,0,0,1-2.79-1,3.78,3.78,0,0,1-1.36-2.48C262.53,104,262.72,103.61,262.84,103.62Z"/><path class="cls-6" d="M262.15,84.38c-.15.43-1.75.23-3.63.45s-3.39.74-3.64.35c-.11-.18.15-.59.76-1a6.06,6.06,0,0,1,2.71-1,6.26,6.26,0,0,1,2.84.33C261.88,83.83,262.22,84.17,262.15,84.38Z"/><path class="cls-6" d="M276.88,85.72c-.29.36-1.39,0-2.71,0s-2.45.24-2.71-.14c-.11-.18.07-.55.56-.89a3.81,3.81,0,0,1,2.2-.6,3.7,3.7,0,0,1,2.16.74C276.85,85.17,277,85.54,276.88,85.72Z"/><path class="cls-6" d="M252.6,76.89l-.06,0a8.17,8.17,0,0,0-3,5.29q0,.12,0,.21c-.41,3-.34,6-.77,9s-1.46,6-3.66,8c-.9.84-2.49,1.42-3.23.43a2.44,2.44,0,0,1-.37-1.36c-.56-7.16-2.52-13.52-2.5-21a6.3,6.3,0,0,1,2.62-5.14c1.57-1.13,3.48-2.29,5.23-1.47s4,4.09,5.35,5.48"/><path class="cls-11" d="M244.81,93c-.18-.08-7.16-2.12-6.93,5s7.33,5.42,7.33,5.21S244.81,93,244.81,93Z"/><path class="cls-12" d="M243,100.61s-.12.09-.33.19a1.21,1.21,0,0,1-.92,0,3.09,3.09,0,0,1-1.51-2.71,4.07,4.07,0,0,1,.29-1.78,1.45,1.45,0,0,1,.9-1,.65.65,0,0,1,.75.32c.1.2.06.34.09.35s.15-.12.09-.41a.81.81,0,0,0-.3-.44.89.89,0,0,0-.69-.16,1.75,1.75,0,0,0-1.26,1.14,4.21,4.21,0,0,0-.36,2c.09,1.43.86,2.75,1.9,3a1.33,1.33,0,0,0,1.13-.23C242.94,100.78,243,100.62,243,100.61Z"/><path class="cls-6" d="M246.55,72c-1.76-2.84,3-6.93,6.56-8s8.13.61,11.63,1.77c2.21.73,4.4,1.75,6.72,1.65A15.44,15.44,0,0,0,276,66.19a11.63,11.63,0,0,1,4.56-.9,4.31,4.31,0,0,1,3.74,2.38c.59,1.44-.25,3.42-1.8,3.63a3.5,3.5,0,1,1,.94,6.48c1-.77,2.56.5,2.43,1.76a3.67,3.67,0,0,1-2.43,2.69c-3,1.31-6.43.89-9.5-.14s-5.92-2.65-9-3.76-8.15-3.1-11.2-2c-2.25.79-3.82,3.5-5.09,2.9a4.31,4.31,0,0,1-2.25-3.2,12.27,12.27,0,0,1,.14-4.05"/><path class="cls-10" d="M283.33,71.1c-.06,0-.36.53-1.13,1.36A9.75,9.75,0,0,1,278.25,75a9,9,0,0,1-6.79-.28c-2.42-1.08-4.49-3.25-6.87-5.3a14.84,14.84,0,0,0-8-3.84A8.23,8.23,0,0,0,249.78,68a6.21,6.21,0,0,0-1.61,4.6,4.65,4.65,0,0,0,.31,1.31c.13.28.21.41.23.4a10.94,10.94,0,0,1-.27-1.73,6.13,6.13,0,0,1,1.71-4.24,7.76,7.76,0,0,1,6.38-2.05,14.39,14.39,0,0,1,7.6,3.73c2.34,2,4.48,4.23,7.07,5.35a9.34,9.34,0,0,0,7.22.15,9.47,9.47,0,0,0,4-2.83,6.34,6.34,0,0,0,.74-1.11C283.29,71.26,283.35,71.12,283.33,71.1Z"/><path class="cls-10" d="M243,92.71s.31-.2.58-.76a4.82,4.82,0,0,0,.35-2.58c-.15-2.3-2.18-4.76-2.44-7.92a7.15,7.15,0,0,1,.79-4.25,5.44,5.44,0,0,1,2.64-2.29,4.73,4.73,0,0,1,2.38-.32c.57.09.88.23.9.17s-.25-.25-.84-.44a4.51,4.51,0,0,0-2.61.13,5.73,5.73,0,0,0-3,2.42,7.57,7.57,0,0,0-.93,4.64A13.14,13.14,0,0,0,242.15,86a13.48,13.48,0,0,1,1.28,3.43A5.44,5.44,0,0,1,243,92.71Z"/><path class="cls-6" d="M284.76,461.28S306.43,355,306.45,352.86L267.74,332.4l-15,124.74Z"/><path class="cls-6" d="M236,464.85,266,280.62V240.88L222.6,244c-.51,1.55-11.44,221.11-11.44,221.11l4.22-.24H236"/><polygon class="cls-6" points="289.48 238.07 306.45 352.86 268.51 343.66 253.05 241.8 289.48 238.07"/><line class="cls-7" x1="297.95" y1="283.87" x2="296.02" y2="268.25"/><path class="cls-7" d="M296,287.51s6.59-5.66,7.25-9.93-7.91-73-7.91-73L291,147.73c0,1,.12-7.16-1.2-7.65-4-1.5-12.22-4.24-12.22-4.24l-4.7-4.22s8.44,36.07,10.08,45.94Z"/><path class="cls-7" d="M241.83,127.72l-7.1,4.72L208.1,142.92l11.82,44.61-1.58,25.87-1.52,16.45s-7.92,40.72-14.92,65.47c0,0,7.81,14.81,14.23,16.87l2.67,1.59,9.52-69.71,8.17-11c.79-1.06,1.52-2.15,2.21-3.27,2-3.27,6.58-10.7,10.23-16.43,4.81-7.57,11-24.78,9.17-32.12S241.83,127.72,241.83,127.72Z"/><path class="cls-6" d="M223.74,281.5A60.91,60.91,0,0,0,239,263.18"/><path class="cls-4" d="M241.83,127.72l6.41,41.12a59.11,59.11,0,0,1-2.6,15.51l-11.44,37s-9,20.17-5.88,22.75,27.3,0,27.3,0l32.74-4.76a2.87,2.87,0,0,0,2.45-3.12L286,186c-1.64-3.47-2.31-10.56-3-13.09l-10.08-41.26-2.06-.27-4.48,3.08-2.36.19L244.16,125Z"/><path class="cls-1" d="M235.86,216c5.29-16.49,12.14-43.29,12.14-43.29,2.13,14-.2,28.35-5.41,41.54-4.26,10.77-9.41,18.91-13,29.93l-.1.46s-2,.1-1.86-2.84,3-11.73,4.91-16.6S235.86,216,235.86,216Z"/><polygon class="cls-7" points="267.47 137.94 263.02 137.94 261.69 144.02 265.58 148.74 269.5 148.35 270.78 143.98 269.73 141.54 267.47 137.94"/><path class="cls-7" d="M293.42,173.5c1.4.28,16.86,10.68,22.48,9.56s10.17-6.42,10.77-7.13c3.19-3.79,1.19-11.63.27-14.59a9.57,9.57,0,0,0-.91-2.07l-23.87-41-14.07,8.55,14.6,26.65Z"/><path class="cls-7" d="M178.29,223.07a18.32,18.32,0,0,1,.86-15c3.24-6.41,8.38-16.77,9.46-20.16,1.6-5,16.55-43.8,19.49-45l13,43.88L206,218.61,223.74,252,209,267.85S181,228.93,178.74,224.12Q178.5,223.6,178.29,223.07Z"/><path class="cls-11" d="M224.4,278a49.57,49.57,0,0,0,7.39-8.72.32.32,0,0,1,0-.27.44.44,0,0,1,.3-.19,42.66,42.66,0,0,0,2.32-4.06c-2.47-1.61-5.7-4-2.19-4.54,4.32-.62,7.42-2.72,7.86-3.87s-1-2.18-2.14-1.45a15.82,15.82,0,0,1-4.16,1.44,10.49,10.49,0,0,1-3.53.22c-1.37-.15-7-2.59-8-2.77l-10.53,11.08S219.81,273.41,224.4,278Z"/><path class="cls-6" d="M293.32,174.72a5.31,5.31,0,0,1-.37-1.24c-.21-.8-.47-2-.76-3.42a112.14,112.14,0,0,1-1.63-11.45,109.42,109.42,0,0,1-.42-11.56c0-1.48.08-2.68.14-3.5a6.05,6.05,0,0,1,.14-1.28,5.41,5.41,0,0,1,.06,1.28c0,.93,0,2.11,0,3.5,0,2.95.17,7,.57,11.51s1,8.52,1.47,11.44l.6,3.44A6.94,6.94,0,0,1,293.32,174.72Z"/><path class="cls-6" d="M305.59,177.09s-.12,0-.33-.08a5.41,5.41,0,0,1-.89-.42,7.76,7.76,0,0,1-2.54-2.58,16.17,16.17,0,0,1-1.82-5,61.62,61.62,0,0,1-1.2-6.43c-.41-4.62-.77-8.77-1-11.8-.1-1.43-.18-2.63-.25-3.57a7.81,7.81,0,0,1,0-1.32,5.4,5.4,0,0,1,.22,1.3c.11.94.25,2.14.41,3.56.32,3,.74,7.19,1.15,11.77.29,2.27.72,4.43,1.15,6.38a16.94,16.94,0,0,0,1.66,5,8.26,8.26,0,0,0,2.34,2.6C305.17,176.88,305.61,177.05,305.59,177.09Z"/><g class="cls-14"><path d="M297.5,145.93A89.19,89.19,0,0,0,295,160a21.58,21.58,0,0,0,.45,8.48c.86,2.72,2.87,5.23,5.63,6q-1.89-13.9-3.33-27.88"/></g><g class="cls-14"><path d="M215.62,235.83s4.68,9.6,7.27,14.62c5.4-22.31-1.45-45.79.78-68.64l-3.9,7.87-1.11,18.21-.83,10.68S217,230.06,215.62,235.83Z"/></g><path class="cls-6" d="M219.39,143.32a7.44,7.44,0,0,1,.8,1.25c.24.41.53.91.83,1.52s.67,1.28,1,2.07a47.87,47.87,0,0,1,2.1,5.6,51.76,51.76,0,0,1,1.61,7.15,53.32,53.32,0,0,1,.52,7.31,46.13,46.13,0,0,1-.41,6c-.08.85-.24,1.6-.36,2.27s-.24,1.23-.36,1.69a7.38,7.38,0,0,1-.4,1.43,8.54,8.54,0,0,1,.21-1.47c.08-.46.18-1,.26-1.7s.22-1.42.29-2.26a54,54,0,0,0,.29-5.93,52,52,0,0,0-2.1-14.32,53.93,53.93,0,0,0-2-5.59c-.3-.79-.65-1.48-.92-2.09s-.53-1.13-.75-1.55A8,8,0,0,1,219.39,143.32Z"/><path class="cls-6" d="M205.86,218.87c-.08,0-.74-1.06-2-2.65a25.78,25.78,0,0,0-5.91-5.36,6.05,6.05,0,0,0-4.08-1,8.1,8.1,0,0,0-3.23,1.37c-1.69,1.17-2.62,2.08-2.68,2a3.31,3.31,0,0,1,.6-.68,15.48,15.48,0,0,1,1.87-1.62,8,8,0,0,1,3.37-1.54,6.31,6.31,0,0,1,4.42,1,23,23,0,0,1,5.93,5.57,19.55,19.55,0,0,1,1.36,2.06A2.72,2.72,0,0,1,205.86,218.87Z"/><path class="cls-6" d="M202.59,208.36a15.08,15.08,0,0,1,2.33,4.85,14.78,14.78,0,0,1,1,5.3c-.15,0-.54-2.34-1.46-5.14S202.45,208.43,202.59,208.36Z"/><path class="cls-6" d="M215.31,235.22a8.82,8.82,0,0,1,.75,1.28l1.9,3.59c1.59,3,3.76,7.3,6.17,12.07l.08.16-.12.14-1,1c-3.93,4.09-7.5,7.77-10.11,10.42L209.87,267a8.27,8.27,0,0,1-1.19,1.09,10.13,10.13,0,0,1,1-1.23l3-3.23c2.54-2.72,6.08-6.44,10-10.54.35-.35.69-.7,1-1l0,.29c-2.4-4.77-4.52-9-6-12.14l-1.75-3.66A7.7,7.7,0,0,1,215.31,235.22Z"/><path class="cls-6" d="M234.78,215.09a8,8,0,0,1,0-.86c0-.61,0-1.43,0-2.47.05-2.2.12-5.29.21-9.09s.19-8.4.4-13.48a73.31,73.31,0,0,1,2.24-16.37,38.09,38.09,0,0,1,3.16-7.91l.19.38a5.39,5.39,0,0,1-3.2-1.82,7.76,7.76,0,0,1-1.67-3.1,24.32,24.32,0,0,1-.52-6.48c0-4.08,0-7.71,0-10.76s0-5.41,0-7.12c0-.8,0-1.44,0-1.92a3,3,0,0,1,0-.66,4.73,4.73,0,0,1,.05.66c0,.48,0,1.12.05,1.92,0,1.71.06,4.13.11,7.12s.07,6.68.11,10.76a24.15,24.15,0,0,0,.54,6.34,7.38,7.38,0,0,0,1.57,2.91,5,5,0,0,0,2.9,1.64l.36.05-.17.33a37.35,37.35,0,0,0-3.11,7.8,74.43,74.43,0,0,0-2.26,16.26c-.24,5.06-.36,9.63-.52,13.46s-.28,6.89-.37,9.09c-.05,1-.09,1.85-.13,2.46A4.4,4.4,0,0,1,234.78,215.09Z"/><path class="cls-6" d="M277.64,136.47a2.21,2.21,0,0,1,.23.55c.15.41.35.95.58,1.61.51,1.46,1.21,3.5,2.07,6s1.89,5.62,3,9c.55,1.73,1.23,3.48,1.74,5.44a7.06,7.06,0,0,1,.13,3.11,4.15,4.15,0,0,1-1.79,2.72l.08-.36c.85,1.25,1.74,2.57,2.57,4a23.83,23.83,0,0,1,2.8,6.48,22.65,22.65,0,0,1,.45,6.55c-.24,4.16-.52,7.89-.73,11s-.42,5.61-.55,7.43q-.11,1.25-.18,2a3.13,3.13,0,0,1-.09.7,3.4,3.4,0,0,1,0-.7c0-.52,0-1.19.08-2,.09-1.81.22-4.34.38-7.43s.39-6.89.62-11a22.64,22.64,0,0,0-.47-6.41,23.45,23.45,0,0,0-2.75-6.33c-.82-1.38-1.7-2.7-2.54-3.95l-.15-.23.23-.14a3.63,3.63,0,0,0,1.55-2.39,6.72,6.72,0,0,0-.11-2.89c-.49-1.88-1.17-3.69-1.7-5.41-1.1-3.42-2.1-6.48-2.93-9.06s-1.45-4.57-1.91-6.05l-.5-1.64A4.52,4.52,0,0,1,277.64,136.47Z"/><path class="cls-10" d="M238.72,260.71a3.49,3.49,0,0,1-.46.82c-.32.5-.8,1.23-1.41,2.11-1.23,1.76-3,4.15-5,6.72s-3.94,4.84-5.36,6.45c-.72.8-1.3,1.44-1.72,1.87a3.57,3.57,0,0,1-.69.64,26.35,26.35,0,0,1,2.13-2.75c1.35-1.66,3.21-4,5.23-6.53s3.81-4.92,5.11-6.62A26.48,26.48,0,0,1,238.72,260.71Z"/><path class="cls-10" d="M254.39,247.8s0,.19,0,.57-.1.93-.18,1.64c-.17,1.47-.41,3.6-.72,6.33-.65,5.49-1.62,13.43-2.9,23.24-2.53,19.61-6.37,46.65-10.5,76.54-2.06,14.94-4,29.19-5.56,42.16-.42,3.25-.75,6.41-1.2,9.48l-1.37,8.91-2.42,16c-1.47,9.77-2.63,17.69-3.39,23.16-.38,2.74-.66,4.87-.83,6.31-.08.73-.14,1.28-.16,1.65a2.06,2.06,0,0,0,0,.42c0,.11.07,0,.06,0a.16.16,0,0,1,0,0s-.08,0-.08-.05a2.37,2.37,0,0,1,0-.42c0-.38.05-.93.11-1.66.14-1.45.39-3.58.74-6.32.69-5.49,1.8-13.41,3.22-23.2.72-4.89,1.51-10.25,2.36-16q.64-4.31,1.34-8.9c.45-3.06.78-6.24,1.19-9.48,1.58-13,3.46-27.23,5.51-42.18,4.13-29.88,8-56.92,10.65-76.51,1.3-9.79,2.34-17.71,3.07-23.22.35-2.72.63-4.85.82-6.31.09-.71.17-1.25.22-1.64S254.39,247.8,254.39,247.8Z"/><path class="cls-10" d="M277.2,460.3s0-.19.07-.55.15-.91.26-1.59c.25-1.42.6-3.48,1.05-6.11.93-5.33,2.28-13,3.94-22.48l13.19-74.1a17.67,17.67,0,0,0,.32-5.37c-.23-1.77-.53-3.57-.79-5.33q-.83-5.31-1.61-10.45c-1.08-6.84-2.15-13.44-3.2-19.72-2.08-12.57-4.1-23.85-5.9-33.31s-3.39-17.09-4.59-22.34c-.57-2.63-1.09-4.66-1.41-6-.15-.68-.27-1.2-.36-1.57s-.11-.54-.11-.54a4.4,4.4,0,0,1,.16.52l.42,1.56c.35,1.38.9,3.4,1.5,6,1.26,5.24,2.9,12.86,4.75,22.32s3.9,20.74,6,33.3c1.06,6.28,2.13,12.88,3.22,19.72q.8,5.14,1.62,10.45c.27,1.77.56,3.54.79,5.36a17.67,17.67,0,0,1-.32,5.52c-5.21,28.92-9.92,55.1-13.34,74.07-1.73,9.46-3.13,17.12-4.1,22.44-.49,2.63-.88,4.68-1.14,6.1-.14.68-.24,1.2-.31,1.58S277.2,460.3,277.2,460.3Z"/><path class="cls-10" d="M266,279.32c.14,0-1.62,11.92-3.95,26.58s-4.32,26.52-4.46,26.5,1.63-11.92,3.95-26.58S265.81,279.29,266,279.32Z"/><path class="cls-10" d="M236.38,464.51a3.3,3.3,0,0,1-1,.17c-.63.08-1.55.17-2.69.26-2.27.17-5.42.34-8.9.4s-6.64,0-8.92-.11c-1.14-.05-2.06-.11-2.69-.16a3.71,3.71,0,0,1-1-.14,31.54,31.54,0,0,1,3.69-.07c2.28,0,5.42,0,8.9,0s6.61-.17,8.89-.25A31.65,31.65,0,0,1,236.38,464.51Z"/><path class="cls-10" d="M284.76,461.28a5.8,5.8,0,0,1-1.27-.06l-3.44-.37c-2.9-.33-6.9-.82-11.32-1.39s-8.42-1.13-11.31-1.55l-3.42-.52a6.88,6.88,0,0,1-1.25-.25,5.34,5.34,0,0,1,1.27.05c.82.07,2,.2,3.45.36,2.9.33,6.9.82,11.32,1.39s8.42,1.13,11.31,1.55l3.42.53A7,7,0,0,1,284.76,461.28Z"/><path class="cls-6" d="M242.54,134.37a5.46,5.46,0,0,1,1.11.71l2.94,2c2.5,1.7,6,4,10,6.28,1.5.85,3,1.65,4.31,2.37l-.35.16c.84-3.31,1.58-6.16,2.12-8.18l.66-2.35a3.62,3.62,0,0,1,.29-.84,3.53,3.53,0,0,1-.13.88c-.14.65-.31,1.44-.52,2.39-.46,2-1.13,4.9-1.94,8.22l-.07.31-.29-.15c-1.36-.7-2.84-1.5-4.34-2.36a107.61,107.61,0,0,1-9.94-6.43c-1.22-.89-2.19-1.65-2.85-2.18A7.61,7.61,0,0,1,242.54,134.37Z"/><path class="cls-6" d="M275.59,141.73a36.92,36.92,0,0,1-4.42,3l-.22.14-.12-.23L269.48,142c-1-2-2-3.9-2.59-5.26a12.06,12.06,0,0,1-.93-2.25,11.31,11.31,0,0,1,1.26,2.08c.72,1.32,1.69,3.15,2.72,5.19.46.93.91,1.81,1.32,2.64l-.34-.09A33.89,33.89,0,0,1,275.59,141.73Z"/><path class="cls-6" d="M269,140.75a5.58,5.58,0,0,1-.88.69c-.55.41-1.33.95-2.2,1.55s-1.66,1.12-2.24,1.49a5.28,5.28,0,0,1-1,.57,6.41,6.41,0,0,1,.88-.69c.56-.4,1.33-1,2.2-1.54s1.66-1.13,2.24-1.5A6.66,6.66,0,0,1,269,140.75Z"/><path class="cls-6" d="M266,142.82a17.47,17.47,0,0,1-2-1.84,16.39,16.39,0,0,1-1.79-2,19.4,19.4,0,0,1,1.94,1.84A18.26,18.26,0,0,1,266,142.82Z"/><path class="cls-6" d="M247.2,231.53a19.28,19.28,0,0,0,6.73,13.08,6.15,6.15,0,0,1-1.83-1.31,15.52,15.52,0,0,1-4.9-9.52A6.37,6.37,0,0,1,247.2,231.53Z"/><path class="cls-6" d="M253,244.7a13.91,13.91,0,0,1-8.78-4.12c.1-.13,1.81,1.25,4.24,2.37S253.05,244.55,253,244.7Z"/><path class="cls-6" d="M272.56,212.7a4.1,4.1,0,0,1,.37,1.07c.21.7.48,1.72.78,3,.62,2.53,1.34,6.06,1.93,10s.91,7.52,1.05,10.12c.08,1.3.12,2.36.12,3.08a4.45,4.45,0,0,1,0,1.14,5.32,5.32,0,0,1-.16-1.12c-.08-.84-.17-1.86-.28-3.07-.24-2.59-.63-6.16-1.21-10.08s-1.25-7.44-1.77-10c-.24-1.18-.45-2.19-.62-3A5.36,5.36,0,0,1,272.56,212.7Z"/><path class="cls-1" d="M265.9,149.76c-1.3,10.39-2.26,33-2.62,43.49-.3,8.76-.27,17.53-.24,26.3,0,2.82,0,5.74,1.2,8.32,2.09,4.63,7.21,6.95,11.9,8.88Z"/><path class="cls-7" d="M277.58,235.25,283,222.08,269.5,148.35l-3.92.39s.55,76.64.37,77.33Z"/><path class="cls-6" d="M269.35,148.35a6.28,6.28,0,0,1-1.86.3,6.36,6.36,0,0,1-1.89,0,13.39,13.39,0,0,1,1.88-.17A11.43,11.43,0,0,1,269.35,148.35Z"/></g></svg>