<svg xmlns="http://www.w3.org/2000/svg" viewBox="0 0 680.17 491.86"><defs><style>.cls-1{fill:#f4e8b4;}.cls-2{fill:#e0e0e0;}.cls-3{fill:#fafafa;}.cls-4{fill:#ebebeb;}.cls-5{fill:#fff;}.cls-6{fill:#263238;}.cls-7{fill:#8ea382;}.cls-8{fill:#ffbf9d;}.cls-9{fill:#ff9a6c;}.cls-10{opacity:0.6;}.cls-11{opacity:0.3;}.cls-12{fill:#ae7461;}.cls-13{fill:#6f4439;}.cls-14{fill:#f5f5f5;}</style></defs><title>peertopeer</title><g id="Desk"><path class="cls-1" d="M82.67,90.28c39.06-24.84,104.57-20.1,158-18.66,53.87,1.51,96,.16,149.44-1.14,53.83-1.23,118.85-2,164,24,45.52,26.47,70.63,80.46,90.57,140.35,19.51,59.83,33.37,125.88-4,156.82-37.81,31.27-127.31,27.76-189.48,32.88-61.76,5.17-96.25,19.34-136.7,26.8-40.5,7.84-87,9.34-135-3C131.63,435.54,81.82,408.85,55,369.45c-26.73-39.78-31.27-92.37-27.43-146.11C31.81,170.05,44,115.56,82.67,90.28Z"/><path class="cls-2" d="M469,374.75A35,35,0,0,0,454,369.6c-2.45-.25-5.12-.18-7.08,1.3a1.49,1.49,0,0,0-.73,1.3,1.58,1.58,0,0,0,.7.88c6.08,4.64,15.29,5.23,22.06,1.67"/><path class="cls-2" d="M468.57,374.33a73.1,73.1,0,0,1-9.66-8.5,24.46,24.46,0,0,1-6.06-11.2,4.51,4.51,0,0,1,.48-3.75c7.7,6,13.75,13.79,15.24,23.45"/><path class="cls-2" d="M468.87,374.69a34.86,34.86,0,0,1,.18-12.68,17.13,17.13,0,0,1,6.76-10.46c1.33,3.11.76,6.69-.18,9.94a48.36,48.36,0,0,1-6.7,14.1"/><path class="cls-2" d="M476.42,388.22c-4.58.55-8.57,3-12,6.07a22.65,22.65,0,0,0-6.86,11.77c4.49-.27,8.3-3.44,11.07-7s4.68-7.45,7.72-10.77"/><path class="cls-2" d="M478.06,390.38a29.58,29.58,0,0,1,3.42-28c2.61,9.29,1.65,19.77-3.42,28"/><path class="cls-2" d="M488,402.26A21.4,21.4,0,0,0,467.58,414c-.25.51-.48,1.15-.14,1.6a1.52,1.52,0,0,0,1.36.4c4-.26,7.6-2.68,10.55-5.45s5.52-5.95,8.77-8.34"/><path class="cls-2" d="M487.72,401.61a38,38,0,0,1-.38-21.28c.74-2.74,2-5.62,4.54-6.91a.7.7,0,0,1,1.13.39,12.87,12.87,0,0,1,1.07,6.11,37.27,37.27,0,0,1-1,6.18c-.79,3.77-1.22,7.83-3.29,11.09a23.84,23.84,0,0,0-1.32,2.44c-.39.82-.39,1.11-.75,1.77"/><path class="cls-2" d="M514.11,405.54c-2-7.44.12-16.46,4.81-22.56.35-.44.81-.93,1.37-.87.86.08,1.09,1.23,1.05,2.09a40.73,40.73,0,0,1-7.23,21.34"/><path class="cls-2" d="M516.49,407.17a32.8,32.8,0,0,0,26.93-5.48,21.82,21.82,0,0,0-14.58-1.79c-4.86,1.12-9.31,3.3-12.35,7.27"/><path class="cls-2" d="M518.5,402.22c5.06-8.26,14.77-13.64,24.44-14.13-1.11,3.93-4.35,7-8,8.83s-7.72,2.65-11.73,3.43c-1.57.31-3.71.64-4.72,1.87"/><path class="cls-2" d="M514.62,378.18a70.76,70.76,0,0,0,3.12-14.31c.38-4.88-.32-10-2.85-14.16-4.73,9.15-5.2,19.84-.41,29"/><path class="cls-2" d="M530.54,370.13c5.53-10.05,16.81-18.08,28.23-19.2-4.41,11-16.42,19.44-28.23,19.2"/><path class="cls-2" d="M527.06,372.1c8.25,1.26,15.27,6.52,23,9.72a10.35,10.35,0,0,0,5.19,1,4.07,4.07,0,0,0,2.55-7.19,11.2,11.2,0,0,0-3.77-2.29c-8.4-3.5-17.4-3.58-26.24-1.46"/><path class="cls-2" d="M522.29,377.89c1.86.53,2.5,1.5,4,2.76a43,43,0,0,0,17.43,9c.66.16,1.53.23,1.86-.37s-.07-1.16-.45-1.63a23.94,23.94,0,0,0-10.52-7.14c-4-1.5-7.5-3.31-12.3-2.92"/><path class="cls-2" d="M516.9,343a33,33,0,0,0,25.28,8.6,1.75,1.75,0,0,0,1.16-.41c.63-.69-.13-1.76-.87-2.34C535,343,526,340.6,516.9,343"/><path class="cls-2" d="M523.29,340.61a35.24,35.24,0,0,1,31.55-5.2,25.12,25.12,0,0,1-15,6.6,47.42,47.42,0,0,1-16.51-1.4"/><path class="cls-2" d="M520.75,324.56c-.73-7.42-.26-13.28-.77-20.73,0-.6-.17-1.31-.73-1.53-.78-.3-1.42.66-1.68,1.45a23.76,23.76,0,0,0,3.17,20.65"/><path class="cls-2" d="M520.21,325.38a43.69,43.69,0,0,0,12.3-11.94c2.42-3.33,4.47-7.31,3.92-11.38a11.77,11.77,0,0,0-8.87,4.4,24.81,24.81,0,0,0-4.52,9.09c-1,3.27-1.67,6.62-2.83,9.83"/><path class="cls-2" d="M532.29,322a99.39,99.39,0,0,0,30.25-17.84c-3.62-1.45-7.75-.58-11.36.87-8.26,3.34-15,9-19,16.89"/><path class="cls-2" d="M523.61,329.44c5.58.61,11.26,1,16.8.08s10.59-3.07,15.67-5.21a1.82,1.82,0,0,0,1.07-.81,1.22,1.22,0,0,0-.38-1.34,3.38,3.38,0,0,0-1.34-.63c-5.53-1.54-11.5-.82-16.94,1a77.85,77.85,0,0,0-14.88,6.89"/><path class="cls-2" d="M491.73,343.2c-3.81-7.69-3.57-16.66-.27-24.58,2.31,3.53,2.6,8,2.17,12.22s-1.7,8.53-1.78,12.75"/><path class="cls-2" d="M476.51,335.53A34.33,34.33,0,0,0,451,346.38c4.75.75,9.64-.47,14-2.58a71.14,71.14,0,0,0,12-8"/><path class="cls-2" d="M466.28,332.11c-4.66-.38-9.13-1-13.61.41a16.38,16.38,0,0,0-10.37,8.8,24.57,24.57,0,0,0,12.76-2.41,73.85,73.85,0,0,0,11.22-6.8"/><path class="cls-2" d="M481.43,332.26c-4.19-2.74-8.49-5.53-13.36-6.67s-10.52-.29-13.92,3.38c3.94,2.31,8.73,2.59,13.3,2.58s10.19-.05,14.5,1.47"/><path class="cls-2" d="M481.45,332.48c-7.16-7-9.87-19.65-7-29.25a44.55,44.55,0,0,1,7,29.25"/><path class="cls-2" d="M501.13,312.57c1.35-3.13,2.3-6.43,3.51-9.62a27.56,27.56,0,0,1,5-8.87,13.17,13.17,0,0,1,8.86-4.6,35.65,35.65,0,0,1-17.2,23.14"/><path class="cls-2" d="M497.57,316.72c-2.24-3.07-4.82-7.24-7.85-9.54s-7-3.68-10.66-2.8a24.83,24.83,0,0,0,18.51,12.34"/><path class="cls-2" d="M498.28,312.83a53.22,53.22,0,0,1-3.53-11.43,17.87,17.87,0,0,1,1.79-11.63c3.93,7.43,5.19,15.4,1.94,23.14"/><path class="cls-2" d="M501.16,289.77c2.23-7.36,9-12.78,16.25-15.26a5.93,5.93,0,0,1,2.84-.43,2.47,2.47,0,0,1,2.1,1.75c.27,1.25-.77,2.37-1.74,3.21a55.33,55.33,0,0,1-19.45,10.73"/><path class="cls-2" d="M501.24,283.75c.29-4.74.58-9.56,2.13-14.05s4.52-8.72,8.84-10.69c.74,4.8-1.37,9.56-3.93,13.69s-5.62,8-7.15,12.62"/><path class="cls-2" d="M501.13,287c-1.84-5.36-2-12.18-5.24-16.85-2.25-3.27-5.84-5.49-7.78-8.95a13.66,13.66,0,0,0,.45,10.16,29.5,29.5,0,0,0,5.95,8.51c2.37,2.54,4.41,4.44,6.62,7.13"/><path class="cls-2" d="M501.16,445c-.14,0-.26-35.78-.27-79.92s.1-79.93.24-79.93.26,35.78.27,79.93S501.31,445,501.16,445Z"/><path class="cls-2" d="M532.44,337.8a6.66,6.66,0,0,1-1.35.51l-3.7,1.25c-3.12,1.06-7.41,2.6-12.07,4.51s-9,3.58-11.43,5.73a8.34,8.34,0,0,0-2.3,3c-.35.84-.41,1.35-.46,1.34s0-.13,0-.37a6,6,0,0,1,.27-1.05,8.12,8.12,0,0,1,2.24-3.24,20.1,20.1,0,0,1,5-3.08c2-.92,4.18-1.89,6.52-2.85,4.67-1.91,9-3.4,12.15-4.38,1.57-.49,2.86-.85,3.75-1.09A8.09,8.09,0,0,1,532.44,337.8Z"/><path class="cls-2" d="M542.69,312.62s-.12.16-.38.41l-1.15,1.08L536.88,318l-14.27,12.71c-5.57,5-10.39,9.69-13.72,13.26-1.67,1.78-3,3.25-3.89,4.28l-1,1.19a2.19,2.19,0,0,1-.39.39,2.29,2.29,0,0,1,.31-.46c.21-.28.53-.71,1-1.24.85-1.08,2.13-2.59,3.77-4.41a180.14,180.14,0,0,1,13.64-13.4c5.59-4.95,10.68-9.39,14.37-12.59L541,314l1.21-1A2.36,2.36,0,0,1,542.69,312.62Z"/><path class="cls-2" d="M516.59,335.75c-.14-.07,1-2.75,2.18-6.15s1.72-6.27,1.87-6.24a20.62,20.62,0,0,1-1.38,6.4,42.11,42.11,0,0,1-1.73,4.3A6.39,6.39,0,0,1,516.59,335.75Z"/><path class="cls-2" d="M501.2,357.41a6.27,6.27,0,0,1-.86-1l-2.2-2.82c-1.85-2.39-4.4-5.68-7.26-9.29s-5.5-6.84-7.4-9.18l-2.25-2.78a6.4,6.4,0,0,1-.77-1.06,6.6,6.6,0,0,1,.92.93c.58.62,1.39,1.53,2.38,2.67,2,2.29,4.66,5.49,7.52,9.1s5.38,6.95,7.15,9.39c.89,1.22,1.6,2.22,2.07,2.92A6.22,6.22,0,0,1,501.2,357.41Z"/><path class="cls-2" d="M494.34,348.6a12.61,12.61,0,0,1-2.87-5.37,15.25,15.25,0,0,1-.65-5.43l.22,0c-.1.42-.17.64-.21.63s-.05-.24,0-.66h.23a24.84,24.84,0,0,0,.91,5.28A39.7,39.7,0,0,0,494.34,348.6Z"/><path class="cls-2" d="M485.49,337.47a9.55,9.55,0,0,0-2-1.17,13.55,13.55,0,0,0-5.57-.44,33.69,33.69,0,0,0-5.6.91,17.58,17.58,0,0,1-2.31.55,8,8,0,0,1,2.21-.91,25.94,25.94,0,0,1,5.66-1.07,12.22,12.22,0,0,1,5.75.62A3.67,3.67,0,0,1,485.49,337.47Z"/><path class="cls-2" d="M483.39,334.77c0,.08-1.17-.47-3.07-1.12a32.06,32.06,0,0,0-7.67-1.58,31.52,31.52,0,0,0-7.82.4c-2,.35-3.18.73-3.21.64a3,3,0,0,1,.82-.35,19.94,19.94,0,0,1,2.32-.65,27.38,27.38,0,0,1,15.68,1.2,20.36,20.36,0,0,1,2.2,1A3,3,0,0,1,483.39,334.77Z"/><path class="cls-2" d="M501.13,323.36a63.79,63.79,0,0,1-2.24-7.79,62.77,62.77,0,0,1-1.74-7.91,63.79,63.79,0,0,1,2.24,7.79A62.77,62.77,0,0,1,501.13,323.36Z"/><path class="cls-2" d="M501.27,323.36a37.14,37.14,0,0,0-2.48-4.66,20.84,20.84,0,0,0-3.66-3.78,3.44,3.44,0,0,1,1.41.73,11.33,11.33,0,0,1,2.67,2.75A10.26,10.26,0,0,1,501.27,323.36Z"/><path class="cls-2" d="M501.16,425.93c-.05,0-.16-.86-.56-2.38a34.11,34.11,0,0,0-2.39-6.2c-2.47-5.05-7-11.46-12.69-17.88-2.83-3.23-5.58-6.29-7.91-9.21A64.22,64.22,0,0,1,472,382.1a38.5,38.5,0,0,1-2.86-6.06c-.26-.74-.45-1.33-.56-1.73a4.2,4.2,0,0,1-.15-.62c.05,0,.31.82.9,2.28a45.13,45.13,0,0,0,3,5.95,68.6,68.6,0,0,0,5.72,8c2.34,2.9,5.09,5.93,7.93,9.17,5.73,6.44,10.22,12.93,12.63,18.06a31.4,31.4,0,0,1,2.26,6.31c.16.77.27,1.38.31,1.79A2.79,2.79,0,0,1,501.16,425.93Z"/><path class="cls-2" d="M529.42,394a14.16,14.16,0,0,1-1.48.83,31.6,31.6,0,0,0-3.84,2.54,43.62,43.62,0,0,0-5,4.6c-1.77,1.87-3.6,4-5.46,6.37-3.72,4.67-7.2,8.8-9.29,12.1-1.06,1.64-1.83,3-2.33,4a13.37,13.37,0,0,1-.82,1.49,2,2,0,0,1,.14-.42c.11-.27.26-.67.5-1.16a38.23,38.23,0,0,1,2.2-4.09c2-3.38,5.48-7.57,9.2-12.23,1.86-2.34,3.71-4.51,5.51-6.38a41,41,0,0,1,5.17-4.57,27.25,27.25,0,0,1,4-2.42c.49-.25.89-.4,1.16-.51S529.42,394,529.42,394Z"/><path class="cls-2" d="M530,404.36a21.58,21.58,0,0,1-3.13.46,41.39,41.39,0,0,0-7.43,1.46,22.25,22.25,0,0,0-6.65,3.49c-1.53,1.18-2.25,2.16-2.32,2.1a2.32,2.32,0,0,1,.46-.72,12.79,12.79,0,0,1,1.63-1.67,20.25,20.25,0,0,1,6.72-3.69,33.22,33.22,0,0,1,7.55-1.34A17.11,17.11,0,0,1,530,404.36Z"/><path class="cls-2" d="M511.36,410.74c-.16-.1,1.25-2.25,2.34-5.15s1.27-5.49,1.46-5.46a5.23,5.23,0,0,1-.06,1.68,18.09,18.09,0,0,1-.91,4,19,19,0,0,1-1.82,3.63A5,5,0,0,1,511.36,410.74Z"/><path class="cls-2" d="M538.58,366.21a4.25,4.25,0,0,1-.5.26l-1.48.67c-.64.28-1.42.63-2.3,1.09s-1.92.93-3,1.57l-1.71,1c-.59.34-1.18.74-1.8,1.13-1.26.76-2.52,1.7-3.87,2.67A66.12,66.12,0,0,0,509,390c-.91,1.38-1.81,2.67-2.53,4-.37.64-.75,1.24-1.08,1.84l-.91,1.74c-.61,1.09-1,2.14-1.47,3s-.75,1.69-1,2.35l-.62,1.49a3,3,0,0,1-.24.51,1.84,1.84,0,0,1,.15-.55c.14-.4.31-.91.52-1.53s.53-1.47.94-2.38.82-2,1.41-3.1l.88-1.76c.32-.61.69-1.22,1.06-1.87.71-1.3,1.6-2.61,2.51-4a70.14,70.14,0,0,1,6.84-8.4,69.08,69.08,0,0,1,8.16-7.12c1.36-.95,2.64-1.89,3.92-2.64.63-.39,1.22-.79,1.83-1.12l1.73-.95c1.09-.62,2.14-1.07,3-1.51a24.39,24.39,0,0,1,2.36-1l1.51-.58A1.89,1.89,0,0,1,538.58,366.21Z"/><path class="cls-2" d="M516.21,381.19a3.54,3.54,0,0,1,1.23-1.83,7.77,7.77,0,0,1,5-1.9,13.5,13.5,0,0,1,5.21,1,7.11,7.11,0,0,1,2,1,13.19,13.19,0,0,1-2.09-.62,15.61,15.61,0,0,0-5.08-.84,8,8,0,0,0-4.73,1.66A13.39,13.39,0,0,0,516.21,381.19Z"/><path class="cls-2" d="M512.87,384.64a18.39,18.39,0,0,0,1.4-4.58,19.08,19.08,0,0,0-.31-4.78,3,3,0,0,1,.58,1.34,9.41,9.41,0,0,1,.25,3.5,9.31,9.31,0,0,1-1,3.36C513.3,384.27,512.92,384.68,512.87,384.64Z"/><path class="cls-2" d="M476.45,431.05c.77,13.68,4.89,27.59,11.23,41.65h27.56c6-13.92,9.89-27.81,10.57-41.65Z"/><path class="cls-3" d="M521.34,453.18c0,.15-9.07.26-20.27.26s-20.27-.11-20.27-.26,9.07-.25,20.27-.25S521.34,453,521.34,453.18Z"/><path class="cls-3" d="M520.73,458.14c0,.14-8.51.26-19,.26s-19-.12-19-.26,8.51-.26,19-.26S520.73,458,520.73,458.14Z"/><path class="cls-3" d="M488.12,440a77.67,77.67,0,0,1,0,12.7,77.67,77.67,0,0,1,0-12.7Z"/><path class="cls-3" d="M502.89,440a83.27,83.27,0,0,1,0,13.15,83.27,83.27,0,0,1,0-13.15Z"/><path class="cls-3" d="M516.76,439.92a86.71,86.71,0,0,1,0,13.42,86.71,86.71,0,0,1,0-13.42Z"/><path class="cls-3" d="M524.93,440c0,.15-10.64.26-23.77.26s-23.78-.11-23.78-.26,10.65-.26,23.78-.26S524.93,439.89,524.93,440Z"/><path class="cls-2" d="M148.32,379.65a33.09,33.09,0,0,0-14.21-4.89c-2.32-.24-4.86-.17-6.72,1.23a1.39,1.39,0,0,0-.69,1.23,1.47,1.47,0,0,0,.66.84c5.78,4.41,14.52,5,21,1.59"/><path class="cls-2" d="M148,379.25a69.14,69.14,0,0,1-9.17-8.08A23.24,23.24,0,0,1,133,360.53a4.31,4.31,0,0,1,.46-3.56c7.31,5.71,13.06,13.1,14.47,22.28"/><path class="cls-2" d="M148.24,379.59a33.19,33.19,0,0,1,.17-12,16.32,16.32,0,0,1,6.42-9.94c1.26,3,.72,6.36-.17,9.45a46.09,46.09,0,0,1-6.36,13.4"/><path class="cls-2" d="M155.41,392.44c-4.35.53-8.14,2.82-11.39,5.77a21.57,21.57,0,0,0-6.52,11.19c4.27-.27,7.89-3.28,10.52-6.65s4.45-7.09,7.33-10.24"/><path class="cls-2" d="M157,394.5a28.11,28.11,0,0,1,3.25-26.59c2.48,8.83,1.57,18.79-3.25,26.59"/><path class="cls-2" d="M166.45,405.78A20.32,20.32,0,0,0,147,417a1.5,1.5,0,0,0-.14,1.53,1.43,1.43,0,0,0,1.29.37c3.83-.24,7.23-2.55,10-5.17s5.24-5.65,8.33-7.92"/><path class="cls-2" d="M166.14,405.16a36.27,36.27,0,0,1-.36-20.21c.71-2.6,1.91-5.34,4.32-6.56a.82.82,0,0,1,.66-.12.89.89,0,0,1,.41.48,12.12,12.12,0,0,1,1,5.8,36.67,36.67,0,0,1-.91,5.88c-.76,3.58-1.16,7.44-3.13,10.53a22.51,22.51,0,0,0-1.25,2.32c-.37.79-.37,1.06-.72,1.69"/><path class="cls-2" d="M191.22,408.9c-1.86-7.07.12-15.64,4.57-21.43.33-.43.76-.88,1.3-.83.82.07,1,1.16,1,2a38.8,38.8,0,0,1-6.87,20.27"/><path class="cls-2" d="M193.48,410.45a31.17,31.17,0,0,0,25.58-5.21,20.77,20.77,0,0,0-13.84-1.7c-4.63,1.06-8.86,3.13-11.74,6.91"/><path class="cls-2" d="M195.39,405.74c4.81-7.84,14-13,23.22-13.42-1.06,3.73-4.13,6.64-7.6,8.39s-7.33,2.52-11.14,3.26c-1.48.29-3.52.6-4.48,1.77"/><path class="cls-2" d="M191.7,382.9a67.75,67.75,0,0,0,3-13.59A22.58,22.58,0,0,0,192,355.86c-4.49,8.69-5,18.85-.39,27.51"/><path class="cls-2" d="M206.82,375.26c5.26-9.55,16-17.17,26.82-18.24-4.18,10.41-15.59,18.46-26.82,18.24"/><path class="cls-2" d="M203.52,377.13c7.83,1.19,14.51,6.2,21.83,9.23a9.8,9.8,0,0,0,4.94.95,4.28,4.28,0,0,0,3.71-3,4.33,4.33,0,0,0-1.29-3.84,10.69,10.69,0,0,0-3.59-2.17c-8-3.32-16.53-3.41-24.93-1.39"/><path class="cls-2" d="M199,382.63c1.77.5,2.38,1.42,3.78,2.62a40.82,40.82,0,0,0,16.56,8.5c.63.16,1.46.22,1.77-.35s-.07-1.1-.43-1.55a22.75,22.75,0,0,0-10-6.78c-3.82-1.43-7.13-3.14-11.69-2.77"/><path class="cls-2" d="M193.87,349.44a31.34,31.34,0,0,0,24,8.17,1.67,1.67,0,0,0,1.09-.39c.61-.66-.12-1.68-.82-2.22-7.06-5.51-15.62-7.79-24.29-5.56"/><path class="cls-2" d="M199.94,347.22a33.47,33.47,0,0,1,30-5,23.81,23.81,0,0,1-14.28,6.27,45.13,45.13,0,0,1-15.69-1.32"/><path class="cls-2" d="M197.52,332c-.69-7.05-.24-12.62-.73-19.7,0-.56-.16-1.24-.69-1.45-.73-.28-1.35.62-1.59,1.38a22.58,22.58,0,0,0,3,19.61"/><path class="cls-2" d="M197,332.75a41.48,41.48,0,0,0,11.67-11.35c2.31-3.16,4.25-6.94,3.73-10.81a11.14,11.14,0,0,0-8.42,4.18,23.55,23.55,0,0,0-4.3,8.64c-.93,3.1-1.59,6.29-2.68,9.34"/><path class="cls-2" d="M208.49,329.56a94.3,94.3,0,0,0,28.73-16.94c-3.43-1.39-7.36-.56-10.79.83a34,34,0,0,0-18.09,16"/><path class="cls-2" d="M200.24,336.6c5.31.58,10.7,1,16,.08s10.06-2.91,14.89-4.95a1.78,1.78,0,0,0,1-.77,1.16,1.16,0,0,0-.37-1.27,3,3,0,0,0-1.27-.6c-5.25-1.47-10.92-.78-16.09,1a75.56,75.56,0,0,0-14.14,6.55"/><path class="cls-2" d="M170,349.68c-3.61-7.31-3.38-15.83-.25-23.36,2.2,3.35,2.47,7.62,2.06,11.61s-1.61,8.1-1.69,12.11"/><path class="cls-2" d="M155.5,342.39a32.52,32.52,0,0,0-24.21,10.31,22.54,22.54,0,0,0,13.25-2.46,66.8,66.8,0,0,0,11.36-7.6"/><path class="cls-2" d="M145.78,339.14c-4.42-.36-8.68-.91-12.93.39a15.51,15.51,0,0,0-9.85,8.36,23.49,23.49,0,0,0,12.12-2.29,70.7,70.7,0,0,0,10.66-6.46"/><path class="cls-2" d="M160.17,339.28c-4-2.6-8.06-5.25-12.69-6.33s-10-.29-13.23,3.2c3.75,2.2,8.3,2.46,12.64,2.46s9.68-.05,13.77,1.4"/><path class="cls-2" d="M160.19,339.49c-6.8-6.67-9.37-18.66-6.64-27.79a42.29,42.29,0,0,1,6.64,27.79"/><path class="cls-2" d="M178.89,320.58c1.28-3,2.18-6.11,3.33-9.14A26.28,26.28,0,0,1,187,303a12.58,12.58,0,0,1,8.42-4.37,33.92,33.92,0,0,1-16.34,22"/><path class="cls-2" d="M175.5,324.52c-2.12-2.92-4.57-6.88-7.45-9.06s-6.62-3.5-10.13-2.66a23.6,23.6,0,0,0,17.58,11.72"/><path class="cls-2" d="M176.18,320.82A50.17,50.17,0,0,1,172.83,310a16.9,16.9,0,0,1,1.7-11c3.73,7.05,4.93,14.63,1.84,22"/><path class="cls-2" d="M178.92,298.92c2.11-7,8.52-12.14,15.43-14.51a5.86,5.86,0,0,1,2.71-.4,2.34,2.34,0,0,1,2,1.66c.25,1.19-.73,2.26-1.66,3.05a52.5,52.5,0,0,1-18.47,10.2"/><path class="cls-2" d="M179,293.2c.26-4.51.55-9.08,2-13.36s4.3-8.27,8.41-10.14c.7,4.55-1.31,9.08-3.74,13s-5.34,7.62-6.79,12"/><path class="cls-2" d="M178.89,296.3c-1.75-5.09-1.93-11.57-5-16-2.14-3.1-5.55-5.21-7.39-8.5a12.91,12.91,0,0,0,.43,9.65,28.26,28.26,0,0,0,5.64,8.09c2.26,2.41,4.2,4.22,6.3,6.77"/><path class="cls-2" d="M178.92,446.39c-.14,0-.25-34-.26-75.93s.09-75.93.23-75.93.25,34,.26,75.93S179.06,446.39,178.92,446.39Z"/><path class="cls-2" d="M208.63,344.55a7.9,7.9,0,0,1-1.28.48l-3.52,1.19c-3,1-7,2.47-11.46,4.28s-8.51,3.4-10.86,5.44a8.06,8.06,0,0,0-2.18,2.89c-.34.8-.4,1.29-.44,1.28s0-.13,0-.36a5.65,5.65,0,0,1,.25-1,7.7,7.7,0,0,1,2.13-3.08,19.32,19.32,0,0,1,4.71-2.92c1.89-.88,4-1.8,6.19-2.71,4.44-1.82,8.55-3.24,11.55-4.17,1.49-.46,2.72-.81,3.57-1A6.93,6.93,0,0,1,208.63,344.55Z"/><path class="cls-2" d="M218.37,320.63a2.26,2.26,0,0,1-.36.38l-1.09,1-4.07,3.69L199.29,337.8c-5.29,4.71-9.86,9.22-13,12.6-1.59,1.7-2.84,3.1-3.69,4.08l-1,1.12c-.22.26-.35.39-.36.37s.08-.16.29-.43.5-.68.91-1.19c.81-1,2-2.45,3.58-4.18a171.39,171.39,0,0,1,13-12.73c5.31-4.7,10.15-8.92,13.66-12l4.17-3.58,1.15-.95A2.08,2.08,0,0,1,218.37,320.63Z"/><path class="cls-2" d="M193.58,342.59c-.14-.06,1-2.61,2.07-5.84s1.63-5.95,1.77-5.93a19.68,19.68,0,0,1-1.31,6.09,39.57,39.57,0,0,1-1.64,4.09A6.61,6.61,0,0,1,193.58,342.59Z"/><path class="cls-2" d="M179,363.17a5.76,5.76,0,0,1-.81-.94l-2.09-2.68c-1.76-2.27-4.18-5.4-6.9-8.83s-5.22-6.5-7-8.72L160,339.36a5.51,5.51,0,0,1-.73-1,7,7,0,0,1,.88.88c.54.59,1.31,1.46,2.25,2.54,1.88,2.17,4.43,5.22,7.15,8.65s5.11,6.59,6.79,8.92c.85,1.16,1.52,2.11,2,2.77A6.25,6.25,0,0,1,179,363.17Z"/><path class="cls-2" d="M172.44,354.81a12,12,0,0,1-2.73-5.11,14.71,14.71,0,0,1-.62-5.15l.22,0c-.1.39-.17.6-.21.59s0-.22,0-.63l.22,0a23.8,23.8,0,0,0,.87,5A37.43,37.43,0,0,0,172.44,354.81Z"/><path class="cls-2" d="M164,344.23a9.26,9.26,0,0,0-1.91-1.11,12.78,12.78,0,0,0-5.29-.42,33.54,33.54,0,0,0-5.33.86,16.66,16.66,0,0,1-2.19.53,7.47,7.47,0,0,1,2.1-.86,24.54,24.54,0,0,1,5.38-1,11.56,11.56,0,0,1,5.46.59A3.45,3.45,0,0,1,164,344.23Z"/><path class="cls-2" d="M162,341.67c0,.07-1.11-.45-2.92-1.07a29.32,29.32,0,0,0-14.71-1.12c-1.88.34-3,.69-3,.61a2.71,2.71,0,0,1,.77-.33,17.56,17.56,0,0,1,2.2-.62,26.19,26.19,0,0,1,7.54-.53,25.8,25.8,0,0,1,7.36,1.67,18.22,18.22,0,0,1,2.09.94C161.79,341.48,162.05,341.64,162,341.67Z"/><path class="cls-2" d="M178.89,330.82a56.93,56.93,0,0,1-2.13-7.39,60.19,60.19,0,0,1-1.66-7.52,58,58,0,0,1,2.13,7.4A60.69,60.69,0,0,1,178.89,330.82Z"/><path class="cls-2" d="M179,330.82a36.58,36.58,0,0,0-2.36-4.42,19.91,19.91,0,0,0-3.47-3.59,3.32,3.32,0,0,1,1.34.69,10.72,10.72,0,0,1,2.53,2.61A9.89,9.89,0,0,1,179,330.82Z"/><path class="cls-2" d="M178.92,428.26s-.15-.81-.54-2.26a32.2,32.2,0,0,0-2.27-5.88c-2.35-4.8-6.62-10.89-12.05-17-2.69-3.08-5.3-6-7.52-8.76a61.91,61.91,0,0,1-5.38-7.75,38.31,38.31,0,0,1-2.71-5.75c-.25-.71-.43-1.27-.53-1.65a2.3,2.3,0,0,1-.14-.59s.29.78.85,2.17a42.47,42.47,0,0,0,2.83,5.64,65.11,65.11,0,0,0,5.43,7.65c2.23,2.75,4.84,5.63,7.54,8.71,5.44,6.11,9.71,12.28,12,17.16a29.67,29.67,0,0,1,2.15,6,16.42,16.42,0,0,1,.3,1.7A2.48,2.48,0,0,1,178.92,428.26Z"/><path class="cls-2" d="M205.77,397.94a11.83,11.83,0,0,1-1.41.79,32.11,32.11,0,0,0-3.65,2.41,42.17,42.17,0,0,0-4.79,4.37c-1.68,1.78-3.42,3.85-5.19,6.06-3.53,4.43-6.84,8.36-8.82,11.49-1,1.56-1.74,2.87-2.22,3.79a10.26,10.26,0,0,1-.77,1.41s0-.14.13-.39.25-.64.47-1.11a35.56,35.56,0,0,1,2.1-3.88c1.92-3.21,5.2-7.19,8.73-11.62,1.77-2.22,3.53-4.28,5.24-6.06a38.38,38.38,0,0,1,4.91-4.33,25,25,0,0,1,3.77-2.31c.47-.23.85-.38,1.1-.48A1.38,1.38,0,0,1,205.77,397.94Z"/><path class="cls-2" d="M206.29,407.78a20.26,20.26,0,0,1-3,.43,39.18,39.18,0,0,0-7,1.39,21.35,21.35,0,0,0-6.32,3.31c-1.46,1.13-2.14,2.06-2.21,2a2.48,2.48,0,0,1,.44-.68,11.56,11.56,0,0,1,1.55-1.59,19.18,19.18,0,0,1,6.38-3.51,32.35,32.35,0,0,1,7.17-1.27A15.79,15.79,0,0,1,206.29,407.78Z"/><path class="cls-2" d="M188.61,413.83c-.16-.08,1.18-2.13,2.22-4.88s1.21-5.22,1.38-5.19a4.51,4.51,0,0,1-.05,1.59,16.42,16.42,0,0,1-.87,3.76,17.77,17.77,0,0,1-1.72,3.45A4.72,4.72,0,0,1,188.61,413.83Z"/><path class="cls-2" d="M214.46,371.53a2,2,0,0,1-.47.25l-1.4.64c-.61.26-1.36.59-2.19,1s-1.83.88-2.85,1.49l-1.62.92c-.56.32-1.12.71-1.71,1.08-1.2.73-2.39,1.62-3.67,2.53a62.78,62.78,0,0,0-14.15,14.64c-.87,1.31-1.72,2.54-2.4,3.76-.35.6-.72,1.17-1,1.74l-.87,1.66c-.58,1-1,2-1.39,2.89s-.72,1.6-1,2.22-.43,1.05-.58,1.42a2.05,2.05,0,0,1-.24.49,1.78,1.78,0,0,1,.14-.52c.14-.38.3-.87.51-1.45a22.23,22.23,0,0,1,.88-2.27c.39-.87.78-1.88,1.34-2.94l.84-1.68c.3-.58.66-1.16,1-1.77.68-1.24,1.52-2.48,2.39-3.81a60.6,60.6,0,0,1,14.25-14.74c1.29-.91,2.51-1.8,3.72-2.51.6-.37,1.17-.75,1.74-1.07l1.65-.9c1-.59,2-1,2.89-1.43s1.61-.73,2.23-1l1.44-.55A2.06,2.06,0,0,1,214.46,371.53Z"/><path class="cls-2" d="M193.21,385.77a3.46,3.46,0,0,1,1.17-1.74,7.36,7.36,0,0,1,4.71-1.81,12.87,12.87,0,0,1,4.95,1,7.11,7.11,0,0,1,1.88.91,11.17,11.17,0,0,1-2-.58,15,15,0,0,0-4.82-.81,7.64,7.64,0,0,0-4.5,1.58A13.39,13.39,0,0,0,193.21,385.77Z"/><path class="cls-2" d="M190,389a12.69,12.69,0,0,0,1-8.89,3,3,0,0,1,.55,1.27,9.08,9.08,0,0,1-.76,6.52C190.45,388.69,190.09,389.08,190,389Z"/><path class="cls-2" d="M155.44,433.14c.73,13,4.65,26.2,10.67,39.56H192.3c5.74-13.23,9.38-26.42,10-39.56Z"/><path class="cls-3" d="M198.09,454.16c0,.14-8.62.25-19.26.25s-19.26-.11-19.26-.25,8.62-.25,19.26-.25S198.09,454,198.09,454.16Z"/><path class="cls-3" d="M197.5,458.87c0,.13-8.08.24-18.05.24s-18-.11-18-.24,8.08-.25,18-.25S197.5,458.73,197.5,458.87Z"/><path class="cls-3" d="M166.53,441.67a72.85,72.85,0,0,1,0,12.06,75.87,75.87,0,0,1,0-12.06Z"/><path class="cls-3" d="M180.56,441.67a78.13,78.13,0,0,1,0,12.49,81.37,81.37,0,0,1,0-12.49Z"/><path class="cls-3" d="M193.73,441.56a81.28,81.28,0,0,1,0,12.74,84.66,84.66,0,0,1,0-12.74Z"/><path class="cls-3" d="M201.5,441.67c0,.13-10.11.24-22.58.24s-22.59-.11-22.59-.24,10.11-.25,22.59-.25S201.5,441.53,201.5,441.67Z"/><rect class="cls-2" x="30.8" y="36.54" width="108.71" height="179.95"/><rect class="cls-4" x="27.18" y="36.54" width="108.71" height="179.95"/><rect class="cls-5" x="31.81" y="40.19" width="99.45" height="172.65"/><rect class="cls-4" x="50.75" y="62.62" width="61.16" height="127.78"/><path class="cls-2" d="M50.75,145.19c-.15-11.94,10.59-23.59,22.41-25.26,5.63-.79,11.62.33,16.89-1.83,9.4-3.86,12.39-16.35,21.85-20l.43,92.35H50.75Z"/><rect class="cls-2" x="490.08" y="38.26" width="108.71" height="179.95"/><rect class="cls-4" x="486.47" y="38.26" width="108.71" height="179.95"/><rect class="cls-5" x="491.1" y="41.91" width="99.45" height="172.65"/><rect class="cls-4" x="510.03" y="64.35" width="61.16" height="127.78"/><path class="cls-2" d="M510,146.91c-.14-11.94,10.59-23.59,22.41-25.25,5.64-.8,11.63.32,16.89-1.84,9.4-3.85,12.39-16.34,21.85-20l.44,92.36H510Z"/><polygon class="cls-2" points="398.59 43.02 398.59 125 280.84 125 276.6 43.59 398.59 43.02"/><rect class="cls-4" x="294.86" y="25.34" width="81.23" height="117.74" transform="translate(251.27 419.68) rotate(-90)"/><rect class="cls-5" x="289.35" y="53.68" width="92.24" height="61.05"/><path class="cls-2" d="M381.59,53.68l-.45,0h-1.31l-5.07,0-19,.07-66.4.13.27-.27c0,18.66,0,39.32,0,61h0l-.29-.29,92.24.06-.23.23c.05-18.58.09-33.81.12-44.42,0-5.3,0-9.44.06-12.28,0-1.4,0-2.48,0-3.23s0-1.12,0-1.12,0,.36,0,1.07,0,1.8,0,3.19c0,2.83,0,7,.06,12.23,0,10.64.07,25.92.13,44.56V115h-.24l-92.24.06h-.29v-.29h0c0-21.72,0-42.38,0-61v-.26h.26l66.58.13,18.95.07,5,0,1.28,0Z"/><path class="cls-2" d="M276.6,43.36a10.12,10.12,0,0,1,2,1.31c1.2.87,2.84,2.11,4.61,3.52S286.57,51,287.67,52a9.2,9.2,0,0,1,1.68,1.72c-.11.13-2.94-2.21-6.47-5S276.5,43.5,276.6,43.36Z"/><path class="cls-2" d="M394.35,43.59a57.06,57.06,0,0,1-6.2,5.28,56.47,56.47,0,0,1-6.56,4.81,59.08,59.08,0,0,1,6.2-5.27A55.92,55.92,0,0,1,394.35,43.59Z"/><path class="cls-5" d="M394.25,124.84,381.12,114.2"/><path class="cls-2" d="M381.12,114.2c.11-.13,3.13,2.15,6.75,5.09a60.35,60.35,0,0,1,6.38,5.55,62.56,62.56,0,0,1-6.74-5.1A63.28,63.28,0,0,1,381.12,114.2Z"/><path class="cls-2" d="M276.6,124.82a57,57,0,0,1,6.13-5.21,57.38,57.38,0,0,1,6.49-4.77,55.18,55.18,0,0,1-6.13,5.22A54.12,54.12,0,0,1,276.6,124.82Z"/><rect class="cls-2" x="326.88" y="53.9" width="20.44" height="58.04" transform="translate(254.18 420.03) rotate(-90)"/><path class="cls-6" d="M652.9,473.38c0,.14-143,.26-319.45.26S14,473.52,14,473.38s143-.26,319.47-.26S652.9,473.24,652.9,473.38Z"/><path class="cls-3" d="M613.32,109.72l7.86,1.4a23.86,23.86,0,1,0-4.43-7.31h0Z"/><path class="cls-6" d="M613.32,109.72s.06-.13.21-.38l.64-1.14c.58-1,1.43-2.5,2.52-4.43a.07.07,0,0,1,.08,0s0,0,0,0h0l-.1.06a23.91,23.91,0,0,1-1.42-11.56,25.08,25.08,0,0,1,.75-3.64c.18-.62.43-1.23.64-1.86a14.48,14.48,0,0,1,.81-1.87,23.79,23.79,0,0,1,13.35-12.11A23.63,23.63,0,0,1,651.67,75,22.31,22.31,0,0,1,654,76.63a12.47,12.47,0,0,1,1.09,1c.35.34.74.64,1.06,1a22.91,22.91,0,0,1,1.91,2.25c.29.4.59.79.87,1.2l.77,1.28a24,24,0,0,1,1.19,21.51,23.93,23.93,0,0,1-22.63,14.36,26.11,26.11,0,0,1-3.93-.43,32.77,32.77,0,0,1-3.55-1,23.59,23.59,0,0,1-9.68-6.61l0,0-5.87-1.08-1.49-.28-.49-.1.52.08,1.51.26,5.84,1,0,0a23.7,23.7,0,0,0,9.64,6.51,30.86,30.86,0,0,0,3.53,1,25.74,25.74,0,0,0,3.9.41,23.74,23.74,0,0,0,22.37-14.25,23.79,23.79,0,0,0-1.19-21.26c-.26-.42-.51-.84-.76-1.26s-.58-.79-.86-1.19A25,25,0,0,0,656,78.8a14.12,14.12,0,0,0-1.05-1c-.36-.31-.69-.67-1.08-1a22.81,22.81,0,0,0-2.33-1.64,24.19,24.19,0,0,0-10.38-3.53A23.91,23.91,0,0,0,622.78,78a23.55,23.55,0,0,0-5.11,7,14.35,14.35,0,0,0-.8,1.85c-.22.62-.46,1.22-.64,1.84a23.21,23.21,0,0,0-.77,3.6,24.06,24.06,0,0,0,1.35,11.5.05.05,0,0,1,0,.07,0,0,0,0,1-.06,0h.09l-2.57,4.37-.67,1.14C613.4,109.58,613.32,109.72,613.32,109.72Z"/><path class="cls-6" d="M646.29,96a2.43,2.43,0,1,1,2.43,2.43A2.43,2.43,0,0,1,646.29,96Z"/><path class="cls-6" d="M636.61,96A2.42,2.42,0,1,1,639,98.4,2.42,2.42,0,0,1,636.61,96Z"/><path class="cls-6" d="M626.94,97.18a2.42,2.42,0,1,1,3.31.89A2.41,2.41,0,0,1,626.94,97.18Z"/><polygon class="cls-5" points="169.99 101.25 164.12 123.41 186.34 115.64 196.43 132.87 207.99 112.03 230.19 119.73 216.26 99.99 234.08 83.98 211.19 75.17 216.16 51.97 195.53 62.88 183.3 46.68 177.63 66.39 157.3 62.88 168.26 82.89 149.22 93.74 169.99 101.25"/><path class="cls-6" d="M170,101.25l-1.4-.48-4-1.43-15.38-5.48-.25-.1.23-.13,19-10.89-.07.23-11-20-.2-.36.42.07,20.33,3.49-.26.16c1.8-6.25,3.7-12.86,5.66-19.71l.13-.46.29.38c3.88,5.13,8,10.58,12.24,16.19l-.31-.07L216,51.75l.48-.26-.11.54c-1.59,7.42-3.26,15.24-5,23.2l-.16-.3,5.17,2,17.72,6.82.4.16-.32.28-17.82,16,0-.33,13.92,19.74.43.62-.71-.25-22.19-7.71.27-.11L196.6,133l-.17.31-.17-.3c-3.67-6.27-7-12-10.07-17.24l.21.08-22.24,7.71-.22.08.06-.23L168.42,107c.51-1.86.9-3.28,1.16-4.25s.41-1.45.41-1.45-.11.47-.35,1.42-.61,2.39-1.09,4.25l-4.31,16.52-.16-.15,22.2-7.81.14,0,.07.13,10.11,17.2h-.35l11.55-20.85.09-.16.18.06,22.2,7.68-.28.37-13.93-19.73-.13-.19.16-.15q8.7-7.8,17.82-16l.08.44L216.26,77.4l-5.17-2-.2-.08,0-.21c1.71-8,3.38-15.78,5-23.2l.38.28L195.65,63.1l-.19.1-.12-.17-12.23-16.2.42-.08c-2,6.84-3.88,13.45-5.69,19.7l-.05.2-.2,0-20.32-3.53.21-.3c4,7.3,7.67,14.06,10.93,20l.08.15-.15.08L149.29,93.85l0-.23,15.39,5.64,4,1.48C169.55,101.07,170,101.25,170,101.25Z"/><path class="cls-2" d="M194.29,87.37a7,7,0,1,0-5.09,0c-10.76,1.52-10.27,12.5-10.27,12.5l25.45.11S205,88.88,194.29,87.37Z"/><path class="cls-6" d="M194.29,87.37l1.25.2.66.12L197,88c.28.1.6.19.91.33l1,.51a10.45,10.45,0,0,1,3.94,4,14.58,14.58,0,0,1,1.76,7.2v.19h-.2l-25.44-.06h-.26v-.24a14.72,14.72,0,0,1,1.48-6.55A10.72,10.72,0,0,1,183.94,89a14,14,0,0,1,5.23-1.88l-.06.49a7.23,7.23,0,0,1-3.74-10.15,7.39,7.39,0,0,1,2.51-2.69,7.15,7.15,0,0,1,10.69,8.08,6.91,6.91,0,0,1-1.8,3A6.73,6.73,0,0,1,195,87.09c-.43.21-.68.25-.7.28L195,87a7.31,7.31,0,0,0,1.7-1.31,6.89,6.89,0,0,0,1.43-7.38,6.83,6.83,0,0,0-3.84-3.78,6.76,6.76,0,1,0-5,12.59l.87.33-.92.16a13.16,13.16,0,0,0-5,1.81,10.22,10.22,0,0,0-3.62,4.13,14.35,14.35,0,0,0-1.42,6.3l-.26-.25,25.45.17-.2.19a14.49,14.49,0,0,0-1.65-7,10.44,10.44,0,0,0-3.77-4l-.95-.52c-.31-.14-.61-.24-.89-.35l-.76-.29-.69-.16C194.88,87.51,194.55,87.43,194.29,87.37Z"/><path class="cls-7" d="M210.43,99a7.47,7.47,0,1,1-6.62-8.22A7.47,7.47,0,0,1,210.43,99Z"/><rect class="cls-5" x="202.58" y="94.62" width="1.64" height="7.33"/><rect class="cls-5" x="202.58" y="94.62" width="1.64" height="7.33" transform="translate(105.11 301.69) rotate(-90)"/><path class="cls-8" d="M499.45,131.35,504.09,145l1.62,2.29s1.41,7.59,1.5,9.21-2,10.12-2,10.12l4.72,7.55-13.06,5s-3.53-6.9-4.52-7.68-1.69-3-1.92-4.53-2.19-10.47-2.19-10.47-5.78-9.89-3.37-10.39a8.51,8.51,0,0,1,1.81,0s3.49,6.5,4.42,6.64l1.32-.77s-2.72-9.95-2.86-11.81.25-3.17,1.68-3.39c0,0,1.08.44,1.17.91s2.81,11.57,3.43,11.36.32-1.21.32-1.21-3.61-13.46-3.44-14.24a2.11,2.11,0,0,1,2.16-1.84l2.76,7.39s-1.29-6.22-.28-7.33A1.76,1.76,0,0,1,499.45,131.35Z"/><path class="cls-9" d="M496.68,161.57c.11,0,0-1.16.47-3a11.7,11.7,0,0,1,4.06-6.28l.18-.14-.05-.2c-.23-1-.47-2-.71-3.1l0-.06,0-.06c-.23-.32-.46-.7-.68-1.07a11.88,11.88,0,0,1-1.5-3.94,4.21,4.21,0,0,1,0-1.84,1.31,1.31,0,0,1,1-1l-.22-.08c1.56,1.49,2.87,2.72,3.8,3.56a8.61,8.61,0,0,0,1.52,1.26,9.53,9.53,0,0,0-1.28-1.5c-.86-.91-2.11-2.2-3.63-3.74l-.1-.09h-.12a1.9,1.9,0,0,0-1.56,1.4,4.79,4.79,0,0,0-.07,2.13A12,12,0,0,0,499.3,148a13,13,0,0,0,.72,1.14L500,149c.26,1.07.5,2.1.74,3.09l.13-.35a11.47,11.47,0,0,0-4.08,6.74,10.38,10.38,0,0,0-.18,2.28A2.45,2.45,0,0,0,496.68,161.57Z"/><path class="cls-9" d="M496.68,150.52c-.05-.17-2,.41-4.14,1.81s-3.42,3-3.29,3.11,1.63-1.2,3.67-2.54S496.76,150.71,496.68,150.52Z"/><path class="cls-2" d="M493,180.12s14,48,28.3,46.93a24.84,24.84,0,0,0,20-13l-.2-29.25-15.73-1.29-3.15,7.56-11-19.79Z"/><path class="cls-6" d="M590.67,113.73A83.85,83.85,0,0,0,595.29,100a29.4,29.4,0,0,0-.15-14.35c-.21-.71-2.06-5.46-2.79-5.43-.52,0,.51,4.39.22,4.83-2.81,4.13-3.85,9.26-3.8,14.26a64.94,64.94,0,0,0,1.9,14.41"/><path class="cls-8" d="M561.75,138.57c.2-3.41.35-6.1.33-6.1s-11.61-2-11.56-13.63c0-5.62,1-17.18,2-27.64a21.68,21.68,0,0,1,21.93-19.59l1.12,0c12.09.91,18.08,11.68,16.84,23.74l-3,42.32-8.9,9.21a11,11,0,0,1-18.8-8.33Z"/><path class="cls-9" d="M562.08,132.47a28.08,28.08,0,0,0,15.21-4.23s-3.83,8.4-15.42,7.16Z"/><path class="cls-6" d="M555.29,101.45a1.67,1.67,0,0,0,1.57,1.71,1.59,1.59,0,0,0,1.74-1.47A1.67,1.67,0,0,0,557,100,1.59,1.59,0,0,0,555.29,101.45Z"/><path class="cls-6" d="M555,96.06c.2.22,1.47-.69,3.26-.66s3.08.95,3.28.73-.11-.49-.67-.91a4.65,4.65,0,0,0-2.62-.86,4.36,4.36,0,0,0-2.6.8C555,95.57,554.85,96,555,96.06Z"/><path class="cls-6" d="M571.22,102.44a1.67,1.67,0,0,0,1.58,1.71,1.59,1.59,0,0,0,1.73-1.47A1.67,1.67,0,0,0,573,101,1.6,1.6,0,0,0,571.22,102.44Z"/><path class="cls-6" d="M571.58,97c.2.22,1.48-.69,3.26-.66s3.08,1,3.28.73-.1-.49-.67-.91a4.62,4.62,0,0,0-2.62-.86,4.39,4.39,0,0,0-2.6.8C571.67,96.47,571.48,96.86,571.58,97Z"/><path class="cls-6" d="M565.81,110.7a11.15,11.15,0,0,0-2.9-.58c-.45-.05-.88-.15-.95-.46a2.26,2.26,0,0,1,.32-1.35l1.41-3.45c1.95-4.92,3.38-9,3.18-9s-2,3.84-3.9,8.76l-1.35,3.48a2.64,2.64,0,0,0-.27,1.78,1.13,1.13,0,0,0,.74.68,2.6,2.6,0,0,0,.78.12A11.81,11.81,0,0,0,565.81,110.7Z"/><path class="cls-6" d="M571.83,90.94c.25.45,2,0,4.09-.12s3.87.24,4.08-.23c.09-.23-.27-.63-1-1a7.08,7.08,0,0,0-6.22.26C572,90.29,571.72,90.72,571.83,90.94Z"/><path class="cls-6" d="M555.58,89.81c.31.41,1.54,0,3,0s2.73.31,3-.11c.13-.2-.06-.61-.6-1a4.37,4.37,0,0,0-4.88.07C555.62,89.2,555.44,89.61,555.58,89.81Z"/><path class="cls-8" d="M591.34,104c.2-.09,8-2.24,7.65,5.71s-8.29,5.92-8.29,5.7S591.34,104,591.34,104Z"/><path class="cls-9" d="M593.27,112.48s.14.11.37.22a1.37,1.37,0,0,0,1,.08c.86-.27,1.63-1.57,1.73-3a4.49,4.49,0,0,0-.29-2,1.6,1.6,0,0,0-1-1.12.7.7,0,0,0-.83.34c-.12.22-.08.38-.12.39s-.16-.14-.08-.46a.91.91,0,0,1,.33-.49,1.06,1.06,0,0,1,.78-.16,1.93,1.93,0,0,1,1.38,1.3,4.67,4.67,0,0,1,.38,2.24c-.13,1.6-1,3.06-2.19,3.33a1.47,1.47,0,0,1-1.25-.27C593.28,112.67,593.25,112.49,593.27,112.48Z"/><path class="cls-6" d="M558.43,78.32c-1.25-.78,2.85-4.72,6.09-6,4.9-1.89,12.27-2.81,16.6-1.31,5.22,1.8,9.47,4.69,11.86,9.67a31.33,31.33,0,0,1,2.59,16.15,9.45,9.45,0,0,1-1.39,4.79c-1.21,1.7-3.4,2.68-3.45,5.11a3.36,3.36,0,0,1-1,2.38c-1.54,1.46-3.24-.09-4-1.6-1.57-3.21-1.56-6.93-1.51-10.51a23.16,23.16,0,0,1,.94-7.52c.46-1.31,1.16-2.52,1.55-3.85a4.77,4.77,0,0,0-.34-4,4.71,4.71,0,0,0-.61-.68,8.26,8.26,0,0,0-8.13-2c-4.56,1.33-12.34,3.26-14.24,1.63-2.75-2.35-3.36-3.82-3.36-3.82Z"/><path class="cls-6" d="M566.13,116.88c0,.14.4.31,1.08.29a4.73,4.73,0,0,0,4.1-3c.22-.66.17-1.09,0-1.13-.3-.07-.86,1.33-2.29,2.36S566.15,116.56,566.13,116.88Z"/><path class="cls-6" d="M563.86,439.47,565,460.83s-21.31,8.36-21.47,12.33l41.48-.79L584.58,439Z"/><path class="cls-2" d="M577.83,458.79A1.69,1.69,0,0,1,579,460.7a1.64,1.64,0,0,1-1.89,1.21,1.79,1.79,0,0,1-1.27-2,1.69,1.69,0,0,1,2.1-1"/><path class="cls-7" d="M585,472.37l-.18-3.36-39.71,2s-1.83.84-1.59,2.14Z"/><path class="cls-5" d="M564.36,460.63c0,.2,1,.27,2,.91s1.56,1.47,1.74,1.39-.14-1.25-1.37-2S564.31,460.44,564.36,460.63Z"/><path class="cls-5" d="M560,462.51c0,.2.84.53,1.55,1.37s.92,1.75,1.12,1.73.31-1.16-.59-2.19S560,462.32,560,462.51Z"/><path class="cls-5" d="M557.67,467.77c.18,0,.45-1-.1-2.08s-1.49-1.53-1.57-1.35.51.75.94,1.66S557.47,467.75,557.67,467.77Z"/><path class="cls-5" d="M564.63,455.73c.09.19,1-.11,2.16-.05s2.05.4,2.15.22-.77-.88-2.12-.93S564.53,455.58,564.63,455.73Z"/><path class="cls-6" d="M614.09,437.37l2.25,25.78L612.23,484a2.67,2.67,0,0,0,2.27,3.15h0a2.64,2.64,0,0,0,2.28-.84c3.7-4,17.23-18.93,17-20.8-.31-2.18-.56-27.35-.56-27.35Z"/><path class="cls-7" d="M614.5,487.19l19.13-23.39.07,1.1a4,4,0,0,1-.78,2.64c-1.52,2-5.82,7.55-16.06,18.81a2.67,2.67,0,0,1-2.36.84Z"/><g class="cls-10"><path class="cls-5" d="M627.8,455.81a1.61,1.61,0,0,0-.31,2.12,1.54,1.54,0,0,0,2.1.32,1.68,1.68,0,0,0,.31-2.24,1.6,1.6,0,0,0-2.22-.09"/></g><path class="cls-5" d="M619.68,475.53a8,8,0,0,0-2.39-1.87,8.33,8.33,0,0,0-3-.38c0-.06.29-.28.89-.4a4.09,4.09,0,0,1,2.34.26,4.14,4.14,0,0,1,1.83,1.47C619.68,475.12,619.74,475.5,619.68,475.53Z"/><path class="cls-5" d="M618.06,479.1a19.61,19.61,0,0,0-2.35-1,22.34,22.34,0,0,0-2.55-.17,3,3,0,0,1,2.67-.39C617.38,477.93,618.19,479,618.06,479.1Z"/><path class="cls-5" d="M622.82,470.87a26.47,26.47,0,0,0-3.54-1.73c-2.06-.68-3.87-.47-3.89-.65a5.94,5.94,0,0,1,4.06.11A5.87,5.87,0,0,1,622.82,470.87Z"/><path class="cls-5" d="M622.79,463c-.06.16-1.52-.34-3.38-.29s-3.3.59-3.37.43a6.59,6.59,0,0,1,6.75-.14Z"/><path class="cls-5" d="M622.32,455.4a12.51,12.51,0,0,0-3.51-.4,13,13,0,0,0-3.37,1.08c0-.05.22-.39.79-.78a5.76,5.76,0,0,1,5.17-.51C622,455.06,622.36,455.34,622.32,455.4Z"/><path class="cls-5" d="M618.76,453.55a2.33,2.33,0,0,1-.1-1,6.77,6.77,0,0,1,.62-2.61,3.07,3.07,0,0,1,1.2-1.52,1.07,1.07,0,0,1,1.21.16,1.74,1.74,0,0,1,.48,1.14,3.75,3.75,0,0,1-3,3.67,4.34,4.34,0,0,1-4.41-2,1.54,1.54,0,0,1-.15-1.25,1,1,0,0,1,1.06-.62,3.63,3.63,0,0,1,1.75.77,7.4,7.4,0,0,1,1.89,1.9,2.37,2.37,0,0,1,.46.86,12.69,12.69,0,0,0-2.57-2.42,3.31,3.31,0,0,0-1.55-.64.57.57,0,0,0-.58.33,1.06,1.06,0,0,0,.15.82,3.87,3.87,0,0,0,3.84,1.68,3.25,3.25,0,0,0,2.64-3.07,1.26,1.26,0,0,0-.3-.81.58.58,0,0,0-.67-.1,2.72,2.72,0,0,0-1,1.27A10.07,10.07,0,0,0,618.76,453.55Z"/><path class="cls-7" d="M543.31,260.13a92,92,0,0,0-2,27c.44,5.74,19.82,164.59,19.82,164.59h26.16l-7.36-149.29,2.15.46s14.28,63.68,15.44,74c1.05,9.26,13.09,76.58,13.09,76.58l23.92.28-7.64-89.05L618,279.27l-3.34-24.87Z"/><path class="cls-6" d="M584.06,287.22a5.23,5.23,0,0,1-1.09.61,12.69,12.69,0,0,1-3.24,1.14,6.71,6.71,0,0,1-2.41,0,4.85,4.85,0,0,1-2.52-1.21,5.85,5.85,0,0,1-1.53-2.67,30.79,30.79,0,0,1-.7-3.15c-.84-4.3-1.4-8.24-1.73-11.09-.17-1.43-.28-2.59-.34-3.39a5.68,5.68,0,0,1,0-1.25,5.5,5.5,0,0,1,.25,1.22c.14.91.31,2,.51,3.36.43,2.84,1,6.75,1.88,11.05.42,2.12.71,4.29,2,5.55a5.41,5.41,0,0,0,4.52,1.18,14.88,14.88,0,0,0,3.21-.94A5.35,5.35,0,0,1,584.06,287.22Z"/><path class="cls-6" d="M576.18,267s.17-.14.54-.16a2.32,2.32,0,0,1,1.47.47,2.61,2.61,0,0,1,1.1,2,2.6,2.6,0,0,1-4.42,1.66,2.64,2.64,0,0,1-.5-2.25,2.34,2.34,0,0,1,.8-1.32c.29-.22.5-.25.51-.23a2.92,2.92,0,0,0-.92,1.62,2.28,2.28,0,0,0,.5,1.84,2.12,2.12,0,0,0,3.52-1.32,2.3,2.3,0,0,0-.84-1.71A3,3,0,0,0,576.18,267Z"/><path class="cls-6" d="M617.64,277.74a3,3,0,0,1-.89.14,18.63,18.63,0,0,1-2.45,0,24.05,24.05,0,0,1-7.88-1.83,23.69,23.69,0,0,1-6.81-4.36,17,17,0,0,1-1.7-1.78,3,3,0,0,1-.52-.73c.08-.07.92.9,2.48,2.21a26.23,26.23,0,0,0,14.46,6.09C616.36,277.71,617.64,277.64,617.64,277.74Z"/><path class="cls-6" d="M554.05,267.45a12,12,0,0,1-1.21,2.67,30,30,0,0,1-4,5.63,27.48,27.48,0,0,1-5.13,4.37,9.65,9.65,0,0,1-2.41,1.29,25.59,25.59,0,0,1,2.23-1.62,34.23,34.23,0,0,0,5-4.44,37.13,37.13,0,0,0,4.1-5.45A27.45,27.45,0,0,1,554.05,267.45Z"/><path class="cls-2" d="M604.17,190.6l10,9.65-3.24-18.45,20.32-6.43s5.39,25.32,6.33,31.31c1.69,10.75-.38,26-10.4,27.1-10.83,1.16-19-9.52-24.21-16.53-4-5.4-10.46-14.82-10.46-14.82l11.65-11.83"/><path class="cls-2" d="M524.72,185.79c.17-.61,7.34-27.66,10.54-33.63,3.83-7.15,12-10.1,17-10.41.65,0,3-.1,5,0,13.76.59,53.31,3.75,53.31,3.75s15,3.76,18,17.31c3.79,17,6.85,33.73,6.85,33.73l-26.79,5.78-3.15-7.93-50.32,11.23-12.29-18.18Z"/><path class="cls-2" d="M613.79,228.27l-.69-24.2,1-57-20.88-9.2-2.33-9-24.37,11.52-5.1-5.64-2.28,6.15-5.2,1.95-10.5,20.72-6,16.32s1.89,70.82,3.4,82.23c0,0,4.89,1.82,17,2.11,24.55.59,58-1,58-1l.34-1.08a21.28,21.28,0,0,0,.83-9.28l-3.23-24.61"/><path class="cls-6" d="M558,262.09a1.36,1.36,0,0,1,0-.29c0-.24,0-.52-.07-.87,0-.82-.11-1.93-.18-3.34-.14-3-.32-7.14-.55-12.28-.38-10.38-.88-24.72-.71-40.58.09-7.93.36-15.49,1.12-22.34s2-12.92,3-18,2.07-9.16,2.75-12c.34-1.36.62-2.45.82-3.24l.22-.84a1.33,1.33,0,0,1,.1-.28,1.14,1.14,0,0,1,0,.3c0,.23-.1.51-.17.85l-.69,3.27c-.62,2.84-1.53,6.93-2.55,12s-2.13,11.17-2.88,18-1,14.36-1.07,22.28c-.16,15.83.26,30.17.53,40.55.14,5.14.25,9.33.34,12.29,0,1.41.05,2.52.06,3.34v.87A1,1,0,0,1,558,262.09Z"/><path class="cls-6" d="M573.66,172.87a11.47,11.47,0,0,1,1.41,0l4.12.25,15,1,.28,0,0,.29c-.52,6.88-1.14,15.12-1.81,24v.16l-.13.09c-.7.51-1.47,1-2.25,1.54a44.73,44.73,0,0,1-4.22,2.44,12.51,12.51,0,0,1-4.58,1.48,9.18,9.18,0,0,1-4.54-1,20.35,20.35,0,0,1-3.68-2.46c-.55-.46-1.08-.92-1.59-1.4a3,3,0,0,1-.71-.86,4.09,4.09,0,0,1-.4-1,15.12,15.12,0,0,1-.37-4,57.74,57.74,0,0,1,.63-7c.62-4.25,1.36-7.65,1.89-10,.27-1.17.49-2.08.66-2.69a4,4,0,0,1,.29-.92,6.65,6.65,0,0,1-.16,1c-.13.68-.31,1.58-.52,2.7-.45,2.36-1.11,5.77-1.67,10a58.09,58.09,0,0,0-.54,7,14.87,14.87,0,0,0,.38,3.8,2.92,2.92,0,0,0,1,1.57c.5.47,1,.92,1.57,1.36a19.3,19.3,0,0,0,3.56,2.36,8.55,8.55,0,0,0,4.21,1,12,12,0,0,0,4.31-1.41,44,44,0,0,0,4.16-2.42c.77-.5,1.53-1,2.21-1.51l-.14.26c.71-8.9,1.38-17.14,1.93-24l.26.31-14.84-1.3-4.17-.4-1.11-.12A1.67,1.67,0,0,1,573.66,172.87Z"/><path class="cls-6" d="M594,180.7c0,.19-4.89,0-10.89-.5s-10.85-1-10.84-1.19,4.89,0,10.89.5S594.05,180.51,594,180.7Z"/><g class="cls-11"><path d="M571.27,198.4c1.17,1.93,2.27,4.58,3.87,6.18a9.46,9.46,0,0,0,5.94,2.95,9.77,9.77,0,0,0,5.63-1.67,14.88,14.88,0,0,0,5.61-7.37c.18-.21-3.89,2.5-6.1,3.68a10,10,0,0,1-6.26,1.34c-3.27-.27-6.21-3-8.69-5.11"/></g><g class="cls-11"><polygon points="566.55 141.54 564.77 155.19 590.42 139.33 566.82 151.51 566.55 141.54"/></g><path class="cls-7" d="M562,154.69a382.57,382.57,0,0,0-8.69,56.74c-1,13.26-1.75,30.83-1.75,30.83l5.92,7.32,9.06-8s-.39-37.32.08-49.81c.39-10.28-1.23-36.51-1.23-36.51Z"/><path class="cls-6" d="M607.92,171.29a6.36,6.36,0,0,1,.24,1.06c.13.75.31,1.73.53,2.92.43,2.53,1,5.9,1.65,9.64s1.22,7.17,1.58,9.65c.19,1.24.33,2.24.42,2.94a5.4,5.4,0,0,1,.1,1.08,6.36,6.36,0,0,1-.24-1.06c-.13-.75-.31-1.73-.53-2.92L610,185c-.65-3.77-1.19-7.19-1.56-9.66-.16-1.19-.3-2.18-.41-2.94A5.4,5.4,0,0,1,607.92,171.29Z"/><path class="cls-6" d="M615.64,148.64c0,.05-.7.63-1.75,1.71a21.25,21.25,0,0,0-5.51,10.25c-.33,1.48-.4,2.42-.46,2.41a2,2,0,0,1,0-.66,13.41,13.41,0,0,1,.22-1.8,19.12,19.12,0,0,1,5.58-10.38,15.4,15.4,0,0,1,1.37-1.17A2.62,2.62,0,0,1,615.64,148.64Z"/><polygon class="cls-7" points="566.59 145.62 564.39 144.32 562.07 148.49 561.97 154.69 565.36 155.24 566.76 151.61 566.59 145.62"/><path class="cls-6" d="M566.75,140.27s-.5.86-1.32,2.24-1.91,3.31-2.95,5.52c-.08.19-.17.37-.25.54l-.16.35-.16-.35a42.51,42.51,0,0,1-2.17-5.5c-.23-.71-.39-1.29-.49-1.7a1.78,1.78,0,0,1-.11-.64c.05,0,.32.86.83,2.27s1.26,3.33,2.26,5.41h-.32c.07-.17.16-.36.24-.54a47.09,47.09,0,0,1,3.06-5.51c.45-.67.82-1.2,1.09-1.57S566.73,140.25,566.75,140.27Z"/><path class="cls-6" d="M593.21,137.85a1.61,1.61,0,0,1-.35.21l-1.05.55-3.88,2c-3.27,1.7-7.74,4.12-12.7,6.77-3,1.61-5.88,3.1-8.37,4.34l-.23.12v-.26c0-3.23-.06-5.94-.08-7.91v-2.23a4.37,4.37,0,0,1,0-.79,4.28,4.28,0,0,1,.07.79c0,.56,0,1.3.08,2.22,0,2,.12,4.69.21,7.92l-.23-.14c2.47-1.27,5.32-2.77,8.34-4.38,5-2.65,9.46-5,12.76-6.68,1.65-.83,3-1.47,3.92-1.91l1.09-.49A1.55,1.55,0,0,1,593.21,137.85Z"/><path class="cls-6" d="M564.77,156c-.06.08-.64-.19-1.32-.62s-1.18-.84-1.12-.92.64.19,1.31.62S564.82,155.88,564.77,156Z"/><path class="cls-6" d="M565.32,154.08a17.41,17.41,0,0,1-1.58-3.14,17.11,17.11,0,0,1-1.24-3.29,17,17,0,0,1,1.57,3.14A17.6,17.6,0,0,1,565.32,154.08Z"/><path class="cls-6" d="M637.59,206.68a30.69,30.69,0,0,1,.41,3.09,44.14,44.14,0,0,1-.12,9,30.33,30.33,0,0,1-1.47,6.46,14.78,14.78,0,0,1-4.33,6.61,9.3,9.3,0,0,1-4,1.88,14.71,14.71,0,0,1-4.78,0,20.55,20.55,0,0,1-9.42-4.36l.24-.13q1,7.44,2.11,16c.36,2.84.8,5.74,1.13,8.77A22.39,22.39,0,0,1,616,263.3l0,.12h-.12c-10.71.48-22.44.86-35,1.05-6.29.09-12.8.12-19.5,0-3.35-.06-6.76-.11-10.19-.42a50.49,50.49,0,0,1-10.35-1.76l-.13,0,0-.15c-.41-3.5-.59-7.05-.81-10.65s-.36-7.24-.54-10.92c-.33-7.37-.61-14.9-.88-22.57l.44.15a24.91,24.91,0,0,1-13,8.42,26.19,26.19,0,0,1-3.94.69,10.78,10.78,0,0,1-2,0,9,9,0,0,1-2-.58,17.21,17.21,0,0,1-6.29-5.1,68.84,68.84,0,0,1-8.5-14c-2.39-5-4.48-10.16-6.41-15.44q-2.18-5.92-4-11.91l-.06-.21.2-.09q9.21-4.47,18.23-8.83l.22-.11.12.21,11,19.8-.46,0q1.59-3.81,3.16-7.56l.23-.15-.24.18c1.35-5,2.72-9.85,4.15-14.65s2.86-9.53,4.62-14.09a19.07,19.07,0,0,1,3.73-6.25,21.39,21.39,0,0,1,5.71-4.33,24,24,0,0,1,6.66-2.32,16.28,16.28,0,0,1,3.47-.3l3.44,0-.09,0,2.27-.85-.14.13c.79-2.11,1.54-4.14,2.28-6.15l.13-.35.25.28,5.1,5.64-.26-.05,24.38-11.5.22-.11.06.24c.82,3.17,1.59,6.12,2.33,9l-.11-.13,17.34,7.66h0c7.4,2.22,13.57,6.92,16.49,12.87.31.75.65,1.49.94,2.24s.44,1.53.65,2.29c.33,1.51.64,3,1,4.44q.93,4.34,1.75,8.19l-.12-.1.12.1c2.14,10.16,3.73,18,4.76,23.28.52,2.64.9,4.65,1.13,6s.32,2,.32,2,0-.17-.1-.51-.16-.85-.28-1.52q-.4-2-1.19-6c-1.07-5.28-2.71-13.1-4.88-23.25l.12.1-.12-.1q-.84-3.85-1.77-8.18c-.68-2.87-1.06-6-2.55-8.9-2.88-5.84-9-10.48-16.31-12.66h0Q602.26,142,593.14,138l-.09,0,0-.1c-.76-2.88-1.53-5.83-2.35-9l.28.14L566.6,140.56l-.14.07-.11-.12-5.11-5.63.38-.08L559.35,141l0,.1-.1,0-2.27.85h-.09l-3.41,0a16.22,16.22,0,0,0-3.4.29,23.43,23.43,0,0,0-6.52,2.28,20.83,20.83,0,0,0-5.57,4.24,18.47,18.47,0,0,0-3.64,6.1c-1.74,4.53-3.16,9.26-4.6,14.05s-2.79,9.69-4.14,14.65l-.24.18.23-.15-3.15,7.56-.2.48-.26-.46-11-19.79.34.11-18.23,8.83.13-.3c1.19,4,2.53,7.93,4,11.87,1.93,5.27,4,10.43,6.4,15.4A68.28,68.28,0,0,0,512,221.25a16.62,16.62,0,0,0,6.09,5,9.13,9.13,0,0,0,1.85.54,10.39,10.39,0,0,0,1.93,0,25.13,25.13,0,0,0,3.86-.67,24.49,24.49,0,0,0,12.72-8.25l.43-.52,0,.67q.4,11.5.87,22.57.27,5.52.53,10.92c.22,3.59.39,7.15.8,10.61l-.15-.19a51.06,51.06,0,0,0,10.22,1.74c3.42.31,6.81.37,10.16.42,6.69.11,13.19.09,19.49,0,12.58-.17,24.32-.53,35-1l-.17.13a22.08,22.08,0,0,0,1.3-9.1c-.33-3-.76-5.92-1.11-8.75q-1.11-8.51-2.07-16l0-.36.28.22a20.21,20.21,0,0,0,9.28,4.33,14.73,14.73,0,0,0,4.69,0,9.2,9.2,0,0,0,4-1.82,14.66,14.66,0,0,0,4.29-6.49,30,30,0,0,0,1.49-6.42,45.1,45.1,0,0,0,.2-9c-.08-1-.17-1.8-.24-2.31Z"/><g class="cls-11"><path d="M594.73,209.92s5.21,6,8.29,9.82c2.54,3.17,7.19,6.53,11,9.74l.77,6.46c-3.07-.61-7.2-4.16-9.27-6.49a45,45,0,0,1-5.79-7.5c-2.79-5-6.63-9.8-7.61-15.43Z"/></g><path class="cls-6" d="M614.41,229.71a3.35,3.35,0,0,0-.52-.39c-.34-.26-.88-.58-1.52-1.07a57,57,0,0,1-5.21-4.55,152.57,152.57,0,0,1-15.26-18l0,.27c1.09-2.64,2.23-5.39,3.39-8.21l4.06-9.88-.44.11,23.89,20.2a3.07,3.07,0,0,0-.4-.46c-.28-.28-.7-.68-1.27-1.2-1.12-1-2.78-2.5-4.88-4.34-4.18-3.67-10.11-8.77-17-14.63l-.29-.25-.15.36c-1.28,3.11-2.66,6.44-4.07,9.87-1.16,2.83-2.3,5.58-3.38,8.21l-.06.15.09.13A142.91,142.91,0,0,0,606.9,224a48.87,48.87,0,0,0,5.36,4.44c.66.47,1.22.77,1.58,1A2.46,2.46,0,0,0,614.41,229.71Z"/><path class="cls-6" d="M536.42,159.63a2.75,2.75,0,0,0,0,.6c0,.46,0,1,0,1.72,0,1.49,0,3.66,0,6.33.1,5.34.43,12.72.88,20.86s.85,15.51,1,20.85c.09,2.61.17,4.75.23,6.32,0,.69.05,1.26.07,1.72a2.66,2.66,0,0,0,.07.6,2.87,2.87,0,0,0,.05-.6c0-.46,0-1,0-1.72,0-1.5,0-3.66,0-6.33-.1-5.35-.43-12.73-.88-20.87s-.85-15.51-1.05-20.84c-.09-2.61-.17-4.75-.23-6.32,0-.7,0-1.27-.07-1.72A2.53,2.53,0,0,0,536.42,159.63Z"/><path class="cls-6" d="M533.5,170.46,541.85,202a3.94,3.94,0,0,0,3.87,2.92l43.26-.85a3.93,3.93,0,0,0,3.76-4.74l-6.37-30.22a3.92,3.92,0,0,0-3.84-3.12H536.92A3.54,3.54,0,0,0,533.5,170.46Z"/><path class="cls-8" d="M600.58,190.16l-2.05-1.92s-1.37-4.53-2.22-5.39a9.5,9.5,0,0,0-3.17-1.5L588,176.61l.94,4.23-7.49-.05a2.12,2.12,0,0,0-2,1.3.79.79,0,0,0-.07.41,2.74,2.74,0,0,0,1.5,2l1.08.5a2.57,2.57,0,0,0-1.77,1.84,2.34,2.34,0,0,0,1.56,2.53s-1.84.83-.78,3c0,0-1.72,2-.72,3.41s6.67,3.68,6.67,3.68l3.15,1.43a5.39,5.39,0,0,0,2.36.14l1.24.17,1.31,1.09S602.44,198.18,600.58,190.16Z"/><path class="cls-9" d="M592.51,186.91a5.66,5.66,0,0,1-1.7,0,29.64,29.64,0,0,1-4.07-.55,30.83,30.83,0,0,1-4-1.07,6,6,0,0,1-1.57-.67c0-.13,2.5.68,5.62,1.3S592.52,186.77,592.51,186.91Z"/><path class="cls-9" d="M594.57,192.82a97.69,97.69,0,0,1-12.88-3.48,97.69,97.69,0,0,1,12.88,3.48Z"/><path class="cls-9" d="M594,197.23a8,8,0,0,1-2.08-.27,32.29,32.29,0,0,1-4.85-1.39,33.87,33.87,0,0,1-4.6-2.11,8.36,8.36,0,0,1-1.75-1.15,11.39,11.39,0,0,1,1.9.87c1.16.56,2.77,1.29,4.6,2s3.54,1.17,4.78,1.5A11.63,11.63,0,0,1,594,197.23Z"/><path class="cls-9" d="M595.36,191.52c-.12,0,.12-.88-.06-1.89s-.66-1.73-.55-1.82.81.58,1,1.74A2.25,2.25,0,0,1,595.36,191.52Z"/><path class="cls-9" d="M595.44,186.08c-.08-.09.31-.55.37-1.25s-.21-1.23-.1-1.3.19.06.33.3a1.63,1.63,0,0,1,.21,1,1.78,1.78,0,0,1-.41,1C595.65,186.06,595.48,186.13,595.44,186.08Z"/><path class="cls-9" d="M594.94,197c-.1-.09.2-.55.37-1.18s.2-1.17.32-1.19.33.58.12,1.32S595,197.06,594.94,197Z"/><path class="cls-9" d="M583.36,180.83a30.41,30.41,0,0,0,4.38.36c2.41.16,4.36.42,4.39.25a12.3,12.3,0,0,0-4.35-.83A11.84,11.84,0,0,0,583.36,180.83Z"/><path class="cls-6" d="M527.77,208.91a18.9,18.9,0,0,1-.58-2.71,63.13,63.13,0,0,0-3.91-12.68,20.73,20.73,0,0,1-1-2.56,11.76,11.76,0,0,1,1.38,2.41,45.45,45.45,0,0,1,2.45,6.24,43.57,43.57,0,0,1,1.48,6.53A11,11,0,0,1,527.77,208.91Z"/><path class="cls-8" d="M374.77,149.26a8.89,8.89,0,0,0-4.4-1.12c-1.47,0-12,6.46-12,6.46l-10,11.09-3,7.92,6.38,3.47,9.18-19.57,9.46-5.72Z"/><path class="cls-7" d="M345.19,170s-14.4,26.27-14.8,25.74S317.45,184,317.45,184s-6.13-14.13-8.68-19.21c-1.92-3.83-8.49-6.16-8.49-6.16l3.64,46.57c-.61-1.27,20.06,12.78,24.67,14.67,4.39,1.79,9-2.41,12.36-4.53s18.11-35.08,18.11-35.08Z"/><path class="cls-6" d="M330,208.9a17,17,0,0,1-.65-5.93,16.58,16.58,0,0,1,.95-5.88c.15,0-.36,2.64-.43,5.9S330.19,208.87,330,208.9Z"/><path class="cls-6" d="M299.2,80.13c-4.25-1.44-8.83,2.28-13.21,1.29-2.66-.6-4.61-2.79-6.95-4.19a13.72,13.72,0,0,0-12.2-.81c-3.69,1.74-6.08,3.65-6.69,7.67-3.25-2-8.89,2-10.88,6s-1.64,8.12-.69,12.45a58.26,58.26,0,0,0,9.09,20.86c.38.56,1,1.18,1.63.91a1.49,1.49,0,0,0,.67-1.17c.74-3.92.35-7.94.13-11.92s-.28-8.08,1.08-11.83,4.41-7.11,8.35-7.77a12.65,12.65,0,0,1,8.4,2.05c2.52,1.51,4.72,3.5,7.12,5.21a16.22,16.22,0,0,0,8,3.38c2.94.21,6.13-1.08,7.46-3.71s0-6.45-2.83-7.14a5.79,5.79,0,0,0,1.48-11.26Z"/><path class="cls-8" d="M295.19,127.07c0-5.45-.82-16.68-1.71-26.84A21.05,21.05,0,0,0,272.38,81h-1.09c-11.74.76-16.28,11.61-15.19,23.32l.11,39,22.58,18.93,4.08-8,1.31-14.22S295.12,138.36,295.19,127.07Z"/><path class="cls-9" d="M284.18,140.13a26.66,26.66,0,0,1-15.07-4s3.55,7.9,14.81,6.81Z"/><path class="cls-6" d="M288.62,111.05a1.6,1.6,0,0,1-1.54,1.63,1.53,1.53,0,0,1-1.67-1.44A1.61,1.61,0,0,1,287,109.6,1.54,1.54,0,0,1,288.62,111.05Z"/><path class="cls-6" d="M291.09,105.77c-.2.21-1.43-.69-3.16-.67s-3,.89-3.19.68.11-.48.66-.88a4.36,4.36,0,0,1,2.55-.81,4.24,4.24,0,0,1,2.52.8C291,105.29,291.19,105.67,291.09,105.77Z"/><path class="cls-6" d="M271.8,111.05a1.6,1.6,0,0,1-1.54,1.63,1.53,1.53,0,0,1-1.67-1.44,1.61,1.61,0,0,1,1.54-1.64A1.54,1.54,0,0,1,271.8,111.05Z"/><path class="cls-6" d="M274,106.2c-.2.22-1.43-.68-3.17-.66s-3,.89-3.19.68.11-.48.66-.88a4.42,4.42,0,0,1,2.56-.81,4.25,4.25,0,0,1,2.51.79C274,105.73,274.13,106.11,274,106.2Z"/><path class="cls-6" d="M280.42,119a11.59,11.59,0,0,1,2.81-.53c.45,0,.87-.14.94-.44a2.26,2.26,0,0,0-.31-1.31c-.42-1.07-.86-2.19-1.33-3.37-1.85-4.79-3.19-8.73-3-8.8s1.85,3.75,3.7,8.54c.45,1.18.87,2.31,1.28,3.39a2.56,2.56,0,0,1,.24,1.73,1.09,1.09,0,0,1-.72.66,3.23,3.23,0,0,1-.75.11A11.51,11.51,0,0,1,280.42,119Z"/><path class="cls-6" d="M274.15,97.31c-.17.48-1.9.26-3.94.52s-3.67.83-3.95.41c-.12-.2.16-.65.83-1.11a6.87,6.87,0,0,1,6-.71C273.84,96.72,274.22,97.09,274.15,97.31Z"/><path class="cls-6" d="M290.42,100.75c-.31.39-1.5,0-2.94,0s-2.65.29-2.94-.12c-.12-.2.07-.6.6-1a4.25,4.25,0,0,1,4.73.12C290.38,100.15,290.55,100.56,290.42,100.75Z"/><path class="cls-8" d="M256.6,112.2c-.2-.09-8.67-2.18-8.37,5.54s8,5.83,8,5.6S256.6,112.2,256.6,112.2Z"/><path class="cls-9" d="M253.75,120.51s-.13.1-.36.21a1.31,1.31,0,0,1-1,.06c-.83-.27-1.56-1.53-1.65-2.92a4.36,4.36,0,0,1,.3-1.94,1.53,1.53,0,0,1,1-1.07.69.69,0,0,1,.81.34c.11.21.07.36.11.37s.16-.13.08-.45a.8.8,0,0,0-.32-.47,1,1,0,0,0-.75-.17,1.93,1.93,0,0,0-1.36,1.25,4.67,4.67,0,0,0-.38,2.17c.11,1.56,1,3,2.09,3.26a1.44,1.44,0,0,0,1.22-.25C253.74,120.7,253.78,120.52,253.75,120.51Z"/><path class="cls-6" d="M293.54,89.69a14.75,14.75,0,0,0-4.78-5.43,25.14,25.14,0,0,0-14.62-5.11,20.49,20.49,0,0,0-14.33,5.52,21.69,21.69,0,0,0-5.86,11,38.39,38.39,0,0,0-.51,13.76c.34,1.81,1.36,2.46,2.65,3.78.8.83,2.17,1.37,3.08.66a3.05,3.05,0,0,0,.88-1.78c1.45-6,2.87-12.39.65-18.11A17.82,17.82,0,0,1,266,89a9.2,9.2,0,0,1,7-1c3.45,1,5.59,4.37,8.35,6.68a16.34,16.34,0,0,0,14.51,3.17Z"/><path class="cls-2" d="M248,99.81c0-.09.83,0,2.14-.09a14.06,14.06,0,0,0,4.89-1.3,13.87,13.87,0,0,0,4.1-3c.9-.94,1.34-1.64,1.42-1.59a5.79,5.79,0,0,1-1.16,1.83,12.47,12.47,0,0,1-9.24,4.38A5.56,5.56,0,0,1,248,99.81Z"/><path class="cls-2" d="M248.15,103.61c0-.09.89-.17,2.26-.52a17.06,17.06,0,0,0,5.06-2.21,17.24,17.24,0,0,0,4.09-3.7c.88-1.11,1.32-1.89,1.4-1.85a7,7,0,0,1-1.13,2.06,15,15,0,0,1-4.1,3.91,15.3,15.3,0,0,1-5.24,2.13A7,7,0,0,1,248.15,103.61Z"/><path class="cls-2" d="M299.59,93.93c.06,0,0,.54-.43,1.29a6.21,6.21,0,0,1-2.29,2.37,6.33,6.33,0,0,1-3.19.87,2.53,2.53,0,0,1-1.34-.25,8.22,8.22,0,0,1,1.33-.1,6.95,6.95,0,0,0,5.2-3.07C299.32,94.38,299.52,93.9,299.59,93.93Z"/><path class="cls-2" d="M300.5,95.52a2.61,2.61,0,0,1-.43,1.24,7.23,7.23,0,0,1-5.05,3.57,2.55,2.55,0,0,1-1.31,0,12.17,12.17,0,0,0,4-1.62A12.37,12.37,0,0,0,300.5,95.52Z"/><path class="cls-9" d="M275.48,121.12a29.51,29.51,0,0,1,4.77,2.31l1.61.92c-.72.88-1.53,2.36-2.51,2.74a3.45,3.45,0,0,1-3.34-.54,3.87,3.87,0,0,1-.88-2.57A12.64,12.64,0,0,1,275.48,121.12Z"/><path class="cls-6" d="M281.07,125.41s-.17.22-.47.57a3,3,0,0,1-1.64.94,3.64,3.64,0,0,1-2.69-.59,3.53,3.53,0,0,1-.94-3.14,8.52,8.52,0,0,1,.52-2.06l-.36.14c1.86.94,3.49,1.75,4.67,2.3a8.53,8.53,0,0,0,1.91.8,9.52,9.52,0,0,0-1.76-1.09c-1.13-.64-2.73-1.5-4.58-2.47l-.26-.14-.1.28a8.61,8.61,0,0,0-.57,2.18,3.91,3.91,0,0,0,1.18,3.59,4,4,0,0,0,3.06.57,3,3,0,0,0,1.72-1.19A1.36,1.36,0,0,0,281.07,125.41Z"/><path class="cls-6" d="M281.1,438.9,280,460.77s21.86,8.43,22.06,12.49l-42.47-.55.26-34.14Z"/><path class="cls-2" d="M266.93,458.76a1.74,1.74,0,0,0-1.23,2,1.67,1.67,0,0,0,1.94,1.23,1.82,1.82,0,0,0,1.28-2.09,1.73,1.73,0,0,0-2.15-1.06"/><path class="cls-7" d="M259.63,472.71l.16-3.44,40.66,1.82s1.88.84,1.65,2.17Z"/><path class="cls-5" d="M280.73,460.56c0,.21-1.05.29-2.08.95s-1.58,1.52-1.77,1.43.13-1.28,1.39-2.05S280.77,460.38,280.73,460.56Z"/><path class="cls-5" d="M285.16,462.46c0,.21-.86.55-1.58,1.42s-.93,1.79-1.13,1.78-.33-1.19.58-2.25S285.16,462.27,285.16,462.46Z"/><path class="cls-5" d="M287.62,467.83c-.19,0-.46-1,.08-2.13s1.53-1.57,1.61-1.39-.52.77-1,1.7S287.83,467.81,287.62,467.83Z"/><path class="cls-5" d="M280.42,455.55c-.09.19-1-.11-2.21,0s-2.1.42-2.2.24.78-.91,2.16-1S280.52,455.39,280.42,455.55Z"/><path class="cls-6" d="M231.06,446.22l-2.3,26.38L233,494a2.71,2.71,0,0,1-2.33,3.21h0a2.68,2.68,0,0,1-2.33-.85c-3.79-4.12-17.64-19.38-17.36-21.3.32-2.22.58-28,.58-28Z"/><path class="cls-7" d="M230.63,497.21l-19.58-23.93L211,474.4a4.08,4.08,0,0,0,.8,2.7c1.55,2.08,6,7.73,16.44,19.26a2.7,2.7,0,0,0,2.41.85Z"/><g class="cls-10"><path class="cls-5" d="M217,465.1a1.65,1.65,0,0,1,.31,2.17,1.58,1.58,0,0,1-2.15.32,1.73,1.73,0,0,1-.32-2.29,1.63,1.63,0,0,1,2.27-.1"/></g><path class="cls-5" d="M225.33,485.28a8.23,8.23,0,0,1,2.45-1.91,8.34,8.34,0,0,1,3.08-.39c0-.06-.29-.29-.9-.41a4.29,4.29,0,0,0-2.4.26,4.24,4.24,0,0,0-1.88,1.51C225.33,484.86,225.27,485.25,225.33,485.28Z"/><path class="cls-5" d="M227,488.94a20.53,20.53,0,0,1,2.41-1c1.39-.33,2.55,0,2.61-.17a3,3,0,0,0-2.74-.4C227.69,487.74,226.86,488.86,227,488.94Z"/><path class="cls-5" d="M222.12,480.52a26.33,26.33,0,0,1,3.62-1.78c2.12-.69,4-.48,4-.66a6,6,0,0,0-4.16.11A6,6,0,0,0,222.12,480.52Z"/><path class="cls-5" d="M222.15,472.44c.06.16,1.56-.36,3.46-.3s3.38.6,3.45.44a5.32,5.32,0,0,0-3.44-1A5.21,5.21,0,0,0,222.15,472.44Z"/><path class="cls-5" d="M222.63,464.67a8.57,8.57,0,0,1,7,.7c.05-.05-.22-.4-.8-.79a5.67,5.67,0,0,0-2.59-.89,5.77,5.77,0,0,0-2.71.36C222.92,464.32,222.59,464.61,222.63,464.67Z"/><path class="cls-5" d="M226.27,462.78s.12-.34.1-1a6.84,6.84,0,0,0-.62-2.67,3.13,3.13,0,0,0-1.23-1.56,1.09,1.09,0,0,0-1.24.17,1.75,1.75,0,0,0-.5,1.16,3.84,3.84,0,0,0,3.13,3.76,4.45,4.45,0,0,0,4.51-2,1.57,1.57,0,0,0,.16-1.28,1.09,1.09,0,0,0-1.08-.64,3.75,3.75,0,0,0-1.8.8,7.61,7.61,0,0,0-1.94,1.93,2.23,2.23,0,0,0-.46.89,12.37,12.37,0,0,1,2.62-2.48,3.65,3.65,0,0,1,1.59-.66.58.58,0,0,1,.59.35,1,1,0,0,1-.15.83,4,4,0,0,1-3.93,1.73,3.33,3.33,0,0,1-2.7-3.15,1.22,1.22,0,0,1,.31-.83.57.57,0,0,1,.68-.1,2.81,2.81,0,0,1,1.07,1.3A10.42,10.42,0,0,1,226.27,462.78Z"/><path class="cls-6" d="M301.05,260.07a94,94,0,0,1,2.05,27.66c-.45,5.88-20.29,168.5-20.29,168.5H256l7.53-152.84-2.19.47s-14.62,65.19-15.82,75.74c-1.07,9.49-14.2,84.06-14.2,84.06l-25.27-.28,9.4-96.25,9.11-87.47L228,254.19Z"/><path class="cls-6" d="M261,287.79a4.84,4.84,0,0,0,1.12.63,12.7,12.7,0,0,0,3.32,1.16,6.8,6.8,0,0,0,2.47,0,5.08,5.08,0,0,0,2.58-1.24,6.1,6.1,0,0,0,1.56-2.73c.32-1,.5-2.13.72-3.22.85-4.42,1.43-8.44,1.77-11.37.17-1.46.28-2.64.34-3.46a5.32,5.32,0,0,0,0-1.29,6.17,6.17,0,0,0-.25,1.26c-.14.93-.31,2.08-.52,3.44-.44,2.9-1.08,6.91-1.93,11.31-.43,2.17-.73,4.39-2.08,5.68a5.57,5.57,0,0,1-4.63,1.21,15.22,15.22,0,0,1-3.29-1A6.78,6.78,0,0,0,261,287.79Z"/><path class="cls-6" d="M269.06,267.06a.87.87,0,0,0-.56-.16,2.41,2.41,0,0,0-1.49.48,2.66,2.66,0,0,0-1.13,2.07,2.66,2.66,0,0,0,4.52,1.7,2.69,2.69,0,0,0,.51-2.3,2.37,2.37,0,0,0-.81-1.35c-.3-.23-.51-.27-.52-.24a3.08,3.08,0,0,1,.94,1.66,2.38,2.38,0,0,1-.51,1.88,2.17,2.17,0,0,1-3.61-1.35,2.36,2.36,0,0,1,.85-1.75A3.13,3.13,0,0,1,269.06,267.06Z"/><path class="cls-6" d="M226.61,278.09a2.76,2.76,0,0,0,.91.14,16.55,16.55,0,0,0,2.52,0,24.37,24.37,0,0,0,15-6.33,17.78,17.78,0,0,0,1.74-1.82,3,3,0,0,0,.53-.75c-.07-.07-.93.92-2.53,2.26a27.14,27.14,0,0,1-6.93,4.25,27.75,27.75,0,0,1-7.87,2C227.92,278.06,226.62,278,226.61,278.09Z"/><path class="cls-6" d="M291.72,267.56a12.2,12.2,0,0,0,1.24,2.73,30.28,30.28,0,0,0,4.14,5.76,27.7,27.7,0,0,0,5.24,4.48,9.41,9.41,0,0,0,2.47,1.31,27.25,27.25,0,0,0-2.28-1.65,34.74,34.74,0,0,1-5.08-4.55,37.16,37.16,0,0,1-4.19-5.57A27.93,27.93,0,0,0,291.72,267.56Z"/><path class="cls-12" d="M418.79,143.19l.57-46.62C419.88,85,413.57,75,402,74.81l-1.07,0A20.73,20.73,0,0,0,381,94.77c-.4,10-.7,21.16-.42,26.53.6,11.12,11.8,12.39,11.8,12.39s.07,6.77.06,10l-2.61,7.64,9.15-2.23Z"/><path class="cls-13" d="M392.4,133.69a26.93,26.93,0,0,0,14.31-4.88s-3.14,8.5-14.28,8Z"/><path class="cls-6" d="M386.71,104.76a1.59,1.59,0,0,0,1.6,1.54,1.51,1.51,0,0,0,1.57-1.5,1.58,1.58,0,0,0-1.59-1.54A1.52,1.52,0,0,0,386.71,104.76Z"/><path class="cls-6" d="M383.58,99.58c.21.2,1.38-.74,3.09-.81s3,.74,3.17.52-.13-.46-.69-.83a4.37,4.37,0,0,0-2.55-.68,4.16,4.16,0,0,0-2.45.91C383.65,99.11,383.48,99.49,383.58,99.58Z"/><path class="cls-6" d="M402.89,104.36a1.59,1.59,0,0,0,1.6,1.54,1.52,1.52,0,0,0,1.58-1.5,1.59,1.59,0,0,0-1.6-1.54A1.53,1.53,0,0,0,402.89,104.36Z"/><path class="cls-6" d="M400.36,99.29c.2.19,1.37-.75,3.08-.81s3,.74,3.18.52-.13-.46-.7-.84a4.35,4.35,0,0,0-2.55-.67,4.22,4.22,0,0,0-2.44.9C400.42,98.81,400.26,99.2,400.36,99.29Z"/><path class="cls-6" d="M394.77,112.68a11.21,11.21,0,0,0-2.8-.39c-.44,0-.85-.1-.94-.39a2.22,2.22,0,0,1,.24-1.31c.37-1.07.75-2.2,1.15-3.38,1.6-4.8,2.74-8.75,2.54-8.81s-1.64,3.78-3.24,8.59l-1.1,3.39a2.58,2.58,0,0,0-.16,1.73,1.16,1.16,0,0,0,.75.61,3.46,3.46,0,0,0,.74.07A11.81,11.81,0,0,0,394.77,112.68Z"/><path class="cls-6" d="M399.58,94c.26.43,1.9-.1,3.91-.23s3.72.12,3.9-.34c.08-.22-.27-.6-1-.92a6.5,6.5,0,0,0-3-.47,6.63,6.63,0,0,0-2.93.9C399.77,93.33,399.47,93.76,399.58,94Z"/><path class="cls-6" d="M383.3,94.56c.36.38,1.75-.06,3.42-.13s3.1.18,3.42-.23c.13-.2-.1-.59-.73-.94a5.4,5.4,0,0,0-2.8-.56,5.32,5.32,0,0,0-2.71.85C383.32,94,383.14,94.37,383.3,94.56Z"/><path class="cls-12" d="M418.79,104.84c.19-.09,7.55-2.57,7.63,5s-7.59,6.12-7.61,5.9S418.79,104.84,418.79,104.84Z"/><path class="cls-13" d="M421.11,112.87s.13.09.36.19a1.32,1.32,0,0,0,1,0,3.29,3.29,0,0,0,1.49-3,4.28,4.28,0,0,0-.39-1.9,1.52,1.52,0,0,0-1-1,.68.68,0,0,0-.78.37c-.1.22,0,.37-.09.38s-.17-.13-.11-.44a.85.85,0,0,1,.3-.48,1,1,0,0,1,.73-.2A1.85,1.85,0,0,1,424,108a4.4,4.4,0,0,1,.48,2.11c0,1.54-.8,3-1.9,3.31a1.41,1.41,0,0,1-1.22-.19C421.13,113.06,421.08,112.89,421.11,112.87Z"/><path class="cls-6" d="M400.14,113.73c-.26,0-.27,1.74-1.78,3s-3.36,1-3.37,1.28.41.34,1.2.37a4.39,4.39,0,0,0,2.82-1,3.8,3.8,0,0,0,1.37-2.49C400.45,114.16,400.26,113.72,400.14,113.73Z"/><path class="cls-6" d="M365.64,84.75a1.83,1.83,0,0,1,.84-1.07,5.63,5.63,0,0,1,2.84-.49,16,16,0,0,0,6.95-1.83,7.89,7.89,0,0,1-2.06-1.42,4.74,4.74,0,0,1-1.43-4.73,1.07,1.07,0,0,1,.59-.74c.49-.16.93.33,1.28.71a4.12,4.12,0,0,0,3.89,1.59,6.67,6.67,0,0,0,2.88-.89l.1-.1c.39-.42.77-.81,1.15-1.19h0c2.83-2.88,5.28-4.88,7.8-5.93,3.7-1.54,9.91-2.21,13.8-1.24s7.41,4.08,8,8c2.15-1.86,5.42-1.88,8.08-.85l.07,0c3,1,4.67,4.11,5.57,7.11,0,.16.09.33.14.49a11.75,11.75,0,0,0,4,3.83c.29.17.62.37.66.69s-.24.6-.5.79a5.76,5.76,0,0,1-2.37,1,12.62,12.62,0,0,0,1,2.06c.34.56.74,1.23.45,1.82a1.24,1.24,0,0,1-1.29.59,3.63,3.63,0,0,1-1.38-.61c.34.78.67,1.57,1,2.35a6.85,6.85,0,0,1-3.21-.18c-.59,2.82-1,8-1.71,10-2,.06-2.51-.15-3.53.2-1.31.45-.78,2.78-2.5,2.13-.88-.32-2.26-3.62-2.56-4.51a43.43,43.43,0,0,1-2.1-18.38,13.86,13.86,0,0,0-4.35-3.07l.14.12c-3.13-1-6.66-2.07-9.6-.58C396,81.57,394.69,84,393,85.88a15.92,15.92,0,0,1-11.7,5.86c-.4,3.37-.47,8.87-.6,12L378,97.5v0c-.22-.36-.4-.73-.58-1.1l-.06-.11v0c-.28-.59-.55-1.18-.9-1.77l0,0a2,2,0,0,1-2.9-2.59,4.8,4.8,0,0,1,.94-1,3.07,3.07,0,0,1-2.94.8,2.42,2.42,0,0,1-1.75-2.38,2.07,2.07,0,0,1,1.21-1.68,6.89,6.89,0,0,1-4-.83C366.17,86.46,365.39,85.74,365.64,84.75Z"/><path class="cls-7" d="M408.77,76.78a9.65,9.65,0,0,1,1.13,1,8,8,0,0,1,1.75,3.69A13.58,13.58,0,0,1,412,84.3c0,1-.06,2.13-.12,3.29a29.53,29.53,0,0,0,0,3.66,11.67,11.67,0,0,0,.27,1.92,4,4,0,0,0,.81,1.86,1.68,1.68,0,0,0,1.58.51,2.47,2.47,0,0,0,1.4-.81,5.7,5.7,0,0,0,1-2.85l-.23,0a9.08,9.08,0,0,0,1.38,2.32,3.33,3.33,0,0,0,2.19,1.16,2.11,2.11,0,0,0,1.14-.22,1.79,1.79,0,0,0,.77-.77,1.87,1.87,0,0,0,.23-1,1.41,1.41,0,0,0-.37-.87l-.12.11a7.38,7.38,0,0,0,2.42,1.77,6.54,6.54,0,0,0,.74.28l.27.06a1.1,1.1,0,0,0-.25-.1c-.17-.07-.42-.17-.72-.32A7.33,7.33,0,0,1,422,92.55l-.11.1a1.43,1.43,0,0,1,.09,1.66,1.66,1.66,0,0,1-.7.69,2,2,0,0,1-1,.18,3.11,3.11,0,0,1-2-1.1,9.19,9.19,0,0,1-1.34-2.27l-.16-.36-.07.39a5.64,5.64,0,0,1-1,2.72,2.22,2.22,0,0,1-1.26.73,1.43,1.43,0,0,1-1.34-.43,3.83,3.83,0,0,1-.75-1.75,13.51,13.51,0,0,1-.27-1.88,29.16,29.16,0,0,1,0-3.63c.06-1.16.12-2.26.09-3.3a14,14,0,0,0-.35-2.87,7.81,7.81,0,0,0-1.86-3.7A4.43,4.43,0,0,0,408.77,76.78Z"/><path class="cls-7" d="M374.41,88s0,0,.09.08l.28.2a3.17,3.17,0,0,0,.48.29,5.31,5.31,0,0,0,.68.35,10,10,0,0,0,4.78.81,12.71,12.71,0,0,0,6.7-2.56,21.93,21.93,0,0,0,5.7-6.73c.8-1.36,1.44-2.75,2.16-4A15,15,0,0,1,397.73,73a7.54,7.54,0,0,1,3.19-2,5.53,5.53,0,0,1,1.69-.22,6.1,6.1,0,0,1,3.89,1.66,6.42,6.42,0,0,1,1.28,1.61,7.39,7.39,0,0,1,.59,1.67s0,0,0-.12,0-.2-.05-.34a5.4,5.4,0,0,0-.44-1.25,6.34,6.34,0,0,0-1.27-1.68,6.52,6.52,0,0,0-2.38-1.44,6.22,6.22,0,0,0-1.6-.31,5.65,5.65,0,0,0-1.76.21,7.77,7.77,0,0,0-3.3,2,14.9,14.9,0,0,0-2.51,3.47c-.72,1.3-1.36,2.68-2.15,4A22,22,0,0,1,387.28,87a12.57,12.57,0,0,1-6.57,2.57,10,10,0,0,1-4.73-.71A14.21,14.21,0,0,1,374.41,88Z"/><path class="cls-7" d="M373.34,83.14a2.25,2.25,0,0,0,.4.27,9.36,9.36,0,0,0,1.19.59,11.81,11.81,0,0,0,1.89.59,12.52,12.52,0,0,0,2.4.29,13.09,13.09,0,0,0,2.41-.19,11.66,11.66,0,0,0,1.9-.52,8.43,8.43,0,0,0,1.21-.53c.28-.15.43-.24.42-.26s-.64.28-1.69.62a13.37,13.37,0,0,1-1.88.45,14.76,14.76,0,0,1-2.37.17,14,14,0,0,1-2.35-.26,15,15,0,0,1-1.87-.53C374,83.44,373.36,83.09,373.34,83.14Z"/><path class="cls-7" d="M377.36,439.36l.82,21.85s-21.93,8.17-22.17,12.22l42.42-.07.11-34.09Z"/><path class="cls-2" d="M391.29,459.35a1.73,1.73,0,0,1,1.21,2,1.67,1.67,0,0,1-1.95,1.21,1.82,1.82,0,0,1-1.26-2.1,1.73,1.73,0,0,1,2.16-1"/><path class="cls-6" d="M398.43,473.36l-.13-3.44-40.62,1.36s-1.88.83-1.67,2.15Z"/><path class="cls-5" d="M377.49,461c0,.21,1.05.3,2.07,1s1.56,1.53,1.75,1.45-.12-1.28-1.37-2.06S377.45,460.8,377.49,461Z"/><path class="cls-5" d="M373.05,462.84c-.05.2.85.55,1.55,1.43s.91,1.8,1.12,1.79.34-1.18-.56-2.25S373.05,462.64,373.05,462.84Z"/><path class="cls-5" d="M370.53,468.17c.19,0,.48-1-.06-2.12s-1.5-1.59-1.59-1.41.52.77.94,1.71S370.33,468.15,370.53,468.17Z"/><path class="cls-5" d="M377.86,456c.09.19,1-.09,2.21,0s2.08.45,2.19.27-.77-.91-2.15-1S377.76,455.83,377.86,456Z"/><path class="cls-7" d="M428.24,440.72l1.18,26.42-5.1,21.17a2.71,2.71,0,0,0,2.19,3.3h0a2.69,2.69,0,0,0,2.36-.75c3.95-4,18-18.78,18.08-20.2.1-2.24.75-28.27.75-28.27Z"/><path class="cls-6" d="M426.51,491.61l20.54-23.05,0,1.12a4.3,4.3,0,0,1-.91,2.66c-1.64,2-6.28,7.46-17.22,18.52a2.7,2.7,0,0,1-2.44.75Z"/><g class="cls-10"><path class="cls-5" d="M441.44,460.15a1.64,1.64,0,0,0-.4,2.15,1.58,1.58,0,0,0,2.13.42,1.73,1.73,0,0,0,.41-2.28,1.63,1.63,0,0,0-2.26-.19"/></g><path class="cls-5" d="M432.3,479.93a8.26,8.26,0,0,0-2.36-2,8.46,8.46,0,0,0-3.06-.52c0-.06.3-.27.92-.37a4.28,4.28,0,0,1,4.19,2C432.31,479.51,432.36,479.9,432.3,479.93Z"/><path class="cls-5" d="M430.49,483.51a21.73,21.73,0,0,0-2.36-1.09,21.16,21.16,0,0,0-2.59-.27c-.08-.14,1.18-.73,2.74-.29S430.63,483.43,430.49,483.51Z"/><path class="cls-5" d="M435.71,475.31c-.13.13-1.45-1.17-3.54-1.92s-3.94-.65-3.95-.83a6,6,0,0,1,4.15.28A6.11,6.11,0,0,1,435.71,475.31Z"/><path class="cls-5" d="M436,467.25c-.07.16-1.54-.42-3.44-.45s-3.4.47-3.46.3a6.71,6.71,0,0,1,6.9.15Z"/><path class="cls-5" d="M435.87,459.49a12.86,12.86,0,0,0-3.57-.56c-2,.09-3.39,1.1-3.49.95s.24-.39.84-.76a5.85,5.85,0,0,1,2.61-.77,5.74,5.74,0,0,1,2.69.48C435.59,459.12,435.91,459.43,435.87,459.49Z"/><path class="cls-5" d="M432.31,457.45a2.43,2.43,0,0,1-.06-1,7.05,7.05,0,0,1,.74-2.64,3.13,3.13,0,0,1,1.29-1.5,1.08,1.08,0,0,1,1.23.22,1.76,1.76,0,0,1,.45,1.18,3.83,3.83,0,0,1-3.28,3.62,4.44,4.44,0,0,1-4.41-2.23,1.5,1.5,0,0,1-.1-1.28,1,1,0,0,1,1.1-.59,3.74,3.74,0,0,1,1.76.87,7.7,7.7,0,0,1,1.85,2,2.45,2.45,0,0,1,.43.91,12.22,12.22,0,0,0-2.52-2.59,3.56,3.56,0,0,0-1.55-.72.57.57,0,0,0-.61.32,1.1,1.1,0,0,0,.12.84,4,4,0,0,0,3.85,1.88,3.31,3.31,0,0,0,2.82-3,1.26,1.26,0,0,0-.27-.84.59.59,0,0,0-.68-.12,2.81,2.81,0,0,0-1.12,1.24A10.35,10.35,0,0,0,432.31,457.45Z"/><path class="cls-6" d="M364.31,256.63a94,94,0,0,0-3.22,27.51c.2,5.89,13.11,169,13.11,169l26.72,1.13-1-152.79L402,302s11.83,65.66,12.58,76.23c.66,9.51,10.05,78.79,10.05,78.79l24.33-.67-3.86-89.29-5.38-87.65-2.34-25.54Z"/><path class="cls-7" d="M404.75,286.06a4.93,4.93,0,0,1-1.14.58,12.75,12.75,0,0,1-3.36,1,6.89,6.89,0,0,1-2.46-.09,5,5,0,0,1-2.52-1.34,6.12,6.12,0,0,1-1.45-2.8c-.27-1.05-.4-2.14-.58-3.24-.66-4.44-1.07-8.48-1.28-11.41-.11-1.47-.17-2.65-.2-3.48a5.85,5.85,0,0,1,0-1.28,5.47,5.47,0,0,1,.2,1.27c.1.93.23,2.09.38,3.45.31,2.92.78,6.94,1.44,11.36.34,2.19.54,4.41,1.84,5.77a5.55,5.55,0,0,0,4.56,1.39,15.3,15.3,0,0,0,3.33-.82A5.8,5.8,0,0,1,404.75,286.06Z"/><path class="cls-7" d="M397.58,265s.18-.13.56-.14a2.43,2.43,0,0,1,1.48.54,2.7,2.7,0,0,1,1,2.12,2.65,2.65,0,0,1-4.58,1.5,2.7,2.7,0,0,1-.41-2.32,2.38,2.38,0,0,1,.87-1.31c.31-.22.52-.24.53-.22a3.07,3.07,0,0,0-1,1.62,2.3,2.3,0,0,0,.43,1.9,2.16,2.16,0,0,0,3.65-1.2,2.3,2.3,0,0,0-.77-1.78A3,3,0,0,0,397.58,265Z"/><path class="cls-7" d="M439.46,277.83a2.8,2.8,0,0,1-.92.11,16.36,16.36,0,0,1-2.5-.08,24.35,24.35,0,0,1-14.74-7,16.71,16.71,0,0,1-1.65-1.88,3.18,3.18,0,0,1-.5-.77c.08-.07.89.95,2.43,2.37a27,27,0,0,0,14.5,6.84C438.15,277.75,439.46,277.73,439.46,277.83Z"/><path class="cls-7" d="M375,264.57a11.12,11.12,0,0,1-1.5,2.67A30.69,30.69,0,0,1,362.51,277a11.33,11.33,0,0,1-2.82,1.19c0-.08,1-.58,2.62-1.54a38.71,38.71,0,0,0,5.89-4.29,38.32,38.32,0,0,0,4.93-5.37A28.71,28.71,0,0,1,375,264.57Z"/><path class="cls-14" d="M253.89,140.69l2.05-3.54L274,154.39l2.82,5.1c.15-.23,2.72-5.5,2.72-5.5l3.88-5.76,1.47,2,10.17,109.13s-10.64,3.91-19.37,4.21-18.06,0-18.06,0-8.88-13.55-8.88-14.15,6.92-83.19,6.92-83.19Z"/><path class="cls-7" d="M264,168.33c-2.11-8.92-11-29.8-11-29.8L246.41,147s-19.7,7.74-20.88,8.68,4.7,60.76,4.7,60.76l-4.85,16.89-16.32,59.24s25.75,8,35.36,6.12,10.91-13.75,12.55-19.85,8-50.44,9.15-69S266.12,177.24,264,168.33Z"/><path class="cls-6" d="M265.78,214.37a4.56,4.56,0,0,1-.3-.74l-.74-2.14-2.64-7.9c-2.2-6.74-5.21-16-8.53-26.15-1.14-3.54-2.25-7-3.29-10.21l0-.13.09-.11,4.12-4.68.17.39-6.33,0h-.19l0-.18c-.53-4.69-1-8.55-1.28-11.29-.13-1.31-.24-2.35-.32-3.12,0-.33,0-.6-.06-.82a.86.86,0,0,1,0-.28.78.78,0,0,1,.07.27l.13.81c.1.77.25,1.8.43,3.11.35,2.74.85,6.59,1.46,11.27l-.21-.19,6.33,0h.52l-.34.39-4.09,4.7,0-.24,3.31,10.2c3.26,10.21,6.22,19.44,8.38,26.19,1,3.32,1.88,6,2.48,8l.65,2.17A5.1,5.1,0,0,1,265.78,214.37Z"/><path class="cls-7" d="M284.88,149.5c.26.53,3.1,5.13,3.1,5.13s13.07,2.8,15.94,6.53,4.16,13.2,4.16,13.2l-3.77,43.73-2,30.68s2.5,34.67,2.84,40.27-.68,12-2.84,11.74-3.22.8-4.28-5.21-8.69-56.15-8.69-56.15l-3.05-43.59-2.8-34Z"/><path class="cls-6" d="M290.82,217.33a2.75,2.75,0,0,1,0-.66c0-.48.12-1.09.2-1.86.2-1.68.47-4,.81-6.84.74-5.82,1.76-13.76,2.88-22.53.52-3.91,1-7.66,1.47-11.11l.09.22-4.75-3.88-.17-.14.14-.17,1.77-2.25,0,.21-3.81-7.83c-.43-.89-.76-1.61-1-2.15a4,4,0,0,1-.32-.78,4.46,4.46,0,0,1,.42.72l1.12,2.11c1,1.9,2.32,4.54,4,7.75l.06.11-.08.1c-.55.73-1.13,1.48-1.75,2.28l0-.3,4.78,3.85.1.08,0,.14c-.44,3.45-.93,7.19-1.44,11.1-1.17,8.77-2.24,16.7-3,22.52-.41,2.83-.74,5.14-1,6.82-.12.76-.22,1.37-.29,1.85A3.53,3.53,0,0,1,290.82,217.33Z"/><path class="cls-6" d="M224.8,251.42a6.4,6.4,0,0,1-.16.67c-.12.48-.28,1.09-.48,1.84s-.48,1.77-.77,2.87c-.16.56-.32,1.15-.49,1.78a4,4,0,0,0-.3,1.93,1.84,1.84,0,0,0,1.48,1.33l2.39.71c1.66.48,3.43,1,5.29,1.49s3.84,1,5.89,1.48c1,.23,2.07.45,3.13.62a15,15,0,0,0,1.61.19,4.17,4.17,0,0,0,.79,0,1.29,1.29,0,0,0,.36-.06.43.43,0,0,0,.26-.16,5.38,5.38,0,0,0,1.1-2.29,26.12,26.12,0,0,0,.54-2.57c.27-1.72.43-3.4.52-5l.19.25-15.28-3.58-4.44-1.07-1.2-.31-.43-.12s.12,0,.39.05l1.16.23,4.42.93L246.26,256l.21,0v.21a48.53,48.53,0,0,1-.52,5.06,22.74,22.74,0,0,1-.54,2.63,5.5,5.5,0,0,1-1.27,2.54.85.85,0,0,1-.44.27,1.93,1.93,0,0,1-.46.08,5.05,5.05,0,0,1-.87,0c-.56,0-1.11-.11-1.66-.19-1.08-.18-2.13-.4-3.17-.64-2.06-.47-4-1-5.89-1.51s-3.64-1.05-5.29-1.55l-2.38-.74a2.49,2.49,0,0,1-1.12-.57,2.2,2.2,0,0,1-.61-1,2.23,2.23,0,0,1,0-1.15l.3-1c.19-.64.37-1.24.55-1.81.34-1.1.63-2.06.88-2.86s.42-1.33.57-1.79A3,3,0,0,1,224.8,251.42Z"/><path class="cls-6" d="M307.17,171.13a11.31,11.31,0,0,1,.13,1.68c.06,1.08.08,2.64.07,4.58,0,3.88-.31,9.22-.86,15.1s-1.11,11.2-1.42,15c-.14,1.86-.26,3.4-.35,4.57a11.2,11.2,0,0,1-.18,1.67,10.46,10.46,0,0,1,0-1.68c0-1.09.09-2.65.19-4.58.22-3.87.71-9.2,1.27-15.07s.91-11.2,1-15.07c.06-1.93.09-3.49.09-4.57A10.18,10.18,0,0,1,307.17,171.13Z"/><g class="cls-11"><path d="M281.79,236.26a180.53,180.53,0,0,1-29.73-2.46l-24.79-3.11a15.23,15.23,0,0,0,13.21,15.92c4,.53,8-.55,12-1.26,6.82-1.22,13.78-1.36,20.7-1.74,2.26-.13,4.63-.31,6.54-1.53S282.86,238.25,281.79,236.26Z"/></g><path class="cls-7" d="M225.53,155.66s-7,4.46-8.44,11.49,3.4,43.49,5.28,51.59c2.75,11.9,8.86,22.09,14.61,22.79s42.79-2.81,42.79-2.81l3.11-20.1-35-2.67-1.64-2.17L242.19,181"/><path class="cls-6" d="M242.19,181s0,.19.1.56.13,1,.23,1.68c.2,1.5.48,3.68.85,6.49.72,5.66,1.77,13.85,3.06,24l0-.09,1.64,2.16-.13-.07,35,2.62.25,0,0,.25c-1,6.39-2,13.13-3.1,20.11l0,.2-.2,0c-7.48.7-15.23,1.37-23.19,2-3.94.29-7.84.55-11.68.74-1.93.09-3.84.18-5.74.17a13.93,13.93,0,0,1-1.44,0l-.71,0c-.24,0-.48-.1-.72-.15a8,8,0,0,1-2.63-1.19,16.83,16.83,0,0,1-3.94-4,32.23,32.23,0,0,1-2.89-4.64A52.64,52.64,0,0,1,223,222a74.57,74.57,0,0,1-2.05-9.81q-.76-4.82-1.37-9.35c-.8-6-1.45-11.67-1.95-16.83s-.85-9.83-.91-14a21.93,21.93,0,0,1,.45-5.73,15.35,15.35,0,0,1,2-4.39,21.76,21.76,0,0,1,4.48-4.94c.59-.48,1.06-.83,1.38-1.05a4.75,4.75,0,0,1,.5-.31l-.47.36c-.31.23-.77.58-1.35,1.08a22.55,22.55,0,0,0-4.37,5,15.28,15.28,0,0,0-1.94,4.35,21.77,21.77,0,0,0-.4,5.66c.09,4.1.47,8.77,1,13.92s1.19,10.78,2,16.81q.62,4.53,1.39,9.33a74.19,74.19,0,0,0,2.06,9.76,52.41,52.41,0,0,0,3.84,9.71,32,32,0,0,0,2.85,4.57A16.28,16.28,0,0,0,234,240a7.33,7.33,0,0,0,2.45,1.11c.22.05.44.11.67.14l.69,0c.46,0,.93,0,1.4,0,1.88,0,3.79-.08,5.71-.17,3.84-.19,7.74-.46,11.68-.75,7.94-.61,15.7-1.28,23.17-2l-.22.22c1.08-7,2.13-13.73,3.12-20.11l.22.28-35-2.73h-.09l0-.07-1.63-2.17,0,0v0c-1.23-10.18-2.21-18.38-2.9-24.05-.32-2.81-.58-5-.75-6.49-.08-.73-.14-1.29-.19-1.69S242.19,181,242.19,181Z"/><path class="cls-6" d="M241.91,173.64c-.1,0,0-1.37-.53-3.49a15.29,15.29,0,0,0-11.31-11.38c-2.11-.52-3.48-.46-3.48-.56a3.36,3.36,0,0,1,1-.08,13.39,13.39,0,0,1,2.61.28,14.84,14.84,0,0,1,11.58,11.66,13.08,13.08,0,0,1,.26,2.61A3.09,3.09,0,0,1,241.91,173.64Z"/><path class="cls-7" d="M337.59,215a5,5,0,0,1,.73-2.42c.65-.72,3.47-1.21,3.47-1.21l9.35-14.12.91-8.55,3.67-25.33s7.07-12.93,16.24-13.67c3.73-.3-.6,27.3-.93,29.1-.07.35-3.51,37.33-3.51,37.33l-2.25,13.07s-7.26,2.76-9.93,4-4.11-.33-4.11-.33Z"/><path class="cls-6" d="M426.52,253.51a2.38,2.38,0,0,1-.54.26l-1.58.64c-1.38.55-3.39,1.28-5.91,2.1s-5.55,1.71-8.95,2.56-7.18,1.62-11.17,2.25-7.84,1-11.33,1.28-6.66.33-9.31.31-4.79-.09-6.27-.2l-1.7-.12a2.13,2.13,0,0,1-.59-.08,2.79,2.79,0,0,1,.6,0l1.7,0c1.48.05,3.62.07,6.26,0s5.79-.16,9.27-.41,7.3-.7,11.29-1.31,7.74-1.41,11.14-2.21,6.43-1.66,8.95-2.45,4.56-1.45,5.95-1.94l1.61-.55A3.16,3.16,0,0,1,426.52,253.51Z"/><path class="cls-7" d="M372,149.67l21.89-7.2s-.11,5.89,8.4,6.08c9.81.21,18.05-8.41,18.05-8.41s20.39,6.35,24.67,9.8-9.71,75.6-9.71,75.6L434,247a16,16,0,0,1,2.1,7.21c0,3.73.14,6.21.14,6.21-26.14,7.89-52.09,14.72-76,7.09,0,0,.59-12.68,2-16.13s1.13-3.77,1.13-3.77L365.64,208l.42-29.84Z"/><path class="cls-7" d="M445.18,149.91a22.34,22.34,0,0,1,8.24,13.36c1.79,9,5.71,60.94,5.71,60.94l-24.94-.9s-5-43-5-44,5.4-22.35,5.73-22.84S445.18,149.91,445.18,149.91Z"/><path class="cls-6" d="M440.42,150.42a46.43,46.43,0,0,0-4.47,3.51,48.06,48.06,0,0,0-3.63,4.37,14.85,14.85,0,0,1,8.1-7.88Z"/><path class="cls-12" d="M456.68,224.18l0,6.21c0,4.59-10,52.69-10,52.69l-14.86-5L437,231.34l.22-7.86Z"/><path class="cls-12" d="M431.51,281.41s-5.94,4.48-7.24,6.25-4.52,8.08-6.93,9.92a1.82,1.82,0,0,0,2.87,1.23,20.51,20.51,0,0,0,6.27-5.44c1-1.54,2.06-.64,2.12.71s-1.09,10.43-1.09,10.43-2.84,10.12-2.07,11.25a1.84,1.84,0,0,0,2.89.13c.38-.53,3.58-9,3.58-9l.82-4.59s-1.65,14.56-.72,15.7a1.58,1.58,0,0,0,2.55.11c.64-.58,1.3-7,1.3-7l1.5-8.59-.27,16.37s.17,1.55,1.39,1.61,2-1.73,2-1.73l1.76-16.87s-.57,9.38.06,9.86c.84.66,1.61.44,1.89-.27.56-1.47,1.38-9.9,1.38-9.9l.78-16.06.82-7.74-15-1Z"/><path class="cls-7" d="M389,146.36c.32-2.19,3.29-8.67,3.29-8.67l5.84,7.54h0l20.67-12.43,5.08,8.48-16.29,11.27-8.23-1.29-6.38-1.17Z"/><path class="cls-6" d="M429.27,177c.14,0,1.05,8,2,17.9s1.65,17.95,1.5,18-1.05-8-2-17.9S429.12,177,429.27,177Z"/><path class="cls-6" d="M459.13,224.21a2.45,2.45,0,0,1-.61.06c-.4,0-1,0-1.75,0-1.52,0-3.72,0-6.44-.15s-5.95-.28-9.53-.32c-.9,0-1.81,0-2.77,0a6.07,6.07,0,0,1-2.89-.72,5.07,5.07,0,0,1-2-2.36,12.48,12.48,0,0,1-.85-3,11.27,11.27,0,0,1-.21-3.12,5.87,5.87,0,0,1,.32-1.54,2.33,2.33,0,0,1,.43-.72,1.65,1.65,0,0,1,.73-.45,6.85,6.85,0,0,1,1.51-.17l1.42-.07,2.77-.1c3.59-.09,6.83-.05,9.55,0l6.44.11,1.75,0a2.45,2.45,0,0,1,.61.06,4.19,4.19,0,0,1-.61,0l-1.75.05-6.44.06c-2.72,0-5.95,0-9.54.14l-2.75.11-1.42.08a6.61,6.61,0,0,0-1.38.16c-.82.21-1,1.32-1.11,2.25a11.24,11.24,0,0,0,.2,3,12.34,12.34,0,0,0,.81,2.89,4.56,4.56,0,0,0,1.79,2.12c1.62.93,3.61.6,5.39.69,3.6.07,6.83.29,9.55.43s4.91.27,6.42.32l1.75,0A2.92,2.92,0,0,1,459.13,224.21Z"/><path class="cls-6" d="M365.57,171.13a2.89,2.89,0,0,1,0,.7c0,.51,0,1.17,0,2-.07,1.8-.16,4.3-.27,7.37-.22,6.21-.5,14.8-.68,24.29s-.23,18.09-.24,24.31c0,3.07,0,5.57,0,7.37,0,.83,0,1.49,0,2a3.38,3.38,0,0,1,0,.69,3.15,3.15,0,0,1-.06-.69c0-.51,0-1.18-.08-2-.06-1.74-.11-4.25-.16-7.36-.08-6.23-.09-14.83.09-24.33s.52-18.09.84-24.3c.16-3.11.31-5.62.43-7.36.07-.82.12-1.49.16-2A5.58,5.58,0,0,1,365.57,171.13Z"/><path class="cls-6" d="M359.44,228.93c-.08,0-.61-1.36-1.56-3.56a30.14,30.14,0,0,0-4.82-7.94,15.46,15.46,0,0,0-7.76-4.79,17,17,0,0,0-3.83-.33,3.17,3.17,0,0,1,1-.2,10.12,10.12,0,0,1,2.87.17,15,15,0,0,1,8.07,4.81,27.18,27.18,0,0,1,4.77,8.14c.44,1.12.75,2,1,2.69A4.27,4.27,0,0,1,359.44,228.93Z"/><path class="cls-6" d="M357.2,201.82a13.71,13.71,0,0,1-5.67-3.35,45.86,45.86,0,0,1,5.67,3.35Z"/><path class="cls-6" d="M423.58,141.28s-.12.15-.39.38-.67.57-1.2,1c-1.06.85-2.61,2-4.6,3.46a115.66,115.66,0,0,1-16.47,9.7l-.21.1-.12-.19c-.26-.39-.53-.81-.78-1.24a23.79,23.79,0,0,1-2.65-6.83l.5,0a13.44,13.44,0,0,1-1.74,4.45c-.75,1.32-1.52,2.52-2.29,3.63l-.24.33-.14-.38-2.95-8.32c-.32-1-.58-1.73-.79-2.32a4.49,4.49,0,0,1-.23-.84,5.2,5.2,0,0,1,.35.79l.9,2.28c.77,2,1.84,4.87,3.12,8.26l-.37-.05c.75-1.09,1.5-2.3,2.22-3.61a13.19,13.19,0,0,0,1.66-4.27l.19-1.44.31,1.41a23.25,23.25,0,0,0,2.6,6.68c.25.42.51.83.76,1.21l-.33-.09a127.7,127.7,0,0,0,16.5-9.53c2-1.36,3.59-2.51,4.68-3.31l1.25-.92A2.47,2.47,0,0,1,423.58,141.28Z"/><path class="cls-6" d="M393.45,269.56a1.64,1.64,0,0,1,0-.29c0-.23,0-.51,0-.87,0-.79,0-1.91.06-3.32.08-2.92.19-7.08.33-12.21.34-10.34.79-24.57,1.3-40.28s1.07-29.94,1.45-40.28c.2-5.13.37-9.29.49-12.21.07-1.41.13-2.52.16-3.31l.06-.87a1.36,1.36,0,0,1,0-.29,1.36,1.36,0,0,1,0,.29v.86c0,.8,0,1.91-.06,3.32-.08,2.92-.2,7.08-.34,12.21-.33,10.34-.79,24.57-1.29,40.29s-1.08,29.93-1.45,40.27c-.21,5.13-.38,9.29-.5,12.21-.06,1.41-.12,2.52-.16,3.32l-.05.86A1.36,1.36,0,0,1,393.45,269.56Z"/><path class="cls-8" d="M353.83,176.45s3.56-2.92,4.26-6.55,1.91-7.77,1.91-7.77,4.33-2.46,4.21-4.21-2.34-2.35-2.34-2.35a32.19,32.19,0,0,0-6,4.46c-2.11,2.22-7.44,12.35-7.44,12.35Z"/><path class="cls-12" d="M307.42,220.93s9.5.43,12.7-.27,19.2-6.29,19.2-6.29,12.94,7.07,13.74,12.13-1.07,6.71-1.07,6.71l-42.14,2.21-5.93-5Z"/><path class="cls-8" d="M291.69,220.93h7.24s19.8,10.52,20.47,11.81c1,1.88.73,3.07-1.34,2.75-1.16-.17-10.55-4.72-10.55-4.72l-.23.79S312,236,312,237.3s-1.18,3.71-3.23,2.92c0,0-1,3-2.2,3.46a4,4,0,0,1-2.52,0s-.79,1.81-2.29,1.81a5.59,5.59,0,0,1-3-1.26l-7.95-7.79-10.43-.16,2.47-16.08Z"/><path class="cls-9" d="M302.27,240.83c.12-.08.59.44,1.05,1.16s.72,1.36.6,1.44-.59-.44-1.05-1.16S302.15,240.9,302.27,240.83Z"/><path class="cls-9" d="M306,237.35c.12-.09.75.54,1.5,1.34s1.35,1.47,1.25,1.58-.86-.4-1.63-1.22S305.93,237.43,306,237.35Z"/><path class="cls-12" d="M309.45,222.2s-6.69-6.06-7.87-6.22-6.7.16-7.95,1.6-.63,8.09-.4,8.17a2.84,2.84,0,0,0,3.07-.87,18.48,18.48,0,0,0,1.89-4.41l1.35.44s1.06,3.18,7.49,4.08Z"/><path class="cls-12" d="M283.47,236.19s-.24,1.82,1,2.45a4.66,4.66,0,0,0,3.07,0l.47-2.74S284.57,233.66,283.47,236.19Z"/><path class="cls-12" d="M290.43,241.31s-4.32.05-3.54-2.67,2.68-4.33,3.54-4.33,3.62,0,2.6,2.64A15.28,15.28,0,0,1,290.43,241.31Z"/><path class="cls-12" d="M294.4,242.65s-4.52,1.18-4-1.34,2.34-6,4-5.51,3,1.18,2.49,2.6A31.55,31.55,0,0,1,294.4,242.65Z"/><path class="cls-12" d="M300.2,242.93s-1.42,1.77-2.52,1.77-3.28-2-3.28-2l2.9-5.11a2.11,2.11,0,0,1,2.11,1.8,18.26,18.26,0,0,1,.22,2.46Z"/><path class="cls-13" d="M297.37,237.66a17.37,17.37,0,0,1-3.07,5.14,9,9,0,0,1,1.31-2.7A9.07,9.07,0,0,1,297.37,237.66Z"/><path class="cls-13" d="M293.5,235.92c.11.1-.85,1.2-1.74,2.74s-1.39,2.91-1.54,2.87a8.58,8.58,0,0,1,3.28-5.61Z"/><path class="cls-13" d="M289.6,234.89c.09.12-.82.84-1.57,2s-1,2.28-1.2,2.25a3.55,3.55,0,0,1,.76-2.54C288.41,235.35,289.54,234.76,289.6,234.89Z"/><path class="cls-6" d="M109.93,112.22a17.38,17.38,0,0,1,6.45,14.72c-.21,2.7-.95,5.78.8,7.85s5.16,2,6.83,4.08c2,2.47.32,6.15,1,9.23a6.26,6.26,0,0,0,6.65,4.65,24.52,24.52,0,0,1-12.1,5.25l-3.38-4.35c1.28,1.52.94,3.95-.3,5.5a10.21,10.21,0,0,1-5.06,3,30.93,30.93,0,0,1-27.13-4.41"/><path class="cls-6" d="M59.14,136.09c.67-2.07,1.81-4,2.27-6.12,1-4.58-1.26-9.74,1-13.86,1.59-2.93,5-4.37,8.14-5.35s6.61-1.81,9-4.15c1.74-1.72,2.73-4.08,4.47-5.8,2.48-2.45,6.13-3.28,9.61-3.5A20.9,20.9,0,0,1,104,99a11.46,11.46,0,0,1,6.45,8.07c.28,1.72.07,3.53.61,5.18.6,1.83,2,3.25,2.91,4.95a9.17,9.17,0,0,1-2.29,11L87.2,159.87c-5.15,1.95-17.62-.4-21.6-4.21S57.43,141.32,59.14,136.09Z"/><path class="cls-8" d="M111.07,124.18c-1-7.19-6.48-15.68-13.62-14.37l-22,7.41A4.25,4.25,0,0,0,72,121.81l6.5,52s-1.63,1.35-2.69.94a.3.3,0,0,0-.36.45c2.65,3.84,15.15,20.64,28,15.51,2.88-1.14-.3-10.21,0-13.57l-.38-8.58c-.29-4.38-.43-6.17-.42-6.13s9.11-2.24,10.1-14.43C113.25,142,112.19,132.17,111.07,124.18Z"/><path class="cls-6" d="M109.54,135.25a1.55,1.55,0,0,1-1.37,1.67,1.48,1.48,0,0,1-1.7-1.27,1.55,1.55,0,0,1,1.37-1.67A1.49,1.49,0,0,1,109.54,135.25Z"/><path class="cls-6" d="M94.53,136.19a1.55,1.55,0,0,1-1.37,1.67,1.48,1.48,0,0,1-1.7-1.27,1.55,1.55,0,0,1,1.37-1.67A1.49,1.49,0,0,1,94.53,136.19Z"/><path class="cls-6" d="M110.09,130.16c-.17.28-1.6-.63-3.4-.37s-3,1.5-3.19,1.27,0-.59.52-1.16a4.17,4.17,0,0,1,2.51-1.32,4.1,4.1,0,0,1,2.76.6C109.92,129.6,110.18,130,110.09,130.16Z"/><path class="cls-6" d="M93.94,131.49c-.22.26-1.63-.77-3.57-.68s-3.3,1.17-3.52.93.09-.57.69-1.08a4.7,4.7,0,0,1,2.81-1.06,4.6,4.6,0,0,1,2.85.86C93.82,130.93,94,131.37,93.94,131.49Z"/><path class="cls-6" d="M100,142.88a11.46,11.46,0,0,1,2.66-.69c.42-.08.82-.19.87-.49a2.27,2.27,0,0,0-.38-1.24c-.48-1-1-2-1.5-3.13-2.1-4.47-3.65-8.15-3.47-8.24s2,3.47,4.12,7.94c.51,1.1,1,2.15,1.45,3.16a2.45,2.45,0,0,1,.35,1.65,1.06,1.06,0,0,1-.65.67,2.72,2.72,0,0,1-.71.16A10.41,10.41,0,0,1,100,142.88Z"/><path class="cls-9" d="M102.66,162.46A30.8,30.8,0,0,1,86.2,159.4s4.71,8.14,16.67,6.08Z"/><path class="cls-9" d="M94.93,147.73a2.71,2.71,0,0,1,.85-1,2.1,2.1,0,0,1,1.44-.15,3.43,3.43,0,0,1,1.89,1,2,2,0,0,1,.47,2h0c-.19.7-1.22,1.08-1.93,1.2a3.14,3.14,0,0,1-2.07-.43,1.81,1.81,0,0,1-1.06-1.38A2.27,2.27,0,0,1,94.93,147.73Z"/><path class="cls-6" d="M95.27,145.39c.27,0,.41,1.77,2.06,2.93s3.54.82,3.58,1.07-.4.38-1.21.47a4.58,4.58,0,0,1-3-.79,3.94,3.94,0,0,1-1.6-2.47C95,145.85,95.15,145.39,95.27,145.39Z"/><path class="cls-6" d="M93.79,125c-.13.46-1.81.37-3.74.76s-3.46,1-3.75.65c-.13-.18.11-.63.71-1.12a6.71,6.71,0,0,1,5.71-1.08C93.46,124.44,93.84,124.77,93.79,125Z"/><path class="cls-6" d="M109.07,124.07c-.31.41-1.65.12-3.22.22s-2.89.48-3.22.11c-.15-.19,0-.58.58-1a5.23,5.23,0,0,1,5.19-.26C109,123.5,109.2,123.88,109.07,124.07Z"/><path class="cls-6" d="M70.54,119c1.11-1.71,3.11-2.59,5-3.32a111.32,111.32,0,0,1,25.53-6.51c1.09,1.8.08,4.23-1.56,5.54s-3.74,1.82-5.71,2.55-4,1.87-4.78,3.8-.13,4.49-.89,6.59c-1.3,3.61-6.33,4.77-7.61,8.38-1,2.74.61,5.65,1,8.52a10.37,10.37,0,0,1-10.18,11.8q-.9-15.53-1.79-31.06C69.45,123.09,69.36,120.76,70.54,119Z"/><path class="cls-6" d="M49.68,145.1c1.64-1.46,3.69-2.73,4.34-4.83.95-3.05-1.5-6.64.08-9.42,1.44-2.53,5.68-2.41,7-5,1-2-.16-3.81.24-5.59s2.92-3.33,4.73-3.12l14.14,20.49c1.31,6.87,2.63,10.53,1.15,14.55a32.61,32.61,0,0,0-2.18,6.68c-.32,2.33.28,5,2.18,6.34-8.45.67-16.37-3.76-23.69-8l-7.75-4.53a5.84,5.84,0,0,1-2.13-1.77C46.68,149,48.05,146.57,49.68,145.1Z"/><path class="cls-7" d="M57.48,155.09a3.64,3.64,0,0,0,.9.18,7.56,7.56,0,0,0,2.63-.19,8.12,8.12,0,0,0,3.68-2,8,8,0,0,0,2.41-4.94,8.22,8.22,0,0,0-.27-3.24,13.56,13.56,0,0,0-1.57-3.14,12.12,12.12,0,0,1-1.62-3.26,4.18,4.18,0,0,1,.45-3.58c.77-1,2.2-1.28,3.52-1.82A3.4,3.4,0,0,0,70,129.57a24.41,24.41,0,0,0-1-4.4A4.78,4.78,0,0,1,69,123a3.07,3.07,0,0,1,1.22-1.72,8.45,8.45,0,0,1,4.28-1.14,9.21,9.21,0,0,0,4.35-1.28,8.18,8.18,0,0,0,3-3.23,13.46,13.46,0,0,0,1.11-4,18.67,18.67,0,0,1,.82-3.8,8.56,8.56,0,0,1,2-3,9.49,9.49,0,0,1,11.08-1.56,11.53,11.53,0,0,1,3.26,2.48,15.14,15.14,0,0,1,2,2.89s0-.08-.08-.22a5,5,0,0,0-.29-.62,11,11,0,0,0-1.5-2.17A11.33,11.33,0,0,0,97,103a9.85,9.85,0,0,0-5.39-1.19,10,10,0,0,0-6.1,2.7,8.79,8.79,0,0,0-2.11,3.13,19.27,19.27,0,0,0-.87,3.89,13.45,13.45,0,0,1-1.07,3.91,7.88,7.88,0,0,1-2.82,3,8.69,8.69,0,0,1-4.15,1.2A8.91,8.91,0,0,0,70,120.89a3.51,3.51,0,0,0-1.41,2,5.31,5.31,0,0,0,0,2.38,24.3,24.3,0,0,1,1,4.32,3.29,3.29,0,0,1-.49,1.94,3.37,3.37,0,0,1-1.59,1.17c-.63.26-1.31.45-2,.72a4,4,0,0,0-1.74,1.25,4.62,4.62,0,0,0-.51,4A12.82,12.82,0,0,0,64.91,142a12.61,12.61,0,0,1,1.55,3,7.92,7.92,0,0,1-2,7.88,8.22,8.22,0,0,1-3.53,2A8.83,8.83,0,0,1,57.48,155.09Z"/><path class="cls-6" d="M46.2,140.53a1.81,1.81,0,0,0-.28.69,3.07,3.07,0,0,0,.37,2.1,3.12,3.12,0,0,0,1.08,1.13,3.32,3.32,0,0,0,1.8.48,4.2,4.2,0,0,0,3.71-2.35,5.65,5.65,0,0,0,.6-2.57,7.74,7.74,0,0,0-.6-2.8c-.67-1.83-1.88-3.61-1.91-5.75a3.91,3.91,0,0,1,1-2.9,4.24,4.24,0,0,1,3.07-1,10.35,10.35,0,0,0,3.66-.38A3.23,3.23,0,0,0,60.19,126a4.61,4.61,0,0,0,.62-1.86,15.37,15.37,0,0,0-.31-3.76,8.13,8.13,0,0,1,.2-3.48,8.82,8.82,0,0,1,3.93-5.17,12.42,12.42,0,0,1,5.86-1.33,17.59,17.59,0,0,0,5.35-.85,11.13,11.13,0,0,0,3.79-2.38,11,11,0,0,0,2.07-2.66,8,8,0,0,0,1-2.69,15.5,15.5,0,0,1-1.17,2.59,11.33,11.33,0,0,1-2.1,2.56,10.89,10.89,0,0,1-3.72,2.25,17.31,17.31,0,0,1-5.25.77,12.77,12.77,0,0,0-6.07,1.35,9.29,9.29,0,0,0-4.17,5.43,8.72,8.72,0,0,0-.22,3.67,15.06,15.06,0,0,1,.31,3.64,3.17,3.17,0,0,1-1.82,2.74,10.32,10.32,0,0,1-3.49.35,4.71,4.71,0,0,0-3.39,1.1,4.35,4.35,0,0,0-1.1,3.25,8.16,8.16,0,0,0,.77,3.15c.41,1,.87,1.85,1.21,2.74a7.32,7.32,0,0,1,.6,2.65,5.33,5.33,0,0,1-.53,2.41,3.93,3.93,0,0,1-3.4,2.24,3.15,3.15,0,0,1-1.68-.41,3.1,3.1,0,0,1-1-1,3.05,3.05,0,0,1-.43-2C46.1,140.77,46.23,140.54,46.2,140.53Z"/><path class="cls-6" d="M135.28,145.58a3.27,3.27,0,0,1,0,2.21,2.93,2.93,0,0,1-1.76,1.78,3,3,0,0,1-3.1-.85,2.84,2.84,0,0,1-.73-1.77,6,6,0,0,1,.32-2.14c.45-1.43,1.37-3,1.23-4.85a6.84,6.84,0,0,0-2.57-4.89,8.12,8.12,0,0,0-2.64-1.38,11.35,11.35,0,0,0-3-.44,16.14,16.14,0,0,1-2.92-.3,3.83,3.83,0,0,1-2.27-1.42A4.84,4.84,0,0,1,117,129a9.8,9.8,0,0,1,.22-2.6,19.78,19.78,0,0,0,.76-5,7.47,7.47,0,0,0-1.51-4.11,9.77,9.77,0,0,0-2.75-2.32,18,18,0,0,1-2.21-1.52,5.65,5.65,0,0,1-1.38-1.78s0,0,0,.14a3.35,3.35,0,0,0,.17.42,4.53,4.53,0,0,0,1.06,1.36,15.84,15.84,0,0,0,2.18,1.61,9.72,9.72,0,0,1,2.62,2.3,7.2,7.2,0,0,1,1.38,3.92,19.58,19.58,0,0,1-.79,4.84,9.79,9.79,0,0,0-.25,2.73,5.33,5.33,0,0,0,.91,2.75,4.33,4.33,0,0,0,2.54,1.6,16.23,16.23,0,0,0,3,.33,11.39,11.39,0,0,1,2.89.4,7.64,7.64,0,0,1,2.48,1.3,6.41,6.41,0,0,1,2.42,4.54c.15,1.7-.7,3.2-1.16,4.7a6.05,6.05,0,0,0-.32,2.29,3.23,3.23,0,0,0,.85,2,3.35,3.35,0,0,0,3.45.87,3.1,3.1,0,0,0,1.85-2,3.14,3.14,0,0,0,.08-1.72A1.8,1.8,0,0,0,135.28,145.58Z"/><polygon class="cls-8" points="78.86 437.57 82.65 470.23 96.96 468.05 97.92 435.86 78.86 437.57"/><path class="cls-7" d="M97,461.57s-9.61,8.15-15,2.17L81,466.92l-4.21,22.43a3,3,0,0,0,1.87,3.41,2.77,2.77,0,0,0,2.91-.81c3.88-4.38,18.07-20.57,17.77-22.59L98.89,464a2.73,2.73,0,0,0-1.88-2.4Z"/><g class="cls-10"><path class="cls-5" d="M79.16,492.87l20-25.39.08,1.18a3.33,3.33,0,0,1-.85,2.68c-1.58,2.57-6.07,8.37-16.8,20.6a2.76,2.76,0,0,1-2.48.93Z"/></g><g class="cls-10"><path class="cls-5" d="M95.78,464.22a1.76,1.76,0,0,0-.31,2.29,1.6,1.6,0,0,0,2.21.32,1.85,1.85,0,0,0,.32-2.42,1.66,1.66,0,0,0-2.34-.08"/></g><path class="cls-6" d="M84.57,480.24a8.54,8.54,0,0,0-2.53-2,8.37,8.37,0,0,0-3.18-.39c0-.06.31-.3.94-.44a4.24,4.24,0,0,1,2.46.26,4.31,4.31,0,0,1,1.95,1.57C84.56,479.81,84.63,480.22,84.57,480.24Z"/><path class="cls-6" d="M82.88,484.12a20.89,20.89,0,0,0-2.49-1,23.37,23.37,0,0,0-2.68-.16c-.09-.13,1.18-.82,2.81-.44S83,484,82.88,484.12Z"/><path class="cls-6" d="M87.85,475.2c-.12.14-1.55-1.16-3.73-1.84s-4.08-.48-4.1-.66,1.94-.68,4.28.08S88,475.11,87.85,475.2Z"/><path class="cls-6" d="M87.86,468.47c-.06.17-1.6-.36-3.56-.29s-3.48.67-3.55.5,1.42-1.06,3.53-1.11A5.32,5.32,0,0,1,87.86,468.47Z"/><path class="cls-6" d="M83.18,468.21a2.24,2.24,0,0,1,.08-1,7.23,7.23,0,0,1,1.12-2.66,3.2,3.2,0,0,1,1.52-1.39,1.11,1.11,0,0,1,1.23.39,1.9,1.9,0,0,1,.29,1.3,4,4,0,0,1-3.85,3.34,4.57,4.57,0,0,1-4.2-2.94,1.71,1.71,0,0,1,.07-1.36,1.1,1.1,0,0,1,1.22-.46,3.77,3.77,0,0,1,1.67,1.15,8.08,8.08,0,0,1,1.61,2.36,2.29,2.29,0,0,1,.31,1A12.76,12.76,0,0,0,82,464.84a3.65,3.65,0,0,0-1.49-1,.57.57,0,0,0-.66.25,1.13,1.13,0,0,0,0,.89,4.07,4.07,0,0,0,3.67,2.5,3.45,3.45,0,0,0,3.31-2.78,1.4,1.4,0,0,0-.16-.91.6.6,0,0,0-.68-.23,2.91,2.91,0,0,0-1.31,1.15A11,11,0,0,0,83.18,468.21Z"/><path class="cls-8" d="M135.57,463.3c-.33-.5-3.33-11.43-3.33-11.43l18.53-5,2.62,15.75Z"/><path class="cls-7" d="M153.23,459.48l0,1.26s20.39,8.3,20.65,12.35l-40.29.29.45-14.1C140.07,462.16,146.34,462.44,153.23,459.48Z"/><g class="cls-10"><path class="cls-5" d="M138.17,463.76a1.73,1.73,0,0,0-1.12,2,1.57,1.57,0,0,0,1.86,1.19,1.83,1.83,0,0,0,1.18-2.1,1.64,1.64,0,0,0-2.07-1"/></g><g class="cls-10"><path class="cls-5" d="M133.61,473.38l.11-3.39,38.58,1s1.8.81,1.6,2.14Z"/></g><path class="cls-6" d="M153.39,460.85c0,.21-1,.31-1.95,1s-1.47,1.55-1.66,1.47.11-1.28,1.29-2.07S153.43,460.66,153.39,460.85Z"/><path class="cls-6" d="M157.63,462.66c.05.2-.8.56-1.47,1.44s-.85,1.8-1,1.79-.33-1.17.51-2.25S157.62,462.46,157.63,462.66Z"/><path class="cls-6" d="M160.06,468c-.17,0-.45-1,0-2.12s1.42-1.6,1.5-1.43-.48.78-.87,1.72S160.26,467.94,160.06,468Z"/><path class="cls-6" d="M119.82,258.4s13.42,53.25,22.06,106.11c7.11,43.48,10.26,90.55,10.26,90.55l-20.94,1.23s-12.75-53.92-22.69-92.68C99.35,327.86,91.9,309.1,91.9,309.1l-7.05-52.42Z"/><path class="cls-6" d="M65.25,256.68S46.88,281.5,48.43,307.42c.92,15.5,30.43,147.64,30.43,147.64h21.7L93.4,313.71l6.29-47.91Z"/><path class="cls-8" d="M147,160.16l-3.31,12.21-1.3,2.1s-.82,6.72-.8,8.15,2.32,8.74,2.32,8.74l-3.71,6.87,11.7,3.67s2.72-6.24,3.53-7,1.32-2.73,1.44-4.07,1.34-9.28,1.34-9.28,4.52-9,2.38-9.28a7.36,7.36,0,0,0-1.59.13s-2.69,5.89-3.5,6.06l-1.2-.6s1.84-8.86,1.86-10.5-.39-2.76-1.66-2.87c0,0-.92.44-1,.86s-1.82,10.28-2.37,10.13-.35-1-.35-1,2.42-12,2.23-12.65a1.86,1.86,0,0,0-2-1.5l-2,6.63s.79-5.52-.15-6.44A1.53,1.53,0,0,0,147,160.16Z"/><path class="cls-9" d="M151.05,186.47c-.09,0-.09-1-.58-2.62a10.26,10.26,0,0,0-3.89-5.28l-.17-.11,0-.18c.15-.88.3-1.8.45-2.75v-.05l0-.06a11.08,11.08,0,0,0,.53-1,10.25,10.25,0,0,0,1.1-3.52,3.74,3.74,0,0,0-.12-1.62,1.15,1.15,0,0,0-.92-.82l.19-.09c-1.29,1.4-2.37,2.54-3.13,3.33a8.21,8.21,0,0,1-1.26,1.19,7.11,7.11,0,0,1,1-1.38c.7-.85,1.72-2.05,3-3.48l.08-.09h.11a1.65,1.65,0,0,1,1.43,1.14,4.19,4.19,0,0,1,.19,1.86,10.63,10.63,0,0,1-1.14,3.74,11.52,11.52,0,0,1-.57,1l.05-.12c-.17,1-.33,1.87-.48,2.75l-.13-.3a10.05,10.05,0,0,1,3.94,5.67,8.52,8.52,0,0,1,.28,2C151.1,186.21,151.09,186.47,151.05,186.47Z"/><path class="cls-9" d="M150.44,176.79a8.2,8.2,0,0,1,3.73,1.36c1.92,1.1,3.16,2.42,3.05,2.54s-1.49-1-3.35-2S150.39,177,150.44,176.79Z"/><path class="cls-6" d="M121.61,189.87a4.46,4.46,0,0,1,.1.77c0,.57.09,1.31.16,2.22.15,1.92.25,4.71.32,8.15.12,6.9-.2,16.42-.89,26.91s-1.28,20-1.41,26.87c-.08,3.44-.1,6.22-.08,8.15v2.21a4.3,4.3,0,0,1,0,.78,3.68,3.68,0,0,1-.08-.77c0-.57-.07-1.31-.11-2.22-.1-1.92-.14-4.71-.11-8.16,0-6.9.55-16.41,1.23-26.9s1.08-20,1.06-26.86c0-3.44-.05-6.23-.12-8.15,0-.92,0-1.65,0-2.22A3.66,3.66,0,0,1,121.61,189.87Z"/><path class="cls-7" d="M138.76,194.55l-4.41,16.29-8.51-29.22a10.33,10.33,0,0,0-6.72-6.85l-6.86-1.56,7.59,58.46,1.7,4.39a11.72,11.72,0,0,0,6,6c7.11,3.21,16.08-.35,17.95-7.92l9.82-35Z"/><path class="cls-5" d="M66.6,191.89l5.31,66.51,43.57.37,4.1,4.17-1.17-53.48-15.1-38.09h0c-1.79,3.4-5.23,4.56-9.38,4.24-2.83-.22-8-.74-10.28-2.4l-5.93-5.57Z"/><path class="cls-7" d="M77.49,164.49l-4.59,5.43L50,179l14.08,68.08L53.34,273.4a65.34,65.34,0,0,0-2.81,8.52l-6.6,25.84S70.56,318.4,76.41,315s12.16-39.2,14.33-47,2.38-32.48.86-44.84-4.12-30.56-5.42-36.85S77.49,164.49,77.49,164.49Z"/><path class="cls-7" d="M103.34,166.46l3.32,5.13,13.81,3.5s3.63,18.19,3.63,23.17-2,60.25-2,62.85,10,37.94,9.1,40.1-11.27,3.69-11.27,3.69-3.9-30.56-3.9-41-.44-36-2.6-48.55-10-43.79-10-43.79Z"/><path class="cls-6" d="M116.21,269.74a.76.76,0,0,1,0-.26v-.76c0-.71,0-1.68,0-2.92.06-2.58.14-6.23.24-10.73.22-9.06.58-21.58.81-35.4,0-1.73,0-3.44,0-5.12s-.17-3.31-.3-4.94c-.26-3.25-.52-6.38-.82-9.36s-.65-5.8-1.09-8.42a36.49,36.49,0,0,0-2-7.08,91,91,0,0,0-4.55-9.69c-.58-1.08-1-1.94-1.39-2.56-.15-.27-.27-.49-.36-.67s-.12-.23-.11-.24a2.09,2.09,0,0,1,.15.21c.12.17.25.38.42.64.35.57.86,1.41,1.48,2.51a81.39,81.39,0,0,1,4.72,9.66,35.29,35.29,0,0,1,2.11,7.14c.47,2.63.83,5.46,1.15,8.45s.58,6.11.85,9.36c.13,1.63.32,3.28.31,5s0,3.4,0,5.13c-.23,13.83-.65,26.34-1,35.4-.17,4.5-.31,8.15-.42,10.73-.06,1.23-.11,2.2-.14,2.92,0,.3,0,.55,0,.75A1.11,1.11,0,0,1,116.21,269.74Z"/><path class="cls-6" d="M90.52,248.94a3.61,3.61,0,0,1-.12-.82c-.06-.53-.13-1.32-.2-2.34-.12-2-.25-5-.19-8.65,0-1.83.11-3.83.25-6a27.31,27.31,0,0,0-.82-6.7,113.89,113.89,0,0,0-5-14.83c-2.09-5.16-4.25-10-6.25-14.39a61.12,61.12,0,0,1-2.67-6.33,55.3,55.3,0,0,1-1.41-5.82c-.7-3.59-1.08-6.53-1.32-8.55-.12-1-.2-1.81-.25-2.34a7.19,7.19,0,0,1,0-.82,4.35,4.35,0,0,1,.15.8c.09.59.21,1.36.35,2.33.31,2,.75,4.93,1.49,8.5A58.91,58.91,0,0,0,76,188.76,61.75,61.75,0,0,0,78.67,195c2,4.38,4.21,9.22,6.3,14.39a109.06,109.06,0,0,1,5,14.92,27.17,27.17,0,0,1,.78,6.86c-.16,2.13-.26,4.13-.31,5.95-.11,3.64,0,6.59,0,8.63q.06,1.47.09,2.34A5.27,5.27,0,0,1,90.52,248.94Z"/><path class="cls-6" d="M123.75,190.68a3.31,3.31,0,0,1,.09.71q.06.78.15,2c.14,1.78.23,4.36.29,7.54.12,6.37-.18,15.17-.81,24.86s-1.19,18.47-1.31,24.82c-.07,3.18-.09,5.76-.07,7.53v2.05a3.68,3.68,0,0,1,0,.72,3.71,3.71,0,0,1-.07-.71c0-.53-.06-1.21-.11-2.05-.08-1.78-.12-4.36-.1-7.54,0-6.37.51-15.16,1.14-24.85s1-18.47,1-24.83c0-3.18,0-5.75-.11-7.53,0-.84,0-1.52,0-2.05A3,3,0,0,1,123.75,190.68Z"/><path class="cls-6" d="M61.28,215.54a6.8,6.8,0,0,1-.09-1.43c0-.91-.07-2.24-.18-3.87a68.07,68.07,0,0,0-2.09-12.58,68.16,68.16,0,0,0-4.47-11.95c-.72-1.47-1.33-2.65-1.77-3.45A7.4,7.4,0,0,1,52,181a6.23,6.23,0,0,1,.82,1.17c.51.77,1.18,1.93,1.94,3.38a58.81,58.81,0,0,1,4.65,12,59,59,0,0,1,1.95,12.71c.06,1.64.06,3,0,3.89A7.24,7.24,0,0,1,61.28,215.54Z"/><rect class="cls-2" x="24.51" y="275.96" width="68.94" height="48.92" rx="2.71" transform="translate(-48.32 13.69) rotate(-9.41)"/><path class="cls-8" d="M57.34,300.16s5,3.78,6.12,5.28,3.82,6.83,5.85,8.38a1.53,1.53,0,0,1-2.43,1,17.41,17.41,0,0,1-5.29-4.59c-.86-1.3-1.75-.54-1.8.59s.93,8.83.93,8.83,2.4,8.54,1.75,9.5a1.56,1.56,0,0,1-2.44.11c-.33-.44-3-7.59-3-7.59l-.7-3.88s1.4,12.3.62,13.27a1.35,1.35,0,0,1-2.16.1c-.54-.49-1.1-5.93-1.1-5.93L52.39,318l.23,13.84s-.14,1.31-1.17,1.36-1.72-1.47-1.72-1.47l-1.49-14.26s.48,7.93-.05,8.34c-.71.56-1.36.37-1.6-.23-.47-1.24-1.17-8.37-1.17-8.37l-.65-13.57-.7-6.54,12.7-.83Z"/><path class="cls-7" d="M50,179s-5.91,7.36-7.58,14.43c-2.84,11.95-9.17,50.44-8.52,58.07s6,51.48,6,51.48l19.54-4.43-3.53-50,5.54-32.36"/><path class="cls-6" d="M61.45,216.12s0,.19-.07.57-.15.95-.26,1.67c-.25,1.48-.6,3.64-1,6.42-.94,5.6-2.3,13.69-4,23.73v0c1,13.48,2.21,30.7,3.6,50v.21l-.21.05L40,303.21l-.28.06,0-.29c-.44-3.8-.92-7.82-1.39-11.9-.92-7.89-1.82-15.6-2.69-23q-.66-5.58-1.28-11l-.61-5.31a34,34,0,0,1,.09-5.25c.55-6.88,1.5-13.35,2.39-19.41s1.85-11.67,2.75-16.8,1.79-9.75,2.66-13.8A42.65,42.65,0,0,1,43,190.94a35.1,35.1,0,0,1,2-4.43,49.37,49.37,0,0,1,3.55-5.69c.45-.62.8-1.09,1.05-1.4S50,179,50,179s-.11.17-.34.49l-1,1.42a54.46,54.46,0,0,0-3.46,5.72A36.45,36.45,0,0,0,43.24,191a42.91,42.91,0,0,0-1.4,5.56c-.83,4-1.69,8.68-2.58,13.8s-1.79,10.76-2.68,16.81-1.81,12.53-2.34,19.37a35.81,35.81,0,0,0-.09,5.18q.32,2.63.63,5.31.63,5.37,1.29,10.95c.87,7.43,1.77,15.13,2.69,23,.48,4.08,1,8.1,1.4,11.9l-.32-.22,19.54-4.43-.19.26c-1.34-19.33-2.53-36.55-3.46-50v-.05c1.75-10,3.16-18.11,4.14-23.71.5-2.77.88-4.92,1.15-6.4.13-.72.23-1.27.31-1.66S61.45,216.12,61.45,216.12Z"/><path class="cls-6" d="M99.14,230.89a9.18,9.18,0,0,0,1.48-2.33,39.53,39.53,0,0,0,1.87-6.46,43.81,43.81,0,0,0,.81-6.7c.08-1.73.06-2.8.13-2.81a10.66,10.66,0,0,1,.24,2.82,33.4,33.4,0,0,1-.67,6.79,30.44,30.44,0,0,1-2,6.51C100.18,230.34,99.17,231,99.14,230.89Z"/><path class="cls-6" d="M359.06,180.23S342.52,213.08,339,213.78"/></g></svg>