<svg xmlns="http://www.w3.org/2000/svg" viewBox="0 0 493.87 496.83"><defs><style>.cls-1{fill:#ebebeb;}.cls-2{fill:#e0e0e0;}.cls-3{fill:#f5f5f5;}.cls-4{fill:#fafafa;}.cls-5{fill:#263238;}.cls-6{opacity:0.6;}.cls-7{fill:#8ea382;}.cls-8{fill:#455a64;}.cls-9{fill:#f2ccb3;}.cls-10{fill:#e89a6a;}.cls-11{opacity:0.3;}.cls-12{fill:#fff;}.cls-13{fill:#b56760;}.cls-14{fill:#8a4a43;}.cls-15{fill:#ffbf9d;}.cls-16{fill:#ff9a6c;}</style></defs><title>pembentukan</title><g id="Desk"><path class="cls-1" d="M62.63,396.15a20.47,20.47,0,0,0-12.72-1.55c-2.31.39-4.71,1.08-6.28,2.81s-1.87,4.78-.07,6.27a6,6,0,0,0,4,1c3.37,0,7.1-.64,9.78,1.39,1.54,1.15,2.56,3.07,4.39,3.64a4.33,4.33,0,0,0,4.76-2.12,7.39,7.39,0,0,0,.54-5.47A8.31,8.31,0,0,0,62.63,396.15Z"/><path class="cls-1" d="M71.49,379c-2.36,3.38-7,2.26-9.09.2s-3-5.05-3.86-7.9c-1.87-6.51-3.76-13.34-2.37-20a11.09,11.09,0,0,1,2.56-5.43,5.81,5.81,0,0,1,5.49-1.83c2.32.62,3.76,2.89,4.8,5a47.54,47.54,0,0,1,4.7,20.43c0,3.29-.37,6.74-2.23,9.46"/><path class="cls-1" d="M78,383.89c-2.57-3.05-3.06-7.49-1.92-11.31a21.89,21.89,0,0,1,6.7-9.72,36.07,36.07,0,0,1,12-7.08,12.9,12.9,0,0,1,5.4-.92,5.69,5.69,0,0,1,4.53,2.74c1.26,2.41,0,5.33-1.26,7.71a91.89,91.89,0,0,1-7.88,12c-2.36,3.05-5.07,6.05-8.67,7.43s-7.34,1.21-9.25-1.28"/><path class="cls-2" d="M71.65,430a8,8,0,0,1-.21-1.53c-.11-1.12-.25-2.52-.41-4.19a62.2,62.2,0,0,0-.94-6.15,46.85,46.85,0,0,0-2.24-7.25,26.46,26.46,0,0,0-3.7-6.56,13.73,13.73,0,0,0-4.68-3.89,12.94,12.94,0,0,0-3.95-1.23A7.69,7.69,0,0,1,54,399a6.9,6.9,0,0,1,1.55,0A12,12,0,0,1,59.66,400,13.81,13.81,0,0,1,64.6,404a26.09,26.09,0,0,1,3.84,6.69A44.6,44.6,0,0,1,70.66,418a53,53,0,0,1,.82,6.22c.13,1.78.18,3.22.2,4.21A6.9,6.9,0,0,1,71.65,430Z"/><path class="cls-2" d="M71.36,426.78a3.61,3.61,0,0,1,0-.71c0-.54,0-1.21,0-2,0-1.77,0-4.33-.09-7.48-.16-6.32-.7-13.12-1.75-22.71-1-9-2.34-19.5-3.74-26.32-.31-1.55-.61-2.95-.9-4.17s-.5-2.28-.73-3.14-.35-1.46-.48-2a3,3,0,0,1-.12-.7,2.67,2.67,0,0,1,.25.67c.15.51.35,1.16.59,1.95s.53,1.9.84,3.12.65,2.61,1,4.15a231.88,231.88,0,0,1,3.94,24.43c1,9.61,1.52,18.35,1.56,24.69,0,3.16,0,5.73-.11,7.5,0,.82-.09,1.5-.12,2A3.31,3.31,0,0,1,71.36,426.78Z"/><path class="cls-2" d="M71.32,409.91a13.34,13.34,0,0,1,0-2.13A54.88,54.88,0,0,1,72,402a77.19,77.19,0,0,1,1.87-8.4,68.79,68.79,0,0,1,3.51-9.94,53.14,53.14,0,0,1,10.32-16.06,26.85,26.85,0,0,1,2.43-2.26c.37-.31.7-.63,1-.87l.94-.65a13.62,13.62,0,0,1,1.79-1.15A66,66,0,0,0,88,367.93a55.83,55.83,0,0,0-10.05,16,77.73,77.73,0,0,0-3.54,9.85,84.56,84.56,0,0,0-2,8.31c-.44,2.4-.7,4.36-.85,5.71A15.08,15.08,0,0,1,71.32,409.91Z"/><polygon class="cls-2" points="87.63 439.67 85.94 462.83 56.18 462.83 54.49 439.67 87.63 439.67"/><rect class="cls-2" x="50.94" y="430.54" width="39.56" height="9.13"/><polygon class="cls-1" points="90.5 461.94 90.5 464.47 88.64 464.47 51.6 464.47 51.6 461.94 90.5 461.94"/><polygon class="cls-2" points="86.82 468.92 88.64 464.47 53.02 464.47 55.14 468.92 86.82 468.92"/><path class="cls-3" d="M55.05,447.24a1.31,1.31,0,0,0,.13.21l.45.59,1.73,2.22.08.1.07-.11,4.26-5.89h-.24c1.26,1.8,2.67,3.79,4.19,5.94l.13.19.15-.18,5-5.91h-.29l.28.35,4.44,5.57.15.18.14-.19,4.19-5.93h-.24l5.16,5.88.09.11.07-.12c.69-1.14,1.23-2.06,1.62-2.72l.42-.72c.09-.17.13-.25.12-.26s-.06.07-.17.23l-.46.7-1.7,2.66H85l-5.08-5.95-.13-.16-.11.17-4.23,5.9h.28l-4.43-5.59c-.1-.11-.19-.23-.28-.34l-.14-.18-.14.18-5,5.92.28,0-4.24-5.91-.12-.17-.12.17-4.17,5.95h.15L55.71,448l-.49-.56C55.11,447.29,55.05,447.23,55.05,447.24Z"/><path class="cls-3" d="M54.08,439.52c0,.1,7.45.18,16.65.18s16.65-.08,16.65-.18-7.45-.19-16.65-.19S54.08,439.41,54.08,439.52Z"/><path class="cls-3" d="M52.58,464.72c0,.1,8.1.19,18.09.19s18.1-.09,18.1-.19-8.1-.18-18.1-.18S52.58,464.62,52.58,464.72Z"/><path class="cls-2" d="M393.52,376.71a32.8,32.8,0,0,0-14-4.84c-2.29-.24-4.8-.17-6.64,1.22a1.37,1.37,0,0,0-.69,1.22,1.55,1.55,0,0,0,.65.83,20.09,20.09,0,0,0,20.73,1.57"/><path class="cls-2" d="M393.16,376.31a67.63,67.63,0,0,1-9.07-8,22.86,22.86,0,0,1-5.69-10.52,4.22,4.22,0,0,1,.45-3.52c7.23,5.65,12.91,13,14.31,22"/><path class="cls-2" d="M393.45,376.65a32.65,32.65,0,0,1,.17-11.91A16.14,16.14,0,0,1,400,354.9c1.25,2.93.72,6.29-.16,9.35a45.48,45.48,0,0,1-6.3,13.25"/><path class="cls-2" d="M400.54,389.36c-4.3.52-8.05,2.79-11.27,5.7a21.27,21.27,0,0,0-6.44,11.07c4.22-.26,7.8-3.24,10.4-6.58s4.4-7,7.25-10.13"/><path class="cls-2" d="M402.08,391.39a27.79,27.79,0,0,1,3.21-26.29c2.45,8.73,1.55,18.58-3.21,26.29"/><path class="cls-2" d="M411.45,402.55a20.08,20.08,0,0,0-19.21,11.06c-.24.48-.45,1.08-.13,1.51a1.41,1.41,0,0,0,1.27.37c3.79-.24,7.14-2.52,9.91-5.12s5.19-5.59,8.25-7.83"/><path class="cls-2" d="M411.15,401.94a35.86,35.86,0,0,1-.36-20c.71-2.57,1.89-5.28,4.27-6.49a.67.67,0,0,1,1.07.36,12.1,12.1,0,0,1,1,5.74,34.47,34.47,0,0,1-.9,5.8c-.75,3.55-1.14,7.37-3.09,10.43a21,21,0,0,0-1.24,2.29c-.37.77-.37,1.05-.71,1.67"/><path class="cls-2" d="M436,405.64c-1.83-7,.12-15.47,4.52-21.2.33-.42.76-.87,1.29-.82.81.07,1,1.15,1,2A38.29,38.29,0,0,1,436,405.64"/><path class="cls-2" d="M438.19,407.16a30.82,30.82,0,0,0,25.3-5.14,20.48,20.48,0,0,0-13.7-1.68c-4.57,1-8.75,3.09-11.6,6.82"/><path class="cls-2" d="M440.08,402.51c4.75-7.75,13.87-12.81,23-13.28-1.05,3.7-4.09,6.57-7.51,8.31s-7.25,2.49-11,3.22c-1.47.29-3.48.6-4.43,1.75"/><path class="cls-2" d="M436.43,379.93a66.49,66.49,0,0,0,2.93-13.45,22.4,22.4,0,0,0-2.67-13.3c-4.45,8.6-4.9,18.64-.4,27.21"/><path class="cls-2" d="M451.38,372.37c5.2-9.45,15.8-17,26.53-18-4.14,10.3-15.43,18.26-26.53,18"/><path class="cls-2" d="M448.12,374.22c7.74,1.18,14.35,6.13,21.59,9.13a9.67,9.67,0,0,0,4.88.93,3.82,3.82,0,0,0,2.39-6.76,10.53,10.53,0,0,0-3.55-2.15c-7.88-3.28-16.34-3.36-24.65-1.37"/><path class="cls-2" d="M443.63,379.65c1.76.5,2.36,1.41,3.75,2.6a40.47,40.47,0,0,0,16.37,8.41c.62.15,1.44.21,1.75-.35s-.07-1.09-.42-1.53a22.49,22.49,0,0,0-9.89-6.71c-3.77-1.41-7.05-3.11-11.56-2.74"/><path class="cls-2" d="M438.57,346.83a31,31,0,0,0,23.76,8.08,1.64,1.64,0,0,0,1.08-.39c.6-.65-.12-1.65-.82-2.19-7-5.45-15.44-7.71-24-5.5"/><path class="cls-2" d="M444.57,344.63a33.14,33.14,0,0,1,29.64-4.89,23.49,23.49,0,0,1-14.12,6.2,44.44,44.44,0,0,1-15.52-1.31"/><path class="cls-2" d="M442.19,329.55c-.69-7-.24-12.47-.73-19.48,0-.56-.16-1.23-.68-1.43-.73-.28-1.34.62-1.58,1.36a22.33,22.33,0,0,0,3,19.4"/><path class="cls-2" d="M441.69,330.32a41,41,0,0,0,11.54-11.22c2.28-3.12,4.21-6.86,3.69-10.69a11,11,0,0,0-8.33,4.14,23.32,23.32,0,0,0-4.25,8.54c-.92,3.07-1.57,6.22-2.65,9.23"/><path class="cls-2" d="M453,327.17a93,93,0,0,0,28.42-16.76c-3.4-1.36-7.28-.55-10.68.82a33.73,33.73,0,0,0-17.89,15.86"/><path class="cls-2" d="M444.88,334.14c5.24.57,10.57.94,15.78.07s9.95-2.88,14.73-4.89a1.8,1.8,0,0,0,1-.76,1.14,1.14,0,0,0-.36-1.26,2.93,2.93,0,0,0-1.26-.59c-5.19-1.46-10.8-.77-15.92,1a73.18,73.18,0,0,0-14,6.48"/><path class="cls-2" d="M414.92,347.07c-3.58-7.23-3.35-15.66-.25-23.1,2.17,3.31,2.44,7.54,2,11.48s-1.6,8-1.68,12"/><path class="cls-2" d="M400.62,339.86a32.2,32.2,0,0,0-23.94,10.2,22.39,22.39,0,0,0,13.11-2.43A67.39,67.39,0,0,0,401,340.11"/><path class="cls-2" d="M391,336.64c-4.37-.35-8.58-.89-12.78.39a15.36,15.36,0,0,0-9.74,8.26,23,23,0,0,0,12-2.26A68.66,68.66,0,0,0,391,336.64"/><path class="cls-2" d="M405.24,336.79c-3.93-2.58-8-5.2-12.55-6.27s-9.88-.28-13.08,3.17c3.71,2.18,8.21,2.44,12.51,2.43s9.56-.05,13.61,1.38"/><path class="cls-2" d="M405.27,337c-6.73-6.61-9.28-18.47-6.57-27.49A41.93,41.93,0,0,1,405.27,337"/><path class="cls-2" d="M423.75,318.29c1.27-3,2.16-6,3.3-9a26.12,26.12,0,0,1,4.7-8.34,12.39,12.39,0,0,1,8.33-4.31,33.56,33.56,0,0,1-16.16,21.74"/><path class="cls-2" d="M420.41,322.19c-2.1-2.89-4.52-6.81-7.37-9s-6.55-3.46-10-2.63a23.34,23.34,0,0,0,17.39,11.6"/><path class="cls-2" d="M421.08,318.53a49.81,49.81,0,0,1-3.32-10.74,16.73,16.73,0,0,1,1.68-10.92c3.69,7,4.88,14.46,1.83,21.74"/><path class="cls-2" d="M423.79,296.87c2.09-6.92,8.42-12,15.26-14.35a5.72,5.72,0,0,1,2.67-.4,2.34,2.34,0,0,1,2,1.65c.24,1.17-.73,2.23-1.64,3a52,52,0,0,1-18.27,10.09"/><path class="cls-2" d="M423.86,291.21c.27-4.46.55-9,2-13.21s4.24-8.18,8.31-10c.69,4.5-1.3,9-3.69,12.86s-5.29,7.53-6.73,11.85"/><path class="cls-2" d="M423.75,294.28c-1.72-5-1.9-11.44-4.92-15.83-2.11-3.07-5.49-5.16-7.31-8.41a12.85,12.85,0,0,0,.43,9.55,27.74,27.74,0,0,0,5.58,8c2.24,2.38,4.15,4.18,6.22,6.7"/><path class="cls-2" d="M423.79,442.71c-.14,0-.25-33.62-.26-75.09s.09-75.09.22-75.09.25,33.61.26,75.09S423.92,442.71,423.79,442.71Z"/><path class="cls-2" d="M453.17,342a6.58,6.58,0,0,1-1.26.48l-3.48,1.17c-2.94,1-7,2.45-11.34,4.24s-8.41,3.37-10.74,5.38a7.94,7.94,0,0,0-2.16,2.86c-.33.79-.39,1.27-.44,1.26a1.16,1.16,0,0,1,0-.35,5.38,5.38,0,0,1,.25-1,7.53,7.53,0,0,1,2.1-3,18.81,18.81,0,0,1,4.66-2.9c1.87-.87,3.93-1.78,6.13-2.68,4.38-1.8,8.44-3.2,11.41-4.11,1.48-.47,2.69-.81,3.53-1A7.88,7.88,0,0,1,453.17,342Z"/><path class="cls-2" d="M462.8,318.34a2.41,2.41,0,0,1-.35.38c-.29.26-.65.6-1.08,1l-4,3.66-13.41,11.93c-5.23,4.66-9.75,9.11-12.89,12.47-1.56,1.67-2.8,3.06-3.64,4l-1,1.12a1.87,1.87,0,0,1-.36.36s.08-.15.29-.43.5-.67.9-1.17c.8-1,2-2.43,3.54-4.14A171.49,171.49,0,0,1,443.61,335c5.25-4.65,10-8.82,13.5-11.83l4.13-3.54,1.14-.95A2.42,2.42,0,0,1,462.8,318.34Z"/><path class="cls-2" d="M438.28,340.06c-.13-.06,1-2.58,2.05-5.78s1.62-5.88,1.76-5.86a20.17,20.17,0,0,1-1.3,6,39.27,39.27,0,0,1-1.63,4A5.86,5.86,0,0,1,438.28,340.06Z"/><path class="cls-2" d="M423.82,360.41a5.93,5.93,0,0,1-.81-.93L421,356.83c-1.74-2.25-4.14-5.34-6.83-8.73s-5.16-6.43-6.95-8.63l-2.11-2.61a6.82,6.82,0,0,1-.73-1,5.41,5.41,0,0,1,.87.88c.54.58,1.3,1.44,2.23,2.51,1.86,2.15,4.38,5.15,7.07,8.55s5.05,6.52,6.72,8.82c.83,1.15,1.5,2.09,1.94,2.74A6,6,0,0,1,423.82,360.41Z"/><path class="cls-2" d="M417.38,352.14a11.75,11.75,0,0,1-2.7-5.05,14.4,14.4,0,0,1-.62-5.1l.22,0c-.1.39-.17.6-.21.59s0-.22,0-.62h.21a23.65,23.65,0,0,0,.86,5A37.21,37.21,0,0,0,417.38,352.14Z"/><path class="cls-2" d="M409.06,341.68a9,9,0,0,0-1.89-1.1,12.67,12.67,0,0,0-5.23-.41,31.7,31.7,0,0,0-5.27.85,15.76,15.76,0,0,1-2.16.52,7.33,7.33,0,0,1,2.07-.85,24.08,24.08,0,0,1,5.33-1,11.29,11.29,0,0,1,5.39.59A3.37,3.37,0,0,1,409.06,341.68Z"/><path class="cls-2" d="M407.09,339.14c0,.08-1.1-.44-2.89-1.05a29.86,29.86,0,0,0-7.2-1.48,30.37,30.37,0,0,0-7.35.37c-1.86.34-3,.68-3,.6a2.94,2.94,0,0,1,.76-.32,17.87,17.87,0,0,1,2.18-.61,26,26,0,0,1,7.45-.53,25.66,25.66,0,0,1,7.29,1.65,18.41,18.41,0,0,1,2.06.93A3.16,3.16,0,0,1,407.09,339.14Z"/><path class="cls-2" d="M423.75,328.42a60,60,0,0,1-2.1-7.31,61.06,61.06,0,0,1-1.64-7.44,59.36,59.36,0,0,1,2.11,7.32A59.87,59.87,0,0,1,423.75,328.42Z"/><path class="cls-2" d="M423.89,328.42a35.93,35.93,0,0,0-2.34-4.38,19.18,19.18,0,0,0-3.43-3.54,3.24,3.24,0,0,1,1.33.68,11,11,0,0,1,2.5,2.58A9.75,9.75,0,0,1,423.89,328.42Z"/><path class="cls-2" d="M423.79,424.79c-.05,0-.15-.81-.53-2.24a32.06,32.06,0,0,0-2.25-5.82c-2.32-4.75-6.55-10.77-11.92-16.79-2.66-3.05-5.24-5.91-7.44-8.66a60.39,60.39,0,0,1-5.31-7.67,37.78,37.78,0,0,1-2.69-5.69c-.24-.7-.42-1.25-.52-1.63a2.2,2.2,0,0,1-.14-.58s.29.77.84,2.14a41,41,0,0,0,2.8,5.59A66.05,66.05,0,0,0,402,391c2.2,2.72,4.79,5.57,7.46,8.62,5.38,6,9.6,12.14,11.86,17a28.75,28.75,0,0,1,2.12,5.93,15.79,15.79,0,0,1,.3,1.68A3.31,3.31,0,0,1,423.79,424.79Z"/><path class="cls-2" d="M450.34,394.8a14.78,14.78,0,0,1-1.39.78,29.64,29.64,0,0,0-3.61,2.38,41.39,41.39,0,0,0-4.74,4.33c-1.67,1.76-3.38,3.8-5.13,6-3.5,4.39-6.77,8.27-8.73,11.37-1,1.54-1.71,2.84-2.19,3.75a13.81,13.81,0,0,1-.76,1.4s0-.15.13-.4.24-.62.46-1.09a37.16,37.16,0,0,1,2.07-3.84A127.44,127.44,0,0,1,435.09,408c1.75-2.19,3.49-4.24,5.18-6a39.25,39.25,0,0,1,4.86-4.29,25.15,25.15,0,0,1,3.73-2.28c.46-.23.84-.37,1.09-.48S450.33,394.78,450.34,394.8Z"/><path class="cls-2" d="M450.86,404.53a21.31,21.31,0,0,1-2.94.42,39.16,39.16,0,0,0-7,1.38,20.82,20.82,0,0,0-6.24,3.28c-1.44,1.11-2.12,2-2.19,2a2.55,2.55,0,0,1,.44-.67,11.26,11.26,0,0,1,1.53-1.57,18.86,18.86,0,0,1,6.31-3.47,31.57,31.57,0,0,1,7.09-1.26A15.5,15.5,0,0,1,450.86,404.53Z"/><path class="cls-2" d="M433.37,410.52c-.15-.09,1.17-2.12,2.2-4.84s1.19-5.16,1.36-5.13a4.44,4.44,0,0,1-.05,1.58,16.75,16.75,0,0,1-.85,3.72,18.19,18.19,0,0,1-1.71,3.41A4.85,4.85,0,0,1,433.37,410.52Z"/><path class="cls-2" d="M458.94,368.68a3.32,3.32,0,0,1-.47.25l-1.39.63c-.6.26-1.34.59-2.16,1s-1.8.87-2.81,1.48l-1.61.91c-.55.32-1.11.7-1.69,1.07-1.18.72-2.37,1.6-3.63,2.5a61.91,61.91,0,0,0-14,14.48c-.86,1.29-1.71,2.51-2.38,3.71-.35.6-.71,1.17-1,1.73s-.58,1.12-.86,1.64c-.57,1-1,2-1.38,2.86s-.71,1.58-.95,2.2-.42,1-.58,1.4a2.81,2.81,0,0,1-.23.48,1.76,1.76,0,0,1,.14-.51l.5-1.44c.21-.63.49-1.39.87-2.24s.77-1.86,1.33-2.91l.83-1.66c.29-.57.65-1.14,1-1.75.67-1.22,1.5-2.45,2.36-3.77a65.47,65.47,0,0,1,6.42-7.89,66.17,66.17,0,0,1,7.67-6.69c1.28-.9,2.48-1.77,3.68-2.48.6-.36,1.16-.74,1.72-1.05l1.63-.89c1-.59,2-1,2.86-1.42s1.59-.72,2.21-1l1.42-.54A1.93,1.93,0,0,1,458.94,368.68Z"/><path class="cls-2" d="M437.92,382.76a3.43,3.43,0,0,1,1.16-1.72,7.28,7.28,0,0,1,4.66-1.79,12.78,12.78,0,0,1,4.89,1,6.78,6.78,0,0,1,1.86.9,11,11,0,0,1-2-.58,15,15,0,0,0-4.77-.79,7.55,7.55,0,0,0-4.45,1.56A14.12,14.12,0,0,0,437.92,382.76Z"/><path class="cls-2" d="M434.78,386a17.22,17.22,0,0,0,1.33-4.3,17.54,17.54,0,0,0-.3-4.49,2.8,2.8,0,0,1,.54,1.25,8.75,8.75,0,0,1,.24,3.29,8.85,8.85,0,0,1-1,3.15C435.19,385.65,434.83,386,434.78,386Z"/><path class="cls-2" d="M400.57,429.6c.72,12.85,4.59,25.92,10.55,39.13H437c5.68-13.08,9.28-26.12,9.92-39.13Z"/><path class="cls-4" d="M442.74,450.4c0,.13-8.52.24-19,.24s-19-.11-19-.24,8.52-.25,19-.25S442.74,450.26,442.74,450.4Z"/><path class="cls-4" d="M442.17,455.05c0,.14-8,.25-17.86.25s-17.85-.11-17.85-.25,8-.24,17.85-.24S442.17,454.92,442.17,455.05Z"/><path class="cls-4" d="M411.54,438a74.25,74.25,0,0,1,0,11.93,71.29,71.29,0,0,1,0-11.93Z"/><path class="cls-4" d="M425.41,438a76.51,76.51,0,0,1,0,12.36,79.69,79.69,0,0,1,0-12.36Z"/><path class="cls-4" d="M438.44,437.94a82.81,82.81,0,0,1,0,12.6,82.81,82.81,0,0,1,0-12.6Z"/><path class="cls-4" d="M446.12,438c0,.14-10,.24-22.34.24s-22.33-.1-22.33-.24,10-.24,22.33-.24S446.12,437.91,446.12,438Z"/><path class="cls-1" d="M333.43,217.05c-.19-.08,17.26-27.65,39-61.55S411.85,94.18,412,94.27s-17.26,27.64-39,61.56S333.61,217.14,333.43,217.05Z"/><path class="cls-1" d="M452.61,203.43a7.69,7.69,0,0,0,4.58-7.11,7.22,7.22,0,1,0-14.42-.07,7.68,7.68,0,0,0,4.6,7.18c-11.1,1.67-10.59,13.73-10.59,13.73l26.23.12S463.6,205.09,452.61,203.43Z"/><path class="cls-1" d="M449.89,232.72a28.87,28.87,0,1,1,28.87-28.87A28.9,28.9,0,0,1,449.89,232.72Zm0-56.91a28,28,0,1,0,28.05,28A28.07,28.07,0,0,0,449.89,175.81Z"/><path class="cls-1" d="M76.68,94.62a9.76,9.76,0,0,0,5.81-9c0-5.38-4-9.77-9.11-9.79s-9.16,4.32-9.18,9.71A9.74,9.74,0,0,0,70,94.62C56,96.74,56.59,112,56.59,112l33.28.15S90.63,96.73,76.68,94.62Z"/><path class="cls-1" d="M73.23,131.84a36.69,36.69,0,1,1,36.69-36.68A36.72,36.72,0,0,1,73.23,131.84Zm0-72.23a35.55,35.55,0,1,0,35.55,35.55A35.58,35.58,0,0,0,73.23,59.61Z"/><path class="cls-1" d="M431.73,72.05A7.63,7.63,0,0,0,436.28,65,7.17,7.17,0,1,0,422,64.92a7.62,7.62,0,0,0,4.56,7.13C415.5,73.71,416,85.69,416,85.69l26.06.12S442.65,73.7,431.73,72.05Z"/><path class="cls-1" d="M429,101.26a28.84,28.84,0,1,1,28.84-28.84A28.87,28.87,0,0,1,429,101.26Zm0-56.53a27.7,27.7,0,1,0,27.7,27.69A27.72,27.72,0,0,0,429,44.73Z"/><path class="cls-1" d="M168.47,161.38a6.73,6.73,0,0,0,4-6.23,6.33,6.33,0,1,0-12.64-.06,6.71,6.71,0,0,0,4,6.29c-9.73,1.47-9.29,12-9.29,12l23,.11S178.12,162.84,168.47,161.38Z"/><path class="cls-1" d="M166.09,187.28a25.53,25.53,0,1,1,25.53-25.52A25.55,25.55,0,0,1,166.09,187.28Zm0-49.91a24.39,24.39,0,1,0,24.38,24.39A24.41,24.41,0,0,0,166.09,137.37Z"/><path class="cls-1" d="M49.28,245.39a4.9,4.9,0,0,0,2.93-4.54,4.61,4.61,0,1,0-9.2,0,4.9,4.9,0,0,0,2.93,4.58c-7.08,1.07-6.76,8.76-6.76,8.76l16.74.08S56.3,246.45,49.28,245.39Z"/><path class="cls-1" d="M47.55,264.4a18.74,18.74,0,1,1,18.74-18.74A18.77,18.77,0,0,1,47.55,264.4Zm0-36.33a17.59,17.59,0,1,0,17.59,17.59A17.61,17.61,0,0,0,47.55,228.07Z"/><path class="cls-1" d="M382.38,21.28a3.08,3.08,0,0,0,1.83-2.86,2.9,2.9,0,1,0-5.78,0,3.1,3.1,0,0,0,1.85,2.88c-4.45.67-4.25,5.5-4.25,5.5l10.52,0S386.79,21.94,382.38,21.28Z"/><path class="cls-1" d="M381.29,33.43a12,12,0,1,1,12-12A12,12,0,0,1,381.29,33.43Zm0-22.82a10.84,10.84,0,1,0,10.84,10.84A10.85,10.85,0,0,0,381.29,10.61Z"/><path class="cls-1" d="M137.51,36.39a3.07,3.07,0,0,0,1.83-2.85,2.9,2.9,0,1,0-5.78,0,3.08,3.08,0,0,0,1.84,2.88c-4.44.67-4.24,5.5-4.24,5.5l10.51,0S141.91,37.06,137.51,36.39Z"/><path class="cls-1" d="M136.42,48.54a12,12,0,1,1,12-12A12,12,0,0,1,136.42,48.54Zm0-22.82a10.84,10.84,0,1,0,10.84,10.84A10.86,10.86,0,0,0,136.42,25.72Z"/><path class="cls-1" d="M433.69,100.12c.08-.1,3.77,16.77,8.24,37.67s8,37.92,8,38-3.76-16.77-8.24-37.68S433.62,100.21,433.69,100.12Z"/><path class="cls-1" d="M146.57,146.22c-.09.14-10.29-6.1-22.78-13.93s-22.55-14.3-22.46-14.44,10.28,6.1,22.78,13.93S146.66,146.09,146.57,146.22Z"/><path class="cls-1" d="M400.84,78.52a3.65,3.65,0,0,1-.54.18l-1.62.49L392.45,81c-2.71.73-6,1.83-9.81,3s-8.16,2.55-12.95,4.12c-19.15,6.2-45.46,15.27-74.41,25.58s-55.11,19.87-74,26.79l-22.4,8.21-6.1,2.21-1.59.56-.55.17a4.06,4.06,0,0,1,.53-.24l1.56-.62,6.06-2.34L221.09,140c18.88-7,45-16.67,74-27s55.3-19.3,74.5-25.38c4.79-1.54,9.14-2.91,13-4s7.12-2.18,9.85-2.87l6.27-1.66,1.63-.42Z"/><path class="cls-1" d="M47.55,227.5c-.16,0,3.08-22.07,7.24-49.25s7.64-49.2,7.8-49.18-3.08,22.07-7.24,49.25S47.71,227.52,47.55,227.5Z"/><path class="cls-1" d="M195.67,331.81a5.76,5.76,0,0,0,3.43-5.34,5.42,5.42,0,1,0-10.81-.05,5.76,5.76,0,0,0,3.44,5.39c-8.32,1.25-7.94,10.3-7.94,10.3l19.68.09S203.92,333.05,195.67,331.81Z"/><path class="cls-1" d="M193.63,353.79a21.66,21.66,0,1,1,21.66-21.66A21.69,21.69,0,0,1,193.63,353.79Zm0-42.71a21,21,0,1,0,21,21.05A21.07,21.07,0,0,0,193.63,311.08Z"/><path class="cls-1" d="M130,46.89A10.38,10.38,0,0,1,129,48l-3.07,2.78-10.15,9.12c-4,3.55-7.6,6.74-10.26,9-1.33,1.14-2.41,2-3.17,2.65a8.13,8.13,0,0,1-1.22.91,8.5,8.5,0,0,1,1.08-1.06l3.07-2.77,10.15-9.13c4-3.55,7.6-6.74,10.26-9,1.33-1.14,2.41-2,3.18-2.65A7.05,7.05,0,0,1,130,46.89Z"/><path class="cls-1" d="M389.29,29.34c.1-.1,5.35,4.68,11.73,10.69S412.5,51,412.4,51.09s-5.35-4.68-11.74-10.69S389.19,29.45,389.29,29.34Z"/><path class="cls-5" d="M459.72,468.92c0,.15-96,.26-214.48.26s-214.5-.11-214.5-.26,96-.26,214.5-.26S459.72,468.78,459.72,468.92Z"/><path class="cls-3" d="M388.79,134.86c-.15-1.47-.31-2.93-.52-4.38s-.42-3.06-.68-4.58c.26,1.52.49,3,.68,4.58S388.64,133.39,388.79,134.86Z"/><path class="cls-4" d="M377,153c-1.27-2.87-1.56-6-2.4-9.05-.45-1.62-1.21-3.34-2.72-4.06a23,23,0,0,0-3.26-.73c-3.83-1.15-4.87-6.5-8.5-8.16a12.17,12.17,0,0,0-3.64-.75c-4.86-.58-9.88-2.26-12.93-6.07a23.22,23.22,0,0,0-3-3.68c-1.25-1-3.17-1.44-4.38-.41,1,2,2,4.09,3,6.12a16,16,0,0,0,3.4,5.1,5.49,5.49,0,0,0,5.71,1.23,3.79,3.79,0,0,1,1.93-.68,2.13,2.13,0,0,1,1.25.8c2.64,2.93,1.78,7.79-.8,10.78s-6.37,4.52-10,6a7.84,7.84,0,0,1-4.09.8c-2.54-.48-3.89-3.24-4.63-5.72-1.66-5.49-2.46-11.45-5.86-16.08C325,127,323.67,125.67,323,124s-.54-4-1.64-5.62-3.59-2.68-3.75-4.73a3.74,3.74,0,0,1,2.4-3.31c1.31-.64,2.78-.82,4.13-1.38.54-.22,1.13-.61,1.15-1.18,0-.87-1.19-1.21-1.49-2s.59-1.74,1-2.62c.84-2-1.25-4-3.28-4.86s-4.44-1.41-5.38-3.38a11.45,11.45,0,0,1-.66-2.93c-.47-2.48-2.29-4.87-4.79-5.28s-5.31,1.82-4.9,4.32c.25,1.37,1.27,2.44,1.82,3.71s.41,3.15-.9,3.56c-2.15.66-4.22-3.28-6-1.92.74,2.52,1.46,5,2.19,7.57-2.82,1.44-6.2-1.16-7.41-4.11s-1.25-6.29-2.68-9.12-5.31-5-7.77-3c-.12,3.65,4.69,5.12,6.82,8.07,1.54,2.13,1.31,5.6-1,7s-5.84-1-5-3.48c.31-.86,1-1.58,1.11-2.5.08-1.15-.88-2.07-1.76-2.81-1.37-1.17-2.75-2.31-4.12-3.46a8.44,8.44,0,0,0-2.93-1.84c-2.82-.82-5.65,1.47-7.15,4s-2.33,5.51-4.4,7.62c-3,3.07-8.6,3.26-11.39,0S253.89,91.07,258,89.9c1.55-.43,3.52-.38,4.34-1.76,1.43-2.43-2.66-5.55-1.25-8,1.08-1.88,3.95-1,6-1.65s3.24-2.73,4.47-4.53,3.11-3.59,5.24-3.11a6.54,6.54,0,0,1,.23-3.73c.55-1.15,2.11-1.89,3.13-1.15-1,1.72.2,4.12,2,5s3.95.65,6,.43,4.52-1,4.69-3c.06-.66-.19-1.35.06-2,.88-2.4,5.3.9,7-1,1-1-.1-2.79-1.47-3.12s-2.77.17-4.16.21-3.09-.68-3.15-2.07,1.47-2.36,1.64-3.71c.26-2.29-3.63-2.89-5-1s-.88,4.42-.47,6.7.63,4.95-1,6.55c-.71,1.09-2.58.51-3.19-.63s-.49-2.54-.6-3.83-.67-2.79-1.94-3.14a7.14,7.14,0,0,0-2.73.31c-3.56.43-6-4.18-4.91-7.58s4.34-5.61,7.47-7.35c2.3-1.27,5.14-2.46,7.42-1.17,1.06.59,1.8,1.62,2.85,2.23,1.8,1.07,4,.68,6.1.72A14.21,14.21,0,0,1,305.67,52c.92.84,1.78,2.23,1.06,3.24s-3,1.29-2.62,2.54a4.44,4.44,0,0,0,5.57-3.59,3.71,3.71,0,0,1,2.15,3,6.63,6.63,0,0,1,9.73.8,8.63,8.63,0,0,0,1.81,2.32c.82.53,2.25.26,2.35-.7a2,2,0,0,0-.16-.9c-.49-1.39-1-2.77-1.5-4.14,1.91-1,4.16.58,5.45,2.3,4.79,6.41,8.21,2.56,15,3.6,4.57.7,6.58,3.63,9.16,7.17,7.91,10.9,18.35,19.83,25.54,31.21.76,1.19,1.45,2.4,2.11,3.63l-.35-.92A126.08,126.08,0,0,0,370.5,80.3c-.88-1.44-1.79-2.85-2.71-4.24-.57-.86-1.17-1.74-1.76-2.58-.76-1.11-1.56-2.17-2.35-3.24-.64-.86-1.27-1.7-1.93-2.52-.45-.57-.92-1.14-1.39-1.72s-1-1.29-1.6-1.92l-1.72-2a7.76,7.76,0,0,0-.55-.61c-.6-.7-1.23-1.38-1.87-2a.52.52,0,0,0-.18-.21l-.53-.55c-.52-.57-1.07-1.13-1.6-1.68-.88-.9-1.78-1.8-2.71-2.66-.75-.76-1.53-1.48-2.33-2.19s-1.39-1.27-2.11-1.89-1.39-1.21-2.11-1.8c-.86-.74-1.74-1.46-2.64-2.17h0q-3.72-3-7.66-5.64c-.66-.45-1.29-.88-2-1.31s-1.33-.86-2-1.27-1.33-.84-2-1.23-1.36-.81-2-1.2-1.09-.64-1.64-.93c-.29-.18-.55-.32-.84-.47-1.17-.65-2.36-1.29-3.54-1.88-.6-.31-1.19-.62-1.81-.9s-1.53-.76-2.31-1.11a1.87,1.87,0,0,0-.35-.16c-.69-.33-1.39-.66-2.11-1-1-.43-2-.86-3-1.27s-2.29-.95-3.46-1.38-2.58-1-3.89-1.39-2.64-.88-4-1.29-2.66-.78-4-1.15c-2.66-.71-5.37-1.35-8.09-1.9l-.14,0c-1.05-.21-2.09-.41-3.14-.58a.88.88,0,0,0-.2,0c-.45-.08-.92-.16-1.4-.22-1.94-.33-3.91-.6-5.89-.82-.23,0-.48-.06-.72-.08-.58-.09-1.15-.13-1.74-.19-1.31-.12-2.62-.22-4-.31s-2.76-.16-4.15-.2-2.91-.08-4.37-.08c-3.85,0-7.66.16-11.43.51-.9.06-1.78.14-2.66.25s-1.84.2-2.76.32-1.85.25-2.75.39l-2.74.45c-.78.13-1.58.27-2.36.43-1.92.37-3.83.78-5.71,1.23-.88.21-1.76.43-2.65.68s-1.76.47-2.62.71c-1.45.41-2.86.87-4.28,1.32h0l-3.44,1.16a.15.15,0,0,0-.08,0c-1.17.41-2.3.84-3.44,1.29l-.19.07c-1,.41-2.09.84-3.11,1.27-1.29.53-2.56,1.1-3.81,1.68-1.06.49-2.11,1-3.13,1.49s-2.22,1.11-3.3,1.68l-.12.06c-1,.55-2.09,1.13-3.12,1.72s-2.11,1.21-3.15,1.87h0c-1,.59-2,1.18-2.91,1.8-.37.22-.72.47-1.09.72-1,.65-2,1.33-3,2-1.23.84-2.41,1.72-3.6,2.6s-2.07,1.58-3.07,2.38a128.46,128.46,0,0,0-16.1,15.26c-1.74,1.93-3.38,3.89-5,5.9C157,69.3,155.7,71,154.45,72.84q-1.69,2.35-3.26,4.79,1.56-2.43,3.26-4.79c.32,0,.65-.08,1-.1,1.84-.14,3.79-.08,5.45-.88s2.62-2.13,4-3.11c3.57-2.54,9.4-3,10.37-7.27.32-1.44-.06-3,.47-4.37,1-2.56,4.42-2.93,7.17-2.89,1.16,0,2.54.17,3.07,1.19a3,3,0,0,1-.12,2.38,22.27,22.27,0,0,1-9.4,11.55c-3.57,2.17-8.22,3.85-9.2,7.91.49,1.37,3,1.27,3.19,2.7.15,1.15-1.33,1.74-1.86,2.77-.78,1.49,1,3.31,2.7,3.23s3.12-1.31,4.37-2.46c3.72-3.46,7.64-7.19,9-12.1.57-2,.78-4.41,2.41-5.76a4,4,0,0,1,6.09,2c1.62-.9,4.14-1.58,5,.1a8.87,8.87,0,0,1,.34,1.93c.54,2.62,4.12,3.81,4.49,6.45.43,3-3.48,4.63-6.53,5.1-2.77.43-5.53.86-8.3,1.31a7.56,7.56,0,0,0-3.44,1.11,2.69,2.69,0,0,0-1,3.21,8.39,8.39,0,0,0,1.44,1.48c2.29,2.29.41,7-2.83,7.12-1.1,0-2.19-.36-3.3-.41-3.27-.14-5.87,2.75-7.43,5.64s-2.72,6.18-5.35,8.15c-4.22,3.17-11.49,2.44-13.54,7.31-.82,2-.38,4.18-.06,6.29s.47,4.42-.76,6.16-4.36,2.09-5.26.17a4.69,4.69,0,0,1-.12-2.73c.49-3,1-6.06,1.43-9.09.35-2.25.66-4.77-.67-6.62-1.87-2.58-6-2.33-8.46-.26s-3.4,5.3-4.08,8.4a36.37,36.37,0,0,1-2.33,8.15h0c-.43,2.54-.78,5.12-1.05,7.72s-.45,5.3-.55,8a12.91,12.91,0,0,0,1-1c1.29-1.34,3.89-7,6.23-4.2a2.1,2.1,0,0,1,0,2.56c-.72.92-2.15,1.12-2.7,2.13-.68,1.18.26,2.66,1.37,3.44s2.46,1.29,3.24,2.41c1.49,2.16.06,5.41,1.51,7.6,1.25,1.89,3.91,2,6.19,2.26l.78.12c.63-4.51,2.74-8.17,8.88-9.57,8.48-1.92,19.63,5.1,24.4,11.5,5.32,7.14,7.84,17.26,16,20.85,5.83,2.56,14.13,1.64,17,7.35,2.54,5.12-1.89,10.88-2.56,16.55-.43,3.75.79,7.48,1.08,11.22s-.84,8.16-4.26,9.73c-1.9.86-4.3.76-5.84,2.19-2.72,2.59-.49,7.91-3.21,10.49a14.11,14.11,0,0,1-3.46,1.82c-6.13,3.1-6,12.11-3.12,18.36.11.22.21.43.31.65A129.48,129.48,0,0,0,260,277.09,128.74,128.74,0,0,0,320.74,262h0a129.68,129.68,0,0,0,11.45-6.9,126.77,126.77,0,0,0,16.08-12.79A123.7,123.7,0,0,0,358.12,232c2.18-2.5,4.22-5.1,6.19-7.76,1-1.37,2-2.75,2.91-4.16A127.12,127.12,0,0,0,383.32,187a125.63,125.63,0,0,0,4.93-21.94c.39-2.9.7-5.85.91-8.82a7.48,7.48,0,0,1-5.21,2.31C380.84,158.5,378.28,155.9,377,153Z"/><path class="cls-2" d="M147.5,181.71c-.41-3.71.82-7.42.88-11.17.05-2.58-.14-5.3-.18-7.9a35.71,35.71,0,0,1-6.58-.92,2,2,0,0,1-1.2-.62,2.37,2.37,0,0,1-.27-1.37c-.16-2.91-3-4.83-5.49-6.29a21.7,21.7,0,0,0-4-2c0,.3,0,.59,0,.9a129,129,0,0,0,8.23,41.06,123.41,123.41,0,0,0,7.91,17c1.27,2.36,2.66,4.67,4.11,6.95,1.81,2.8,3.69,5.55,5.72,8.19,1.88,2.54,3.89,5,6,7.39a127.34,127.34,0,0,0,9.16,9.43q4.26,4,8.91,7.57c-7.07-19-13.73-38.32-25.81-54.46C151.74,191.25,148.1,187,147.5,181.71Z"/><path class="cls-2" d="M130.65,145.35c0,.78,0,1.56,0,2.34,0,.63,0,1.26,0,1.89,0-.63,0-1.26,0-1.89C130.61,146.91,130.63,146.13,130.65,145.35Z"/><g class="cls-6"><path class="cls-2" d="M188,255.18c1.09.74,2.19,1.45,3.3,2.15.78.49,1.56,1,2.36,1.43-.8-.47-1.58-.94-2.36-1.43C190.16,256.63,189.06,255.92,188,255.18Z"/></g><path class="cls-2" d="M297.59,247.06a11.4,11.4,0,0,1-2.41-.25,7.94,7.94,0,0,1-5.72-4.33,14.91,14.91,0,0,1-1-5.64,21.49,21.49,0,0,0-.41-3.85,20.36,20.36,0,0,0-3-6.19,28.67,28.67,0,0,1-2.63-4.77c-1.23-3.12-1.33-6.52-1.42-9.81l0-.8c-.68-22.77-7-41.25-18.36-53.44-1.57-1.69-3.33-3.34-5.55-3.93a6.89,6.89,0,0,0-7.13,2.46,13.41,13.41,0,0,0-1.07,1.75,9.86,9.86,0,0,1-1.88,2.67,5.35,5.35,0,0,1-4.55,1.23,8.24,8.24,0,0,1-5.69-3.92c-2-3.54-1.64-7.9-1.35-11.41l1.17-14.12c.18-2.18.42-5.17,2.19-7.21,1.37-1.59,3.34-2.31,5.25-3a15.75,15.75,0,0,0,4.05-1.93c2.27-1.7,3.27-4.38,4.34-7.22a29.45,29.45,0,0,1,2.06-4.67,8.72,8.72,0,0,1,8.11-4,3.77,3.77,0,0,1,3,2c1.4-2.64,3.14-4.22,5.28-4.83,4.68-1.35,10.38,2.36,15.9,5.94,5,3.26,9.78,6.35,13.52,5.67.94-.17,1.9-.44,2.82-.7a15,15,0,0,1,6.07-.83c5.44.76,8.22,6.66,10,11.71L328,148.34c1.1,3.08,2.52,6.46,5.44,7.59a11.16,11.16,0,0,0,3.7.54A12.56,12.56,0,0,1,341,157a6.19,6.19,0,0,1,4.07,5c.75,4.08-1.3,9.43-4.76,12.43h0a59.23,59.23,0,0,1-5.19,3.82c-4,2.72-7.78,5.3-9.4,9.52a22.82,22.82,0,0,0-1.09,7.24,22.16,22.16,0,0,1-1.26,7.78,21.94,21.94,0,0,1-3.85,5.61,35.32,35.32,0,0,0-2.57,3.28c-2.83,4.26-3.62,9.56-4.38,14.68-.09.65-.19,1.31-.29,2-.89,5.7-2.42,12.06-7,16A11.92,11.92,0,0,1,297.59,247.06Z"/><g class="cls-6"><path class="cls-2" d="M130.73,142.3v0h0v0c0,.24,0,.47,0,.72,0,.76,0,1.55,0,2.33,0-.78,0-1.57,0-2.33C130.69,142.77,130.71,142.54,130.73,142.3Z"/></g><g class="cls-6"><path class="cls-2" d="M130.64,149.58c0,.63,0,1.27,0,1.9h0C130.65,150.85,130.65,150.21,130.64,149.58Z"/></g><path class="cls-2" d="M148.43,157.62l-.78-.12c-2.28-.25-4.94-.37-6.19-2.26-1.45-2.19,0-5.44-1.51-7.6-.78-1.12-2.14-1.61-3.24-2.41s-2.05-2.26-1.37-3.44c.55-1,2-1.21,2.7-2.13a2.1,2.1,0,0,0,0-2.56c-2.34-2.77-4.94,2.86-6.23,4.2a12.91,12.91,0,0,1-1,1v0c0,.24,0,.47,0,.72,0,.76,0,1.55,0,2.33s0,1.56,0,2.34c0,.63,0,1.26,0,1.89s0,1.27,0,1.9a21.7,21.7,0,0,1,4,2c2.52,1.46,5.33,3.38,5.49,6.29a2.37,2.37,0,0,0,.27,1.37,2,2,0,0,0,1.2.62,35.71,35.71,0,0,0,6.58.92"/><path class="cls-2" d="M148.2,162.64c0,2.6.23,5.32.18,7.9-.06,3.75-1.29,7.46-.88,11.17.6,5.24,4.24,9.54,7.42,13.76,12.08,16.14,18.74,35.5,25.81,54.46h0c1.31,1,2.64,2,4,3,1.07.77,2.14,1.53,3.23,2.26s2.19,1.45,3.3,2.15c.78.49,1.56,1,2.36,1.43-.1-.22-.21-.43-.31-.65-2.84-6.25-3-15.26,3.12-18.36a14.11,14.11,0,0,0,3.46-1.82c2.72-2.58.49-7.9,3.21-10.49,1.54-1.43,3.94-1.33,5.84-2.19,3.42-1.57,4.53-6,4.26-9.73s-1.51-7.47-1.08-11.22c.67-5.67,5.1-11.43,2.56-16.55-2.85-5.71-11.15-4.79-17-7.35-8.16-3.59-10.68-13.71-16-20.85-4.77-6.4-15.92-13.42-24.4-11.5-6.14,1.4-8.25,5.06-8.88,9.57"/><path class="cls-2" d="M138.74,110c2.41-2.07,6.59-2.32,8.46.26,1.33,1.85,1,4.37.67,6.62-.47,3-.94,6.06-1.43,9.09a4.69,4.69,0,0,0,.12,2.73c.9,1.92,4.06,1.56,5.26-.17s1.09-4.07.76-6.16-.76-4.32.06-6.29c2.05-4.87,9.32-4.14,13.54-7.31,2.63-2,3.79-5.26,5.35-8.15S175.69,94.84,179,95c1.11,0,2.2.45,3.3.41,3.24-.1,5.12-4.83,2.83-7.12a8.39,8.39,0,0,1-1.44-1.48,2.69,2.69,0,0,1,1-3.21,7.56,7.56,0,0,1,3.44-1.11c2.77-.45,5.53-.88,8.3-1.31,3.05-.47,7-2,6.53-5.1-.37-2.64-3.95-3.83-4.49-6.45a8.87,8.87,0,0,0-.34-1.93c-.84-1.68-3.36-1-5-.1a4,4,0,0,0-6.09-2c-1.63,1.35-1.84,3.73-2.41,5.76-1.35,4.91-5.27,8.64-9,12.1-1.25,1.15-2.67,2.38-4.37,2.46s-3.48-1.74-2.7-3.23c.53-1,2-1.62,1.86-2.77-.2-1.43-2.7-1.33-3.19-2.7,1-4.06,5.63-5.74,9.2-7.91a22.27,22.27,0,0,0,9.4-11.55,3,3,0,0,0,.12-2.38c-.53-1-1.91-1.19-3.07-1.19-2.75,0-6.17.33-7.17,2.89-.53,1.37-.15,2.93-.47,4.37-1,4.26-6.8,4.73-10.37,7.27-1.39,1-2.48,2.35-4,3.11s-3.61.74-5.45.88c-.33,0-.66.06-1,.1q-1.69,2.35-3.26,4.79t-3,4.94a128.21,128.21,0,0,0-11.23,25c-1,3.06-1.89,6.18-2.65,9.34s-1.42,6.36-1.95,9.61a36.37,36.37,0,0,0,2.33-8.15C135.34,115.3,136.34,112.07,138.74,110Z"/><path class="cls-2" d="M247.31,50c1.22-1.61.86-3.92,1.66-5.77,1.31-3.09,5.41-4.19,6.83-7.22.55-1.17.68-2.6,1.63-3.47.8-.72,2-.87,2.83-1.52,1.91-1.46,1.12-4.79-.91-6.08-5.08-3.24-14.42.5-18.8,3.68-5.64,4.08-11.16,9-18.66,8.51-2.07-.13-4.22-.7-6.16,0s-3.13,3.64-1.47,4.87c.93.69,2.25.5,3.29,1,1.94.9,2.13,3.7,1.19,5.61s-2.65,3.34-3.76,5.16a9.8,9.8,0,0,0-1.4,5.93,5.41,5.41,0,0,0,1.76,3.8c2.34,1.87,5.88.27,7.86-2s3.34-5.13,5.91-6.66a14.67,14.67,0,0,1,4.2-1.47l9.79-2.32C244.65,51.69,246.34,51.24,247.31,50Z"/><g class="cls-6"><path class="cls-3" d="M389.38,145.9c0-1.86-.07-3.71-.17-5.55.1,1.84.16,3.69.17,5.55,0,.6,0,1.19,0,1.79,0,2.86-.1,5.69-.26,8.52.16-2.83.26-5.66.26-8.52C389.42,147.09,389.42,146.5,389.38,145.9Z"/></g><g class="cls-6"><path class="cls-3" d="M381.29,102.48q.91,2.46,1.74,5-.82-2.49-1.74-5s0,0,0,0h0Z"/></g><path class="cls-2" d="M389.38,145.9c0-1.86-.07-3.71-.17-5.55s-.24-3.66-.42-5.49c-.15-1.47-.31-2.93-.52-4.38s-.42-3.06-.68-4.58a125.2,125.2,0,0,0-3-13.44c-.48-1.69-1-3.37-1.54-5s-1.13-3.31-1.74-5v0h0c-.66-1.23-1.35-2.44-2.11-3.63C372,87.45,361.55,78.52,353.64,67.62c-2.58-3.54-4.59-6.47-9.16-7.17-6.76-1-10.18,2.81-15-3.6-1.29-1.72-3.54-3.32-5.45-2.3.49,1.37,1,2.75,1.5,4.14a2,2,0,0,1,.16.9c-.1,1-1.53,1.23-2.35.7A8.63,8.63,0,0,1,321.56,58a6.63,6.63,0,0,0-9.73-.8,3.71,3.71,0,0,0-2.15-3,4.44,4.44,0,0,1-5.57,3.59c-.39-1.25,1.85-1.48,2.62-2.54s-.14-2.4-1.06-3.24a14.21,14.21,0,0,0-8.91-3.46c-2.07,0-4.3.35-6.1-.72-1.05-.61-1.79-1.64-2.85-2.23-2.28-1.29-5.12-.1-7.42,1.17-3.13,1.74-6.37,3.93-7.47,7.35s1.35,8,4.91,7.58a7.14,7.14,0,0,1,2.73-.31c1.27.35,1.84,1.82,1.94,3.14s0,2.68.6,3.83,2.48,1.72,3.19.63c1.68-1.6,1.48-4.28,1-6.55s-.88-4.84.47-6.7,5.26-1.27,5,1c-.17,1.35-1.7,2.34-1.64,3.71s1.76,2.13,3.15,2.07,2.81-.55,4.16-.21,2.46,2.11,1.47,3.12c-1.7,1.92-6.12-1.38-7,1-.25.62,0,1.31-.06,2-.17,2-2.69,2.74-4.69,3s-4.14.43-6-.43-3.08-3.26-2-5c-1-.74-2.58,0-3.13,1.15a6.54,6.54,0,0,0-.23,3.73c-2.13-.48-4,1.33-5.24,3.11s-2.4,3.89-4.47,4.53-5-.23-6,1.65c-1.41,2.46,2.68,5.58,1.25,8-.82,1.38-2.79,1.33-4.34,1.76-4.12,1.17-5.55,7.19-2.75,10.41s8.42,3,11.39,0c2.07-2.11,2.91-5.08,4.4-7.62s4.33-4.81,7.15-4a8.44,8.44,0,0,1,2.93,1.84c1.37,1.15,2.75,2.29,4.12,3.46.88.74,1.84,1.66,1.76,2.81-.08.92-.8,1.64-1.11,2.5-.86,2.47,2.73,4.83,5,3.48s2.5-4.82,1-7c-2.13-3-6.94-4.42-6.82-8.07,2.46-2,6.33.11,7.77,3s1.47,6.19,2.68,9.12,4.59,5.55,7.41,4.11c-.73-2.53-1.45-5-2.19-7.57,1.8-1.36,3.87,2.58,6,1.92,1.31-.41,1.48-2.29.9-3.56S306,92.36,305.79,91c-.41-2.5,2.38-4.73,4.9-4.32s4.32,2.8,4.79,5.28a11.45,11.45,0,0,0,.66,2.93c.94,2,3.37,2.56,5.38,3.38s4.12,2.85,3.28,4.86c-.39.88-1.31,1.72-1,2.62s1.49,1.14,1.49,2c0,.57-.61,1-1.15,1.18-1.35.56-2.82.74-4.13,1.38a3.74,3.74,0,0,0-2.4,3.31c.16,2,2.6,3,3.75,4.73s.94,3.77,1.64,5.62,2,3,3.09,4.48c3.4,4.63,4.2,10.59,5.86,16.08.74,2.48,2.09,5.24,4.63,5.72a7.84,7.84,0,0,0,4.09-.8c3.67-1.46,7.48-3,10-6s3.44-7.85.8-10.78a2.13,2.13,0,0,0-1.25-.8,3.79,3.79,0,0,0-1.93.68,5.49,5.49,0,0,1-5.71-1.23,16,16,0,0,1-3.4-5.1c-1-2-2-4.08-3-6.12,1.21-1,3.13-.6,4.38.41a23.22,23.22,0,0,1,3,3.68c3.05,3.81,8.07,5.49,12.93,6.07a12.17,12.17,0,0,1,3.64.75c3.63,1.66,4.67,7,8.5,8.16a23,23,0,0,1,3.26.73c1.51.72,2.27,2.44,2.72,4.06.84,3,1.13,6.18,2.4,9.05s3.81,5.47,6.92,5.51a7.48,7.48,0,0,0,5.21-2.31v0c.16-2.83.26-5.66.26-8.52C389.42,147.09,389.42,146.5,389.38,145.9Z"/><path class="cls-2" d="M337,199.63c-1.92.38-2.31,1.51-3.36,2.94-1.36,1.86-3.31,3.72-4.56,5.55-2.1,3.12-.2,8-3,10.58a21.8,21.8,0,0,0-1.8,1.48,3.25,3.25,0,0,0,.66,4.51,4.43,4.43,0,0,0,4.82.09,7.06,7.06,0,0,0,3-4c.37-1.17.57-2.5,1.5-3.31,1.58-1.38,4-.35,6.13-.65C349.24,215.54,345.43,198,337,199.63Z"/><path class="cls-5" d="M389.38,147.47s0-.72-.08-2.11c0-.69-.05-1.56-.08-2.58s-.05-2.23-.18-3.58-.22-2.86-.36-4.53-.43-3.48-.67-5.44c-.55-3.93-1.4-8.43-2.62-13.43-.28-1.25-.7-2.51-1.05-3.82s-.71-2.66-1.19-4l-1.41-4.16c-.46-1.42-1.09-2.83-1.64-4.29a124.77,124.77,0,0,0-9-18.27,131,131,0,0,0-32.79-36.88,128.54,128.54,0,0,0-54.45-24.29,131.12,131.12,0,0,0-50.71.58,128.76,128.76,0,0,0-50,22.65,141.66,141.66,0,0,0-14.56,12.62,138.1,138.1,0,0,0-12.74,14.95,127.28,127.28,0,0,0-10.51,17c-.74,1.51-1.58,3-2.24,4.53S141.7,95.49,141,97s-1.24,3.16-1.86,4.74S138,105,137.45,106.6a127.46,127.46,0,0,0-4.9,20,140.12,140.12,0,0,0-1.68,20.83,140.22,140.22,0,0,0,1.67,20.83,127.18,127.18,0,0,0,4.9,20c.58,1.61,1,3.26,1.69,4.83s1.25,3.16,1.87,4.74c1.38,3.1,2.73,6.19,4.32,9.16a127.39,127.39,0,0,0,10.51,17,139.18,139.18,0,0,0,12.74,15,141.76,141.76,0,0,0,14.57,12.62,129.41,129.41,0,0,0,32.74,17.69,137.1,137.1,0,0,0,17.3,5,130.55,130.55,0,0,0,50.71.58,128.75,128.75,0,0,0,54.44-24.29,131,131,0,0,0,32.8-36.89,125.1,125.1,0,0,0,9-18.26c.56-1.47,1.19-2.87,1.64-4.3l1.41-4.15c.48-1.35.8-2.71,1.19-4s.77-2.57,1.05-3.83c1.22-5,2.07-9.49,2.62-13.42.24-2,.51-3.78.67-5.44s.25-3.18.36-4.53.16-2.55.18-3.58.06-1.89.08-2.58c.05-1.39.08-2.1.08-2.1s0,.71,0,2.1c0,.69,0,1.56-.05,2.59s0,2.22-.16,3.57-.2,2.87-.33,4.54-.42,3.48-.65,5.45a134.15,134.15,0,0,1-2.58,13.45c-.27,1.26-.68,2.52-1,3.84s-.7,2.66-1.18,4-.92,2.75-1.39,4.17-1.08,2.84-1.64,4.31a124.87,124.87,0,0,1-8.95,18.32,131.2,131.2,0,0,1-32.82,37A129,129,0,0,1,284,275.28a131.48,131.48,0,0,1-50.89-.55,127.06,127.06,0,0,1-34.25-12.55,137.46,137.46,0,0,1-16-10.16,141.75,141.75,0,0,1-14.62-12.67,137.05,137.05,0,0,1-12.8-15,127.33,127.33,0,0,1-10.56-17.07c-1.59-3-3-6.09-4.34-9.2-.62-1.58-1.25-3.17-1.87-4.76s-1.12-3.23-1.7-4.84A128.32,128.32,0,0,1,132,168.36a139.86,139.86,0,0,1-1.68-20.91A139.76,139.76,0,0,1,132,126.54a127.37,127.37,0,0,1,4.92-20.1c.57-1.61,1-3.27,1.7-4.84s1.25-3.18,1.87-4.76l2.09-4.65c.66-1.56,1.51-3,2.25-4.55a127.22,127.22,0,0,1,10.56-17.06,139,139,0,0,1,12.79-15,144,144,0,0,1,14.63-12.66A128.56,128.56,0,0,1,233.08,20.2,131.4,131.4,0,0,1,284,19.65a129.13,129.13,0,0,1,54.59,24.42,131.18,131.18,0,0,1,32.82,37,124.06,124.06,0,0,1,9,18.33c.55,1.47,1.18,2.87,1.63,4.3s1,2.81,1.4,4.17.79,2.72,1.18,4,.77,2.57,1,3.83a134.3,134.3,0,0,1,2.58,13.46c.23,2,.5,3.78.65,5.45s.24,3.18.33,4.53.15,2.55.16,3.58,0,1.9.05,2.59C389.38,146.75,389.38,147.47,389.38,147.47Z"/><path class="cls-7" d="M388.67,441.52,391.79,460s-17.77,9.4-17.53,12.88l36.13-4.77-3.68-29.07Z"/><path class="cls-2" d="M402.76,457a1.49,1.49,0,0,1,1.24,1.55,1.42,1.42,0,0,1-1.52,1.24,1.56,1.56,0,0,1-1.31-1.64A1.48,1.48,0,0,1,402.9,457"/><path class="cls-2" d="M410.52,468.9l-.35-2.81-34.73,4.81s-1.51.91-1.18,2Z"/><path class="cls-5" d="M391.18,459.93c0,.18.93.14,1.87.6s1.5,1.13,1.65,1-.24-1.08-1.39-1.61S391.12,459.78,391.18,459.93Z"/><path class="cls-5" d="M387.6,462c0,.18.79.38,1.48,1s1,1.44,1.15,1.41.16-1.05-.72-1.86S387.58,461.83,387.6,462Z"/><path class="cls-5" d="M386.05,466.82c.16,0,.29-.9-.29-1.8s-1.46-1.18-1.51-1,.52.61,1,1.36S385.87,466.83,386.05,466.82Z"/><path class="cls-5" d="M390.94,455.63c.09.15.87-.2,1.88-.26s1.82.15,1.9,0-.76-.69-2-.6S390.83,455.51,390.94,455.63Z"/><path class="cls-7" d="M356.3,438.9l1.29,18.75s-18.62,7.6-18.72,11.08l36.43-1.19-.81-29.28Z"/><path class="cls-2" d="M368.8,455.7a1.49,1.49,0,0,1,1.09,1.66,1.43,1.43,0,0,1-1.64,1.09,1.56,1.56,0,0,1-1.14-1.77,1.49,1.49,0,0,1,1.83-.94"/><path class="cls-2" d="M375.35,468.31l-.07-2.84-35,1.37s-1.6.76-1.38,1.89Z"/><path class="cls-5" d="M357,457.48c0,.18.91.23,1.8.77s1.39,1.28,1.55,1.2-.14-1.09-1.23-1.73S357,457.32,357,457.48Z"/><path class="cls-5" d="M353.22,459.18c0,.18.75.46,1.38,1.19s.83,1.52,1,1.51.26-1-.54-1.92S353.22,459,353.22,459.18Z"/><path class="cls-5" d="M351.2,463.83c.17,0,.39-.87-.1-1.83s-1.34-1.32-1.41-1.16.46.65.85,1.44S351,463.82,351.2,463.83Z"/><path class="cls-5" d="M357.17,453.18c.08.16.89-.12,1.9-.08s1.8.33,1.89.17-.69-.77-1.87-.79S357.08,453,357.17,453.18Z"/><path class="cls-5" d="M337.32,307.38s5.5,68.48,6.5,77.77c.9,8.32,9.4,70.85,9.4,70.85l24.31-.79L373.33,356V299.75L341,297.34Z"/><path class="cls-5" d="M400.74,295.42c-.31,1.52,1.77,10.52,1.56,14.65a140.06,140.06,0,0,1-1.83,14.43l-2,45.92,11.92,84.32L387.6,457s-14.54-55.39-16.76-66.62-7.3-33.69-8.21-40.06-6.45-47.15-6.45-47.15Z"/><path class="cls-8" d="M400.74,295.42l-44.53,7.88.14-.18c1.19,8.59,2.53,18.34,4,29.05.74,5.35,1.51,10.95,2.3,16.76.38,2.9,1,5.83,1.57,8.81s1.26,6,1.9,9.07q2,9.21,4,19c1.25,6.54,2.85,13.14,4.53,19.91,3.36,13.51,7,27.56,10.74,42q1.21,4.65,2.41,9.23l-.27-.19,22.79-2.22-.23.29c-4.43-31.47-8.49-60.28-11.87-84.34h0v0c.82-18.31,1.52-33.87,2.06-45.91h0c.81-4.62,1.39-8.76,1.71-12.37a34.86,34.86,0,0,0-.45-9.13c-.36-2.47-.66-4.35-.8-5.62a12.34,12.34,0,0,1-.11-1.45,2.75,2.75,0,0,1,.05-.49s0,.16,0,.49a13.94,13.94,0,0,0,.14,1.44c.16,1.27.49,3.14.87,5.61a33.93,33.93,0,0,1,.52,9.17c-.3,3.62-.86,7.77-1.66,12.4v0c-.51,12-1.16,27.6-1.93,45.91v0c3.41,24.05,7.5,52.86,12,84.32l0,.26-.26,0-22.79,2.23-.23,0,0-.21-2.41-9.24c-3.75-14.42-7.38-28.48-10.73-42-1.67-6.76-3.28-13.4-4.52-19.93s-2.72-12.83-4-19q-1-4.62-1.88-9.08c-.6-3-1.19-5.92-1.56-8.84-.79-5.81-1.55-11.41-2.28-16.76-1.45-10.72-2.77-20.47-3.93-29.07l0-.16.16,0,32.87-5.6,8.72-1.47,2.24-.38Z"/><path class="cls-7" d="M386.36,177.05s13.36,10.52,13.65,12.2l-4.45,70,10.09,43.94s-36.3,9.62-69.71,8.22h0l4.61-78.16.9-10.63L348.1,192l6.08-6,5.17-8L383,169.32Z"/><path class="cls-7" d="M335.94,311.44c.85-24.79,3.88-63.88,5.51-88.79"/><path class="cls-5" d="M341.45,222.65a.82.82,0,0,1,0,.23c0,.18,0,.4,0,.67l-.12,2.59c-.14,2.3-.33,5.54-.57,9.52-.54,8.07-1.27,19.15-2.08,31.38s-1.53,23.35-2,31.39c-.22,4-.4,7.22-.52,9.52q-.09,1.64-.15,2.58l0,.68a.89.89,0,0,1,0,.23,1,1,0,0,1,0-.23v-.68c0-.64,0-1.5.05-2.59.06-2.25.17-5.51.36-9.53.35-8,1-19.15,1.82-31.4s1.63-23.35,2.23-31.37c.31-4,.56-7.22.73-9.51.1-1.09.17-1.95.23-2.58,0-.27.05-.49.07-.67A.56.56,0,0,1,341.45,222.65Z"/><path class="cls-5" d="M385.87,175.93a6,6,0,0,1-.61.69l-1.82,1.88-6.75,6.84,0,0h0l-5.17,1.33.17-.27c.24,1,.5,2.06.77,3.15l0,.11-.06.08-9.71,14.15L347,226.55c-2,2.85-3.64,5.16-4.8,6.82l-1.32,1.84a4.31,4.31,0,0,1-.5.62,5.14,5.14,0,0,1,.41-.68l1.24-1.9c1.13-1.67,2.72-4,4.66-6.91,4-5.84,9.49-13.85,15.54-22.69L372,189.53l0,.18c-.27-1.09-.52-2.16-.75-3.15l-.06-.22.22-.05L376.5,185l-.09.05,6.88-6.71c.79-.76,1.42-1.37,1.89-1.81A7.21,7.21,0,0,1,385.87,175.93Z"/><path class="cls-3" d="M383,169.32c-1,.37-13.35,10.18-19.87,21.94S342,230.85,342,230.85l1.93-9.44,10.93-32.94,4.33-10Z"/><path class="cls-5" d="M367.08,184.76c.09.13-2.42,2-5.23,4.59l-.25.24-.16-.3-.07-.13c-.93-1.73-1.75-3.31-2.33-4.47l.35-.06a8.61,8.61,0,0,1-.51,2,8.61,8.61,0,0,1,.14-2.09l.07-.54.28.48c.65,1.11,1.53,2.66,2.46,4.39l.07.13-.41-.07a41.82,41.82,0,0,1,3.84-3.15A7.19,7.19,0,0,1,367.08,184.76Z"/><path class="cls-9" d="M308.17,260.69,327.3,260l10.9-.76,3.21,11.65s-11.06.52-11.93.83c-2.25.79-6.89,3.7-10.12,4.49a3,3,0,0,1-3.35-1.56l0-.05,10.23-5.39s-16.06,4-16.68,1.27c-.05-.21-3.3.23-3.46-2.15l-.06-.8s8.1-1.33,10.93-3.24c0,0-8.71-.91-9.35-2A1.13,1.13,0,0,1,308.17,260.69Z"/><path class="cls-10" d="M324.49,264.33a8.75,8.75,0,0,1-2.31,1.22,37.05,37.05,0,0,1-6,1.84c-1.2.27-2.35.49-3.39.68a24.61,24.61,0,0,0-2.72.54c-.16.06-.38.16-.41.23a.66.66,0,0,0-.09.39,4.24,4.24,0,0,0,.1.78c.1.43.14.68.1.69s-.14-.21-.29-.64a3,3,0,0,1-.2-.82.89.89,0,0,1,.11-.59,1.34,1.34,0,0,1,.54-.38,18.78,18.78,0,0,1,2.77-.67l3.36-.72a54,54,0,0,0,6-1.68A24.72,24.72,0,0,1,324.49,264.33Z"/><path class="cls-10" d="M324.87,261.75a29.1,29.1,0,0,1-3.87,1.53,11.52,11.52,0,0,1-4.05,1.05,30.06,30.06,0,0,1,3.87-1.53C323,262,324.83,261.59,324.87,261.75Z"/><g class="cls-11"><path d="M395.07,265.09a2.61,2.61,0,0,0-2-1.83,8.68,8.68,0,0,0-3,.21l-48.56,9.08-.75,5.31a2.71,2.71,0,0,0,2.08,2.68,7.93,7.93,0,0,0,3.65-.13c15.09-3,30.24-5.91,44.83-10.75a14.92,14.92,0,0,0,4.21-2Z"/></g><path class="cls-7" d="M379.35,197.27a26.67,26.67,0,0,0-.78,10.54c0,1,5.75,34.47,5.75,34.47L336.44,257.6l4.15,20.11s52.67-10.21,61-15,7.35-7.34,7.67-13.72-2.79-41.25-2.79-41.25-.09-23.87-15.41-21"/><path class="cls-5" d="M391,186.74l.51-.09a10.86,10.86,0,0,1,1.5-.17,8.35,8.35,0,0,1,1.12,0,8.65,8.65,0,0,1,1.35.16,9,9,0,0,1,3.18,1.2c2.25,1.32,4.29,4,5.6,7.45a38.47,38.47,0,0,1,2.31,12.45v0c.54,6,1.14,12.83,1.72,20.38.29,3.77.58,7.72.83,11.83.12,2.06.24,4.16.29,6.3s-.05,4.32-.12,6.53a12.57,12.57,0,0,1-.56,3.35,8.16,8.16,0,0,1-1.82,2.94,22.52,22.52,0,0,1-5.67,4.07l-1.63.76-1.67.61c-1.12.42-2.26.77-3.41,1.12s-2.31.7-3.48,1-2.35.67-3.54,1c-9.52,2.49-19.53,4.7-29.84,6.89-5.77,1.22-11.47,2.38-17.05,3.48l-.25,0-.05-.26c-1.42-6.89-2.81-13.61-4.14-20.11l-.05-.22.21-.06,47.9-15.27-.13.22c-2.5-14.85-4.53-26.65-5.66-34.51v0a26.66,26.66,0,0,1,.21-7.89,17,17,0,0,1,.67-2.67s-.05.23-.16.68a20,20,0,0,0-.41,2,27.75,27.75,0,0,0-.11,7.83v0c1.19,7.78,3.29,19.62,5.83,34.44l0,.17-.16.05-47.86,15.37.17-.29,4.15,20.11-.3-.2q8.37-1.65,17-3.47c10.3-2.19,20.31-4.41,29.82-6.88,1.19-.3,2.36-.64,3.53-1s2.33-.65,3.47-1,2.29-.69,3.39-1.11l1.66-.6,1.57-.73a22.09,22.09,0,0,0,5.55-4A7.61,7.61,0,0,0,408.3,256a12.06,12.06,0,0,0,.54-3.22c.08-2.2.22-4.38.14-6.5s-.17-4.23-.28-6.28c-.24-4.11-.52-8.06-.8-11.83-.56-7.55-1.12-14.38-1.63-20.38h0a38.64,38.64,0,0,0-2.22-12.36,14.34,14.34,0,0,0-5.46-7.39,9.14,9.14,0,0,0-3.11-1.22,8.7,8.7,0,0,0-1.34-.18,6.91,6.91,0,0,0-1.11,0,11.27,11.27,0,0,0-1.5.12A4.73,4.73,0,0,1,391,186.74Z"/><rect class="cls-8" x="362.47" y="214.13" width="13.78" height="9.14"/><path class="cls-5" d="M376.25,223.27a4.94,4.94,0,0,1,0-.68c0-.5,0-1.11-.06-1.86,0-1.66-.06-3.9-.11-6.6l.21.21-13.63,0,.26-.26h0v2.39c0,.79,0,1.57,0,2.34,0,1.53,0,3,0,4.39l-.24-.23c4,0,7.34.07,9.75.11l2.83.07c.66,0,1,0,1.05.05a5.32,5.32,0,0,1-.95.06l-2.77.07c-2.4,0-5.84.09-9.91.11h-.24v-.24c0-1.39,0-2.86,0-4.39v-4.73h0l.26-.26,13.63,0h.21v.2c0,2.84-.07,5.15-.11,6.73,0,.73,0,1.33-.05,1.81A2.43,2.43,0,0,1,376.25,223.27Z"/><path class="cls-12" d="M368,217.73a1.74,1.74,0,1,1-1.73-1.73A1.74,1.74,0,0,1,368,217.73Z"/><polygon class="cls-7" points="365.25 287.7 365.25 277.68 391.58 272.37 396.99 280.51 365.25 287.7"/><path class="cls-5" d="M365.25,287.7l.65-.18,1.82-.44,6.7-1.59,22.51-5.23-.15.39-3.91-5.88-1.5-2.26.27.11-26.35,5.23.13-.17c0,3.08-.07,5.55-.09,7.31,0,.83,0,1.49-.05,2s0,.71,0,.72a4.7,4.7,0,0,1,0-.64c0-.49,0-1.14,0-1.95,0-1.79-.06-4.3-.1-7.43v-.14l.14,0,26.31-5.4.17,0,.1.14c.49.74,1,1.5,1.5,2.27,1.34,2,2.65,4,3.9,5.88l.21.31-.36.08-22.77,5-6.66,1.44-1.77.37A2.9,2.9,0,0,1,365.25,287.7Z"/><g class="cls-11"><path d="M342.1,233.28c11.45-10,32.92-40.65,32.92-40.65-.44.07,1.78-2.28-2.18-5a8.66,8.66,0,0,0,3.53-2.23l-5.37.75c.47,1.2,1.14,3.51,1.14,3.51s-2.57,3.63-3.61,5.15c-9.13,13.33-17.31,25.14-26.43,38.47"/></g><path class="cls-9" d="M382.7,169.45l.63-31.22c.42-10.71-4.91-20-15.63-20.1l-1,.05a19.16,19.16,0,0,0-18.24,18.49c-.31,9.29-.53,19.56-.23,24.52.62,10.27,11,11.38,11,11.38,0,.31,0,2.87-.06,5.93l0,5.1Z"/><path class="cls-10" d="M359.18,172.57A24.88,24.88,0,0,0,372.37,168s-2.91,7.65-13.2,7.22Z"/><path class="cls-5" d="M365.24,141.93c.23.06,1.27-.69,2.94-1.08s3-.22,3.18-.37-.18-.23-.78-.31a7.13,7.13,0,0,0-2.59.16,6.38,6.38,0,0,0-2.29,1C365.25,141.66,365.14,141.9,365.24,141.93Z"/><path class="cls-5" d="M365.21,145.1a1.39,1.39,0,0,0,1.4,1.34,1.33,1.33,0,0,0,1.37-1.32,1.4,1.4,0,0,0-1.4-1.34A1.33,1.33,0,0,0,365.21,145.1Z"/><path class="cls-5" d="M361,153.14a10.46,10.46,0,0,0-2.58-.34c-.41,0-.79-.09-.87-.36a2,2,0,0,1,.21-1.21l1-3.12c1.45-4.45,2.48-8.1,2.3-8.16s-1.5,3.51-3,8c-.34,1.1-.68,2.15-1,3.15a2.35,2.35,0,0,0-.14,1.59,1.06,1.06,0,0,0,.69.56,3,3,0,0,0,.69.06A10.25,10.25,0,0,0,361,153.14Z"/><path class="cls-5" d="M366.5,134.88c.16.38,1.54.13,3.18.26s3,.52,3.19.16c.09-.18-.16-.53-.71-.89a5.31,5.31,0,0,0-2.39-.74,5.16,5.16,0,0,0-2.46.42C366.72,134.37,366.43,134.69,366.5,134.88Z"/><path class="cls-5" d="M350.12,137.64c.17.32,1.52,0,3.14,0s3,.23,3.15-.09c.08-.15-.18-.44-.74-.7a5.76,5.76,0,0,0-2.39-.46,5.84,5.84,0,0,0-2.4.53C350.31,137.2,350,137.49,350.12,137.64Z"/><path class="cls-9" d="M382.85,146c.18-.09,7.37-2.35,7.29,5s-7.47,5.78-7.49,5.57S382.85,146,382.85,146Z"/><path class="cls-10" d="M384.94,153.85s.13.09.34.19a1.28,1.28,0,0,0,1,0,3.18,3.18,0,0,0,1.51-2.84,4.35,4.35,0,0,0-.34-1.84,1.47,1.47,0,0,0-1-1,.65.65,0,0,0-.76.34c-.1.21-.06.36-.1.37s-.16-.13-.09-.43a.81.81,0,0,1,.29-.46,1,1,0,0,1,.72-.18,1.79,1.79,0,0,1,1.33,1.16,4.42,4.42,0,0,1,.42,2.06c-.06,1.49-.84,2.87-1.91,3.17a1.36,1.36,0,0,1-1.17-.21C385,154,384.91,153.86,384.94,153.85Z"/><path class="cls-5" d="M350.26,141.16c.16.16,1.43.08,3.06.62s2.71,1.36,2.91,1.31,0-.27-.51-.65a7.56,7.56,0,0,0-2.3-1.18,6.61,6.61,0,0,0-2.47-.36C350.4,140.94,350.18,141.08,350.26,141.16Z"/><path class="cls-5" d="M350.84,144.93a1.4,1.4,0,0,0,1.4,1.34,1.33,1.33,0,0,0,1.37-1.32,1.38,1.38,0,0,0-1.4-1.34A1.34,1.34,0,0,0,350.84,144.93Z"/><path class="cls-5" d="M334.83,127.12a1.65,1.65,0,0,1,.8-.94,5,5,0,0,1,2.63-.36,14.72,14.72,0,0,0,6.45-1.45,7.35,7.35,0,0,1-1.85-1.37,4.39,4.39,0,0,1-1.15-4.4,1,1,0,0,1,.56-.66c.46-.13.85.33,1.16.69a3.75,3.75,0,0,0,3.52,1.6,6.07,6.07,0,0,0,2.68-.72l.09-.09,1.1-1.06h0c2.7-2.54,5-4.3,7.37-5.18a23.73,23.73,0,0,1,12.72-.67c3.54,1,6.67,4,7.07,7.66,2-1.64,5-1.55,7.46-.51l.06,0c2.68,1,4.15,3.94,4.88,6.72,0,.16.08.31.11.46a10.75,10.75,0,0,0,3.56,3.66c.26.16.56.35.58.66a.88.88,0,0,1-.48.71,5.58,5.58,0,0,1-2.22.85,11.79,11.79,0,0,0,.85,1.93c.29.53.64,1.16.36,1.69a1.15,1.15,0,0,1-1.21.49,3.53,3.53,0,0,1-1.25-.6l.85,2.19a6.38,6.38,0,0,1-2.94-.27,71.43,71.43,0,0,1-2.09,7.59c-1.13,0-2.2-.33-2.91.28-1,.83-1.44,2.43-3,1.78-.8-.33-1.49-2-1.74-2.86a40.07,40.07,0,0,1-1.3-17,12.8,12.8,0,0,0-3.89-3l.12.11c-2.84-1.07-6-2.13-8.81-.85-2.13,1-3.42,3.14-5,4.85a15.2,15.2,0,0,1-11.2,5c-.48,3.08-.25,7-.47,9.89l-2.55-4.72v0a10.84,10.84,0,0,1-.5-1l0-.11h0c-.24-.55-.47-1.11-.77-1.66l0,0a1.8,1.8,0,0,1-2.57-2.47,4,4,0,0,1,.89-.86,2.83,2.83,0,0,1-2.73.64,2.25,2.25,0,0,1-1.53-2.25,1.92,1.92,0,0,1,1.18-1.5,6.45,6.45,0,0,1-3.64-.9C335.25,128.72,334.56,128,334.83,127.12Z"/><path class="cls-8" d="M374.73,121.27a8.14,8.14,0,0,1,1,1,7.28,7.28,0,0,1,1.49,3.44,13.41,13.41,0,0,1,.2,2.62c0,.94-.13,2-.23,3a27.93,27.93,0,0,0-.16,3.36,12.09,12.09,0,0,0,.19,1.78,3.65,3.65,0,0,0,.68,1.74,1.56,1.56,0,0,0,1.43.52,2.31,2.31,0,0,0,1.32-.7,5.41,5.41,0,0,0,1.06-2.58l-.22,0a8.66,8.66,0,0,0,1.19,2.18,3.06,3.06,0,0,0,2,1.13,1.9,1.9,0,0,0,1.06-.16,1.61,1.61,0,0,0,.73-.68,1.79,1.79,0,0,0,.25-.91,1.32,1.32,0,0,0-.31-.8l-.11.09a6.5,6.5,0,0,0,2.15,1.71,5.22,5.22,0,0,0,.68.28l.24.07s-.07,0-.23-.11a6.66,6.66,0,0,1-.65-.31,6.82,6.82,0,0,1-2.08-1.73l-.11.09a1.33,1.33,0,0,1,0,1.53,1.59,1.59,0,0,1-.67.61,1.8,1.8,0,0,1-1,.13,2.84,2.84,0,0,1-1.82-1.08,8.67,8.67,0,0,1-1.15-2.13l-.14-.33-.08.35a5.11,5.11,0,0,1-1,2.47,2.06,2.06,0,0,1-1.18.62,1.29,1.29,0,0,1-1.22-.44,3.53,3.53,0,0,1-.63-1.63,11.41,11.41,0,0,1-.18-1.74,27.72,27.72,0,0,1,.14-3.33c.1-1.06.19-2.07.2-3a12.92,12.92,0,0,0-.22-2.65,7.29,7.29,0,0,0-1.59-3.47A3.94,3.94,0,0,0,374.73,121.27Z"/><path class="cls-8" d="M342.77,130.43l.09.07c.06.06.15.12.25.2l.42.29c.18.1.38.23.62.34a9.07,9.07,0,0,0,4.36.9,11.63,11.63,0,0,0,6.25-2.13,20.24,20.24,0,0,0,5.47-6c.77-1.22,1.41-2.47,2.11-3.63a13.63,13.63,0,0,1,2.37-3.06,7,7,0,0,1,3-1.72,5.25,5.25,0,0,1,1.56-.14,5.35,5.35,0,0,1,1.42.31,5.89,5.89,0,0,1,2.1,1.34,6,6,0,0,1,1.12,1.53,6.71,6.71,0,0,1,.49,1.55s0,0,0-.11,0-.19,0-.31a5.37,5.37,0,0,0-.36-1.17,5.89,5.89,0,0,0-1.11-1.58,6,6,0,0,0-2.14-1.41,5.66,5.66,0,0,0-1.46-.33,4.78,4.78,0,0,0-1.63.13,7.15,7.15,0,0,0-3.1,1.74,13.7,13.7,0,0,0-2.42,3.11c-.71,1.16-1.35,2.42-2.12,3.63a20.15,20.15,0,0,1-5.39,5.93,11.48,11.48,0,0,1-6.12,2.14,9.23,9.23,0,0,1-4.32-.81C343.24,130.79,342.79,130.4,342.77,130.43Z"/><path class="cls-8" d="M342,125.9s.12.11.36.27a8.52,8.52,0,0,0,1.07.58,10.79,10.79,0,0,0,1.71.61,11.92,11.92,0,0,0,2.2.35,12.22,12.22,0,0,0,2.22-.1,10.09,10.09,0,0,0,1.77-.41,8.46,8.46,0,0,0,1.13-.45,1.81,1.81,0,0,0,.39-.22s-.59.23-1.57.51a11.49,11.49,0,0,1-1.75.35,12.84,12.84,0,0,1-2.18.08,13.82,13.82,0,0,1-2.16-.32,12.38,12.38,0,0,1-1.69-.56C342.52,126.21,342,125.87,342,125.9Z"/><path class="cls-10" d="M366.16,155.81s-3.73,1.09-5.15,1.6l.57,1.63a2.55,2.55,0,0,0,4.37.84,2.64,2.64,0,0,0,.59-1.83A14.14,14.14,0,0,0,366.16,155.81Z"/><path class="cls-5" d="M361,157.41a29.26,29.26,0,0,1,5.08-1.85l.27-.08.06.28,0,.12a11.37,11.37,0,0,1,.34,2.16,2.55,2.55,0,0,1-.54,1.77c-.71.84-1.44.89-1.43.84s.6-.27,1.13-1.05.34-2.13,0-3.61l0-.13.32.2A27.94,27.94,0,0,1,361,157.41Z"/><path class="cls-8" d="M229.26,437.33,229,462.78l-6,20.07a2.61,2.61,0,0,0,1.92,3.29h0a2.6,2.6,0,0,0,2.31-.6c4-3.59,18.42-16.78,18.48-18.37.07-2.05,2.16-27.21,2.16-27.21Z"/><path class="cls-5" d="M224.92,486.14l21-21.88-.08,1.89a3.16,3.16,0,0,1-.68,2.28A218.15,218.15,0,0,1,227.5,486c-.65.59-1.74.4-2.58.19Z"/><path class="cls-12" d="M240.92,456.69a1.59,1.59,0,0,0-.5,2.05,1.52,1.52,0,0,0,2,.51,1.66,1.66,0,0,0,.51-2.17,1.57,1.57,0,0,0-2.16-.3"/><path class="cls-5" d="M231.1,475.22c-.15.06-.68-1.29-2.17-2.06a7.89,7.89,0,0,0-2.91-.65c0-.07.31-.25.91-.32a4.16,4.16,0,0,1,3.93,2.1C231.14,474.82,231.16,475.2,231.1,475.22Z"/><path class="cls-5" d="M229.18,478.56c-.13.11-.92-.75-2.22-1.17a23.66,23.66,0,0,0-2.48-.4,2.94,2.94,0,0,1,2.66-.13C228.62,477.35,229.31,478.5,229.18,478.56Z"/><path class="cls-5" d="M234.62,471a27.18,27.18,0,0,0-3.3-2,27,27,0,0,0-3.75-1,7.18,7.18,0,0,1,7.05,3Z"/><path class="cls-5" d="M235.34,463.23c-.07.15-1.46-.48-3.28-.61s-3.29.27-3.34.11a5,5,0,0,1,3.38-.66A5.07,5.07,0,0,1,235.34,463.23Z"/><path class="cls-5" d="M235.61,455.76a13,13,0,0,0-3.41-.72,13.21,13.21,0,0,0-3.4.73s.25-.36.85-.68a5.53,5.53,0,0,1,2.55-.61,5.62,5.62,0,0,1,2.56.6C235.36,455.4,235.65,455.71,235.61,455.76Z"/><path class="cls-5" d="M232.3,453.62a2.08,2.08,0,0,1,0-1,6.79,6.79,0,0,1,.85-2.5,3,3,0,0,1,1.32-1.37,1,1,0,0,1,1.17.27,1.73,1.73,0,0,1,.37,1.16,3.68,3.68,0,0,1-3.35,3.3,4.27,4.27,0,0,1-4.12-2.37,1.52,1.52,0,0,1,0-1.24,1,1,0,0,1,1.1-.5,3.52,3.52,0,0,1,1.64.92,7.46,7.46,0,0,1,1.67,2,2.24,2.24,0,0,1,.36.89,11.72,11.72,0,0,0-2.28-2.62,3.29,3.29,0,0,0-1.45-.77.54.54,0,0,0-.6.27,1,1,0,0,0,.07.81,3.81,3.81,0,0,0,3.59,2,3.21,3.21,0,0,0,2.88-2.76,1.23,1.23,0,0,0-.22-.83.59.59,0,0,0-.64-.16,2.69,2.69,0,0,0-1.14,1.15A9.85,9.85,0,0,0,232.3,453.62Z"/><path class="cls-8" d="M281.36,435.24l-.94,21.48s21.52,8.17,21.73,12.15l-41.71-.32.09-33.53Z"/><path class="cls-2" d="M267.54,454.81a1.7,1.7,0,0,0-1.19,1.93,1.63,1.63,0,0,0,1.91,1.2,1.79,1.79,0,0,0,1.25-2.05,1.7,1.7,0,0,0-2.12-1"/><path class="cls-5" d="M260.44,468.55l.15-3.38,39.93,1.57s1.85.83,1.63,2.13Z"/><path class="cls-5" d="M281.1,456.51c0,.2-1,.29-2,.94s-1.55,1.5-1.74,1.41.13-1.25,1.36-2S281.15,456.32,281.1,456.51Z"/><path class="cls-5" d="M285.46,458.35c.05.2-.84.54-1.54,1.4s-.9,1.76-1.1,1.75-.33-1.16.56-2.21S285.46,458.16,285.46,458.35Z"/><path class="cls-5" d="M287.91,463.61c-.19,0-.46-1,.07-2.09s1.48-1.55,1.57-1.38-.51.76-.93,1.68S288.11,463.59,287.91,463.61Z"/><path class="cls-5" d="M280.77,451.59c-.08.19-1-.1-2.17,0s-2.05.42-2.15.25.76-.9,2.12-1S280.87,451.43,280.77,451.59Z"/><path class="cls-5" d="M286.88,273.79s6.83,15.65,6.47,27.37c-1.38,45.2-10.67,152.76-10.67,152.76H259l-.8-144.23-5.42,76.45-3,69.27-22.4,2.86-9.58-144,1.2-24.7,6.11-17Z"/><path class="cls-8" d="M250.09,301.65a4.36,4.36,0,0,0,1,.44c.68.25,1.68.6,2.91,1l.24.08v-.25c.15-2.06.31-4.82.46-7.85.16-3.28.28-6.25.34-8.4,0-1.08.05-1.95.05-2.55a3.71,3.71,0,0,0-.05-.94,3,3,0,0,0-.15.93c-.06.6-.13,1.47-.21,2.54-.15,2.15-.33,5.12-.49,8.4-.15,3-.27,5.79-.33,7.86l.25-.17c-1.24-.37-2.26-.67-3-.86A5.46,5.46,0,0,0,250.09,301.65Z"/><path class="cls-8" d="M252.05,283.8s-.08-.13-.34-.22a1.57,1.57,0,0,0-1.14.1,1.4,1.4,0,0,0-.86,1.41,1.72,1.72,0,0,0,1.37,1.52,1.9,1.9,0,0,0,1.9-.86,1.55,1.55,0,0,0,0-1.63,1.79,1.79,0,0,0-.85-.72c-.26-.08-.41-.07-.42,0s.59.19.95.92a1.23,1.23,0,0,1-.06,1.24,1.45,1.45,0,0,1-1.4.61,1.32,1.32,0,0,1-1-1.08,1.08,1.08,0,0,1,.57-1.07A2.14,2.14,0,0,1,252.05,283.8Z"/><path class="cls-8" d="M240.22,285.57c.14,0,.33-.74.43-1.67s.07-1.69-.07-1.71-.34.73-.44,1.66S240.08,285.55,240.22,285.57Z"/><path class="cls-8" d="M238.43,285.39c.14,0,.26-.79.26-1.77s-.1-1.77-.24-1.77-.26.79-.27,1.77S238.29,285.39,238.43,285.39Z"/><path class="cls-8" d="M269.5,286.58a4.34,4.34,0,0,0,.49-2,4.21,4.21,0,0,0,0-2c-.14,0-.36.88-.49,2A4.41,4.41,0,0,0,269.5,286.58Z"/><path class="cls-8" d="M267.34,286.74a4.4,4.4,0,0,0,.18-4.22,10.42,10.42,0,0,0-.06,2.11A9.93,9.93,0,0,0,267.34,286.74Z"/><path class="cls-8" d="M275.49,284.45a2.36,2.36,0,0,0,.09.75,14.72,14.72,0,0,0,.52,2,21.21,21.21,0,0,0,3.19,6.11,22.22,22.22,0,0,0,5,4.88,16.28,16.28,0,0,0,1.83,1.12,2.86,2.86,0,0,0,.72.33c0-.07-.94-.62-2.36-1.7a25.08,25.08,0,0,1-4.86-4.88,24.71,24.71,0,0,1-3.26-6C275.8,285.49,275.57,284.43,275.49,284.45Z"/><path class="cls-8" d="M219.75,296a2.78,2.78,0,0,0,.78.12,12.47,12.47,0,0,0,2.16,0,14.08,14.08,0,0,0,6.6-2.45,13.11,13.11,0,0,0,4.4-5.27,11,11,0,0,0,.68-1.95,1.94,1.94,0,0,0,.1-.75c-.08,0-.3,1-1.07,2.57A13.92,13.92,0,0,1,229,293.3a14.9,14.9,0,0,1-6.37,2.49C220.88,296.05,219.75,295.94,219.75,296Z"/><g class="cls-11"><path d="M218,309.67c0,.2,37.6-2,37.6-2L260.94,297l4.27,10.65h28l.25-7.07-32.15-18-25.3,10-17.62,9.78Z"/></g><path class="cls-8" d="M274.4,451.17a1.65,1.65,0,0,1,0-.36c0-.26,0-.6,0-1,0-.94,0-2.28,0-4,0-3.46,0-8.46.07-14.65.12-12.36.54-29.43,1.11-48.29s1-35.93,1.26-48.29c.09-6.15.17-11.15.22-14.63,0-1.71,0-3,.07-4,0-.44,0-.78,0-1a1.6,1.6,0,0,1,0-.35s0,.12,0,.35,0,.6,0,1c0,.94,0,2.27,0,4,0,3.45,0,8.46-.07,14.64-.12,12.36-.54,29.44-1.1,48.3s-1,35.92-1.26,48.28c-.1,6.16-.18,11.15-.23,14.64,0,1.7,0,3-.07,4,0,.43,0,.77,0,1A2.45,2.45,0,0,1,274.4,451.17Z"/><path class="cls-8" d="M234.9,451.21c-.14,0-.19-30.7-.1-68.56s.27-68.57.42-68.57.19,30.69.1,68.57S235.05,451.21,234.9,451.21Z"/><path class="cls-8" d="M205.67,179.5a11.46,11.46,0,0,0-4,7.42c-1.37,11.51-4.92,41.59-5.3,48.66-.4,7.51.74,17.84,7.87,19.32s38.33,1.78,38.33,1.78l1.63-23.15-25.7-.32,2.7-30-15.51-23.7Z"/><polygon class="cls-8" points="235 161.69 229.74 168.44 205.66 179.5 221.16 241.53 220.46 248.03 211.89 306.24 253.2 304.76 261.03 286.3 266.74 304.8 294.73 304.8 296.12 291 284.71 235.59 291.18 176.84 266 168.44 259.91 159.59 235 161.69"/><path class="cls-8" d="M291.18,176.83a9.79,9.79,0,0,1,3.55,5.16c3.25,12.31,8.92,41.94,10.42,46.45,1.91,5.74,3.85,22.37,2.12,28.24-1.65,5.58-13.94,38.44-13.94,38.44l-7.52-33.54L291.5,242l-3.22-10.1-6.76-29.85Z"/><path class="cls-5" d="M259.91,223.36a3.41,3.41,0,0,1-.42-.53l-1.14-1.59-4.09-5.89-13.33-19.54-9.79-14.53-.07-.09,0-.1,1.7-4.78.12.24-4-1.39-.12,0,0-.12c.27-2,.48-3.66.64-4.84.08-.52.14-.95.19-1.28a2.71,2.71,0,0,1,.09-.44,1.53,1.53,0,0,1,0,.45c0,.34-.06.76-.11,1.29-.12,1.18-.29,2.82-.5,4.85l-.1-.16,4,1.32.18.06-.06.18-1.65,4.8,0-.2,9.86,14.49,13.21,19.62,3.95,6c.44.67.79,1.22,1.05,1.64A2.89,2.89,0,0,1,259.91,223.36Z"/><path class="cls-5" d="M266,168.44a1.9,1.9,0,0,1,.33.29l.89.88,3.31,3.38.12.13-.14.11-1.59,1.22,0-.26c.6.68,1.26,1.43,1.94,2.22l.07.07,0,.1c-1,5.09-2.34,11.62-3.77,18.73-1.7,8.21-3.25,15.64-4.39,21.1-.57,2.65-1,4.81-1.38,6.39-.17.7-.3,1.28-.41,1.73a2.2,2.2,0,0,1-.17.59,2.81,2.81,0,0,1,.07-.61c.08-.46.18-1,.31-1.75.3-1.59.72-3.76,1.22-6.42,1.1-5.47,2.59-12.91,4.24-21.13,1.48-7.11,2.83-13.63,3.88-18.71l.05.17-1.91-2.25-.12-.15.15-.11,1.62-1.18,0,.23-3.2-3.48-.84-.94A1.78,1.78,0,0,1,266,168.44Z"/><path class="cls-5" d="M261.2,288.2a3.18,3.18,0,0,1-.07-.66c0-.49,0-1.12-.08-1.89-.05-1.71-.12-4.08-.21-7-.14-5.89-.3-14-.41-23s-.14-17.13-.08-23c0-2.95.1-5.33.19-7a18.67,18.67,0,0,1,.16-1.89,2.56,2.56,0,0,1,.1-.49c0-.05,0-.1.08-.11s0,0,0,0-.15.85-.18,2.47,0,4,0,7c.06,6,.14,14.05.23,23s.19,17.07.26,23c0,2.89,0,5.26,0,7,0,.78,0,1.41,0,1.9A3.1,3.1,0,0,1,261.2,288.2Z"/><polygon class="cls-3" points="235.96 161.31 235 169.63 260.56 224.31 264.48 197.81 263.52 171.12 260.05 161.31 235.96 161.31"/><path class="cls-5" d="M251,173.79a19.13,19.13,0,0,1-1.28,2.78c-.85,1.69-2.06,4.05-3.45,6.7l-.18.32-.24-.27-1.12-1.22c-2.27-2.49-4.31-4.77-5.77-6.44a24.79,24.79,0,0,1-2.28-2.77,25.29,25.29,0,0,1,2.55,2.52c1.53,1.61,3.61,3.85,5.89,6.34l1.11,1.22-.42.05c1.41-2.64,2.68-5,3.61-6.62A19.4,19.4,0,0,1,251,173.79Z"/><path class="cls-5" d="M266.74,304.8l.5,0,1.47,0,5.6-.06,20.42-.09-.2.19,1.36-13.8v.07c-2-9.51-4.21-20.35-6.57-31.82-1.71-8.3-3.35-16.28-4.85-23.59v-.08c1.5-14.57,3-27,3.89-35.9.41-4.41.73-7.92,1-10.36.1-1.19.18-2.11.24-2.77,0-.29.05-.52.07-.71a.92.92,0,0,1,0-.24,1.54,1.54,0,0,1,0,.25c0,.18,0,.41,0,.71,0,.66-.09,1.58-.16,2.77-.16,2.42-.42,5.94-.82,10.38-.75,8.87-2.23,21.35-3.7,35.92v-.07c1.5,7.3,3.15,15.28,4.87,23.59L296.35,291V291c-.51,5-1,9.62-1.42,13.79l0,.18h-.18l-20.42-.09-5.6-.05-1.47,0Z"/><path class="cls-5" d="M219.72,233.53c-.14,0-.44-7.05-.66-15.75s-.28-15.76-.14-15.77.44,7.05.66,15.75S219.86,233.52,219.72,233.53Z"/><g class="cls-11"><path d="M278,246.81a2.35,2.35,0,0,0-1.83-.73c-9.11-.73-18.26-1.45-27.36-.72s-18.24,3-26,7.87L218.92,256c8.32,2.81,17.5,4.63,26.16,3.21A4.43,4.43,0,0,0,248,258c.74-.95.62-2.31,1-3.44a5.19,5.19,0,0,1,4.06-3,20,20,0,0,1,5.24.09,44.55,44.55,0,0,0,17.58-2,4.3,4.3,0,0,0,1.82-1A1.57,1.57,0,0,0,278,246.81Z"/></g><path class="cls-8" d="M215.06,233.53c.61.91,29.12.48,29.12,0L242,256.68l-27-.77"/><path class="cls-5" d="M215.06,255.91l.51,0h1.5l5.58.09,19.38.46-.25.22c.36-3.93.76-8.22,1.17-12.68.34-3.65.67-7.19,1-10.48l.5,0a.29.29,0,0,1-.11.22c-.08.06,0,0-.07,0l-.09,0-.12,0-.2,0-.4,0-.79.05-1.54.08-3,.1-5.59.09c-3.53,0-6.65,0-9.25,0-5.18-.08-8.3-.38-8.22-.67-.05.18,3,.36,8.23.36,2.59,0,5.71,0,9.24-.08l5.57-.14,3-.11,1.53-.08.77-.06.38,0,.18,0,.08,0h0c.08.11.06.21.14.2l.26,0c-.3,3.29-.63,6.83-1,10.48-.42,4.46-.82,8.75-1.19,12.68l0,.23H242l-19.37-.65-5.59-.23-1.49-.08A1.69,1.69,0,0,1,215.06,255.91Z"/><path class="cls-5" d="M262.63,169.88a49.52,49.52,0,0,1-1.78,6.82c-.06.21-.13.42-.19.62l-.12.39-.3-.27c-1.31-1.18-2.63-2.11-3.52-2.84a6.25,6.25,0,0,1-1.35-1.28,9.24,9.24,0,0,1,1.57,1,39.43,39.43,0,0,1,3.65,2.75l-.42.11.18-.62A47.09,47.09,0,0,1,262.63,169.88Z"/><polygon class="cls-7" points="255.37 173.32 251.42 173.69 249.74 176.9 253.13 181.3 257.02 181.3 258.33 175.51 255.37 173.32"/><path class="cls-7" d="M253.13,181.3s-2,9.2-1.68,13.92.42,10.95.42,10.95l8.69,18.14,2.6-17.51s-3.61-18.66-4.83-21.55A16.43,16.43,0,0,1,257,181.3Z"/><path class="cls-5" d="M257,181.16c0,.14-.85.39-1.95.45s-2-.1-2-.25a4.93,4.93,0,0,1,2-.27C256.1,181,257,181,257,181.16Z"/><path class="cls-5" d="M256.93,174.61a12,12,0,0,1-2.26,2.77,12.85,12.85,0,0,1-2.63,2.41,12.06,12.06,0,0,1,2.25-2.77A12.69,12.69,0,0,1,256.93,174.61Z"/><g class="cls-11"><path d="M237.68,175.37s8.37,10.3,8.62,10.21l3.06-8.78L246,183.15l-9.76-10.71Z"/></g><g class="cls-11"><path d="M272.59,176.76s-3-2.46-3.78-2.45l1.92,2.23s-.56,2.71-.79,3.8c-2.9,13.88-5.84,29-8.74,42.86,3.94-13.71,7.55-28.18,10.47-42.15C272,179.68,272.59,176.76,272.59,176.76Z"/></g><path class="cls-5" d="M214.92,195.24a48.15,48.15,0,0,0-4.39-6.49,47.41,47.41,0,0,0-5.78-5.29,7.6,7.6,0,0,1,2,1.17,23.37,23.37,0,0,1,4.16,3.78,23.1,23.1,0,0,1,3.13,4.67A7.49,7.49,0,0,1,214.92,195.24Z"/><rect class="cls-7" x="271.4" y="202.01" width="13.63" height="9.14"/><rect class="cls-12" x="271.4" y="203.85" width="13.63" height="1.3"/><rect class="cls-12" x="271.4" y="207.04" width="13.63" height="1.3"/><rect class="cls-12" x="271.4" y="209.86" width="13.63" height="1.3"/><rect class="cls-8" x="271.4" y="202.01" width="5.98" height="5.02"/><path class="cls-5" d="M285,211.15a4,4,0,0,1-.05-.68c0-.5,0-1.11-.05-1.86,0-1.66-.07-3.9-.11-6.6l.21.21-13.64.05c0,.06.5-.49.26-.26h0v4.73c0,1.53,0,3,0,4.39l-.24-.23c4,0,7.34.07,9.76.11l2.83.07c.66,0,1,0,1.05.05a5.32,5.32,0,0,1-1,.06l-2.78.07c-2.39,0-5.84.09-9.91.11h-.23v-.24c0-1.39,0-2.86,0-4.39,0-.77,0-1.55,0-2.34V202h0c-.23.24.32-.31.26-.26l13.64.05h.21v.2c0,2.84-.08,5.15-.11,6.73,0,.73,0,1.33-.06,1.81A3,3,0,0,1,285,211.15Z"/><path class="cls-3" d="M270.27,213.22s-10.85,45.58-11.1,46.36h36l10.75-47.21Z"/><path class="cls-5" d="M270.27,213.22l.63,0,1.87-.07,7.17-.23,26-.72h.27l-.06.27c-3,13.24-6.68,29.48-10.66,47l-.05.2,0,.2h-.21l-36,0h-.3l.08-.31c3.33-13.74,6.15-25.33,8.14-33.51,1-4,1.78-7.24,2.33-9.46.27-1.07.47-1.9.62-2.48.07-.27.13-.47.17-.64l.06-.2a.93.93,0,0,1,0,.23c0,.17-.08.39-.14.66l-.58,2.54c-.52,2.24-1.27,5.46-2.21,9.53-1.93,8.18-4.67,19.75-7.91,33.47l-.22-.3,36,0-.25.2,0-.2c4-17.53,7.73-33.76,10.76-47l.21.26-25.88.52-7.21.11-1.91,0Z"/><path class="cls-13" d="M269.34,230.86s9.43-.43,9.54,1.54-.65,1.21-3.07,1.86-10.53,1.43-10.53,1.43-1.21,1.1,1.54.77,12.17-.32,13.05.06a1.73,1.73,0,0,1-.66,3.12c-2,.44-13.71,1.43-13.71,1.43s15-.11,15.11.87-.41,2.2-2.38,2.53h-1.32s1.1,1.86-1,2.19-11.22,1.65-13.67,1.43-13.86-.44-13.86-.44l-5.62.46,1.09-12.42,5.62-.88s7.14-4.71,8.89-5.59,5.91-.7,8.43-1.47l-.47,3.09,3,0"/><path class="cls-14" d="M270,230.84a43.66,43.66,0,0,1-5.41.45c-1.49.11-2.83.25-3.8.38a7.48,7.48,0,0,1-1.58.2,3.74,3.74,0,0,1,1.51-.56,25.65,25.65,0,0,1,3.83-.54A21.23,21.23,0,0,1,270,230.84Z"/><path class="cls-14" d="M277.25,244.54a33.57,33.57,0,0,1-6,.35,35,35,0,0,1-6-.17,33.85,33.85,0,0,1,6-.35A34.72,34.72,0,0,1,277.25,244.54Z"/><path class="cls-5" d="M260.59,142.15a76.29,76.29,0,0,0,3.48-12.72,26.7,26.7,0,0,0-.89-13.05c-.22-.62-2.15-4.84-2.82-4.79-.47,0,.7,4,.46,4.38a22.64,22.64,0,0,0-2.71,13.17,59.56,59.56,0,0,0,2.48,13"/><path class="cls-13" d="M260.43,164.71l.8-39.35c.49-11-5.52-20.51-16.56-20.7l-1,0a19.74,19.74,0,0,0-18.91,18.94c-.37,9.57-.66,20.14-.39,25.25.57,10.58,11.22,11.79,11.22,11.79s0,.93,0,4l16,8.95,3.82-.35Z"/><path class="cls-14" d="M235.57,160.68A25.65,25.65,0,0,0,249.19,156s-3,8.1-13.59,7.58Z"/><path class="cls-5" d="M228.65,132.78a1.5,1.5,0,0,0,1.52,1.46,1.45,1.45,0,0,0,1.5-1.43,1.51,1.51,0,0,0-1.52-1.46A1.45,1.45,0,0,0,228.65,132.78Z"/><path class="cls-5" d="M227.19,128.23c.19.19,1.3-.71,2.93-.77s2.85.7,3,.49-.12-.44-.66-.79a4.09,4.09,0,0,0-2.43-.64,3.93,3.93,0,0,0-2.32.85C227.24,127.78,227.09,128.14,227.19,128.23Z"/><path class="cls-5" d="M242.93,132.78a1.51,1.51,0,0,0,1.52,1.46,1.45,1.45,0,0,0,1.5-1.43,1.5,1.5,0,0,0-1.52-1.46A1.45,1.45,0,0,0,242.93,132.78Z"/><path class="cls-5" d="M243.15,127.94c.19.19,1.3-.7,2.93-.76s2.85.7,3,.49-.12-.44-.66-.8a4.21,4.21,0,0,0-2.43-.64,4,4,0,0,0-2.32.86C243.21,127.5,243.05,127.86,243.15,127.94Z"/><path class="cls-5" d="M237.83,140.69a10.28,10.28,0,0,0-2.66-.37c-.42,0-.82-.09-.9-.38a2.13,2.13,0,0,1,.23-1.24c.35-1,.71-2.09,1.09-3.21,1.52-4.58,2.61-8.33,2.42-8.39s-1.56,3.6-3.08,8.17l-1.05,3.23a2.39,2.39,0,0,0-.15,1.64,1,1,0,0,0,.71.58,2.66,2.66,0,0,0,.71.07A11.07,11.07,0,0,0,237.83,140.69Z"/><path class="cls-5" d="M242.41,122.88c.24.4,1.8-.1,3.72-.22s3.53.11,3.71-.32c.08-.21-.26-.57-1-.88A6.23,6.23,0,0,0,246,121a6.29,6.29,0,0,0-2.78.86C242.59,122.28,242.3,122.68,242.41,122.88Z"/><path class="cls-5" d="M226.91,123.45c.35.36,1.67-.06,3.26-.12s3,.17,3.25-.23c.13-.19-.09-.55-.69-.89a5.13,5.13,0,0,0-2.66-.53,5.07,5.07,0,0,0-2.58.81C226.93,122.88,226.76,123.27,226.91,123.45Z"/><path class="cls-13" d="M260.69,133.23c.17-.08,7.18-2.45,7.25,4.8s-7.22,5.82-7.24,5.61S260.69,133.23,260.69,133.23Z"/><path class="cls-14" d="M262.89,140.87s.13.09.34.18a1.26,1.26,0,0,0,.95,0,3.15,3.15,0,0,0,1.42-2.82,4.29,4.29,0,0,0-.37-1.8,1.5,1.5,0,0,0-1-1,.64.64,0,0,0-.74.36c-.1.2,0,.35-.09.36s-.16-.12-.1-.42a.79.79,0,0,1,.28-.46,1,1,0,0,1,.7-.19,1.76,1.76,0,0,1,1.32,1.11,4.27,4.27,0,0,1,.46,2c0,1.46-.77,2.83-1.81,3.14a1.35,1.35,0,0,1-1.16-.18C262.91,141.05,262.87,140.89,262.89,140.87Z"/><path class="cls-5" d="M229.42,111.64c-1.17-.65,2.35-4.45,5.23-5.76,4.35-2,11-3.2,15-2.06,4.84,1.37,8.86,3.77,11.29,8.17a28.48,28.48,0,0,1,3.2,14.55,8.71,8.71,0,0,1-1,4.43c-1,1.6-3,2.61-2.87,4.82a3.07,3.07,0,0,1-.75,2.22c-1.33,1.41-2.95.08-3.7-1.25-1.59-2.83-1.77-6.22-1.91-9.47a21.27,21.27,0,0,1,.45-6.9c.36-1.2.93-2.35,1.21-3.57a4.36,4.36,0,0,0-.51-3.62,4.63,4.63,0,0,0-.59-.59,7.56,7.56,0,0,0-7.5-1.43c-4.08,1.45-11,3.61-12.87,2.23a11.35,11.35,0,0,1-3.25-3.29Z"/><path class="cls-5" d="M242.94,141.69c-.25,0-.26,1.65-1.69,2.83s-3.2,1-3.22,1.21.4.33,1.15.35a4.14,4.14,0,0,0,2.68-.92,3.63,3.63,0,0,0,1.31-2.37C243.23,142.1,243.05,141.68,242.94,141.69Z"/><polygon class="cls-12" points="111.59 200.48 118.72 267.01 143.98 282.14 163.79 275.27 158.37 197.77 145.88 193.9 121.44 193.04 111.59 200.48"/><path class="cls-8" d="M117.06,420,95.27,439.88l24.66,27.24c2.45-2.52-5.08-21.34-5.08-21.34l13.61-13.16Z"/><path class="cls-12" d="M108.41,436.3a1.5,1.5,0,0,0-2,.38,1.45,1.45,0,0,0,.36,1.95,1.59,1.59,0,0,0,2.08-.42,1.48,1.48,0,0,0-.6-2"/><path class="cls-5" d="M95.27,439.88l2.28-2.1,22.71,27.09s.56,1.69-.43,2.32Z"/><path class="cls-12" d="M115.39,446.1c-.14.12-.8-.49-1.82-.76s-1.89-.11-1.95-.28.89-.67,2.12-.32S115.54,446,115.39,446.1Z"/><path class="cls-12" d="M116.8,450c-.11.14-.85-.23-1.82-.17s-1.69.47-1.8.33.5-.9,1.71-.95S116.92,449.91,116.8,450Z"/><path class="cls-12" d="M114.85,454.74c-.17-.11.22-.84,1.39-1.2s1.89,0,1.83.2-.8.13-1.64.4S115,454.86,114.85,454.74Z"/><path class="cls-12" d="M118.38,443c-.17.05-.54-.73-1.27-1.43s-1.5-1.08-1.45-1.25,1,0,1.89.8S118.55,442.93,118.38,443Z"/><path class="cls-12" d="M121,439.38c-.06.05-.61-.4-1.23-1.37a7.72,7.72,0,0,1-.85-1.82,9.34,9.34,0,0,1-.3-1.16,2.5,2.5,0,0,1-.05-.7.79.79,0,0,1,.65-.71,1,1,0,0,1,.83.31,2.64,2.64,0,0,1,.4.58,6.59,6.59,0,0,1,.47,1.11,6.47,6.47,0,0,1,.32,2,3.25,3.25,0,0,1-.38,1.81c-.1,0,0-.71-.06-1.79a7.42,7.42,0,0,0-.42-1.83,6.53,6.53,0,0,0-.47-1c-.18-.35-.4-.6-.6-.56s-.09,0-.12.17a1.4,1.4,0,0,0,0,.52,9.13,9.13,0,0,0,.24,1.09,9.8,9.8,0,0,0,.68,1.77A14.43,14.43,0,0,1,121,439.38Z"/><path class="cls-12" d="M120.68,439.38c-.06,0,.17-.72,1-1.55a6.08,6.08,0,0,1,1.66-1.17,6.48,6.48,0,0,1,1.15-.4,1.5,1.5,0,0,1,1.47.25.84.84,0,0,1,.14.91,2.5,2.5,0,0,1-.38.59,4.21,4.21,0,0,1-.91.84,4.31,4.31,0,0,1-1.94.69c-1.19.11-1.85-.31-1.81-.36a13.1,13.1,0,0,0,1.75-.08,4.22,4.22,0,0,0,1.67-.73,3.74,3.74,0,0,0,.76-.73c.25-.31.39-.63.26-.71a1,1,0,0,0-.88-.07,5.5,5.5,0,0,0-1,.33,6.06,6.06,0,0,0-1.6,1C121.13,438.84,120.77,439.43,120.68,439.38Z"/><path class="cls-8" d="M111.8,439.16l.28,29.53,36.73-.16c-.23-3.51-19.26-10.47-19.26-10.47l.6-18.93Z"/><path class="cls-12" d="M118.18,456.51a1.5,1.5,0,0,0-1,1.72,1.45,1.45,0,0,0,1.69,1,1.58,1.58,0,0,0,1.08-1.83,1.5,1.5,0,0,0-1.88-.88"/><path class="cls-5" d="M112.07,468.75l0-3.16,35.33,1.19s1.63.72,1.45,1.87Z"/><path class="cls-5" d="M130.14,457.87c0,.18-.9.26-1.78.84s-1.35,1.34-1.51,1.27.09-1.11,1.17-1.79S130.18,457.7,130.14,457.87Z"/><path class="cls-5" d="M134,459.44c0,.18-.73.49-1.34,1.25s-.78,1.56-1,1.56-.29-1,.48-2S134,459.27,134,459.44Z"/><path class="cls-5" d="M136.21,464.05c-.16,0-.42-.86,0-1.84s1.29-1.38,1.37-1.23-.44.67-.8,1.49S136.39,464,136.21,464.05Z"/><path class="cls-5" d="M129.8,453.54c-.08.16-.9-.08-1.91,0s-1.81.4-1.9.25.66-.8,1.86-.87S129.89,453.4,129.8,453.54Z"/><path class="cls-5" d="M113.65,270.74s-5.15,5.51-7.68,10.79-6.42,16.54-6.42,16.54-4.83,17.18-3.75,25.28,8.32,63.51,8.32,63.51-1.43,43.93,4.77,63.47l1.14,5.18,20.71-3.67h0l4.59-108.74L148,271.22Z"/><path class="cls-8" d="M140.1,275.37c-.09,0-.06-.68-.8-1.19a1.54,1.54,0,0,0-1.42-.15,1.47,1.47,0,0,0,.05,2.75,1.52,1.52,0,0,0,1.41-.19c.72-.54.67-1.25.76-1.22s.08.15.05.44a1.74,1.74,0,0,1-.59,1.06,1.85,1.85,0,0,1-1.78.35,1.92,1.92,0,0,1-.06-3.62,1.85,1.85,0,0,1,1.79.29,1.67,1.67,0,0,1,.62,1C140.17,275.22,140.13,275.37,140.1,275.37Z"/><path class="cls-5" d="M164.14,285.68s7.59,68.93,8.68,80.77-41.87,75-41.87,75L112.82,420l27.66-51.41-9.31-51.22,12.26-46.21,19.07.23Z"/><path class="cls-8" d="M105.72,433.73s0,.52.14,1.51.37,2.44.72,4.32c.69,3.75,1.8,9.19,3.3,16l0,.15.15,0L130.77,452l.16,0v-.16c.57-14.21,1.26-31.2,2-49.42.76-19.6,1.47-37.78,2.06-52.69h0c1.56-12,2.84-21.88,3.74-28.81.43-3.45.77-6.15,1-8,.11-.9.19-1.61.25-2.1s.06-.72.06-.72-.05.24-.12.71-.18,1.19-.31,2.1c-.26,1.86-.63,4.56-1.11,8-.94,6.92-2.28,16.82-3.9,28.79h0c-.61,14.91-1.34,33.09-2.14,52.69-.71,18.22-1.37,35.21-1.93,49.43l.17-.19L110,455.36l.18.12c-1.54-6.79-2.7-12.22-3.44-16-.37-1.87-.64-3.32-.79-4.3-.09-.49-.14-.87-.17-1.12Z"/><path class="cls-8" d="M137.08,298.77a6.84,6.84,0,0,1,1.13.05,5.16,5.16,0,0,0,2.92-.49,2.7,2.7,0,0,0,1.17-1.57,11.13,11.13,0,0,0,.36-2.37c.14-1.72.29-3.61.42-5.6.27-4,.41-7.58.5-10.19q.07-1.85.12-3.09a5.88,5.88,0,0,1,.09-1.14,4.6,4.6,0,0,1,.1,1.14c0,.73,0,1.79,0,3.1,0,2.61-.09,6.23-.36,10.21-.13,2-.29,3.89-.46,5.61a10.81,10.81,0,0,1-.43,2.46,3,3,0,0,1-1.38,1.74,4,4,0,0,1-1.76.46,7.46,7.46,0,0,1-1.34-.08A4,4,0,0,1,137.08,298.77Z"/><path class="cls-8" d="M163.3,285.73a7.46,7.46,0,0,1-2-1.05,20.34,20.34,0,0,1-4.07-3.55,20.55,20.55,0,0,1-3-4.5,7,7,0,0,1-.78-2.1,27.81,27.81,0,0,0,9.83,11.2Z"/><path class="cls-7" d="M123.47,174.29l-6.31,6.92L96,188.35l8.41,62.48L97.54,281,90.3,309.32s21.36,5.82,26.86,2.64,12.21-34,14.25-41.37,5.09-29.12,3.66-40.72-3.87-28.71-5.09-34.61S123.47,174.29,123.47,174.29Z"/><path class="cls-7" d="M96,188.35s-5.55,7.26-7.12,14.24c-2.66,11.78-12.94,43.95-12.33,51.48S117,275.27,117,275.27l1.63-21-18.52-9.76,5.08-19.76"/><path class="cls-5" d="M105.14,224.78a1.45,1.45,0,0,1-.06.34l-.24,1-1,3.89c-.86,3.42-2.11,8.36-3.67,14.56l-.08-.19,18.54,9.72.13.06v.15c-.49,6.37-1,13.45-1.6,21l0,.32-.31-.1c-7.8-2.75-16.2-5.95-24.66-9.88-2.78-1.31-5.51-2.66-8.1-4.18s-5.16-3.08-7-5.46a5.24,5.24,0,0,1-.57-1,2,2,0,0,1-.17-.56,1.89,1.89,0,0,1-.08-.56,17.44,17.44,0,0,1,.08-2.18c.12-1.43.38-2.82.61-4.2.54-2.74,1.13-5.41,1.77-8C81.31,229.19,84,220,86.17,212.24c1.08-3.88,2-7.39,2.76-10.5a34.18,34.18,0,0,1,3.21-7.55c1.09-2,2.08-3.42,2.75-4.4.34-.48.61-.85.8-1.09a3.59,3.59,0,0,1,.29-.35l-.25.38c-.18.28-.43.65-.75,1.12-.65,1-1.6,2.46-2.66,4.43a34.45,34.45,0,0,0-3.11,7.54c-.74,3.1-1.63,6.64-2.69,10.52-2.09,7.77-4.78,17-7.31,27.29q-1,3.87-1.75,8c-.23,1.37-.48,2.75-.6,4.15a16.44,16.44,0,0,0-.07,2.1,3.27,3.27,0,0,0,.73,1.85c1.72,2.22,4.32,3.79,6.85,5.31s5.29,2.84,8.06,4.15c8.43,3.91,16.83,7.12,24.6,9.88l-.32.21c.59-7.52,1.15-14.6,1.65-21l.12.21L100,244.69l-.12-.07,0-.12c1.63-6.18,2.92-11.11,3.81-14.52.45-1.67.8-3,1.05-3.87.11-.42.21-.75.27-1S105.14,224.78,105.14,224.78Z"/><path class="cls-7" d="M148.69,179.32l2.65,3.86,15.07,5.09s1.32,15.28,1.32,20-1.93,56.6-1.93,59,9.36,35.63,8.55,37.66-10.59,3.47-10.59,3.47-3.67-28.71-3.67-38.48-.4-33.8-2.44-45.61-9-38.68-9-38.68Z"/><path class="cls-7" d="M166.41,188.27s4.45,1.92,5,12.19,1.35,33.48,1.35,33.48,2.86,3.87,3.19,7.07,5.72,21.87,5.72,21.87l-12.11,4-3.1-5.72-2.62-56.71Z"/><path class="cls-5" d="M160.31,275.37a2.17,2.17,0,0,1,0-.24c0-.19,0-.43,0-.71,0-.67,0-1.59,0-2.75.06-2.42.13-5.86.23-10.08.2-8.51.54-20.27.76-33.25,0-1.62,0-3.23,0-4.81s-.17-3.11-.28-4.64c-.25-3-.49-6-.78-8.79s-.6-5.45-1-7.91a33.39,33.39,0,0,0-1.9-6.65,85.61,85.61,0,0,0-4.26-9.1c-.56-1-1-1.82-1.31-2.41l-.35-.63c-.07-.14-.11-.21-.1-.22a.81.81,0,0,1,.15.2l.39.6c.33.53.81,1.32,1.39,2.36a75.23,75.23,0,0,1,4.43,9.07,32.81,32.81,0,0,1,2,6.7c.45,2.48.78,5.14,1.08,7.94s.55,5.75.81,8.8c.12,1.52.29,3.08.29,4.68s0,3.19,0,4.82c-.22,13-.62,24.74-.91,33.25-.17,4.22-.3,7.65-.4,10.08-.05,1.16-.1,2.07-.13,2.74,0,.29,0,.52-.05.71A.92.92,0,0,1,160.31,275.37Z"/><path class="cls-5" d="M134.06,254.07a3.92,3.92,0,0,1-.12-.76c-.05-.51-.11-1.25-.18-2.21-.12-1.91-.23-4.69-.18-8.12,0-1.72.1-3.6.23-5.61a25.36,25.36,0,0,0-.76-6.3,106.12,106.12,0,0,0-4.68-13.93c-2-4.84-4-9.39-5.87-13.51a56,56,0,0,1-2.51-5.95,55.18,55.18,0,0,1-1.33-5.47c-.65-3.37-1-6.13-1.24-8-.11-1-.18-1.7-.23-2.2a3.73,3.73,0,0,1,0-.77,7,7,0,0,1,.14.76c.08.55.19,1.27.32,2.18.3,1.89.71,4.64,1.4,8,.36,1.67.77,3.5,1.38,5.4a58,58,0,0,0,2.53,5.89c1.91,4.11,3.95,8.66,5.92,13.52a102.18,102.18,0,0,1,4.67,14,25.14,25.14,0,0,1,.72,6.44c-.14,2-.24,3.88-.29,5.59-.1,3.42,0,6.19,0,8.1,0,.92.06,1.65.08,2.21A4.51,4.51,0,0,1,134.06,254.07Z"/><path class="cls-5" d="M192.46,252.47l-11.12,15a2,2,0,0,1-2,.79l-48.08-9.09a2,2,0,0,1-1.55-2.62l5.19-16a2,2,0,0,1,2.3-1.36l54,10A2,2,0,0,1,192.46,252.47Z"/><path class="cls-5" d="M88.86,245.85a4.73,4.73,0,0,1,1.61-1.3,10,10,0,0,1,4.84-1.34,9.9,9.9,0,0,1,4.87,1.21,4.36,4.36,0,0,1,1.65,1.26c0,.07-.68-.41-1.81-.93a10.92,10.92,0,0,0-4.7-1,11.14,11.14,0,0,0-4.67,1.14C89.53,245.43,88.91,245.92,88.86,245.85Z"/><g class="cls-11"><polygon points="99.14 273.95 119.23 281.34 121.21 273.45 130.2 275.27 131.42 270.72 117.3 268.74 117.16 275.27 100.3 268.91 99.14 273.95"/></g><path class="cls-15" d="M118.45,256s3.8-3.21,5-3.94,5.16-3.34,7-3.07l1.8.27L130.58,254s14.56-2.17,16.55.19-2.17,2.8-4.34,3.07-9.15,1.45-9.15,1.45,18.2-2,19.47,0-1.77,2.44-1.77,2.44L139.29,266l-1.39.54-1.38,1.81s-5,3.44-6.49,3-12.73-2.58-12.73-2.58Z"/><path class="cls-16" d="M131.11,264.2a14.38,14.38,0,0,1,2.82-.86,70.66,70.66,0,0,1,14.08-2,15.17,15.17,0,0,1,3,.05,19.55,19.55,0,0,1-2.93.32c-1.81.15-4.3.4-7,.78s-5.2.83-7,1.18A18.27,18.27,0,0,1,131.11,264.2Z"/><path class="cls-16" d="M132.76,267.71a7.36,7.36,0,0,1,2.61-.95,7.57,7.57,0,0,1,2.74-.44,7.57,7.57,0,0,1-2.61.94A7.48,7.48,0,0,1,132.76,267.71Z"/><path class="cls-15" d="M177.53,246.73s2.19-2.5,3.85-2.5c1.5,0,2.66.87,2.66,2v1.69Z"/><path class="cls-5" d="M167.4,201.11a5.16,5.16,0,0,1,.08.67l.14,1.92c.13,1.66.22,4.08.28,7.08.11,6-.17,14.25-.77,23.35s-1.11,17.34-1.23,23.31c-.06,3-.08,5.41-.06,7.08v1.92a3.16,3.16,0,0,1,0,.67,3.23,3.23,0,0,1-.07-.67c0-.49-.06-1.13-.1-1.92-.08-1.67-.11-4.09-.09-7.08,0-6,.48-14.24,1.07-23.34s.94-17.35.92-23.32c0-3,0-5.41-.11-7.07,0-.8,0-1.44,0-1.93A2.65,2.65,0,0,1,167.4,201.11Z"/><path class="cls-5" d="M106.6,222.7a6,6,0,0,1-.09-1.34c0-.86-.06-2.11-.17-3.64a62.41,62.41,0,0,0-6.16-23c-.67-1.38-1.25-2.49-1.67-3.24a6.35,6.35,0,0,1-.59-1.2,6.63,6.63,0,0,1,.77,1.1c.47.72,1.1,1.81,1.82,3.18a55.91,55.91,0,0,1,4.37,11.25,56.51,56.51,0,0,1,1.83,11.93c.06,1.55.05,2.8,0,3.66A7.71,7.71,0,0,1,106.6,222.7Z"/><path class="cls-15" d="M190.59,255s1.62,2.17,1,3.89-4.66,4.88-4.66,4.88-1.58,1.86-2.3,1.86-4.14.62-3.9-1.41,3.26-2.39,3.26-2.39.07-.73,1.36-1.66,2.87-2,2.87-2Z"/><path class="cls-16" d="M187.67,263.19c0,.05-.15.31-.61.57a2.4,2.4,0,0,1-2.05.18,1.9,1.9,0,0,1-.94-.74,1.71,1.71,0,0,1-.28-.93c0-.58.31-.83.36-.79s-.07.32,0,.76a1.56,1.56,0,0,0,1,1.22,2.57,2.57,0,0,0,1.72,0C187.36,263.28,187.63,263.13,187.67,263.19Z"/><path class="cls-5" d="M166.69,243.41a14.9,14.9,0,0,1,4.52-8.35c.12.1-1.25,1.75-2.48,4.05S166.84,243.45,166.69,243.41Z"/><rect class="cls-8" x="111.9" y="215.88" width="13.63" height="9.14"/><path class="cls-5" d="M125.54,225a4.33,4.33,0,0,1-.05-.69c0-.5,0-1.11,0-1.86,0-1.66-.06-3.9-.11-6.6l.21.21-13.63,0c-.06.06.49-.49.26-.25h0v4.73c0,1.53,0,3,0,4.4l-.24-.24c4,0,7.35.07,9.76.11l2.83.07a8,8,0,0,1,1.05.06,8.92,8.92,0,0,1-1,.05l-2.78.07c-2.39,0-5.84.09-9.91.11h-.23V225c0-1.4,0-2.87,0-4.4v-2.34c0-.39,0-.79,0-1.19v-1.2h0l.27-.27,13.63.06h.21v.2c0,2.84-.07,5.15-.11,6.73,0,.73,0,1.33-.06,1.81A3.34,3.34,0,0,1,125.54,225Z"/><path class="cls-12" d="M121,220.79a2.31,2.31,0,1,1-2.31-2.31A2.3,2.3,0,0,1,121,220.79Z"/><g class="cls-11"><path d="M156,185.39c-7.52,3.06-15.17,6.16-23.25,6.92A29.38,29.38,0,0,1,110,184.16h-1.63c-.76,5.7,3.46,11.6,7.16,16,4,4.75,8.35,9.4,13.9,12.18s12.52,3.43,17.82.19c4.26-2.6,6.87-7.34,8-12.21S156.21,190.38,156,185.39Z"/></g><path class="cls-8" d="M165.63,169.09c-1.1-5.72-8-26.36-8-26.36-5.26-23.09-22.32-20.89-22.32-20.89-25.22-.15-25.07,40.55-25.07,40.55l-2.61,4.15c-3.65,6.08-10.09,11.28-6.46,20.06l6.68-2.14,49.31,2.2S166.73,174.82,165.63,169.09Z"/><path class="cls-15" d="M121.24,133.43l14.88-6,3.9.43c8.77,0,14.88,10.39,15,17.49.11,7.88-.11,16.76-1.33,22.58-2.47,11.7-11.58,12.75-11.58,12.75s.1,3.2.2,7.12a12.4,12.4,0,0,1-12.64,12.68h0a12.4,12.4,0,0,1-12.14-12.34l-.18-50.69A4.15,4.15,0,0,1,121.24,133.43Z"/><path class="cls-5" d="M150.08,154a1.51,1.51,0,0,1-1.54,1.45,1.45,1.45,0,0,1-1.49-1.44,1.51,1.51,0,0,1,1.53-1.45A1.45,1.45,0,0,1,150.08,154Z"/><path class="cls-5" d="M151.86,148.62c-.2.19-1.3-.72-2.93-.8s-2.86.68-3,.47.13-.44.67-.79a4.2,4.2,0,0,1,2.44-.62,4,4,0,0,1,2.31.88C151.81,148.17,152,148.53,151.86,148.62Z"/><path class="cls-5" d="M141.92,161.36a10.74,10.74,0,0,1,2.67-.34c.41,0,.81-.09.9-.37a2.14,2.14,0,0,0-.22-1.25l-1.07-3.22c-1.48-4.6-2.53-8.36-2.35-8.42s1.54,3.62,3,8.21q.54,1.69,1,3.24a2.39,2.39,0,0,1,.13,1.64,1,1,0,0,1-.71.58,2.62,2.62,0,0,1-.71.06A10.52,10.52,0,0,1,141.92,161.36Z"/><path class="cls-16" d="M142.08,180.68a30.09,30.09,0,0,1-15.59-5s3.8,8.39,15.66,7.88Z"/><path class="cls-16" d="M141,165.25a2.93,2.93,0,0,0-2.57-1.22,2.66,2.66,0,0,0-1.9.9,1.69,1.69,0,0,0-.23,1.93,2,2,0,0,0,2.11.65,6.07,6.07,0,0,0,2.14-1.14,1.66,1.66,0,0,0,.49-.46.53.53,0,0,0,0-.6"/><path class="cls-5" d="M151.07,143.72c-.3.35-1.4-.09-2.75-.17s-2.5.12-2.75-.28c-.1-.19.09-.55.61-.88a3.82,3.82,0,0,1,2.27-.49,3.77,3.77,0,0,1,2.16.85C151.07,143.16,151.21,143.54,151.07,143.72Z"/><path class="cls-5" d="M132.81,153.86a1.51,1.51,0,0,0,1.44,1.55,1.44,1.44,0,0,0,1.58-1.34,1.51,1.51,0,0,0-1.44-1.55A1.45,1.45,0,0,0,132.81,153.86Z"/><path class="cls-5" d="M130.14,149c.18.2,1.34-.64,3-.61s2.81.85,3,.66-.1-.45-.61-.84a4.21,4.21,0,0,0-2.39-.77,4,4,0,0,0-2.37.74C130.22,148.59,130,149,130.14,149Z"/><path class="cls-5" d="M130.61,143.05c.28.37,1.41,0,2.76,0s2.49.28,2.76-.1c.12-.19-.06-.56-.55-.92a3.85,3.85,0,0,0-2.24-.63,3.79,3.79,0,0,0-2.21.72C130.65,142.49,130.49,142.87,130.61,143.05Z"/><path class="cls-8" d="M155,160.66s-2.44,19.26-16.37,19-16.42-14.94-16.42-14.94l-9.87-3.83-2.68,21a14.34,14.34,0,0,0,3.71,11.57c3.8,4.1,9.16,9.51,12.73,11.52,8.5,4.79,20.44,3.34,25.94-4.73a34.45,34.45,0,0,0,4.39-9.56c.17-.78,3.88-15.42,3.88-15.42Z"/><path class="cls-8" d="M114.27,140c-1.64,8.85,0,26.73,9.94,33.49-1.62-3.55-2.46-11.93-2.56-15.76s.52-7.26,2-12.3c.6-2,2.6-7,4.48-8.17a22.8,22.8,0,0,1,9.2-2.58c3.79-.2,9.09.56,12.35,2.31,3.71,2,4.33,7.62,5.24,11.4s.65,7.7.39,11.56l2-13s-1.59-22.81-20.8-23.69c-15.46-.7-21.77,16.73-21.77,16.73Z"/><path class="cls-5" d="M155,193.9a2.08,2.08,0,0,0,.16-.35l.4-1c.35-.91.8-2.23,1.32-3.89a69,69,0,0,0,2.67-13.26,99,99,0,0,0,.29-13.53c-.08-1.73-.16-3.13-.24-4.09q0-.63-.09-1.11a2,2,0,0,0-.06-.39,1.65,1.65,0,0,0,0,.39c0,.33,0,.69,0,1.11,0,1.1.07,2.47.11,4.1a113.76,113.76,0,0,1-.39,13.48,76.21,76.21,0,0,1-2.55,13.23c-.49,1.65-.9,3-1.21,3.91-.12.4-.23.75-.33,1.06S155,193.9,155,193.9Z"/><path class="cls-5" d="M121.65,195.38a1.57,1.57,0,0,0,.36.21,11.48,11.48,0,0,0,1.1.51,13.87,13.87,0,0,0,4.35.88,16.8,16.8,0,0,0,6.5-1,21.62,21.62,0,0,0,6.85-4.26,35,35,0,0,0,5.23-6.14c1.43-2,2.63-3.9,3.56-5.53a30.92,30.92,0,0,0,2-4,11.77,11.77,0,0,0,.4-1.14,2.43,2.43,0,0,0,.11-.4s-.22.53-.64,1.49a39.11,39.11,0,0,1-2,3.91c-1,1.6-2.17,3.46-3.61,5.46a35.47,35.47,0,0,1-5.21,6.06,21.38,21.38,0,0,1-6.71,4.22,16.83,16.83,0,0,1-6.37,1.1,14.41,14.41,0,0,1-4.31-.75C122.17,195.61,121.66,195.34,121.65,195.38Z"/><path class="cls-5" d="M118.3,176.89a4.59,4.59,0,0,0,.52.79,16.4,16.4,0,0,0,1.69,1.95,21.26,21.26,0,0,0,2.95,2.45,21.49,21.49,0,0,0,8.67,3.47,20.65,20.65,0,0,0,3.82.27,17.18,17.18,0,0,0,2.57-.25,4.14,4.14,0,0,0,.92-.21c0-.08-1.34.2-3.49.19a22.42,22.42,0,0,1-15.25-6.11C119.13,178,118.36,176.84,118.3,176.89Z"/><path class="cls-5" d="M117.52,171.52a4.71,4.71,0,0,0,.51.66c.34.4.86,1,1.52,1.66a52.69,52.69,0,0,0,5.55,5,51.75,51.75,0,0,0,6.2,4.12c.83.46,1.51.82,2,1.05a3.56,3.56,0,0,0,.77.32,4.07,4.07,0,0,0-.7-.45l-1.93-1.15a68.6,68.6,0,0,1-6.1-4.19,67.09,67.09,0,0,1-5.59-4.85l-1.6-1.57A3.24,3.24,0,0,0,117.52,171.52Z"/><path class="cls-5" d="M110.53,163.23s0,.11,0,.32,0,.51,0,.91c0,.79.16,1.93.35,3.34.4,2.8,1.12,6.65,2.13,10.85a76.42,76.42,0,0,0,3.25,10.59,14.24,14.24,0,0,0,1.57,3,3,3,0,0,0,.63.67c.18.12.27.17.28.16a4.66,4.66,0,0,1-.79-.91,16.08,16.08,0,0,1-1.45-3,90.81,90.81,0,0,1-3.12-10.57c-1-4.19-1.77-8-2.23-10.81-.23-1.4-.39-2.53-.47-3.31S110.56,163.23,110.53,163.23Z"/><path class="cls-5" d="M155.39,136.24a3.15,3.15,0,0,0,0,.81c0,.68.08,1.41.12,2.22.09,1.86.18,4.45.13,7.3s-.18,5.43-.35,7.29c-.08.81-.15,1.53-.22,2.21a2.76,2.76,0,0,0-.06.81,4.53,4.53,0,0,0,.2-.79c.1-.52.23-1.27.35-2.2a70.2,70.2,0,0,0,.46-7.32c0-2.86-.09-5.45-.25-7.32-.08-.94-.16-1.69-.24-2.21A3.48,3.48,0,0,0,155.39,136.24Z"/><path class="cls-5" d="M118.9,159.23a1.33,1.33,0,0,0,0-.35c0-.3,0-.63-.09-1-.08-1-.19-2.24-.32-3.7a72.09,72.09,0,0,1,0-12.19,42.71,42.71,0,0,1,1.13-6.6,15.19,15.19,0,0,1,2.29-4.92c.89-1.27,1.72-2.23,2.28-2.9l.64-.78c.15-.18.22-.28.21-.29a2.07,2.07,0,0,0-.26.24l-.7.73a29.78,29.78,0,0,0-2.39,2.85,15.25,15.25,0,0,0-2.41,5A41.45,41.45,0,0,0,118.1,142a63.94,63.94,0,0,0,.12,12.25c.15,1.56.32,2.81.44,3.68.06.37.11.7.16,1S118.88,159.24,118.9,159.23Z"/><path class="cls-5" d="M114.5,152.42a7.08,7.08,0,0,0,.38,1.68,40.4,40.4,0,0,0,1.39,3.91,39.47,39.47,0,0,0,1.77,3.75,7.19,7.19,0,0,0,.9,1.47,8,8,0,0,0-.67-1.58c-.44-1-1-2.29-1.66-3.78S115.5,155,115.14,154A9,9,0,0,0,114.5,152.42Z"/><g class="cls-11"><path d="M132.9,183.71l-.31,0,5.82,1.92a22.72,22.72,0,0,1-24.78-19.78A46,46,0,0,0,132.9,183.71Z"/></g><g class="cls-11"><path d="M137.51,194c3.6-2.46,6.33-6,8.93-9.45,5.09-6.85,8.76-17.32,10.4-25.69.43,3.45,2,6.34-.22,13.2-1.66,4.86-3.32,9.75-5.91,14.18s-6.19,8.41-10.83,10.6-10.41,2.32-14.75-.42C129.28,197.79,133.92,196.5,137.51,194Z"/></g><path class="cls-5" d="M142,167.17c0,.06-.43.25-1.2.24a4.71,4.71,0,0,1-2.79-1,4.61,4.61,0,0,1-1.58-2.51c-.17-.75-.08-1.22,0-1.22s.12.45.37,1.12a5.14,5.14,0,0,0,1.56,2.2,5.2,5.2,0,0,0,2.49,1.06C141.54,167.14,142,167.09,142,167.17Z"/><path class="cls-12" d="M412.4,129.74c0,5.5,1.22,9.14,4.13,14.07.48.82-2.41,8.75-2.41,8.75l8.53-3c3.88,2.89,7.85,3.47,13.06,3.47a23.31,23.31,0,1,0-23.31-23.31Z"/><path class="cls-5" d="M435.71,106.43a1.61,1.61,0,0,1,.41,0l1.19,0,.88,0,1.05.15,1.23.18,1.38.34a22.1,22.1,0,0,1,6.65,2.9,23.74,23.74,0,0,1,6.88,6.7,24.09,24.09,0,0,1,3.91,10.95,24.59,24.59,0,0,1,.06,3.22c0,.54,0,1.09-.11,1.64l-.24,1.66a23.76,23.76,0,0,1-2.24,6.55,25.11,25.11,0,0,1-4.28,5.88,24.56,24.56,0,0,1-6.16,4.43,22.11,22.11,0,0,1-7.51,2.3,16.7,16.7,0,0,1-2,.18,19.64,19.64,0,0,1-2,0,23.57,23.57,0,0,1-12.13-3.91l.24,0-8.22,3.3-.49.19.14-.5,2.42-8.8,0,.22a23.6,23.6,0,0,1-4.39-10,22,22,0,0,1-.32-5.15,16.8,16.8,0,0,1,.24-2.47l.18-1.2c.08-.4.2-.78.29-1.17A23.47,23.47,0,0,1,422,110.72a22.35,22.35,0,0,1,5.46-2.89l1.23-.44,1.17-.29,1.06-.27,1-.15c.62-.07,1.17-.18,1.64-.21l1.21,0h.74a.93.93,0,0,1,.25,0l-.25,0-.73.06-1.2.08c-.48,0-1,.16-1.64.25a23.41,23.41,0,0,0-18.7,17.35c-.09.38-.21.75-.28,1.14s-.11.79-.17,1.18a16.26,16.26,0,0,0-.22,2.43,21.11,21.11,0,0,0,.33,5.05,23.14,23.14,0,0,0,4.33,9.83l.08.1,0,.12q-1.16,4.26-2.4,8.79l-.34-.31,8.22-3.31.13-.05.11.08a23.17,23.17,0,0,0,11.86,3.82,16.36,16.36,0,0,0,2,0,14.13,14.13,0,0,0,2-.16,22,22,0,0,0,7.35-2.25,24.08,24.08,0,0,0,6-4.32,24.64,24.64,0,0,0,4.2-5.75,23,23,0,0,0,2.21-6.41c.09-.54.17-1.08.25-1.62s.08-1.08.12-1.61a25.51,25.51,0,0,0,0-3.16,23.24,23.24,0,0,0-10.51-17.44,22.27,22.27,0,0,0-6.55-3l-1.35-.36-1.22-.2-1-.18-.88-.06-1.18-.09Z"/><polygon class="cls-7" points="423.45 131.04 426.66 127.83 432.85 133.33 444.99 121.64 447.97 124.85 432.39 139.52 423.45 131.04"/><path class="cls-5" d="M432.39,139.55h0l-9-8.5,0,0,3.23-3.22,6.18,5.5L445,121.61h0l3,3.23,0,0ZM423.48,131l8.91,8.44,15.55-14.63L445,121.68l-12.14,11.68-6.19-5.5Z"/><path class="cls-12" d="M79.47,148.44c0,5.46-1.21,9.08-4.1,14-.48.82,2.39,8.7,2.39,8.7l-8.48-3c-3.86,2.87-7.8,3.45-13,3.45a23.18,23.18,0,1,1,23.17-23.17Z"/><path class="cls-5" d="M62.69,148.54a2,2,0,1,0,2-2A2,2,0,0,0,62.69,148.54Z"/><path class="cls-5" d="M54.73,148.54a2,2,0,1,0,2-2A2,2,0,0,0,54.73,148.54Z"/><path class="cls-5" d="M46.8,147.55a2,2,0,1,0,2.71-.73A2,2,0,0,0,46.8,147.55Z"/><path class="cls-5" d="M56.6,125.32h-.41l-1.18,0c-.26,0-.55,0-.87,0l-1,.14-1.22.18-1.36.33a22,22,0,0,0-6.58,2.87,23.26,23.26,0,0,0-10.67,17.47,24.16,24.16,0,0,0-.07,3.19c0,.53,0,1.08.11,1.63s.16,1.08.24,1.64a23.71,23.71,0,0,0,2.22,6.48A24.57,24.57,0,0,0,40,165.14a24.24,24.24,0,0,0,6.1,4.38,22.17,22.17,0,0,0,7.43,2.28,14.56,14.56,0,0,0,2,.17,19.26,19.26,0,0,0,2,0,24.85,24.85,0,0,0,4-.51,23.33,23.33,0,0,0,8-3.36l-.24,0,8.14,3.27.48.19-.14-.5-2.39-8.7,0,.21a23.33,23.33,0,0,0,4.34-9.94A21,21,0,0,0,80,147.6a16.28,16.28,0,0,0-.23-2.45c-.06-.4-.12-.8-.19-1.19s-.19-.77-.28-1.15a23.25,23.25,0,0,0-9.08-13.24,22.26,22.26,0,0,0-5.41-2.86l-1.21-.43-1.16-.3-1.06-.26c-.34-.06-.66-.1-1-.14-.62-.08-1.16-.19-1.63-.21l-1.2,0-.73,0H56.6a.75.75,0,0,0,.24,0l.73.06,1.19.08c.47,0,1,.16,1.61.25a23.11,23.11,0,0,1,18.51,17.17c.09.37.21.75.28,1.13s.11.78.17,1.17a15.86,15.86,0,0,1,.22,2.4,21.25,21.25,0,0,1-.33,5,22.89,22.89,0,0,1-4.29,9.72l-.07.1,0,.12c.77,2.81,1.56,5.72,2.38,8.71l.34-.31-8.13-3.28-.13,0-.12.08A23,23,0,0,1,61.42,171a22.73,22.73,0,0,1-3.92.5,16,16,0,0,1-2,0,13.85,13.85,0,0,1-1.94-.16,21.73,21.73,0,0,1-7.27-2.22,23.87,23.87,0,0,1-6-4.28,24.15,24.15,0,0,1-4.16-5.69A22.64,22.64,0,0,1,34,152.75c-.08-.54-.17-1.07-.25-1.61s-.07-1.07-.11-1.59a25.06,25.06,0,0,1,.05-3.13,23,23,0,0,1,10.4-17.26,22.33,22.33,0,0,1,6.48-2.92l1.34-.36,1.2-.19,1-.17c.31,0,.6,0,.86-.07l1.17-.08A1.91,1.91,0,0,0,56.6,125.32Z"/></g></svg>