<svg xmlns="http://www.w3.org/2000/svg" viewBox="0 0 476.29 451.79"><defs><style>.cls-1{fill:#ebebeb;}.cls-2{fill:#f5f5f5;}.cls-3{fill:#e0e0e0;}.cls-4{fill:#263238;}.cls-5{fill:#8ea382;}.cls-6{opacity:0.3;}.cls-7{fill:#455a64;}.cls-8{fill:#ffbf9d;}.cls-9{fill:#ff9a6c;}</style></defs><title>penerimaan</title><g id="Desk"><polygon class="cls-1" points="27.79 188.63 60.12 200.08 51.96 204.81 29.37 217.72 22.1 221.89 27.79 188.63"/><polygon class="cls-1" points="168.57 366.11 188.7 356.98 144.87 282.28 125.11 299.85 90.36 238.91 71.24 251.87 40.13 195.78 28.7 200.6 66.69 276.23 88.26 257.55 121 325.56 140.57 304.34 168.57 366.11"/><path class="cls-2" d="M458.86,280.58a28,28,0,1,1-23.52-31.76A27.94,27.94,0,0,1,458.86,280.58Z"/><path class="cls-1" d="M452.28,279.59a21.32,21.32,0,1,1-17.92-24.2A21.3,21.3,0,0,1,452.28,279.59Z"/><path class="cls-3" d="M452.37,278.93a13,13,0,0,1-.17-2.62,23,23,0,0,0-1.46-6.83,22.28,22.28,0,0,0-2.22-4.25,21.21,21.21,0,0,0-3.63-4.1,19.49,19.49,0,0,0-2.36-1.79,20.06,20.06,0,0,0-2.7-1.49,22.78,22.78,0,0,0-3-1.1,21.11,21.11,0,0,0-6.52-.77,22,22,0,0,0-3.17.37,19.54,19.54,0,0,0-3,.82,20,20,0,0,0-2.71,1.19A20.88,20.88,0,0,0,417,261.5a21.92,21.92,0,0,0-3.15,3.62,22.55,22.55,0,0,0-3,6.3,12.29,12.29,0,0,1-.78,2.5,6.19,6.19,0,0,1,.16-2.66,19.66,19.66,0,0,1,2.66-6.77,21.3,21.3,0,0,1,7.89-7.46,20,20,0,0,1,2.89-1.32,20.6,20.6,0,0,1,3.19-.92,22.65,22.65,0,0,1,3.43-.43,21.94,21.94,0,0,1,7,.83,21.51,21.51,0,0,1,3.23,1.22,21.44,21.44,0,0,1,5.4,3.6,21.88,21.88,0,0,1,3.76,4.49,21.54,21.54,0,0,1,2.16,4.6,19.46,19.46,0,0,1,1,7.21A6.15,6.15,0,0,1,452.37,278.93Z"/><path class="cls-3" d="M431.69,289.36l-.5,3.68-3.28-.45.48-3.58a15.7,15.7,0,0,1-7.82-3.74l2.35-3.76a13.38,13.38,0,0,0,6.06,3.2l.74-5.49c-3.53-1.38-7.44-3.15-6.8-7.85.47-3.48,3.41-6.13,8.68-6l.49-3.64,3.29.44-.49,3.58a15,15,0,0,1,6.4,2.91l-2.19,3.82a13.58,13.58,0,0,0-4.8-2.39l-.75,5.59c3.53,1.34,7.37,3.1,6.75,7.74C439.83,286.81,436.93,289.43,431.69,289.36Zm-1.32-15,.64-4.67c-1.8.16-2.62,1-2.77,2.11S429,273.73,430.37,274.39Zm4.58,8.68c.16-1.15-.71-1.9-2.06-2.58l-.61,4.53C434,284.88,434.81,284.13,435,283.07Z"/><path class="cls-2" d="M438.57,60.82a24.37,24.37,0,1,1-20.49-27.66A24.36,24.36,0,0,1,438.57,60.82Z"/><path class="cls-1" d="M432.83,60a18.57,18.57,0,1,1-15.61-21.08A18.54,18.54,0,0,1,432.83,60Z"/><path class="cls-3" d="M432.91,59.38a11.86,11.86,0,0,1-.15-2.28,19.5,19.5,0,0,0-1.27-5.94,19.7,19.7,0,0,0-1.93-3.71,18.67,18.67,0,0,0-3.16-3.57,16.13,16.13,0,0,0-2.06-1.56A17.17,17.17,0,0,0,422,41a17.79,17.79,0,0,0-2.62-1,19.68,19.68,0,0,0-2.81-.56,18.34,18.34,0,0,0-2.86-.11,18.07,18.07,0,0,0-2.77.32,17,17,0,0,0-2.59.71,17.34,17.34,0,0,0-2.36,1,18.87,18.87,0,0,0-3.91,2.74,19.47,19.47,0,0,0-2.74,3.15,19.93,19.93,0,0,0-2.62,5.49A11.24,11.24,0,0,1,396,55a5.55,5.55,0,0,1,.14-2.31,17.18,17.18,0,0,1,2.32-5.91,18.46,18.46,0,0,1,2.77-3.45,19.16,19.16,0,0,1,4.1-3,18.54,18.54,0,0,1,2.51-1.16A19,19,0,0,1,413.64,38a19.36,19.36,0,0,1,6.12.73,18.47,18.47,0,0,1,2.81,1,18.09,18.09,0,0,1,2.52,1.43,17.89,17.89,0,0,1,2.18,1.71,19,19,0,0,1,3.28,3.91,19.24,19.24,0,0,1,1.89,4,17.43,17.43,0,0,1,.88,6.28A5.22,5.22,0,0,1,432.91,59.38Z"/><path class="cls-3" d="M414.9,68.47l-.44,3.2-2.86-.39.43-3.11a13.79,13.79,0,0,1-6.82-3.26l2.05-3.28a11.67,11.67,0,0,0,5.27,2.79l.65-4.78c-3.07-1.21-6.48-2.75-5.92-6.84.41-3,3-5.34,7.56-5.24l.43-3.18,2.86.39-.42,3.12a13.1,13.1,0,0,1,5.57,2.53l-1.91,3.33a11.66,11.66,0,0,0-4.17-2.08l-.66,4.86c3.07,1.18,6.42,2.71,5.87,6.74C422,66.25,419.47,68.53,414.9,68.47Zm-1.15-13,.55-4.07c-1.56.14-2.28.89-2.4,1.84S412.55,54.86,413.75,55.43Zm4,7.56c.14-1-.62-1.65-1.79-2.25l-.54,3.95C416.89,64.57,417.62,63.91,417.74,63Z"/><path class="cls-2" d="M152.56,29.93A40.68,40.68,0,1,1,102.65,1.44,40.64,40.64,0,0,1,152.56,29.93Z"/><path class="cls-1" d="M143.22,32.47a31,31,0,1,1-38-21.71A31,31,0,0,1,143.22,32.47Z"/><path class="cls-3" d="M143,31.54c-.18.05-.67-1.23-1.77-3.39a31.81,31.81,0,0,0-11.38-12.59,31.4,31.4,0,0,0-7.23-3.34,29.43,29.43,0,0,0-4.19-1,29.83,29.83,0,0,0-4.47-.4,30.38,30.38,0,0,0-4.64.3,32.27,32.27,0,0,0-4.67,1,31,31,0,0,0-4.45,1.76,30.53,30.53,0,0,0-4,2.35,28.43,28.43,0,0,0-3.48,2.83,27.82,27.82,0,0,0-2.92,3.16,30.67,30.67,0,0,0-6.19,13.47,32.88,32.88,0,0,0-.32,10.15c.29,2.41.6,3.74.42,3.79s-.75-1.2-1.33-3.63a28.56,28.56,0,0,1-.43-10.58A31.17,31.17,0,0,1,88,20.92a30.92,30.92,0,0,1,3.08-3.46,30.39,30.39,0,0,1,3.71-3.09,31.85,31.85,0,0,1,4.31-2.57,33.44,33.44,0,0,1,4.79-1.91,34.81,34.81,0,0,1,5-1.1,31.32,31.32,0,0,1,5-.28,30.15,30.15,0,0,1,4.81.49,29.23,29.23,0,0,1,4.49,1.15,31.08,31.08,0,0,1,13.21,8.62,28.47,28.47,0,0,1,5.56,9C142.91,30.12,143.09,31.5,143,31.54Z"/><path class="cls-3" d="M121.54,57.53,123,62.72l-4.63,1.33L117,59c-4.67,1-9.49.87-12.61-.39l.92-6.39a19.43,19.43,0,0,0,9.94.71L113,45.19c-5.51.23-11.75.17-13.65-6.46-1.41-4.91.94-10.16,8-13.09l-1.47-5.15,4.63-1.33L112,24.21a21.81,21.81,0,0,1,10.22.12l-.68,6.37a19.76,19.76,0,0,0-7.78-.37L116,38.21c5.49-.28,11.64-.19,13.52,6.35C130.88,49.38,128.56,54.56,121.54,57.53ZM111,38.38l-1.89-6.58c-2.3,1.26-2.89,2.88-2.45,4.41S108.79,38.32,111,38.38Zm11.18,8.88c-.47-1.63-2.06-2.12-4.26-2.24l1.84,6.39C122,50.24,122.63,48.74,122.2,47.26Z"/><path class="cls-2" d="M62.05,98.52A25.44,25.44,0,1,1,41.78,68.84,25.41,25.41,0,0,1,62.05,98.52Z"/><path class="cls-1" d="M56.1,97.39A19.39,19.39,0,1,1,40.66,74.78,19.37,19.37,0,0,1,56.1,97.39Z"/><path class="cls-3" d="M56.21,96.79a11.81,11.81,0,0,1-.07-2.38,20.73,20.73,0,0,0-1.09-6.26,19.89,19.89,0,0,0-1.86-3.94A19.67,19.67,0,0,0,48,78.65a18.49,18.49,0,0,0-2.41-1.44,18.18,18.18,0,0,0-2.68-1.11A21.63,21.63,0,0,0,40,75.41a20.28,20.28,0,0,0-3-.23,18.5,18.5,0,0,0-5.63.86,19.82,19.82,0,0,0-2.51,1,19.29,19.29,0,0,0-4.18,2.71,19.89,19.89,0,0,0-3,3.18,20.51,20.51,0,0,0-3,5.61,10.57,10.57,0,0,1-.8,2.25,5.84,5.84,0,0,1,.25-2.41A17.81,17.81,0,0,1,20.8,82.3a19.53,19.53,0,0,1,3-3.5,19.84,19.84,0,0,1,4.39-3,18.36,18.36,0,0,1,2.68-1.11A19.3,19.3,0,0,1,33.83,74,20.13,20.13,0,0,1,37,73.7a22,22,0,0,1,3.22.24,21.65,21.65,0,0,1,3.13.76,20.18,20.18,0,0,1,2.89,1.21,19.58,19.58,0,0,1,2.58,1.59,19.6,19.6,0,0,1,7.27,10.34,17.92,17.92,0,0,1,.67,6.59A5.49,5.49,0,0,1,56.21,96.79Z"/><path class="cls-3" d="M37.06,105.55l-.59,3.33-3-.52.57-3.24a14.28,14.28,0,0,1-7-3.66l2.26-3.34a12.23,12.23,0,0,0,5.4,3.11l.86-5c-3.15-1.38-6.64-3.12-5.9-7.37.55-3.14,3.31-5.45,8.09-5.16l.58-3.3,3,.52-.57,3.24a13.6,13.6,0,0,1,5.72,2.86l-2.12,3.4a12.26,12.26,0,0,0-4.28-2.34l-.88,5c3.16,1.34,6.59,3.08,5.86,7.26C44.54,103.52,41.82,105.8,37.06,105.55Zm-.68-13.64.73-4.22c-1.63.08-2.41.83-2.58,1.81S35.14,91.26,36.38,91.91Zm3.86,8c.18-1-.58-1.76-1.78-2.43l-.72,4.1C39.28,101.57,40.07,100.91,40.24,100Z"/><polygon class="cls-2" points="459.39 322.73 435.1 321.85 439.24 327.09 450.77 341.49 454.47 346.13 459.39 322.73"/><polygon class="cls-2" points="320.36 403 309.46 391.73 357.82 353.93 366.26 370.66 405.05 339.56 414.27 353.08 449.4 324.22 455.67 330.38 410.92 370.32 401.58 352.39 362.27 388.67 354.91 369.59 320.36 403"/><polygon class="cls-3" points="413.21 106.48 380.77 123.76 390.17 127.48 416.16 137.56 424.53 140.82 413.21 106.48"/><polygon class="cls-3" points="292.24 316.99 269.45 310.52 304.02 224.37 327.76 239.85 354.89 169.73 377.22 180.41 401.27 116.02 414.14 119.31 385.92 205.51 360.09 189.15 336.21 266.44 312.09 247.07 292.24 316.99"/><path class="cls-4" d="M460.6,439.45c0,.14-102.8.26-229.58.26s-229.6-.12-229.6-.26,102.78-.26,229.6-.26S460.6,439.3,460.6,439.45Z"/><rect class="cls-5" x="268.58" y="398.83" width="24.67" height="40.37" transform="translate(561.83 838.04) rotate(180)"/><rect class="cls-5" x="368.05" y="370.72" width="24.67" height="68.49" transform="translate(760.77 809.92) rotate(180)"/><rect class="cls-5" x="417.79" y="414.32" width="24.67" height="24.88" transform="translate(860.24 853.53) rotate(180)"/><rect class="cls-5" x="318.32" y="379.65" width="24.67" height="59.55" transform="translate(661.3 818.86) rotate(180)"/><rect class="cls-5" x="218.84" y="365.01" width="24.67" height="74.2" transform="translate(462.35 804.21) rotate(180)"/><rect class="cls-5" x="169.11" y="343.76" width="24.67" height="95.45" transform="translate(362.88 782.96) rotate(180)"/><rect class="cls-5" x="119.37" y="320.1" width="24.67" height="119.11" transform="translate(263.41 759.3) rotate(180)"/><rect class="cls-5" x="69.64" y="288" width="24.67" height="151.2" transform="translate(163.94 727.21) rotate(180)"/><rect class="cls-5" x="19.9" y="240.45" width="24.67" height="198.76" transform="translate(64.46 679.66) rotate(180)"/><path class="cls-1" d="M399.33,412.45a49.18,49.18,0,0,0-41.72-26.2c10.46-11.57,12.52-29.47,6.49-43.85s-19.31-25.1-34.2-29.73-31.2-3.54-46,1.25c1.72-11.25-9.52-22.47-20.77-20.73a10.82,10.82,0,0,0-10.62-18.76l.65-82.43h-49l.66,82.43a10.82,10.82,0,0,0-10.62,18.76c-11.25-1.74-22.49,9.48-20.77,20.73-14.84-4.79-31.15-5.88-46-1.25S99.18,328,93.15,342.4s-4,32.28,6.49,43.85a49.18,49.18,0,0,0-41.72,26.2c-4.56,8.92-5,22.09,3.88,26.76H395.45C404.31,434.54,403.89,421.37,399.33,412.45Z"/><path class="cls-4" d="M61.8,439.21l-1.19-.72a12.57,12.57,0,0,1-3-2.81,15.31,15.31,0,0,1-2.59-6.16,24.57,24.57,0,0,1,.1-9.19,31.32,31.32,0,0,1,4.26-10.78,47.65,47.65,0,0,1,8.91-10.7,49.84,49.84,0,0,1,13.55-8.73l2-.85,2.09-.72a21.26,21.26,0,0,1,2.14-.66c.73-.19,1.45-.42,2.2-.59a51.07,51.07,0,0,1,9.32-1.21l-.11.26a38.62,38.62,0,0,1-7.28-12.15,43.77,43.77,0,0,1-2.62-15,44.38,44.38,0,0,1,6.82-23.54,47.89,47.89,0,0,1,5.26-7,58.21,58.21,0,0,1,31.91-17.84,73.07,73.07,0,0,1,19.72-1.16,88.86,88.86,0,0,1,20.13,4l-.3.26a16.58,16.58,0,0,1,.85-8.05,20.14,20.14,0,0,1,4.45-7.08,20.38,20.38,0,0,1,7.09-4.8,16.62,16.62,0,0,1,8.64-1.07l-.17.44a11.07,11.07,0,0,1,10.87-19.19l-.36.23c-.21-26.25-.43-53.92-.67-82.42v-.27h49.53V192c-.23,28.43-.45,56-.66,82.42l-.36-.23a11.07,11.07,0,0,1,10.87,19.19l-.17-.44a16.54,16.54,0,0,1,8.54,1,20.37,20.37,0,0,1,7.07,4.72,20.13,20.13,0,0,1,4.52,7.05,16.56,16.56,0,0,1,.9,8.21l-.3-.26a88.88,88.88,0,0,1,20.12-4,72.93,72.93,0,0,1,19.7,1.15,58.2,58.2,0,0,1,31.89,17.8,47.35,47.35,0,0,1,5.27,7,45,45,0,0,1,3.84,7.58,43.18,43.18,0,0,1,2.27,7.95,47.32,47.32,0,0,1,.74,8,44,44,0,0,1-2.59,15,38.79,38.79,0,0,1-7.3,12.19l-.11-.26a50.54,50.54,0,0,1,9.34,1.22c.74.16,1.47.39,2.19.58a22.28,22.28,0,0,1,2.15.66l2.09.73,2,.85a49.5,49.5,0,0,1,13.55,8.75,47.17,47.17,0,0,1,8.91,10.7,31.25,31.25,0,0,1,4.24,10.78,24.51,24.51,0,0,1,.1,9.18,15.34,15.34,0,0,1-2.59,6.15,12.46,12.46,0,0,1-3,2.8l-1.19.72,1.16-.76a12.65,12.65,0,0,0,2.92-2.82,15.21,15.21,0,0,0,2.53-6.11,24.52,24.52,0,0,0-.13-9.13,31.16,31.16,0,0,0-4.26-10.7,47.3,47.3,0,0,0-8.89-10.63,49.56,49.56,0,0,0-13.5-8.67l-2-.84-2.07-.72a19.57,19.57,0,0,0-2.14-.65c-.72-.19-1.44-.42-2.18-.58a49.89,49.89,0,0,0-9.28-1.19l-.34,0,.23-.25a38.14,38.14,0,0,0,7.21-12.1,43.32,43.32,0,0,0,2.55-14.91,45.54,45.54,0,0,0-.75-7.92,42.46,42.46,0,0,0-2.26-7.88,43.88,43.88,0,0,0-3.82-7.51,46.57,46.57,0,0,0-5.23-6.9,57.75,57.75,0,0,0-31.68-17.64,72.42,72.42,0,0,0-19.58-1.12,88,88,0,0,0-20,4l-.36.11.06-.37a16,16,0,0,0-.89-8,19.56,19.56,0,0,0-4.42-6.89,19.81,19.81,0,0,0-6.89-4.6,16.08,16.08,0,0,0-8.3-1l-1.05.17L263,293a10.58,10.58,0,0,0-10.39-18.33l-.36.16v-.39c.2-26.4.42-54,.64-82.43l.26.26h-49l.26-.26c.23,28.5.45,56.18.65,82.43v.39l-.36-.16A10.58,10.58,0,0,0,194.29,293l.88.61-1-.17a16.22,16.22,0,0,0-8.39,1,19.88,19.88,0,0,0-6.92,4.69c-3.87,4-6,9.55-5.19,14.73l.06.37-.36-.11a88.59,88.59,0,0,0-20-4,72.59,72.59,0,0,0-19.6,1.14A57.82,57.82,0,0,0,102,329a46.42,46.42,0,0,0-5.22,6.91,43.69,43.69,0,0,0-4.22,38.2,38.27,38.27,0,0,0,7.19,12.06l.23.25-.34,0a50.75,50.75,0,0,0-9.27,1.18c-.74.17-1.46.39-2.18.58a21.85,21.85,0,0,0-2.13.65l-2.07.72-2,.84A49.63,49.63,0,0,0,68.5,399a46.84,46.84,0,0,0-8.9,10.62,31.19,31.19,0,0,0-4.27,10.7,24.4,24.4,0,0,0-.15,9.14,15.32,15.32,0,0,0,2.54,6.12,12.52,12.52,0,0,0,2.91,2.83C61.41,438.94,61.8,439.21,61.8,439.21Z"/><polygon class="cls-5" points="165.06 79.01 226.77 7.17 286.07 79.01 262.93 79.01 262.93 196.16 191.09 196.16 191.09 79.13 165.06 79.01"/><polygon class="cls-5" points="458.15 195.74 414.47 209.16 425.07 215.86 454.46 234.14 463.92 240.05 458.15 195.74"/><polygon class="cls-5" points="260.99 423.1 234.67 409.95 297.12 313.42 322.47 337.73 372.08 258.94 396.84 277.1 441.33 204.53 456.28 211.52 401.57 309.59 373.86 283.71 326.55 371.98 301.64 342.85 260.99 423.1"/><g class="cls-6"><path d="M286.77,398.22c-6-4-13.75-4.4-20.79-3-2.33.46-4.92,1.07-7-.15s-2.72-3.74-3.52-6c-4.13-11.32-15.43-19.08-27.31-21.05s-21.43-1-32.2,4.37a46.33,46.33,0,0,0-18.72,16.12c-1.62,2.41-4.54,7.32-4.54,7.32-2.16,1.59-5,1.69-7.65,2.12a28.61,28.61,0,0,0-22.72,21.4l151.06-2.45C296.27,410.32,292.75,402.19,286.77,398.22Z"/></g><path class="cls-1" d="M134.09,429.24c4.72-16.72,23.34-28.2,40.4-24.91,3.6-18.2,21-32.65,39.6-32.79s36.22,14,40.1,32.17c10.26-2.36,21.28-4.12,31.07-.26s17.28,15.32,13.23,25"/><path class="cls-4" d="M298.49,428.48a1.2,1.2,0,0,1,.08-.28c.06-.21.15-.48.26-.84a7.42,7.42,0,0,0,.36-1.37,11.2,11.2,0,0,0,.27-1.94,18.51,18.51,0,0,0-3.64-12,24.46,24.46,0,0,0-6.48-6.27,26.2,26.2,0,0,0-9.86-3.79,44.45,44.45,0,0,0-12.05-.37,101.33,101.33,0,0,0-13.18,2.29L254,404l-.05-.23a40.58,40.58,0,0,0-11.55-20.2,42.07,42.07,0,0,0-22.86-11.35,36.5,36.5,0,0,0-16.24,1.3,43.06,43.06,0,0,0-13.78,7.31,42.5,42.5,0,0,0-9.8,10.94,38.57,38.57,0,0,0-5,12.61l0,.22-.22,0a32.9,32.9,0,0,0-11-.15,39.27,39.27,0,0,0-5,1.13l-2.33.81c-.77.25-1.48.64-2.2.94a45,45,0,0,0-4,2.11L148,410.6l-.87.58c-.28.21-.54.43-.8.64l-1.56,1.25c-.5.42-.94.88-1.4,1.31s-.9.83-1.3,1.27L140.92,417a34.94,34.94,0,0,0-5.53,8.81c-.49,1.11-.73,2-1,2.58s-.34.89-.34.89.33-1.25,1.18-3.52a33.78,33.78,0,0,1,5.46-8.93l1.14-1.32c.4-.45.86-.85,1.31-1.3s.89-.9,1.4-1.32l1.56-1.27c.26-.21.53-.44.81-.65l.87-.6,1.81-1.22a41.91,41.91,0,0,1,4.06-2.15c.73-.31,1.44-.71,2.22-1l2.35-.83a36.55,36.55,0,0,1,5.08-1.16,33.18,33.18,0,0,1,11.19.11l-.25.17a38.79,38.79,0,0,1,5.06-12.77,42.77,42.77,0,0,1,9.89-11.09A43.38,43.38,0,0,1,203.17,373a37,37,0,0,1,16.46-1.33,42.52,42.52,0,0,1,23.14,11.51,40.78,40.78,0,0,1,11.65,20.46l-.28-.18a100.2,100.2,0,0,1,13.25-2.27,44.81,44.81,0,0,1,12.16.42,26.62,26.62,0,0,1,10,3.89,24.84,24.84,0,0,1,6.52,6.39,18.63,18.63,0,0,1,3.56,12.15,10.92,10.92,0,0,1-.31,1.95,6.42,6.42,0,0,1-.4,1.38c-.12.35-.22.62-.3.82A1.75,1.75,0,0,1,298.49,428.48Z"/><path class="cls-3" d="M204.43,171.82c.65,40.17-31.36,73.37-71.34,74s-73-31.51-73.68-71.68,31.37-73.36,71.35-74S203.79,131.66,204.43,171.82ZM97.26,173.55a34.67,34.67,0,1,0,34.11-35.39A34.78,34.78,0,0,0,97.26,173.55Z"/><path class="cls-7" d="M204.43,171.82c.65,40.17-31.36,73.37-71.34,74l-.61-38a34.83,34.83,0,0,0-1.11-69.65l-.61-38C170.74,99.51,203.79,131.66,204.43,171.82Z"/><path class="cls-7" d="M132.6,246.35l-.63-39h.5a34.36,34.36,0,0,0,23.22-59,33.9,33.9,0,0,0-24.31-9.67h-.5l-.63-39h.5a73.24,73.24,0,0,1,74.18,72.17c.65,40.44-31.58,73.87-71.83,74.52Zm.39-38,.59,37c39.47-.91,71-33.77,70.35-73.5a72.26,72.26,0,0,0-72.66-71.19l.59,37a35.28,35.28,0,0,1,35.23,34.77A35.3,35.3,0,0,1,133,208.31Z"/><path class="cls-5" d="M139.6,251.69c-46.78.75-84.09-35.55-84.84-82.54L99,168.43c.36,22.47,17.45,36.62,39.82,36.26Z"/><path class="cls-4" d="M80.19,169.91c.28.2-3.9,6.76-9.35,14.66s-10.08,14.14-10.36,14,3.9-6.75,9.35-14.65S79.91,169.72,80.19,169.91Z"/><path class="cls-4" d="M99.44,173.62c.28.19-5.91,9.66-13.83,21.15s-14.56,20.65-14.84,20.45,5.91-9.66,13.82-21.15S99.16,173.42,99.44,173.62Z"/><path class="cls-4" d="M108.8,193.3c.28.19-5.29,8.77-12.44,19.15S83.17,231.1,82.89,230.9s5.29-8.77,12.45-19.15S108.52,193.11,108.8,193.3Z"/><path class="cls-4" d="M125.1,204.19c.28.19-5.29,8.77-12.44,19.15S99.47,242,99.19,241.79s5.29-8.77,12.45-19.15S124.82,204,125.1,204.19Z"/><path class="cls-4" d="M139.06,218c.28.19-4.27,7.29-10.17,15.84S118,249.19,117.71,249s4.27-7.29,10.17-15.85S138.78,217.81,139.06,218Z"/><path class="cls-8" d="M369.94,33.12s4.37-10.06,4.58-11.64-.23-5.07-1.36-6a3,3,0,0,0-3.6-.49,3,3,0,0,0-2.39-2.62A1.63,1.63,0,0,0,365,14a1.92,1.92,0,0,0-1.52-1.94,2.86,2.86,0,0,0-1.7.25s-2.14-1.9-3.56-.72.22,19.51.22,19.51Z"/><path class="cls-8" d="M358.15,29s-3.9-6.72-3.88-8.55,2.21-6,3.43-6.5,6-1.61,6-1.61,2,1.85-.94,3.68l-3.36,1.89s5.37,1.79,5.19,7.27"/><path class="cls-9" d="M364.62,25.18a12.92,12.92,0,0,0-.49-2.53,7.15,7.15,0,0,0-1.58-2.47,8.89,8.89,0,0,0-3.19-2.06l-.44-.17.41-.23,3.4-1.95A3.11,3.11,0,0,0,364,14.32a1.77,1.77,0,0,0-.48-1.79l.23.06-2.58.62c-.68.17-1.36.34-2,.53-.33.09-.66.18-1,.29a3.86,3.86,0,0,0-.45.17,1.9,1.9,0,0,0-.35.25,11.44,11.44,0,0,0-2.05,3.13,12.33,12.33,0,0,0-.64,1.64,3.5,3.5,0,0,0-.21,1.56,14.73,14.73,0,0,0,1,2.81c.76,1.69,1.46,3,1.93,3.95a11.72,11.72,0,0,1,.7,1.46,8.4,8.4,0,0,1-.88-1.36c-.53-.9-1.27-2.21-2.08-3.9a14.42,14.42,0,0,1-1.1-2.89,4,4,0,0,1,.2-1.76,11.51,11.51,0,0,1,.65-1.71,11.34,11.34,0,0,1,2.14-3.31,2.07,2.07,0,0,1,.47-.33c.17-.08.34-.14.5-.2.33-.11.66-.2,1-.3q1-.28,2-.54l2.59-.61.13,0,.1.09a2.31,2.31,0,0,1,.61,2.34A3.62,3.62,0,0,1,363,16.18l-3.45,1.92,0-.4a9,9,0,0,1,3.31,2.23,7.24,7.24,0,0,1,1.56,2.63,6,6,0,0,1,.24,1.11,3.58,3.58,0,0,1,.06.82A2.34,2.34,0,0,1,364.62,25.18Z"/><path class="cls-8" d="M364.6,14.09a17.37,17.37,0,0,0-.58,6,3.08,3.08,0,0,0,.65,1.91,2,2,0,0,0,1.81.52,3.22,3.22,0,0,0,1.67-1"/><path class="cls-9" d="M368.15,21.56s-.32.69-1.43,1.09a2.27,2.27,0,0,1-2-.3,3,3,0,0,1-.94-2.28,11.91,11.91,0,0,1,.84-6,34.6,34.6,0,0,0-.32,5.94A2.6,2.6,0,0,0,365,22a2,2,0,0,0,1.62.33A7.93,7.93,0,0,0,368.15,21.56Z"/><path class="cls-8" d="M360.31,17.71a4.17,4.17,0,0,0-.17,2.19A2.26,2.26,0,0,0,361.67,22c.76.19,1.75-.83,2.19-1.89"/><path class="cls-9" d="M363.86,20.14c.06,0,0,.5-.46,1.13a2.73,2.73,0,0,1-1,.92,1.26,1.26,0,0,1-.92,0,2,2,0,0,1-.78-.49,2.71,2.71,0,0,1-.73-1.55c0-.53-.05-.92,0-1.32.06-.79.37-1.18.42-1.16s-.1.47-.05,1.16l.15,1.25a2.39,2.39,0,0,0,.62,1.25,1.54,1.54,0,0,0,.58.38.72.72,0,0,0,.56,0,2.72,2.72,0,0,0,.94-.7C363.59,20.52,363.79,20.11,363.86,20.14Z"/><path class="cls-8" d="M369.92,15.08a10.3,10.3,0,0,0-2.33,4.2,2.4,2.4,0,0,0,.33,2.39,2.14,2.14,0,0,0,2.48-.1,4.93,4.93,0,0,0,2.22-3.24"/><path class="cls-9" d="M372.62,18.33a3.19,3.19,0,0,1-.65,2,4.88,4.88,0,0,1-1.68,1.59,3,3,0,0,1-1.38.37,1.66,1.66,0,0,1-1.42-.73A2.34,2.34,0,0,1,367.2,20a5.75,5.75,0,0,1,.33-1.33,9.55,9.55,0,0,1,1-2.05,4.77,4.77,0,0,1,1.39-1.55c.07.06-.46.65-1.07,1.74a11.63,11.63,0,0,0-.87,2,6.45,6.45,0,0,0-.28,1.23,1.87,1.87,0,0,0,.22,1.2c.45.71,1.48.57,2.15.22a4.88,4.88,0,0,0,1.6-1.37A12.24,12.24,0,0,0,372.62,18.33Z"/><path class="cls-4" d="M315.65,97.55s5.42-5.85,7.55-7.16,16.25-18.11,17.74-22.54,15.32-39.93,15-39.45,17.57,3.76,17.57,3.76-13.26,41-14.87,45.63c-2.92,8.49-17.39,25.68-25.64,36-3.51,4.39-8.37,18.45-8.37,18.45Z"/><path class="cls-7" d="M328.57,119.6a16.58,16.58,0,0,1-.51-3.21c-.23-2-.44-4.76-.49-7.82s.06-5.84.22-7.84a16.42,16.42,0,0,1,.4-3.22,22,22,0,0,1,0,3.24c-.06,2-.11,4.76-.06,7.81s.2,5.81.33,7.8A23.46,23.46,0,0,1,328.57,119.6Z"/><path class="cls-7" d="M239.21,328.32l-7.62,15.53-1,3.8s5.08,23.08,1.9,25.35l-22.67-36.61,5.84-3.68L223,317.2Z"/><path class="cls-4" d="M209.85,336.39l2.87-1.64,20.67,35.71s.34,2.05-.87,2.54Z"/><path class="cls-4" d="M231.16,348.13c-.17.1-.8-.74-1.89-1.28s-2.09-.57-2.13-.78,1.11-.54,2.42.13S231.34,348.08,231.16,348.13Z"/><path class="cls-4" d="M232,352.91c-.14.14-.91-.45-2-.61s-2,.13-2.06-.05.78-.89,2.14-.67S232.2,352.81,232,352.91Z"/><path class="cls-4" d="M229,357.8c-.14-.14.55-.92,1.76-1s2.1.48,2,.65-.91-.05-1.9.06S229.16,358,229,357.8Z"/><path class="cls-4" d="M316.9,214.07c-.75,1.77-39,60.34-46.86,66.84s-34.63,59.94-34.63,59.94-21.89-10.62-22.38-9.47,15.35-37.71,24.8-53.67,13.85-22.13,13.85-22.13l18.8-50.12s.39-16.52,2.81-22.94,9.49-12,9.49-12Z"/><path class="cls-7" d="M282.43,284.85l-20.34,1.46s-5.23,22.3-9,22.95l-4.47-41.49,31.59-3.65Z"/><path class="cls-3" d="M262.41,273.29a1.61,1.61,0,0,0-2-1,1.65,1.65,0,0,0-.91,2,1.69,1.69,0,0,0,2.08,1,1.72,1.72,0,0,0,.73-2.22"/><path class="cls-4" d="M248.66,267.77l3.2-.24L255,307.4s-.56,1.93-1.82,1.86Z"/><path class="cls-4" d="M262.36,287c-.19,0-.38-1-1.11-1.92s-1.59-1.37-1.53-1.57,1.19,0,2,1.13S262.55,287,262.36,287Z"/><path class="cls-4" d="M261.13,291.5c-.18.07-.6-.78-1.49-1.37s-1.77-.71-1.78-.91,1.06-.45,2.15.31S261.31,291.47,261.13,291.5Z"/><path class="cls-4" d="M256.46,294.51c-.06-.18.87-.56,2-.16s1.63,1.31,1.48,1.41-.78-.42-1.69-.74S256.5,294.71,256.46,294.51Z"/><path class="cls-4" d="M267,286.08c-.18-.06,0-1-.22-2.16s-.63-2-.48-2.11.93.66,1.15,2S267.12,286.17,267,286.08Z"/><path class="cls-4" d="M264.62,198.72s-.06,19.51,8.8,26.1S313,256.21,313,256.21L264,264.59l3.67,22.75s66.2-6.68,74.31-9.4,13.93-16.42,7.59-25.94c-3.19-4.79-36.15-51.64-36.15-51.64l-1-12.58-41.55,2.63Z"/><path class="cls-7" d="M267.63,287.34a1.81,1.81,0,0,1-.1-.4c0-.29-.12-.68-.22-1.18-.18-1.06-.44-2.58-.78-4.52-.66-4-1.6-9.63-2.76-16.62l0-.18.19,0,44.78-7.72L313,256l-.12.46c-6.91-5.71-13.49-11.08-19.47-15.92l-8.53-6.8c-2.66-2.11-5.23-4-7.35-6a51,51,0,0,1-8.74-10.49A34.35,34.35,0,0,1,267,214c-.18-.38-.3-.68-.38-.89a1,1,0,0,1-.1-.31l.15.29c.09.2.23.49.42.86.39.75,1,1.85,1.85,3.2a52.75,52.75,0,0,0,8.81,10.32c2.12,1.95,4.68,3.81,7.37,5.92s5.56,4.36,8.56,6.77c6,4.81,12.6,10.17,19.51,15.88l.44.36-.56.1-4.25.72L264,264.79l.16-.23c1.09,7,2,12.68,2.6,16.65.29,1.94.52,3.46.68,4.54.06.49.12.88.16,1.18S267.63,287.33,267.63,287.34Z"/><path class="cls-7" d="M326.24,257.62c-.05.15-2.91-.7-6.56-1.07s-6.62-.18-6.63-.33a6.14,6.14,0,0,1,1.95-.3,28,28,0,0,1,4.74.11,29.14,29.14,0,0,1,4.66.89A6,6,0,0,1,326.24,257.62Z"/><path class="cls-4" d="M296,35a4.56,4.56,0,0,1,4.25-3.14,6.19,6.19,0,0,1,7.58-1.23,5.61,5.61,0,0,1,5.36-1.08,5.72,5.72,0,0,1,3.69,4.07,4.75,4.75,0,0,1,5.2,1.55,4.81,4.81,0,0,1,.18,5.45,4.48,4.48,0,0,1-.29,8.91L297.71,40A4.6,4.6,0,0,1,296,35Z"/><path class="cls-8" d="M322.67,50A18.94,18.94,0,0,0,301,36.19l-1,.18c-10.27,2.49-11.8,12.7-9,23L299,97.91h0l19.1,11.35,2.3-8.42,0-13.75s9.7-3.37,8-13.43C327.54,68.8,325,58.93,322.67,50Z"/><path class="cls-9" d="M320.44,87.06a24.42,24.42,0,0,1-13.77-1.47s3.9,7.22,13.7,4.51Z"/><path class="cls-4" d="M321.44,59.48a1.45,1.45,0,0,1-1.11,1.7,1.39,1.39,0,0,1-1.7-1,1.45,1.45,0,0,1,1.11-1.7A1.39,1.39,0,0,1,321.44,59.48Z"/><path class="cls-4" d="M321.62,55.82c-.14.21-1.36-.39-2.9-.11S316.21,57,316,56.81s0-.44.44-.89a4,4,0,0,1,2.14-1.11,3.78,3.78,0,0,1,2.35.32C321.48,55.41,321.7,55.72,321.62,55.82Z"/><path class="cls-4" d="M308.05,62.5a1.46,1.46,0,0,1-1.11,1.7,1.39,1.39,0,0,1-1.71-1,1.45,1.45,0,0,1,1.11-1.69A1.39,1.39,0,0,1,308.05,62.5Z"/><path class="cls-4" d="M306.91,58.27c-.14.22-1.37-.39-2.9-.11s-2.51,1.26-2.72,1.1,0-.44.45-.89a4,4,0,0,1,2.14-1.11,3.78,3.78,0,0,1,2.35.32C306.76,57.86,307,58.17,306.91,58.27Z"/><path class="cls-4" d="M314,68.78a10.31,10.31,0,0,1,2.41-.9c.38-.12.74-.26.76-.54a2,2,0,0,0-.48-1.12c-.54-.89-1.1-1.82-1.7-2.79-2.38-4-4.18-7.28-4-7.37s2.22,3,4.6,7l1.66,2.81a2.3,2.3,0,0,1,.48,1.51,1,1,0,0,1-.54.7,2.8,2.8,0,0,1-.64.21A9.67,9.67,0,0,1,314,68.78Z"/><path class="cls-4" d="M309.72,70.67c.25-.06.56,1.61,2.2,2.54s3.38.43,3.43.66-.34.39-1.08.55a4.18,4.18,0,0,1-2.85-.45,3.7,3.7,0,0,1-1.73-2.15C309.5,71.13,309.61,70.68,309.72,70.67Z"/><path class="cls-4" d="M306.13,53.86c-.11.43-1.49.31-3.09.63s-2.88.9-3.12.53c-.1-.18.1-.59.6-1a4.9,4.9,0,0,1,2.27-1.06,4.6,4.6,0,0,1,2.46.18C305.86,53.33,306.18,53.65,306.13,53.86Z"/><path class="cls-4" d="M320.51,51.65c-.17.41-1.31.33-2.56.65s-2.24.85-2.58.56c-.15-.15-.08-.54.3-1a3.79,3.79,0,0,1,4.14-1C320.34,51.13,320.58,51.45,320.51,51.65Z"/><path class="cls-4" d="M320.88,45.6s-3.78-5.81-7.06-6.73c-4-1.12-4.81,3.2-8.46,2.85s-7.45-1.42-10.51,1.93c-3.35,3.67-1.15,5.41-.58,9.91,2.3,18.24,0,23.94-2.53,15.6-.27-.91-3-1.18-4.07-5-1.42-5-2.74-11.18-2.27-15,.4-3.23,1.75-5.65,4.43-8.54,4.24-4.56,10.95-5.87,15.61-6.23S319.87,37.65,320.88,45.6Z"/><path class="cls-8" d="M293.6,68.54a2.77,2.77,0,0,0-3.41-2.09c-1.83.52-3.7,2-2.88,5.8,1.47,6.83,8,4,7.94,3.76S294.23,71.39,293.6,68.54Z"/><path class="cls-9" d="M293.23,73.76s-.1.1-.28.24a1.25,1.25,0,0,1-.88.21c-.78-.11-1.62-1.13-1.92-2.35a4.09,4.09,0,0,1,0-1.77,1.41,1.41,0,0,1,.7-1.11.6.6,0,0,1,.76.18c.14.17.12.32.16.32s.12-.15,0-.42a.79.79,0,0,0-.36-.37,1,1,0,0,0-.69,0,1.7,1.7,0,0,0-1,1.32,4.18,4.18,0,0,0,0,2c.34,1.37,1.31,2.51,2.35,2.58a1.32,1.32,0,0,0,1.05-.41C293.25,73.92,293.25,73.76,293.23,73.76Z"/><path class="cls-4" d="M290.05,55.45a6.53,6.53,0,0,0,3.13.82,2.27,2.27,0,0,0,2.19-2c0-.5-.23-1,0-1.45s1-.5,1.59-.54a4.44,4.44,0,0,0,3.95-4,1.84,1.84,0,0,0,2.49-.22,9.89,9.89,0,0,0,1.5-2.33A2.85,2.85,0,0,1,307,44.14a6.75,6.75,0,0,0,1.55.06c.88-.24,1.12-1.38,1.1-2.3s-.11-2,.56-2.6a3.6,3.6,0,0,1,2.42-.51c.85,0,1.88-.42,1.94-1.27a1.62,1.62,0,0,0-.53-1.19,4.47,4.47,0,0,0-5.52-.73,6.08,6.08,0,0,0-11.22.83,6.26,6.26,0,0,0-5.69-.45A6.33,6.33,0,0,0,288,40.42a4.5,4.5,0,0,0-3.79,7.35,4.3,4.3,0,0,0-1.7,3.77c.24,1.43,1.87,2.59,3.16,2a2.59,2.59,0,0,0,1.55,3.05,2.56,2.56,0,0,0,3.12-1.37"/><path class="cls-7" d="M285.2,53.59a1.68,1.68,0,0,0,.66,1.24,2.26,2.26,0,0,0,1.52.57,2.41,2.41,0,0,0,1.84-.92h-.29A6.82,6.82,0,0,0,290.6,56a4,4,0,0,0,1.38.55,2.62,2.62,0,0,0,1.4-.12,2.71,2.71,0,0,0,1.76-1.49,3.94,3.94,0,0,0,.3-1.53,1.58,1.58,0,0,0-.05-.56s-.06.19-.11.55a4.5,4.5,0,0,1-.39,1.42,2.82,2.82,0,0,1-4.08.84,7.15,7.15,0,0,1-1.59-1.37l-.16-.18-.14.19a2.14,2.14,0,0,1-1.55.83,2,2,0,0,1-1.35-.44A3.34,3.34,0,0,1,285.2,53.59Z"/><path class="cls-7" d="M295.25,35.57a3.83,3.83,0,0,0,.51.09,2.49,2.49,0,0,1,1.23.71l.1.12.07-.14A8.63,8.63,0,0,1,300,33.06,6.57,6.57,0,0,1,302.55,32a5.62,5.62,0,0,1,3,.3,5.88,5.88,0,0,1,2,1.33,4.77,4.77,0,0,1,1.13,1.93l.06.22.19-.1a3.83,3.83,0,0,1,2.9-.16,3.74,3.74,0,0,1,1.86,1.39,5.14,5.14,0,0,1,.79,2,1.25,1.25,0,0,0,0-.57,3.81,3.81,0,0,0-.59-1.51A4,4,0,0,0,312,35.2a4.2,4.2,0,0,0-3.16.13l.26.12a5,5,0,0,0-1.2-2.11,5.92,5.92,0,0,0-2.15-1.43,5.84,5.84,0,0,0-3.26-.31,6.94,6.94,0,0,0-2.71,1.17,8.45,8.45,0,0,0-2.8,3.48l.17,0a2.28,2.28,0,0,0-1.36-.68A1.12,1.12,0,0,0,295.25,35.57Z"/><path class="cls-3" d="M306.64,202.27c1,.09,4.2,1.23,8.42-6.58S323.34,159,323.34,159Z"/><path class="cls-3" d="M324.86,147.82l.48-28-5.62-21.39s-3.94-6.15-8.22-9.29a26.19,26.19,0,0,0-9.32-4.55l-6.43-1.56-.69,5.33,18.68,21.45Z"/><path class="cls-4" d="M295.14,84.92s15.39,1.33,22.83,19.91c4,10,6.43,36.75,6.89,40.93s-1.09,13.78-3.95,26.69c-.55,2.51-2.56,9.12-8.05,25.12-5.86,17.12-10.54,29.76-10.54,29.76l-49.18-19L277.6,165.4s-1.29-13.21-1.23-14.48c.47-9.83-1.44-15.36,1.8-34.25a46.92,46.92,0,0,1,5.86-16c3.09-5.21,5.39-6.76,10.64-10.69Z"/><polygon class="cls-4" points="300.44 202.15 301.74 191.77 278.29 182.26 274.01 192.17 300.44 202.15"/><path class="cls-7" d="M300.44,202.15a3.25,3.25,0,0,0-.54-.24l-1.49-.59-5.53-2.17-18.78-7.22.15.34,3.63-8.39.66-1.51-.35.14,23.48,9.43-.12-.19c-.35,3.16-.63,5.72-.83,7.55-.09.87-.17,1.56-.22,2.09a6.51,6.51,0,0,0-.06.76,5.18,5.18,0,0,0,.12-.68c.07-.51.17-1.18.3-2,.25-1.86.62-4.46,1.06-7.66l0-.14-.13-.05L278.39,182l-.24-.1-.1.25c-.22.49-.44,1-.66,1.51l-3.62,8.4-.11.25.26.09L293,199.47l5.51,2L300,202A3.54,3.54,0,0,0,300.44,202.15Z"/><path class="cls-7" d="M319.87,175.92a1,1,0,0,1-.06.27l-.24.77-1,3c-.87,2.61-2.11,6.32-3.63,10.89-3.12,9.2-7.41,21.86-12.16,35.84l-.26.76-.08.25-.26-.09L267.45,214,257,209.89l-2.84-1.15-.73-.31a1,1,0,0,1-.25-.12.72.72,0,0,1,.26.07l.76.26L257,209.7l10.55,4,34.83,13.39-.34.16.26-.76,12.3-35.79c1.59-4.55,2.88-8.24,3.79-10.83l1.05-2.94.29-.76C319.83,176,319.87,175.92,319.87,175.92Z"/><path class="cls-7" d="M247.59,230.72s5.81-18.93,10.75-20.21S269.83,209,271,212.24a35,35,0,0,1,1.9,12.69,75.69,75.69,0,0,1-1.95,11.75l-5.05-1.56s3.95-19.23,2.93-22.38-9.41-2.39-10.94.88-6.39,18.3-6.39,18.3Z"/><path class="cls-7" d="M224.38,254.54c1.77-7.93,5.91-25.37,7.73-33a4,4,0,0,1,4.67-3l47.39,9.38a4,4,0,0,1,3.17,4.57L282,265.39a4,4,0,0,1-4.68,3.29l-49.75-9.33A4,4,0,0,1,224.38,254.54Z"/><path class="cls-4" d="M282.47,240l-.06.35c-.05.26-.12.61-.2,1.06-.19.95-.46,2.33-.8,4.09-.71,3.58-1.73,8.75-3,15.12l-.24,1.21a2.43,2.43,0,0,1-.52,1.2,2.14,2.14,0,0,1-1.15.71,2.83,2.83,0,0,1-1.36-.06l-5.42-1-12-2.32-13.22-2.57-7-1.36-3.58-.69-.9-.18a3.87,3.87,0,0,1-.93-.24,2.23,2.23,0,0,1-1.25-1.49,2.26,2.26,0,0,1,0-.86c0-.28.11-.52.17-.79l.33-1.55c.22-1,.44-2.05.65-3.06.44-2,.87-4,1.29-6,.85-3.94,1.66-7.76,2.45-11.41l0-.17.17,0c13.48,3.45,25.12,5.92,33.39,7.54,4.14.81,7.42,1.42,9.68,1.84l2.59.48.66.12.22.05-.24,0-.68-.1-2.57-.41c-2.26-.38-5.56-1-9.7-1.74-8.28-1.57-19.94-4-33.43-7.42l.21-.13c-.78,3.65-1.59,7.47-2.43,11.42-.42,2-.85,4-1.28,6l-.66,3.07-.33,1.55a3,3,0,0,0-.12,1.48,1.88,1.88,0,0,0,1,1.25,4.06,4.06,0,0,0,.85.22l.9.17,3.58.7,7,1.37L257.83,260l11.95,2.35,5.42,1.07a2.78,2.78,0,0,0,1.24.07,1.9,1.9,0,0,0,1-.62,2.11,2.11,0,0,0,.47-1.08c.08-.41.16-.81.25-1.2,1.31-6.33,2.37-11.46,3.11-15,.37-1.78.67-3.16.87-4.11.1-.46.17-.82.23-1.07S282.47,240,282.47,240Z"/><path class="cls-4" d="M264.8,258.46s.29.05.85,0a4.19,4.19,0,0,0,2.27-.74,4.4,4.4,0,0,0,1.82-3.23c.29-1.49.62-3.18,1-5.05.18-.94.38-1.92.58-2.94a4.24,4.24,0,0,0-.29-3.06,4,4,0,0,0-2.53-2c-1.15-.25-2.37-.47-3.6-.73l-16.09-3.22a4,4,0,0,0-3.75,1.24,3.88,3.88,0,0,0-.92,1.76c-.14.69-.28,1.36-.42,2-.27,1.35-.54,2.67-.8,4q-.19,1-.39,1.92a16.58,16.58,0,0,0-.33,1.86,4,4,0,0,0,2.76,4c.53.16,1.12.24,1.66.36l6.11,1.25,8.84,1.84,2.41.52.62.14.21.07-.22,0-.63-.11-2.41-.45-8.87-1.72-6.12-1.21c-.56-.12-1.1-.2-1.69-.37a4.32,4.32,0,0,1-3-4.32,14.64,14.64,0,0,1,.33-1.91c.12-.64.25-1.28.38-1.93.26-1.29.52-2.61.79-4l.42-2a4.34,4.34,0,0,1,5.09-3.27L265,240.39c1.24.25,2.44.48,3.62.75a4.32,4.32,0,0,1,2.72,2.2,4.59,4.59,0,0,1,.29,3.26l-.6,2.93q-.59,2.81-1,5c-.08.37-.15.73-.25,1.08a4.51,4.51,0,0,1-.44.94,4.29,4.29,0,0,1-1.25,1.29,4.18,4.18,0,0,1-2.35.69A2.94,2.94,0,0,1,264.8,258.46Z"/><g class="cls-6"><path d="M232,255.1a77.07,77.07,0,0,0,43.41,8.43Z"/></g><path class="cls-3" d="M261.73,245.22l-5.59-1.12a1.62,1.62,0,0,1-1.26-1.91h0a1.61,1.61,0,0,1,1.9-1.26l5.59,1.12a1.63,1.63,0,0,1,1.27,1.91h0A1.62,1.62,0,0,1,261.73,245.22Z"/><path class="cls-8" d="M270.61,206.25a17,17,0,0,1,1.79,3.58,47.19,47.19,0,0,1,.12,6.76s-1.17.6-2.12-2.55a25.52,25.52,0,0,1-1.07-4.63Z"/><path class="cls-8" d="M270.46,216.3l.23-9.91-3.82-7.33-12.12-.23-.43,12S256.1,216,257,217s2.54.26,2.54.26c.92,1.43,3.43.9,3.43.9,1.24,1.47,3.15.09,3.15.09s1.69,1.54,2.46,1.44a1.46,1.46,0,0,0,.81-.52A4.22,4.22,0,0,0,270.46,216.3Z"/><path class="cls-9" d="M258.57,214.64c.11,0,.39.49.63,1.18s.33,1.29.22,1.33-.4-.49-.64-1.19S258.45,214.68,258.57,214.64Z"/><path class="cls-9" d="M261.71,214.5a22.87,22.87,0,0,1,1.1,3.72c-.11.06-.58-.7-.89-1.76A3.38,3.38,0,0,1,261.71,214.5Z"/><path class="cls-9" d="M265.29,214.82a5.17,5.17,0,0,1,.39,1.66,5.35,5.35,0,0,1,.24,1.7c-.11,0-.49-.66-.67-1.62S265.17,214.82,265.29,214.82Z"/><path class="cls-9" d="M270.54,209.5a15.62,15.62,0,0,1,.17,3.77,15.28,15.28,0,0,1-.27,3.76,16.68,16.68,0,0,1-.16-3.77A16.23,16.23,0,0,1,270.54,209.5Z"/><path class="cls-9" d="M258.39,212.65s0,.19-.26.32a1.32,1.32,0,0,1-1,.14,1.3,1.3,0,0,1-.81-.52c-.15-.2-.16-.36-.11-.39s.44.37,1,.49S258.32,212.55,258.39,212.65Z"/><path class="cls-9" d="M262.05,213.25c0,.05-.07.18-.32.3a1.67,1.67,0,0,1-1,.11,1.72,1.72,0,0,1-.9-.5c-.18-.2-.22-.37-.18-.4s.51.34,1.17.47S262,213.14,262.05,213.25Z"/><path class="cls-9" d="M269.06,212.52c0-.06.28.27,0,.69a2.07,2.07,0,0,1-1.48.71,2.61,2.61,0,0,1-1.58-.36c-.35-.23-.49-.46-.45-.5a4.81,4.81,0,0,0,2,.42,2.26,2.26,0,0,0,1.28-.47C269.05,212.79,269,212.54,269.06,212.52Z"/><path class="cls-4" d="M306.79,119.31c-4.76,5-34.32,34-34.32,34s-1.72,46.89-2.57,47.09-17.85-1.19-17.85-1.19-2.38-49.71-.4-55.38,27.26-38.83,27.81-39.52,3.44-5.76,13.12-8.24c11.33-2.91,16.08,2.52,18,8.09,1.63,4.8-1.49,12.26-3,14.27C307.32,118.72,307.06,119,306.79,119.31Z"/><path class="cls-7" d="M306.79,119.31s.14-.19.43-.55a7.87,7.87,0,0,0,1.11-1.72,24.76,24.76,0,0,0,2.4-7.47,11.59,11.59,0,0,0-.35-5.58,13.86,13.86,0,0,0-3.58-5.62,10.85,10.85,0,0,0-3.13-2,13.15,13.15,0,0,0-3.85-.92,27,27,0,0,0-17,5.48,17.5,17.5,0,0,0-3.39,3.76l-3.21,4.24c-4.33,5.77-8.94,12-13.66,18.55-2.36,3.3-4.76,6.7-7.09,10.24a52.33,52.33,0,0,0-3.26,5.5c-.1.24-.24.47-.32.72l-.16.77a10.32,10.32,0,0,0-.22,1.59l-.15,1.63-.07,1.65c-.32,8.81-.06,18,.19,27.31.22,7.6.51,15,.84,22.28l-.23-.25,9.13.72,4.47.31,2.22.14,1.09,0h.78s.16,0,0,.05,0,0,0,0a37.35,37.35,0,0,0,.47-4.28c.1-1.44.19-2.86.29-4.27.16-2.83.31-5.62.46-8.35.54-10.92,1-21,1.31-30v-.08l.06-.06,25.13-24.76,6.89-6.74,1.81-1.75c.41-.39.63-.58.63-.58s-.19.22-.59.62l-1.76,1.79-6.82,6.82-25,24.89.06-.14c-.33,9-.71,19.07-1.24,30-.15,2.73-.29,5.51-.45,8.34-.09,1.42-.18,2.85-.28,4.29a40.13,40.13,0,0,1-.48,4.38.71.71,0,0,1-.11.22.3.3,0,0,1-.19.11h-.08l-.31,0H269l-1.11,0-2.22-.13-4.48-.32-9.13-.7-.23,0v-.23c-.33-7.23-.63-14.68-.85-22.28-.25-9.37-.51-18.51-.18-27.36l.08-1.65.15-1.65a9.36,9.36,0,0,1,.23-1.65l.17-.82c.09-.26.23-.51.34-.76a50.17,50.17,0,0,1,3.31-5.57c2.34-3.55,4.75-7,7.11-10.24,4.74-6.6,9.36-12.78,13.71-18.54q1.63-2.16,3.22-4.23c.52-.68,1-1.42,1.6-2a19.33,19.33,0,0,1,1.86-1.77,25,25,0,0,1,8.61-4.37,24.55,24.55,0,0,1,8.69-1.13,13.77,13.77,0,0,1,4,1A11.18,11.18,0,0,1,307,98.15a14,14,0,0,1,3.61,5.76,11.92,11.92,0,0,1,.33,5.69,24.45,24.45,0,0,1-2.52,7.49,7.58,7.58,0,0,1-1.16,1.7C307,119.14,306.79,119.31,306.79,119.31Z"/><path class="cls-7" d="M323.56,140.78a2.54,2.54,0,0,1-.21-.56c-.12-.43-.29-1-.49-1.64l-1.73-6.06c-1.43-5.21-3.4-12.35-5.62-20.38l0-.11.07-.1c.55-.86,1.14-1.78,1.74-2.7l.45-.71.2.4-3.32-.31h-.17l-.05-.17a58.17,58.17,0,0,0-2.06-5.5,24.19,24.19,0,0,0-2.57-4.73,12,12,0,0,0-3.74-3c-1.33-.75-2.59-1.37-3.76-1.93-2.33-1.1-4.24-1.9-5.56-2.45l-1.52-.63a2.55,2.55,0,0,1-.52-.24,3.42,3.42,0,0,1,.56.15c.35.12.88.3,1.55.55,1.34.5,3.28,1.25,5.64,2.3,1.18.54,2.46,1.15,3.81,1.9a12.1,12.1,0,0,1,3.91,3,25.25,25.25,0,0,1,2.66,4.81,58.2,58.2,0,0,1,2.09,5.55l-.22-.18,3.31.31.43,0-.23.36-.46.7c-.59.93-1.18,1.84-1.74,2.7l0-.21c2.15,8,4.07,15.21,5.46,20.43.66,2.54,1.19,4.61,1.58,6.1.16.68.29,1.23.4,1.66A3,3,0,0,1,323.56,140.78Z"/><path class="cls-5" d="M320.11,110.9c-5.8,3.42-10.51,3.39-20.19,2.57-6.71-.57-12.59-2.49-19.32-2.7-9.7-.29-17,2.67-25.81,6.67l-6.51,7.71,12.23,3.69A53.58,53.58,0,0,1,287.29,123c15,.82,29.08-3.27,34.06-7.07l1.7-4.75-.65-2.47-2.06-.2Z"/><path class="cls-4" d="M320.11,110.9s0-.22,0-.62.08-1,.14-1.78v-.06h.06l2.06.17h.06l0,0c.19.73.42,1.56.66,2.47v.06L321.47,116v0l0,0a22.2,22.2,0,0,1-4.74,2.62,49.23,49.23,0,0,1-5.92,2,73.42,73.42,0,0,1-14.58,2.45,72.84,72.84,0,0,1-8.39.1,55.55,55.55,0,0,0-8.89.28,53.3,53.3,0,0,0-9.19,1.91,49.49,49.49,0,0,0-9.08,3.64l-.1.05-.1,0-7.17-2.16-5.07-1.54-.37-.11.25-.3,6.52-7.7,0,0,.06,0a93.37,93.37,0,0,1,12.95-5,41.59,41.59,0,0,1,12.69-1.62,70.5,70.5,0,0,1,11.36,1.5,81.69,81.69,0,0,0,9.75,1.38,73.44,73.44,0,0,0,8,.34,22.58,22.58,0,0,0,5.94-.87,21.35,21.35,0,0,0,3.51-1.41l.87-.45a1.35,1.35,0,0,1,.31-.14l-.28.17c-.18.12-.47.29-.85.51a20.94,20.94,0,0,1-3.5,1.49,22.25,22.25,0,0,1-6,1,70.37,70.37,0,0,1-8.08-.27,79.49,79.49,0,0,1-9.79-1.32,69.68,69.68,0,0,0-11.3-1.44,41.27,41.27,0,0,0-12.54,1.64,94,94,0,0,0-12.88,5l.09-.06-6.51,7.7-.13-.41,5.07,1.53,7.17,2.17-.21,0a49.49,49.49,0,0,1,9.2-3.68,54.37,54.37,0,0,1,9.27-1.91,55.38,55.38,0,0,1,9-.25,74.35,74.35,0,0,0,8.34-.08,73.08,73.08,0,0,0,14.51-2.36,47.15,47.15,0,0,0,5.89-2,21.68,21.68,0,0,0,4.7-2.53l0,.06q1-2.66,1.73-4.74v.06c-.23-.91-.44-1.75-.63-2.47l.08.06-2.06-.21.07-.06-.21,1.79C320.15,110.7,320.11,110.9,320.11,110.9Z"/><path class="cls-7" d="M297.2,173.3a103.89,103.89,0,0,1-9.87-3.26c-5.4-1.93-9.74-3.61-9.69-3.74a103,103,0,0,1,9.87,3.25C292.91,171.49,297.24,173.16,297.2,173.3Z"/></g></svg>