<svg xmlns="http://www.w3.org/2000/svg" viewBox="0 0 721.01 408.53"><defs><style>.cls-1{fill:#fafafa;}.cls-2{fill:#e0e0e0;}.cls-3{fill:#ebebeb;}.cls-4{fill:#f5f5f5;}.cls-5{fill:#fff;}.cls-6{fill:#263238;}.cls-7{fill:#455a64;}.cls-8{fill:#8ea382;}.cls-9{fill:#ffbf9d;}.cls-10{fill:#ff9a6c;}.cls-11,.cls-12{opacity:0.3;}.cls-13{fill:#b56760;}.cls-14{fill:#8a4a43;}</style></defs><title>pertemuan</title><g id="Desk"><rect class="cls-1" x="23.99" y="14.7" width="147.57" height="132.02"/><path class="cls-2" d="M171.56,146.72s0-.85,0-2.45,0-4,0-7.08c0-6.2,0-15.26-.09-26.8,0-23.06-.1-56-.17-95.69l.34.33L24,15.09h0l.4-.39c0,48,0,93.22-.05,132l-.35-.35,106.73.17,30.1.1,8,0,2.06,0c.46,0,.71,0,.71,0l-.67,0-2,0-7.9,0-30,.09-107,.17h-.34v-.34c0-38.8,0-84,0-132v-.4H24l147.55.06h.33v.34c-.07,39.75-.13,72.79-.17,95.91,0,11.5-.07,20.54-.09,26.72,0,3.06,0,5.4,0,7S171.56,146.72,171.56,146.72Z"/><path class="cls-2" d="M80.57,38.15c0,.22-7.76.4-17.34.4s-17.35-.18-17.35-.4,7.77-.39,17.35-.39S80.57,37.94,80.57,38.15Z"/><path class="cls-2" d="M143.1,48.07c0,.21-21.34.39-47.65.39s-47.66-.18-47.66-.39,21.33-.4,47.66-.4S143.1,47.85,143.1,48.07Z"/><rect class="cls-2" x="46.13" y="64.86" width="6.22" height="6.22"/><rect class="cls-2" x="61.44" y="64.86" width="6.22" height="6.22"/><rect class="cls-2" x="77.02" y="64.58" width="6.22" height="6.22"/><rect class="cls-2" x="92.04" y="64.86" width="6.22" height="6.22"/><rect class="cls-2" x="107.35" y="64.86" width="6.22" height="6.22"/><rect class="cls-2" x="122.65" y="64.86" width="6.22" height="6.22"/><rect class="cls-3" x="137.95" y="64.86" width="6.22" height="6.22"/><rect class="cls-3" x="46.13" y="78.07" width="6.22" height="6.22"/><rect class="cls-2" x="61.44" y="78.07" width="6.22" height="6.22"/><rect class="cls-3" x="76.74" y="78.07" width="6.22" height="6.22"/><rect class="cls-2" x="92.04" y="78.07" width="6.22" height="6.22"/><rect class="cls-2" x="107.35" y="78.07" width="6.22" height="6.22"/><rect class="cls-2" x="122.93" y="77.79" width="6.22" height="6.22"/><rect class="cls-2" x="137.95" y="78.07" width="6.22" height="6.22"/><rect class="cls-2" x="46.13" y="91.29" width="6.22" height="6.22"/><rect class="cls-2" x="61.72" y="91.01" width="6.22" height="6.22"/><rect class="cls-2" x="76.74" y="91.29" width="6.22" height="6.22"/><rect class="cls-3" x="92.04" y="91.29" width="6.22" height="6.22"/><rect class="cls-2" x="107.35" y="91.29" width="6.22" height="6.22"/><rect class="cls-2" x="122.65" y="91.29" width="6.22" height="6.22"/><rect class="cls-2" x="137.95" y="91.29" width="6.22" height="6.22"/><rect class="cls-2" x="46.13" y="104.51" width="6.22" height="6.22"/><rect class="cls-2" x="61.44" y="104.51" width="6.22" height="6.22"/><rect class="cls-2" x="76.74" y="104.51" width="6.22" height="6.22"/><rect class="cls-2" x="92.33" y="104.23" width="6.22" height="6.22"/><rect class="cls-2" x="107.35" y="104.51" width="6.22" height="6.22"/><rect class="cls-3" x="122.65" y="104.51" width="6.22" height="6.22"/><rect class="cls-2" x="137.95" y="104.51" width="6.22" height="6.22"/><rect class="cls-2" x="46.13" y="117.72" width="6.22" height="6.22"/><rect class="cls-3" x="61.44" y="117.72" width="6.22" height="6.22"/><rect class="cls-2" x="76.74" y="117.72" width="6.22" height="6.22"/><rect class="cls-2" x="92.04" y="117.72" width="6.22" height="6.22"/><rect class="cls-2" x="107.35" y="117.72" width="6.22" height="6.22"/><rect class="cls-2" x="122.93" y="117.44" width="6.22" height="6.22"/><rect class="cls-2" x="137.95" y="117.72" width="6.22" height="6.22"/><rect class="cls-2" x="696.1" y="26.32" width="7.11" height="152.89"/><rect class="cls-4" x="592.95" y="27.51" width="102.07" height="151.92" rx="0.1"/><path class="cls-3" d="M696.1,180.61H591.87a.1.1,0,0,1-.1-.11V26.43a.1.1,0,0,1,.1-.11H696.1a.11.11,0,0,1,.1.11V180.5A.11.11,0,0,1,696.1,180.61Zm-101.87-2.37h99.5a.09.09,0,0,0,.1-.1V28.79a.09.09,0,0,0-.1-.1h-99.5a.1.1,0,0,0-.1.1V178.14A.1.1,0,0,0,594.23,178.24Z"/><rect class="cls-5" x="603.22" y="36.88" width="81.69" height="133.07" rx="0.1"/><rect class="cls-3" x="621.05" y="74.6" width="45.87" height="53.76" rx="0.06"/><path class="cls-2" d="M663.29,121.79c.06.17-2.21,1.16-6.52.66a15.89,15.89,0,0,1-7.32-2.93,14.85,14.85,0,0,1-5.68-9,12.85,12.85,0,0,1,4.35-12.23,11.45,11.45,0,0,1,3.29-1.93,8.77,8.77,0,0,1,4.13-.47,7.23,7.23,0,0,1,4.13,1.8,5.37,5.37,0,0,1,1.62,4.8,7.77,7.77,0,0,1-2.26,4.13,14.92,14.92,0,0,1-3.46,2.55,19,19,0,0,1-8.24,2.35,16.39,16.39,0,0,1-8.79-2,16,16,0,0,1-6.46-6.7,13.67,13.67,0,0,1-1.16-9.39,13.93,13.93,0,0,1,5-7.73A12.16,12.16,0,0,1,640,83.66a10.24,10.24,0,0,1,4.67-.15,7.59,7.59,0,0,1,4.24,2.39,7,7,0,0,1,1.66,4.53,8.71,8.71,0,0,1-1.1,4.31,11.65,11.65,0,0,1-2.62,3.15,17.59,17.59,0,0,1-6.5,3.45,16.62,16.62,0,0,1-6.83.53,13.89,13.89,0,0,1-5.95-2.28,12.86,12.86,0,0,1-5.69-9A10.88,10.88,0,0,1,624,82.87a9.25,9.25,0,0,1,3.89-3.11c1.07-.41,1.68-.39,1.71-.29s-.48.38-1.35,1a10.11,10.11,0,0,0-3,3.26A9.62,9.62,0,0,0,624,90.28a10.8,10.8,0,0,0,5,7.08,12.46,12.46,0,0,0,10.42,1,14.68,14.68,0,0,0,5.22-2.95,6.44,6.44,0,0,0,2.44-4.89A3.52,3.52,0,0,0,644,87a6.94,6.94,0,0,0-3,.14,8.64,8.64,0,0,0-2.83,1.48,10.38,10.38,0,0,0-3.57,5.69,9.93,9.93,0,0,0,.88,6.82,12.32,12.32,0,0,0,4.93,5.13,12.75,12.75,0,0,0,6.79,1.58,15.54,15.54,0,0,0,6.68-1.83,11.26,11.26,0,0,0,2.66-1.88,4.52,4.52,0,0,0,1.36-2.2,1.92,1.92,0,0,0-.55-1.77,4,4,0,0,0-2.21-1,5.54,5.54,0,0,0-2.6.23,8.13,8.13,0,0,0-2.42,1.32,10.14,10.14,0,0,0-3.7,9.36,13,13,0,0,0,4.37,7.74,15.36,15.36,0,0,0,6.29,3.13C660.93,121.91,663.26,121.46,663.29,121.79Z"/><rect class="cls-4" x="115.34" y="231.28" width="48.65" height="12.87"/><path class="cls-2" d="M680.89,247.15a2.07,2.07,0,0,1,0-.23l0-.66c0-.61,0-1.45,0-2.53,0-2.23-.05-5.42-.09-9.45l.15.15-48.65.1.25-.25h0v6.52c0,2.15,0,4.26,0,6.33l-.24-.24,34.67.11,10.24.07,2.76,0,.73,0h.25s-.07,0-.22,0H680l-2.71,0-10.18.07-34.84.11H632v-.25q0-3.1,0-6.33V234.3h0l.25-.25,48.65.1H681v.15c0,4.07-.06,7.29-.08,9.54,0,1.06,0,1.9,0,2.49V247C680.9,247.09,680.9,247.16,680.89,247.15Z"/><path class="cls-2" d="M687.49,234.28a1.22,1.22,0,0,1,0-.24c0-.19,0-.41,0-.69,0-.63,0-1.49,0-2.58,0-2.25-.06-5.44-.1-9.36l.18.18-29.23.07.25-.25h0V228c0,2.15,0,4.24,0,6.24l-.23-.23,20.91.11,6.09.06,1.64,0,.59,0a3.28,3.28,0,0,1-.53,0l-1.59,0-6,.07-21.07.11H658v-.24c0-2,0-4.09,0-6.24v-6.62h0l.25-.25,29.23.07h.18v.18c0,4-.08,7.19-.1,9.47,0,1.07,0,1.92,0,2.54S687.5,234.29,687.49,234.28Z"/><path class="cls-2" d="M434.82,326.93a2.07,2.07,0,0,1,0-.23l0-.66c0-.61,0-1.45,0-2.54,0-2.22,0-5.41-.08-9.44l.15.15-48.65.1.25-.25h0v6.52q0,3.22,0,6.33l-.24-.24,34.67.11,10.23.07,2.77,0,.73,0h.25s-.07,0-.22,0h-.7l-2.71,0-10.18.07-34.84.11h-.24v-.25q0-3.1,0-6.33v-6.52h0l.25-.25,48.65.1H435v.15c0,4.07-.06,7.29-.08,9.53,0,1.07,0,1.91,0,2.5v.64C434.83,326.87,434.83,326.94,434.82,326.93Z"/><path class="cls-2" d="M441.42,314.06a1.35,1.35,0,0,1,0-.24c0-.19,0-.41,0-.69l0-2.58c0-2.25-.06-5.44-.1-9.36l.18.18-29.23.07c-.22.22.3-.3.24-.25h0v6.61c0,2.15,0,4.24,0,6.24l-.23-.24,20.91.12,6.09.06,1.64,0,.59,0a3.28,3.28,0,0,1-.53,0l-1.6,0-6,.06-21.07.12H412v-.24c0-2,0-4.09,0-6.24v-6.61h0l.25-.25,29.23.07h.18v.18c0,4-.08,7.19-.1,9.47,0,1.07,0,1.92,0,2.54S441.43,314.07,441.42,314.06Z"/><path class="cls-6" d="M713.47,394.73c0,.14-159.73.26-356.72.26S0,394.87,0,394.73s159.69-.26,356.75-.26S713.47,394.58,713.47,394.73Z"/><rect class="cls-5" x="252.95" y="23.58" width="315.9" height="261.5"/><path class="cls-6" d="M568.85,285.08c0-1.83-.08-103.91-.22-261.5l.22.22L253,23.84h0l.26-.26c0,94.66,0,184,0,261.5l-.23-.23,315.9.23-315.9.23h-.23v-.23c0-77.5,0-166.84,0-261.5v-.26H253l315.87,0h.22v.22C568.94,181.17,568.85,283.26,568.85,285.08Z"/><path class="cls-2" d="M532.54,94.18c0,.14-56.63.26-126.48.26s-126.48-.12-126.48-.26,56.62-.26,126.48-.26S532.54,94,532.54,94.18Z"/><path class="cls-2" d="M532.54,122.11c0,.15-56.63.26-126.48.26s-126.48-.11-126.48-.26,56.62-.26,126.48-.26S532.54,122,532.54,122.11Z"/><path class="cls-2" d="M532.54,150.05c0,.14-56.63.26-126.48.26s-126.48-.12-126.48-.26,56.62-.27,126.48-.27S532.54,149.9,532.54,150.05Z"/><path class="cls-2" d="M532.54,178c0,.14-56.63.26-126.48.26s-126.48-.12-126.48-.26,56.62-.26,126.48-.26S532.54,177.83,532.54,178Z"/><path class="cls-2" d="M532.54,205.91c0,.14-56.63.26-126.48.26s-126.48-.12-126.48-.26,56.62-.26,126.48-.26S532.54,205.77,532.54,205.91Z"/><path class="cls-2" d="M532.54,233.84c0,.15-56.63.26-126.48.26s-126.48-.11-126.48-.26,56.62-.26,126.48-.26S532.54,233.7,532.54,233.84Z"/><rect class="cls-7" x="434.9" y="180.37" width="25.2" height="81.14"/><rect class="cls-7" x="482.49" y="153.56" width="25.2" height="107.95"/><rect class="cls-7" x="302.24" y="223.53" width="25.2" height="37.98"/><rect class="cls-7" x="343.93" y="212.2" width="25.2" height="49.31"/><rect class="cls-7" x="387.14" y="197.86" width="25.2" height="63.66"/><rect class="cls-6" x="243.28" y="18.8" width="335.35" height="19.27" rx="8.71"/><path class="cls-6" d="M534.84,261.51l-1.16,0-3.4,0-13.09.05-48.1.09-158.72.07H278.75v-.26c0-54.64.06-102.92.08-137.54,0-17.31.06-31.2.08-40.77,0-4.78,0-8.48,0-11,0-1.25,0-2.2,0-2.85s0-1,0-1,0,.33,0,1,0,1.6,0,2.85c0,2.51,0,6.21.05,11,0,9.57,0,23.46.08,40.77,0,34.62.05,82.9.08,137.54l-.25-.26h31.36l158.72.08,48.1.08,13.09,0,3.4,0C534.44,261.49,534.84,261.51,534.84,261.51Z"/><path class="cls-8" d="M446.7,174l-.41.39-1.22,1.13-4.72,4.29L422.9,195.54l-58,52-.19.17-.17-.18-2.19-2.24-28.52-29.21.33,0-39.64,33.73-11.4,9.65-3.05,2.55-.79.65-.27.21a3.2,3.2,0,0,1,.25-.24L280,262l3-2.61c2.64-2.28,6.47-5.59,11.31-9.75l39.52-33.88.17-.15.16.16L362.73,245l2.18,2.23h-.36l58.1-51.91,17.57-15.62,4.79-4.22,1.25-1.08A5,5,0,0,1,446.7,174Z"/><path class="cls-3" d="M459.38,195.35a6.21,6.21,0,0,0-6.38,1.58,4.71,4.71,0,0,0-.39,5.61,5.34,5.34,0,0,0-3.13,5,6.47,6.47,0,0,0,3,5.16,8.23,8.23,0,0,0,6,1,9.46,9.46,0,0,0,.87-18.32Z"/><path class="cls-3" d="M415.6,187.8a5.4,5.4,0,1,1-5.39-5.4A5.39,5.39,0,0,1,415.6,187.8Z"/><path class="cls-6" d="M291.52,83.08a38.36,38.36,0,0,1-6.26.26,38.28,38.28,0,0,1-6.25-.26,37,37,0,0,1,6.25-.26A37.06,37.06,0,0,1,291.52,83.08Z"/><path class="cls-6" d="M291.52,109.65a38.36,38.36,0,0,1-6.26.26,38.28,38.28,0,0,1-6.25-.26,37,37,0,0,1,6.25-.26A37.06,37.06,0,0,1,291.52,109.65Z"/><path class="cls-6" d="M291.52,136.22a37.06,37.06,0,0,1-6.26.26,37,37,0,0,1-6.25-.26,38.28,38.28,0,0,1,6.25-.26A38.36,38.36,0,0,1,291.52,136.22Z"/><path class="cls-6" d="M291.52,162.79a37.06,37.06,0,0,1-6.26.26,37,37,0,0,1-6.25-.26,38.28,38.28,0,0,1,6.25-.26A38.36,38.36,0,0,1,291.52,162.79Z"/><path class="cls-6" d="M291.52,189.37a38.36,38.36,0,0,1-6.26.26,38.28,38.28,0,0,1-6.25-.26,37,37,0,0,1,6.25-.26A37.06,37.06,0,0,1,291.52,189.37Z"/><path class="cls-6" d="M291.52,215.94a38.36,38.36,0,0,1-6.26.26,38.28,38.28,0,0,1-6.25-.26,38.28,38.28,0,0,1,6.25-.26A38.36,38.36,0,0,1,291.52,215.94Z"/><path class="cls-6" d="M571.4,229.21c-7.1.68-12.42,11.69-10.93,17.55.73,2.85,2.28,6.07.1,8.38s-7,2.47-9.09,4.81c0,0-2.61,3-2,6.64s.34,8.52-2.47,10l14.8,4.11c1.38-1.61,1.8-4,3.18-5.65-1.59,1.71-2.83,7.46,4.94,7.53l4.49-4.59c13.37,2.42,27.46,5.61,37.53-.86"/><path class="cls-6" d="M640.55,255.93c-1.15-2.66-2.89-5.07-3.75-7.84-1.85-6,.48-13.05-3-18.24-2.45-3.7-7.09-5.19-11.43-6.1s-8.45-1.34-11.88-4.15c-2.52-2.06-4.12-5.07-6.63-7.14-3.57-3-8.51-3.61-13.15-3.47s-9.61,1-13.67,3.52-7.24,6.73-7.57,11.47c-.16,2.32.34,4.69-.18,7-.57,2.49-2.29,4.54-3.26,6.9a12.23,12.23,0,0,0,4.38,14.3l36.32,39c7.06,1.95,13.91-7.34,18.72-12.86S643.45,262.66,640.55,255.93Z"/><path class="cls-9" d="M570.81,246.72c.46-9.65,6.68-21.57,16.3-20.7l30.1,7.15c2.92.26,4.64,2.46,4.62,5.39l-1.63,72.63.21.05s-6.49,20.51-26.42,14.61c-4-1.17-5.59.3-6.44-4.1h0c-.87-.27,0,0,0-.53-.33-5.43-.74-16.63-.74-16.63h0c-.16-5.84-.19-8.23-.19-8.18s-12.35-1.86-15.13-17.89C570.08,270.54,570.29,257.44,570.81,246.72Z"/><path class="cls-6" d="M595.53,258.9a2.06,2.06,0,0,0,2,2.05,2,2,0,0,0,2.1-1.88,2.07,2.07,0,0,0-2-2.06A2,2,0,0,0,595.53,258.9Z"/><path class="cls-6" d="M574.21,259.23a2.07,2.07,0,0,0,2,2,2,2,0,0,0,2.1-1.89,2.06,2.06,0,0,0-2-2.05A2,2,0,0,0,574.21,259.23Z"/><path class="cls-6" d="M573.23,253.89c.26.36,2-1,4.47-.89s4.09,1.62,4.38,1.29c.13-.15-.11-.78-.84-1.47a5.48,5.48,0,0,0-7.06-.32C573.4,253.13,573.1,253.73,573.23,253.89Z"/><path class="cls-6" d="M595.27,254.3c.31.32,2.06-1.21,4.63-1.33s4.53,1.15,4.79.8c.13-.16-.2-.74-1.05-1.34a6.23,6.23,0,0,0-3.85-1.06,6,6,0,0,0-3.67,1.48C595.36,253.54,595.11,254.16,595.27,254.3Z"/><path class="cls-6" d="M587.75,270.15a14.42,14.42,0,0,0-3.62-.6c-.56-.05-1.1-.15-1.2-.54a2.89,2.89,0,0,1,.35-1.68c.51-1.38,1.05-2.82,1.61-4.34,2.24-6.17,3.85-11.24,3.6-11.33s-2.26,4.84-4.5,11L582.45,267a3.24,3.24,0,0,0-.26,2.22,1.46,1.46,0,0,0,.94.82,4.56,4.56,0,0,0,1,.12A14.73,14.73,0,0,0,587.75,270.15Z"/><path class="cls-10" d="M586.6,296.41A40.87,40.87,0,0,0,608,290.36s-5.23,11.84-21.33,10.57Z"/><path class="cls-8" d="M588.76,275.48a4,4,0,0,1,3.56-1.54,3.64,3.64,0,0,1,2.54,1.32,2.29,2.29,0,0,1,.21,2.64,2.68,2.68,0,0,1-2.89.78,8.48,8.48,0,0,1-2.86-1.65,2.47,2.47,0,0,1-.64-.65.74.74,0,0,1,0-.83"/><path class="cls-6" d="M594.29,271.59c-.36,0-.33,2.39-2.36,4.13s-4.6,1.51-4.62,1.84c0,.16.58.46,1.66.48a6,6,0,0,0,3.86-1.41,5.22,5.22,0,0,0,1.83-3.46C594.74,272.16,594.46,271.57,594.29,271.59Z"/><path class="cls-6" d="M594.79,246.78c.23.6,2.44.28,5,.56s4.72.95,5.06.41c.15-.26-.22-.83-1.08-1.4a8.85,8.85,0,0,0-7.7-.73C595.17,246,594.69,246.5,594.79,246.78Z"/><path class="cls-6" d="M573.33,245.87c.45.5,2.19-.05,4.29-.1s3.88.28,4.29-.25c.17-.26-.12-.76-.9-1.23a6.61,6.61,0,0,0-3.5-.77,6.46,6.46,0,0,0-3.41,1.06C573.37,245.11,573.13,245.63,573.33,245.87Z"/><path class="cls-6" d="M649.79,252.17c-1.72-2.68,1-6-1.54-8.42-2.29-2.19-7.87-1.87-10-4.12-1.69-1.75-1.79-2.24-2-4-.22-2.19-1.89-11.35-15.5-12.24l-1.26,8.53c-.87-.33-1.76-.61-2.65-.86a147.54,147.54,0,0,0-34.61-5.52c-1.22,2.51.4,5.62,2.73,7.14s5.19,2,7.88,2.7,5.49,2,6.8,4.45c1.39,2.62.72,5.93,2,8.62,2.16,4.62,9,5.55,11.1,10.18,1.61,3.51-.13,7.56-.31,11.41a14.08,14.08,0,0,0,5.25,11.49c2.71,2.14,7.33,6,7.56,5.17l34.41-25.21C661.32,256.29,652.14,255.84,649.79,252.17Z"/><path class="cls-6" d="M623.78,285a11.77,11.77,0,0,1-3.18-.84,15.65,15.65,0,0,1-9.28-18.36c.28-1.22.65-2.45.85-3.72a8.32,8.32,0,0,0-.16-3.84,4.81,4.81,0,0,0-2.5-2.9,23,23,0,0,0-4-1.37,8.29,8.29,0,0,1-3.82-2.08,7.26,7.26,0,0,1-1.66-3.89c-.41-2.71-.14-5.43-1.23-7.62l-.2-.4-.26-.36a3.64,3.64,0,0,0-.55-.68,6,6,0,0,0-1.4-1,12.24,12.24,0,0,0-3.19-1.07,22.71,22.71,0,0,1-6-1.73,12.56,12.56,0,0,1-5.87-6.63,11.58,11.58,0,0,1-.61-2.37,4.5,4.5,0,0,1-.06-.85,15.46,15.46,0,0,0,.86,3.14,12.6,12.6,0,0,0,5.85,6.38,22.27,22.27,0,0,0,5.88,1.63,13.44,13.44,0,0,1,3.32,1.09,6.58,6.58,0,0,1,1.51,1.09,4.72,4.72,0,0,1,.61.73l.28.39.22.44c1.17,2.37.89,5.13,1.3,7.75a6.74,6.74,0,0,0,1.54,3.61,7.8,7.8,0,0,0,3.59,1.94,23.08,23.08,0,0,1,4.07,1.41,5.85,5.85,0,0,1,1.72,1.33,5.15,5.15,0,0,1,1,1.88,8.8,8.8,0,0,1,.17,4.07c-.22,1.31-.59,2.55-.88,3.75a15.38,15.38,0,0,0,8.9,18.06,17.42,17.42,0,0,0,2.28.8A6.1,6.1,0,0,1,623.78,285Z"/><path class="cls-6" d="M573.05,229.89a22.41,22.41,0,0,0-2.47-.25,11.61,11.61,0,0,0-6.39,1.75,11.43,11.43,0,0,0-5.16,8.09,20.85,20.85,0,0,0,.2,5.87c.15,1,.34,2.05.52,3.11a11.06,11.06,0,0,1,.12,3.31,3.93,3.93,0,0,1-1.73,2.88,6.56,6.56,0,0,1-3.14.81,11.82,11.82,0,0,0-2.93.46,7.34,7.34,0,0,0-4.82,5.94,14.63,14.63,0,0,0,.37,4.6,34.27,34.27,0,0,1,.65,3.84,9.82,9.82,0,0,1-.14,2.95,5.73,5.73,0,0,1-.65,1.74,3.63,3.63,0,0,1-.27.41c-.06.09-.1.13-.11.12a7.44,7.44,0,0,0,.83-2.31,10.06,10.06,0,0,0,.05-2.89,34.74,34.74,0,0,0-.72-3.79,14.52,14.52,0,0,1-.44-4.72,7.48,7.48,0,0,1,2.51-4.82,7.66,7.66,0,0,1,2.57-1.54A11.79,11.79,0,0,1,555,255a6.37,6.37,0,0,0,2.91-.73,3.43,3.43,0,0,0,1.48-2.53c.29-2.1-.37-4.21-.62-6.26a21,21,0,0,1-.18-6,11.73,11.73,0,0,1,5.45-8.34,11.44,11.44,0,0,1,6.59-1.65,10.48,10.48,0,0,1,1.84.27A3.16,3.16,0,0,1,573.05,229.89Z"/><path class="cls-7" d="M643.48,272.85l.07-.25a4.59,4.59,0,0,0,.2-.74,6.55,6.55,0,0,0-.1-2.92,7.21,7.21,0,0,0-2.46-3.84,6.06,6.06,0,0,0-2.6-1.2c-1-.21-2.11-.22-3.25-.52a4.29,4.29,0,0,1-1.62-.79,4.42,4.42,0,0,1-1.16-1.5,9.38,9.38,0,0,1-.75-3.87,21.67,21.67,0,0,0-.25-4.16,5.48,5.48,0,0,0-.83-2,5,5,0,0,0-1.63-1.43,13.89,13.89,0,0,0-4.44-1.23,14.07,14.07,0,0,1-4.72-1.37,5.55,5.55,0,0,1-1.88-1.73,7.86,7.86,0,0,1-1-2.38c-.45-1.67-.58-3.42-1-5.1a10,10,0,0,0-6.75-6.93,17.73,17.73,0,0,0-4.81-.45,11.19,11.19,0,0,1-2.38-.26,5,5,0,0,1-2.11-1.05,10.39,10.39,0,0,1-2.3-3.84,10.14,10.14,0,0,0-2.33-3.4,10.57,10.57,0,0,0-6.72-2.84,9.57,9.57,0,0,0-5.8,1.71,11,11,0,0,0-3.16,3.38,10.12,10.12,0,0,0-1.11,2.73c-.09.32-.11.58-.15.75l-.06.26a6.35,6.35,0,0,1,.15-1,9.66,9.66,0,0,1,1.06-2.78,11,11,0,0,1,3.16-3.47,9.78,9.78,0,0,1,5.92-1.79,10.78,10.78,0,0,1,6.89,2.88,10.34,10.34,0,0,1,2.41,3.47,10.07,10.07,0,0,0,2.23,3.73,6.57,6.57,0,0,0,4.31,1.24,17.07,17.07,0,0,1,4.89.45,10.3,10.3,0,0,1,7,7.14c.45,1.72.58,3.47,1,5.11a7.6,7.6,0,0,0,1,2.28,5.14,5.14,0,0,0,1.77,1.64c2.88,1.58,6.36,1.1,9.14,2.61a5.31,5.31,0,0,1,1.73,1.53,5.67,5.67,0,0,1,.87,2.06,21.73,21.73,0,0,1,.24,4.21,9.2,9.2,0,0,0,.71,3.78,3.88,3.88,0,0,0,1.08,1.41,4.07,4.07,0,0,0,1.53.76c1.09.3,2.2.32,3.23.54A6.3,6.3,0,0,1,641.3,265a7.25,7.25,0,0,1,2.47,4,6.26,6.26,0,0,1,0,3,3.65,3.65,0,0,1-.23.74C643.52,272.77,643.49,272.86,643.48,272.85Z"/><path class="cls-8" d="M596.69,394.61H674.9L668,377.49s-24.51-66.91-29.58-72.33c-6.65-7.1-17.63-12.8-17.63-12.8L587,309.47s-9.82,27.87-11.13,38.85c-.3,2.57-.48,5.22-.53,7.88a33.27,33.27,0,0,0,20.76,31.31h0Z"/><path class="cls-9" d="M589.41,287.28l-3.74,4.11s.58-7.94-.37-8.89-2.22,0-2.22,0a2.91,2.91,0,0,0-2.06-1.91,5.4,5.4,0,0,0-3.34.8s-3.17-2-4.91-.85a7.72,7.72,0,0,0-2.38,2.27,7.76,7.76,0,0,0-3.18,1.59,5.85,5.85,0,0,0-1.27,1.54s-1.9.68-1.9,1.95-2.06,14-2.54,18.73-1.58,12.12-1.58,12.12l19.15-.34s.27-9.9.62-11.09a16.29,16.29,0,0,0,5.83-4.6c2.7-3.33,4.73-8.41,6.18-10.85.87-1.47,3.36-5.64,3.37-6,0-1.14-1.28-1.49-2.38-1.22S590.34,286.42,589.41,287.28Z"/><path class="cls-10" d="M589.41,287.28a4.4,4.4,0,0,1,.42-.47c.29-.3.69-.77,1.29-1.31a4.7,4.7,0,0,1,1.12-.78,2.81,2.81,0,0,1,1.63-.23,1.8,1.8,0,0,1,.87.37,1.26,1.26,0,0,1,.44.94,3.19,3.19,0,0,1-.41,1l-.52,1c-.73,1.31-1.57,2.75-2.48,4.3s-1.68,3.35-2.65,5.2a32.64,32.64,0,0,1-3.52,5.67,16.69,16.69,0,0,1-5.82,4.59l.13-.15c-.26,1.63-.3,3.49-.4,5.32s-.13,3.77-.19,5.72v.23h-.23l-19.16.35h-.3l0-.3c.14-1.1.3-2.28.45-3.47q.54-4.1,1.06-8.05c.29-2.65.65-5.24,1-7.77l1.08-7.4c.18-1.2.35-2.39.48-3.55,0-.3,0-.53.09-.9a1.89,1.89,0,0,1,.49-.86,4,4,0,0,1,1.53-1l-.14.13a7.85,7.85,0,0,1,2-2.16,8.67,8.67,0,0,1,2.6-1.09l-.15.1a7.75,7.75,0,0,1,1.58-1.69,9.43,9.43,0,0,1,.9-.66,2.66,2.66,0,0,1,1.11-.37,7.29,7.29,0,0,1,4,1.24h-.21a5.35,5.35,0,0,1,3.31-.83,3,3,0,0,1,2.35,2.06l-.26-.09a2.11,2.11,0,0,1,1.78-.38,1.42,1.42,0,0,1,.75.54,1.36,1.36,0,0,1,.18.42,3.48,3.48,0,0,1,.1.41,17.16,17.16,0,0,1,.19,3c0,1.91-.1,3.58-.21,5l-.18-.07,2.82-3,.74-.77c.17-.18.25-.26.26-.25a2.16,2.16,0,0,1-.22.28l-.7.81c-.65.73-1.57,1.76-2.74,3.09l-.2.22,0-.3c.08-1.41.15-3.08.14-5a18.45,18.45,0,0,0-.23-3,2.06,2.06,0,0,0-.23-.7,1.09,1.09,0,0,0-.58-.42,1.86,1.86,0,0,0-1.49.34l-.19.14-.07-.22a2.65,2.65,0,0,0-2.08-1.8,5,5,0,0,0-3.05.8l-.1.06-.11-.06a6.93,6.93,0,0,0-3.76-1.15,2.27,2.27,0,0,0-.92.3c-.29.2-.58.41-.86.64a7,7,0,0,0-1.46,1.58l-.06.09-.08,0a8.63,8.63,0,0,0-2.45,1,5.62,5.62,0,0,0-1,.9,5.91,5.91,0,0,0-.83,1.06l-.06.1-.08,0a3.75,3.75,0,0,0-1.35.86,1.38,1.38,0,0,0-.36.64c0,.2,0,.57-.08.85-.13,1.18-.3,2.36-.47,3.57q-.53,3.6-1.07,7.4c-.36,2.53-.72,5.12-1,7.76s-.69,5.33-1,8.06c-.16,1.19-.31,2.37-.45,3.48l-.27-.3,19.16-.32-.24.23c.07-1.95.14-3.86.21-5.72a47.93,47.93,0,0,1,.44-5.42v-.1l.12,0a16.27,16.27,0,0,0,5.67-4.43,32.26,32.26,0,0,0,3.51-5.58c1-1.84,1.79-3.61,2.7-5.19s1.79-3,2.53-4.27l.53-.95a3.68,3.68,0,0,0,.4-.88,1.2,1.2,0,0,0-1.12-1.11,2.72,2.72,0,0,0-1.52.18,5.13,5.13,0,0,0-1.1.73C590,286.68,589.44,287.31,589.41,287.28Z"/><g class="cls-11"><path d="M590.14,371l-6.87,6.17c9.7.33,17.92-4.48,25.75-10.22s22.3-18.65,24.9-28C620.85,346.26,601.46,361.19,590.14,371Z"/></g><path class="cls-9" d="M490.57,350c-.18,0-13.34-1.48-16.74-1.8a2.25,2.25,0,0,0-2.35,1.46c-.22.69-.09,1.43,1.13,1.86,3.39,1.22,15.16,2.69,15.16,2.69s-5.26-.38-5.46,1.69,2.41,3.46,2.41,3.46-1.75.73-1.36,2.25,2.86,2.61,2.86,2.61l1.32.55s-2.18,0-2.22,1.2a2.94,2.94,0,0,0,2.36,2.57c1.17.26,6.55,1.38,6.55,1.38l3.94-9.43-3-9Z"/><path class="cls-9" d="M530.27,355.47s-17.3,1.73-18.63,1.09-15-7.77-17.07-8.34-12.08.23-12.08.23-2.15,2.3,2.62,3.76c5,1.51,7.77.93,7.14,1.18l-1.19,16s8.47,3.35,12.34,3.08l5.4-1.55,24.57,4.34Z"/><path class="cls-9" d="M487.3,354.1a21.7,21.7,0,0,0,2,.89,4.28,4.28,0,0,1,1.79,1.28,2,2,0,0,1,.25,2.09,2.79,2.79,0,0,1-2.31,1.08,11.75,11.75,0,0,1-3.4-.24"/><path class="cls-10" d="M485.67,359.2c0-.07.72.05,1.86.07a11.77,11.77,0,0,0,2-.12,2,2,0,0,0,1.75-1.15,2,2,0,0,0-.66-2,6.27,6.27,0,0,0-1.65-1,4.57,4.57,0,0,1-1.64-.92,15.1,15.1,0,0,1,1.78.58,5.62,5.62,0,0,1,1.84,1,2.42,2.42,0,0,1,.82,2.49,1.94,1.94,0,0,1-.94,1.08,3.46,3.46,0,0,1-1.23.37,9.53,9.53,0,0,1-2.06,0A4.17,4.17,0,0,1,485.67,359.2Z"/><path class="cls-9" d="M487.93,364.82a26.72,26.72,0,0,0,8.18-.36c.83-.17,1.79-.49,2.05-1.29a1.71,1.71,0,0,0-.67-1.78,4.54,4.54,0,0,0-1.87-.72,46.49,46.49,0,0,0-6.24-.66"/><path class="cls-10" d="M489.38,360a16.29,16.29,0,0,1,3.1,0,28.66,28.66,0,0,1,3.34.42,4.18,4.18,0,0,1,1.93.8,2.23,2.23,0,0,1,.65,1,1.59,1.59,0,0,1-.09,1.24,2.82,2.82,0,0,1-1.95,1.18c-.69.14-1.34.24-2,.32a24.45,24.45,0,0,1-3.37.17,18.24,18.24,0,0,1-2.26-.17,2.68,2.68,0,0,1-.82-.17c0-.09,1.19,0,3.08,0a29.31,29.31,0,0,0,3.31-.28c.62-.09,1.27-.2,1.93-.34a2.32,2.32,0,0,0,1.59-.92,1.36,1.36,0,0,0-.43-1.6,3.76,3.76,0,0,0-1.68-.71c-1.22-.26-2.34-.41-3.29-.53A21.61,21.61,0,0,1,489.38,360Z"/><path class="cls-9" d="M491.22,365.23a7.39,7.39,0,0,1,1.69-.16,2.51,2.51,0,0,1,1.56.61,1.51,1.51,0,0,1,.44,1.56,2.12,2.12,0,0,1-1.41,1.12,13.82,13.82,0,0,1-5,.45"/><path class="cls-10" d="M488.53,368.81a6.46,6.46,0,0,1,1.75-.16,14.08,14.08,0,0,0,1.87-.2,5.49,5.49,0,0,0,2.07-.74,1.12,1.12,0,0,0,.5-.81,1.34,1.34,0,0,0-.27-.89,2.22,2.22,0,0,0-1.5-.75c-1-.09-1.73.07-1.74,0a3.51,3.51,0,0,1,1.77-.34,2.49,2.49,0,0,1,1.85.83,1.8,1.8,0,0,1,.4,1.22,1.62,1.62,0,0,1-.7,1.19,5.5,5.5,0,0,1-2.3.79,11.34,11.34,0,0,1-1.94.1A5.53,5.53,0,0,1,488.53,368.81Z"/><path class="cls-10" d="M482.25,348.79c.06,0-.05.39,0,1a2.23,2.23,0,0,0,.45,1.09,3.07,3.07,0,0,0,1.33.83,18.06,18.06,0,0,0,2,.49c.73.17,1.46.36,2.28.47,1.63.23,3.46.39,5.39.53h.2l0,.22c.07.39.11.81.21,1.23a14.06,14.06,0,0,0,2.42,5.19,18.83,18.83,0,0,0,3.29,3.4c2.13,1.7,3.7,2.38,3.65,2.47a4.74,4.74,0,0,1-1.11-.45,19.59,19.59,0,0,1-2.76-1.72,17.78,17.78,0,0,1-3.45-3.41,14,14,0,0,1-2.55-5.37c-.11-.43-.14-.88-.22-1.29l.25.23c-1.95-.13-3.78-.31-5.43-.58a19.24,19.24,0,0,1-2.31-.53,14.51,14.51,0,0,1-2-.56,3.17,3.17,0,0,1-1.43-1,2.32,2.32,0,0,1-.42-1.24,3.12,3.12,0,0,1,.09-.81A.91.91,0,0,1,482.25,348.79Z"/><polygon class="cls-8" points="563.43 350.21 522.15 354.79 523.98 378.68 573.87 381.5 563.43 350.21"/><g class="cls-11"><path d="M571.49,374.17q-1.69-6.45-3.4-12.91a17.6,17.6,0,0,0-2.38-5.94c-1.26-1.74-3.83-5.15-6-4.8l-7.71,1c.27,4,.74,8.26,1.12,12.31a21.28,21.28,0,0,0,4.12,11.33,12.94,12.94,0,0,0,10.57,5.14,4.44,4.44,0,0,0,3.55-1.64C572.24,377.33,571.88,375.65,571.49,374.17Z"/></g><path class="cls-8" d="M636.05,335.56c-3.57,9.54-43.33,36.67-43.33,36.67s-12.39,7.88-19.58,8c-9.29.19-16.94-7.75-17-15.65-.06-10.15-.45-49.37-.45-49.37l25.76-1.18v28.63s19.66-19.22,24.3-24.5c9-10.22,18.11-19.52,25.71-16.28"/><path class="cls-6" d="M631.47,301.91l-1.17-.34a8.22,8.22,0,0,0-1.47-.22,4.3,4.3,0,0,0-1,0,7.12,7.12,0,0,0-1.09.1c-3.1.45-7.14,2.89-11.39,6.84-2.14,2-4.37,4.29-6.73,6.89L605,319.27q-1.93,2.1-4.07,4.27c-5.68,5.82-12.19,12.28-19.33,19.31l-.38.37v-.53c0-8.77,0-18.44,0-28.63l.26.24-25.76,1.19.25-.26c0,5.16.1,10.6.15,16.13.08,9.47.17,18.72.24,27.65,0,1.11,0,2.23,0,3.33s0,2.22.09,3.28a14.33,14.33,0,0,0,2,6,17.32,17.32,0,0,0,9.5,7.59,15.7,15.7,0,0,0,5.9.72,23.33,23.33,0,0,0,5.68-1.37,70,70,0,0,0,10.17-4.82,45.87,45.87,0,0,0,4.54-2.85l4.24-3q4.15-2.94,7.9-5.7a253.25,253.25,0,0,0,22.85-18.44,47.2,47.2,0,0,0,5.39-5.87,10.9,10.9,0,0,0,.67-1,5.26,5.26,0,0,0,.43-.75c.21-.42.33-.63.33-.63A9.41,9.41,0,0,1,634.7,338a43.91,43.91,0,0,1-5.33,5.95,242.14,242.14,0,0,1-22.77,18.6q-3.74,2.77-7.88,5.73-2.09,1.46-4.24,3a47.54,47.54,0,0,1-4.56,2.87A69.61,69.61,0,0,1,579.68,379a23.69,23.69,0,0,1-5.79,1.41,16.19,16.19,0,0,1-6.08-.73,17.73,17.73,0,0,1-9.78-7.8,14.73,14.73,0,0,1-2.06-6.23c-.11-1.13-.07-2.22-.09-3.33s0-2.21,0-3.33c-.08-8.93-.16-18.18-.25-27.65-.05-5.52-.1-11-.15-16.12V315h.25l25.76-1.17h.26v.26c0,10.19,0,19.86,0,28.63l-.38-.16c7.15-7,13.69-13.45,19.38-19.24,1.42-1.45,2.79-2.87,4.08-4.25l3.67-4.07c2.37-2.59,4.63-4.91,6.79-6.87,4.29-3.94,8.39-6.37,11.54-6.78a6.15,6.15,0,0,1,1.11-.09,5.09,5.09,0,0,1,1,0,8.73,8.73,0,0,1,1.48.26C631.08,301.76,631.47,301.91,631.47,301.91Z"/><path class="cls-8" d="M562.17,362.93s.07-.32.3-.84.57-1.28,1-2.19a63.09,63.09,0,0,1,4.08-6.86,61.26,61.26,0,0,1,4.91-6.3c.68-.76,1.25-1.36,1.66-1.75s.64-.61.67-.59a27.57,27.57,0,0,1-2.05,2.58c-1.29,1.58-3,3.79-4.76,6.35s-3.19,5-4.19,6.74A28,28,0,0,1,562.17,362.93Z"/><path class="cls-6" d="M700.49,303.19h0a6.94,6.94,0,0,0-8.27,5.25l-18.93,86.17,13.85,0,18.6-83.18A6.93,6.93,0,0,0,700.49,303.19Z"/><path class="cls-10" d="M585.72,291.15a7.9,7.9,0,0,1,0,2.84,7.81,7.81,0,0,1-.49,2.8,8.18,8.18,0,0,1,0-2.84A8.08,8.08,0,0,1,585.72,291.15Z"/><path class="cls-6" d="M581.37,359.92a12.71,12.71,0,0,1-.18-2.59c-.05-1.6-.08-3.8-.08-6.23s0-4.62.08-6.21a12.55,12.55,0,0,1,.18-2.58,12.55,12.55,0,0,1,.18,2.58c.05,1.6.08,3.81.08,6.24s0,4.64-.08,6.23A12.13,12.13,0,0,1,581.37,359.92Z"/><path class="cls-9" d="M339.17,233.64l4.47-2.73s5.85-5.21,7.44-6.35,7.74-3.9,8.61-3.83,9.31-.47,11.32-1.4,4.18-2.16,4.18-2.16a3.07,3.07,0,0,1,.21,3.62c-1.2,2.08-7.38,6-7.38,6l2.32,15.11s-5.75,4.53-9.33,4.83-7-.41-8.05-.09-3.53,1.2-3.53,1.2Z"/><polygon class="cls-6" points="355.16 234.63 394.39 208.61 396.62 211.89 357.75 237.8 355.16 234.63"/><path class="cls-9" d="M377.2,226.94s3,1.22,1.41,4-3.64,1.88-3.64,1.88.74,3-2.65,4.56a5.08,5.08,0,0,1-2,4.56l-1.9,1-1.22-2.34S360,239.88,359,237l0-1.48a2.14,2.14,0,0,1-1.17-2.1c.23-1.39.14-1.42,2.84-2.35s8.43-.31,8.43-.31-3.07-1.17-3-2.76,1.28-2.6,4.58-2.37A32.7,32.7,0,0,1,377.2,226.94Z"/><path class="cls-10" d="M377.2,226.94a11.44,11.44,0,0,1-1.19-.26c-.77-.18-1.9-.44-3.36-.65a23.45,23.45,0,0,0-2.42-.23,6.69,6.69,0,0,0-2.77.36,2.07,2.07,0,0,0-1.06,1,1.75,1.75,0,0,0-.08,1.45,3.33,3.33,0,0,0,1.16,1.17,8.16,8.16,0,0,0,1.61.83l1.37.56L369,231a31.89,31.89,0,0,0-7,0,9.17,9.17,0,0,0-1.81.49,7.06,7.06,0,0,0-1.71.75,1,1,0,0,0-.34.73l-.09.49a2.08,2.08,0,0,0,0,.43,2,2,0,0,0,1,1.39l.14.07v.15c0,.47,0,1,.05,1.48l0-.08.18.33a4.11,4.11,0,0,0,1.62,1.37,11.5,11.5,0,0,0,2,.82,24.51,24.51,0,0,0,4.21.84h.14l.06.12c.41.8.82,1.58,1.21,2.35l-.33-.1,1.91-1h0a4.8,4.8,0,0,0,1.91-4.33l0-.16.14-.07a4.69,4.69,0,0,0,2.14-1.84,3.72,3.72,0,0,0,.43-2.47l-.06-.32.3.11a2.4,2.4,0,0,0,1.86-.17,4,4,0,0,0,1.3-1.17,4.53,4.53,0,0,0,.69-1.37,2.18,2.18,0,0,0,0-1.25,3,3,0,0,0-1.12-1.37c-.34-.24-.54-.33-.53-.35a1.83,1.83,0,0,1,.58.27,2.91,2.91,0,0,1,1.25,1.38,2.42,2.42,0,0,1,.1,1.38,5.05,5.05,0,0,1-.7,1.47,4,4,0,0,1-1.38,1.29,2.69,2.69,0,0,1-2.15.22l.25-.21a4.08,4.08,0,0,1-.44,2.75,5,5,0,0,1-2.3,2l.13-.22a5.81,5.81,0,0,1-.36,2.59,4.89,4.89,0,0,1-1.7,2.19h0l-1.9,1-.22.11-.11-.21c-.4-.77-.81-1.55-1.22-2.35l.2.14a24.8,24.8,0,0,1-4.32-.85,12,12,0,0,1-2.13-.85,4.69,4.69,0,0,1-1.82-1.56c-.07-.14-.15-.29-.21-.42l0,0V237c0-.51,0-1-.05-1.48l.14.22a2.44,2.44,0,0,1-1.32-1.79,2.72,2.72,0,0,1,0-.57l.09-.51a1.58,1.58,0,0,1,.52-1A6.84,6.84,0,0,1,360,231a9.67,9.67,0,0,1,1.9-.5,31.16,31.16,0,0,1,7.17,0l-.1.43a9.35,9.35,0,0,1-1.69-.89,3.79,3.79,0,0,1-1.29-1.35,2.29,2.29,0,0,1,1.37-2.93,6.89,6.89,0,0,1,2.92-.34,22.63,22.63,0,0,1,2.45.29,30.48,30.48,0,0,1,3.36.77c.38.11.67.21.86.28Z"/><path class="cls-10" d="M371.49,237.41a23.93,23.93,0,0,0-12.64-1.92,5.27,5.27,0,0,1,1.87-.46,16.5,16.5,0,0,1,9.12,1.38A5.42,5.42,0,0,1,371.49,237.41Z"/><path class="cls-10" d="M374.86,233c-.08.11-1.41-.77-3.29-1.27s-3.46-.65-3.45-.8a6.86,6.86,0,0,1,3.6.3A5.67,5.67,0,0,1,374.86,233Z"/><path class="cls-6" d="M203.74,81.08a6.76,6.76,0,0,1,6.93-3.57,9.22,9.22,0,0,1,11.34,0,8.19,8.19,0,0,1,12.5,6.44,6.84,6.84,0,0,1,6.21,11.41,6.58,6.58,0,0,1-2.5,12.85L205.13,88.75A6.73,6.73,0,0,1,203.74,81.08Z"/><path class="cls-9" d="M239.19,109.1A27.91,27.91,0,0,0,210.84,84l-1.44,0c-15.57,1.23-23.22,15.14-21.56,30.66l3.33,51.85,2.27,6.48,26.81,33.6L227,176.36l.13-14.05s14.93-2.64,14.81-17.62C241.89,137.45,240.56,122.56,239.19,109.1Z"/><path class="cls-10" d="M227.12,162.33a36.23,36.23,0,0,1-19.6-5.39s4.81,10.72,19.59,9.1Z"/><path class="cls-6" d="M235.14,123.06a2.14,2.14,0,0,1-2,2.2,2,2,0,0,1-2.25-1.88,2.14,2.14,0,0,1,2-2.2A2,2,0,0,1,235.14,123.06Z"/><path class="cls-6" d="M236.3,117.25c-.25.29-1.9-.88-4.2-.83s-4,1.24-4.22,1,.13-.64.86-1.19a5.88,5.88,0,0,1,3.37-1.11,5.6,5.6,0,0,1,3.35,1C236.18,116.62,236.43,117.12,236.3,117.25Z"/><path class="cls-6" d="M215.43,124.45a2.14,2.14,0,0,1-2,2.2,2,2,0,0,1-2.24-1.88,2.13,2.13,0,0,1,2-2.2A2,2,0,0,1,215.43,124.45Z"/><path class="cls-6" d="M214.28,117.38c-.26.29-1.91-.88-4.21-.82s-4,1.24-4.22,1c-.12-.12.13-.63.86-1.18a5.9,5.9,0,0,1,3.37-1.12,5.66,5.66,0,0,1,3.36,1C214.15,116.76,214.4,117.26,214.28,117.38Z"/><path class="cls-6" d="M222.21,134.29a15.09,15.09,0,0,1,3.72-.75c.59-.08,1.14-.21,1.24-.61a3,3,0,0,0-.43-1.73l-1.83-4.44c-2.55-6.33-4.4-11.53-4.15-11.63s2.53,4.94,5.07,11.27c.62,1.56,1.2,3,1.76,4.46a3.37,3.37,0,0,1,.35,2.31,1.44,1.44,0,0,1-.95.87,3.5,3.5,0,0,1-1,.16A14.89,14.89,0,0,1,222.21,134.29Z"/><path class="cls-6" d="M215.47,136c.37,0,.43,2.47,2.6,4.2s4.83,1.4,4.86,1.75c0,.15-.58.49-1.71.55a6.22,6.22,0,0,1-4.05-1.32,5.41,5.41,0,0,1-2-3.52C215,136.63,215.3,136,215.47,136Z"/><path class="cls-6" d="M214.17,110.81c-.26.6-2.25.11-4.66.2s-4.41.63-4.67,0c-.11-.28.28-.84,1.12-1.36a7.14,7.14,0,0,1,3.55-1,6.87,6.87,0,0,1,3.55.84C213.9,110,214.29,110.52,214.17,110.81Z"/><path class="cls-6" d="M235.65,111c-.35.56-2,.18-3.88.35s-3.47.71-3.89.21c-.19-.25,0-.8.66-1.36A5.42,5.42,0,0,1,231.6,109a5.36,5.36,0,0,1,3.2.73C235.53,110.16,235.8,110.68,235.65,111Z"/><path class="cls-6" d="M237.61,102.26s-4.15-9.3-8.71-11.4c-5.53-2.53-7.77,3.53-13,2.18s-10.52-3.79-15.77.35c-5.75,4.54-3,7.58-3.17,14.23-.91,27-5.68,34.7-7.34,22-.18-1.39-4.06-2.42-4.75-8.28-.9-7.6-1.38-16.85.2-22.29,1.34-4.58,3.88-7.79,8.46-11.35,7.24-5.63,17.34-6,24.22-5.41S238,90.5,237.61,102.26Z"/><path class="cls-9" d="M190.55,129.23a4.06,4.06,0,0,0-4.47-3.83c-2.79.32-5.86,2-5.56,7.74.54,10.24,10.7,7.59,10.7,7.29S190.81,133.51,190.55,129.23Z"/><path class="cls-10" d="M188.79,136.7s-.17.13-.46.29a1.75,1.75,0,0,1-1.33.09c-1.11-.34-2.11-2-2.25-3.85a5.8,5.8,0,0,1,.36-2.57,2.06,2.06,0,0,1,1.27-1.44.9.9,0,0,1,1.08.43c.15.28.1.49.15.5s.21-.18.11-.6a1.18,1.18,0,0,0-.44-.62,1.33,1.33,0,0,0-1-.21,2.53,2.53,0,0,0-1.78,1.69,6.14,6.14,0,0,0-.47,2.88c.18,2.06,1.34,3.93,2.84,4.28a1.92,1.92,0,0,0,1.61-.35C188.79,137,188.83,136.72,188.79,136.7Z"/><path class="cls-6" d="M190.34,109.38a9.67,9.67,0,0,0,4.38,1.92c1.61.12,3.42-.83,3.66-2.43.1-.71-.09-1.54.37-2.1s1.58-.48,2.44-.41a6.54,6.54,0,0,0,6.69-4.82c.78,1.12,2.55,1,3.69.27a14.91,14.91,0,0,0,2.72-3,4.2,4.2,0,0,1,3.48-1.83,10.44,10.44,0,0,0,2.24.44c1.34-.15,2-1.74,2.14-3.07s.3-2.9,1.43-3.65,2.42-.34,3.66-.18,2.83-.17,3.12-1.38a2.42,2.42,0,0,0-.49-1.85A6.64,6.64,0,0,0,222,84.9a9,9,0,0,0-16.56-1.4,9.12,9.12,0,0,0-14.51,3.62,6.62,6.62,0,0,0-7.26,9.78c-1.82,1.09-3.36,2.95-3.35,5.07s2.11,4.19,4.15,3.59a3.66,3.66,0,0,0,6.41,3.52"/><path class="cls-7" d="M183.71,105.55a2.45,2.45,0,0,0,.68,2,3.31,3.31,0,0,0,2.07,1.18,3.58,3.58,0,0,0,2.9-.91l-.43-.06a10.17,10.17,0,0,0,2.1,2.51,5.9,5.9,0,0,0,1.89,1.13,4.06,4.06,0,0,0,2.06.15,4,4,0,0,0,2.92-1.76,6,6,0,0,0,.79-2.15,2.2,2.2,0,0,0,.06-.83c-.05,0-.13.28-.29.78a6.76,6.76,0,0,1-.9,2,4.18,4.18,0,0,1-6.15.28,10.42,10.42,0,0,1-2-2.36l-.19-.3-.25.25a3,3,0,0,1-4.32-.1A5,5,0,0,1,183.71,105.55Z"/><path class="cls-7" d="M202.57,81.76s.27.07.73.26a3.46,3.46,0,0,1,1.62,1.31l.13.2.14-.2a12.82,12.82,0,0,1,4.87-4.11,9.78,9.78,0,0,1,4-1,8.49,8.49,0,0,1,7,3.54,6.76,6.76,0,0,1,1.19,3.06l0,.33.31-.09a5.73,5.73,0,0,1,4.27.43A5.6,5.6,0,0,1,229.25,88a7.87,7.87,0,0,1,.7,3,2.08,2.08,0,0,0,.1-.84,5.69,5.69,0,0,0-.5-2.32,5.84,5.84,0,0,0-2.46-2.7,6.16,6.16,0,0,0-4.64-.56l.34.24a7.35,7.35,0,0,0-1.25-3.34,8.9,8.9,0,0,0-2.81-2.57,8.64,8.64,0,0,0-4.67-1.21,10.24,10.24,0,0,0-4.23,1.07,12.46,12.46,0,0,0-4.91,4.4h.27a3.46,3.46,0,0,0-1.83-1.29A1.55,1.55,0,0,0,202.57,81.76Z"/><polygon class="cls-6" points="169.56 394.52 169.92 340.68 177.5 321.03 177.51 315.73 263.09 314.3 263.09 320.47 272.91 344.89 273.44 394.52 224 394.52 219.87 372.11 218.92 394.52 169.56 394.52"/><path class="cls-4" d="M191,162.37l17.86,14,11.31,14.36,4.14-14.89,3-11.68,4.87,4.83,12.33,26.25,13.87,126.91s-24.19,7.09-36.72,7.94-32.5-2.57-32.5-2.57V260.74L182,194.61l8.58-25.34Z"/><path class="cls-6" d="M227,329.24a3.28,3.28,0,0,1,0-.36c0-.26,0-.61,0-1,0-.95-.09-2.3-.15-4-.12-3.53-.29-8.57-.5-14.79-.43-12.49-1.12-29.74-2.1-48.77s-2.08-36.27-2.94-48.74c-.44-6.21-.79-11.24-1-14.76-.12-1.72-.21-3.06-.27-4,0-.44,0-.78-.06-1.05a1.55,1.55,0,0,1,0-.35,1.41,1.41,0,0,1,.05.35l.11,1c.09.95.21,2.29.37,4,.31,3.48.72,8.52,1.19,14.75,1,12.46,2.11,29.68,3.1,48.73s1.61,36.29,2,48.79c.17,6.24.28,11.3.33,14.79,0,1.72,0,3.07.05,4v1.05A1.41,1.41,0,0,1,227,329.24Z"/><path class="cls-8" d="M188.17,169,184,174.66l-33.83,17.8L169,249.87l5.07,32.21-19,76.49s23.07,7.94,25.1,5.4c.86-1.06,3.28-6.57,5.8-12.59a134.88,134.88,0,0,0,9.68-37.56c1.42-13,2.71-29.63,1.76-40.87-1.77-21-4.56-55.78-4.81-64.91s-1.87-43.59-1.87-43.59Z"/><path class="cls-8" d="M229.61,165.58l11.2,6.54L277.05,184l-2.9,25.63L272.49,276l11.4,79.62s-12.17,4.31-17,2.53-11.41-12.68-11.67-19.27-9.63-70.49-9.63-70.49l-9.13-85.95Z"/><path class="cls-6" d="M241.5,172.08a4.05,4.05,0,0,1,.45.51l1.26,1.54c1.1,1.39,2.68,3.36,4.65,5.83l.1.12-.13.1-3.94,3-.06-.32,4.63,1.46.14.05v.15c-.09,8.25-.2,18.63-.32,29.88-.2,13.74-.38,26.17-.51,35.22-.09,4.47-.16,8.11-.22,10.67,0,1.23-.06,2.2-.08,2.9,0,.31,0,.55,0,.76a.87.87,0,0,1,0,.25s0-.09,0-.26,0-.44,0-.75c0-.71,0-1.67,0-2.9,0-2.57,0-6.2.05-10.68.09-9,.22-21.48.36-35.22.16-11.25.31-21.63.43-29.87l.14.2-4.61-1.51-.35-.11.29-.22,4-2.94,0,.22-4.54-5.92-1.18-1.58A3.64,3.64,0,0,1,241.5,172.08Z"/><path class="cls-6" d="M196.41,262a.72.72,0,0,1-.1-.25l-.24-.74c-.23-.68-.53-1.63-.93-2.84-.8-2.46-2-6-3.55-10.39-.78-2.19-1.64-4.58-2.55-7.15a82.8,82.8,0,0,1-2.6-8.33,186.77,186.77,0,0,1-3.64-19.65c-1.25-9.14-2.06-17.75-2.56-25.17v-.1l.07-.08,4-3.84,0,.32-3.78-2.88-.15-.11.11-.15,6.82-9.25,1.88-2.5.5-.64a.9.9,0,0,1,.18-.21,1.3,1.3,0,0,1-.14.24l-.45.67-1.8,2.56-6.69,9.35,0-.26,3.81,2.84.19.15-.17.17c-1.26,1.22-2.57,2.51-4,3.87l.06-.18c.54,7.4,1.38,16,2.63,25.13a196.11,196.11,0,0,0,3.58,19.6q1.14,4.46,2.54,8.31c.9,2.57,1.74,5,2.5,7.17,1.5,4.39,2.65,8,3.4,10.45.37,1.24.65,2.21.83,2.88.08.3.14.55.19.75A2.46,2.46,0,0,1,196.41,262Z"/><polygon class="cls-12" points="167.36 309.4 187.03 317.12 188.35 312.74 195.03 318.85 196.23 308.22 190.06 296.72 168.8 303.61 167.36 309.4"/><path class="cls-9" d="M234.21,309.25l-8-4.85-7-6.35a17.81,17.81,0,0,0,5.46,3c3.28,1.09,5.14-1.93,5.14-1.93s-2.88-1.81-3.87-2.36-10.94-8-13.46-8.53-19.17-3.94-19.17-3.94l-.26.86-8.23,17.54,7.31,2a49.34,49.34,0,0,1,3.73,6.14c1.64,3.29,9.62,6.53,12.69,8.15s6.55-1.21,6.55-1.21c3.53.8,4.4-3,4.4-3,4.06-.55,4.4-5,4.4-5s7.37,2.85,9.64,3.25a1.38,1.38,0,0,0,1.67-.88A2.34,2.34,0,0,0,234.21,309.25Z"/><path class="cls-10" d="M223.9,309.75a20,20,0,0,1-4.65-2.09,14.66,14.66,0,0,1-4.15-3c.09-.12,1.94,1.18,4.4,2.52A33.12,33.12,0,0,1,223.9,309.75Z"/><path class="cls-10" d="M211,309.1a20.47,20.47,0,0,1,4.59,2.72,44.38,44.38,0,0,1,4.32,3.11,20.27,20.27,0,0,1-4.62-2.68A40.35,40.35,0,0,1,211,309.1Z"/><path class="cls-10" d="M207.79,312.48c.09-.09,1.63,1.19,3.7,2.58a20.52,20.52,0,0,1,3.61,2.73,19,19,0,0,1-3.91-2.3A11.7,11.7,0,0,1,207.79,312.48Z"/><path class="cls-10" d="M209.84,291.05a4.49,4.49,0,0,1,1.77.39,13.4,13.4,0,0,1,3.84,2.14,17.46,17.46,0,0,1,3.08,3.12,5.56,5.56,0,0,1,1,1.53c-.14.12-1.74-2.16-4.37-4.24A24.32,24.32,0,0,0,209.84,291.05Z"/><path class="cls-8" d="M132.8,288.68a7.51,7.51,0,0,1-3.53-6.1,68.54,68.54,0,0,1,.6-10.39c1.41-11.71,20.58-79.7,20.58-79.7l19.27,53-6.62,23.07,33.73,16.15-9.39,26.5S142.62,294.8,132.8,288.68Z"/><path class="cls-8" d="M277.05,184l31,58.85.83,1.21,33.76-17.23,11.12,22.49-45.43,27.58a11.34,11.34,0,0,1-15.22-3.42l-20.07-30-5.4-24.63Z"/><path class="cls-6" d="M273.2,200.82a7.06,7.06,0,0,1,.06.74c0,.54,0,1.24.07,2.13,0,1.9.08,4.56.14,7.82.08,6.61.12,15.74,0,25.83s-.31,19.21-.52,25.82c-.12,3.26-.22,5.91-.29,7.82-.05.88-.09,1.59-.11,2.12a4.27,4.27,0,0,1-.08.74,3.48,3.48,0,0,1,0-.74c0-.54,0-1.24,0-2.13,0-1.9.07-4.56.12-7.82.12-6.61.27-15.74.37-25.82s.12-19.21.13-25.82c0-3.26,0-5.92,0-7.82,0-.88,0-1.59,0-2.13A3.24,3.24,0,0,1,273.2,200.82Z"/><path class="cls-6" d="M157.92,207.21a2.5,2.5,0,0,1,.21.59c.14.45.31,1,.52,1.73.44,1.57,1.06,3.74,1.81,6.39,1.5,5.4,3.57,12.86,5.67,21.16s3.75,15.87,4.8,21.38c.52,2.75.92,5,1.16,6.54.1.73.19,1.32.26,1.78a2.49,2.49,0,0,1,.06.63,3,3,0,0,1-.16-.61c-.1-.46-.22-1-.36-1.77-.33-1.6-.78-3.8-1.32-6.5-1.14-5.49-2.85-13-4.95-21.33s-4.1-15.76-5.52-21.18c-.68-2.67-1.24-4.85-1.65-6.44l-.42-1.75A2.62,2.62,0,0,1,157.92,207.21Z"/><path class="cls-6" d="M144,294.12a1,1,0,0,1,.22.06l.63.23,2.43.91,9.07,3.48L187.53,311l-.32.15c2-5.54,4.08-11.55,6.29-17.78,1.05-3,2.08-5.89,3.09-8.72l.13.32-33.34-16.1h0a19.36,19.36,0,0,0-13.71.58,26.17,26.17,0,0,0-3.38,1.78l-.83.55-.29.17s.08-.08.26-.22l.8-.59a23.86,23.86,0,0,1,3.36-1.88,19.4,19.4,0,0,1,13.9-.74h0l33.4,16,.21.1-.08.22L194,293.51c-2.21,6.22-4.35,12.23-6.31,17.77l-.09.24-.24-.09-31.16-12.34-9-3.61-2.4-1-.61-.27Z"/><path class="cls-6" d="M309.07,243.49a7.91,7.91,0,0,1,.08,2.32,35.74,35.74,0,0,1-.78,5.53c-.45,2.13-.9,4-1.2,5.42a12.5,12.5,0,0,1-.57,2.24,9,9,0,0,1,.2-2.31c.22-1.41.62-3.34,1.06-5.46s.77-4,.93-5.45A15.31,15.31,0,0,1,309.07,243.49Z"/><path class="cls-6" d="M309.07,244.91a24.23,24.23,0,0,1-1.63,5.35,40.57,40.57,0,0,1-2.12,5.16,24.39,24.39,0,0,1,1.63-5.35A41.35,41.35,0,0,1,309.07,244.91Z"/><path class="cls-6" d="M219.7,190.19a7.53,7.53,0,0,1-.95-.86l-2.51-2.5-8.49-8.68h.37a10.46,10.46,0,0,0-2.2,4.66,10.14,10.14,0,0,0-.2,2.72l0,.59-.45-.37c-4.3-3.48-7.78-6.89-10.38-9.22-1.29-1.18-2.34-2.12-3.07-2.75a10.37,10.37,0,0,1-1.1-1,8.63,8.63,0,0,1,1.22.87c.77.6,1.85,1.49,3.18,2.64,2.66,2.26,6.2,5.64,10.47,9.08l-.42.22a10.84,10.84,0,0,1,.21-2.87,11,11,0,0,1,2.32-4.88l.19-.21.18.19,8.37,8.81,2.41,2.6A7.54,7.54,0,0,1,219.7,190.19Z"/><path class="cls-6" d="M231.07,171.21a3.57,3.57,0,0,1,0,.8c0,.52,0,1.28-.11,2.23a45.92,45.92,0,0,1-1.26,7.66l-.15.63-.3-.58a18.54,18.54,0,0,0-3.29-4.54c-.38-.39-.77-.75-1.14-1.07l.42-.14a72.83,72.83,0,0,1-3.07,10.14c-.49,1.25-.92,2.24-1.23,2.91a4.76,4.76,0,0,1-.54,1,5.45,5.45,0,0,1,.36-1.09l1.08-3a89.79,89.79,0,0,0,2.89-10.14l.09-.42.33.28c.39.34.79.71,1.18,1.1a18.24,18.24,0,0,1,3.35,4.69l-.45.05a56.31,56.31,0,0,0,1.43-7.57C230.93,172.33,231,171.21,231.07,171.21Z"/><polygon class="cls-8" points="261.86 304.64 264.89 314.03 282 312.45 276.66 303.48 261.86 304.64"/><path class="cls-6" d="M261.86,304.64a6.71,6.71,0,0,1,1-.13l3-.3c2.59-.25,6.32-.6,10.76-1h.15l.07.13c1.63,2.71,3.44,5.75,5.36,9l.21.35-.41,0-.88.08-16.24,1.44-.16,0-.05-.16c-.92-2.93-1.63-5.32-2.12-6.95-.22-.77-.4-1.39-.55-1.87a5.74,5.74,0,0,1-.16-.63,5.51,5.51,0,0,1,.27.69l.66,1.89c.57,1.67,1.35,4,2.29,6.75l-.21-.14,16.22-1.56.88-.08-.2.39-5.31-9,.22.11c-4.33.32-8,.55-10.61.71l-3.07.18C262.28,304.64,261.89,304.65,261.86,304.64Z"/><rect class="cls-8" x="251.22" y="230.15" width="18.38" height="5.93"/><path class="cls-6" d="M269.6,236.08a2.73,2.73,0,0,1,0-.43c0-.33,0-.72,0-1.19,0-1.08-.06-2.53-.1-4.31l.17.17c-4.38.05-11,.09-18.38.09l.26-.26h0v3c0,1,0,2,0,2.9l-.25-.25c5.23,0,9.79.06,13.07.11l3.87.08c.91,0,1.42,0,1.44.06a10.55,10.55,0,0,1-1.32.06l-3.82.08c-3.26.05-7.9.1-13.24.11H251v-.25c0-.94,0-1.91,0-2.9v-3h0l.26-.26c7.39,0,14,0,18.38.09h.17v.17c0,1.82-.07,3.3-.09,4.41A13,13,0,0,1,269.6,236.08Z"/><path class="cls-12" d="M248.39,184.51l2.83,3.89s-.79,59-3.79,73.68Z"/><path class="cls-13" d="M98.78,219.2a27.47,27.47,0,0,0-25.06-27.58l-1.42-.13C56.94,191,48,203.83,47.94,219.2l-3.39,54-1.53,11,35.3,9.06,3-23.33s14.9-1,16.38-15.66C98.4,247.23,98.68,232.52,98.78,219.2Z"/><path class="cls-14" d="M81.44,270a35.74,35.74,0,0,1-18.75-7.33s3.34,11.3,18.12,11.27Z"/><path class="cls-6" d="M93.05,232.82a2.09,2.09,0,0,1-2.2,1.94,2,2,0,0,1-2-2.08,2.11,2.11,0,0,1,2.21-1.94A2,2,0,0,1,93.05,232.82Z"/><path class="cls-6" d="M95,226.11c-.28.25-1.77-1.07-4-1.26s-4,.79-4.23.49c-.11-.13.2-.6,1-1.06a5.77,5.77,0,0,1,3.42-.74,5.59,5.59,0,0,1,3.17,1.35C94.94,225.48,95.13,226,95,226.11Z"/><path class="cls-6" d="M72.2,231.81A2.09,2.09,0,0,1,70,233.74a2,2,0,0,1-2-2.08,2.11,2.11,0,0,1,2.21-1.94A2,2,0,0,1,72.2,231.81Z"/><path class="cls-6" d="M72.76,224.57c-.28.25-1.77-1.07-4-1.26s-4,.79-4.24.49c-.11-.13.2-.6,1-1.06a5.79,5.79,0,0,1,3.42-.73,5.52,5.52,0,0,1,3.17,1.34C72.71,223.94,72.9,224.46,72.76,224.57Z"/><path class="cls-6" d="M79.48,242a14.89,14.89,0,0,1,3.72-.34c.59,0,1.14-.08,1.27-.46a2.9,2.9,0,0,0-.23-1.75L82.92,235c-1.81-6.45-3.07-11.74-2.81-11.81s1.94,5.1,3.76,11.56c.43,1.59.85,3.11,1.24,4.56a3.36,3.36,0,0,1,.1,2.29,1.44,1.44,0,0,1-1,.76,3.85,3.85,0,0,1-1,.05A15.54,15.54,0,0,1,79.48,242Z"/><path class="cls-6" d="M72.7,243c.37,0,.16,2.46,2.1,4.39s4.58,1.88,4.56,2.23c0,.15-.62.42-1.73.35a6.07,6.07,0,0,1-3.82-1.72,5.33,5.33,0,0,1-1.6-3.66C72.2,243.56,72.53,243,72.7,243Z"/><path class="cls-6" d="M74.13,215.77c-.28.6-2.51.11-5.18.19s-4.89.62-5.19,0c-.13-.28.29-.82,1.21-1.34a9,9,0,0,1,7.9-.17C73.8,215,74.25,215.49,74.13,215.77Z"/><path class="cls-6" d="M94.74,219.5c-.44.48-1.95-.19-3.82-.38s-3.48,0-3.8-.53c-.14-.27.16-.77.89-1.19a5.55,5.55,0,0,1,6.14.73C94.77,218.72,94.94,219.27,94.74,219.5Z"/><path class="cls-13" d="M49,233.71a4,4,0,0,0-4-4.23c-2.76,0-6,1.31-6.27,7-.56,10.07,9.67,8.56,9.7,8.27S48.84,237.92,49,233.71Z"/><path class="cls-14" d="M46.52,240.83s-.18.11-.49.23a1.71,1.71,0,0,1-1.31-.05c-1-.45-1.84-2.19-1.79-4a6,6,0,0,1,.63-2.48,2,2,0,0,1,1.4-1.27.89.89,0,0,1,1,.54c.12.29,0,.48.09.5s.23-.15.17-.57a1.1,1.1,0,0,0-.36-.66,1.32,1.32,0,0,0-.95-.31A2.5,2.5,0,0,0,43,234.21a6,6,0,0,0-.76,2.77c0,2,.88,4,2.31,4.5a1.9,1.9,0,0,0,1.62-.18C46.49,241.07,46.55,240.85,46.52,240.83Z"/><path class="cls-6" d="M42.74,222.32c.36,3-.71,7.64,1.94,7.41,5.24-.45,2.36,9.68,4.94,9.06s5.13-3.21,6.31-9.54c1.5-8-.8-14.38,3.87-23.1A12.37,12.37,0,0,1,71,201.48a12.57,12.57,0,0,1,9.78,7.4c.91-2.74,3-6.76,5.69-7.71a7.37,7.37,0,0,1,7.91,2,6,6,0,0,1-.2,7.87,2.87,2.87,0,0,0,3.35-.62,4.88,4.88,0,0,1-1.85,3.42,4.48,4.48,0,0,0,2.85-1.37l-1.32,3.38c4.23.8,9-2.64,10.83-6.11,2.68-5.25,2.21-11.07-.09-16.51s-7.28-9.81-13.12-10.71-11.16,1.08-14.28,6.09c-3.35-3.29-10.86-5.46-15.39-4.22a13.74,13.74,0,0,0-9.49,9.52c-2.46-1.54-5.77-1.19-8.28.26l-.62.38a12.29,12.29,0,0,0-5.33,10.6c0,1.66.34,3.43.46,4.78C42.27,213.9,42.74,222.32,42.74,222.32Z"/><path class="cls-7" d="M98.25,210.23a1.69,1.69,0,0,0,.39-.22,5.91,5.91,0,0,0,1-.78,8.52,8.52,0,0,0,2.35-3.94,8.19,8.19,0,0,0-1-6.68,8.79,8.79,0,0,0-7.11-4.09,10,10,0,0,0-4.27.92,13.44,13.44,0,0,0-3.4,2.23,15.86,15.86,0,0,0-4,5.52A15.58,15.58,0,0,0,81,207.62a12,12,0,0,0-.08,1.25,1.49,1.49,0,0,0,0,.44,18.74,18.74,0,0,1,1.57-6,15.82,15.82,0,0,1,4-5.34,11.2,11.2,0,0,1,7.39-3,8.47,8.47,0,0,1,6.78,3.86,7.91,7.91,0,0,1,1,6.37,8.79,8.79,0,0,1-2.16,3.91C98.75,209.88,98.23,210.19,98.25,210.23Z"/><path class="cls-7" d="M99.48,215a3,3,0,0,0,.38-.44c.23-.29.58-.73,1-1.3a32.18,32.18,0,0,0,3.23-5.15,16.14,16.14,0,0,0,1.32-4,11.77,11.77,0,0,0-.1-4.86,9.4,9.4,0,0,0-2.74-4.6A11.29,11.29,0,0,0,97.47,192a13.6,13.6,0,0,0-5.75,0,18.22,18.22,0,0,0-5,1.87,14,14,0,0,0-6.2,6.46,10.11,10.11,0,0,0-.67,6,8.25,8.25,0,0,0,.5,1.58,3,3,0,0,0,.28.51,13.43,13.43,0,0,1-.61-2.12,10.19,10.19,0,0,1,.79-5.85,13.72,13.72,0,0,1,6.11-6.23,15.26,15.26,0,0,1,10.47-1.78,10.9,10.9,0,0,1,4.91,2.54,9,9,0,0,1,2.64,4.38,11.31,11.31,0,0,1,.13,4.69,15.7,15.7,0,0,1-1.24,3.94,34.64,34.64,0,0,1-3.08,5.19l-.94,1.35A2.53,2.53,0,0,0,99.48,215Z"/><path class="cls-7" d="M47.28,216.47c.06-.05-.79-.89-1.77-2.52a14.78,14.78,0,0,1-.62-14.13c.83-1.71,1.61-2.61,1.54-2.66s-.23.19-.57.61a12.14,12.14,0,0,0-1.25,1.91,14.17,14.17,0,0,0,.64,14.44,12.94,12.94,0,0,0,1.4,1.8A2.8,2.8,0,0,0,47.28,216.47Z"/><path class="cls-7" d="M56.36,217.65s-.46-.3-1.16-1a7.29,7.29,0,0,1-2-3.42l-.26-1-.08,1.05c-.1,1.42-.22,3-.34,4.82l.35-.14a13.05,13.05,0,0,1-2.72-3.7,12.8,12.8,0,0,1-1.37-5.58,13.35,13.35,0,0,1,.78-4.66,17.35,17.35,0,0,1,2.07-3.87s-.09.06-.23.21a7.84,7.84,0,0,0-.56.68,12.65,12.65,0,0,0-1.57,2.87,12.93,12.93,0,0,0,.48,10.55,13.22,13.22,0,0,0,2.84,3.81l.33.3,0-.44c.1-1.77.19-3.41.27-4.82l-.34,0a7.14,7.14,0,0,0,2.21,3.47,6.23,6.23,0,0,0,.93.66C56.23,217.61,56.35,217.67,56.36,217.65Z"/><path class="cls-7" d="M62.5,197.21a9.71,9.71,0,0,1,2.76-2.49,8.51,8.51,0,0,1,3.84-1.08,9,9,0,0,1,4.71,1.21,10.36,10.36,0,0,1,3.56,3.35A12.5,12.5,0,0,1,79,201.9a24,24,0,0,1,.5,3.72,3.4,3.4,0,0,0,.09-1,12.49,12.49,0,0,0-.29-2.78A12,12,0,0,0,77.71,198,10.6,10.6,0,0,0,74,194.46a9.16,9.16,0,0,0-4.94-1.23,8.54,8.54,0,0,0-4,1.22A7.58,7.58,0,0,0,63,196.32a3.75,3.75,0,0,0-.41.65C62.52,197.12,62.49,197.2,62.5,197.21Z"/><path class="cls-7" d="M66.05,190a13.32,13.32,0,0,1,2.91-.61,10,10,0,0,1,6.65,2.06,12.57,12.57,0,0,1,4,5.8c.6,1.74.7,2.9.78,2.89a2.48,2.48,0,0,0,0-.82,11.63,11.63,0,0,0-.45-2.17,12.09,12.09,0,0,0-4-6,10,10,0,0,0-6.95-2,7.8,7.8,0,0,0-2.16.54A2.17,2.17,0,0,0,66.05,190Z"/><path class="cls-7" d="M41.48,273.53s-9.78,9-13.09,22.32c-4.23,16.95,11.27,98.79,11.27,98.79l81.79-.12-17.54-64.75s-20.29-39.58-20.58-40.46-1-9.34-1-9.34L44.91,264.58Z"/><path class="cls-13" d="M217.7,361c-.78-1.72-6.4-4.95-6.4-4.95-.47-1.72-3.28-3.35-3.28-3.35a10.5,10.5,0,0,0-3.59-2.19c-2.19-.78-21.84,1.56-21.84,1.56l-14.67,1,.83,19.32c0,.47,13.77-5,13.77-5s5.79,1.4,10.95,2.34S208.61,367,208.61,367l3.82,3.7a11.67,11.67,0,0,1,1.18,5.21c0,1.56,2,3,3.23,1.89s.37-6.52.37-6.52a2.27,2.27,0,0,0,2.16-.31C220.39,370.24,218.48,362.74,217.7,361Z"/><path class="cls-14" d="M208.85,361.67a3.52,3.52,0,0,1,2.22.15,7.92,7.92,0,0,1,4.16,3.35,15.31,15.31,0,0,1,1.9,5,8.89,8.89,0,0,1,.32,2.19,10.58,10.58,0,0,1-.67-2.1,18.78,18.78,0,0,0-2-4.81,8.36,8.36,0,0,0-3.84-3.29A12.63,12.63,0,0,0,208.85,361.67Z"/><path class="cls-12" d="M43,325.5s37.86,40.43,52.4,48.34c15.69,8.53,22.58,8.27,22.58,8.27l-2.44-11.17Z"/><path class="cls-7" d="M184,350.48l-63-7.54s-38.2-47-48-54.26-26.2-4.85-31.33,0a19.74,19.74,0,0,0-5.16,9.49,31.26,31.26,0,0,0,1.28,19.27l2,5.27c1.12.84,60.58,54.38,76,55.5S185.23,375,185.23,375Z"/><path class="cls-6" d="M83.33,289.31a12,12,0,0,1-1.71-.43c-1.09-.32-2.65-.81-4.57-1.47-3.83-1.3-9.06-3.31-14.79-5.62s-10.9-4.41-14.68-5.87l-4.47-1.72a12.34,12.34,0,0,1-1.63-.67,10.37,10.37,0,0,1,1.7.48c1.08.34,2.63.87,4.53,1.56,3.81,1.38,9,3.43,14.75,5.74s10.92,4.36,14.72,5.75c1.89.71,3.44,1.25,4.5,1.62A10.44,10.44,0,0,1,83.33,289.31Z"/><path class="cls-6" d="M66.74,284.86a19.4,19.4,0,0,1-1.93-.45,29.33,29.33,0,0,0-5.34-.78,27.47,27.47,0,0,0-7.93.7,25.24,25.24,0,0,0-4.43,1.56,23.67,23.67,0,0,0-4.28,2.66,18.93,18.93,0,0,0-6,7.54,26.31,26.31,0,0,0-1.94,7.71,52.67,52.67,0,0,0-.26,5.41v1.47a1.76,1.76,0,0,1,0,.52,2,2,0,0,1-.07-.51c0-.4-.06-.89-.11-1.48a41.86,41.86,0,0,1,.1-5.44,25.75,25.75,0,0,1,1.87-7.87,19.08,19.08,0,0,1,6.1-7.76,22.35,22.35,0,0,1,8.92-4.27,27.08,27.08,0,0,1,13.43.34c.62.16,1.09.34,1.41.45A2.73,2.73,0,0,1,66.74,284.86Z"/><path class="cls-6" d="M73,288.68s.36.27,1,.82c.33.27.76.61,1.24,1l1.62,1.53c2.45,2.33,5.87,5.9,10.11,10.6,8.48,9.38,20.25,23.17,34.16,40.15l-.14-.08,63.07,7.82.21,0,0,.21c.38,7.76.77,15.9,1.18,24.19v.26l-.25,0-1.94.15c-11.17.86-22.08,1.6-32.63,2.2-5.28.29-10.46.56-15.54.74s-10,.34-14.91.26c-1.22,0-2.43-.08-3.63-.12-.3,0-.6,0-.9-.05l-.9-.15a11.2,11.2,0,0,1-1.75-.44,38.35,38.35,0,0,1-6.42-2.87,127.59,127.59,0,0,1-11.35-7.11C88.18,363,81.81,358,76.06,353.46c-11.48-9.16-20.49-16.91-26.68-22.3l-7.1-6.24c-.79-.72-1.4-1.26-1.83-1.64l-.62-.57s.24.17.66.53l1.86,1.6L49.51,331c6.24,5.34,15.27,13.05,26.78,22.16,5.76,4.54,12.13,9.45,19.23,14.34a125.3,125.3,0,0,0,11.33,7.07,37.62,37.62,0,0,0,6.34,2.82c2.2.76,4.63.65,7,.73,4.85.07,9.82-.09,14.89-.27s10.26-.47,15.53-.76c10.54-.61,21.45-1.35,32.62-2.21l1.94-.15L185,375c-.4-8.29-.8-16.43-1.18-24.19l.23.24L121,343.16h-.09l-.05-.07c-13.87-17-25.6-30.83-34-40.25-4.2-4.72-7.6-8.32-10-10.67L75.2,290.6,74,289.55Z"/><path class="cls-6" d="M118,353.23a15.47,15.47,0,0,1,.9-5.24,15.65,15.65,0,0,1,2.14-4.88c.14.07-.81,2.24-1.65,5S118.15,353.25,118,353.23Z"/><path class="cls-6" d="M20.74,295.82h0a6.92,6.92,0,0,0-6.92,6.92v92H27.66v-92A6.91,6.91,0,0,0,20.74,295.82Z"/><polygon class="cls-5" points="428.46 339.01 381.1 339.01 394.06 380.39 443.25 380.39 428.46 339.01"/><path class="cls-2" d="M381.1,339c-.85.55-14,41.38-14,41.38H395.2Z"/><path class="cls-6" d="M443.24,380.39l-.09-.19-.22-.58c-.21-.54-.49-1.3-.85-2.26L439,368.83c-2.64-7.34-6.37-17.67-10.72-29.74l.23.16-23.57,0-23.79,0,.23-.32,10.05,29.81c1.22,3.64,2.18,6.54,2.85,8.57.32,1,.56,1.74.74,2.29.07.24.13.43.18.59a1.47,1.47,0,0,1,.05.2s0-.06-.09-.19l-.22-.58c-.19-.54-.46-1.3-.81-2.26l-3-8.53c-2.52-7.34-6.08-17.66-10.23-29.74l-.11-.32h.34l23.79,0,23.57,0h.17l.06.16c4.28,12.1,7.94,22.44,10.55,29.8,1.27,3.65,2.28,6.55,3,8.57l.77,2.29.19.6C443.23,380.32,443.25,380.39,443.24,380.39Z"/><path class="cls-6" d="M405.13,380.39c-.14.05-3.4-9.18-7.29-20.6S390.9,339.06,391,339s3.4,9.18,7.3,20.61S405.27,380.35,405.13,380.39Z"/><path class="cls-6" d="M415.06,380.39c-.13.05-3.4-9.18-7.29-20.6S400.83,339.06,401,339s3.41,9.18,7.3,20.61S415.2,380.35,415.06,380.39Z"/><path class="cls-6" d="M425,380.39c-.14.05-3.41-9.18-7.3-20.6s-6.94-20.73-6.8-20.78,3.4,9.18,7.29,20.61S425.13,380.35,425,380.39Z"/><path class="cls-6" d="M434.93,380.39c-.14.05-3.4-9.18-7.3-20.6s-6.94-20.73-6.8-20.78,3.4,9.18,7.3,20.61S435.07,380.35,434.93,380.39Z"/><path class="cls-6" d="M391.05,343.18a18.31,18.31,0,0,1-6.15,0,18.31,18.31,0,0,1,6.15,0Z"/><path class="cls-6" d="M400.67,343.18a18.31,18.31,0,0,1-6.15,0,18.31,18.31,0,0,1,6.15,0Z"/><path class="cls-6" d="M410.2,343.18a18.31,18.31,0,0,1-6.15,0,18.31,18.31,0,0,1,6.15,0Z"/><path class="cls-6" d="M428,343.18a10.57,10.57,0,0,1-4.66,0,10.57,10.57,0,0,1,4.66,0Z"/><path class="cls-6" d="M420.42,343.18a18.31,18.31,0,0,1-6.15,0,18.31,18.31,0,0,1,6.15,0Z"/><path class="cls-6" d="M430.47,346.15c0,.14-10.51.26-23.48.26s-23.47-.12-23.47-.26,10.51-.27,23.47-.27S430.47,346,430.47,346.15Z"/><path class="cls-6" d="M432.5,351.72c0,.14-10.51.26-23.48.26s-23.47-.12-23.47-.26,10.51-.26,23.47-.26S432.5,351.58,432.5,351.72Z"/><path class="cls-6" d="M434.31,358c0,.15-10.51.26-23.48.26s-23.47-.11-23.47-.26,10.51-.26,23.47-.26S434.31,357.82,434.31,358Z"/><path class="cls-6" d="M436.69,364.21c0,.14-10.51.26-23.47.26s-23.48-.12-23.48-.26,10.51-.26,23.48-.26S436.69,364.06,436.69,364.21Z"/><path class="cls-6" d="M438.54,370.45c0,.14-10.51.26-23.48.26s-23.47-.12-23.47-.26,10.51-.26,23.47-.26S438.54,370.31,438.54,370.45Z"/><path class="cls-8" d="M411.75,356.42a1.8,1.8,0,0,1,.42,0c.28,0,.69,0,1.22,0a11,11,0,0,1,4.42.89,5.88,5.88,0,0,1,2.38,2.09,4,4,0,0,1,.48,3.59,5,5,0,0,1-2.9,2.77,8.09,8.09,0,0,1-4.29.25,14.6,14.6,0,0,1-4.07-1.32,5.93,5.93,0,0,1-2.81-2.85,3.91,3.91,0,0,1,.11-3.62,4.36,4.36,0,0,1,2.59-1.83,6.27,6.27,0,0,1,2.59-.13,11.38,11.38,0,0,1,1.89.46c.51.16.89.31,1.15.41a1.49,1.49,0,0,1,.39.19,14.39,14.39,0,0,1-1.59-.41,8,8,0,0,0-4.33-.17,4.05,4.05,0,0,0-2.32,1.7,3.49,3.49,0,0,0,0,3.21,5.47,5.47,0,0,0,2.61,2.59,14.18,14.18,0,0,0,3.92,1.26,7.62,7.62,0,0,0,4-.22,4.53,4.53,0,0,0,2.64-2.46,3.57,3.57,0,0,0-.4-3.19,5.54,5.54,0,0,0-2.17-2,11.41,11.41,0,0,0-4.27-1A11,11,0,0,1,411.75,356.42Z"/><path class="cls-8" d="M407.56,366.39a12.38,12.38,0,0,1,1.68-1.82l4.24-4.2,4.22-4.21a12.57,12.57,0,0,1,1.83-1.68,10.49,10.49,0,0,1-1.56,1.93c-1,1.14-2.47,2.68-4.13,4.32s-3.2,3.09-4.34,4.11A11.5,11.5,0,0,1,407.56,366.39Z"/><path class="cls-8" d="M423.24,366.09a16.62,16.62,0,0,1-2.54-1.5c-1.54-1-3.65-2.37-6-3.93s-4.38-3-5.87-4.06a15.86,15.86,0,0,1-2.34-1.81,16.58,16.58,0,0,1,2.55,1.51c1.54,1,3.65,2.37,5.95,3.92s4.38,3,5.87,4.06A16.59,16.59,0,0,1,423.24,366.09Z"/><path class="cls-8" d="M411,348.24a8.53,8.53,0,0,1-5.25-.27,9.55,9.55,0,0,1,2.63,0A9.7,9.7,0,0,1,411,348.24Z"/><path class="cls-8" d="M410.89,349.63c0,.15-.8.32-1.81.39s-1.84,0-1.85-.14.8-.32,1.81-.38S410.88,349.49,410.89,349.63Z"/><path class="cls-8" d="M420.66,348.53c0,.14-.83.33-1.89.33s-1.91-.18-1.9-.32.86-.19,1.9-.2S420.65,348.38,420.66,348.53Z"/><path class="cls-8" d="M431.71,353.8c0,.14-.54.3-1.23.35s-1.26,0-1.27-.17.54-.3,1.23-.35S431.7,353.65,431.71,353.8Z"/><path class="cls-8" d="M403.68,354.94a6.6,6.6,0,0,1-4.58-.12,7.26,7.26,0,0,1,2.3-.05A7,7,0,0,1,403.68,354.94Z"/><path class="cls-8" d="M395.56,361.73c0,.15-.82.3-1.85.36s-1.86,0-1.87-.17.82-.3,1.85-.35S395.56,361.59,395.56,361.73Z"/><path class="cls-8" d="M410.65,374.49c0,.15-.79.4-1.82.57s-1.88.19-1.91,0,.79-.39,1.82-.56S410.62,374.35,410.65,374.49Z"/><path class="cls-8" d="M419,368.56a9.5,9.5,0,0,1-5.25-.12,8.52,8.52,0,0,1,2.63-.09A8.66,8.66,0,0,1,419,368.56Z"/><path class="cls-8" d="M429.45,367.47c0,.15-.87.32-2,.38s-2,0-2-.14.87-.31,2-.38S429.45,367.33,429.45,367.47Z"/><path class="cls-6" d="M381.1,339c.14.05-2.88,9.35-6.73,20.77s-7.09,20.66-7.23,20.61,2.88-9.34,6.73-20.77S381,339,381.1,339Z"/><path class="cls-6" d="M441.42,376.45c0,.15-10.51.26-23.47.26s-23.48-.11-23.48-.26,10.51-.26,23.48-.26S441.42,376.31,441.42,376.45Z"/><path class="cls-2" d="M270.27,315.66l-.48-.1a1.86,1.86,0,0,0-2.22,1.43l-13.12,59.63h-65.1a1.88,1.88,0,0,0-1.88,1.88h0a1.88,1.88,0,0,0,1.88,1.88H257.6l14.11-62.47A1.88,1.88,0,0,0,270.27,315.66Z"/><path class="cls-6" d="M270.27,315.66a1.64,1.64,0,0,1,1.06.6,1.93,1.93,0,0,1,.47,1.43c-.1.6-.27,1.26-.43,2-.68,3.08-1.68,7.57-2.94,13.28-2.56,11.46-6.22,27.81-10.61,47.42l0,.18h-.18l-68.37,0a2.14,2.14,0,0,1-.89-4,2.45,2.45,0,0,1,1.3-.26h31.48l33.33,0-.21.18c4.2-18.93,7.69-34.66,10.14-45.68,1.23-5.49,2.2-9.8,2.86-12.76a5.31,5.31,0,0,1,.62-1.9,1.88,1.88,0,0,1,1.24-.73,2,2,0,0,1,.88.07l.29.08-.3,0a2.05,2.05,0,0,0-.86,0,1.83,1.83,0,0,0-1.17.72,5,5,0,0,0-.56,1.87L264.63,331c-2.4,11-5.83,26.78-10,45.72l0,.18h-.18l-33.33,0H189.64a2,2,0,0,0-1,.2,1.62,1.62,0,0,0,.67,3l68.34,0-.22.17c4.46-19.6,8.19-35.93,10.8-47.37,1.31-5.71,2.34-10.19,3.05-13.27.18-.76.36-1.44.46-2a1.87,1.87,0,0,0-.41-1.38A2.21,2.21,0,0,0,270.27,315.66Z"/><rect class="cls-2" x="132.7" y="380.47" width="464.56" height="14.06"/><path class="cls-6" d="M597.26,394.52c0-.41,0-4.53-.06-14l.06.06-464.54.2h0l.26-.26v14l-.26-.26,464.56.26-464.56.26h-.26V380.21h.28l464.54.2h.06v.06C597.28,390,597.26,394.11,597.26,394.52Z"/><rect class="cls-1" x="448.08" y="371.69" width="96.17" height="8.63"/><path class="cls-6" d="M544.25,380.32s0-.2,0-.58l0-1.67c0-1.48,0-3.62-.06-6.38l.1.1c-16,.09-53.06.16-96.16.16h0l.26-.26v8.63l-.26-.26,68.22.11,20.45.08,5.55,0h1.45l.5,0-.46,0-1.42,0-5.49,0-20.39.08-68.41.11h-.26v-8.89l.26-.26h0c43.1,0,80.14.06,96.16.15h.11v.11c0,2.78-.05,4.95-.06,6.44,0,.71,0,1.25,0,1.64S544.25,380.32,544.25,380.32Z"/><rect class="cls-1" x="439.25" y="366.88" width="95.06" height="4.81"/><path class="cls-6" d="M534.32,371.69a2.08,2.08,0,0,1,0-.31c0-.21,0-.5,0-.89,0-.81,0-2,0-3.61l.08.08c-12.07.1-50.1.18-95.06.18h0l.26-.26h0v4.8l-.26-.26,67.31.11,20.29.07,5.52,0,1.44,0,.51,0-.47,0h-1.41l-5.46,0-20.23.08-67.5.11H439v-5.06h0c.52-.52.15-.15.27-.26h0c45,0,83,.08,95.06.18h.08v.08c0,1.63,0,2.84,0,3.66,0,.37,0,.66,0,.87S534.32,371.69,534.32,371.69Z"/><path class="cls-6" d="M541.57,377.15c0,.14-20.83.26-46.51.26s-46.51-.12-46.51-.26,20.82-.26,46.51-.26S541.57,377,541.57,377.15Z"/><path class="cls-6" d="M543.86,374.86c0,.14-20.83.26-46.51.26s-46.51-.12-46.51-.26,20.82-.26,46.51-.26S543.86,374.72,543.86,374.86Z"/><rect class="cls-2" x="317.17" y="322.82" width="3.38" height="48.79" transform="translate(661.86 670.6) rotate(175.88)"/><path class="cls-7" d="M317.21,356.87l4.8-.35,1.13,15.72a2.4,2.4,0,0,1-2.22,2.57h0a2.41,2.41,0,0,1-2.58-2.23Z"/><rect class="cls-7" x="316.49" y="349.63" width="0.93" height="20.44" transform="translate(658.99 695.97) rotate(175.87)"/><path class="cls-6" d="M322,356.52a29.74,29.74,0,0,1-4.83.7l.21-.25c.09,1.1.18,2.28.28,3.54.17,2.32.29,4.42.35,5.95a12.52,12.52,0,0,1,0,2.48,11.12,11.12,0,0,1-.37-2.45c-.15-1.52-.33-3.62-.5-5.94-.08-1.26-.16-2.45-.23-3.55l0-.23.23,0A33,33,0,0,1,322,356.52Z"/><rect class="cls-2" x="322.37" y="324.13" width="3.38" height="38.09"/><path class="cls-7" d="M326.4,339h-4.81V323.26a2.4,2.4,0,0,1,2.4-2.41h0a2.41,2.41,0,0,1,2.41,2.41Z"/><rect class="cls-7" x="326.4" y="325.83" width="0.93" height="20.44"/><path class="cls-6" d="M321.59,339a32.28,32.28,0,0,1,4.87-.35l-.23.24c0-1.1,0-2.29,0-3.55,0-2.33,0-4.44.08-6a12.3,12.3,0,0,1,.18-2.47,11,11,0,0,1,.19,2.47c.05,1.52.07,3.63.07,6,0,1.26,0,2.45,0,3.55v.23h-.23A32.47,32.47,0,0,1,321.59,339Z"/><rect class="cls-2" x="329.17" y="333.07" width="3.38" height="38.09"/><path class="cls-7" d="M333.2,348h-4.81V332.19a2.4,2.4,0,0,1,2.4-2.4h0a2.41,2.41,0,0,1,2.41,2.4Z"/><rect class="cls-7" x="333.2" y="334.77" width="0.93" height="20.44"/><path class="cls-6" d="M328.39,348a30.9,30.9,0,0,1,4.87-.35l-.23.24c0-1.1,0-2.29,0-3.55,0-2.33,0-4.44.08-6a11,11,0,0,1,.19-2.47,12.3,12.3,0,0,1,.18,2.47c.05,1.52.08,3.63.08,6,0,1.26,0,2.45,0,3.55v.23h-.23A32.47,32.47,0,0,1,328.39,348Z"/><rect class="cls-2" x="335.59" y="322.73" width="3.38" height="38.09"/><path class="cls-7" d="M339.61,337.61H334.8V321.86a2.41,2.41,0,0,1,2.41-2.41h0a2.41,2.41,0,0,1,2.4,2.41Z"/><rect class="cls-7" x="339.61" y="324.44" width="0.93" height="20.44"/><path class="cls-6" d="M334.8,337.61a33.61,33.61,0,0,1,4.87-.34l-.23.23c0-1.1,0-2.29,0-3.55,0-2.32,0-4.43.07-6a11.88,11.88,0,0,1,.19-2.47,12.42,12.42,0,0,1,.18,2.47c.05,1.53.08,3.64.08,6,0,1.26,0,2.45,0,3.55v.24h-.23A31,31,0,0,1,334.8,337.61Z"/><polygon class="cls-8" points="340.12 380.39 318.48 380.39 315.64 348.79 343.22 348.79 340.12 380.39"/></g></svg>