<svg xmlns="http://www.w3.org/2000/svg" viewBox="0 0 707.74 487.84"><defs><style>.cls-1{fill:#e0e0e0;}.cls-2{fill:#ebebeb;}.cls-3{fill:#263238;}.cls-4{fill:#8ea382;}.cls-5{fill:#ffbf9d;}.cls-6{fill:#ff9a6c;}.cls-7{fill:#455a64;}.cls-8{fill:#fff;}.cls-9{fill:#ae7461;}.cls-10{fill:#6f4439;}.cls-11{opacity:0.3;}.cls-12{fill:#fafafa;}</style></defs><title>register2</title><g id="Desk"><path class="cls-1" d="M107.22,470.06c-7.38-33.94,10-60.56,10-60.56C130.16,435.86,107.22,470.06,107.22,470.06Z"/><path class="cls-1" d="M105.29,368.89c21.31-.11,36.13,14.13,36.13,14.13C124.26,387.6,105.29,368.89,105.29,368.89Z"/><path class="cls-1" d="M150.73,385.5c5,25.09-8.19,45.84-8.19,45.84C133.22,412.17,150.73,385.5,150.73,385.5Z"/><path class="cls-1" d="M95.26,419.13c-.27-.38,14.62-11.41,33.25-24.61s34-23.6,34.24-23.22-14.61,11.41-33.25,24.62S95.54,419.52,95.26,419.13Z"/><path class="cls-1" d="M54.93,456.71s13-37.43,48.05-42.36C103,414.35,92.33,446.44,54.93,456.71Z"/><path class="cls-1" d="M58.73,400.45s32.74-22.3,63.83-5.37C122.56,395.08,94.88,414.5,58.73,400.45Z"/><path class="cls-1" d="M554,15.93c6.19,34.17-12.05,60.17-12.05,60.17C529.85,49.31,554,15.93,554,15.93Z"/><path class="cls-1" d="M552.38,117.1c-21.3-.62-35.62-15.37-35.62-15.37C534.07,97.75,552.38,117.1,552.38,117.1Z"/><path class="cls-1" d="M507.55,98.93c-4.18-25.25,9.77-45.52,9.77-45.52C526,72.88,507.55,98.93,507.55,98.93Z"/><path class="cls-1" d="M564.14,67.24c.26.4-15,10.89-34.07,23.45s-34.77,22.41-35,22,15-10.89,34.08-23.45S563.88,66.84,564.14,67.24Z"/><path class="cls-1" d="M605.75,31.09s-14.28,37-49.48,40.66C556.27,71.75,568,40.05,605.75,31.09Z"/><path class="cls-1" d="M600,87.18s-33.5,21.15-64,3.15C536,90.33,564.37,71.88,600,87.18Z"/><path class="cls-2" d="M55.44,198.76a53.27,53.27,0,0,1,13-5.68l2.69-12.92L93,179.77l3.14,12.83a53,53,0,0,1,13.25,5.21l11-7.24,15.71,15.17L129.32,217A52.93,52.93,0,0,1,135,230.09l12.93,2.69.38,21.83-12.82,3.15A53.49,53.49,0,0,1,130.27,271l7.23,11-15.17,15.71-11.28-6.84A53.51,53.51,0,0,1,98,296.59L95.3,309.51l-21.84.39-3.14-12.83a53.17,53.17,0,0,1-13.25-5.21L46,299.1,30.32,283.92l6.84-11.28a53.69,53.69,0,0,1-5.67-13.06l-12.93-2.69-.38-21.83L31,231.91a53.74,53.74,0,0,1,5.22-13.25l-7.24-11,15.17-15.71,11.29,6.84Zm11.64,29.09a23.43,23.43,0,1,0,33.12-.59A23.43,23.43,0,0,0,67.08,227.85Z"/><path class="cls-2" d="M651.43,245.12a22.49,22.49,0,0,1,5.5-2.39l1.13-5.44,9.18-.16,1.33,5.39a22.68,22.68,0,0,1,5.57,2.2l4.64-3.05,6.61,6.39-2.87,4.74a22.45,22.45,0,0,1,2.38,5.5l5.44,1.13.16,9.18-5.39,1.33a22.68,22.68,0,0,1-2.2,5.57l3.05,4.64-6.38,6.61-4.75-2.88a22.58,22.58,0,0,1-5.49,2.39l-1.14,5.44-9.18.16-1.32-5.39a22.75,22.75,0,0,1-5.58-2.2l-4.64,3.05-6.61-6.39,2.88-4.74a22.49,22.49,0,0,1-2.39-5.5l-5.44-1.13-.16-9.18,5.4-1.33a22.26,22.26,0,0,1,2.19-5.57l-3-4.64,6.38-6.61,4.74,2.88Zm4.9,12.23a9.86,9.86,0,1,0,13.94-.24A9.86,9.86,0,0,0,656.33,257.35Z"/><path class="cls-2" d="M309.74,214a43.49,43.49,0,0,1,10.61-4.61l2.19-10.51,17.74-.31L342.84,209a43.66,43.66,0,0,1,10.77,4.24l9-5.88,12.77,12.33-5.56,9.17a43.65,43.65,0,0,1,4.61,10.61l10.5,2.19.31,17.75L374.79,262a43.09,43.09,0,0,1-4.23,10.77l5.88,9-12.33,12.77-9.17-5.56a43.17,43.17,0,0,1-10.62,4.61l-2.18,10.51-17.75.31-2.55-10.42a43.5,43.5,0,0,1-10.77-4.24l-9,5.88-12.77-12.33,5.56-9.17a43.27,43.27,0,0,1-4.61-10.61l-10.51-2.19-.31-17.75L289.88,241a43.66,43.66,0,0,1,4.24-10.77l-5.88-9,12.33-12.77,9.17,5.56Zm9.46,23.64a19,19,0,1,0,26.92-.47A19,19,0,0,0,319.2,237.67Z"/><path class="cls-2" d="M212.38,368.1A44,44,0,0,1,223,363.49l2.19-10.5,17.75-.31,2.55,10.42a43.24,43.24,0,0,1,10.77,4.23l9-5.88L278,373.78,272.43,383A43.17,43.17,0,0,1,277,393.57l10.51,2.18.31,17.75-10.42,2.56a43.59,43.59,0,0,1-4.24,10.76l5.88,9-12.33,12.77L257.58,443A43.27,43.27,0,0,1,247,447.61l-2.19,10.51-17.75.31L224.48,448a43.66,43.66,0,0,1-10.77-4.24l-9,5.88L192,437.32l5.56-9.17a42.94,42.94,0,0,1-4.61-10.61l-10.51-2.19-.31-17.74,10.42-2.56a43.66,43.66,0,0,1,4.24-10.77l-5.88-9,12.33-12.77,9.17,5.56Zm9.46,23.65a19,19,0,1,0,26.93-.48A19,19,0,0,0,221.84,391.75Z"/><path class="cls-2" d="M583.42,313.38a47.59,47.59,0,0,1,11.71-5.09l2.41-11.59,19.58-.35,2.82,11.5a47.85,47.85,0,0,1,11.88,4.68l9.9-6.49,14.09,13.6-6.14,10.12a47.75,47.75,0,0,1,5.09,11.71l11.59,2.41.35,19.59-11.5,2.82a47.85,47.85,0,0,1-4.68,11.88l6.49,9.89-13.6,14.09L633.29,396a48.13,48.13,0,0,1-11.71,5.09l-2.42,11.59-19.58.34-2.82-11.5a48.21,48.21,0,0,1-11.88-4.67L575,403.36,560.9,389.75,567,379.63a47.59,47.59,0,0,1-5.09-11.71l-11.59-2.41L550,345.93l11.5-2.82a47.82,47.82,0,0,1,4.67-11.88l-6.49-9.9,13.61-14.09,10.12,6.14Zm10.43,26.08a21,21,0,1,0,29.71-.52A21,21,0,0,0,593.85,339.46Z"/><path class="cls-2" d="M640.81,131.07a17.16,17.16,0,0,0,6.62-17.66c-2-9.25-10.6-15.27-19.28-13.43S614,110.81,616,120.07a17.09,17.09,0,0,0,13.39,13.47c-23.38,8.88-16.59,34.91-16.59,34.91L670,156.33S665.55,129.5,640.81,131.07Z"/><path class="cls-3" d="M640.81,131.07l.78,0a18.94,18.94,0,0,1,2.2-.06,25.08,25.08,0,0,1,8.35,1.53,24.64,24.64,0,0,1,10.74,7.85,37.81,37.81,0,0,1,7.31,16l0,.18-.19.05-57.2,12.17-.24.05-.06-.24a37.9,37.9,0,0,1-.92-8.3,34.34,34.34,0,0,1,1-8.57,25.36,25.36,0,0,1,6.13-11.49,26.17,26.17,0,0,1,4.94-4.06,34.08,34.08,0,0,1,5.61-2.79l.05.49a16.71,16.71,0,0,1-8.63-4.54,18,18,0,0,1-4.71-8.14,17.81,17.81,0,0,1,3.87-16.62,15.41,15.41,0,0,1,14.47-4.72,16.92,16.92,0,0,1,10.85,7.7,17.36,17.36,0,0,1,2.25,5.42,17.86,17.86,0,0,1,.48,5.2,17.28,17.28,0,0,1-2.36,7.9,16.15,16.15,0,0,1-3.32,4,8.65,8.65,0,0,1-1,.81l-.38.28.34-.28c.23-.19.61-.48,1-.88a16.53,16.53,0,0,0,3.22-4,17.15,17.15,0,0,0,2.26-7.82,17.68,17.68,0,0,0-.5-5.12,17.23,17.23,0,0,0-2.25-5.32,16.63,16.63,0,0,0-10.65-7.49,15,15,0,0,0-14.07,4.64A17.35,17.35,0,0,0,616.47,121a17.55,17.55,0,0,0,4.59,7.92,16.19,16.19,0,0,0,8.37,4.39l.86.16-.82.33a33.27,33.27,0,0,0-5.51,2.74,26,26,0,0,0-4.84,4,24.84,24.84,0,0,0-6,11.26,34.13,34.13,0,0,0-1,8.44,37.13,37.13,0,0,0,.9,8.17l-.3-.19L670,156.14l-.15.22a37.67,37.67,0,0,0-7.17-15.81,24.6,24.6,0,0,0-10.56-7.84,25.5,25.5,0,0,0-8.29-1.62c-1-.08-1.75,0-2.24,0Z"/><polygon class="cls-4" points="678.19 141.21 666.95 143.65 664.51 132.41 654.94 134.48 657.37 145.72 646.13 148.16 648.21 157.74 659.45 155.3 661.88 166.54 671.46 164.46 669.02 153.23 680.26 150.79 678.19 141.21"/><polygon class="cls-4" points="49.84 345.85 40.21 348.73 37.34 339.1 29.13 341.55 32 351.18 22.37 354.05 24.82 362.26 34.45 359.39 37.33 369.02 45.54 366.57 42.66 356.94 52.3 354.06 49.84 345.85"/><path class="cls-2" d="M47.57,108.12a12.75,12.75,0,0,0,11-8.66c2.33-6.65-.83-13.82-7.06-16S38.38,84.87,36,91.52a12.75,12.75,0,0,0,3.31,13.75C21.05,101.87,15.29,121,15.29,121l41.06,14.44S63.91,116.69,47.57,108.12Z"/><path class="cls-3" d="M47.57,108.12l.52.27a14.21,14.21,0,0,1,1.42.81,18.14,18.14,0,0,1,8.54,13.35,28.15,28.15,0,0,1-1.51,13l-.07.18-.18-.06L15.2,121.29,15,121.2,15,121a28,28,0,0,1,6.59-10.73A19,19,0,0,1,30,105.29a19.71,19.71,0,0,1,4.74-.67,24.74,24.74,0,0,1,4.65.4l-.21.44a12.5,12.5,0,0,1-3.75-6.26,13.5,13.5,0,0,1,.16-7,13.33,13.33,0,0,1,8.93-9.11A11.84,11.84,0,0,1,50.6,83a11.61,11.61,0,0,1,5,2.72,12.58,12.58,0,0,1,3.93,9.13,13.62,13.62,0,0,1-2.39,7.83,12.86,12.86,0,0,1-4.58,4.11A11.83,11.83,0,0,1,48.9,108a9.67,9.67,0,0,1-1.33.13s.45-.05,1.32-.22a12,12,0,0,0,3.59-1.31,12.84,12.84,0,0,0,4.45-4.1,13.33,13.33,0,0,0,2.27-7.68A12.31,12.31,0,0,0,55.34,86a11.13,11.13,0,0,0-10.69-2.47,12.84,12.84,0,0,0-8.6,8.81,13.08,13.08,0,0,0-.14,6.78,12,12,0,0,0,3.61,6l.65.58-.87-.14a24.59,24.59,0,0,0-4.55-.39,19.07,19.07,0,0,0-4.61.66A18.47,18.47,0,0,0,22,110.61a27.57,27.57,0,0,0-6.45,10.51l-.17-.32,41.05,14.49-.25.11a28,28,0,0,0,1.56-12.8,18.21,18.21,0,0,0-3.66-9.06,19,19,0,0,0-4.62-4.24c-.58-.42-1.12-.69-1.42-.9Z"/><path class="cls-1" d="M577,250.84H399.58a10.08,10.08,0,0,0-10.09,10.08v65.4h-4.43a13.54,13.54,0,0,1-5.92-1.42,27.22,27.22,0,1,0-.82,49.45,13.51,13.51,0,0,1,5.49-1.21h5.68v63.77A10.09,10.09,0,0,0,399.58,447H577a8.21,8.21,0,0,0,8.21-8.21V259.05A8.2,8.2,0,0,0,577,250.84Z"/><path class="cls-3" d="M577,250.84h.56a3.81,3.81,0,0,1,.68.07,5.59,5.59,0,0,1,.94.19,8.12,8.12,0,0,1,5,3.86,8.51,8.51,0,0,1,1.1,4.6c0,1.75,0,3.66,0,5.74,0,4.15,0,8.94,0,14.33,0,21.56,0,52.76.08,91.31,0,19.27,0,40.38,0,63.05v4.27a10.78,10.78,0,0,1-.16,2.18,8.55,8.55,0,0,1-.72,2.08,8.41,8.41,0,0,1-7.14,4.67l-17.85,0H400a10.71,10.71,0,0,1-5.31-1.22,10.32,10.32,0,0,1-4-3.76,10.21,10.21,0,0,1-1.51-5.27V373.14l.26.25h-4.32c-.72,0-1.45,0-2.14,0a13.51,13.51,0,0,0-2.09.31,14.65,14.65,0,0,0-2,.64c-.64.26-1.32.57-2,.82a27.25,27.25,0,0,1-4.15,1.18,26.9,26.9,0,0,1-4.28.52,17.14,17.14,0,0,1-2.15,0c-.71,0-1.43-.06-2.14-.13a30,30,0,0,1-8.22-2.26,31.1,31.1,0,0,1-7.07-4.65,30.71,30.71,0,0,1-5.3-6.52,29.74,29.74,0,0,1-3.06-7.76c-.16-.68-.24-1.37-.36-2.05l-.17-1c0-.34,0-.69-.06-1l-.1-2.07.11-2.07a27.25,27.25,0,0,1,5.92-15A27.46,27.46,0,0,1,374.68,323a26.43,26.43,0,0,1,3.68,1.32,19.44,19.44,0,0,0,3.56,1.39,13.45,13.45,0,0,0,3.75.41h3.82l-.24.24c0-19,0-37.32,0-54.79v-9.74a13.17,13.17,0,0,1,.29-3.24,10.26,10.26,0,0,1,3.32-5.44,10.09,10.09,0,0,1,5.8-2.44c8.34-.09,16.4,0,24.25,0l81.78.05,53.25.07,14.15,0,3.64,0c.82,0,1.23,0,1.23,0l-1.23,0-3.64,0-14.15,0-53.25.07-81.78.06c-7.83,0-15.94,0-24.21.05a9.63,9.63,0,0,0-5.56,2.34,9.9,9.9,0,0,0-3.18,5.22,12.62,12.62,0,0,0-.27,3.14v9.74c0,17.47,0,35.77,0,54.79v.24h-4.06a14.1,14.1,0,0,1-3.87-.42,20.12,20.12,0,0,1-3.63-1.42,26.11,26.11,0,0,0-3.63-1.29,26.93,26.93,0,0,0-15.35.28,27.23,27.23,0,0,0-12.89,8.84,26.66,26.66,0,0,0-5.8,14.77l-.12,2,.11,2c0,.34,0,.68.06,1l.16,1c.12.67.19,1.35.35,2a29.32,29.32,0,0,0,3,7.61,27,27,0,0,0,12.15,11,29.5,29.5,0,0,0,8.06,2.22c.7.07,1.4.08,2.1.13a16.51,16.51,0,0,0,2.11,0,26.79,26.79,0,0,0,4.19-.51,26.38,26.38,0,0,0,4.08-1.17c.67-.25,1.3-.53,2-.81a14.93,14.93,0,0,1,2.09-.66,13.06,13.06,0,0,1,2.17-.33c.73,0,1.45,0,2.17,0h4.58v58.69c0,1.81,0,3.62,0,5.43a9.88,9.88,0,0,0,5.2,8.59,10.23,10.23,0,0,0,5.07,1.15h42.3l80,0h55.07a8,8,0,0,0,6.76-4.42,7.76,7.76,0,0,0,.69-2,11.13,11.13,0,0,0,.16-2.09V434c0-22.67,0-43.78,0-63.05,0-38.55.06-69.75.08-91.31,0-5.39,0-10.18,0-14.33,0-2.08,0-4,0-5.74a8.5,8.5,0,0,0-1.06-4.55,8.17,8.17,0,0,0-4.92-3.86,5.82,5.82,0,0,0-.93-.2,4,4,0,0,0-.69-.08Z"/><path class="cls-3" d="M533.73,360c-.44-12.07-.88-24.21-3.2-36.07s-5.24-23.42-12.71-32.95l-69.89,3.72c-2.69,10.7-5.41,21.67-4.29,32.65,1.08,10.65,5.76,20.95,5,31.64-.53,7.54-3.74,14.6-6.11,21.79S438.65,396,441.46,403a9.38,9.38,0,0,0,3.35,4.54c2,1.28,4.47,1.33,6.82,1.33q41.91.06,83.79-1.91Q534.57,383.5,533.73,360Z"/><path class="cls-3" d="M523.08,321a52.65,52.65,0,0,1-17,39.86Q502.34,350,498.55,339"/><path class="cls-3" d="M466,277.61c6.5-3.53,14.36-4,21.62-2.59s14,4.71,20.46,8.4c3.59,2.07,7.18,4.35,9.77,7.58,4.72,5.91,9.39,15.61,9.85,23.14.36,6.08-2,21.33-4.57,26.86-2.38,5.07-13.5,8.93-19,10.19L453.75,293A25.39,25.39,0,0,1,466,277.61Z"/><path class="cls-3" d="M457.28,285.46l12.08-2.14c-6.6,15.62-8.39,51.34-12.17,67.87-4.45-6.42-14.78-26-14.23-33.75S442.94,284.14,457.28,285.46Z"/><path class="cls-5" d="M514.52,311.42a20.54,20.54,0,0,0-15.39-18.8l-27.92-7.08c-12-1.29-20,13.4-20.83,25.39-.87,13.32-1.41,27.37.15,37.31,3.15,20,18.56,22.57,18.56,22.57s0,4.62,0,10.45l.31.74c7.15,16.75,30.74,17.52,39,1.27h0l6.2-71.56C514.6,311.36,514.55,312,514.52,311.42Z"/><path class="cls-3" d="M454.24,325.92a2.56,2.56,0,0,0,2.48,2.59,2.46,2.46,0,0,0,2.66-2.31,2.57,2.57,0,0,0-2.48-2.59A2.46,2.46,0,0,0,454.24,325.92Z"/><path class="cls-3" d="M453.4,318.76c.32.34,2.28-1.1,5.05-1.08s4.8,1.39,5.11,1.06c.14-.15-.18-.76-1.07-1.4a7,7,0,0,0-4.08-1.26,6.73,6.73,0,0,0-4,1.28C453.53,318,453.24,318.61,453.4,318.76Z"/><path class="cls-3" d="M479.49,325.57a2.57,2.57,0,0,0,2.48,2.59,2.46,2.46,0,0,0,2.67-2.3,2.57,2.57,0,0,0-2.48-2.6A2.47,2.47,0,0,0,479.49,325.57Z"/><path class="cls-3" d="M479.75,318.76c.32.34,2.28-1.1,5.05-1.08s4.8,1.39,5.11,1.06c.14-.15-.18-.76-1.07-1.4a7,7,0,0,0-4.08-1.26,6.73,6.73,0,0,0-4,1.28C479.89,318,479.59,318.61,479.75,318.76Z"/><path class="cls-3" d="M471.08,340.42c0-.16-1.72-.46-4.51-.82-.71-.07-1.38-.21-1.5-.69a3.67,3.67,0,0,1,.48-2.09l2.11-5.36c2.92-7.63,5-13.9,4.74-14s-2.94,6-5.87,13.6l-2,5.39a4,4,0,0,0-.38,2.76,1.8,1.8,0,0,0,1.16,1,5.24,5.24,0,0,0,1.21.16C469.32,340.56,471.06,340.58,471.08,340.42Z"/><path class="cls-6" d="M495.75,363.7s-6.54,13.73-26.66,11.81v-4.7A50.84,50.84,0,0,0,495.75,363.7Z"/><path class="cls-3" d="M480.62,308.8c.27.75,3,.4,6.3.79s5.88,1.29,6.32.62c.19-.32-.27-1-1.33-1.76a11.07,11.07,0,0,0-9.61-1.07C481.11,307.85,480.5,308.44,480.62,308.8Z"/><path class="cls-3" d="M454.3,310.33c.49.62,2.4,0,4.7-.05s4.25.43,4.7-.22c.19-.32-.11-.95-1-1.54a6.83,6.83,0,0,0-7.57.21C454.36,309.37,454.09,310,454.3,310.33Z"/><path class="cls-3" d="M455.84,292.68c1.23-3,4.55-4.81,7.81-5a17.35,17.35,0,0,1,9.28,2.69c12,6.88,18.12,23.5,30,30.61,2.91,1.75,6.69.15,9.17,2.47s4.08,6,2.71,9.12a28,28,0,0,0,4.1-6.9,9.36,9.36,0,0,0-.33-7.79c-1-1.77-2.83-3.11-3.33-5.09-.43-1.73.26-3.55.18-5.34a11.69,11.69,0,0,0-1.84-5.1c-4.63-8.14-11-15.51-19.22-20.09a34.1,34.1,0,0,0-17.64-4.54,26.12,26.12,0,0,0-16.79,6.62c-2.65,2.45-5.43,5-4.06,8.32"/><path class="cls-5" d="M511.77,326c.21-.58,10.7-4.34,10.84,6.74.13,10.76-10.8,8.65-10.82,8.34S511.77,326,511.77,326Z"/><path class="cls-6" d="M515.09,336.92s.19.13.51.27a1.94,1.94,0,0,0,1.42,0c1.14-.43,2.08-2.25,2.12-4.19a6.24,6.24,0,0,0-.56-2.68,2.15,2.15,0,0,0-1.43-1.42,1,1,0,0,0-1.11.52c-.14.3-.07.52-.13.54s-.23-.18-.15-.63a1.16,1.16,0,0,1,.42-.67,1.4,1.4,0,0,1,1-.29,2.65,2.65,0,0,1,2,1.65,6.35,6.35,0,0,1,.68,3c0,2.17-1.15,4.21-2.71,4.67a2.06,2.06,0,0,1-1.73-.27C515.12,337.18,515.06,336.94,515.09,336.92Z"/><path class="cls-7" d="M516.08,320.41a3.54,3.54,0,0,1-.66-.36c-.41-.26-1-.61-1.81-1.15a36.28,36.28,0,0,1-5.85-5.29,102.27,102.27,0,0,1-7.15-9.23,84.21,84.21,0,0,0-8.94-11.06,33.82,33.82,0,0,0-5.76-4.53,28.44,28.44,0,0,0-6.23-2.81,31.2,31.2,0,0,0-11.47-1.4,29.91,29.91,0,0,0-7.69,1.5c-.89.27-1.55.57-2,.74a4.86,4.86,0,0,1-.71.25,3.76,3.76,0,0,1,.66-.34,17.55,17.55,0,0,1,2-.83,28.06,28.06,0,0,1,7.72-1.66,30.68,30.68,0,0,1,11.64,1.31,28.57,28.57,0,0,1,6.34,2.83A34.09,34.09,0,0,1,492,293a82.13,82.13,0,0,1,9,11.15,109.79,109.79,0,0,0,7,9.26,40.49,40.49,0,0,0,5.7,5.37c.74.56,1.36.93,1.75,1.22A6.88,6.88,0,0,1,516.08,320.41Z"/><path class="cls-3" d="M513.35,323.46c.17,2.94.31,6-1.06,8.66s-4.81,4.39-7.38,2.93c-2.1-1.2-2.73-3.87-3.08-6.24-1-6.86-1.5-13.79-2.59-20.64Z"/><path class="cls-7" d="M458.51,287.56c0,.06,1-.18,2.69-.23a18.57,18.57,0,0,1,7.17,1.3,23.84,23.84,0,0,1,4.49,2.29,50.23,50.23,0,0,1,4.63,3.52,55.64,55.64,0,0,1,9.07,9.72c1.37,1.92,2.59,3.89,3.91,5.72a27.52,27.52,0,0,0,4.34,4.85,48.28,48.28,0,0,0,9.15,6.09c2.78,1.45,5.09,2.47,6.69,3.18l1.85.78a3.91,3.91,0,0,0,.66.24,2.85,2.85,0,0,0-.61-.35l-1.8-.89c-1.57-.77-3.85-1.84-6.58-3.34a50,50,0,0,1-9-6.13,26.91,26.91,0,0,1-4.22-4.78c-1.3-1.8-2.52-3.78-3.91-5.72a53.9,53.9,0,0,0-9.2-9.79,46.87,46.87,0,0,0-4.72-3.52,23.36,23.36,0,0,0-4.61-2.27,17.86,17.86,0,0,0-7.33-1.14,12.18,12.18,0,0,0-2,.28A2.7,2.7,0,0,0,458.51,287.56Z"/><path class="cls-5" d="M545,416.71,577.11,451c5.31,5.65,9.16,10.81,16.67,12.78,5.27,1.38,13.53.66,16.26-2.81,3.74-4.76,5.52-14.52,1.43-20.81s-32.88-34.29-32.88-34.29L545,416.71"/><path class="cls-4" d="M589.49,413.74s-33.4-39.62-46.1-39.62c0,0-8,14.05-8.29,21.71s25.69,43.52,25.69,43.52Z"/><path class="cls-4" d="M553.92,426.62,543.31,374,509,373.68c-12.65,14.3-25.58,24.55-40.3,8.09L432.49,396l9.4,51.08L551,447C555.22,433,553.92,426.62,553.92,426.62Z"/><path class="cls-4" d="M408.16,447c0-2.11,12.11-46,24.33-51l9.44,14.49L444.59,447Z"/><path class="cls-3" d="M560.79,439.35a6.89,6.89,0,0,1-.89-1c-.55-.66-1.32-1.63-2.26-2.84-1.88-2.41-4.39-5.8-7.18-9.54s-5.39-7.06-7.33-9.42c-1-1.18-1.76-2.13-2.32-2.78a5.64,5.64,0,0,1-.81-1.05,6.71,6.71,0,0,1,1,.92c.61.61,1.44,1.52,2.45,2.67,2,2.3,4.67,5.61,7.46,9.35s5.26,7.16,7.07,9.63l2.12,2.93A6.52,6.52,0,0,1,560.79,439.35Z"/><path class="cls-3" d="M437.5,447.52a5.4,5.4,0,0,1-.39-1.26c-.23-.82-.5-2-.79-3.52a72.46,72.46,0,0,1-.59-23.69c.22-1.51.43-2.73.61-3.56a7.28,7.28,0,0,1,.33-1.28,5.85,5.85,0,0,1-.13,1.32c-.12.84-.28,2.06-.45,3.56a85.8,85.8,0,0,0,.59,23.59c.24,1.49.46,2.7.62,3.53A7.21,7.21,0,0,1,437.5,447.52Z"/><path class="cls-3" d="M436.47,383.59c0,.13.38.24,1.07.22a7.75,7.75,0,0,0,2.95-.76,12.36,12.36,0,0,0,3.89-2.89,15.68,15.68,0,0,0,3.25-5.54,27.3,27.3,0,0,0,1.36-7.48c.15-2.69.1-5.48,0-8.43-.23-5.9-.93-12.32-1.71-19s-1.5-13-1.79-18.73a106.94,106.94,0,0,1,.19-15.2c.76-8.63,2.57-13.79,2-14-.13,0-.37.22-.72.79-.17.28-.37.64-.6,1.07s-.43.95-.67,1.53a48.17,48.17,0,0,0-2.85,10.25,83.17,83.17,0,0,0-1.09,15.7c.09,5.92.71,12.37,1.49,19.06s1.59,13,2,18.75c.2,2.86.38,5.61.38,8.1a27.31,27.31,0,0,1-.74,6.75,13.82,13.82,0,0,1-5.15,7.9C437.81,383,436.42,383.26,436.47,383.59Z"/><path class="cls-6" d="M472.7,345.7a5,5,0,0,1,4.38-2,4.6,4.6,0,0,1,3.2,1.55,2.85,2.85,0,0,1,.34,3.26,3.35,3.35,0,0,1-3.58,1.05,10.53,10.53,0,0,1-3.6-1.95,3.09,3.09,0,0,1-.82-.79.91.91,0,0,1,0-1"/><path class="cls-3" d="M479.46,340.72c-.45,0-.34,3-2.82,5.18s-5.68,2-5.68,2.42c0,.19.73.55,2.08.54a7.48,7.48,0,0,0,4.75-1.86,6.42,6.42,0,0,0,2.17-4.33C480,341.42,479.67,340.7,479.46,340.72Z"/><path class="cls-3" d="M531.31,328.38c3.79,13.76.57,32.14,4.32,43.18s6.47,23.3,2.23,34.17q-2.91-6.42-5.83-12.84a16.46,16.46,0,0,1-1.26,15.9c-3.12,4.61-18.84,8.54-24.42,8.27-5.65-29.81-4.09-52.61,5.67-75.66l7.53,8.33,6.79-2.91Z"/><path class="cls-7" d="M471.86,324.87a20.29,20.29,0,0,1,.49-3.13,12.14,12.14,0,0,1,1.44-3.39,12.85,12.85,0,0,1,15.39-5.4,12,12,0,0,1,3.23,1.73,15,15,0,0,1,1.44,1.22,14.69,14.69,0,0,1,1.25,1.47,12.58,12.58,0,0,1,0,15,14.69,14.69,0,0,1-1.25,1.47,13.68,13.68,0,0,1-1.44,1.22,12.36,12.36,0,0,1-3.23,1.74,12.92,12.92,0,0,1-6.72.56,12.89,12.89,0,0,1-8.67-6,12,12,0,0,1-1.44-3.39,20.29,20.29,0,0,1-.49-3.13,1.66,1.66,0,0,0,0,.21c0,.16,0,.36,0,.61a6.53,6.53,0,0,0,.08,1,10.68,10.68,0,0,0,.25,1.35,12,12,0,0,0,1.41,3.47,13,13,0,0,0,8.8,6.18,13.17,13.17,0,0,0,6.9-.54,12.64,12.64,0,0,0,3.34-1.77,16,16,0,0,0,1.49-1.26,14.65,14.65,0,0,0,1.3-1.52,13,13,0,0,0,0-15.46,14.65,14.65,0,0,0-1.3-1.52,16,16,0,0,0-1.49-1.26,12.64,12.64,0,0,0-3.34-1.77,13.28,13.28,0,0,0-6.9-.54,13,13,0,0,0-8.8,6.18,11.92,11.92,0,0,0-1.41,3.48,10.24,10.24,0,0,0-.25,1.34,6.63,6.63,0,0,0-.08,1c0,.25,0,.45,0,.61A1.66,1.66,0,0,0,471.86,324.87Z"/><path class="cls-7" d="M442.78,324.31a20.65,20.65,0,0,1,.48-3.12,12.25,12.25,0,0,1,1.45-3.4,12.91,12.91,0,0,1,8.67-6,13,13,0,0,1,6.71.57,11.89,11.89,0,0,1,3.23,1.73,15.11,15.11,0,0,1,1.45,1.22,14.81,14.81,0,0,1,1.25,1.48,12.57,12.57,0,0,1,0,15,13.65,13.65,0,0,1-1.25,1.47,15.22,15.22,0,0,1-1.45,1.23,12.17,12.17,0,0,1-3.23,1.73,12.89,12.89,0,0,1-6.71.56,12.83,12.83,0,0,1-8.67-6,12.08,12.08,0,0,1-1.45-3.39,20.66,20.66,0,0,1-.48-3.13.67.67,0,0,0,0,.21c0,.17,0,.37,0,.62a5.43,5.43,0,0,0,.08,1,8.79,8.79,0,0,0,.24,1.35,12.46,12.46,0,0,0,1.41,3.47,12.83,12.83,0,0,0,3.3,3.72,13.05,13.05,0,0,0,5.5,2.47,13.22,13.22,0,0,0,6.91-.55,12.15,12.15,0,0,0,3.33-1.77,13.71,13.71,0,0,0,1.5-1.26,14.45,14.45,0,0,0,1.29-1.51,12.93,12.93,0,0,0,0-15.47,14.45,14.45,0,0,0-1.29-1.51,13.71,13.71,0,0,0-1.5-1.26,12.15,12.15,0,0,0-3.33-1.77,13.18,13.18,0,0,0-6.9-.55,13.09,13.09,0,0,0-8.81,6.19,12.46,12.46,0,0,0-1.41,3.47,8.9,8.9,0,0,0-.24,1.34,5.53,5.53,0,0,0-.08,1c0,.25,0,.45,0,.62A.63.63,0,0,0,442.78,324.31Z"/><path class="cls-7" d="M468.45,322.71c.06,0,.21-.16.51-.39a2.54,2.54,0,0,1,1.33-.53,2.62,2.62,0,0,1,1.4.31c.33.18.51.36.56.32s-.07-.28-.4-.55a2.27,2.27,0,0,0-3.09.24C468.48,322.43,468.41,322.69,468.45,322.71Z"/><path class="cls-7" d="M497.36,321.58c0,.11,3.49.94,7.85,1.86s7.92,1.56,7.94,1.45a162.71,162.71,0,0,0-15.79-3.31Z"/><path class="cls-8" d="M491.4,333.9a2,2,0,0,0,.77-.32,7,7,0,0,0,1.71-1.54,11.49,11.49,0,0,0,1.71-2.93,11.77,11.77,0,0,0,.75-4.09,12.51,12.51,0,0,0-2.21-7.12,10.75,10.75,0,0,0-1.48-1.73,3,3,0,0,0-.67-.52,22.41,22.41,0,0,1,1.91,2.41,13.05,13.05,0,0,1,2,7,12.08,12.08,0,0,1-.69,4,11.75,11.75,0,0,1-1.59,2.88,7.74,7.74,0,0,1-1.57,1.58C491.65,333.75,491.38,333.87,491.4,333.9Z"/><path class="cls-8" d="M485.7,335.92a4.65,4.65,0,0,0,2.33-.34,4.84,4.84,0,0,0,2.09-1.08,13,13,0,0,0-2.22.69A13.35,13.35,0,0,0,485.7,335.92Z"/><path class="cls-8" d="M455.41,313.06c0,.07.88.07,2.25.37a13.13,13.13,0,0,1,4.93,2.21,13,13,0,0,1,3.57,4c.69,1.21,1,2.05,1,2s0-.22-.12-.6a10.77,10.77,0,0,0-.64-1.56,12,12,0,0,0-8.7-6.38A10.23,10.23,0,0,0,456,313,2.07,2.07,0,0,0,455.41,313.06Z"/><path class="cls-8" d="M466.53,327.81a4.95,4.95,0,0,0,.75-4.2,18.23,18.23,0,0,0-.3,2.11A17.91,17.91,0,0,0,466.53,327.81Z"/><path class="cls-3" d="M495.68,420.5c.23.14,1.06-.65,2.22-2.34a34.36,34.36,0,0,0,3.82-7.78,62,62,0,0,0,2.91-12.48,151.36,151.36,0,0,0,1.11-15.45c.17-5.43.32-10.56.72-15.17a83.38,83.38,0,0,1,1.81-12.11c1.55-6.78,3.65-10.68,3.08-11-.22-.14-1,.67-2.18,2.38a35.31,35.31,0,0,0-3.69,7.83,62.33,62.33,0,0,0-2.78,12.5c-.62,4.76-.89,10-1.06,15.44s-.34,10.55-.77,15.16a81.5,81.5,0,0,1-1.93,12.07C497.3,416.31,495.12,420.17,495.68,420.5Z"/><path class="cls-1" d="M519.88,340.49s.25.22.61.66a4.18,4.18,0,0,1,.88,2.18,3.82,3.82,0,0,1-1.16,3.17,4.19,4.19,0,0,1-3.93,1.1,4.5,4.5,0,0,1-3.11-2.71,4.94,4.94,0,0,1,0-3.44,3.24,3.24,0,0,1,1.46-1.81,2.66,2.66,0,0,1,.84-.22s-.07,0-.23-.05a1.5,1.5,0,0,0-.68.13,3.24,3.24,0,0,0-1.66,1.85,5,5,0,0,0-.08,3.67,4.78,4.78,0,0,0,3.36,3,4.44,4.44,0,0,0,2.4-.06,4.73,4.73,0,0,0,1.9-1.17,4.33,4.33,0,0,0,1-1.72,4,4,0,0,0,.13-1.74,4.18,4.18,0,0,0-1-2.26A2.06,2.06,0,0,0,519.88,340.49Z"/><path class="cls-5" d="M588.41,370.12l-1-13-2.67-16.47-4.14-13.49s-.84-1.28-2.48-.07.69,8.56.69,8.56l.89,5.63s-.55,4.47-.92,4.14-2.3-7.85-2.3-7.85l-5-16a2.21,2.21,0,0,0-2.9-.83c-1.09.47-1.65,2.17-1.24,4.59s1.91,6.39,2.17,7.76,2,9.24,2,9.24L564,324.52s-1.68-5.85-4.08-4.73-.28,5.23,0,7.06,5.28,13.93,5.35,17.44-.67,1.83-.67,1.83l-3.7-10c-1.63-4.4-3.64-6.84-5.65-7s1.78,10.09,1.78,10.09l4.93,14.3-.33,4.75L558,354.46s-.69-5.49-4.4-7.41-4.32.75-4.32.75L558,368.4c1.9,3.32,12.51,9,12.51,9l4.08,21.16,22.17-3.69Z"/><path class="cls-6" d="M579.88,363.26c-.1.12-1.25-.82-3.2-2.13s-4.9-3-8.38-2.44a6.44,6.44,0,0,0-3.81,1.86l-.34.36-.36-.39c-1.61-1.69-3.29-3.14-4.32-4.2s-1.61-1.78-1.52-1.86a12.54,12.54,0,0,1,1.9,1.45,61.43,61.43,0,0,1,4.66,4.06l-.7,0a7.21,7.21,0,0,1,4.34-2.21,10,10,0,0,1,5.26.68,15.88,15.88,0,0,1,3.68,2.16A11.28,11.28,0,0,1,579.88,363.26Z"/><polygon class="cls-5" points="583.09 445.88 571.23 379.95 589.18 372.17 613.4 444.84 583.09 445.88"/><path class="cls-6" d="M584.76,446.49a16.33,16.33,0,0,1-.8-2.66c-.45-1.73-1.08-4.23-1.81-7.34-1.46-6.22-3.34-14.83-5.27-24.38s-3.58-18.21-4.72-24.49c-.53-3-1-5.54-1.3-7.44a16.46,16.46,0,0,1-.36-2.75,16.8,16.8,0,0,1,.69,2.69l1.57,7.39c1.29,6.39,3,15,5,24.44s3.71,18,5,24.41c.63,3,1.15,5.51,1.54,7.4A16.37,16.37,0,0,1,584.76,446.49Z"/><path class="cls-2" d="M548.9,111a27.84,27.84,0,0,0-10.78,2.16,14.12,14.12,0,0,1-5.41,1.12l-7.08-.41-.35-59.44A9.66,9.66,0,0,0,515.36,45l-7.86,0H338.58a9.5,9.5,0,0,0-9.6,9.39v59.05h-4.22a13,13,0,0,1-5.64-1.32c-4.46-2.17-12.79-4.94-18.46-4C289.39,110,278,121.37,278,132.54,278,151.27,292.62,163,307.9,163a26.23,26.23,0,0,0,10.44-2.15,10.52,10.52,0,0,1,4.63-1.11h6V218.2a9.5,9.5,0,0,0,9.6,9.39H515A9.66,9.66,0,0,0,525,218.2l.32-60.81,6.2.43a14.11,14.11,0,0,1,5.83,1.32,27.94,27.94,0,0,0,16.2,2.14c11.64-1.87,20.72-11,22-22.11C577.28,123.9,564.68,111,548.9,111Z"/><path class="cls-3" d="M548.9,111l1.81.07,1,0c.37,0,.77.11,1.22.17l1.43.22a16.42,16.42,0,0,1,1.62.39,26.67,26.67,0,0,1,16.35,12.06,22.52,22.52,0,0,1,1.56,3.15,23.82,23.82,0,0,1,1.17,3.52,19.13,19.13,0,0,1,.36,1.89c.06.32.12.64.17,1s0,.66.07,1c0,.67.09,1.34.1,2l-.12,2.07a24,24,0,0,1-2.3,8.39,25.58,25.58,0,0,1-5.64,7.57,27.64,27.64,0,0,1-19.28,7.3,28.08,28.08,0,0,1-11.23-2.53,14,14,0,0,0-5.77-1.29l-6.17-.43.17-.16c0,9.67-.09,20-.14,30.81q0,8.15-.07,16.71c0,2.85,0,5.74,0,8.65q0,2.19,0,4.41a9.24,9.24,0,0,1-1,4.39,10.12,10.12,0,0,1-7.2,5.26,29.93,29.93,0,0,1-4.63.18H448.48l-87.7,0H340.47c-1,0-2,0-3-.06a10,10,0,0,1-5.45-2.36,9.59,9.59,0,0,1-3.09-5.11,12.76,12.76,0,0,1-.25-3V159.73l.26.26h-6.19a9,9,0,0,0-3,.56c-1,.34-1.95.82-3,1.17a26,26,0,0,1-6.37,1.41,20.22,20.22,0,0,1-3.3.09,26.06,26.06,0,0,1-3.3-.27,30.1,30.1,0,0,1-22.44-15.34,31.33,31.33,0,0,1-3.61-13.31,18.08,18.08,0,0,1,.69-6.86,23.75,23.75,0,0,1,1.19-3.24,30.14,30.14,0,0,1,1.68-3,27.48,27.48,0,0,1,4.32-5.28,30.41,30.41,0,0,1,5.32-4.21,27.41,27.41,0,0,1,6.08-2.91,18.17,18.17,0,0,1,6.61-1.09,39.93,39.93,0,0,1,12.86,3c1,.4,2,.87,3,1.33a13,13,0,0,0,3,1,15.38,15.38,0,0,0,3.19.21H329l-.25.25c0-19.41,0-38.33,0-56.66,0-1.15-.05-2.27.06-3.45a9.23,9.23,0,0,1,1-3.33,9.84,9.84,0,0,1,5.08-4.54,9.51,9.51,0,0,1,3.37-.68c1.14,0,2.25,0,3.37,0h32.78l93.66,0,39.45,0,4.54,0h2.24a18.69,18.69,0,0,1,2.24.07,10.12,10.12,0,0,1,7.29,4.36,9.21,9.21,0,0,1,1.49,3.94c.15,1.41.07,2.75.1,4.11q0,4,0,7.89c.1,20.55.17,37,.23,48.6l-.08-.07,5.64.34a13.38,13.38,0,0,0,4.8-.34c1.44-.36,2.66-1,3.84-1.36a26.52,26.52,0,0,1,3.2-.87,28.42,28.42,0,0,1,4.35-.54c1,0,1.44,0,1.44,0l-1.44.06a29.35,29.35,0,0,0-4.33.58,31.65,31.65,0,0,0-3.19.88c-1.17.37-2.38,1-3.84,1.38a13.38,13.38,0,0,1-4.84.37l-5.64-.33h-.07v-.07c-.08-11.63-.2-28.06-.35-48.61,0-2.56,0-5.2-.05-7.89,0-1.34,0-2.73-.1-4.07a9.06,9.06,0,0,0-1.45-3.81,9.83,9.83,0,0,0-7.08-4.21,17.78,17.78,0,0,0-2.2-.07h-2.24l-4.54,0-39.45,0-93.66,0H341.65c-2.23,0-4.52-.22-6.56.67a9.3,9.3,0,0,0-4.83,4.31,8.75,8.75,0,0,0-1,3.16c-.1,1.09,0,2.26-.06,3.4,0,18.33,0,37.25,0,56.66v.25h-3.48a15.82,15.82,0,0,1-3.28-.21,13.56,13.56,0,0,1-3.15-1c-1-.47-2-.91-3-1.31a39.2,39.2,0,0,0-12.68-3,17.57,17.57,0,0,0-6.44,1.07,26.42,26.42,0,0,0-6,2.86,29.31,29.31,0,0,0-5.23,4.14,33,33,0,0,0-2.28,2.45,31,31,0,0,0-2,2.74,29,29,0,0,0-1.65,2.93,22.59,22.59,0,0,0-1.16,3.16,17.75,17.75,0,0,0-.67,6.69,30.78,30.78,0,0,0,3.55,13.1,29.57,29.57,0,0,0,22,15.06,25.13,25.13,0,0,0,3.24.27,21.89,21.89,0,0,0,3.24-.08,26,26,0,0,0,6.25-1.39c1-.34,1.95-.81,3-1.17a9.42,9.42,0,0,1,3.18-.59h6.46v57.85a12.06,12.06,0,0,0,.24,2.89,9,9,0,0,0,2.92,4.83,9.42,9.42,0,0,0,5.18,2.25c.94.08,1.93.05,2.9.05h20.31l87.7,0h63.85a29.72,29.72,0,0,0,4.55-.17,9.65,9.65,0,0,0,6.91-5,8.67,8.67,0,0,0,1-4.2l0-4.41c0-2.92,0-5.8.05-8.66q0-8.55.09-16.7.11-16.27.18-30.82v-.17h.18l6.16.43a14.25,14.25,0,0,1,5.89,1.33,27.68,27.68,0,0,0,11.11,2.52,27.29,27.29,0,0,0,19.09-7.19,25.38,25.38,0,0,0,5.6-7.48,23.54,23.54,0,0,0,2.3-8.31c0-.69.09-1.37.13-2.05s-.07-1.34-.1-2c0-.33,0-.66-.06-1s-.11-.64-.17-1c-.12-.63-.18-1.27-.35-1.88a24.2,24.2,0,0,0-1.16-3.49A21.52,21.52,0,0,0,572.2,124,26.65,26.65,0,0,0,556,112c-.57-.14-1.1-.32-1.61-.4l-1.43-.23c-.44-.06-.85-.14-1.22-.18l-1-.06Z"/><path class="cls-4" d="M511.22,210.89c-.71-1.64-2.47-6.6-3.8-7.81-5.94-5.41-11.78-6.78-18.31-11.46l1.32,52.83c1.94,2.83,6.1,2.49,9.33,1.31s5.65-3.93,7.32-6.93a41.25,41.25,0,0,0,5.53-19.19A26.24,26.24,0,0,0,511.22,210.89Z"/><path class="cls-4" d="M460.22,157.24c-6.28-3.85-26.85-7.51-31.47-7.92L423,144.6l-40.58-2.45-6,8.21-20.8,5.53a28.06,28.06,0,0,0-14,8.82l-12.38,9.74,0,42.18c0,6.49,3.31,10.81,9.8,10.81l124.69-.31c7.63,13.41,17.3,20.53,33.64,19.38l-2.43-54.39S469.05,162.65,460.22,157.24Z"/><path class="cls-3" d="M464.06,177.51a1.56,1.56,0,0,1,.08.5l.15,1.44c.11,1.25.24,3.07.37,5.31.26,4.49.45,10.7.35,17.57s-.44,13.06-.71,17.55c-.15,2.18-.27,4-.36,5.31-.05.58-.1,1.05-.13,1.44a2,2,0,0,1-.08.5,1.61,1.61,0,0,1,0-.5c0-.39,0-.87,0-1.45,0-1.34.12-3.13.2-5.32.18-4.49.45-10.69.56-17.54s0-13-.19-17.54c-.09-2.19-.16-4-.22-5.32,0-.58,0-1.06,0-1.45A1.48,1.48,0,0,1,464.06,177.51Z"/><path class="cls-3" d="M361,215.42c-.14,0-2.88-9.26-6.11-20.76s-5.75-20.86-5.61-20.9,2.87,9.25,6.11,20.76S361.08,215.38,361,215.42Z"/><path class="cls-3" d="M414.69,174.16s-.1,0-.28-.11l-.78-.38c-.67-.34-1.65-.87-2.86-1.59a62.33,62.33,0,0,1-9.44-7l.37-.2a49.24,49.24,0,0,1,.62,12.08l0,.45-.37-.25L400,175.87l-1.95-1.43a83.76,83.76,0,0,1-16.37-16.57c-1.77-2.41-3.07-4.45-3.94-5.87-.43-.72-.75-1.29-1-1.67a2.86,2.86,0,0,1-.3-.6,3.57,3.57,0,0,1,.39.55l1,1.61c.92,1.39,2.26,3.39,4.07,5.76A87.71,87.71,0,0,0,398.37,174l1.93,1.43,1.91,1.33-.4.19a50,50,0,0,0-.55-12l-.11-.64.48.43a68.25,68.25,0,0,0,9.27,7c1.19.76,2.15,1.32,2.8,1.7A8.7,8.7,0,0,1,414.69,174.16Z"/><path class="cls-3" d="M428.26,149.32a1.78,1.78,0,0,1,.07.49c0,.31.06.79.09,1.39.05,1.22.07,3,0,5.16a67.27,67.27,0,0,1-.8,7.61c-.23,1.43-.51,2.91-.87,4.44A14.9,14.9,0,0,1,425,173a7.19,7.19,0,0,1-2.29,2.27l-.4.24V175c.08-4,.17-7.75.23-10.89l.41.09a45.38,45.38,0,0,1-3.5,6.39,13.72,13.72,0,0,1-1.23,1.6,2.71,2.71,0,0,1-.52.48,2.83,2.83,0,0,1,.42-.56,19,19,0,0,0,1.13-1.65,51.56,51.56,0,0,0,3.31-6.43l.42-.95v1c0,3.15-.09,6.86-.15,10.9l-.39-.23a6.67,6.67,0,0,0,2.12-2.11,15,15,0,0,0,1.73-4.41c.36-1.51.65-3,.89-4.4a74,74,0,0,0,.9-7.55c.14-2.16.17-3.92.18-5.13A17.49,17.49,0,0,1,428.26,149.32Z"/><path class="cls-3" d="M496.87,235.43a9.06,9.06,0,0,1-1.45.45,23.47,23.47,0,0,1-4.1.63,21.92,21.92,0,0,1-6.16-.44,18,18,0,0,1-3.48-1.11,13.35,13.35,0,0,1-3.38-2.05,10.4,10.4,0,0,1-2.39-3.15,16.24,16.24,0,0,1-1.3-3.43,24.61,24.61,0,0,1-.72-6.13c0-1.75.1-3.17.17-4.14a9.15,9.15,0,0,1,.18-1.51,8.62,8.62,0,0,1,0,1.52c0,1-.06,2.39,0,4.12a25.86,25.86,0,0,0,.81,6,16.84,16.84,0,0,0,1.29,3.32,10.16,10.16,0,0,0,2.28,3,15.88,15.88,0,0,0,6.63,3.08,22.06,22.06,0,0,0,6,.54A49.15,49.15,0,0,0,496.87,235.43Z"/><path class="cls-3" d="M479.56,196.34c.05.09-1.3,1-3.18,2.74a29,29,0,0,0-3,3.35,32.29,32.29,0,0,0-2.95,4.67,33.41,33.41,0,0,0-2,5.14,29.53,29.53,0,0,0-.92,4.43c-.32,2.56-.23,4.17-.33,4.17a4.19,4.19,0,0,1-.12-1.12,11.22,11.22,0,0,1,0-1.33c0-.52,0-1.11.11-1.76a26,26,0,0,1,.82-4.52,31.5,31.5,0,0,1,2-5.25,30.35,30.35,0,0,1,3.05-4.73,27.16,27.16,0,0,1,3.16-3.33c.47-.45,1-.79,1.36-1.11a10.4,10.4,0,0,1,1.09-.77A4.81,4.81,0,0,1,479.56,196.34Z"/><path class="cls-9" d="M480,196.63l9-60.54,16.32,2.49s3.85,50.88,3.14,66.37c-.22,4.84.11,13-3.16,18.24-5.6,9-22,9.05-27.09-.28h0c-2.64-4-1.5-9.6-.94-12.46Z"/><path class="cls-9" d="M506.75,142.14l2.75-12,2.24-15.58.08-13.31s-.4-1.39-2.2-.75-1.79,7.9-1.79,7.9l-.79,5.32s-1.75,3.87-2,3.47.15-7.71.15-7.71l.08-15.83A2.08,2.08,0,0,0,502.91,92c-1.1.13-2.08,1.51-2.4,3.79s-.08,6.3-.23,7.61-.77,8.89-.77,8.89l-1.78-18.09s.14-5.74-2.33-5.39-1.72,4.63-1.95,6.37.82,14-.1,17.2-1.12,1.47-1.12,1.47l-.51-10c-.22-4.42-1.34-7.18-3.1-7.85s-1.25,9.59-1.25,9.59l.4,14.26L486.15,124l-2.27-4.51s.92-5.14-1.86-7.91-4.08-.53-4.08-.53l2.05,21c.77,3.52,8.67,11.63,8.67,11.63l-2.29,20.2,20.89,2.87Z"/><path class="cls-10" d="M500.93,134a21.45,21.45,0,0,1-2.26-2.81c-1.36-1.66-3.56-4-6.83-4.54a6.11,6.11,0,0,0-3.93.61l-.4.23-.22-.45c-1-2-2.07-3.74-2.68-5s-.95-2.06-.85-2.1a12,12,0,0,1,1.3,1.83c.76,1.22,1.89,2.77,3,5l-.61-.22a6.71,6.71,0,0,1,4.5-.77,9.32,9.32,0,0,1,4.52,2.08,14.81,14.81,0,0,1,2.68,3A10.82,10.82,0,0,1,500.93,134Z"/><path class="cls-9" d="M382.31,214.11c-2.86-2.52-7.49,3.54-7.49,3.54-.89-1.89-6.87-1.67-7.8,1-.6-1.39-.49-2.24-1.74-3.1a4.79,4.79,0,0,0-4.31-.68,3.44,3.44,0,0,0-2.27,3.53,5.67,5.67,0,0,0-10.09,2.6,2.36,2.36,0,0,0-.07.79.82.82,0,0,0,.15.33c.31.48.7.89,1,1.39a6.36,6.36,0,0,1,.3.58,11,11,0,0,1,.84,2.81,10.41,10.41,0,0,0,.18,1.38,5.51,5.51,0,0,0,.46.78c.89,1.7.91,3.81,1,5.67.12,2.11.35,4.34,1.6,6s3.91,2.53,5.53,1.18a2.75,2.75,0,0,0,2.33,2.82,4,4,0,0,0,3.56-1.46,7.39,7.39,0,0,0,1.52-3.68,3.05,3.05,0,0,0,3.29,2.67,4.7,4.7,0,0,0,3.63-2.7,10.73,10.73,0,0,0,.93-4.6c0-1.57.73-6.11,1-7.67h3.5l.68-1.7c1-2.7,1.84-4.42,2.6-6.86C383.19,217,383.5,215.16,382.31,214.11Z"/><path class="cls-9" d="M343.05,220.3a4.55,4.55,0,0,0-3.47,1.5c-.92,1.24-.86,4.12-.61,5.64,0,.05,4.49,0,4.49,0h1.12c.88.51.87,2.38,1.28,3.31a3.47,3.47,0,0,0,4.53,1.48,4.66,4.66,0,0,0,2.44-4.38,7.2,7.2,0,0,0-2.26-4.67A10,10,0,0,0,343.05,220.3Z"/><path class="cls-10" d="M358.68,217.91c.34,0,.82,5.36,1.07,12s.18,12-.16,12.05-.81-5.36-1.07-12S358.34,217.92,358.68,217.91Z"/><path class="cls-10" d="M367,218.31c.32,0,1.19,4.81,1.2,10.88s-.82,10.92-1.14,10.88-.06-4.9-.08-10.88S366.69,218.35,367,218.31Z"/><path class="cls-10" d="M375.2,218.7c.35,0,.85,4,.66,9s-.6,9-.92,9-.49-4.06-.31-9S374.87,218.72,375.2,218.7Z"/><path class="cls-10" d="M345.71,220.91c0-.15.83-.42,2.13,0a6.74,6.74,0,0,1,3.64,3.57,13.59,13.59,0,0,1,1.26,4.87c0,1.5-1.05,2-1.09,1.84s.43-.69.23-1.79a24.32,24.32,0,0,0-1.5-4.39,7.31,7.31,0,0,0-2.9-3.31C346.48,221.16,345.71,221.09,345.71,220.91Z"/><path class="cls-3" d="M409.8,27a8,8,0,0,0-9.09-6.84,10.21,10.21,0,0,0-13.49-4.12c-2.18,1.21-3.83,3.21-6,4.51s-4.44,1.8-6.61,2.83-4.23,2.83-4.5,5.21c-.3,2.65,1.8,5.1,4.28,6.08s5.23.86,7.9.71a2.76,2.76,0,0,0-.82,3.56,5.51,5.51,0,0,0,3.06,2.47A12.14,12.14,0,0,0,397,39.12l5-3.82A8,8,0,0,0,409.8,27Z"/><path class="cls-4" d="M397.36,43.66a2.63,2.63,0,0,1-3.51-.06A3.57,3.57,0,0,1,393,40a5.63,5.63,0,0,1,2.38-3,13.32,13.32,0,0,1,3.56-1.5,25.16,25.16,0,0,1,5.87-1.12,4.75,4.75,0,0,1,2.09.26,2,2,0,0,1,1.28,1.57c.08,1-.79,1.77-1.59,2.37a62.58,62.58,0,0,1-9.51,5.77"/><path class="cls-3" d="M394.44,43.15C389.72,37.89,378,38.59,375.16,42a9,9,0,0,0-11.75,3.82l-12.52,2.64c-2.13.45-4.36,1-6,2.38s-2.44,4.11-1.1,5.83c-4.41,1.11-6.18,7.65-2.93,10.84a4.74,4.74,0,0,0,.65,6.86,47.43,47.43,0,0,0-8.15,13.85c-.79,2.11-1.44,4.47-.67,6.58s3.54,3.6,5.38,2.29a5.54,5.54,0,0,0-.31,6c-2.11,0-2.76,3.3-1.32,4.85s3.8,1.73,5.91,1.69,4.41-.13,6.13,1.09a1.93,1.93,0,0,1-.69,1.34,8.69,8.69,0,0,0-2,11.83l.69,1c1.21,1.75,4.23,3.36,6.11,4.36,4.76,2.52,7.61,2.07,12.94,2.88-1.48,3.43,7.13,11.12,17.1,3.69,19.75,5.46,34,7.58,54.49,7.78,2.92,0,6.44-.34,7.76-3a7.22,7.22,0,0,0,6.69-2.14,21.33,21.33,0,0,0,4-6.15,12.71,12.71,0,0,0,9.25-11.41,15.71,15.71,0,0,0,6-11.15c4.93-1.47,7.69-7.84,5.38-12.44A55.62,55.62,0,0,0,470.19,80c3.35-.7,4.65-5.21,3.29-8.36s-4.39-5.19-7.27-7c2.5.68,4.71-2.45,4.13-5s-2.84-4.28-5-5.63a47.46,47.46,0,0,0-10.36-4.71c-1.16-4.42-6.76-9.48-10.88-11.46-16.6-8-28.26-10.08-49.61,5.32"/><path class="cls-9" d="M381.61,69.88c-.22-3.5-.8-7,2.66-7.5l35.41-10.67c11.42-1.74,19.69,12,20.94,23.52,1.38,12.76,2.57,28.38,1.49,38a29.23,29.23,0,0,1-19.21,24.52s.44,11.72.44,11.72c-1.48,9-3.75,19.17-7.42,22.78-12.52-2.34-33-29.88-33-29.88Z"/><path class="cls-3" d="M422.08,104.41c0-.15,1.61-.51,4.27-1,.67-.1,1.3-.27,1.4-.73a3.47,3.47,0,0,0-.55-2L425,95.66c-3.11-7.2-5.39-13.14-5.1-13.26S422.92,88,426,95.22c.75,1.78,1.46,3.47,2.15,5.09a3.93,3.93,0,0,1,.47,2.64,1.7,1.7,0,0,1-1.07,1,4.48,4.48,0,0,1-1.14.21C423.76,104.47,422.1,104.56,422.08,104.41Z"/><path class="cls-10" d="M422.9,137.75s-10.44-.67-23.58-7.78c0,0,4.45,12.11,23.74,13.59Z"/><path class="cls-3" d="M410.77,74.89c-.23.73-2.89.51-6,1s-5.56,1.47-6,.85c-.2-.3.2-1,1.19-1.74a9.92,9.92,0,0,1,4.4-1.77,10.07,10.07,0,0,1,4.73.34C410.27,74,410.87,74.55,410.77,74.89Z"/><path class="cls-3" d="M436.24,74.46c-.43.62-2.29.08-4.48.15s-4,.58-4.49,0c-.2-.29.06-.91.85-1.51a6.47,6.47,0,0,1,7.23-.11C436.15,73.54,436.44,74.15,436.24,74.46Z"/><path class="cls-3" d="M449.25,84.45a13.22,13.22,0,0,0-3.19-8.26,48.24,48.24,0,0,1-3.56-3.44c-2.16-2.83-1.86-6.77-2.78-10.22a14.54,14.54,0,0,0-9-9.75c-3.6-1.28-7.68-1.11-11.06-2.9-2.5-1.32-4.4-3.62-7-4.79-5-2.29-10.82.28-15.55,3.1-.93,3.76,1.45,7,3.74,10.13a13.43,13.43,0,0,0,9.88,5.38c3,.18,6.5-.5,8.61,1.63s1.36,6.22,3.18,8.8c2.61,3.68,8.54,2.28,12.44,4.56,3,1.75,4.27,5.35,5.79,8.49s4.14,6.42,7.62,6.25A39.39,39.39,0,0,0,449.25,84.45Z"/><path class="cls-3" d="M404.64,55a68.08,68.08,0,0,0-25.71,4.65c-2.43,1-4.95,2.16-6.33,4.38-1.22,1.94-1.36,4.36-1.34,6.66.09,7.19,3,16,5.74,22.63l9,5.37c6.92-1.64,3.73-13.58,3.4-19.56a14.13,14.13,0,0,0,8.24-12.48A15.65,15.65,0,0,0,404.64,55Z"/><path class="cls-9" d="M385.86,96.14c-.28-4.11-5.33-4.91-8.86-2.79-1.94,1.17-3.4,3.47-3.14,7.84.67,11.64,12.22,8.56,12.22,8.22S386.18,101,385.86,96.14Z"/><path class="cls-10" d="M382.27,105.21s-.2.15-.53.33a2,2,0,0,1-1.51.12c-1.26-.38-2.41-2.27-2.59-4.37a6.85,6.85,0,0,1,.4-2.94,2.33,2.33,0,0,1,1.44-1.64,1,1,0,0,1,1.23.48c.17.32.11.56.17.57s.24-.21.12-.68a1.23,1.23,0,0,0-.5-.7,1.5,1.5,0,0,0-1.14-.23,2.84,2.84,0,0,0-2,1.92,6.93,6.93,0,0,0-.52,3.29c.21,2.34,1.54,4.47,3.25,4.85a2.18,2.18,0,0,0,1.84-.41C382.26,105.49,382.31,105.23,382.27,105.21Z"/><path class="cls-7" d="M381,110.1l0,.16a1.5,1.5,0,0,1-.16.44,2.68,2.68,0,0,1-1.35,1.21,7,7,0,0,1-2.88.6,8.71,8.71,0,0,1-1.87-.12,6.78,6.78,0,0,1-2-.61l.14-.07a5.79,5.79,0,0,1-9.22,3.68l.2,0a2.38,2.38,0,0,1-1.52,1,3.31,3.31,0,0,1-1.89-.16,3,3,0,0,1-1.52-1.23,4,4,0,0,1-.59-1.91,6,6,0,0,1,1.26-3.89,18.12,18.12,0,0,1,3.07-3l0,.27a4.11,4.11,0,0,1-1.85-2.76,6,6,0,0,1,.33-3.43,9.18,9.18,0,0,1,2-2.91A26.84,26.84,0,0,1,365.87,95l0,.26a4.4,4.4,0,0,1-1.15-3.38A6.35,6.35,0,0,1,366,88.46c1.49-1.91,3.67-3,5.67-4l-.09.2A7.74,7.74,0,0,1,380,75.14l-.18.2a6.66,6.66,0,0,1,1.57-5.66,6.55,6.55,0,0,1,4.91-2.42l-.14.14a6.56,6.56,0,0,1,2.64-5.08A6.37,6.37,0,0,1,393.65,61l-.13.11a6.39,6.39,0,0,1,.94-3A8.19,8.19,0,0,1,396.23,56a6.71,6.71,0,0,1,4-1.72l.43,0,.41,0a7.14,7.14,0,0,1,.74.09,7.05,7.05,0,0,1,1.11.31l.65.28.22.1-.23-.07-.66-.25c-.28-.12-.67-.16-1.1-.28-.23-.05-.47,0-.73-.07l-.41,0-.42,0a6.47,6.47,0,0,0-3.87,1.73,7.86,7.86,0,0,0-1.71,2.11,6.14,6.14,0,0,0-.89,2.88v.13l-.13,0A6.18,6.18,0,0,0,389,62.53a6.25,6.25,0,0,0-2.51,4.87v.15h-.15a6.63,6.63,0,0,0-6.16,7.72l.05.23-.23,0a7.58,7.58,0,0,0-6.27,2.33,7.5,7.5,0,0,0-1.74,6.81l0,.14-.12.06c-2,1-4.13,2-5.55,3.87a5.89,5.89,0,0,0-1.24,3.26,4,4,0,0,0,1,3.11l.14.14-.15.13c-1.9,1.45-3.81,3-4.69,5.09a5.7,5.7,0,0,0-.32,3.23,3.79,3.79,0,0,0,1.69,2.55l.2.12-.18.15a16.77,16.77,0,0,0-3,2.92,5.69,5.69,0,0,0-1.22,3.68,3.13,3.13,0,0,0,1.91,2.89,2.55,2.55,0,0,0,3.08-.74l.08-.12.12.09a5.65,5.65,0,0,0,5.87.55,5.71,5.71,0,0,0,3-4l0-.13.12.06a6.63,6.63,0,0,0,2,.61,9.14,9.14,0,0,0,1.84.14,7.11,7.11,0,0,0,2.84-.54,2.71,2.71,0,0,0,1.34-1.14A5.24,5.24,0,0,0,381,110.1Z"/><path class="cls-7" d="M336.62,97.66a3.88,3.88,0,0,1-.44-.71,6,6,0,0,1-.62-2.3,5.87,5.87,0,0,1,.95-3.65,6.17,6.17,0,0,1,4.22-2.69l-.1.14a8,8,0,0,1,1.05-5.75A7.82,7.82,0,0,1,344,80.28a18.17,18.17,0,0,1,3.18-1.5,6.58,6.58,0,0,0,1.53-.91,4,4,0,0,0,1.06-1.43c.52-1.12.68-2.44,1.34-3.64a7.08,7.08,0,0,1,7.09-3.52l-.2.2A9.32,9.32,0,0,1,368.28,58.9l-.19.19a8.2,8.2,0,0,1,12.74-7.66l-.19,0A11.19,11.19,0,0,1,384.7,49a16.67,16.67,0,0,1,4.18-1,19.68,19.68,0,0,1,6.91.47,13.86,13.86,0,0,1,4.1,1.7,7.2,7.2,0,0,1,.94.69l.31.25s-.43-.33-1.3-.86a14.44,14.44,0,0,0-4.09-1.62,20,20,0,0,0-6.84-.39,16.89,16.89,0,0,0-4.11,1,10.84,10.84,0,0,0-3.95,2.44l-.09.08-.1-.06a7.87,7.87,0,0,0-12.22,7.38l0,.21-.22,0a9,9,0,0,0-9.94,10.18l0,.23-.23,0A6.72,6.72,0,0,0,351.36,73c-.62,1.13-.79,2.44-1.34,3.61a4.19,4.19,0,0,1-1.15,1.54,6.56,6.56,0,0,1-1.6,1,18.63,18.63,0,0,0-3.15,1.46,7.65,7.65,0,0,0-2.21,2.33,7.77,7.77,0,0,0-1.05,5.55l0,.12-.12,0a6,6,0,0,0-4.1,2.56,5.75,5.75,0,0,0-1,3.54,6.13,6.13,0,0,0,.55,2.28C336.47,97.41,336.63,97.65,336.62,97.66Z"/><path class="cls-7" d="M448,100.8a1.13,1.13,0,0,1-.05-1,2.31,2.31,0,0,1,.68-1,4,4,0,0,1,1.44-.72,7,7,0,0,0,1.82-.76,3.64,3.64,0,0,0,1.31-1.87,7,7,0,0,0,.29-2.67c0-1-.19-2-.19-3.06,0-2.21.91-4.45,1.48-6.89a9.64,9.64,0,0,0,.16-3.83,4.66,4.66,0,0,0-2.12-3.27,16.88,16.88,0,0,0-4.08-1.38,7.15,7.15,0,0,1-2.08-1,4.77,4.77,0,0,1-1.48-1.85A22.42,22.42,0,0,1,443.94,67a7.82,7.82,0,0,0-.81-2.21,3.54,3.54,0,0,0-1.72-1.5,13,13,0,0,0-3.22-.44,5.21,5.21,0,0,1-1.63-.41,3.18,3.18,0,0,1-1.29-1.09,11.29,11.29,0,0,1-1.22-3,7.07,7.07,0,0,0-1.46-2.63,7,7,0,0,0-5.07-2.42,7.17,7.17,0,0,0-4.94,1.79l-.16.14-.08-.19a11.09,11.09,0,0,0-6.92-6,10.33,10.33,0,0,0-3.89-.34,9.45,9.45,0,0,0-3.2.89,8.32,8.32,0,0,0-3.4,3.13,8.82,8.82,0,0,0-.58,1.1l-.13.28-.06.1,0-.11.12-.29a7.1,7.1,0,0,1,.54-1.13,8.12,8.12,0,0,1,3.4-3.24,9.74,9.74,0,0,1,3.26-.94,10.38,10.38,0,0,1,4,.31A11.31,11.31,0,0,1,422.61,55l-.24,0A7.58,7.58,0,0,1,427.53,53a7.46,7.46,0,0,1,6.85,5.27,10.91,10.91,0,0,0,1.18,2.88,3.41,3.41,0,0,0,2.67,1.35,12.81,12.81,0,0,1,3.31.46,3.87,3.87,0,0,1,1.89,1.65,8.06,8.06,0,0,1,.85,2.31,21.94,21.94,0,0,0,1.2,4.51,4.28,4.28,0,0,0,1.36,1.72,6.51,6.51,0,0,0,2,.92A18.27,18.27,0,0,1,453,75.53a4.54,4.54,0,0,1,1.52,1.53,5.71,5.71,0,0,1,.72,2,10,10,0,0,1-.17,4c-.6,2.47-1.53,4.67-1.52,6.82,0,1.06.13,2.08.17,3a7.38,7.38,0,0,1-.33,2.74,3.82,3.82,0,0,1-1.4,2,7,7,0,0,1-1.88.75,3.86,3.86,0,0,0-1.41.67,2.25,2.25,0,0,0-.68.91A1.45,1.45,0,0,0,448,100.8Z"/><path class="cls-7" d="M470.58,82.76s-.05-.07-.12-.21-.19-.38-.32-.66c-.29-.59-.69-1.44-1.21-2.52s-1.11-2.46-2-4a10.29,10.29,0,0,0-3.9-4.17c-.94-.52-2-.85-3.12-1.34a6.75,6.75,0,0,1-1.59-.93,4,4,0,0,1-1.19-1.52c-.55-1.21-.57-2.58-1-3.83A3.32,3.32,0,0,0,455,62a6.4,6.4,0,0,0-1.87-.86,12.1,12.1,0,0,1-2.06-.79,3.78,3.78,0,0,1-1.59-1.65,17,17,0,0,1-1-4.51,5.6,5.6,0,0,0-.77-2.14,2.92,2.92,0,0,0-1.85-1.22c-1.53-.32-3.18.22-4.88,0a4.06,4.06,0,0,1-2.24-1.19,9.88,9.88,0,0,1-1.45-2,23.74,23.74,0,0,0-1.28-2,4.51,4.51,0,0,0-1.71-1.46,6.77,6.77,0,0,0-4.4,0,10.43,10.43,0,0,1-4.43.38,11.81,11.81,0,0,1-3.84-1.75,20.17,20.17,0,0,0-3.43-1.9,12,12,0,0,0-6.91-.22,12.91,12.91,0,0,0-5.12,2.63,14.49,14.49,0,0,0-2.82,3.35,17.22,17.22,0,0,0-1.21,2.5l-.27.68a2,2,0,0,1-.1.22,1.21,1.21,0,0,1,.07-.24c.06-.17.13-.4.23-.68a15.18,15.18,0,0,1,1.16-2.55,14.34,14.34,0,0,1,2.81-3.43,13.13,13.13,0,0,1,5.19-2.73,12.32,12.32,0,0,1,7.07.19,20.52,20.52,0,0,1,3.49,1.91,11.49,11.49,0,0,0,3.75,1.7,10,10,0,0,0,4.28-.39,13.79,13.79,0,0,1,2.27-.4,4.44,4.44,0,0,1,4.2,1.94c.49.65.88,1.35,1.3,2a9.62,9.62,0,0,0,1.4,1.93,3.68,3.68,0,0,0,2.05,1.09c1.58.26,3.23-.27,4.89.06A3.25,3.25,0,0,1,448,51.88a5.87,5.87,0,0,1,.82,2.27,17.07,17.07,0,0,0,1,4.43,3.42,3.42,0,0,0,1.45,1.51,12.35,12.35,0,0,0,2,.77,6.28,6.28,0,0,1,2,.92,3.59,3.59,0,0,1,1.22,1.74c.46,1.32.47,2.68,1,3.81a4.7,4.7,0,0,0,2.62,2.32c1.07.49,2.16.83,3.13,1.36a10.5,10.5,0,0,1,3.95,4.31c.84,1.51,1.41,2.89,1.92,4l1.14,2.55.29.67Z"/><path class="cls-7" d="M458.18,70.58a.71.71,0,0,1,.21,0,1.43,1.43,0,0,1,.62.14,2.49,2.49,0,0,1,1.16,2.06,5.87,5.87,0,0,1-.25,1.75,7.49,7.49,0,0,0-.3,2,4.55,4.55,0,0,0,.82,2.15c.46.7,1,1.39,1.5,2.23a3.33,3.33,0,0,1,.29,2.93c-.37,1-1.09,1.82-1.45,2.83a4.35,4.35,0,0,0,.32,3.2c.46,1.07,1.1,2.1,1.55,3.28A5,5,0,0,1,463,95a4.65,4.65,0,0,1-.44,1.93,22.8,22.8,0,0,1-2.21,3.32,5.38,5.38,0,0,0-1.23,3.69,18.06,18.06,0,0,0,1.41,3.93A6,6,0,0,1,461,110a4.87,4.87,0,0,1-.54,2.09,18.08,18.08,0,0,1-2.51,3.29,9.46,9.46,0,0,0-2,3.3,28.57,28.57,0,0,1-1.2,3.63,4.25,4.25,0,0,1-1.19,1.47,5.28,5.28,0,0,1-1.64.79,14.67,14.67,0,0,0-1.62.58,5.41,5.41,0,0,0-1.34.92,11.31,11.31,0,0,0-1.91,2.49c-.53.87-1,1.72-1.59,2.48a8,8,0,0,1-4,3,8.61,8.61,0,0,1-3.81.36,7.45,7.45,0,0,1-2.32-.68,5,5,0,0,1-.73-.42,8.77,8.77,0,0,0,3.07,1,8.6,8.6,0,0,0,3.72-.42,7.79,7.79,0,0,0,3.92-3c.54-.75,1-1.6,1.56-2.48a12.09,12.09,0,0,1,1.94-2.56,6.09,6.09,0,0,1,1.41-1,12.54,12.54,0,0,1,1.65-.6,5.3,5.3,0,0,0,1.55-.75,3.94,3.94,0,0,0,1.08-1.37,27.46,27.46,0,0,0,1.18-3.59,10,10,0,0,1,2.09-3.41,17.45,17.45,0,0,0,2.46-3.23,4.38,4.38,0,0,0,.51-1.94,5.91,5.91,0,0,0-.41-2,17.57,17.57,0,0,1-1.43-4,4.37,4.37,0,0,1,.29-2.12,8.82,8.82,0,0,1,1-1.81,23.33,23.33,0,0,0,2.2-3.26,4.33,4.33,0,0,0,.41-1.79,4.74,4.74,0,0,0-.35-1.78c-.42-1.14-1.06-2.17-1.52-3.27a4.59,4.59,0,0,1-.31-3.42c.39-1.08,1.11-1.9,1.46-2.83a3.07,3.07,0,0,0-.25-2.71c-.44-.81-1-1.51-1.47-2.23a4.58,4.58,0,0,1-.82-2.26,7.3,7.3,0,0,1,.33-2.07,6.08,6.08,0,0,0,.28-1.69,2.46,2.46,0,0,0-1.06-2A1.46,1.46,0,0,0,458.18,70.58Z"/><path class="cls-10" d="M413.72,108.31a1.57,1.57,0,0,1,2-.86l7.3,2.67.81.3a18.32,18.32,0,0,1-1.61,4.27,4.57,4.57,0,0,1-3.16,2.23,5.12,5.12,0,0,1-3.07-.76c-1.49-.93-2.91-2-3.23-3.68C412.53,111.26,413.24,109.46,413.72,108.31Z"/><path class="cls-1" d="M374.09,108.2a6.13,6.13,0,0,0-1.74,1,7.88,7.88,0,0,0-2.82,4.65,8.28,8.28,0,0,0,.09,3.82,9.27,9.27,0,0,0,2.13,3.83,9.51,9.51,0,0,0,4.05,2.66,8.73,8.73,0,0,0,5.19.11,9.38,9.38,0,0,0,4.44-2.7,8.58,8.58,0,0,0,2.12-4.36,9.07,9.07,0,0,0-2.29-7.66,8.74,8.74,0,0,0-4.95-2.31,4.85,4.85,0,0,0-1.5.06,1.72,1.72,0,0,0-.5.15,6.82,6.82,0,0,1,2,0,8.37,8.37,0,0,1,2.22.65,8,8,0,0,1,2.52,1.7,8.77,8.77,0,0,1,2.11,7.37,8.13,8.13,0,0,1-2,4.13,9,9,0,0,1-4.24,2.57,8.35,8.35,0,0,1-4.93-.09,9.21,9.21,0,0,1-3.89-2.53,9,9,0,0,1-2.07-3.65,8,8,0,0,1-.14-3.66,7.86,7.86,0,0,1,2.62-4.58A19.52,19.52,0,0,1,374.09,108.2Z"/><path class="cls-3" d="M410.77,93.19a2.53,2.53,0,0,1-2.32,2.66,2.42,2.42,0,0,1-2.7-2.17A2.51,2.51,0,0,1,408.07,91,2.41,2.41,0,0,1,410.77,93.19Z"/><path class="cls-3" d="M434.27,93.19a2.54,2.54,0,0,1-2.33,2.66,2.43,2.43,0,0,1-2.7-2.17A2.52,2.52,0,0,1,431.56,91,2.42,2.42,0,0,1,434.27,93.19Z"/><path class="cls-3" d="M436,83.26c-.25.38-2.18-.93-4.66-.65s-4.12,1.91-4.43,1.59c-.16-.14.06-.8.77-1.56a5.72,5.72,0,0,1,3.5-1.71,5.64,5.64,0,0,1,3.76,1C435.76,82.49,436.1,83.09,436,83.26Z"/><path class="cls-3" d="M412.26,85.3c-.34.39-2.46-1.26-5.45-1.23s-5.15,1.64-5.48,1.25c-.16-.17.18-.87,1.12-1.62a7.28,7.28,0,0,1,4.39-1.49,7.07,7.07,0,0,1,4.34,1.47C412.11,84.43,412.43,85.13,412.26,85.3Z"/><path class="cls-3" d="M420.72,116s-.21.32-.8.6a4.55,4.55,0,0,1-2.71.22,7.18,7.18,0,0,1-3.57-1.89,4.39,4.39,0,0,1-1.21-2.16,5.71,5.71,0,0,1,.07-2.63,11.19,11.19,0,0,1,.92-2.39,1.77,1.77,0,0,1,1.06-1,2.15,2.15,0,0,1,1.32.21l3.62,1.47a16.36,16.36,0,0,1,3.26,1.53,16.34,16.34,0,0,1-3.46-1l-3.68-1.31c-.74-.31-1.09-.26-1.43.45a10.67,10.67,0,0,0-.84,2.23,4.1,4.1,0,0,0,.9,4.09,7,7,0,0,0,3.16,1.86,4.82,4.82,0,0,0,2.48,0C420.39,116.15,420.68,116,420.72,116Z"/><path class="cls-3" d="M469.36,34.7a14.69,14.69,0,0,0-3.18-1.84,11.15,11.15,0,0,0-4.19-.74,10.36,10.36,0,0,0-5.33,1.53l-.25.16-.15-.26a9.59,9.59,0,0,0-5.84-4.28,9.75,9.75,0,0,0-8.19,1.29l-.3.22-.22-.3a15.66,15.66,0,0,0-10-6,15,15,0,0,0-9.07,1.36,15.66,15.66,0,0,0-6.3,5.6l-.11.16h-.18a23.36,23.36,0,0,0-9.4,2.33,24.38,24.38,0,0,0-6.26,4.27,33.09,33.09,0,0,0-4.28,5.17,1.84,1.84,0,0,1,.19-.42c.14-.26.34-.67.65-1.15a22.3,22.3,0,0,1,3.15-3.9,24,24,0,0,1,6.29-4.5,23.72,23.72,0,0,1,9.63-2.51l-.29.16a16.38,16.38,0,0,1,6.57-5.91,15.76,15.76,0,0,1,9.54-1.45A16.38,16.38,0,0,1,442.32,30l-.53-.08a10.42,10.42,0,0,1,8.82-1.34,10.11,10.11,0,0,1,6.15,4.66l-.4-.11a10.58,10.58,0,0,1,5.63-1.5,11,11,0,0,1,4.31.9A10.11,10.11,0,0,1,468.68,34,3.89,3.89,0,0,1,469.36,34.7Z"/><path class="cls-3" d="M390.45,30.64a7,7,0,0,1-2.91.7,10.51,10.51,0,0,1-7.66-2.74,9.76,9.76,0,0,1-2.84-5,10.79,10.79,0,0,1,.65-6.64A9.88,9.88,0,0,1,383,11.8a10.61,10.61,0,0,1,8-.07l-.46.11A7.45,7.45,0,0,1,395,9.35a7.74,7.74,0,0,1,4.24.36,7,7,0,0,1,3.23,2.61,7.78,7.78,0,0,1,.66,7.57l-.52-.47a6.37,6.37,0,0,1,6-.13,6.6,6.6,0,0,1,3.55,4.17,8.47,8.47,0,0,1-2.32,8.37,10.48,10.48,0,0,1-5.14,2.66,9,9,0,0,1-1.53.21,1.75,1.75,0,0,1-.54,0c0-.06.73-.08,2-.42a10.77,10.77,0,0,0,4.88-2.75,8,8,0,0,0,2-7.87,6,6,0,0,0-3.24-3.73A5.7,5.7,0,0,0,403,20l-1.06.65.54-1.12a7,7,0,0,0-.64-6.81,6.23,6.23,0,0,0-2.87-2.32,7.07,7.07,0,0,0-3.82-.32,6.74,6.74,0,0,0-3.92,2.22l-.19.23-.27-.12a9.82,9.82,0,0,0-7.42.05,9.16,9.16,0,0,0-5,4.71,10.19,10.19,0,0,0-.68,6.22,9.14,9.14,0,0,0,2.6,4.78,10.39,10.39,0,0,0,7.28,2.84A15.53,15.53,0,0,0,390.45,30.64Z"/><path class="cls-3" d="M335.09,60.91s-.1-.14-.23-.44a10.17,10.17,0,0,1-.45-1.36,12.51,12.51,0,0,1,3.95-12.39,12.92,12.92,0,0,1,9.82-3l-.39.21a15.47,15.47,0,0,1,7.84-7.4,15,15,0,0,1,8.17-.94,15.31,15.31,0,0,1,6.91,3l-.39,0a17,17,0,0,1,8.29-2,17.6,17.6,0,0,1,6.48,1.32,16.1,16.1,0,0,1,3.72,2.15,6.2,6.2,0,0,1,1.11,1,22.42,22.42,0,0,0-5-2.79,17.76,17.76,0,0,0-6.34-1.13,16.73,16.73,0,0,0-7.94,2l-.2.11-.19-.14a14.73,14.73,0,0,0-6.59-2.79,14.27,14.27,0,0,0-7.75.91,14.81,14.81,0,0,0-7.46,7l-.12.24-.27,0a12.33,12.33,0,0,0-9.31,2.73,11.91,11.91,0,0,0-4,6.64,12.88,12.88,0,0,0-.09,5.2C334.89,60.26,335.15,60.89,335.09,60.91Z"/><path class="cls-1" d="M324.51,158.58a10.52,10.52,0,0,0-4.63,1.11,26.27,26.27,0,0,1-10.44,2.16c-15.28,0-29.95-9.06-29.95-27.79,0-11.17,11.44-22.51,22.71-24.38,5.67-.94,14,1.84,18.46,4A13,13,0,0,0,326.3,115h2.76l.18-61.6c0-4.2-3.73-7.6-7.14-7.6H139.45c-5.81,0-9.55,3.4-9.55,7.6V117l7.35-.39a14.48,14.48,0,0,0,5-.89c3.18-1.17,6.5-3.21,10.15-3.21,15.66,0,26.57,8.84,26,23.22-.56,12.67-9.94,22.57-23.84,23.45a28.27,28.27,0,0,1-13.23-2.65,15.86,15.86,0,0,0-6-1.35l-5.36.11v62.24c0,5.15,4.59,9.32,10.25,9.32H319c5.66,0,10.25-4.17,10.25-9.32V158.57Z"/><path class="cls-5" d="M205.62,148.67l-.91-74.74c-.83-18.58,9.29-34.55,27.89-34.87l1.72.07a33.26,33.26,0,0,1,31.87,31.92c.63,16.11,1.12,33.92.66,42.53-1,17.83-18.91,19.86-18.91,19.86s-.11,10.86-.1,16.09l-5.66,11.32-4.83-2.65Z"/><path class="cls-6" d="M247.94,132.59A43.09,43.09,0,0,1,225,124.77s5,13.64,22.9,12.77Z"/><path class="cls-3" d="M258.43,85.58a2.55,2.55,0,0,1-2.56,2.47,2.43,2.43,0,0,1-2.53-2.4,2.53,2.53,0,0,1,2.56-2.47A2.44,2.44,0,0,1,258.43,85.58Z"/><path class="cls-3" d="M262.07,77.92c-.33.32-2.2-1.19-4.94-1.3s-4.81,1.18-5.09.84c-.14-.16.21-.74,1.11-1.35A7,7,0,0,1,257.24,75a6.71,6.71,0,0,1,3.92,1.44C262,77.16,262.23,77.77,262.07,77.92Z"/><path class="cls-3" d="M234.19,85.09a2.55,2.55,0,0,1-2.56,2.47,2.43,2.43,0,0,1-2.53-2.41,2.55,2.55,0,0,1,2.56-2.47A2.45,2.45,0,0,1,234.19,85.09Z"/><path class="cls-3" d="M235.18,77.44c-.33.32-2.21-1.19-4.94-1.29s-4.81,1.18-5.09.83c-.14-.15.2-.74,1.11-1.34a6.94,6.94,0,0,1,4.09-1.08A6.7,6.7,0,0,1,234.26,76C235.08,76.69,235.34,77.3,235.18,77.44Z"/><path class="cls-3" d="M244.14,98.91c0-.16,1.71-.38,4.48-.62.71,0,1.38-.16,1.51-.63a3.48,3.48,0,0,0-.38-2.09c-.59-1.72-1.2-3.53-1.85-5.42-2.56-7.7-4.38-14-4.07-14.13s2.64,6.07,5.2,13.77q.91,2.85,1.76,5.44A4.09,4.09,0,0,1,251,98a1.76,1.76,0,0,1-1.19,1,4.91,4.91,0,0,1-1.2.12C245.87,99.12,244.14,99.06,244.14,98.91Z"/><path class="cls-3" d="M236.42,68.91c-.4.68-3-.17-6.27-.37s-6,.19-6.25-.55c-.13-.35.44-.95,1.61-1.47a10.85,10.85,0,0,1,9.53.69C236.12,67.89,236.6,68.58,236.42,68.91Z"/><path class="cls-3" d="M262.53,69.86c-.59.61-2.8-.09-5.49-.2s-5,.29-5.47-.37c-.22-.32.15-.94,1.16-1.5a8.7,8.7,0,0,1,4.49-.91,8.55,8.55,0,0,1,4.34,1.37C262.49,68.92,262.79,69.57,262.53,69.86Z"/><path class="cls-5" d="M205.62,86.35c-.29-.14-12.1-4.13-12.21,8.08s12.16,9.8,12.19,9.45S205.62,86.35,205.62,86.35Z"/><path class="cls-6" d="M201.91,99.22s-.21.15-.57.31a2.16,2.16,0,0,1-1.6,0c-1.28-.49-2.35-2.54-2.39-4.75a7.09,7.09,0,0,1,.63-3,2.46,2.46,0,0,1,1.61-1.61,1.07,1.07,0,0,1,1.25.59c.16.34.08.59.15.61s.26-.2.17-.71a1.37,1.37,0,0,0-.48-.77,1.63,1.63,0,0,0-1.17-.32,3,3,0,0,0-2.24,1.87,7.31,7.31,0,0,0-.77,3.4c.06,2.46,1.3,4.77,3.06,5.3a2.29,2.29,0,0,0,1.94-.3C201.89,99.52,202,99.25,201.91,99.22Z"/><path class="cls-3" d="M235.53,100.61c.42,0,.44,2.77,2.85,4.75s5.39,1.66,5.41,2c0,.18-.66.55-1.92.59a7,7,0,0,1-4.52-1.55,6.09,6.09,0,0,1-2.21-4C235,101.29,235.34,100.59,235.53,100.61Z"/><path class="cls-3" d="M290.83,54.13a2.91,2.91,0,0,0-1.34-1.7c-1.39-.84-3-.75-4.56-.79a25.7,25.7,0,0,1-11.14-2.94,12.53,12.53,0,0,0,3.31-2.26c2-1.95,3.17-4.95,2.29-7.6a1.68,1.68,0,0,0-.94-1.18c-.79-.25-1.49.52-2.05,1.13-1.84,2-3.53,2.87-6.24,2.56a10.84,10.84,0,0,1-4.63-1.42l-.15-.18-1.84-1.9h0c-4.54-4.6-8.45-7.8-12.5-9.49-5.93-2.47-15.89-3.55-22.12-2S217,32.9,216.1,39.25c-3.45-3-8.69-3-12.95-1.36l-.11,0c-4.75,1.64-7.49,6.6-8.94,11.41-.08.26-.15.52-.22.79a18.89,18.89,0,0,1-6.43,6.14c-.46.26-1,.58-1,1.11s.37,1,.79,1.26A9.39,9.39,0,0,0,191,60.19a20.49,20.49,0,0,1-1.6,3.3c-.55.9-1.19,2-.74,2.92a2,2,0,0,0,2.08.93,5.82,5.82,0,0,0,2.21-1l-1.62,3.77a11.18,11.18,0,0,0,5.14-.28c1,4.52,1.62,12.87,2.74,15.94,3.24.1,4-.25,5.66.31,2.11.73,1.26,4.46,4,3.43,1.41-.52,3.62-5.81,4.1-7.23a69.68,69.68,0,0,0,3.36-29.47,22.29,22.29,0,0,1,7-4.92l-.21.19c5-1.68,10.68-3.32,15.39-.92,3.65,1.86,5.77,5.69,8.48,8.77,5.14,5.82,11,9,18.76,9.39.63,5.4.74,14.21.95,19.25l4.41-10v0c.35-.59.65-1.18.93-1.77l.1-.18v0c.45-1,.88-1.91,1.44-2.85l.05,0c2.7,2.43,6.76-1.2,4.64-4.15a7.11,7.11,0,0,0-1.5-1.55,5,5,0,0,0,4.72,1.28,3.88,3.88,0,0,0,2.8-3.82,3.32,3.32,0,0,0-1.94-2.69,11.15,11.15,0,0,0,6.38-1.33C290,56.89,291.24,55.72,290.83,54.13Z"/><path class="cls-7" d="M221.7,41.37A14.25,14.25,0,0,0,219.89,43a12.81,12.81,0,0,0-2.81,5.9,22.42,22.42,0,0,0-.51,4.54c0,1.64.08,3.41.19,5.26a47.33,47.33,0,0,1,.07,5.86,22.1,22.1,0,0,1-.44,3.09,6.49,6.49,0,0,1-1.3,3,2.68,2.68,0,0,1-2.53.81,4,4,0,0,1-2.25-1.3,9.24,9.24,0,0,1-1.67-4.57l.37.05a15.13,15.13,0,0,1-2.21,3.72,5.38,5.38,0,0,1-3.5,1.86,3.38,3.38,0,0,1-1.84-.35,3,3,0,0,1-1.24-1.25,3.08,3.08,0,0,1-.36-1.58,2.28,2.28,0,0,1,.59-1.39l.19.17a11.57,11.57,0,0,1-3.87,2.84,10.63,10.63,0,0,1-1.2.45,1.89,1.89,0,0,1-.43.1,2.5,2.5,0,0,1,.41-.17c.27-.1.66-.26,1.16-.5a12,12,0,0,0,3.74-2.88l.18.17a2.31,2.31,0,0,0-.15,2.65,2.72,2.72,0,0,0,1.12,1.11,3.22,3.22,0,0,0,1.67.29,5,5,0,0,0,3.25-1.77,14.65,14.65,0,0,0,2.13-3.63l.27-.57.11.62a9,9,0,0,0,1.59,4.36,3.58,3.58,0,0,0,2,1.16,2.27,2.27,0,0,0,2.16-.69A6.08,6.08,0,0,0,216,67.55a21.15,21.15,0,0,0,.44-3,48.85,48.85,0,0,0,0-5.82c-.09-1.85-.19-3.62-.15-5.29a22.25,22.25,0,0,1,.57-4.6,12.53,12.53,0,0,1,3-5.94A7.24,7.24,0,0,1,221.7,41.37Z"/><path class="cls-7" d="M276.78,59.38l-.15.13-.45.32a6.47,6.47,0,0,1-.76.47,8,8,0,0,1-1.1.56,15.72,15.72,0,0,1-7.66,1.29,20.22,20.22,0,0,1-10.74-4.1,35.09,35.09,0,0,1-9.14-10.79c-1.28-2.18-2.31-4.41-3.45-6.47a23.89,23.89,0,0,0-3.93-5.48,12.36,12.36,0,0,0-5.12-3.19,8.81,8.81,0,0,0-2.71-.34,9.9,9.9,0,0,0-2.49.45,10.38,10.38,0,0,0-5.8,4.79,12.21,12.21,0,0,0-.95,2.67s0-.06,0-.19.05-.32.09-.54a8.48,8.48,0,0,1,.7-2,10.26,10.26,0,0,1,2-2.69A10.42,10.42,0,0,1,229,32a9.53,9.53,0,0,1,2.57-.49,9.21,9.21,0,0,1,2.82.33A12.63,12.63,0,0,1,239.67,35a24.11,24.11,0,0,1,4,5.56c1.16,2.08,2.2,4.31,3.46,6.46a35.13,35.13,0,0,0,9,10.69,20.19,20.19,0,0,0,10.53,4.12,16.12,16.12,0,0,0,7.58-1.15A24.78,24.78,0,0,0,276.78,59.38Z"/><path class="cls-7" d="M278.49,51.55s-.21.18-.65.44a12.35,12.35,0,0,1-1.9.94,18,18,0,0,1-3,1,19.25,19.25,0,0,1-7.71.16,18.19,18.19,0,0,1-3-.82,14.46,14.46,0,0,1-2-.87c-.44-.24-.68-.38-.66-.41s1,.45,2.7,1a20.09,20.09,0,0,0,3,.72,22.61,22.61,0,0,0,3.79.27,22.87,22.87,0,0,0,3.78-.42,22.53,22.53,0,0,0,3-.85C277.49,52,278.45,51.48,278.49,51.55Z"/><path class="cls-4" d="M320.72,202.67s-30.78-46.76-39.87-48.8l-8.1-2.31h0l-24.54-6.66s.18,9.46-13.49,9.76c-15.75.35-29-13.5-29-13.5s-32.74,10.2-39.62,15.75,4.45,69.7,4.45,69.7H290.39l-.09-.7Z"/><path class="cls-4" d="M165.81,156.85a35.86,35.86,0,0,0-13.24,21.46c-2.88,14.4-8.87,48.28-8.87,48.28l50.08,0s-2.29-20.92-2.29-22.49-8.68-35.88-9.2-36.67S165.81,156.85,165.81,156.85Z"/><path class="cls-3" d="M173.45,157.66c-.13.23,3.58,2.11,7.17,5.64s5.6,7.15,5.82,7-1.5-4-5.24-7.61S173.5,157.47,173.45,157.66Z"/><path class="cls-3" d="M187.56,226.64a9.82,9.82,0,0,1-.06-1.73c0-1.21,0-2.8,0-4.74,0-4,0-9.51,0-15.61s-.24-11.61-.37-15.6c-.06-1.94-.11-3.53-.15-4.73a12.92,12.92,0,0,1,0-1.74,9.62,9.62,0,0,1,.2,1.72c.09,1.12.2,2.73.32,4.73.22,4,.44,9.51.53,15.62s0,11.62-.12,15.62c-.06,2-.13,3.61-.19,4.73A13.28,13.28,0,0,1,187.56,226.64Z"/><polygon class="cls-5" points="312.97 208.59 318.99 226.8 290.39 226.61 290.3 225.91 312.97 208.59"/><path class="cls-3" d="M283.5,178.13c.14,0,1.7,10.73,3.48,24s3.1,24,3,24.06-1.7-10.72-3.48-24S283.36,178.15,283.5,178.13Z"/><path class="cls-3" d="M277.69,45.8l2.05,0,6,0,23.24,0h8c1.41,0,2.84,0,4.32,0A9.15,9.15,0,0,1,325.67,47a8,8,0,0,1,3.11,3.55,6.8,6.8,0,0,1,.57,2.4c0,.84,0,1.66,0,2.5,0,3.34,0,6.82,0,10.43,0,14.42-.07,30.87-.11,49.1v.18h-.18c-1.14,0-2.27,0-3.43,0a13.18,13.18,0,0,1-3.45-.67c-1.13-.37-2.16-1-3.24-1.39s-2.18-.89-3.31-1.27a42.8,42.8,0,0,0-7-1.8,23.36,23.36,0,0,0-3.64-.34,13.36,13.36,0,0,0-3.66.37,28.51,28.51,0,0,0-13.24,7.15,28.82,28.82,0,0,0-5,6,22.7,22.7,0,0,0-3,7.35,23.68,23.68,0,0,0,0,8.1c.11.68.19,1.36.33,2l.54,2a13.36,13.36,0,0,0,.68,2,18.16,18.16,0,0,0,.82,1.92,25.31,25.31,0,0,0,11.94,11.66,35.32,35.32,0,0,0,4,1.65,40.52,40.52,0,0,0,4.25,1,36.12,36.12,0,0,0,8.82.57,26.53,26.53,0,0,0,8.65-2.21,10.31,10.31,0,0,1,4.52-1l4.6,0h.24v.24q0,19.44,0,40v18.14a11.45,11.45,0,0,1-.2,2.66,9.32,9.32,0,0,1-2.61,4.65,10.73,10.73,0,0,1-4.65,2.66,12.13,12.13,0,0,1-2.68.39c-.9,0-1.78,0-2.67,0H222.51l-82.85,0a10.68,10.68,0,0,1-8.6-4.78,9,9,0,0,1-1.41-4.83V193q0-19.31,0-37.75V155h.24l4.35-.09a14.49,14.49,0,0,1,4.35.42,26.92,26.92,0,0,1,4.07,1.47,35.11,35.11,0,0,0,4,1.32,24.15,24.15,0,0,0,8.32.72,26.9,26.9,0,0,0,8-1.85,23.54,23.54,0,0,0,12-10.39,25.2,25.2,0,0,0,2.85-15.21,21.12,21.12,0,0,0-2.31-7.27,20.38,20.38,0,0,0-4.84-5.72,22.47,22.47,0,0,0-6.43-3.66,29.53,29.53,0,0,0-3.5-1.1c-.59-.16-1.19-.24-1.79-.37a18,18,0,0,0-1.79-.28l-1.8-.2c-.6-.05-1.2-.05-1.8-.08a12.24,12.24,0,0,0-3.53.2,37.07,37.07,0,0,0-6.59,2.46,18,18,0,0,1-3.35,1.09,19.59,19.59,0,0,1-3.47.33l-6.8.35-.2,0V117c0-20.56,0-39.17,0-55.52,0-2,0-4,0-6a29.12,29.12,0,0,1,.07-2.95,7,7,0,0,1,1-2.75,8.35,8.35,0,0,1,4.33-3.5,14.86,14.86,0,0,1,5.35-.54l19.15,0,26.52.05,6.89,0,2.35,0-2.35,0-6.89,0-26.52.06-19.15,0a14.42,14.42,0,0,0-5.26.54A8.08,8.08,0,0,0,131,49.86a6.82,6.82,0,0,0-.92,2.64c-.1.94-.05,1.93-.06,2.91v6c0,16.35,0,35,0,55.52l-.2-.19,6.8-.36a18.5,18.5,0,0,0,3.41-.33,16.24,16.24,0,0,0,3.27-1.07,38,38,0,0,1,6.67-2.48,12.64,12.64,0,0,1,3.63-.22c.6,0,1.21,0,1.81.08l1.82.2a16,16,0,0,1,1.82.29c.6.12,1.21.21,1.81.37a29.76,29.76,0,0,1,3.55,1.11,22.63,22.63,0,0,1,6.54,3.72,20.65,20.65,0,0,1,4.95,5.84,21.16,21.16,0,0,1,2.37,7.42,25.59,25.59,0,0,1-2.89,15.49,24,24,0,0,1-12.22,10.6,27.15,27.15,0,0,1-8.18,1.88,24.46,24.46,0,0,1-8.46-.72,34.89,34.89,0,0,1-4.09-1.34,27.06,27.06,0,0,0-4-1.44,13.65,13.65,0,0,0-4.23-.41l-4.35.09.23-.24q0,18.44,0,37.75,0,9.64,0,19.5c.13,3.24-.57,6.75,1.33,9.5a10.16,10.16,0,0,0,8.19,4.54h177a19.14,19.14,0,0,0,5.21-.39,9.53,9.53,0,0,0,6.91-6.93,12,12,0,0,0,.19-2.55v-7.82c0-3.46,0-6.9,0-10.32q0-20.5,0-40l.23.24h-4.6a9.87,9.87,0,0,0-4.33,1,26.78,26.78,0,0,1-8.8,2.23,36.54,36.54,0,0,1-8.94-.58,39.28,39.28,0,0,1-4.31-1.06,36.35,36.35,0,0,1-4.08-1.67A25.78,25.78,0,0,1,282,146.81a21.14,21.14,0,0,1-.83-1.95,13.09,13.09,0,0,1-.68-2l-.55-2c-.14-.68-.22-1.38-.34-2.06a24.31,24.31,0,0,1,0-8.25,23.2,23.2,0,0,1,3.08-7.49,29.7,29.7,0,0,1,5.08-6.11,28.91,28.91,0,0,1,13.44-7.24,13.54,13.54,0,0,1,3.75-.37,23.77,23.77,0,0,1,3.69.35,43.39,43.39,0,0,1,7.05,1.82c1.13.39,2.24.82,3.33,1.28s2.12,1,3.21,1.39a12.5,12.5,0,0,0,3.35.65c1.12,0,2.28,0,3.41,0l-.18.18c.07-18.23.13-34.68.18-49.1q0-5.42,0-10.43c0-.84,0-1.68,0-2.48a6.78,6.78,0,0,0-.54-2.32,7.76,7.76,0,0,0-3-3.44,8.67,8.67,0,0,0-4.22-1.29c-1.46,0-2.91,0-4.31,0h-8l-23.24,0-6,0Z"/><path class="cls-1" d="M302.91,294.7a27.68,27.68,0,0,1,13,2.65,15.51,15.51,0,0,0,5.93,1.35l5.28-.11V236.36c0-5.16-4.52-9.33-10.11-9.33H140.57c-5.58,0-10.11,4.17-10.11,9.33V400.44c0,4.19,3.69,7.59,8.24,7.59H318.94c4.55,0,8.23-3.4,8.23-7.59v-59.3h-7.29A14.18,14.18,0,0,0,315,342a29.09,29.09,0,0,1-10.17,1.83c-15.45,0-27.9-11.84-27.28-26.22C278.06,305,289.2,295.58,302.91,294.7Z"/><path class="cls-3" d="M302.91,294.7l-1.75.21a20.5,20.5,0,0,0-2.15.34,25.49,25.49,0,0,0-2.93.71,29.28,29.28,0,0,0-7.67,3.53,19.22,19.22,0,0,0-2.12,1.54c-.34.28-.71.56-1.06.87l-1,1-.53.51-.48.57-1,1.16a25.56,25.56,0,0,0-1.74,2.67,23.08,23.08,0,0,0-1.46,3,23.81,23.81,0,0,0-1,3.42,22,22,0,0,0-.19,7.62,23.23,23.23,0,0,0,2.59,7.92,25.89,25.89,0,0,0,5.67,7,28.33,28.33,0,0,0,18.51,6.87,29.3,29.3,0,0,0,10.82-2,14.23,14.23,0,0,1,2.84-.62,23.91,23.91,0,0,1,2.93-.1h6.12v.17c0,9.29,0,19.16,0,29.56q0,7.8,0,16,0,4.1,0,8.28v4.22a19.32,19.32,0,0,1-.06,2.14,7.7,7.7,0,0,1-.59,2.11,8.49,8.49,0,0,1-7,4.76c-2.94.07-5.86,0-8.85,0H292.68l-38.29,0-83.34,0H149c-3.72,0-7.41,0-11.19,0a8.92,8.92,0,0,1-5.2-2.32,7.54,7.54,0,0,1-2.41-5.16q0-22.63,0-46V288.75q0-16.12,0-31.82V237.52a11.58,11.58,0,0,1,.43-3.87,9.78,9.78,0,0,1,5-5.73,10.76,10.76,0,0,1,3.71-1.07c1.29-.11,2.53,0,3.79-.07h51l53.47,0,47.62,0,21.35,0a10.7,10.7,0,0,1,8.92,4,9.16,9.16,0,0,1,1.81,4.51c.1,1.63,0,3.18.05,4.74,0,24.87-.05,44.71-.07,58.44v.08h-.08c-2.09,0-4,.11-5.86.09a15.51,15.51,0,0,1-4.93-1.16,35.32,35.32,0,0,0-7.34-2.44,24.37,24.37,0,0,0-4.6-.48c-.51,0-.9,0-1.15,0h-.39s.51-.06,1.54-.07a23.91,23.91,0,0,1,4.62.44,35.37,35.37,0,0,1,7.37,2.41,15.87,15.87,0,0,0,4.89,1.13c1.81,0,3.76-.07,5.84-.11l-.08.09c0-13.73,0-33.57-.07-58.44,0-1.54,0-3.14-.06-4.7a8.83,8.83,0,0,0-1.76-4.35,10.34,10.34,0,0,0-8.65-3.9H295.2l-47.62,0-53.47,0h-51c-1.25,0-2.52,0-3.74.07a10.3,10.3,0,0,0-3.54,1,9.3,9.3,0,0,0-4.77,5.43,11.2,11.2,0,0,0-.4,3.72v19.41q0,15.68,0,31.82V354.8q0,23.29,0,45.95a7,7,0,0,0,2.25,4.8,8.34,8.34,0,0,0,4.89,2.18c3.68.08,7.44,0,11.14,0H254.39l38.29,0h18.18c3,0,5.94,0,8.82,0a8.05,8.05,0,0,0,6.67-4.5,7.66,7.66,0,0,0,.56-2,20.58,20.58,0,0,0,.06-2.09V386.7q0-8.2,0-16c0-10.4,0-20.27,0-29.56l.17.17h-5.95a25.34,25.34,0,0,0-2.9.08,13.55,13.55,0,0,0-2.77.61,29.72,29.72,0,0,1-10.92,2,28.6,28.6,0,0,1-18.69-7,26.07,26.07,0,0,1-5.71-7.11,23.66,23.66,0,0,1-2.6-8,22.14,22.14,0,0,1,.22-7.69,23,23,0,0,1,1-3.45,23.56,23.56,0,0,1,1.48-3.07,24.37,24.37,0,0,1,1.77-2.68l1-1.16.49-.57.53-.51c.35-.34.69-.68,1-1s.73-.59,1.08-.88a20.72,20.72,0,0,1,2.13-1.54,29.12,29.12,0,0,1,7.72-3.5,27.49,27.49,0,0,1,2.95-.69,17.57,17.57,0,0,1,2.15-.32Z"/><path class="cls-3" d="M200.28,283.85c-2.47-7.28-4.9-14.6-6.08-22.19s-1-15.52,1.55-22.75c.39-1.1,3.76-8.46,4.92-8.36.83.07-1.22,6.93-.79,7.64,4.08,6.81,5.27,15.05,4.73,23a104.46,104.46,0,0,1-4.33,22.68"/><path class="cls-5" d="M201.07,323.58l-1.91-69c-.86-19.24,9.62-35.78,28.87-36.11l1.79.08a34.43,34.43,0,0,1,33,33c.66,16.68,1.17,35.12.69,44-1,18.45-19.58,20.56-19.58,20.56s-.16,19.17-.15,24.6L230.64,354.7l.75-4.22Z"/><path class="cls-6" d="M243.91,316.17a44.67,44.67,0,0,1-23.75-8.1s5.21,14.12,23.71,13.22Z"/><path class="cls-3" d="M256.68,267a2.63,2.63,0,0,1-2.65,2.56,2.53,2.53,0,0,1-2.62-2.49,2.64,2.64,0,0,1,2.65-2.56A2.52,2.52,0,0,1,256.68,267Z"/><path class="cls-3" d="M258.54,259.57c-.34.33-2.28-1.24-5.11-1.34s-5,1.22-5.27.86c-.15-.16.21-.77,1.14-1.39a7.26,7.26,0,0,1,4.24-1.12,7,7,0,0,1,4,1.5C258.44,258.78,258.71,259.42,258.54,259.57Z"/><path class="cls-3" d="M231.45,267a2.63,2.63,0,0,1-2.65,2.56,2.53,2.53,0,0,1-2.62-2.49,2.64,2.64,0,0,1,2.65-2.56A2.52,2.52,0,0,1,231.45,267Z"/><path class="cls-3" d="M230.7,259.07c-.34.33-2.28-1.23-5.12-1.34s-5,1.23-5.27.87c-.14-.16.21-.77,1.15-1.39a7.26,7.26,0,0,1,4.24-1.12,6.93,6.93,0,0,1,4.05,1.5C230.6,258.29,230.87,258.93,230.7,259.07Z"/><path class="cls-3" d="M240,281.3c0-.16,1.77-.4,4.64-.64.73-.05,1.42-.16,1.56-.65a3.76,3.76,0,0,0-.39-2.17l-1.92-5.61c-2.65-8-4.54-14.52-4.21-14.63s2.73,6.28,5.38,14.26c.64,2,1.25,3.84,1.82,5.63a4.17,4.17,0,0,1,.26,2.86,1.78,1.78,0,0,1-1.23,1,4.35,4.35,0,0,1-1.24.12C241.77,281.52,240,281.46,240,281.3Z"/><path class="cls-3" d="M232,250.24c-.41.7-3.13-.17-6.48-.38s-6.17.19-6.47-.57c-.14-.36.45-1,1.66-1.53a11.28,11.28,0,0,1,9.87.72C231.68,249.19,232.17,249.9,232,250.24Z"/><path class="cls-3" d="M259,251.23c-.61.63-2.91-.1-5.68-.21s-5.15.3-5.67-.39c-.23-.33.16-1,1.2-1.55a9,9,0,0,1,4.65-.94,8.85,8.85,0,0,1,4.5,1.42C259,250.25,259.28,250.92,259,251.23Z"/><path class="cls-5" d="M200.1,268.3c-.31-.15-12.53-4.28-12.65,8.36s12.6,10.15,12.62,9.79S200.1,268.3,200.1,268.3Z"/><path class="cls-6" d="M196.26,281.62c-.06,0-.22.16-.6.32a2.21,2.21,0,0,1-1.64,0c-1.33-.5-2.44-2.63-2.48-4.91a7.24,7.24,0,0,1,.65-3.15,2.53,2.53,0,0,1,1.67-1.67,1.12,1.12,0,0,1,1.29.61c.17.36.09.61.15.63s.28-.21.18-.73a1.46,1.46,0,0,0-.49-.8,1.64,1.64,0,0,0-1.21-.33,3.09,3.09,0,0,0-2.32,1.94,7.5,7.5,0,0,0-.8,3.51c.06,2.55,1.34,4.95,3.16,5.49a2.39,2.39,0,0,0,2-.31C196.23,281.93,196.3,281.65,196.26,281.62Z"/><path class="cls-3" d="M254.64,230.63c2-1.13-4.09-7.76-9.12-10-7.59-3.45-19.2-5.58-26.2-3.6-8.44,2.39-15.45,6.58-19.69,14.26s-5.83,16.61-5.59,25.38c.07,2.67.35,5.46,1.78,7.72,1.76,2.8,5.15,4.56,5,8.41a5.24,5.24,0,0,0,1.31,3.86c2.31,2.47,5.14.16,6.44-2.16,2.78-4.95,3.09-10.86,3.34-16.53.18-4,.34-8.15-.79-12-.62-2.1-1.61-4.09-2.11-6.23a6.37,6.37,0,0,1,1.93-7.35A13.17,13.17,0,0,1,224,229.84c7.11,2.52,19.27,6.29,22.44,3.87,4.57-3.47,5.67-5.74,5.67-5.74Z"/><path class="cls-3" d="M231.07,283.05c.43,0,.45,2.88,2.94,4.93s5.58,1.72,5.61,2.12c0,.18-.69.57-2,.61A7.19,7.19,0,0,1,233,289.1a6.32,6.32,0,0,1-2.29-4.13C230.55,283.76,230.87,283,231.07,283.05Z"/><g class="cls-11"><path d="M229.59,339.07c-1.56-2.61-3.34-4.52-4.9-7.13-.12-.21-.88-1-.79-1.24a7.94,7.94,0,0,0-1.05,1.28c-1.6,2.45-4.1,4.7-5.79,6.86l-21.23-19.3a143,143,0,0,0,19.63,22.75,2.72,2.72,0,0,0,2,.79,3.19,3.19,0,0,0,1.89-1.36l3.23-3.92a1.39,1.39,0,0,1,2.36-.15l3.27,2.51c.46.36,1.16.7,1.55.26S229.84,339.49,229.59,339.07Z"/></g><path class="cls-4" d="M197.34,320.13s-29.69-7.64-46.7,11.6A36,36,0,0,0,142,358.08c.45,6.56,1.09,16,1.67,24.76,1,15.37,4.38,53.33,12.51,62.38s30,4.65,37.65,1.64,19.57-2.16,25.45-7.73,14.7-9,23.92-12.68,5.53-8.56,5.53-8.56l-13.78-29.17-50,10s-2.05-19.23.08-25,5.74-13.33,6.9-22.18S197.34,320.13,197.34,320.13Z"/><path class="cls-3" d="M185.56,398.44c0,.09-1.36.58-3.42,1.72a28,28,0,0,0-3.45,2.27A28.39,28.39,0,0,0,172,409.9a28.3,28.3,0,0,0-1.9,3.67c-.93,2.16-1.27,3.6-1.36,3.57a3.87,3.87,0,0,1,.17-1,11.35,11.35,0,0,1,.32-1.17c.15-.45.29-1,.53-1.52a25.14,25.14,0,0,1,1.83-3.78,29.3,29.3,0,0,1,3.06-4.14,28.55,28.55,0,0,1,3.8-3.46,25.52,25.52,0,0,1,3.57-2.21,15.17,15.17,0,0,1,1.46-.68,9.14,9.14,0,0,1,1.13-.44A4.36,4.36,0,0,1,185.56,398.44Z"/><g class="cls-11"><path d="M183.85,398.38A26.69,26.69,0,0,0,163,418c-.33,1.38-.37,3.18.89,3.85a2.41,2.41,0,0,0,2.81-.79,8.06,8.06,0,0,0,1.31-2.85,34.4,34.4,0,0,1,17.51-20Z"/></g><path class="cls-8" d="M188.16,317.53h5.46l6.25-9.14L223.82,328l7.9,11.75,3.85-11.58,8.34-4.14,2.15,6.33,7,3.2-8.73,21.85-7,8.51s-10.86,8-25.26-5.19l-14.4-13.21Z"/><path class="cls-4" d="M188.16,317.53s28.65,43.33,40.25,39.23,23.11-24.35,23.11-24.35,25.22,8,33.06,16.51,21,58.56,21,58.56L185,398.7s-18-26.93-18-29,5.29-50,5.29-50Z"/><path class="cls-5" d="M235.65,389.83s16.24-6.05,23.45-5.31,35.32,23,35.32,23l-36.6-.21-3.18-2.91-8.15,8.8Z"/><path class="cls-3" d="M241.83,426.69a11.49,11.49,0,0,1-1.65,1l-.11.06,0-.12c-1.09-2.68-3.3-8.43-5.8-15.09-1.75-4.68-3.3-8.92-4.4-12l-1.28-3.66a7.54,7.54,0,0,1-.41-1.37,6.71,6.71,0,0,1,.6,1.3c.37.94.85,2.15,1.43,3.6,1.19,3,2.8,7.27,4.55,12,2.49,6.66,4.6,12.45,5.53,15.19l-.16-.07A11.43,11.43,0,0,1,241.83,426.69Z"/><path class="cls-3" d="M155.93,346.73a5.78,5.78,0,0,1,1.14.54c.71.38,1.73,1,2.94,1.75a69.88,69.88,0,0,1,8.91,6.9c1.63,1.48,3.13,2.95,4.46,4.32a30.16,30.16,0,0,1,3.35,3.82,7.91,7.91,0,0,1,1.35,3.17,4.86,4.86,0,0,1,0,.94c0,.21,0,.33,0,.32s0-.45-.2-1.22a8.31,8.31,0,0,0-1.46-3,34.51,34.51,0,0,0-3.38-3.71c-1.34-1.34-2.85-2.79-4.47-4.26a85.87,85.87,0,0,0-8.77-7c-1.18-.82-2.16-1.44-2.83-1.88A7,7,0,0,1,155.93,346.73Z"/><path class="cls-3" d="M249.47,419.48a4.59,4.59,0,0,1-.31-.57l-.83-1.67-3.05-6.3c-2.61-5.46-6.27-13.12-10.56-22.12l.26.13-21.27,4.27L185,398.91l-.22,0-.05-.22c-1.57-7.77-2.89-14.24-3.82-18.81-.44-2.24-.79-4-1-5.27-.11-.58-.19-1-.26-1.39a2.72,2.72,0,0,1-.06-.48,4,4,0,0,1,.13.47c.08.34.19.8.32,1.38.27,1.24.66,3,1.15,5.23,1,4.56,2.35,11,4,18.78l-.26-.17,28.68-5.77,21.28-4.23.18,0,.08.17,10.39,22.19,2.93,6.37c.32.72.58,1.28.76,1.7A4.09,4.09,0,0,1,249.47,419.48Z"/><path class="cls-3" d="M193.62,317.53a1.86,1.86,0,0,1,.45.31l1.23,1c1,.88,2.54,2.17,4.33,3.83s3.87,3.68,6.18,5.92,4.84,4.71,7.71,7.05a35.11,35.11,0,0,0,3.79,2.65l-.33.07c2.29-3,5-5.31,6.75-7.76l.18-.25.17.25,4.92,7.16,1.34,2a5.26,5.26,0,0,1,.44.74,4.49,4.49,0,0,1-.55-.66l-1.44-1.95-5.06-7.05h.35c-1.78,2.53-4.47,4.83-6.68,7.81l-.14.19-.2-.12a33.22,33.22,0,0,1-3.87-2.69c-2.89-2.36-5.42-4.85-7.72-7.11s-4.34-4.31-6.1-6-3.2-3-4.2-3.94L194,317.92A2.76,2.76,0,0,1,193.62,317.53Z"/><path class="cls-3" d="M247,333.33a10.27,10.27,0,0,1-1.83,1c-1.18.58-2.85,1.38-4.83,2.3l-.22.1-.1-.23a21,21,0,0,0-2-3.73,20.58,20.58,0,0,0-1.39-1.84l.43-.07c-1.05,2.47-2,4.61-2.68,6.14a16.11,16.11,0,0,1-1.19,2.41,15,15,0,0,1,.88-2.54c.61-1.56,1.49-3.73,2.52-6.2l.16-.39.27.32a18.55,18.55,0,0,1,1.43,1.88,20,20,0,0,1,2,3.83l-.33-.13c2-.88,3.69-1.62,4.91-2.12A11.52,11.52,0,0,1,247,333.33Z"/><path class="cls-12" d="M540.16,284.12l14.18,2.52a43,43,0,1,0-8-13.18v0Z"/><path class="cls-3" d="M540.16,284.12s.12-.23.38-.69l1.15-2c1-1.84,2.58-4.52,4.56-8a.11.11,0,0,1,.14,0l0,0h0l-.19.1a43.08,43.08,0,0,1-2.55-20.83,42.4,42.4,0,0,1,1.35-6.57c.33-1.11.77-2.21,1.16-3.35a25.93,25.93,0,0,1,1.45-3.37,42.67,42.67,0,0,1,9.27-12.71A43.41,43.41,0,0,1,590.37,215a44.13,44.13,0,0,1,18.94,6.41,42.54,42.54,0,0,1,4.26,3,24.87,24.87,0,0,1,2,1.73c.63.61,1.33,1.16,1.91,1.82a41.59,41.59,0,0,1,3.43,4.06c.53.72,1.07,1.43,1.58,2.17l1.38,2.31A43.28,43.28,0,0,1,626,275.33a43.17,43.17,0,0,1-40.81,25.88,47.21,47.21,0,0,1-7.08-.77,55.92,55.92,0,0,1-6.41-1.8,42.71,42.71,0,0,1-17.45-11.93l.07,0-10.58-1.95-2.69-.5-.89-.18s.33,0,.94.15l2.73.46,10.53,1.8.06,0a42.75,42.75,0,0,0,17.4,11.76,57.15,57.15,0,0,0,6.36,1.76,47.93,47.93,0,0,0,7,.73,42.84,42.84,0,0,0,40.34-25.68,42.77,42.77,0,0,0-2.15-38.33c-.45-.77-.91-1.53-1.36-2.29s-1-1.42-1.56-2.14a43.28,43.28,0,0,0-3.39-4c-.58-.65-1.27-1.19-1.89-1.8s-1.24-1.21-2-1.71a41.37,41.37,0,0,0-4.2-3,43.73,43.73,0,0,0-18.72-6.36A43.09,43.09,0,0,0,557.23,227,42.43,42.43,0,0,0,548,239.54a25.74,25.74,0,0,0-1.45,3.34c-.39,1.12-.83,2.21-1.16,3.31a42.84,42.84,0,0,0,1.05,27.23.1.1,0,0,1-.18.1l0,0h.18c-2,3.43-3.57,6.07-4.63,7.87l-1.21,2.05Z"/><path class="cls-3" d="M599.62,259.33A4.37,4.37,0,1,1,604,263.7,4.36,4.36,0,0,1,599.62,259.33Z"/><path class="cls-3" d="M582.15,259.33a4.37,4.37,0,1,1,4.37,4.37A4.37,4.37,0,0,1,582.15,259.33Z"/><path class="cls-3" d="M564.73,261.52a4.37,4.37,0,1,1,6,1.59A4.37,4.37,0,0,1,564.73,261.52Z"/><path class="cls-12" d="M168.3,86.93l-14.17,2.52a43,43,0,1,1,8-13.18v0Z"/><path class="cls-3" d="M168.3,86.93l-.43-.7-1.21-2L162,76.3h.18l0,0a.1.1,0,0,1-.14,0,.11.11,0,0,1,0-.13A42.78,42.78,0,0,0,163.06,49c-.33-1.1-.77-2.19-1.16-3.32a24.87,24.87,0,0,0-1.45-3.33,42.43,42.43,0,0,0-9.21-12.57,43.07,43.07,0,0,0-33.1-11.44A43.71,43.71,0,0,0,99.42,24.7a41.47,41.47,0,0,0-4.2,3,24.1,24.1,0,0,0-2,1.71c-.62.6-1.31,1.14-1.89,1.8a43.52,43.52,0,0,0-3.39,4c-.51.71-1,1.41-1.55,2.14l-1.37,2.28a42.77,42.77,0,0,0-2.15,38.33,42.88,42.88,0,0,0,25.17,23.33,42.62,42.62,0,0,0,15.17,2.36,47.77,47.77,0,0,0,7-.74,57.94,57.94,0,0,0,6.37-1.76A42.6,42.6,0,0,0,154,89.38l.07,0,10.52-1.8,2.73-.46.94-.15s-.29.07-.89.18l-2.69.5-10.57,2,.06,0a42.64,42.64,0,0,1-17.45,11.93,60.12,60.12,0,0,1-6.4,1.8,47.5,47.5,0,0,1-7.09.76,43.11,43.11,0,0,1-30-11,43.2,43.2,0,0,1-10.78-14.9,43.24,43.24,0,0,1,2.15-38.79L86,37c.51-.74,1-1.44,1.58-2.16A41.8,41.8,0,0,1,91,30.82c.59-.67,1.28-1.21,1.91-1.82a24.76,24.76,0,0,1,2-1.73,39.81,39.81,0,0,1,4.25-3,44.19,44.19,0,0,1,18.94-6.42,43.51,43.51,0,0,1,33.44,11.62,42.75,42.75,0,0,1,9.28,12.72,24.73,24.73,0,0,1,1.44,3.37c.39,1.13.83,2.23,1.16,3.35a43.79,43.79,0,0,1,1.36,6.56,43.21,43.21,0,0,1-2.56,20.84l-.19-.1,0,0a.1.1,0,0,1,.14,0,.05.05,0,0,1,0,0c2,3.48,3.52,6.17,4.56,8,.5.89.89,1.57,1.15,2Z"/><path class="cls-3" d="M108.84,62.15a4.37,4.37,0,1,0-4.36,4.36A4.37,4.37,0,0,0,108.84,62.15Z"/><path class="cls-3" d="M126.31,62.15A4.37,4.37,0,1,0,122,66.51,4.37,4.37,0,0,0,126.31,62.15Z"/><path class="cls-3" d="M143.74,64.33a4.37,4.37,0,1,0-6,1.6A4.36,4.36,0,0,0,143.74,64.33Z"/></g></svg>