<svg xmlns="http://www.w3.org/2000/svg" viewBox="0 0 746.04 462.55"><defs><style>.cls-1{fill:#f4e8b4;}.cls-2{fill:#ebebeb;}.cls-3{fill:#8ea382;}.cls-4{fill:#f5f5f5;}.cls-5{fill:#e0e0e0;}.cls-6{fill:#263238;}.cls-7{fill:#ae7461;}.cls-8{fill:#ffbf9d;}.cls-9{fill:#ff9a6c;}.cls-10{fill:#6f4439;}.cls-11{fill:#455a64;}.cls-12,.cls-13{opacity:0.3;}.cls-14{fill:#fff;}.cls-15{opacity:0.2;}</style></defs><title>salaman2</title><g id="Desk"><path class="cls-1" d="M636.5,240.84c12,129.24-256.95,262.67-403.13,200C86.67,378.47,62.71,120,197.44,53.12,331.64-13.43,624.52,111.61,636.5,240.84Z"/><path class="cls-2" d="M230.94,60.74a15.33,15.33,0,0,0-5.71,2.76,8.32,8.32,0,0,1-1.87,1.09l-7.44-30.32a4.16,4.16,0,0,0-5-3.05L179.35,39l.88,3.58a6.79,6.79,0,0,0,1.06,2.3,13.36,13.36,0,0,1,2.2,4.75,13.79,13.79,0,1,1-26.92.61,6.81,6.81,0,0,0,0-3l-.61-2.51-32,7.74a5.11,5.11,0,0,0-3.75,6.18l6.87,28.12-2.18.54q-.37.09-.75.15a16.81,16.81,0,1,0,5.2,27.74,6.55,6.55,0,0,1,1.28-.47l2.8-.68,7.7,31.37a5.11,5.11,0,0,0,6.18,3.75l87.28-21.42a4.16,4.16,0,0,0,3.05-5l-7.84-31.95a9,9,0,0,1,1.71.19,15.16,15.16,0,0,0,9.36-1,15.51,15.51,0,0,0-9.91-29.25Z"/><path class="cls-2" d="M619.6,228.35a9.73,9.73,0,0,0,3.9.9,4.74,4.74,0,0,1,1.35.2l-8.29,17.84a2.62,2.62,0,0,0,1.27,3.48l18.57,8.63,1-2.11a4.36,4.36,0,0,0,.38-1.55,8.37,8.37,0,0,1,.79-3.2A8.69,8.69,0,1,1,652,262.85a4.2,4.2,0,0,0-1.16,1.48l-.68,1.47L669,274.6a3.22,3.22,0,0,0,4.28-1.56L681,256.5l1.28.59.44.22A10.59,10.59,0,1,0,691,241.62a4.18,4.18,0,0,1-.82-.28l-1.64-.76,8.58-18.47a3.22,3.22,0,0,0-1.57-4.28L644.22,194a2.63,2.63,0,0,0-3.49,1.27L632,214.05a5,5,0,0,1-.76-.77,9.62,9.62,0,0,0-5-3.22,9.77,9.77,0,0,0-6.66,18.29Z"/><path class="cls-3" d="M651,428.15a7.4,7.4,0,0,0,1.87-2.5,4.09,4.09,0,0,1,.57-.91l10.16,11.61a2.06,2.06,0,0,0,2.9.19L678.61,426l-1.2-1.37a3.49,3.49,0,0,0-1-.76,6.6,6.6,0,0,1-2-1.59A6.81,6.81,0,1,1,686,415.86a3.35,3.35,0,0,0,.7,1.3l.84,1,12.26-10.67a2.52,2.52,0,0,0,.24-3.56l-9.41-10.77.84-.73a2.17,2.17,0,0,1,.29-.24,8.31,8.31,0,1,0-8.59-11,3.1,3.1,0,0,1-.46.5l-1.07.94-10.51-12a2.52,2.52,0,0,0-3.56-.24L634.19,399.6a2.06,2.06,0,0,0-.19,2.9l10.71,12.23a3.78,3.78,0,0,1-.79.3A7.64,7.64,0,1,0,651,428.15Z"/><path class="cls-4" d="M531.92,82.37a12,12,0,0,0-5-.31,6.46,6.46,0,0,1-1.7,0l6.58-23.72a3.28,3.28,0,0,0-2.29-4l-24.67-6.85-.78,2.8a5.34,5.34,0,0,0-.15,2,10.87,10.87,0,1,1-19.07-5.85A5.34,5.34,0,0,0,486,44.37l.54-2-25-7a4,4,0,0,0-5,2.8l-6.13,22-1.7-.47c-.19-.05-.39-.11-.58-.18a13.25,13.25,0,1,0-7.12,21.08,4.78,4.78,0,0,1,1.06.17l2.19.61-6.81,24.54a4,4,0,0,0,2.8,5l68.27,19a3.28,3.28,0,0,0,4-2.29l6.94-25a7.12,7.12,0,0,1,1.1.79,12,12,0,0,0,6.8,3,12.22,12.22,0,0,0,4.47-23.93Z"/><path class="cls-3" d="M21.11,337.75a11.36,11.36,0,0,0,4.64.69,5.73,5.73,0,0,1,1.6.11l-8.07,21.66a3.08,3.08,0,0,0,1.81,4l22.54,8.4.95-2.56a4.86,4.86,0,0,0,.3-1.85,10.22,10.22,0,1,1,17.38,7A4.94,4.94,0,0,0,61,377l-.67,1.79,22.81,8.58A3.78,3.78,0,0,0,88,385.15l7.5-20.08,1.56.58.53.22A12.44,12.44,0,1,0,106,346.72a4.86,4.86,0,0,1-1-.25l-2-.74,8.35-22.42a3.79,3.79,0,0,0-2.22-4.87L46.77,295.22a3.07,3.07,0,0,0-4,1.81l-8.5,22.83a6.36,6.36,0,0,1-1-.83,11.25,11.25,0,0,0-6.12-3.32,11.48,11.48,0,0,0-6.11,22Z"/><path class="cls-5" d="M347.11,289.29c5.56-.39,10.38,1.12,15,3.29a16.75,16.75,0,0,0,6.82,1.67l6.09-.14.08-67.71a11.62,11.62,0,0,0-11.65-11.58l-64.37.24v-1.39a17.91,17.91,0,0,1,1.89-7.82,35.66,35.66,0,0,0,3.06-21.75,36.19,36.19,0,0,0-71.81,6.2,35.51,35.51,0,0,0,3.07,14.47,17.82,17.82,0,0,1,1.61,7.25l.38,3H159.74a11.62,11.62,0,0,0-11.65,11.58v66.21h-5.53a16.88,16.88,0,0,1-7.4-1.79,34.88,34.88,0,0,0-21-2.9,34.25,34.25,0,0,0,5.86,67.95,33.62,33.62,0,0,0,13.69-2.9,16.81,16.81,0,0,1,6.86-1.53h7.1l.14,81a9.46,9.46,0,0,0,9.49,9.43H365c5.24,0,9.34-6.57,9.34-11.78v-73.6h-8.4a15.21,15.21,0,0,0-5.66,1.1,31.44,31.44,0,0,1-43.15-30.27C317.72,311.82,331.31,290.38,347.11,289.29Z"/><path class="cls-6" d="M347.11,289.29l-.55.07a15.46,15.46,0,0,0-1.63.25,21.7,21.7,0,0,0-6.09,2.16c-5.07,2.59-11.71,8.49-16.72,18.35a43.68,43.68,0,0,0-4.92,17.57,32.48,32.48,0,0,0,1.43,10.41,30.92,30.92,0,0,0,5.33,10,31.2,31.2,0,0,0,21.87,11.65,30.74,30.74,0,0,0,13.74-1.89,16.28,16.28,0,0,1,7.2-1.36h7.69v.16q0,17.46,0,37.07,0,9.8,0,20.1V424.3c0,1.75,0,3.52,0,5.3a15.28,15.28,0,0,1-.19,2.69,14,14,0,0,1-.74,2.62,13.73,13.73,0,0,1-2.89,4.63,8.52,8.52,0,0,1-4.81,2.68c-1,.11-1.86.06-2.79.08H283.37l-105.93,0h-14c-2.35,0-4.67.05-7.08,0a9.74,9.74,0,0,1-8.76-10c0-2.38,0-4.77,0-7.16q0-7.19,0-14.44,0-29-.11-59.06l.26.26h-4.43c-1.48,0-3-.06-4.42.11a16.86,16.86,0,0,0-4.27,1.09,43.39,43.39,0,0,1-4.22,1.63A34.09,34.09,0,0,1,96,346.43,34.84,34.84,0,0,1,90.29,339a35.69,35.69,0,0,1-2-4.29c-.27-.74-.61-1.47-.83-2.23l-.63-2.29a35,35,0,0,1,2.11-22.69,34.34,34.34,0,0,1,26.41-19.73,35.57,35.57,0,0,1,11.28.27,33.75,33.75,0,0,1,5.43,1.47c.89.32,1.76.67,2.61,1.07s1.66.79,2.54,1.09c3.45,1.36,7.22.86,10.9,1l-.25.26V229.67a32.09,32.09,0,0,1,.21-5.17,11.37,11.37,0,0,1,2-4.77,11.87,11.87,0,0,1,8.81-4.88l78.4,0-.23.26c-.13-1-.26-2-.38-3v0h0a17.26,17.26,0,0,0-.93-5.47c-.29-.88-.68-1.72-1.05-2.59s-.68-1.75-1-2.65a36,36,0,0,1-1.73-11l.15-2.77c0-.46,0-.92.1-1.38l.22-1.36c.17-.9.25-1.82.49-2.71l.74-2.64a7.27,7.27,0,0,1,.44-1.29l.5-1.28a17.22,17.22,0,0,1,1.11-2.48L237,172l1.49-2.26a35.61,35.61,0,0,1,7.34-7.76l1-.83,1.11-.73c.75-.48,1.47-1,2.23-1.43a39,39,0,0,1,4.76-2.25,36.11,36.11,0,0,1,10.08-2.42,36.78,36.78,0,0,1,5.14-.08c.85.06,1.7.08,2.55.17l2.51.38a36.63,36.63,0,0,1,17.67,8.83,35.94,35.94,0,0,1,11,34.48,37.81,37.81,0,0,1-3,8.47,18.19,18.19,0,0,0-1.31,4.17,21.59,21.59,0,0,0-.27,4.33l-.19-.18,49-.16,11.14,0h2.71c.9,0,1.79,0,2.7,0a11.79,11.79,0,0,1,5,1.69,11.67,11.67,0,0,1,5.49,8.36,45.63,45.63,0,0,1,.12,4.94c0,1.62,0,3.23,0,4.81-.05,25.31-.09,45.43-.12,59.58v.08h-.07c-2.46,0-4.74.15-6.88.1a17.12,17.12,0,0,1-5.7-1.49,37.41,37.41,0,0,0-8.41-3,25.61,25.61,0,0,0-5.23-.57c-.58,0-1,0-1.3,0h-.43a16.89,16.89,0,0,1,1.73-.08,25.79,25.79,0,0,1,5.25.53,38,38,0,0,1,8.44,2.95,17.18,17.18,0,0,0,5.66,1.47c2.12,0,4.41-.09,6.86-.12l-.07.07V229.72a44.54,44.54,0,0,0-.12-4.9,11.39,11.39,0,0,0-5.36-8.14,11.55,11.55,0,0,0-4.9-1.65c-.87-.06-1.77-.06-2.67-.05l-2.71,0-11.14,0-49,.21h-.18v-.19a21.63,21.63,0,0,1,.27-4.39,19.49,19.49,0,0,1,1.33-4.26,37.32,37.32,0,0,0,3-8.41,35.63,35.63,0,0,0-10.89-34.09,36.19,36.19,0,0,0-17.46-8.71l-2.49-.38c-.84-.09-1.68-.1-2.52-.16a34.81,34.81,0,0,0-15,2.48,38,38,0,0,0-4.7,2.22c-.75.44-1.46.94-2.2,1.41l-1.09.73-1,.82a35,35,0,0,0-7.25,7.67l-1.47,2.23-1.25,2.38a17.91,17.91,0,0,0-1.09,2.45l-.49,1.26a7.17,7.17,0,0,0-.44,1.28l-.72,2.61c-.24.87-.32,1.78-.49,2.67l-.22,1.35c-.06.45-.06.9-.09,1.36l-.15,2.73a35,35,0,0,0,1.72,10.86c.28.88.6,1.75,1,2.61s.76,1.72,1.06,2.62a17.55,17.55,0,0,1,1,5.62v0c.13,1,.26,2,.39,3l0,.27h-.27l-78.37,0A11.37,11.37,0,0,0,150.5,220a11.1,11.1,0,0,0-2,4.57,32.86,32.86,0,0,0-.2,5.08q0,10.31,0,20.77V293.1h-5.8a16.62,16.62,0,0,1-5.54-1c-.88-.31-1.75-.73-2.58-1.11s-1.69-.74-2.56-1.05a33.93,33.93,0,0,0-5.36-1.45,34.79,34.79,0,0,0-11.11-.26,33.78,33.78,0,0,0-26,19.43A34.44,34.44,0,0,0,87.32,330l.62,2.27c.21.74.54,1.46.81,2.19a33.19,33.19,0,0,0,2,4.22,34.11,34.11,0,0,0,5.66,7.36,33.52,33.52,0,0,0,33.81,8.21,41.89,41.89,0,0,0,4.18-1.62,17.78,17.78,0,0,1,4.4-1.12c1.52-.17,3-.08,4.48-.1H148v.25q0,30,.1,59.06c0,4.83,0,9.65,0,14.43,0,2.4,0,4.79,0,7.17a9.23,9.23,0,0,0,2.3,6.38,9.33,9.33,0,0,0,6,3.08c2.31.09,4.7,0,7,0h14l105.93,0h79.71c.92,0,1.86,0,2.73-.06a8.12,8.12,0,0,0,4.58-2.57,13.24,13.24,0,0,0,2.81-4.49,14,14,0,0,0,.73-2.55,15.25,15.25,0,0,0,.18-2.62V413.88q0-10.31,0-20.1,0-19.59,0-37.07l.16.16h-7.53a16.16,16.16,0,0,0-7.1,1.33,31,31,0,0,1-13.86,1.9,31.52,31.52,0,0,1-22-11.78,31.13,31.13,0,0,1-5.36-10.14A32.39,32.39,0,0,1,317,327.68,44,44,0,0,1,322,310c5-9.88,11.73-15.78,16.83-18.35a22.09,22.09,0,0,1,6.12-2.13,14.4,14.4,0,0,1,1.63-.22Z"/><path class="cls-4" d="M619.08,292.06a34.71,34.71,0,0,0-14.13,3,18,18,0,0,1-4.74,1.39V225.28a9.48,9.48,0,0,0-9.48-9.49H516.67v8.41a15.26,15.26,0,0,0,1.11,5.66,31,31,0,0,1,2.29,11.71,31.45,31.45,0,1,1-60-13.26,15.55,15.55,0,0,0,1.54-6.62v-5.9l-75-.23A11.65,11.65,0,0,0,375,227.21l-.07,66h-5.12c-.58,0-1.16,0-1.75-.06a38.33,38.33,0,1,0-3.55,64.25,14.58,14.58,0,0,1,3.1-.34h6.57v73.67a11.64,11.64,0,0,0,11.65,11.65H590.73a9.48,9.48,0,0,0,9.48-9.48v-75a18.64,18.64,0,0,1,3.68,1.34,34.82,34.82,0,0,0,21.25,3,35.36,35.36,0,0,0-6.06-70.16Z"/><path class="cls-6" d="M619.08,292.06l2.23.1a17.14,17.14,0,0,1,2.74.26l1.75.28a12.41,12.41,0,0,1,2,.46l2.22.61c.77.26,1.56.6,2.4.92.41.16.85.32,1.28.51l1.28.66a23.47,23.47,0,0,1,2.68,1.51A35.35,35.35,0,0,1,654.18,325c0,.85.12,1.72.12,2.59s-.09,1.76-.14,2.65c0,.45,0,.9-.1,1.35s-.13.9-.2,1.35l-.21,1.36c-.11.45-.21.9-.32,1.36a35.36,35.36,0,0,1-4.5,10.68,35,35,0,0,1-20.28,15.2c-1.1.34-2.25.52-3.39.79s-2.33.34-3.51.42a34.65,34.65,0,0,1-14.42-2c-2.4-.8-4.56-2.2-7.06-2.77l.21-.15q0,17.28,0,36.64,0,9.66,0,19.82c0,3.38,0,6.8,0,10.27v7.85c0,.44,0,.89,0,1.34a10,10,0,0,1-.22,1.33,9.71,9.71,0,0,1-7.44,7.24,13.41,13.41,0,0,1-2.75.2H559.16l-47.59,0-104,0H386.92a17.32,17.32,0,0,1-3.51-.24,13.21,13.21,0,0,1-3.33-1.23,12,12,0,0,1-4.89-5.06,11.63,11.63,0,0,1-1.11-3.39,21.28,21.28,0,0,1-.18-3.55v-72.1l.26.26h-4.74c-.81,0-1.65,0-2.45,0a13.38,13.38,0,0,0-2.43.32l.07,0A38.49,38.49,0,0,1,349,362.55a38.51,38.51,0,0,1-40-25.88,39.65,39.65,0,0,1-2.11-12.21,41.18,41.18,0,0,1,1.86-12.19,38.39,38.39,0,0,1,5.61-10.91,42.09,42.09,0,0,1,4-4.66l2.27-2.06c.76-.67,1.62-1.24,2.42-1.86a39.73,39.73,0,0,1,10.84-5.46,42.33,42.33,0,0,1,11.92-1.78A38.48,38.48,0,0,1,368.19,293l-.13-.05c2.26.11,4.58,0,6.85.06l-.26.25q0-21.15.05-41.75,0-10.29,0-20.43v-2.54c0-.83,0-1.68.07-2.55a12,12,0,0,1,1.63-4.84,11.84,11.84,0,0,1,8.18-5.61,32.45,32.45,0,0,1,5-.17l5,0,9.85,0,19.44.06,37.79.13h.23v5.52a15.79,15.79,0,0,1-.74,5.24,19.59,19.59,0,0,1-1,2.45c-.36.79-.67,1.59-1,2.4a30.81,30.81,0,0,0,1.7,24.62,31.34,31.34,0,0,0,5.86,8,32.6,32.6,0,0,0,7.91,5.68,30.77,30.77,0,0,0,18.58,3,31.24,31.24,0,0,0,16.48-7.87,30.44,30.44,0,0,0,5.69-7,29.65,29.65,0,0,0,3.42-8.17,30.67,30.67,0,0,0-.37-17.08c-.38-1.37-1-2.64-1.4-4a15.13,15.13,0,0,1-.58-4.22c0-2.8,0-5.56,0-8.31v-.18h.18l54.2,0h18.06c1,0,1.92,0,2.9.06a10.23,10.23,0,0,1,2.78.76,9.65,9.65,0,0,1,5.74,8.87q0,5.37,0,10.44c0,27-.05,47.57-.06,60.67l-.08-.06c3.34-.43,5.85-2.06,8.22-2.71a35,35,0,0,1,5.93-1.33,32.78,32.78,0,0,1,3.56-.28c.79,0,1.17,0,1.17,0l-1.17,0c-.78,0-2,.1-3.55.31a36.11,36.11,0,0,0-5.91,1.36c-2.35.66-4.86,2.3-8.23,2.75h-.07v-.08c0-13.1,0-33.66-.07-60.67V225.34a9.43,9.43,0,0,0-5.59-8.61,9.63,9.63,0,0,0-2.7-.72c-.93-.09-1.9-.06-2.86-.07H570.87l-54.2,0,.19-.19v8.31a14.71,14.71,0,0,0,.56,4.11c.38,1.34,1,2.63,1.41,4a31.08,31.08,0,0,1,.39,17.3,30,30,0,0,1-3.46,8.28,31,31,0,0,1-5.76,7.08,31.68,31.68,0,0,1-16.7,8,31.24,31.24,0,0,1-18.84-3.05,32.77,32.77,0,0,1-8-5.76A31.56,31.56,0,0,1,460.5,256a31.2,31.2,0,0,1-3.08-19.94,31.87,31.87,0,0,1,1.34-5.05c.3-.82.62-1.63,1-2.43a19.12,19.12,0,0,0,1-2.4,15.11,15.11,0,0,0,.72-5.1v-5.29l.23.24-37.79-.11-19.44-.06-9.86,0-4.95,0a33.52,33.52,0,0,0-4.93.17,11.34,11.34,0,0,0-7.83,5.38A11.22,11.22,0,0,0,375.3,226c-.07.82-.08,1.66-.07,2.5V231q0,10.14,0,20.43,0,20.6,0,41.75v.26h-.26c-2.29,0-4.55.06-6.89-.06H368l-.06-.05a37.88,37.88,0,0,0-22.11-7.3A41.69,41.69,0,0,0,334,287.82a39.48,39.48,0,0,0-10.69,5.38c-.79.62-1.63,1.17-2.39,1.84l-2.23,2a40,40,0,0,0-3.92,4.6,37.59,37.59,0,0,0-5.53,10.76,40.76,40.76,0,0,0-1.84,12,38.22,38.22,0,0,0,11,26.47A38.33,38.33,0,0,0,349,362a38,38,0,0,0,15.39-4.86l0,0h0a15.25,15.25,0,0,1,2.52-.33c.85,0,1.65,0,2.47,0h5v72.36a18.85,18.85,0,0,0,.17,3.46,10.87,10.87,0,0,0,1.06,3.25,11.61,11.61,0,0,0,4.68,4.86,13,13,0,0,0,3.19,1.17,16.76,16.76,0,0,0,3.41.23h20.66l104,0H590a13.13,13.13,0,0,0,2.67-.19,9.32,9.32,0,0,0,7.13-6.94,10.57,10.57,0,0,0,.27-2.58V414.35q0-10.16,0-19.82,0-19.33,0-36.64v-.21l.2.05c2.56.59,4.73,2,7.08,2.79a34.24,34.24,0,0,0,7.15,1.75,33.66,33.66,0,0,0,7.15.22c1.17-.07,2.33-.24,3.48-.41s2.27-.44,3.36-.77a35.26,35.26,0,0,0,24.63-25.67c.11-.45.22-.9.32-1.34l.21-1.36.21-1.34c.07-.44.06-.89.09-1.33q.08-1.33.15-2.64c0-.87-.08-1.73-.11-2.58a35.3,35.3,0,0,0-16.38-27.57,22.54,22.54,0,0,0-2.67-1.51l-1.27-.67c-.43-.19-.86-.34-1.28-.51-.83-.32-1.62-.67-2.38-.93l-2.22-.62a13.34,13.34,0,0,0-2-.46l-1.75-.29a17.53,17.53,0,0,0-2.74-.29C619.83,292.12,619.08,292.06,619.08,292.06Z"/><path class="cls-7" d="M369.37,305.19s3.36-1.73,6.33-1.08,13.75,7.68,13.75,7.68l8.69-1.62,5.12,24.53-33.89,14.09Z"/><path class="cls-8" d="M344.29,313.75s7.77-1,10.58-2.39,9.52-7.36,10.93-7.25,6.49,1.08,6.49,1.08l-2.06,6.17s10.17,6.16,13.2,8.44,12.55,12.44,13,14.93-.32,5.4-1.51,6.38-5.52-1-5.52-1a5.42,5.42,0,0,1-1,4.44C386.78,346.73,383,346,383,346s-.33,3.57-2.06,4.22-5.62-1.3-5.62-1.3-1.18,3-2.59,3.35-5.42-2.05-5.42-2.05-17.31-12.45-21.2-14.28S341,334,341,334Z"/><path class="cls-9" d="M375.32,348.9c-.08,0-.13-.31-.31-.76a13.94,13.94,0,0,0-.87-1.73,10.38,10.38,0,0,1-1.34-2.47,6.16,6.16,0,0,1,1.79,2.21,6.54,6.54,0,0,1,.77,1.89C375.47,348.56,375.38,348.9,375.32,348.9Z"/><path class="cls-9" d="M382.51,346.79a27.29,27.29,0,0,1-2.19-3.26c-1.18-1.81-2.45-3-2.36-3.12a7.6,7.6,0,0,1,2.8,2.82A10.86,10.86,0,0,1,382.51,346.79Z"/><path class="cls-9" d="M389.45,340.55c-.15,0-.63-1.83-1.83-3.85s-2.57-3.37-2.46-3.49a8.51,8.51,0,0,1,2.91,3.22A8.38,8.38,0,0,1,389.45,340.55Z"/><path class="cls-9" d="M384.38,327.05a9.71,9.71,0,0,1,.26,5.84,61.12,61.12,0,0,1-.26-5.84Z"/><path class="cls-7" d="M359.2,317.31s2.7-8.66,3.67-9.74,10-3.46,10-3.46l2.81,7.25-2,2.12-4.32-.28S366.66,320.34,359.2,317.31Z"/><path class="cls-7" d="M342.6,334.42s-1.24.95,0,3.23,4.59.65,5.67,0c0,0-1.62,3.78.43,5a8.13,8.13,0,0,0,4.55.87s-.11,2.27,2.81,3.78,3.68,0,3.68,0,.32,3.79,3.68,4.12,4.53-.83,4.53-.83l-1.51-2.24s1.95-4,.44-5.7a5.19,5.19,0,0,0-4-1.51s.67-3.52-1.26-4.5a3.55,3.55,0,0,0-5.12,1.58s-.21-3.85-3-3.77a6.25,6.25,0,0,0-4.32,1.82Z"/><path class="cls-10" d="M356.49,338.19a8.15,8.15,0,0,1-1.29,2.88,8.33,8.33,0,0,1-1.89,2.53,11.82,11.82,0,0,1,1.44-2.79A11.59,11.59,0,0,1,356.49,338.19Z"/><path class="cls-10" d="M362.94,341.6a7.64,7.64,0,0,1-1.47,3,7.77,7.77,0,0,1-2.26,2.46,18.21,18.21,0,0,1,1.83-2.76A17.48,17.48,0,0,1,362.94,341.6Z"/><path class="cls-6" d="M295.93,382.42H279.52l-4.2,59.67h16.46c2.8-9.09,9.8-56.45,9.8-56.45Z"/><path class="cls-6" d="M203,382.42s-10.51,24.63-9.46,34.59,7,25.08,7,25.08h81.28a185.94,185.94,0,0,0,4-20.64c1.75-12.31,6.47-39,6.47-39Z"/><path class="cls-6" d="M310.4,144.75c-2.75-3.46-6.14-6.8-6.84-11.16-.65-4,1.11-8.4-.69-12-2.22-4.48-8.58-5.36-11.34-9.53-1.33-2-1.65-4.57-3-6.6-2.24-3.46-6.86-4.58-11-4.34s-8.13,1.52-12.26,1.6c-5.66.12-11.39-2-16.88-.65-6.06,1.5-10,6.61-14.11,11.54L229,119.25a22.57,22.57,0,0,1-3.51,2.57c-2.2,1.28-4.68,2.11-6.6,3.78-4.11,3.57-4.13,10.82-.05,14.41a10.69,10.69,0,0,0-7.7,10.12c0,2.51.95,4.91,1.58,7.34s1,5.11-.15,7.37-4.13,3.68-6.26,2.34A11.24,11.24,0,0,0,212,175a6.67,6.67,0,0,1-4.61,1.79c4.06,11,16.23,17.21,27.9,17.83s23.06-3.28,34.1-7.12l31.83-6.68c2.79-.5,4.1-3.8,4.19-6.63s-.48-5.82.66-8.41c1.55-3.56,5.86-5.29,7.48-8.82C315.44,152.9,313.14,148.22,310.4,144.75Z"/><path class="cls-6" d="M234.66,169.9c-1.94-7.21-3.85-14.47-4.52-21.91s0-15.13,2.91-22c.44-1,4.17-8,5.29-7.81.8.12-1.61,6.64-1.24,7.36,3.54,6.87,4.18,14.94,3.16,22.59a101.08,101.08,0,0,1-5.6,21.75"/><path class="cls-8" d="M235.39,141.41c.35-18.73,11.55-34.13,30.26-33.26l1.72.18a33.48,33.48,0,0,1,30,34.12c-.4,16.23-1,34.16-2.06,42.78C293.17,203.08,275,204,275,204s-.48,29.48-.48,29.48L232,204Z"/><path class="cls-9" d="M275,204a43.42,43.42,0,0,1-22.54-9.34s4.19,15.11,22.19,15.38Z"/><path class="cls-6" d="M291.15,156.3a2.58,2.58,0,0,1-2.73,2.32A2.45,2.45,0,0,1,286,156a2.57,2.57,0,0,1,2.73-2.32A2.46,2.46,0,0,1,291.15,156.3Z"/><path class="cls-6" d="M292.74,149.47c-.35.3-2.13-1.34-4.88-1.62s-4.91.88-5.17.51c-.13-.16.26-.73,1.2-1.28a7.06,7.06,0,0,1,4.18-.82,6.77,6.77,0,0,1,3.84,1.7C292.69,148.7,292.91,149.33,292.74,149.47Z"/><path class="cls-6" d="M266.29,156.3a2.57,2.57,0,0,1-2.73,2.32,2.46,2.46,0,0,1-2.39-2.58,2.57,2.57,0,0,1,2.73-2.32A2.45,2.45,0,0,1,266.29,156.3Z"/><path class="cls-6" d="M265.72,147.74c-.35.3-2.14-1.33-4.88-1.62s-4.91.88-5.17.51c-.13-.16.25-.73,1.2-1.27a7,7,0,0,1,4.18-.82,6.77,6.77,0,0,1,3.84,1.7C265.66,147,265.89,147.61,265.72,147.74Z"/><path class="cls-6" d="M273.35,169.89c0-.16,1.74-.28,4.54-.34.71,0,1.39-.07,1.56-.53a3.62,3.62,0,0,0-.25-2.13q-.72-2.65-1.51-5.56c-2.08-7.91-3.51-14.38-3.19-14.46s2.27,6.26,4.35,14.17c.49,2,1,3.8,1.42,5.58a4.08,4.08,0,0,1,.07,2.79,1.77,1.77,0,0,1-1.26.91,5.08,5.08,0,0,1-1.21,0C275.07,170.21,273.34,170,273.35,169.89Z"/><path class="cls-6" d="M265.06,170.93c.45,0,.14,3,2.47,5.39s5.54,2.39,5.52,2.81c0,.19-.77.51-2.11.4a7.45,7.45,0,0,1-4.63-2.18,6.52,6.52,0,0,1-1.88-4.49C264.45,171.6,264.86,170.89,265.06,170.93Z"/><path class="cls-6" d="M266.74,136.58c-.35.72-3.05.07-6.32.12s-6,.66-6.32-.06c-.15-.34.38-1,1.5-1.61a10.52,10.52,0,0,1,4.81-1.13,10.34,10.34,0,0,1,4.82,1.09C266.36,135.59,266.9,136.24,266.74,136.58Z"/><path class="cls-6" d="M292.57,140.22c-.55.57-2.37-.28-4.65-.55s-4.24,0-4.62-.72c-.16-.34.21-.93,1.11-1.43a6.75,6.75,0,0,1,7.47,1C292.62,139.26,292.81,139.93,292.57,140.22Z"/><path class="cls-8" d="M235.45,154.8c-.29-.17-11.9-4.93-12.79,7.33s11.59,10.63,11.64,10.28S235.45,154.8,235.45,154.8Z"/><path class="cls-9" d="M230.89,167.49s-.22.14-.59.28a2.16,2.16,0,0,1-1.6-.09c-1.26-.57-2.2-2.7-2.1-4.92a7,7,0,0,1,.82-3,2.5,2.5,0,0,1,1.73-1.53,1.11,1.11,0,0,1,1.22.68c.13.36,0,.6.1.62s.28-.18.22-.7a1.38,1.38,0,0,0-.43-.8,1.59,1.59,0,0,0-1.16-.4,3,3,0,0,0-2.37,1.74,7.39,7.39,0,0,0-1,3.36c-.1,2.48,1,4.88,2.73,5.52a2.3,2.3,0,0,0,2-.18C230.85,167.79,230.94,167.52,230.89,167.49Z"/><path class="cls-6" d="M290.71,121.62c2.06-1-3.49-7.79-8.22-10.31-7.16-3.82-18.29-6.61-25.21-5.12-8.34,1.8-15.4,5.43-20,12.62s-6.69,15.77-7,24.29c-.1,2.6,0,5.32,1.24,7.6,1.54,2.83,4.72,4.75,4.34,8.48a5.1,5.1,0,0,0,1,3.82c2.09,2.54,5,.47,6.39-1.7,3-4.63,3.67-10.35,4.26-15.84.42-3.9.84-7.88,0-11.71-.47-2.09-1.31-4.08-1.66-6.19a7.41,7.41,0,0,1,1.26-6.07,8.48,8.48,0,0,1,1.06-.94A12.83,12.83,0,0,1,261,119c6.75,2.89,18.32,7.3,21.55,5.15,4.65-3.09,5.85-5.22,5.85-5.22Z"/><path class="cls-6" d="M258,104.57c6.88-1.82,14.55-1.21,20.65,2.47,3.24,1.95,6.08,4.92,6.87,8.62s-1.05,8.07-4.64,9.27l-.25.13c-5.34,1.43-8.7.51-13.8-1.63-4.3-1.81-8-4.77-12.33-6.55A25,25,0,0,0,240,115.52C245,110.48,251.14,106.39,258,104.57Z"/><path class="cls-11" d="M261.13,102.44a5.54,5.54,0,0,1,1.25.12,20.4,20.4,0,0,1,3.3.9,21,21,0,0,1,4.52,2.33,17.38,17.38,0,0,1,4.5,4.31,16.73,16.73,0,0,1,2.47,5.72,29.23,29.23,0,0,1,.76,5c.1,1.44.1,2.6.09,3.41a6,6,0,0,1-.09,1.25,5.81,5.81,0,0,1-.11-1.25c-.05-.8-.11-2-.26-3.38a33.62,33.62,0,0,0-.85-4.93,16.88,16.88,0,0,0-2.44-5.54,17.5,17.5,0,0,0-4.35-4.22,23.18,23.18,0,0,0-4.37-2.38C262.89,102.75,261.11,102.54,261.13,102.44Z"/><path class="cls-11" d="M272.42,101.76a4.17,4.17,0,0,1,1.06.29,10.64,10.64,0,0,1,1.21.45l1.53.78a15.81,15.81,0,0,1,6.36,7.48,18.19,18.19,0,0,1,.9,2.7,17.91,17.91,0,0,1,.4,2.62,17.6,17.6,0,0,1,.05,2.39,17,17,0,0,1-.28,2.07,10,10,0,0,1-.46,1.65,7.2,7.2,0,0,1-.49,1.2,4.41,4.41,0,0,1-.57,1,22.28,22.28,0,0,0,1.16-3.87,19.33,19.33,0,0,0,.21-2,18.72,18.72,0,0,0-.09-2.33,20.35,20.35,0,0,0-.42-2.54,19.75,19.75,0,0,0-.89-2.62,16.31,16.31,0,0,0-6.07-7.37l-1.47-.82a9.86,9.86,0,0,0-1.15-.53A5,5,0,0,1,272.42,101.76Z"/><path class="cls-11" d="M280.42,230.5c0,1.68,8.43,38.73,11.66,47.82s13.45,100.35,12.1,106.85-4.84,6.24-4.84,6.24-82.58-5.2-91.46-4.42-12.64.52-14.79-9.62.06-62.83-1.82-75.57-1.9-18.91-2.63-37.84c-.63-16.4,3.1-29.56,10.9-39s25.07-19.1,25.07-19.1l6.13-8.93,43.34,22.92,1-5.21,2.63,8.12Z"/><g class="cls-12"><path d="M299.05,343.4c-.72-1.84-3.07-2.3-5-2.52-18.37-2-37.48-6.62-50.9-19.33-5.24-5-9.38-11-13.37-17-8.72-13.18-16.91-26.7-25.1-40.21l-6.36,2.41c3.9,19.08,7.74,32.89,14.09,48.53s11.29,30.81,27.39,35.94c10.41,3.31,30.18.77,41.07-.08a63.94,63.94,0,0,0,13.5-2.12,9,9,0,0,0,3.65-1.85A3.62,3.62,0,0,0,299.05,343.4Z"/></g><path class="cls-11" d="M196.05,261.75c.47.85,37.22,79.34,53.63,82.57s67.41,4,77.36,2.1,19.69-3.64,19.69-3.64,7.21-17.11.63-31.7l-13.7.44s-38.09-2.06-43.47-3.53-10-6.52-14.87-6.25l-29-67.43s-18.83-17.48-32.28-12.1S192.1,254.74,196.05,261.75Z"/><path class="cls-6" d="M334.72,345.51a5.94,5.94,0,0,1,.27-1.32c.22-.84.49-2.06.77-3.57a52.14,52.14,0,0,0,.73-5.36,56.91,56.91,0,0,0,.14-6.62,54.27,54.27,0,0,0-1.86-11.87c-.41-1.48-.78-2.68-1.07-3.49a7.89,7.89,0,0,1-.38-1.29,5.52,5.52,0,0,1,.57,1.22,34.59,34.59,0,0,1,1.23,3.46,48.2,48.2,0,0,1,2,11.95,53.43,53.43,0,0,1-.18,6.68,47.21,47.21,0,0,1-.85,5.39,34.39,34.39,0,0,1-.94,3.55A6.71,6.71,0,0,1,334.72,345.51Z"/><path class="cls-6" d="M246.35,234.31s.19.4.55,1.2l1.54,3.52c1.35,3.11,3.33,7.66,5.86,13.5,5.06,11.71,12.33,28.55,21.21,49.13l-.2-.12a12.52,12.52,0,0,1,6.43,2c2,1.11,3.93,2.39,6.06,3.36a20.43,20.43,0,0,0,6.89,1.6c2.41.29,4.87.5,7.37.72,10,.82,20.59,1.47,31.62,2.09h0l13.7-.44h.17l.07.16a35.23,35.23,0,0,1,2.75,15.72A51.78,51.78,0,0,1,347,342.89l-.05.12-.14,0-8.71,1.61-9.53,1.76a64.56,64.56,0,0,1-9.55,1c-6.34.29-12.58.31-18.72.28s-12.16-.17-18-.39-11.67-.52-17.3-.94c-2.81-.21-5.58-.48-8.32-.78a58.51,58.51,0,0,1-8.05-1.33,13.89,13.89,0,0,1-3.49-2,29.35,29.35,0,0,1-3-2.59,64.75,64.75,0,0,1-5.09-5.74,212.44,212.44,0,0,1-15.44-23.22c-8.61-14.72-14.83-27.05-19.1-35.57-2.12-4.27-3.73-7.61-4.81-9.87s-1.61-3.47-1.61-3.47.16.29.45.86l1.26,2.56,4.89,9.83c4.33,8.49,10.59,20.79,19.24,35.47a212.18,212.18,0,0,0,15.46,23.14,65.61,65.61,0,0,0,5.06,5.69,29.62,29.62,0,0,0,2.92,2.55,13.89,13.89,0,0,0,3.38,1.95,58.87,58.87,0,0,0,8,1.3c2.72.29,5.49.56,8.3.76,5.61.42,11.38.72,17.27.92s11.92.35,18,.38,12.37,0,18.69-.29a63.22,63.22,0,0,0,9.47-1l9.54-1.76,8.71-1.61-.2.15a51,51,0,0,0,3.33-16,34.84,34.84,0,0,0-2.69-15.49l.24.15-13.7.42h0c-11-.62-21.62-1.28-31.63-2.12-2.5-.23-5-.44-7.38-.73-1.22-.14-2.41-.3-3.61-.52a13.47,13.47,0,0,1-3.42-1.13c-2.16-1-4.1-2.29-6.08-3.38a12.09,12.09,0,0,0-6.19-1.93h-.15l-.05-.13-21-49.2-5.76-13.54-1.49-3.55C246.51,234.73,246.35,234.31,246.35,234.31Z"/><path class="cls-6" d="M242.51,229s-.51-.47-1.43-1.32a27.46,27.46,0,0,0-11.34-6.26,25.49,25.49,0,0,0-18.54,1.85,27.67,27.67,0,0,0-9.88,8.38c-.73,1-1.1,1.6-1.14,1.58a2.73,2.73,0,0,1,.23-.45,13.49,13.49,0,0,1,.74-1.24,24.38,24.38,0,0,1,3.41-4.09,26.2,26.2,0,0,1,32.52-3.25,24.2,24.2,0,0,1,4.14,3.33c.46.44.76.83,1,1.07A1.88,1.88,0,0,1,242.51,229Z"/><path class="cls-6" d="M275.21,301.8a33.73,33.73,0,0,1-1.85,5.7A35.56,35.56,0,0,1,271,313a33.73,33.73,0,0,1,1.85-5.7A35.56,35.56,0,0,1,275.21,301.8Z"/><path class="cls-6" d="M341.79,314.73s.14-.07.38,0a1.43,1.43,0,0,1,.73.72,1.56,1.56,0,0,1,0,1.55,1.81,1.81,0,0,1-1.74.81,1.67,1.67,0,0,1-1.31-1.4,1.6,1.6,0,0,1,.5-1.48,1.3,1.3,0,0,1,1-.32c.24,0,.36.09.35.12s-.58,0-1.08.47a1.28,1.28,0,0,0-.28,1.12,1.22,1.22,0,0,0,.92,1,1.39,1.39,0,0,0,1.26-.55,1.24,1.24,0,0,0,.09-1.15C342.31,314.9,341.77,314.8,341.79,314.73Z"/><path class="cls-6" d="M275.12,222.41a5.86,5.86,0,0,1-1-.51l-2.73-1.56.19-.08c-.54,2.73-1.07,6.75-2,11.57l-.06.32-.28-.17c-4-2.54-8.86-5.44-14-8.55-3.84-2.3-7.43-4.62-10.73-6.63s-6.36-3.71-8.92-5.14l-6.07-3.38-1.65-.92a3.61,3.61,0,0,1-.56-.36,4.38,4.38,0,0,1,.61.26l1.69.84c1.47.75,3.57,1.84,6.16,3.23s5.64,3.09,9,5.06L255.53,223c5.15,3.11,10,6,14,8.62l-.34.14c.95-4.78,1.55-8.81,2.17-11.54l0-.18.15.1,2.67,1.67A7.9,7.9,0,0,1,275.12,222.41Z"/><g class="cls-12"><path d="M233.43,210.24l22.62,16.86c5,3.7,10.07,7.47,16,9.37l-.33-15.72-2.31,11Z"/></g><path class="cls-6" d="M466.35,131.51a8.11,8.11,0,0,1-3.74-15.7,8.44,8.44,0,0,1,7.08-14.36,10.09,10.09,0,0,1,15.06-8.56,11.36,11.36,0,0,1,14-.55,8.07,8.07,0,0,1,7.38,13.55"/><path class="cls-7" d="M465.19,132.67a34.41,34.41,0,0,1,33.64-32.33l1.78,0C519.84,101,530,117.77,528.7,137l1.14,68.5h0l-46.72,16.77-.41-24.67s-18.51-2.5-19.12-20.95C463.3,167.71,464.19,149.31,465.19,132.67Z"/><path class="cls-10" d="M482.56,197.55a44.84,44.84,0,0,0,24-7.58s-5.42,13.4-23.87,12.12Z"/><path class="cls-6" d="M470.38,149.35A2.63,2.63,0,0,0,473,152a2.52,2.52,0,0,0,2.67-2.43,2.64,2.64,0,0,0-2.59-2.61A2.52,2.52,0,0,0,470.38,149.35Z"/><path class="cls-6" d="M469.35,141.62c.33.33,2.3-1.19,5.13-1.24s4.95,1.33,5.25,1c.15-.16-.2-.78-1.12-1.42a7.26,7.26,0,0,0-4.21-1.2,7,7,0,0,0-4.08,1.41C469.46,140.84,469.18,141.46,469.35,141.62Z"/><path class="cls-6" d="M496.22,149.35a2.64,2.64,0,0,0,2.6,2.61,2.52,2.52,0,0,0,2.67-2.43,2.65,2.65,0,0,0-2.6-2.61A2.52,2.52,0,0,0,496.22,149.35Z"/><path class="cls-6" d="M497.24,141.58c.33.33,2.3-1.18,5.14-1.23s4.94,1.32,5.24,1c.15-.16-.19-.77-1.12-1.41a7.23,7.23,0,0,0-4.2-1.21,7,7,0,0,0-4.09,1.41C497.36,140.8,497.07,141.43,497.24,141.58Z"/><path class="cls-6" d="M487.37,162.82c0-.16-1.76-.43-4.62-.74-.73-.06-1.42-.19-1.55-.68a3.75,3.75,0,0,1,.44-2.16c.65-1.76,1.32-3.61,2-5.55,2.82-7.92,4.84-14.42,4.52-14.53s-2.86,6.22-5.68,14.13q-1,2.93-1.94,5.59a4.19,4.19,0,0,0-.31,2.85,1.77,1.77,0,0,0,1.21,1,4.42,4.42,0,0,0,1.23.15C485.58,163,487.36,163,487.37,162.82Z"/><path class="cls-6" d="M496.18,131.94c.39.71,2.8-.12,5.8-.28s5.52.29,5.77-.46c.11-.36-.43-1-1.52-1.55a9,9,0,0,0-4.51-.85,8.67,8.67,0,0,0-4.31,1.41C496.43,130.9,496,131.6,496.18,131.94Z"/><path class="cls-6" d="M468.8,131.58c.61.63,2.94-.08,5.75-.17s5.21.33,5.74-.36c.24-.33-.15-1-1.21-1.56a9.71,9.71,0,0,0-9.26.43C468.84,130.6,468.53,131.27,468.8,131.58Z"/><path class="cls-6" d="M466.8,124.16s4.63-11.65,10.15-14.46c6.68-3.41,9.74,3.94,16.13,2s12.77-5.19,19.44-.35c7.31,5.29,4,9.18,4.63,17.36,2.47,33.16,8.73,42.43,10.13,26.75.16-1.71,4.89-3.17,5.44-10.43.73-9.4.85-20.81-1.38-27.43-1.88-5.58-5.16-9.39-11-13.55-9.2-6.57-21.66-6.46-30.09-5.44S465.73,109.71,466.8,124.16Z"/><path class="cls-7" d="M526.1,155a5,5,0,0,1,5.31-4.94c3.45.25,7.32,2.13,7.24,9.25-.15,12.63-12.8,9.87-12.81,9.51S526,160.28,526.1,155Z"/><path class="cls-10" d="M528.64,164.1c.05,0,.22.16.59.33a2.18,2.18,0,0,0,1.64.06c1.34-.48,2.49-2.58,2.57-4.86a7.15,7.15,0,0,0-.58-3.15,2.53,2.53,0,0,0-1.63-1.71,1.1,1.1,0,0,0-1.3.59c-.18.35-.1.6-.17.62s-.27-.21-.16-.73a1.45,1.45,0,0,1,.51-.79,1.69,1.69,0,0,1,1.22-.31,3.09,3.09,0,0,1,2.27,2,7.47,7.47,0,0,1,.72,3.53c-.11,2.54-1.44,4.91-3.27,5.41a2.38,2.38,0,0,1-2-.35C528.66,164.41,528.59,164.13,528.64,164.1Z"/><path class="cls-6" d="M525.35,130.55a12,12,0,0,1-5.29,2.58c-2,.23-4.25-.85-4.63-2.8-.16-.88,0-1.9-.56-2.57s-2-.52-3-.38a8.07,8.07,0,0,1-8.48-5.61c-.9,1.42-3.09,1.41-4.52.52s-2.38-2.36-3.51-3.6-2.72-2.35-4.38-2.08c-.93.15-1.79.72-2.73.66-1.66-.11-2.51-2-2.79-3.68s-.52-3.55-1.94-4.42-3-.29-4.52,0-3.5-.06-3.92-1.55a3,3,0,0,1,.52-2.3,8.19,8.19,0,0,1,9.59-3.29,11.07,11.07,0,0,1,20.3-2.56,11.25,11.25,0,0,1,18.06,3.73A8.16,8.16,0,0,1,533,114.84c2.29,1.25,4.28,3.46,4.38,6.07s-2.39,5.27-4.93,4.63a4.51,4.51,0,0,1-7.71,4.66"/><path class="cls-11" d="M484.29,105.73a1.09,1.09,0,0,0,0,.24,5.18,5.18,0,0,0,.1.67,7.79,7.79,0,0,0,1,2.41,9.15,9.15,0,0,0,2.86,2.93,8.47,8.47,0,0,0,5.2,1.37l-.22-.28a4.57,4.57,0,0,0,.32,3.48,13.31,13.31,0,0,0,2.23,3.06,9.24,9.24,0,0,0,1.44,1.42,4.44,4.44,0,0,0,2,.7,4.6,4.6,0,0,0,4-1.54l-.47-.12a9.44,9.44,0,0,0,4.15,6.46,6.85,6.85,0,0,0,4.17,1.28,12.53,12.53,0,0,0,4.06-1l-.34-.14a9.93,9.93,0,0,0,3.07,3.83,5.29,5.29,0,0,0,4.42,1.11,6.94,6.94,0,0,0,5.24-5.55l-.28.14a6.55,6.55,0,0,0,4.35.55,7.25,7.25,0,0,0,3-1.41,6.11,6.11,0,0,0,1.38-1.57,3.85,3.85,0,0,0,.31-.66,7.59,7.59,0,0,1-1.82,2.06,7.06,7.06,0,0,1-2.92,1.28,6.29,6.29,0,0,1-4.11-.59l-.24-.13,0,.27a6.56,6.56,0,0,1-5,5.14,4.81,4.81,0,0,1-4-1,9.53,9.53,0,0,1-2.88-3.64l-.1-.23-.24.09a11.78,11.78,0,0,1-3.89.93,6.39,6.39,0,0,1-3.85-1.18,9,9,0,0,1-3.92-6.1l-.09-.59-.38.47a4.09,4.09,0,0,1-3.57,1.35,3.93,3.93,0,0,1-1.78-.6,9.45,9.45,0,0,1-1.36-1.33,12.47,12.47,0,0,1-2.17-2.93,4.13,4.13,0,0,1-.34-3.15l.1-.3-.32,0a8.09,8.09,0,0,1-5-1.24,8.94,8.94,0,0,1-2.84-2.76A9.81,9.81,0,0,1,484.29,105.73Z"/><path class="cls-6" d="M497.15,163.8c-.45,0,.07,3-2.1,5.59s-5.4,2.79-5.35,3.21c0,.2.81.46,2.15.26a7.55,7.55,0,0,0,4.5-2.52,6.59,6.59,0,0,0,1.57-4.65C497.81,164.42,497.35,163.74,497.15,163.8Z"/><path class="cls-3" d="M394,307.4c1.6-.64,54.45-7,54.45-7l21.44-18.15-2,52.55-67.48,6.51Z"/><path class="cls-13" d="M460.44,290.29c-.64.32-5.94,5-5.94,5l1.62,40.46Z"/><path class="cls-6" d="M550.48,385.46H461.22s4.72,25.19,6.47,36.79A150.12,150.12,0,0,0,472,442.09h80.85s6-14.63,7.09-24S550.48,385.46,550.48,385.46Z"/><path class="cls-6" d="M454.57,388.5s-2.5,28.71,0,53.59h30.92V419.16Z"/><path class="cls-2" d="M471.75,247.76l9.62-21.06,1.19-13s18.45-11.6,27.2-16a190.64,190.64,0,0,1,20.54-8.34v12.28Z"/><path class="cls-3" d="M552.15,355.35s5.23-70.21,5.58-75.43c0,0,3.09-37.52-3.57-51.81s-21.57-26.84-21.57-26.84l-1.37-7.5L502.1,212.12l-13.46,11.71a135,135,0,0,0-12.7,15.8c-3.82,5.29-8.07,12.09-10,20.64-.69,3.13-8.7,40.51-8.94,66.56,0,0-1.23,22.73-2.55,35.61-1.62,15.93-4.1,52.26-3.56,73.79l94.35-2.89c23.32-3.55,19.22-5.87,19.22-5.87Z"/><path class="cls-6" d="M530.3,201.66s-.22.11-.65.29l-1.93.81c-.82.4-1.82.92-3,1.53s-2.47,1.42-3.86,2.41a107,107,0,0,0-20.73,19.16l-.05.06-.08,0-9.06,1.66.2-.22c-.14,4.2-.29,8.62-.45,13.18v.11l-.08.07a125.83,125.83,0,0,0-13.31,14.59,57.11,57.11,0,0,0-4.56,6.9l-.49.89-.38.93a15,15,0,0,0-.68,1.88c-.41,1.28-.81,2.55-1.14,3.83-1.39,5.1-2.54,10.08-3.62,14.82-2.15,9.49-3.94,18.06-5.43,25.27-3,14.42-4.63,23.36-4.63,23.36a16.21,16.21,0,0,1,.21-1.64c.16-1.07.44-2.64.8-4.67.73-4,1.83-9.9,3.26-17.12S463.83,294,466,284.47c1.07-4.75,2.21-9.73,3.6-14.85.33-1.28.73-2.56,1.14-3.85a17.81,17.81,0,0,1,.69-1.93l.4-1,.49-.9a56.64,56.64,0,0,1,4.61-7,123.66,123.66,0,0,1,13.38-14.65l-.08.18c.16-4.57.32-9,.47-13.19v-.19l.19,0,9.06-1.63-.13.08a104.94,104.94,0,0,1,20.93-19.1c1.4-1,2.77-1.68,3.91-2.37s2.2-1.1,3-1.47l2-.75C530.07,201.72,530.3,201.66,530.3,201.66Z"/><path class="cls-3" d="M498.63,257.14l1.13,93.7-14.27,91.25H523.1s17.1-69.28,21.08-83.85c3.87-14.13,9.66-85.3,10.17-88.8.2-1.37,4.28-25.95-7.72-37.54"/><path class="cls-6" d="M546.63,231.9l.78.78a21.32,21.32,0,0,1,2.06,2.53,31.55,31.55,0,0,1,4.7,11.54,64.67,64.67,0,0,1,.71,19.77c-.56,3.84-.85,7.94-1.26,12.32s-.82,9-1.26,13.83c-.9,9.7-1.91,20.32-3.13,31.72-.63,5.7-1.28,11.6-2.09,17.65a145,145,0,0,1-3.31,18.58c-6.29,25-13.2,52.57-20.47,81.54l-.05.19H485.19l0-.3c5.28-33.65,10.16-64.72,14.32-91.24v0c-.3-28.37-.55-51.79-.73-68.13-.07-8.16-.13-14.55-.17-18.91,0-2.17,0-3.83,0-5s0-1.7,0-1.7,0,.58.05,1.7.05,2.79.09,5c.07,4.36.16,10.75.29,18.9.22,16.34.53,39.76.91,68.14h0v0c-4.14,26.53-9,57.6-14.23,91.26l-.25-.29H523.1l-.25.2,20.52-81.54a144.36,144.36,0,0,0,3.32-18.5c.81-6.06,1.47-11.95,2.11-17.64,1.24-11.4,2.28-22,3.2-31.71.45-4.85.88-9.47,1.29-13.83s.73-8.51,1.3-12.32a64.86,64.86,0,0,0-.62-19.7,31.59,31.59,0,0,0-4.59-11.52,21.56,21.56,0,0,0-2-2.55C546.87,232.18,546.63,231.9,546.63,231.9Z"/><path class="cls-6" d="M518.52,360.06a16.22,16.22,0,0,1-2.91-.84c-1.77-.61-4.18-1.53-6.79-2.68s-4.91-2.33-6.54-3.24a15.83,15.83,0,0,1-2.58-1.59,18.53,18.53,0,0,1,2.75,1.26c1.67.82,4,1.94,6.58,3.09s5,2.12,6.71,2.81A20.29,20.29,0,0,1,518.52,360.06Z"/><path class="cls-6" d="M454.12,366.27a.93.93,0,0,1,0-.25c0-.19,0-.42,0-.71q.06-1,.15-2.76c.15-2.44.37-5.89.64-10.13.58-8.55,1.4-20.36,2.56-33.39s2.48-24.8,3.57-33.3c.54-4.25,1-7.69,1.35-10.06.17-1.15.31-2.06.41-2.73.05-.29.09-.52.12-.71A.81.81,0,0,1,463,272a1.18,1.18,0,0,1,0,.25c0,.19,0,.43-.07.71-.07.67-.18,1.59-.31,2.75-.28,2.42-.69,5.85-1.19,10.07-1,8.51-2.26,20.28-3.41,33.31s-2,24.83-2.71,33.37c-.34,4.24-.61,7.68-.81,10.12-.1,1.16-.19,2.07-.25,2.74,0,.29-.05.53-.07.72A.68.68,0,0,1,454.12,366.27Z"/><path class="cls-6" d="M530.3,220.08a47.47,47.47,0,0,0-3.54-7.47,48.71,48.71,0,0,0-5.19-6.42,8.31,8.31,0,0,1,1.91,1.54,25.19,25.19,0,0,1,3.72,4.61,24.79,24.79,0,0,1,2.54,5.35A8.31,8.31,0,0,1,530.3,220.08Z"/><path class="cls-6" d="M463.93,336.49a1.12,1.12,0,0,1,.09.68,2.73,2.73,0,0,1-.82,1.7,2.58,2.58,0,0,1-2.71.61,3.07,3.07,0,0,1-1.4-1,2.8,2.8,0,0,1-.56-1.76,3.65,3.65,0,0,1,.72-2.18,2.26,2.26,0,0,1,.88-.69c.36-.14.62-.2.92-.3h.07a3.14,3.14,0,0,1,1.81.53,2.27,2.27,0,0,1,.84,1.19,2.49,2.49,0,0,1,.16,1.22c-.06,0-.12-.44-.41-1.13a2.14,2.14,0,0,0-.8-1,2.84,2.84,0,0,0-1.6-.37h.07c-.27.09-.62.2-.86.3a1.72,1.72,0,0,0-.68.56,3.26,3.26,0,0,0-.6,1.87,2.39,2.39,0,0,0,1.6,2.3,2.23,2.23,0,0,0,2.3-.43,2.74,2.74,0,0,0,.87-1.46C463.91,336.74,463.88,336.49,463.93,336.49Z"/><path class="cls-6" d="M462.53,369.62a1.12,1.12,0,0,1,.09.68,2.73,2.73,0,0,1-.82,1.7,2.57,2.57,0,0,1-2.71.61,3,3,0,0,1-1.39-1,2.75,2.75,0,0,1-.57-1.76,3.6,3.6,0,0,1,.73-2.18,2.16,2.16,0,0,1,.87-.69c.36-.14.62-.2.92-.29l0,0h0a3.14,3.14,0,0,1,1.81.53,2.27,2.27,0,0,1,.84,1.19,2.35,2.35,0,0,1,.16,1.22c-.06,0-.12-.44-.4-1.13a2.17,2.17,0,0,0-.81-1,2.92,2.92,0,0,0-1.6-.37h.07c-.27.1-.62.2-.86.3a1.72,1.72,0,0,0-.68.56,3.26,3.26,0,0,0-.6,1.87,2.39,2.39,0,0,0,1.6,2.3,2.23,2.23,0,0,0,2.3-.43,2.74,2.74,0,0,0,.87-1.46C462.51,369.87,462.48,369.62,462.53,369.62Z"/><path class="cls-6" d="M542.39,226.35c0,.09-1.29-.7-3.49-1.54a24.15,24.15,0,0,0-4-1.13,27,27,0,0,0-5-.45,27.31,27.31,0,0,0-5,.59,24.32,24.32,0,0,0-3.92,1.23c-2.17.91-3.39,1.73-3.45,1.65a4.26,4.26,0,0,1,.83-.63,9.4,9.4,0,0,1,1-.63,14.58,14.58,0,0,1,1.43-.72,22.25,22.25,0,0,1,4-1.37,23.15,23.15,0,0,1,10.21-.14,21.25,21.25,0,0,1,4,1.26,14.34,14.34,0,0,1,1.45.68,8.62,8.62,0,0,1,1.06.61A3.8,3.8,0,0,1,542.39,226.35Z"/><g class="cls-12"><path d="M460,314c4.07-5.93,5.57-11.52,7.75-18.38,3.23-10.19,4.13-21.7,9.21-31.11,3-5.54,6.51-11.23,11.7-14.78s5.82-7.87,5.72-19.79c3.63,0,7.46-2.75,7.91-3.24a20.26,20.26,0,0,0,4.45-8.33L500,225.72s-9.19,1.71-9.06,1.65c-.22,4.58-.23,8.6-.46,13.19,0,0-17.63,18.7-19,22.46S460,314,460,314Z"/></g><g class="cls-12"><path d="M525.46,430.79c22.35-42.29,29.29-97.9,28-150.87,0,0-6.41,64.38-8.57,75.43S525.46,430.79,525.46,430.79Z"/></g><path class="cls-6" d="M528.87,194.85a2.73,2.73,0,0,1-.5.38l-1.49,1-5.53,3.64L503,211.7l-7.91,5h0l-2.53,2a20.38,20.38,0,0,0-2.26,1.92c-1.39,1.34-2.62,2.64-3.73,3.82l-.2.22-.11-.27-2.89-6.67-.76-1.82a2.82,2.82,0,0,1-.23-.66,3.9,3.9,0,0,1,.33.61l.85,1.79,3.05,6.6-.32,0c1.09-1.21,2.31-2.52,3.7-3.89a21.24,21.24,0,0,1,2.28-2c.82-.63,1.65-1.29,2.51-2h0l7.9-5.07,18.43-11.7,5.62-3.49,1.54-.93A2.74,2.74,0,0,1,528.87,194.85Z"/><path class="cls-6" d="M58.65,151.38c-.12.06-4.37-7.31-9.5-16.47S40,118.26,40.09,118.2s4.37,7.3,9.5,16.47S58.77,151.31,58.65,151.38Z"/><path class="cls-6" d="M73,119.57c.14,0-.06,5.66-.45,12.61s-.81,12.6-.94,12.59.06-5.65.45-12.61S72.87,119.56,73,119.57Z"/><path class="cls-6" d="M48.38,159.19c-.05.13-4.84-1.37-10.71-3.35s-10.58-3.7-10.54-3.83,4.83,1.38,10.7,3.36S48.42,159.07,48.38,159.19Z"/><path class="cls-3" d="M120.24,173.38a39.88,39.88,0,1,0-37.62,55.87l4,9.22,32-14s-2.07-5.26-4-9.9A39.88,39.88,0,0,0,120.24,173.38Z"/><path class="cls-14" d="M113.88,226.53s-.1-.14-.26-.42l-.73-1.27c-.64-1.11-1.57-2.76-2.73-4.9-2.32-4.29-5.59-10.56-9.16-18.52-.9-2-1.82-4.08-2.74-6.27-.46-1.1-.92-2.22-1.39-3.37a12.51,12.51,0,0,1-1.09-3.64,4.22,4.22,0,0,1,.29-1.95,2.56,2.56,0,0,1,1.39-1.46,2.42,2.42,0,0,1,2,.23,3.73,3.73,0,0,1,1.44,1.48,4.65,4.65,0,0,1-.06,4.13,7.06,7.06,0,0,1-3,3.1,7.65,7.65,0,0,1-4.29.93,8,8,0,0,1-4.18-1.66,9.48,9.48,0,0,1-2.87-3.58,6.83,6.83,0,0,1-.66-2.27,3.34,3.34,0,0,1,.52-2.33,2.25,2.25,0,0,1,1-.72,2.86,2.86,0,0,1,1.23-.09,3.84,3.84,0,0,1,2.15,1.14,8.17,8.17,0,0,1,1.41,2,21.12,21.12,0,0,1,1,2.21,16.5,16.5,0,0,1,1.21,4.76,9.07,9.07,0,0,1-.83,4.91,7.05,7.05,0,0,1-1.49,2A5.63,5.63,0,0,1,90,202.27a5.29,5.29,0,0,1-2.5.09,6.87,6.87,0,0,1-2.28-1,15.32,15.32,0,0,1-3.52-3.34c-.5-.63-1-1.27-1.42-1.92a14.1,14.1,0,0,1-1.25-2,4,4,0,0,1-.39-2.35,2.77,2.77,0,0,1,.48-1.13,1.78,1.78,0,0,1,1-.64,2.08,2.08,0,0,1,1.21.16,4.12,4.12,0,0,1,1,.63,8,8,0,0,1,1.5,1.75A13.29,13.29,0,0,1,86.33,201a8.52,8.52,0,0,1-1.44,4,6.4,6.4,0,0,1-3.3,2.53,5.53,5.53,0,0,1-4-.33,6.28,6.28,0,0,1-2.89-2.64,5.22,5.22,0,0,1-.63-1.84,2.87,2.87,0,0,1,.34-1.88,1.46,1.46,0,0,1,1.74-.6,3.4,3.4,0,0,1,1.48,1.1,14.79,14.79,0,0,1,1.77,3l1.5,3c3.89,7.81,6.92,14.18,8.94,18.62,1,2.22,1.76,4,2.26,5.14.25.59.43,1,.56,1.35s.18.46.18.46l-.21-.45L92,231.13c-.52-1.17-1.29-2.9-2.32-5.11-2-4.43-5.1-10.79-9-18.58-.49-1-1-2-1.51-3a14.46,14.46,0,0,0-1.75-3,3.33,3.33,0,0,0-1.38-1,1.27,1.27,0,0,0-1.48.52,2.68,2.68,0,0,0-.29,1.73,4.81,4.81,0,0,0,.6,1.74A6,6,0,0,0,77.68,207a5.3,5.3,0,0,0,3.84.31,6.1,6.1,0,0,0,3.15-2.44,8.31,8.31,0,0,0,1.4-3.92,13.15,13.15,0,0,0-2.43-8.25A7.28,7.28,0,0,0,82.19,191a2.49,2.49,0,0,0-2-.73,1.74,1.74,0,0,0-1.3,1.54,3.67,3.67,0,0,0,.37,2.19,13.19,13.19,0,0,0,1.22,2c.45.65.92,1.29,1.42,1.91a14.69,14.69,0,0,0,3.45,3.27,6.26,6.26,0,0,0,2.18.92,4.83,4.83,0,0,0,2.36-.08,6,6,0,0,0,3.49-3.16,8.73,8.73,0,0,0,.79-4.75A16.08,16.08,0,0,0,93,189.39a13,13,0,0,0-2.37-4.1,3.5,3.5,0,0,0-2-1,2,2,0,0,0-2,.69,3.05,3.05,0,0,0-.47,2.14,6.93,6.93,0,0,0,.63,2.17,9.23,9.23,0,0,0,2.79,3.48,7.69,7.69,0,0,0,4,1.61,7.32,7.32,0,0,0,4.14-.89,6.8,6.8,0,0,0,2.84-3,4.42,4.42,0,0,0,.08-3.9,3.61,3.61,0,0,0-1.35-1.39,2.17,2.17,0,0,0-1.82-.21,2.35,2.35,0,0,0-1.25,1.32,4,4,0,0,0-.27,1.85,12.44,12.44,0,0,0,1.06,3.57l1.39,3.36c.91,2.2,1.82,4.29,2.71,6.28,3.55,8,6.79,14.24,9.07,18.54,1.15,2.15,2.07,3.81,2.69,4.93l.7,1.28Z"/><path class="cls-6" d="M85.78,226.45a2.75,2.75,0,0,1-.49.05c-.32,0-.79.06-1.41.05a34.56,34.56,0,0,1-5.17-.3,37.58,37.58,0,0,1-15.89-6,37.46,37.46,0,0,1-11.57-12.43A35.05,35.05,0,0,1,49,203.18c-.23-.56-.37-1-.48-1.32a2.76,2.76,0,0,1-.14-.47,2.9,2.9,0,0,1,.2.45c.12.3.28.75.53,1.3A38.33,38.33,0,0,0,63,220a38.4,38.4,0,0,0,20.9,6.4c.61,0,1.09,0,1.41,0Z"/><path class="cls-6" d="M46.88,193.75a7.18,7.18,0,0,1,.49,2,7.6,7.6,0,0,1,.21,2.05,14.9,14.9,0,0,1-.7-4.06Z"/><path class="cls-6" d="M119.91,183.64a3.81,3.81,0,0,1-.11-.41c-.06-.3-.15-.69-.26-1.19-.05-.26-.11-.54-.18-.85s-.18-.65-.28-1c-.21-.71-.41-1.54-.76-2.42-.16-.44-.33-.9-.5-1.38s-.42-1-.64-1.47c-.42-1-1-2-1.58-3.15a42.15,42.15,0,0,0-4.69-6.56,41.21,41.21,0,0,0-6-5.44c-1-.71-2-1.41-2.93-1.95-.48-.27-.93-.57-1.38-.8l-1.32-.67c-.83-.45-1.63-.74-2.31-1-.35-.14-.66-.29-1-.4l-.83-.28-1.15-.4a2.3,2.3,0,0,1-.39-.16l.41.1,1.16.35.84.26c.31.1.63.24,1,.38a24.41,24.41,0,0,1,2.34,1l1.33.66c.46.23.91.52,1.4.8a34,34,0,0,1,3,1.94,37.55,37.55,0,0,1,10.72,12.08c.58,1.11,1.16,2.15,1.57,3.18.22.52.45,1,.63,1.49l.49,1.4a24.18,24.18,0,0,1,.72,2.44c.09.36.19.7.26,1s.11.61.15.87q.13.75.21,1.2A2.57,2.57,0,0,1,119.91,183.64Z"/><g class="cls-15"><path class="cls-14" d="M70.79,163.77c-1.31-1.26-3.49-1.63-5.77-1.35a12.54,12.54,0,0,0-8.22,4.75c-6,7.57-8.27,14.5-7.13,24.55.38,3.4,2.09,8.55,4.85,10.84a6.43,6.43,0,0,0,4.95,1.55c4.65-.61,6.17-6.05,5.77-10.44-.38-4.09-1.71-8.31-.4-12.2,1.09-3.2,3.78-5.55,5.65-8.37S73.23,166.11,70.79,163.77Z"/></g><g class="cls-15"><path class="cls-14" d="M84.81,155.92c-2.37-1.74-6.17-1.23-7.75.52a6.5,6.5,0,0,0-1.44,5.49,6,6,0,0,0,4.87,4.54,5.61,5.61,0,0,0,5.76-3.21C87.19,161.09,86.71,157.32,84.81,155.92Z"/></g><g id="_2gGvdE.tif" data-name="2gGvdE.tif"><path class="cls-6" d="M103.72,253.12a11,11,0,0,1,2.9.94,2.36,2.36,0,0,0,2.06.07l6.44-2.83a2.39,2.39,0,0,0,1.39-1.75,4.33,4.33,0,0,1,1.45-2.67Z"/></g><path class="cls-5" d="M88.88,238.25c.05.13,6,9.53,8.22,13.13a5.19,5.19,0,0,0,4.27,2.48,4.88,4.88,0,0,0,2-.41l14.08-6.18s3.68-1.62,3.24-4.9c-.47-3.46-4.12-16.28-4.12-16.28Z"/><rect class="cls-5" x="94.26" y="244.51" width="28.33" height="1.61" rx="0.76" transform="translate(-90.1 64.97) rotate(-23.9)"/><path class="cls-6" d="M121,240.62a.83.83,0,0,0,.38-.42.78.78,0,0,0-.07-.67.73.73,0,0,0-.78-.38c-1.34.57-3.3,1.49-5.72,2.56L95.9,250.13a.67.67,0,0,0-.37.48.66.66,0,0,0,0,.31,1.06,1.06,0,0,0,.15.28.66.66,0,0,0,.56.22,5.16,5.16,0,0,0,.65-.26L99.58,250l5-2.22,8.52-3.75,5.76-2.5,1.57-.67.41-.17.14,0-.13.08-.4.19-1.55.71-5.72,2.58-8.5,3.8-5,2.23L97,251.39l-.34.15a1.07,1.07,0,0,1-.38.13.92.92,0,0,1-.79-.3,1.48,1.48,0,0,1-.2-.37.79.79,0,0,1,0-.43.87.87,0,0,1,.52-.68l18.94-8.35c2.43-1,4.37-1.93,5.77-2.49a.8.8,0,0,1,.86.44.82.82,0,0,1,.06.72C121.25,240.59,121,240.62,121,240.62Z"/><rect class="cls-5" x="92.3" y="241.35" width="29.46" height="1.61" rx="0.76" transform="translate(-88.94 64.14) rotate(-23.9)"/><path class="cls-6" d="M120.13,237.23a.9.9,0,0,0,.38-.45.81.81,0,0,0-.1-.69.72.72,0,0,0-.83-.32l-5.94,2.68L94,247.19a.64.64,0,0,0-.37.5.58.58,0,0,0,0,.32.89.89,0,0,0,.17.29.64.64,0,0,0,.6.16,6.29,6.29,0,0,0,.68-.29L97.88,247l5.22-2.31,8.85-3.89,6-2.6,1.63-.7.43-.17.15-.05-.14.07-.41.2-1.61.74-6,2.68-8.82,3.94L98,247.18l-2.76,1.23c-.25.1-.44.21-.73.31a.9.9,0,0,1-.84-.24,1,1,0,0,1-.23-.37.87.87,0,0,1-.06-.45.89.89,0,0,1,.53-.7l19.67-8.68c2.53-1.11,4.56-2,6-2.6a.8.8,0,0,1,.93.37.84.84,0,0,1,.08.74A.69.69,0,0,1,120.13,237.23Z"/><rect class="cls-5" x="90.55" y="238.18" width="30.19" height="1.61" rx="0.76" transform="translate(-87.77 63.3) rotate(-23.9)"/><path class="cls-6" d="M119.07,233.91a.77.77,0,0,0,.26-1.16.69.69,0,0,0-.86-.27l-6.09,2.74-20.11,8.95a.63.63,0,0,0-.37.52.51.51,0,0,0,0,.32.67.67,0,0,0,.19.29.62.62,0,0,0,.61.13l.71-.31,2.83-1.25,5.34-2.36,9.07-4,6.11-2.66,1.67-.72.44-.18.15-.05-.14.08-.43.2-1.65.76-6.08,2.74-9,4-5.34,2.37-2.83,1.26-.73.32a.92.92,0,0,1-.87-.19,1.1,1.1,0,0,1-.25-.37.89.89,0,0,1-.07-.46.88.88,0,0,1,.52-.72l20.15-8.89,6.12-2.67a.81.81,0,0,1,1,.32.87.87,0,0,1,.11.76A.66.66,0,0,1,119.07,233.91Z"/><rect class="cls-5" x="88.58" y="235.01" width="31.35" height="1.61" rx="0.76" transform="translate(-86.61 62.47) rotate(-23.9)"/><path class="cls-6" d="M118.21,230.51a.79.79,0,0,0,.24-1.21.74.74,0,0,0-.93-.19L111.21,232l-20.86,9.29a.62.62,0,0,0-.38.54.82.82,0,0,0,.28.62.63.63,0,0,0,.65.07l.75-.33,2.93-1.3,5.55-2.45,9.39-4.13,6.35-2.77,1.73-.74.45-.19.16-.05-.15.08-.44.21-1.71.78-6.31,2.85-9.38,4.18-5.54,2.47-2.93,1.3-.75.33a.91.91,0,0,1-.91-.11.85.85,0,0,1-.28-.37.93.93,0,0,1-.1-.47.91.91,0,0,1,.53-.76l20.9-9.22,6.34-2.76a.8.8,0,0,1,1,.24.89.89,0,0,1,.15.78.75.75,0,0,1-.3.39A.38.38,0,0,1,118.21,230.51Z"/><path class="cls-3" d="M81.51,231.12c.12.26,3.4,6.17,5.09,9.2a4.16,4.16,0,0,0,3,2.09l1.85.29,27.23-11.95,1-1.54a4.15,4.15,0,0,0,.46-3.64l-3.38-9.91Z"/><g class="cls-12"><path d="M97.38,251a39.27,39.27,0,0,0,8.4-2.93c2.32-1,4.63-2,7.13-3.13,1.83-.85,3.49-1.69,5.3-2.58a5.44,5.44,0,0,0,1.94-1.41Z"/></g><g class="cls-12"><path d="M95,248.27a45.38,45.38,0,0,0,9-3.21c2.51-1.12,5-2.13,7.69-3.38,2-.91,3.77-1.81,5.72-2.76a6.28,6.28,0,0,0,2.11-1.48Z"/></g><g class="cls-12"><path d="M93.63,245.12a44.62,44.62,0,0,0,9-3.21c2.51-1.11,5-2.13,7.69-3.37,2-.92,3.77-1.81,5.72-2.77a6.28,6.28,0,0,0,2.11-1.48Z"/></g><g class="cls-12"><path d="M92.25,242a44.89,44.89,0,0,0,9-3.22c2.51-1.11,5-2.12,7.69-3.37,2-.91,3.77-1.81,5.72-2.76a6.28,6.28,0,0,0,2.11-1.48Z"/></g><path class="cls-13" d="M81.51,231.12c.12.26,3.4,6.17,5.09,9.2a4.16,4.16,0,0,0,3,2.09l1.85.29,27.23-11.95,1-1.54a4.15,4.15,0,0,0,.46-3.64l-3.38-9.91Z"/><path class="cls-6" d="M120,227.17c0,.07-7.23,3.32-16.22,7.27s-16.29,7.09-16.32,7,7.23-3.32,16.22-7.26S120,227.11,120,227.17Z"/><path class="cls-6" d="M116.47,215.56c0,.07-7.83,3.64-17.58,8s-17.67,7.77-17.7,7.7,7.83-3.64,17.58-8S116.44,215.49,116.47,215.56Z"/><path class="cls-14" d="M436.64,148.68l-12.49-1.46a40.11,40.11,0,1,1,8.1-11.89v0Z"/><path class="cls-6" d="M436.64,148.68l-.31-.88-.87-2.57c-.76-2.25-1.87-5.57-3.32-9.88l.22,0h0a.11.11,0,0,1-.17,0,.12.12,0,0,1,0-.15,40.17,40.17,0,0,0,3.25-19.48,39.73,39.73,0,0,0-1-6.1,44.91,44.91,0,0,0-2.13-6.26,39.82,39.82,0,0,0-76.1,10.46A40.68,40.68,0,0,0,358,132.12a39.3,39.3,0,0,0,9.07,14.69,40.05,40.05,0,0,0,27.41,12.09l1.71,0a11.69,11.69,0,0,0,1.68-.06l3.28-.28a55.83,55.83,0,0,0,6.07-1.34,39.92,39.92,0,0,0,16.85-10.1.14.14,0,0,1,.1,0l9.25,1.16,2.4.3.83.12-.78-.07-2.38-.25-9.34-1,.09,0a40,40,0,0,1-16.91,10.3,54.6,54.6,0,0,1-6.13,1.37l-3.3.31a12,12,0,0,1-1.7.06l-1.73,0a40.13,40.13,0,0,1-14.36-3.07,40.62,40.62,0,0,1-13.4-9.08,39.84,39.84,0,0,1-9.22-14.87,41,41,0,0,1-1.88-18.48,40.08,40.08,0,0,1,7.1-18.11,18.86,18.86,0,0,1,1.48-1.95l1.55-1.87,1.71-1.72a16,16,0,0,1,1.77-1.63L371.06,87a23.76,23.76,0,0,1,2-1.37c.66-.44,1.3-.91,2-1.3l2.08-1.12a39.78,39.78,0,0,1,17.65-4.5,40.27,40.27,0,0,1,37.92,24.54,44.39,44.39,0,0,1,2.12,6.33,39.47,39.47,0,0,1,1,6.17,40,40,0,0,1-3.39,19.62l-.21-.13v0a.14.14,0,0,1,.18,0s0,0,0,.06c1.4,4.37,2.47,7.73,3.2,10l.81,2.55C436.56,148.4,436.64,148.68,436.64,148.68Z"/><polygon class="cls-3" points="377.13 119.99 381.93 114.68 392.11 122.85 407.23 105.49 412.18 110.3 391.88 132.63 377.13 119.99"/><path class="cls-3" d="M326.6,152.15l7.93-1a.11.11,0,0,1,.08,0,34.37,34.37,0,0,0,14.45,8.66,49.77,49.77,0,0,0,5.21,1.15l2.81.24a9.81,9.81,0,0,0,1.44,0l1.47,0a34.29,34.29,0,0,0,12.16-2.64c1-.44,2.08-.94,3.09-1.49l-.93-.36a40,40,0,0,1-13.14-8.9,39,39,0,0,1-9-14.58,40.29,40.29,0,0,1-1.85-18.11,39.26,39.26,0,0,1,7-17.75,16.83,16.83,0,0,1,1.45-1.91l1.52-1.84.65-.65c-.38,0-.75-.05-1.12-.05a34.25,34.25,0,0,0-25.37,10.47,33.93,33.93,0,0,0-6.79,10.25,37,37,0,0,0-1.83,5.37,32.89,32.89,0,0,0-.85,5.23A34.3,34.3,0,0,0,327.7,141a.1.1,0,0,1,0,.12c-1.23,3.67-2.18,6.49-2.83,8.42l-.74,2.19c-.17.5-.27.76-.27.76l.71-.1Z"/><path class="cls-3" d="M326.6,152.15l-.69.12-2.07.3h-.1l0-.09c.78-2.34,2.06-6.22,3.77-11.39l0-.06s0,.07,0,0l-.07-.17-.14-.32-.27-.67c-.19-.46-.35-.92-.53-1.4q-.49-1.44-.9-3a33.32,33.32,0,0,1-1-6.91,34.52,34.52,0,0,1,.56-7.8,33.88,33.88,0,0,1,1.06-4.07,28.66,28.66,0,0,1,1.61-4.09,34.13,34.13,0,0,1,12.5-14.34,34.62,34.62,0,0,1,20.51-5.46l.57,0-.4.41-.65.65h0a40.4,40.4,0,0,0-9.49,18.92,39.21,39.21,0,0,0,24.39,44.15l.49.19-.46.22a42.38,42.38,0,0,1-5.41,2.35A34.25,34.25,0,0,1,364.5,161a36,36,0,0,1-10.24.15h0c-1.15-.23-2.29-.42-3.39-.67a29.14,29.14,0,0,1-3.16-.92,34.68,34.68,0,0,1-5.48-2.47,34,34,0,0,1-7.62-5.81c0-.09-.23,0-.38,0l-.47,0-.89.11-1.62.19-2.53.29-1.56.17-.54,0,.53-.09,1.55-.22,2.53-.34,1.62-.22.89-.11.47-.07.24,0h.15a.17.17,0,0,1,.1.06l.05,0a34.1,34.1,0,0,0,7.62,5.7,34.71,34.71,0,0,0,12,4h0a44.14,44.14,0,0,0,4.93.28,33.71,33.71,0,0,0,5.22-.46,36,36,0,0,0,5.37-1.34,45,45,0,0,0,5.33-2.34l0,.4a39.63,39.63,0,0,1-24.74-44.67A40.77,40.77,0,0,1,360,93.53h0l.65-.65.17.43a34,34,0,0,0-32.61,19.46,28.49,28.49,0,0,0-1.6,4,33.31,33.31,0,0,0-1.07,4,34.45,34.45,0,0,0-.59,7.72,33.69,33.69,0,0,0,.95,6.85c.26,1.05.55,2.05.87,3,.17.47.33.94.51,1.39l.27.66.14.33.06.16s.07.25-.05.31l0-.06c-1.76,5.18-3.08,9.06-3.9,11.35l-.07-.08,2.08-.24Z"/><rect class="cls-11" x="645.76" y="81.27" width="21.34" height="76.91" rx="4.45"/><rect class="cls-11" x="578.9" y="126.53" width="21.34" height="34.92" rx="4.6"/><rect class="cls-11" x="611.88" y="107.55" width="21.34" height="53.9" rx="4.92"/><path class="cls-6" d="M659.21,55.86a4.46,4.46,0,0,1-.51.67l-1.59,1.87-6,6.91L630.16,88.9l-.23.26-.3-.19-13.09-8.55.55-.08-.5.58L588.9,113.41l-.18.22-.23-.17-10.41-7.73-2.81-2.14a6.57,6.57,0,0,1-.94-.79,7.07,7.07,0,0,1,1,.65l2.9,2L588.85,113l-.41,0,27.5-32.65.5-.58.25-.29.31.2,13.08,8.59-.53.06L650.7,65l6.21-6.74,1.68-1.78A3.39,3.39,0,0,1,659.21,55.86Z"/><path class="cls-6" d="M659.89,72.09a28.15,28.15,0,0,1-.3-4.9c-.08-3-.13-7.24-.13-11.91l.49.42-.42.07c-4.7.78-9,1.43-12,1.86a28.6,28.6,0,0,1-5,.53A30,30,0,0,1,647.38,57c3.07-.58,7.31-1.33,12-2.11l.43-.07.49-.08v.5c0,4.67,0,8.87-.13,11.91A28.92,28.92,0,0,1,659.89,72.09Z"/></g></svg>