<svg xmlns="http://www.w3.org/2000/svg" viewBox="0 0 640.34 478"><defs><style>.cls-1{fill:#e0e0e0;}.cls-2{fill:#f5f5f5;}.cls-3{fill:#263238;}.cls-4{fill:#8ea382;}.cls-5{fill:#ffbf9d;}.cls-6{fill:#ff9a6c;}.cls-7{fill:#455a64;}.cls-8{fill:#ae7461;}.cls-9{fill:#6f4439;}.cls-10{opacity:0.3;}</style></defs><title>salaman3</title><g id="Desk"><path class="cls-1" d="M302.14,262.51a40.16,40.16,0,0,1,9.88-4.29l2-9.78,16.53-.29,2.37,9.7a40.56,40.56,0,0,1,10,3.94l8.35-5.47,11.89,11.48L358,276.33a40.81,40.81,0,0,1,4.3,9.89l9.77,2,.29,16.52-9.7,2.38a40.32,40.32,0,0,1-3.94,10l5.47,8.35-11.47,11.89-8.54-5.18a40.32,40.32,0,0,1-9.88,4.29l-2,9.78-16.52.29-2.38-9.7a40.64,40.64,0,0,1-10-3.94L295,338.43,283.14,327l5.17-8.53a40.61,40.61,0,0,1-4.29-9.89l-9.78-2L274,290l9.7-2.38a40.74,40.74,0,0,1,4-10l-5.48-8.35,11.48-11.88,8.54,5.17Zm8.81,22a17.73,17.73,0,1,0,25.06-.44A17.73,17.73,0,0,0,311,284.52Z"/><path class="cls-1" d="M253.11,200.44a27.82,27.82,0,0,1,6.09-4.28l0-6.91,11.14-2.49,3,6.24a27.64,27.64,0,0,1,7.33,1.27l4.89-4.86,9.64,6.11-2.31,6.5a28,28,0,0,1,4.28,6.09l6.9,0,2.49,11.14-6.23,3a28.14,28.14,0,0,1-1.28,7.33l4.86,4.89-6.11,9.64-6.5-2.32a27.36,27.36,0,0,1-6.09,4.28l0,6.9L274,255.45l-2.95-6.24a27.71,27.71,0,0,1-7.34-1.27l-4.89,4.86-9.64-6.11,2.32-6.5a27.69,27.69,0,0,1-4.28-6.09l-6.9,0-2.49-11.14,6.23-3a28.07,28.07,0,0,1,1.28-7.33l-4.87-4.89,6.12-9.64,6.49,2.32Zm9,13.67A12.25,12.25,0,1,0,279,210.32,12.24,12.24,0,0,0,262.13,214.11Z"/><path class="cls-1" d="M430,77.61a27.82,27.82,0,0,1,6.09-4.28l0-6.9,11.14-2.5,3,6.24a27.64,27.64,0,0,1,7.33,1.27l4.89-4.86,9.65,6.11-2.32,6.5a28,28,0,0,1,4.28,6.09l6.9,0,2.49,11.14-6.23,3a28.14,28.14,0,0,1-1.28,7.33l4.87,4.89-6.12,9.64-6.5-2.32a27.36,27.36,0,0,1-6.09,4.28v6.91L451,132.62l-3-6.24a27.78,27.78,0,0,1-7.34-1.27L435.77,130l-9.64-6.11,2.32-6.5a28,28,0,0,1-4.28-6.09l-6.9,0-2.49-11.14,6.23-3a28.14,28.14,0,0,1,1.28-7.33l-4.87-4.89,6.12-9.64L430,77.61Zm9,13.67A12.25,12.25,0,1,0,456,87.49,12.24,12.24,0,0,0,439.06,91.28Z"/><path class="cls-1" d="M531.26,293.08a28.52,28.52,0,0,1,6.09-4.28l0-6.9,11.14-2.49,3,6.23a28.07,28.07,0,0,1,7.33,1.28l4.89-4.87,9.65,6.12L571,294.66a28.52,28.52,0,0,1,4.28,6.09l6.9,0,2.49,11.14-6.23,3a28.07,28.07,0,0,1-1.28,7.33l4.87,4.89-6.12,9.65-6.5-2.32a28,28,0,0,1-6.09,4.28v6.9l-11.14,2.49-3-6.23a28.21,28.21,0,0,1-7.34-1.28L537,345.45l-9.64-6.12,2.32-6.49a28.33,28.33,0,0,1-4.28-6.1h-6.9L516,315.59l6.23-3a28.07,28.07,0,0,1,1.28-7.33l-4.87-4.9,6.12-9.64,6.49,2.32Zm9,13.67A12.25,12.25,0,1,0,557.19,303,12.25,12.25,0,0,0,540.28,306.75Z"/><path class="cls-1" d="M77.39,369.64a27.69,27.69,0,0,1,6.09-4.28l0-6.9L94.64,356l3,6.24a27.71,27.71,0,0,1,7.34,1.27l4.89-4.86,9.64,6.11-2.32,6.5a27.59,27.59,0,0,1,4.28,6.09l6.9,0,2.5,11.14-6.24,3a28.47,28.47,0,0,1-1.27,7.33l4.86,4.89-6.11,9.64-6.5-2.31a28.27,28.27,0,0,1-6.09,4.28l0,6.9-11.14,2.49-3-6.24A27.64,27.64,0,0,1,88,417.14L83.13,422l-9.64-6.11,2.31-6.5a28,28,0,0,1-4.28-6.09l-6.9,0-2.49-11.14,6.23-3a28.14,28.14,0,0,1,1.28-7.33L64.78,377l6.11-9.64,6.5,2.32Zm9,13.67a12.25,12.25,0,1,0,16.9-3.78A12.25,12.25,0,0,0,86.41,383.31Z"/><path class="cls-1" d="M134.11,96.33a28,28,0,0,1,6.09-4.28v-6.9l11.15-2.49,2.95,6.23a28.14,28.14,0,0,1,7.34,1.28l4.89-4.87,9.64,6.12-2.32,6.49a27.93,27.93,0,0,1,4.28,6.09l6.9,0,2.49,11.14-6.23,3a28.07,28.07,0,0,1-1.28,7.33l4.87,4.89L178.77,140l-6.49-2.31a28.27,28.27,0,0,1-6.09,4.28l0,6.9L155,151.34l-3-6.23a28.07,28.07,0,0,1-7.33-1.28l-4.89,4.86-9.64-6.11,2.31-6.5a28,28,0,0,1-4.28-6.09l-6.9,0-2.49-11.14,6.23-3a28.14,28.14,0,0,1,1.28-7.34l-4.86-4.89L127.61,94l6.5,2.32Zm9,13.67a12.25,12.25,0,1,0,16.9-3.78A12.25,12.25,0,0,0,143.13,110Z"/><path class="cls-2" d="M336.73,199.68a20.53,20.53,0,0,1,4.51-3.17v-5.12l8.26-1.84,2.19,4.62a20.77,20.77,0,0,1,5.43.94l3.63-3.6L367.9,196l-1.72,4.81a20.53,20.53,0,0,1,3.17,4.51l5.12,0,1.84,8.25-4.61,2.19a21.2,21.2,0,0,1-.95,5.44l3.6,3.62L369.82,232,365,230.31a20.53,20.53,0,0,1-4.51,3.17l0,5.11-8.25,1.85L350,235.82a20.45,20.45,0,0,1-5.44-.95L341,238.48,333.84,234l1.71-4.82a20.53,20.53,0,0,1-3.17-4.51h-5.11l-1.85-8.26,4.62-2.19a20.37,20.37,0,0,1,.95-5.43l-3.61-3.63,4.53-7.14,4.82,1.72Zm6.68,10.13A9.08,9.08,0,1,0,355.93,207,9.08,9.08,0,0,0,343.41,209.81Z"/><path class="cls-2" d="M293.55,15a20.53,20.53,0,0,1,4.51-3.17V6.69l8.26-1.84,2.19,4.62a20.77,20.77,0,0,1,5.43.94l3.63-3.6,7.14,4.53L323,16.15a21,21,0,0,1,3.18,4.52h5.11l1.85,8.25-4.62,2.2a21.2,21.2,0,0,1-.95,5.43l3.61,3.62-4.54,7.15-4.81-1.72a20.53,20.53,0,0,1-4.51,3.17l0,5.11-8.25,1.85-2.19-4.62a20.84,20.84,0,0,1-5.44-.94l-3.62,3.6-7.14-4.53,1.71-4.81a20.83,20.83,0,0,1-3.17-4.52h-5.11l-1.85-8.26,4.62-2.19a20.37,20.37,0,0,1,.95-5.43l-3.61-3.62,4.53-7.15L293.55,15Zm6.68,10.13a9.08,9.08,0,1,0,12.53-2.8A9.08,9.08,0,0,0,300.23,25.11Z"/><path class="cls-3" d="M634.12,460.48c0,.14-139.87.26-312.37.26s-312.41-.12-312.41-.26,139.84-.26,312.41-.26S634.12,460.33,634.12,460.48Z"/><path class="cls-4" d="M136.72,218.9,94.77,202.61a243.08,243.08,0,0,1,109.37-125c6.2-3.4,12.65-6.59,19.17-9.46,4.46-2,9-3.82,13.57-5.51l15.67,42.19c-3.71,1.38-7.45,2.89-11.09,4.5-5.33,2.35-10.6,5-15.67,7.73A198,198,0,0,0,136.72,218.9Z"/><polygon class="cls-4" points="250.9 125.97 222.95 41.44 296.36 66.64 250.9 125.97"/><path class="cls-4" d="M136.62,453a242.25,242.25,0,0,1-59-115.61c-1.41-6.94-2.53-14.05-3.34-21.12a246.06,246.06,0,0,1-1.41-37l45,1.71A200.66,200.66,0,0,0,119,311.14c.66,5.78,1.58,11.58,2.73,17.25a197.26,197.26,0,0,0,48,94.13Z"/><polygon class="cls-4" points="138.77 302.21 43.3 293.08 100.01 231.64 138.77 302.21"/><polygon class="cls-4" points="471.45 371.71 550.07 413.5 479.59 446.01 471.45 371.71"/><path class="cls-4" d="M518.31,424.65l-37.79-24.44a201.61,201.61,0,0,0,11.64-20.58c2.57-5.23,4.92-10.61,7-16a198,198,0,0,0,2.59-135.25l42.58-14.55a243.06,243.06,0,0,1-3.2,166c-2.56,6.61-5.44,13.2-8.58,19.59A247.22,247.22,0,0,1,518.31,424.65Z"/><path class="cls-4" d="M486.33,189.13a196.18,196.18,0,0,0-94.8-78.68c-5.38-2.12-10.94-4-16.51-5.68a199.82,199.82,0,0,0-37.65-7.33l4.28-44.79a244.45,244.45,0,0,1,46.15,9c6.82,2,13.62,4.37,20.22,7a240.87,240.87,0,0,1,116.4,96.59Z"/><polygon class="cls-4" points="454.47 177.09 528.96 128.32 523.51 205.74 454.47 177.09"/><path class="cls-5" d="M236.94,142.68l1.68.07a32.44,32.44,0,0,1,31.16,31.08c.66,15.71,1.18,33.07.75,41.47-.9,17.39-18.4,19.42-18.4,19.42l-.07,7.09c-.1,11.73-1.9,24.6-13.62,24.44l-7.83-3.48a21.14,21.14,0,0,1-20.85-21.16l.06-64.84C209,158.64,218.8,143,236.94,142.68Z"/><path class="cls-6" d="M252.27,234.7a42.3,42.3,0,0,1-22.54-7.56S234.61,239.87,252,239Z"/><path class="cls-3" d="M263.38,189.43a2.48,2.48,0,0,1-2.49,2.42,2.37,2.37,0,0,1-2.47-2.34,2.48,2.48,0,0,1,2.49-2.42A2.37,2.37,0,0,1,263.38,189.43Z"/><path class="cls-3" d="M265.71,182.18c-.32.31-2.15-1.15-4.82-1.25s-4.69,1.17-5,.83c-.13-.15.2-.73,1.08-1.31a6.84,6.84,0,0,1,4-1.07,6.56,6.56,0,0,1,3.82,1.4C265.61,181.45,265.87,182,265.71,182.18Z"/><path class="cls-3" d="M240.23,188.84a2.48,2.48,0,0,1-2.49,2.42,2.39,2.39,0,0,1-2.48-2.34,2.49,2.49,0,0,1,2.49-2.42A2.38,2.38,0,0,1,240.23,188.84Z"/><path class="cls-3" d="M239.41,181.66c-.32.31-2.15-1.15-4.83-1.25s-4.68,1.16-5,.82c-.14-.15.2-.72,1.08-1.31a6.82,6.82,0,0,1,4-1.06,6.52,6.52,0,0,1,3.82,1.4C239.31,180.92,239.56,181.52,239.41,181.66Z"/><path class="cls-3" d="M248.34,201.87c0-.16,1.67-.38,4.37-.62.69,0,1.34-.15,1.47-.61a3.49,3.49,0,0,0-.37-2q-.87-2.51-1.82-5.27c-2.52-7.52-4.31-13.68-4-13.78s2.59,5.91,5.11,13.42l1.73,5.31a3.92,3.92,0,0,1,.25,2.69,1.75,1.75,0,0,1-1.16,1,5.1,5.1,0,0,1-1.17.11C250,202.07,248.35,202,248.34,201.87Z"/><path class="cls-3" d="M240.51,171.21c-.3.71-2.95.27-6.1.52s-5.73,1-6.12.35c-.17-.32.3-1,1.35-1.65a10.11,10.11,0,0,1,4.57-1.41,10.34,10.34,0,0,1,4.73.74C240.08,170.27,240.63,170.87,240.51,171.21Z"/><path class="cls-3" d="M265,174.41c-.5.59-2.31-.12-4.53-.23s-4.1.25-4.51-.41c-.18-.31.14-.91,1-1.45a6.58,6.58,0,0,1,7.29.51C265,173.48,265.25,174.12,265,174.41Z"/><path class="cls-3" d="M268.42,165.77S264.25,154.7,259.1,152c-6.24-3.33-9.25,3.55-15.25,1.62s-11.95-5.12-18.33-.68c-7,4.87-3.94,8.59-4.66,16.29-2.92,31.24-9,39.87-10,25.06-.12-1.62-4.55-3.08-5-9.93-.51-8.88-.44-19.64,1.78-25.84,1.87-5.23,5-8.77,10.6-12.59,8.79-6,20.53-5.72,28.47-4.6S269.67,152.16,268.42,165.77Z"/><path class="cls-5" d="M212,193.81a4.73,4.73,0,0,0-4.93-4.75c-3.25.18-6.94,1.89-7,8.6-.08,11.91,11.89,9.54,11.91,9.19S212,198.79,212,193.81Z"/><path class="cls-6" d="M209.4,202.36c-.05,0-.21.14-.56.3a2.08,2.08,0,0,1-1.55,0c-1.25-.47-2.3-2.48-2.34-4.62a6.74,6.74,0,0,1,.6-3,2.4,2.4,0,0,1,1.57-1.58,1.05,1.05,0,0,1,1.22.58c.16.33.08.57.14.59s.26-.2.17-.69a1.36,1.36,0,0,0-.46-.75,1.54,1.54,0,0,0-1.15-.31,2.89,2.89,0,0,0-2.18,1.83,7,7,0,0,0-.74,3.31c.06,2.4,1.27,4.66,3,5.17a2.27,2.27,0,0,0,1.9-.3C209.38,202.64,209.44,202.38,209.4,202.36Z"/><path class="cls-3" d="M272.16,153.21c-1.68-1.54-4.16-2-5.84-3.54-3-2.83-2.62-8.57-6.34-10.44-2.2-1.11-4.88-.27-7.29-.76-3.91-.79-5.15-3.92-11.15-4.51-7.78-.78-10.85,4.79-10.85,4.79a9,9,0,0,0-9.05,0c-3.75,2.05-4.45,6.8-4.45,6.8s-1.17-.74-5.2,1.86c-2.56,1.65-4.89,5.51-6,8.33-1.7,4.21-.26,9,1.18,13.26.79,2.33,1.78,4.9,4,5.91,2.73,1.22,6.05-.68,7.42-3.35s3.39-5.28,5-7.81c2.77-4.4,5.57-8.48,3.9-11.62a13.49,13.49,0,0,1,8.32.75c2.63,1.16,4.83,3.13,7.43,4.34s6,1.49,8.06-.53a5.83,5.83,0,0,0,8.69,2.79c1.78,3.69,6.62,5.78,10.31,4S275.18,156,272.16,153.21Z"/><path class="cls-7" d="M206.22,166.08a14.71,14.71,0,0,1,1.11,2.84A5.79,5.79,0,0,0,209,171.5a5.21,5.21,0,0,0,3.63.77,9,9,0,0,0,3.69-1.15,14.33,14.33,0,0,0,2.52-2,19.91,19.91,0,0,1,2.2-2.11,10,10,0,0,1-1.84,2.46,12.3,12.3,0,0,1-2.55,2.22,9.05,9.05,0,0,1-4,1.3,5.69,5.69,0,0,1-4.09-1,6,6,0,0,1-1.78-2.93A11.84,11.84,0,0,1,206.22,166.08Z"/><path class="cls-7" d="M205.78,175.25a10.27,10.27,0,0,0,2.22,1.52,6.58,6.58,0,0,0,2.8.51,8.13,8.13,0,0,0,3.37-.92,16.38,16.38,0,0,0,4.9-4.25,13.32,13.32,0,0,1,1.82-2.09,9,9,0,0,1-1.43,2.39,14.43,14.43,0,0,1-5,4.58,8.32,8.32,0,0,1-3.68.95,6.64,6.64,0,0,1-3-.72C206.17,176.37,205.71,175.26,205.78,175.25Z"/><path class="cls-7" d="M205.56,182.07a11,11,0,0,0,2.22,1.2,7.27,7.27,0,0,0,5.78-.74,16.67,16.67,0,0,0,4.55-4.06,11.38,11.38,0,0,1,1.73-1.94,8.26,8.26,0,0,1-1.33,2.25,14.46,14.46,0,0,1-4.61,4.37,8.1,8.1,0,0,1-3.41,1,6.67,6.67,0,0,1-2.88-.45C206,183.08,205.49,182.1,205.56,182.07Z"/><path class="cls-6" d="M240.37,205.49a14.77,14.77,0,0,0-1.05,3.91,4.49,4.49,0,0,0,1,3.61,5,5,0,0,0,3.66,2.14h0a5.56,5.56,0,0,0,5.91-4.18l.75-2.88C247.92,207.08,240.56,205.7,240.37,205.49Z"/><path class="cls-3" d="M246.84,214.58c0-.06-.35,0-1,0a8.29,8.29,0,0,1-2.5-.23,4.85,4.85,0,0,1-2.87-2.07,6.42,6.42,0,0,1,.07-6.61l-.38.15c2.62.66,4.91,1.2,6.56,1.56a10.94,10.94,0,0,0,2.66.45,12,12,0,0,0-2.55-.89c-1.61-.48-3.89-1.11-6.5-1.81l-.24-.06-.14.21a6.49,6.49,0,0,0-1,2.62,6.63,6.63,0,0,0,.95,4.76,5.29,5.29,0,0,0,3.31,2.19,6.84,6.84,0,0,0,2.65,0A2.38,2.38,0,0,0,246.84,214.58Z"/><path class="cls-3" d="M426.93,179.23c4-2.43,5-8.18,2.92-12.34s-6.53-6.72-11.09-7.53a21.34,21.34,0,0,0-18.49,5.83c-2.56,2.56-4.66,5.93-8.11,7.07-3,1-6.34,0-9.51.37-4.25.49-7.93,3.45-10.16,7.1s-3.19,7.93-3.75,12.17c-.52,3.89-.88,8.16-3.63,11s-6.85,3.26-10.16,5.19c-6.22,3.62-8.36,12.78-4.37,18.78,1.27,1.91,3.11,3.68,3.22,6,.11,2.09-1.27,3.94-1.93,5.93-1.71,5.12,2.42,11.29,7.8,11.68,2.72.19,5.64-.83,8.06.43s3.27,4.17,4.78,6.41a11.66,11.66,0,0,0,14.15,3.88c2-.95,3.93-2.54,6.15-2.36s3.93,2.1,6.11,2.55c2.85.6,5.59-1.47,7.33-3.8s3-5.11,5.16-7c2.88-2.49,6.89-3.06,10.51-4.25a29.48,29.48,0,0,0,17.26-41.06"/><path class="cls-7" d="M384.74,229.84a7.92,7.92,0,0,0-3.14-2.14h.24c-.22-.06-.45-.09-.68-.13a3.17,3.17,0,0,0-2.49.28h0a5.84,5.84,0,0,0-3.26,2.76,7,7,0,0,0,.71,7.18,5.32,5.32,0,0,0,9.79-1.69A6.58,6.58,0,0,0,384.74,229.84Z"/><path class="cls-8" d="M435.71,273.5,441,197.16a6.5,6.5,0,0,0-5.52-6.83l-34-10.17c-11-1.64-18.87,11.61-20,22.63C380.11,215,379,230,380.07,239.26c2.13,18.55,17.26,21.58,17.26,21.58s-.17,18.86-.38,25.55l-4.51,20.71Z"/><path class="cls-3" d="M385,216.48A2.37,2.37,0,0,0,387.2,219a2.27,2.27,0,0,0,2.53-2,2.36,2.36,0,0,0-2.17-2.48A2.26,2.26,0,0,0,385,216.48Z"/><path class="cls-3" d="M384.45,209.5c.27.32,2.12-.93,4.66-.81s4.36,1.47,4.64,1.17c.15-.13-.13-.7-.92-1.33a6.47,6.47,0,0,0-3.69-1.32,6.26,6.26,0,0,0-3.74,1C384.6,208.81,384.31,209.36,384.45,209.5Z"/><path class="cls-3" d="M408,218.26a2.36,2.36,0,0,0,2.18,2.48,2.25,2.25,0,0,0,2.52-2,2.35,2.35,0,0,0-2.17-2.48A2.26,2.26,0,0,0,408,218.26Z"/><path class="cls-3" d="M409.42,211.05c.28.32,2.13-.93,4.67-.81s4.35,1.47,4.64,1.17c.14-.13-.13-.7-.92-1.33a6.61,6.61,0,0,0-3.7-1.32,6.25,6.25,0,0,0-3.73,1C409.57,210.36,409.28,210.91,409.42,211.05Z"/><path class="cls-3" d="M399.38,229.51c0-.15-1.55-.49-4.1-.92-.65-.1-1.25-.25-1.35-.7a3.32,3.32,0,0,1,.52-1.91q1-2.31,2.13-4.86c3-6.92,5.15-12.63,4.87-12.75s-2.91,5.4-5.88,12.33l-2.05,4.89a3.76,3.76,0,0,0-.45,2.54,1.61,1.61,0,0,0,1,1,4,4,0,0,0,1.09.2C397.76,229.57,399.36,229.65,399.38,229.51Z"/><path class="cls-9" d="M397.22,260.81s11.26,1.26,23.85-5.59c0,0-5.53,13.63-23.9,11.11Z"/><path class="cls-9" d="M399.49,235.57a6.27,6.27,0,0,1,5.27-2.51,4.09,4.09,0,0,1,3.27,2,3.94,3.94,0,0,1-.24,4.11,3.89,3.89,0,0,1-4.19,1.31A9.32,9.32,0,0,1,400,238a2.79,2.79,0,0,1-.77-1,1.29,1.29,0,0,1,.16-1.28"/><path class="cls-3" d="M406.79,231.59c-.42,0-.54,2.72-3,4.57s-5.37,1.43-5.41,1.82c0,.17.63.56,1.87.65a6.87,6.87,0,0,0,4.51-1.36,6,6,0,0,0,2.33-3.84C407.25,232.28,407,231.58,406.79,231.59Z"/><path class="cls-3" d="M408.74,200.53c.23.71,2.78.49,5.75,1s5.34,1.4,5.76.8c.19-.29-.2-1-1.14-1.67a9.76,9.76,0,0,0-4.23-1.69,9.66,9.66,0,0,0-4.54.34C409.23,199.68,408.65,200.2,408.74,200.53Z"/><path class="cls-3" d="M385.72,200.79c.42.59,2.2.07,4.3.13s3.88.56,4.31,0c.2-.28-.06-.87-.82-1.45a6.23,6.23,0,0,0-6.94-.09C385.8,199.91,385.53,200.5,385.72,200.79Z"/><path class="cls-3" d="M369.15,197.49a12.63,12.63,0,0,1,5-6.9c1.34-.85,2.89-1.35,4.14-2.33,2.69-2.11,3.36-5.85,5.05-8.82A13.91,13.91,0,0,1,394,172.56c3.66-.32,7.4.83,11,0,2.64-.62,5-2.3,7.64-2.77,5.2-.91,10,2.89,13.68,6.65,0,3.72-3,6.16-5.92,8.51a12.9,12.9,0,0,1-10.47,2.6c-2.83-.56-5.92-2-8.4-.57s-2.77,5.45-5.09,7.4c-3.31,2.79-8.48,0-12.65,1.22-3.22.91-5.27,3.95-7.44,6.5S371,207,367.75,206A37.81,37.81,0,0,1,369.15,197.49Z"/><path class="cls-3" d="M408.37,182.35c2.34-.63,7.12-2.07,8.4-4.07,2.77-4.34,7.6-7.27,12.48-6.93a11.75,11.75,0,0,1,10.44,9.44,16.87,16.87,0,0,1,14.37,9.55,16.6,16.6,0,0,1,.89,2.18,12.81,12.81,0,0,1,.7,10.8c-.83,2.09-2.24,4.41-1.19,6.4s3.86,2.13,6,2.9a8.53,8.53,0,0,1,5.23,9.61c-.32,1.39-1,2.78-.74,4.19s1.52,2.51,2.46,3.66a10.62,10.62,0,0,1-6.48,17.19c-1.66.27-3.45.18-4.9,1-1.66,1-2.4,2.95-3.59,4.48a9.16,9.16,0,0,1-10,3,8.47,8.47,0,0,1-2-1c-1.13,1.52-2.89,2.54-5.87,2.49l1.26-38.85a3.25,3.25,0,0,1-2.39,1.81c-6.26,1.32-7-11.55-5.54-15a36.47,36.47,0,0,1-6.16-6.67c-1.68-2.58-3.1-9.54-2.69-12.66C416.87,185.93,407.34,182.63,408.37,182.35Z"/><path class="cls-8" d="M434.13,221.49c.26-3.94,5.1-4.72,8.5-2.69,1.86,1.12,3.27,3.32,3,7.51-.62,11.18-11.71,8.25-11.72,7.93S433.83,226.12,434.13,221.49Z"/><path class="cls-9" d="M437.6,230.19s.18.15.5.32a2,2,0,0,0,1.46.11c1.2-.37,2.3-2.19,2.47-4.2a6.64,6.64,0,0,0-.39-2.82,2.26,2.26,0,0,0-1.38-1.57,1,1,0,0,0-1.18.47c-.17.3-.11.53-.17.54s-.23-.2-.11-.65a1.18,1.18,0,0,1,.48-.68,1.47,1.47,0,0,1,1.09-.22,2.7,2.7,0,0,1,1.93,1.84,6.65,6.65,0,0,1,.51,3.16c-.2,2.24-1.47,4.29-3.11,4.66a2.09,2.09,0,0,1-1.77-.39C437.6,230.46,437.56,230.21,437.6,230.19Z"/><path class="cls-7" d="M423.81,179.56a6.48,6.48,0,0,1,2.21,1.9c1.08,1.54,1.45,4.46.71,7.74l-.07.28.28.08a10.82,10.82,0,0,1,7.11,6.45,8.78,8.78,0,0,1,.54,2.74,16.66,16.66,0,0,1-.4,2.95,23.91,23.91,0,0,0-.47,3.17,5.26,5.26,0,0,0,.84,3.32c1.36,2.13,3.58,3.21,5.49,4.25a18.79,18.79,0,0,1,5.14,3.47,14,14,0,0,1,4,9.44,14.6,14.6,0,0,1-1.58,6.89c-.76,1.51-1.4,2.23-1.33,2.28s.18-.16.48-.5a11,11,0,0,0,1.13-1.64,14.17,14.17,0,0,0-2.22-17,19.4,19.4,0,0,0-5.3-3.66c-1.91-1-4-2.1-5.18-4-1.22-1.72-.63-3.93-.27-5.93a17.64,17.64,0,0,0,.39-3.1,9,9,0,0,0-.62-3,11.34,11.34,0,0,0-7.65-6.76l.21.36c.71-3.44.23-6.47-1-8.08a4.66,4.66,0,0,0-1.73-1.45A2.54,2.54,0,0,0,423.81,179.56Z"/><path class="cls-7" d="M441.71,234.44a8.06,8.06,0,0,0-3.15-2.14h.25a5.39,5.39,0,0,0-.68-.12,3.15,3.15,0,0,0-2.49.27h0a5.88,5.88,0,0,0-3.25,2.75,6.94,6.94,0,0,0,.71,7.18,5.32,5.32,0,0,0,9.79-1.68A6.6,6.6,0,0,0,441.71,234.44Z"/><path class="cls-8" d="M309.08,335.15s3.05-1.57,5.75-1,12.48,7,12.48,7l13.62,4.52L335,371.11l-9.57-4.28-16.34,7.9Z"/><path class="cls-5" d="M284.2,341.15s7.44-.94,10.14-2.28,9.12-7.05,10.46-6.95S314,334,314,334l-5,4.83s9.74,5.9,12.65,8.08,12,11.92,12.43,14.3-.31,5.18-1.45,6.12-5.28-.94-5.28-.94a5.18,5.18,0,0,1-.94,4.25c-1.55,2.08-5.18,1.35-5.18,1.35s-.31,3.42-2,4-5.39-1.24-5.39-1.24-1.12,2.9-2.48,3.21-5.19-2-5.19-2-16.58-11.92-20.31-13.68-4.87-1.86-4.87-1.86Z"/><path class="cls-6" d="M313.92,374.83c-.07,0-.12-.29-.29-.73a13.62,13.62,0,0,0-.84-1.65,10.89,10.89,0,0,1-1.28-2.37,6,6,0,0,1,1.72,2.12A6.23,6.23,0,0,1,314,374C314.07,374.51,314,374.83,313.92,374.83Z"/><path class="cls-6" d="M320.81,372.81a28.12,28.12,0,0,1-2.09-3.13c-1.13-1.72-2.35-2.87-2.26-3a7.2,7.2,0,0,1,2.68,2.7A10.12,10.12,0,0,1,320.81,372.81Z"/><path class="cls-6" d="M327.47,366.83c-.15,0-.61-1.76-1.76-3.69s-2.46-3.22-2.36-3.33a7.8,7.8,0,0,1,2.79,3.08A8.1,8.1,0,0,1,327.47,366.83Z"/><path class="cls-6" d="M322.61,353.9a9.42,9.42,0,0,1,.25,5.59,12.63,12.63,0,0,1-.19-2.79A12.35,12.35,0,0,1,322.61,353.9Z"/><path class="cls-8" d="M298.48,344.57s2.59-8.29,3.53-9.33,12-1.2,12-1.2l.28,4.83-1.92,2-4.15-.27S305.63,347.47,298.48,344.57Z"/><path class="cls-8" d="M286.19,362.32s-1.07.82,0,2.79,4,.57,4.92,0c0,0-1.41,3.29.38,4.32a7,7,0,0,0,3.94.75s-.1,2,2.44,3.28,3.19,0,3.19,0,.28,3.25,3.19,3.57a5.19,5.19,0,0,0,3.12-.31l-1.12-.65s2.31-5.14,1-6.64a4.49,4.49,0,0,0-3.47-1.31s.57-3.05-1.1-3.9a3.08,3.08,0,0,0-4.44,1.36s-.19-3.34-2.63-3.26a5.42,5.42,0,0,0-3.75,1.58Z"/><path class="cls-9" d="M298.24,365.58a12.32,12.32,0,0,1-2.76,4.7,10.16,10.16,0,0,1,1.25-2.42A10.58,10.58,0,0,1,298.24,365.58Z"/><path class="cls-9" d="M303.85,368.2a6.5,6.5,0,0,1-1.06,2.69,6.76,6.76,0,0,1-1.78,2.29,15.37,15.37,0,0,1,1.39-2.51A16.43,16.43,0,0,1,303.85,368.2Z"/><path class="cls-3" d="M271.24,406.07H255.52l-3.85,54.8,16.06-.31c2.68-8.71,6.67-52.69,6.67-52.69Z"/><path class="cls-3" d="M182.21,406.07s-10.06,23.59-9.06,33.14,5.78,21.66,5.78,21.66l79.36-.13a148.07,148.07,0,0,0,3.23-17.28c1.68-11.79,6.21-37.39,6.21-37.39Z"/><path class="cls-7" d="M255,259.83s9.65,39.32,11,48.47c2.51,16.78,12,87.44,10.67,93.67s-2.14,12.71-2.14,12.71-79.12-5-87.62-4.24-12.11.5-14.17-9.21.06-60.19-1.75-72.4-1.82-18.12-2.51-36.25c-.61-15.71,3-28.31,10.44-37.41s24-18.29,24-18.29l5.87-8.56,42.51,21.25L252,243l1.76,10.05Z"/><g class="cls-10"><path d="M274.23,368.69c-.7-1.76-2.94-2.21-4.82-2.42-17.59-1.95-35.91-6.34-48.76-18.51-5-4.77-9-10.52-12.81-16.3-8.35-12.63-16.2-25.58-24.05-38.52l-6.09,2.3c3.73,18.28,7.41,31.52,13.5,46.5s10.81,29.52,26.24,34.42c10,3.18,28.91.74,39.35-.07a61.14,61.14,0,0,0,12.92-2,8.32,8.32,0,0,0,3.5-1.78A3.45,3.45,0,0,0,274.23,368.69Z"/></g><path class="cls-7" d="M187.15,251.27C173.43,253.38,163.5,273,165,284.87c.12.92-6.53,83.29,8.08,89.86,11.57,5.19,53.79,1.27,73.38.14a44.64,44.64,0,0,0,15.66-3.8l12.28-5.49c0,.07,10.39-2.26,10.39-2.26s3.52-8.32-.74-23.53l-20,.84-49.84,0a5.53,5.53,0,0,0-6.25-2.38l5.33-55"/><path class="cls-3" d="M213.32,283.24s0,.32-.06.95-.14,1.59-.25,2.82c-.23,2.49-.57,6.14-1,10.87-.9,9.47-2.2,23.21-3.83,40.36l-.21-.19a6.88,6.88,0,0,1,3.51.1,5.7,5.7,0,0,1,2.93,2.34l-.16-.08h32.34c5.85,0,11.92,0,18.17,0l19.29-.83h.19l.06.19a56.14,56.14,0,0,1,2,11.54A31.54,31.54,0,0,1,285,363.41l0,.12-.14,0-5.48,1.22-2.77.61-1.4.3-.71.14h-.05a.27.27,0,0,1-.25-.39s0,0,0,0l-.08,0-.17.07-.33.15a52.55,52.55,0,0,0-5.26,2.62,20.83,20.83,0,0,1-2.41,1.31l-2.59,1.17a45.7,45.7,0,0,1-17.25,4.34l-6,.38c-14,.93-27.63,1.9-40.85,2a132.76,132.76,0,0,1-19.44-.92,33.69,33.69,0,0,1-4.67-1,15.44,15.44,0,0,1-2.24-.82,6.42,6.42,0,0,1-1.91-1.47,14.44,14.44,0,0,1-2.46-4,31.61,31.61,0,0,1-1.52-4.35,99.12,99.12,0,0,1-2.75-17.54c-.47-5.74-.67-11.32-.76-16.72-.16-10.8.13-20.86.54-30,.2-4.58.45-8.95.71-13.07,0-1,.17-2.08.14-3a21.52,21.52,0,0,1-.11-3,29,29,0,0,1,.76-5.62,40.1,40.1,0,0,1,8.35-16.62,24.7,24.7,0,0,1,9.36-7.09,17.63,17.63,0,0,1,2.94-.9c.68-.13,1-.18,1-.18s-.34.09-1,.23a18.44,18.44,0,0,0-2.91.95,24.9,24.9,0,0,0-9.25,7.12,40.09,40.09,0,0,0-8.21,16.55,27.91,27.91,0,0,0-.73,5.57,20.76,20.76,0,0,0,.11,2.94c0,1.05-.09,2-.13,3.08-.24,4.12-.48,8.49-.67,13.07-.39,9.17-.66,19.22-.48,30,.1,5.39.31,11,.78,16.69a99.31,99.31,0,0,0,2.76,17.45c.84,2.87,1.86,5.86,3.87,8.15a6.34,6.34,0,0,0,1.78,1.36,15.42,15.42,0,0,0,2.16.79,33.52,33.52,0,0,0,4.6,1,133,133,0,0,0,19.37.9C212.38,376.93,226,376,240,375c4-.33,8.06-.32,11.94-1.07a45.53,45.53,0,0,0,11.18-3.61l2.75-1.21a23.14,23.14,0,0,1,2.88-1.06A47.92,47.92,0,0,0,274,366l.33-.14.16-.07.08,0h0c-.09-.06.21.12-.19-.14.06,0,.18.07.22-.1a.21.21,0,0,0-.22-.16s0,0,0,0l.69-.13,1.39-.3,2.77-.6,5.48-1.22-.18.15a31.37,31.37,0,0,0,1.25-11.93,55.4,55.4,0,0,0-2-11.44l.24.18-19.3.81c-6.25.05-12.32,0-18.17,0l-32.35-.06h-.1l0-.08a5.32,5.32,0,0,0-2.73-2.2,6.51,6.51,0,0,0-3.33-.1l-.24.05,0-.24c1.69-17.14,3.05-30.88,4-40.35.48-4.72.85-8.37,1.1-10.86.13-1.23.23-2.17.3-2.81S213.32,283.24,213.32,283.24Z"/><path class="cls-3" d="M251.3,252.78a6.15,6.15,0,0,1-.94-.49l-2.62-1.5.18-.08c-.52,2.62-1,6.48-1.9,11.09l-.06.31-.26-.17c-3.86-2.43-8.48-5.21-13.42-8.19-3.68-2.2-7.12-4.42-10.29-6.35s-6.09-3.55-8.54-4.92l-5.81-3.24-1.58-.88a3.16,3.16,0,0,1-.53-.34,3,3,0,0,1,.58.25l1.62.8c1.4.71,3.42,1.76,5.89,3.1s5.41,3,8.61,4.84l10.31,6.32c4.93,3,9.55,5.78,13.39,8.25l-.33.14c.92-4.59,1.48-8.44,2.08-11.06l0-.17.14.09,2.56,1.6A5.92,5.92,0,0,1,251.3,252.78Z"/><g class="cls-10"><path d="M211.36,241.12,233,257.27c4.77,3.55,9.65,7.16,15.31,9q-.15-7.53-.31-15.06l-2.22,10.57Z"/></g><path class="cls-3" d="M273.46,366.26a3.65,3.65,0,0,1-.1-1c0-.77-.06-1.69-.1-2.76-.07-2.34-.17-5.56-.47-9.11s-.75-6.73-1.17-9-.77-3.7-.68-3.72a4.23,4.23,0,0,1,.34,1c.2.62.44,1.54.7,2.69a66.81,66.81,0,0,1,1.33,9.05c.3,3.57.34,6.8.32,9.14,0,1.17,0,2.12-.07,2.77A3.65,3.65,0,0,1,273.46,366.26Z"/><path class="cls-3" d="M204.12,273.17c-.09,0-.47-1.24-1.33-3.17a32.48,32.48,0,0,0-4.3-7,32.08,32.08,0,0,0-6-5.67c-1.71-1.25-2.87-1.88-2.82-2a3.27,3.27,0,0,1,.85.37,18.35,18.35,0,0,1,2.18,1.29,27.94,27.94,0,0,1,6.17,5.64,28.29,28.29,0,0,1,4.24,7.2,20.05,20.05,0,0,1,.8,2.4A3.75,3.75,0,0,1,204.12,273.17Z"/><path class="cls-4" d="M341.38,343.33c-4.12-.9,50.38,13.47,50.84,13.54l25.88-8.29-22.23,46L334.25,374Z"/><g class="cls-10"><polygon points="365.87 349.94 361.21 348.71 355.88 381.23 365.13 384.31 365.87 349.94"/></g><polygon class="cls-1" points="393.59 294.76 395.27 273.6 437.46 257.53 438.96 265.43 410.22 278.78 393.59 294.76"/><path class="cls-4" d="M441.13,269.14S451.9,286,455.21,298.71c3.56,13.66.48,37.81.48,37.81l-12.15,54.55a16.29,16.29,0,0,1,3.12,7.23c.48,3.95-3.84,8.33-3.84,8.33s-1.89-1.12,5.32,11.81,7.56,42.43,7.56,42.43H348.52c5.1-25,15.54-64.76,15.54-65.41s.05-27.56.05-27.56-.47-26.08,1.94-35.5,24.82-44,35.6-52.76c11.46-9.33,37.31-18.87,37.31-18.87l2.17,8.37"/><path class="cls-4" d="M370,421.59c-.33-1.13,8-14.6,8-14.6l47.64,7.3,3.32,12.22Z"/><path class="cls-3" d="M370,421.59h.31l.88.06,3.37.25,12.46,1,41.94,3.42-.23.25c-.81-3-1.65-6.07-2.51-9.23-.28-1-.55-2-.81-3l.18.15-47.64-7.37.16-.06c-2.76,4.45-4.89,8.06-6.27,10.56-.7,1.25-1.2,2.24-1.5,2.91a4.18,4.18,0,0,0-.3.79.78.78,0,0,0,0,.27,1.87,1.87,0,0,1,.26-1.08c.28-.69.76-1.69,1.43-2.95,1.35-2.53,3.44-6.16,6.16-10.64l.05-.08.1,0,47.66,7.23.14,0,0,.13c.26,1,.53,2,.81,3,.86,3.16,1.7,6.27,2.5,9.23l.08.28-.31,0-42.05-3.59L374.41,422l-3.33-.31-.85-.09A1.05,1.05,0,0,1,370,421.59Z"/><path class="cls-3" d="M441.13,269.14a1.54,1.54,0,0,1-.29.08l-.88.21c-.76.19-1.9.46-3.35.83-2.9.76-7.1,1.88-12.1,3.71-1.25.46-2.55,1-3.87,1.54-.67.29-1.34.59-2,.92-.33.17-.68.32-1,.51s-.66.36-1,.58a50.77,50.77,0,0,0-7.13,6.49c-4.66,4.93-9.42,10.62-14.3,16.68s-9.37,11.93-13.4,17.3c-2,2.69-3.91,5.26-5.66,7.67a61.23,61.23,0,0,0-4.52,6.9,74.82,74.82,0,0,0-4.74,10.8c-.46,1.31-.79,2.34-1,3-.11.34-.19.6-.26.8a1.61,1.61,0,0,1-.09.26,1.14,1.14,0,0,1,0-.27l.21-.81c.19-.7.5-1.73.94-3.05a68.48,68.48,0,0,1,4.62-10.89,60.71,60.71,0,0,1,4.49-6.95q2.61-3.64,5.63-7.7c4-5.39,8.51-11.26,13.39-17.33s9.65-11.76,14.34-16.68a51.26,51.26,0,0,1,7.23-6.52c.31-.22.67-.4,1-.6s.69-.34,1-.5c.67-.34,1.35-.63,2-.92q2-.86,3.9-1.53a118.25,118.25,0,0,1,12.18-3.59c1.46-.35,2.6-.6,3.37-.76l.89-.17Z"/><path class="cls-3" d="M434.44,402a11.57,11.57,0,0,1-1.31-.68c-.84-.46-2-1.16-3.45-2.07a80.82,80.82,0,0,1-10.42-8,76.21,76.21,0,0,1-8.8-9.47c-1-1.3-1.78-2.37-2.28-3.13a8.43,8.43,0,0,1-.75-1.2,9.31,9.31,0,0,1,.89,1.11c.55.73,1.36,1.78,2.4,3.05a85.27,85.27,0,0,0,8.86,9.35,89.69,89.69,0,0,0,10.29,8c1.39.93,2.54,1.67,3.35,2.17A8.86,8.86,0,0,1,434.44,402Z"/><g class="cls-10"><polygon points="371.48 421.72 372.92 426.51 426.87 426.34 371.48 421.72"/></g><path class="cls-4" d="M396.55,308.8l1,78-13.23,74.05h34.78s15.34-55.75,19-67.88c3.52-11.77,8.81-71,9.27-73.94.19-1.14,3.91-21.61-7-31.26"/><path class="cls-3" d="M440.34,287.79s.22.2.65.63l.8.8c.16.16.34.33.51.53s.32.43.5.67a23.12,23.12,0,0,1,4.31,9.34,48,48,0,0,1,.82,16.33c-.15,1.6-.47,3.22-.62,4.92s-.34,3.45-.52,5.25c-.36,3.61-.74,7.43-1.14,11.43-.81,8-1.72,16.8-2.82,26.22-.55,4.72-1.15,9.59-1.86,14.6-.34,2.5-.74,5-1.17,7.61-.21,1.28-.48,2.57-.72,3.87s-.61,2.6-1,3.88c-5.75,20.58-12.08,43.23-18.73,67.07l-.06.19H384.05l.05-.31c4.89-27.29,9.41-52.47,13.27-74v0c-.27-23.63-.5-43.13-.66-56.74-.06-6.79-.11-12.11-.15-15.74,0-1.8,0-3.18,0-4.13s0-1.42,0-1.42,0,.49.05,1.42,0,2.33.09,4.13c.06,3.63.15,8.95.26,15.74.21,13.6.5,33.1.85,56.73v0c-3.84,21.57-8.32,46.76-13.18,74.05l-.26-.3h34.78l-.26.19c6.68-23.84,13-46.49,18.78-67.07.36-1.28.67-2.56,1-3.84s.51-2.57.72-3.85q.66-3.84,1.18-7.6c.72-5,1.32-9.87,1.89-14.58,1.12-9.41,2-18.19,2.88-26.2l1.17-11.43c.19-1.8.37-3.56.55-5.26s.48-3.33.64-4.91a48.25,48.25,0,0,0-.73-16.25,23.51,23.51,0,0,0-4.2-9.33l-.49-.68c-.16-.2-.34-.36-.49-.53l-.78-.81C440.54,288,440.34,287.79,440.34,287.79Z"/><path class="cls-3" d="M431,285.52c0,.1-1.66-.3-4.34-.31a23.18,23.18,0,0,0-18.27,8.61c-1.69,2.09-2.43,3.61-2.51,3.56a4.36,4.36,0,0,1,.48-1.08,19,19,0,0,1,1.74-2.7,22.27,22.27,0,0,1,18.56-8.76,18.69,18.69,0,0,1,3.2.37A5.26,5.26,0,0,1,431,285.52Z"/></g></svg>