<svg xmlns="http://www.w3.org/2000/svg" viewBox="0 0 641.36 481.06"><defs><style>.cls-1{fill:#f9eab4;}.cls-2{fill:#f5f5f5;}.cls-3{fill:#e0e0e0;}.cls-4{fill:#263238;}.cls-5{fill:none;}.cls-6{fill:#ebebeb;}.cls-7{fill:#fff;}.cls-8{fill:#8ea382;}.cls-9{fill:#ffbf9d;}.cls-10{fill:#ff9a6c;}.cls-11{fill:#455a64;}.cls-12{fill:#ae7461;}.cls-13{fill:#6f4439;}.cls-14{opacity:0.3;}</style></defs><title>salaman4</title><g id="Desk"><path class="cls-1" d="M319.22,129.62c-41.49-.92-44.8-12.63-114.38-24.51-68.34-11.67-107.52-18.57-121.54,0-16.88,22.38,24.63,52.7,43.08,145.87,6.27,31.61,16.28,82.14,7,145.19-6.37,43.12-17,58.75-7.15,69.45,21.45,23.28,82.54-27.67,175.66-41.87,124-18.92,195.62,57.37,230.81,21.44,17.88-18.26-4.24-33.07,1.15-145.75,2.25-47.08,8.87-102,37.65-159.61h0c10.95-16.79,21-28.91,16.35-38.81-11.16-23.66-93.43-8.11-135.94-.07C371.57,116.14,365.76,130.65,319.22,129.62Z"/><path class="cls-2" d="M69.81,376A10.65,10.65,0,0,0,76,366c-.09-5.89-4.64-10.6-10.16-10.52s-9.93,4.93-9.84,10.82a10.67,10.67,0,0,0,6.57,9.84c-15.35,2.62-14.32,19.33-14.32,19.33l36.4-.55S85.12,378,69.81,376Z"/><path class="cls-3" d="M304.7,268.88a40.57,40.57,0,0,1,9.88-4.3l2-9.78,16.52-.29,2.38,9.7a40.74,40.74,0,0,1,10,4l8.35-5.48,11.89,11.48-5.18,8.54a40.16,40.16,0,0,1,4.29,9.88l9.78,2,.29,16.53-9.7,2.38a40.64,40.64,0,0,1-3.94,10l5.47,8.35-11.48,11.89-8.53-5.18a40.81,40.81,0,0,1-9.89,4.3l-2,9.78-16.52.29L316,343.26a40.32,40.32,0,0,1-10-3.94l-8.35,5.47L285.7,333.32l5.17-8.54a40.32,40.32,0,0,1-4.29-9.88l-9.78-2-.29-16.52,9.7-2.38a40.64,40.64,0,0,1,3.94-10l-5.47-8.35,11.48-11.89,8.54,5.18Zm8.8,22a17.73,17.73,0,1,0,25.07-.45A17.72,17.72,0,0,0,313.5,290.89Z"/><path class="cls-3" d="M255.67,206.8a28,28,0,0,1,6.09-4.28l0-6.9,11.14-2.49,3,6.23a28.14,28.14,0,0,1,7.33,1.28l4.89-4.87,9.64,6.12-2.32,6.49a27.59,27.59,0,0,1,4.28,6.09l6.9,0,2.5,11.14-6.24,3a27.64,27.64,0,0,1-1.27,7.33l4.86,4.89-6.11,9.64-6.5-2.31a28,28,0,0,1-6.09,4.28l0,6.9-11.14,2.49-3-6.23a28.14,28.14,0,0,1-7.33-1.28l-4.89,4.86-9.64-6.11,2.32-6.5a27.36,27.36,0,0,1-4.28-6.09l-6.9,0-2.5-11.14,6.24-3a27.71,27.71,0,0,1,1.27-7.34l-4.86-4.89,6.11-9.64,6.5,2.32Zm9,13.67a12.25,12.25,0,1,0,16.9-3.78A12.25,12.25,0,0,0,264.69,220.47Z"/><path class="cls-3" d="M533.82,299.44a28.27,28.27,0,0,1,6.09-4.28l0-6.9,11.14-2.49,3,6.23a28.07,28.07,0,0,1,7.33,1.28l4.89-4.86,9.64,6.11-2.31,6.5a28,28,0,0,1,4.28,6.09l6.9,0,2.49,11.14-6.24,3a27.71,27.71,0,0,1-1.27,7.33l4.86,4.89-6.11,9.64-6.5-2.32a27.69,27.69,0,0,1-6.09,4.28l0,6.9-11.14,2.5-3-6.24a28.55,28.55,0,0,1-7.33-1.27l-4.89,4.86-9.64-6.12,2.32-6.49a27.59,27.59,0,0,1-4.28-6.09l-6.9,0L518.56,322l6.24-3a28,28,0,0,1,1.27-7.33l-4.86-4.89,6.11-9.64,6.5,2.31Zm9,13.67a12.25,12.25,0,1,0,16.9-3.78A12.26,12.26,0,0,0,542.84,313.11Z"/><path class="cls-3" d="M84.14,172.79a27.36,27.36,0,0,1,6.09-4.28v-6.9l11.15-2.5,3,6.24a27.71,27.71,0,0,1,7.34,1.27l4.89-4.86,9.64,6.11-2.32,6.5a28,28,0,0,1,4.28,6.09l6.9,0,2.49,11.14-6.23,3a28.14,28.14,0,0,1-1.28,7.33l4.87,4.89-6.12,9.64-6.49-2.31a28.12,28.12,0,0,1-6.09,4.27l0,6.91-11.14,2.49-3-6.24a27.64,27.64,0,0,1-7.33-1.27l-4.89,4.86L80.24,219l2.31-6.5a28,28,0,0,1-4.28-6.09l-6.9,0-2.49-11.14,6.23-3A28.14,28.14,0,0,1,76.39,185l-4.87-4.89,6.12-9.64,6.5,2.32Zm9,13.67a12.25,12.25,0,1,0,16.9-3.79A12.24,12.24,0,0,0,93.16,186.46Z"/><path class="cls-2" d="M339.28,206a20.83,20.83,0,0,1,4.52-3.17v-5.11l8.25-1.85,2.2,4.62a20.77,20.77,0,0,1,5.43.94l3.62-3.6,7.15,4.53-1.72,4.81a20.83,20.83,0,0,1,3.17,4.52H377l1.85,8.26-4.62,2.19a20.77,20.77,0,0,1-.94,5.43l3.6,3.62-4.53,7.15-4.81-1.72a20.83,20.83,0,0,1-4.52,3.17V245l-8.25,1.84-2.2-4.62a20.77,20.77,0,0,1-5.43-.94l-3.62,3.6-7.15-4.53,1.72-4.81a20.36,20.36,0,0,1-3.17-4.52h-5.11L328,222.72l4.62-2.2a20.77,20.77,0,0,1,.94-5.43l-3.6-3.62,4.53-7.15,4.81,1.72ZM346,216.17a9.07,9.07,0,1,0,12.52-2.8A9.07,9.07,0,0,0,346,216.17Z"/><path class="cls-2" d="M296.1,21.34a20.83,20.83,0,0,1,4.52-3.17V13.06l8.26-1.85,2.19,4.62a20.37,20.37,0,0,1,5.43,1l3.62-3.61,7.15,4.53-1.72,4.82A20.53,20.53,0,0,1,328.73,27h5.12l1.84,8.26-4.62,2.19a20.77,20.77,0,0,1-.94,5.43l3.6,3.63-4.53,7.14L324.39,52a20.77,20.77,0,0,1-4.51,3.17l0,5.12-8.25,1.84-2.2-4.62a20.77,20.77,0,0,1-5.43-.94l-3.62,3.6-7.15-4.53,1.72-4.81a20.53,20.53,0,0,1-3.17-4.51l-5.11,0L284.8,38l4.62-2.19a20.77,20.77,0,0,1,.94-5.44l-3.6-3.62,4.53-7.14,4.81,1.71Zm6.69,10.13a9.08,9.08,0,1,0,12.52-2.8A9.08,9.08,0,0,0,302.79,31.47Z"/><path class="cls-4" d="M636.68,466.84c0,.14-139.87.26-312.38.26S11.9,467,11.9,466.84s139.84-.26,312.4-.26S636.68,466.7,636.68,466.84Z"/><rect class="cls-3" x="426.89" y="106.18" width="12.96" height="9.92"/><path class="cls-4" d="M439.85,116.11a5,5,0,0,1-.05-.75c0-.54,0-1.21-.05-2,0-1.8-.07-4.24-.12-7.15l.22.22-13,0c-.06,0,.49-.5.26-.26h0v2.62c0,.87,0,1.72,0,2.55,0,1.66,0,3.25,0,4.74l-.23-.24c3.79,0,7,.08,9.29.12l2.67.06a7.26,7.26,0,0,1,1,.06,5.8,5.8,0,0,1-.9,0l-2.62.07c-2.27,0-5.55.09-9.44.11h-.24v-.23c0-1.49,0-3.08,0-4.74V106.2h0c-.24.23.31-.32.26-.27l13,0h.21v.21c0,3-.07,5.56-.11,7.28,0,.8,0,1.46-.05,2A4.51,4.51,0,0,1,439.85,116.11Z"/><rect class="cls-3" x="443.29" y="83.3" width="12.96" height="32.81"/><path class="cls-4" d="M456.25,116.11a6.13,6.13,0,0,1,0-.66c0-.46,0-1.08,0-1.85,0-1.65,0-4-.07-6.85,0-5.85-.07-14-.12-23.45l.25.25h-13c.52-.52.15-.14.26-.25h0V92.7c0,3,0,6,0,8.74,0,5.54,0,10.52-.06,14.67l-.18-.18,9.44.1,2.59,0,.69,0a1.22,1.22,0,0,1,.24,0s-.28,0-.86,0l-2.55,0-9.55.1h-.18v-.18c0-4.15,0-9.13-.06-14.67,0-2.79,0-5.71,0-8.74,0-1.52,0-3.06,0-4.63V83.33h0c.12-.12-.26.25.26-.27H456.5v.25c0,9.51-.08,17.73-.11,23.62,0,2.86-.06,5.16-.07,6.79,0,.75,0,1.35,0,1.8A4.35,4.35,0,0,1,456.25,116.11Z"/><rect class="cls-3" x="461.32" y="97.42" width="12.96" height="18.68"/><path class="cls-4" d="M474.28,116.11a2.14,2.14,0,0,1,0-.38c0-.28,0-.62,0-1,0-1,0-2.26-.06-3.87,0-3.33-.07-8-.12-13.4l.24.24-13,0c-.06,0,.49-.5.26-.26h0V100c0,.86,0,1.71,0,2.54,0,1.68,0,3.31,0,4.88,0,3.14,0,6.06,0,8.66l-.21-.21,9.37.11,2.63,0a7.93,7.93,0,0,1,1,0,8,8,0,0,1-.88,0l-2.58,0-9.5.11h-.21v-.21c0-2.6,0-5.52,0-8.66,0-1.57,0-3.2,0-4.88V97.44h0c-.24.23.31-.32.26-.27l13,0h.24v.23c0,5.51-.09,10.18-.12,13.56,0,1.59,0,2.87-.06,3.81A10.55,10.55,0,0,1,474.28,116.11Z"/><rect class="cls-3" x="478.53" y="73.78" width="12.96" height="42.33"/><path class="cls-4" d="M491.49,116.11s0-.08,0-.23,0-.37,0-.62q0-.89,0-2.4c0-2.12,0-5.13-.07-8.89,0-7.55-.07-18.09-.12-30.19l.25.25h-13c.52-.52.15-.14.26-.25h0V86.21c0,4,0,7.81,0,11.41,0,7.19,0,13.5-.07,18.49l-.17-.17,9.5.09,2.56,0,.67,0a1,1,0,0,1,.23,0l-.2,0h-.64l-2.52,0-9.6.1h-.16v-.17c0-5-.05-11.3-.07-18.49,0-3.6,0-7.42,0-11.41,0-2,0-4,0-6.11V73.8h0c.12-.12-.26.25.26-.27h13.22v.25c-.05,12.17-.09,22.77-.12,30.37,0,3.73-.05,6.72-.07,8.82,0,1,0,1.78,0,2.35,0,.24,0,.44,0,.6S491.5,116.11,491.49,116.11Z"/><polygon class="cls-4" points="472.2 77.16 470.82 76.4 481.23 61.58 482.61 62.34 472.2 77.16"/><rect class="cls-4" x="458.47" y="67.68" width="1.69" height="11.47" transform="translate(76.64 337.83) rotate(-43.72)"/><rect class="cls-4" x="431.92" y="76.26" width="19.05" height="1.69" transform="translate(109.82 378.51) rotate(-52.18)"/><path class="cls-3" d="M474.17,79a6.37,6.37,0,1,1-6.37-6.37A6.37,6.37,0,0,1,474.17,79Z"/><path class="cls-4" d="M474.17,79c-.06,0,0-.57-.3-1.53a6.37,6.37,0,0,0-2.33-3.39,6.23,6.23,0,0,0-5.83-.84,6.1,6.1,0,0,0-2.84,2.14,6.13,6.13,0,0,0,0,7.23,6,6,0,0,0,2.84,2.14,6.17,6.17,0,0,0,5.83-.84,6.39,6.39,0,0,0,2.33-3.38c.26-1,.24-1.54.3-1.53a2.18,2.18,0,0,1,0,.41,4.82,4.82,0,0,1-.13,1.17,6.39,6.39,0,0,1-2.31,3.63,6.52,6.52,0,0,1-6.21,1,6.44,6.44,0,0,1-3.09-2.29A6.59,6.59,0,0,1,461.17,79a6.67,6.67,0,0,1,1.29-3.92,6.56,6.56,0,0,1,9.3-1.29,6.36,6.36,0,0,1,2.31,3.63,4.82,4.82,0,0,1,.13,1.17A2.18,2.18,0,0,1,474.17,79Z"/><path class="cls-3" d="M457.74,65.87a6.37,6.37,0,1,1-6.37-6.37A6.37,6.37,0,0,1,457.74,65.87Z"/><path class="cls-4" d="M457.74,65.87c-.06,0,0-.57-.3-1.53A6.35,6.35,0,0,0,455.11,61a6.22,6.22,0,0,0-5.83-.84,6.12,6.12,0,0,0-2.83,9.37,6.08,6.08,0,0,0,2.83,2.15,6.22,6.22,0,0,0,5.83-.84,6.31,6.31,0,0,0,2.33-3.39c.27-1,.24-1.53.3-1.53s0,.14,0,.41a4.82,4.82,0,0,1-.13,1.17,6.33,6.33,0,0,1-2.3,3.63,6.57,6.57,0,0,1-6.22,1A6.5,6.5,0,0,1,446,69.79,6.55,6.55,0,0,1,446,62a6.46,6.46,0,0,1,3.08-2.3,6.57,6.57,0,0,1,6.22,1,6.33,6.33,0,0,1,2.3,3.63,4.82,4.82,0,0,1,.13,1.17C457.77,65.73,457.76,65.87,457.74,65.87Z"/><circle class="cls-3" cx="433.37" cy="88.09" r="6.37"/><path class="cls-4" d="M439.74,88.09c-.06,0,0-.56-.3-1.53a6.39,6.39,0,0,0-2.33-3.38,6.2,6.2,0,0,0-5.83-.84,6.13,6.13,0,0,0,0,11.51,6.2,6.2,0,0,0,5.83-.84,6.37,6.37,0,0,0,2.33-3.39c.26-1,.24-1.53.3-1.53a2.18,2.18,0,0,1,0,.41,4.82,4.82,0,0,1-.13,1.17,6.36,6.36,0,0,1-2.31,3.63A6.56,6.56,0,0,1,428,92a6.59,6.59,0,0,1,0-7.83,6.56,6.56,0,0,1,9.3-1.29,6.36,6.36,0,0,1,2.31,3.63,4.82,4.82,0,0,1,.13,1.17A2,2,0,0,1,439.74,88.09Z"/><path class="cls-3" d="M485.73,64.42A6.45,6.45,0,1,1,492.18,58,6.45,6.45,0,0,1,485.73,64.42Z"/><path class="cls-5" d="M485.73,64.42A6.45,6.45,0,1,1,492.18,58,6.45,6.45,0,0,1,485.73,64.42Z"/><path class="cls-4" d="M485.73,64.42s.57,0,1.55-.3a6.44,6.44,0,0,0,3.43-2.36,6.25,6.25,0,0,0,.85-5.9A6.15,6.15,0,0,0,489.39,53a6.18,6.18,0,0,0-7.32,0,6.09,6.09,0,0,0-2.17,2.88,6.25,6.25,0,0,0,.85,5.9,6.41,6.41,0,0,0,3.43,2.36c1,.27,1.55.25,1.55.3s-.14,0-.42,0a4.94,4.94,0,0,1-1.18-.13A6.4,6.4,0,0,1,480.46,62a6.66,6.66,0,0,1,5.27-10.72,6.67,6.67,0,0,1,4,1.31A6.63,6.63,0,0,1,491,62a6.43,6.43,0,0,1-3.67,2.34,5,5,0,0,1-1.19.13C485.87,64.45,485.73,64.44,485.73,64.42Z"/><path class="cls-6" d="M98.2,402.89a17.08,17.08,0,0,0,9.87-16c-.15-9.43-7.44-17-16.29-16.84S75.89,378,76,387.38a17,17,0,0,0,10.51,15.74c-24.57,4.2-22.92,31-22.92,31l58.27-.88S122.7,406.1,98.2,402.89Z"/><path class="cls-4" d="M98.2,402.89,99,403a19.1,19.1,0,0,1,2.16.37,25,25,0,0,1,7.89,3.1,24.7,24.7,0,0,1,9,9.73,37.72,37.72,0,0,1,4.09,17v.19h-.2l-58.28.94h-.25v-.25a37.7,37.7,0,0,1,.69-8.29,34.7,34.7,0,0,1,2.61-8.19,25.37,25.37,0,0,1,8.2-10.07,26.77,26.77,0,0,1,5.62-3,33.21,33.21,0,0,1,6-1.65l-.05.49a16.63,16.63,0,0,1-7.57-6.1,17.94,17.94,0,0,1-3-8.86,17.75,17.75,0,0,1,7-15.52A15.41,15.41,0,0,1,97.88,371a16.88,16.88,0,0,1,9.14,9.61,17.68,17.68,0,0,1,1.16,5.74,17.94,17.94,0,0,1-.53,5.18,17.3,17.3,0,0,1-3.83,7.27,16.1,16.1,0,0,1-4,3.27,8.43,8.43,0,0,1-1.18.59l-.43.19.39-.2c.26-.15.69-.35,1.18-.66a16.71,16.71,0,0,0,3.92-3.31,17.21,17.21,0,0,0,3.71-7.21,17.83,17.83,0,0,0,.49-5.1,17.31,17.31,0,0,0-1.18-5.64,16.54,16.54,0,0,0-9-9.37,15,15,0,0,0-14.65,1.84,17.31,17.31,0,0,0-6.75,15.12,17.49,17.49,0,0,0,3,8.62,16.17,16.17,0,0,0,7.35,5.91l.81.32-.86.16A32.72,32.72,0,0,0,80.68,405a25.23,25.23,0,0,0-5.5,3,24.76,24.76,0,0,0-8,9.86,34.46,34.46,0,0,0-2.57,8.07,37.92,37.92,0,0,0-.69,8.16l-.26-.24L121.9,433l-.2.2a37.57,37.57,0,0,0-4-16.85,24.62,24.62,0,0,0-8.82-9.69,25.41,25.41,0,0,0-7.79-3.17c-.93-.26-1.71-.34-2.19-.46Z"/><path class="cls-6" d="M184.88,70.87H153.44a11.86,11.86,0,0,0-11.85,11.85V98.64a11.86,11.86,0,0,0,11.85,11.85h19.89l9.74,9.6.06-9.6h1.75a11.85,11.85,0,0,0,11.85-11.85V82.72A11.85,11.85,0,0,0,184.88,70.87Z"/><path class="cls-4" d="M184.88,70.87a1.1,1.1,0,0,1,.27,0l.77,0a11.85,11.85,0,0,1,2.93.6,12,12,0,0,1,7.55,7.93,12.72,12.72,0,0,1,.49,3.81c0,1.33,0,2.72,0,4.17,0,2.9,0,6,0,9.36a17.68,17.68,0,0,1-.45,5.17,12.16,12.16,0,0,1-10.32,8.73c-1,.08-2,.08-3,.07l.24-.23c0,3,0,6.28-.05,9.6v.59l-.42-.41-9.75-9.6.18.07H155.49a21.58,21.58,0,0,1-4.67-.3,12.15,12.15,0,0,1-7.46-5.11,11.87,11.87,0,0,1-1.74-4.14,20.23,20.23,0,0,1-.28-4.37q0-4.29,0-8.39c0-1.36,0-2.71,0-4a19.52,19.52,0,0,1,.23-4,12,12,0,0,1,3.69-6.57,11.16,11.16,0,0,1,3-2,11.28,11.28,0,0,1,3.34-1,20,20,0,0,1,3.34-.14h3.17l19.57.08,5.32,0,1.38,0,.47,0-.47,0-1.38,0-5.32,0-19.57.09H155a20,20,0,0,0-3.28.16,10.72,10.72,0,0,0-3.22,1,11,11,0,0,0-2.9,2A11.57,11.57,0,0,0,142,80.52a19.78,19.78,0,0,0-.21,3.88v4q0,4.09,0,8.39a20.13,20.13,0,0,0,.27,4.26,11.45,11.45,0,0,0,1.68,4,11.61,11.61,0,0,0,7.14,4.9,20.76,20.76,0,0,0,4.56.28h17.95l.08.07c3.35,3.31,6.61,6.54,9.73,9.61l-.43.18c0-3.33.05-6.57.07-9.61v-.23h.24c1,0,2,0,3-.06a11.92,11.92,0,0,0,2.8-.67,11.64,11.64,0,0,0,7.16-7.72,17.31,17.31,0,0,0,.46-5c0-3.33,0-6.46,0-9.36,0-1.45,0-2.84,0-4.17a12.44,12.44,0,0,0-.44-3.73,11.68,11.68,0,0,0-3.3-5.39,11.55,11.55,0,0,0-4-2.47A13.87,13.87,0,0,0,184.88,70.87Z"/><path class="cls-6" d="M128.13,53.62h38.56a14.54,14.54,0,0,1,14.53,14.53V87.67a14.53,14.53,0,0,1-14.53,14.53h-24.4L130.92,114l-.64-11.78h-2.15A14.52,14.52,0,0,1,113.6,87.67V68.15A14.53,14.53,0,0,1,128.13,53.62Z"/><path class="cls-4" d="M128.13,53.62a1.64,1.64,0,0,1-.32,0l-.94.06c-.42,0-.92.15-1.52.23-.3,0-.62.16-1,.24a8.74,8.74,0,0,0-1.07.34,14.63,14.63,0,0,0-5,3,14.37,14.37,0,0,0-4,6.62,15.11,15.11,0,0,0-.55,4.58c0,1.64,0,3.35,0,5.12,0,3.56,0,7.4,0,11.48a20.8,20.8,0,0,0,.56,6.21,14.34,14.34,0,0,0,8.81,9.5,14.72,14.72,0,0,0,3.45.82c1.18.09,2.42.08,3.66.07h.23v.23c.2,3.73.42,7.7.65,11.78l-.43-.16L142.1,102l.08-.08h22.18a22.89,22.89,0,0,0,5.58-.39,14.31,14.31,0,0,0,10.73-11,26.17,26.17,0,0,0,.3-5.24q0-5.25,0-10.27v-5a24.05,24.05,0,0,0-.27-4.76,14.38,14.38,0,0,0-4.4-7.76,13.53,13.53,0,0,0-3.57-2.39,13.36,13.36,0,0,0-4-1.2,27.11,27.11,0,0,0-4-.18h-3.88l-24-.09-6.51,0-1.7,0c-.38,0-.57,0-.57,0s.19,0,.57,0l1.7,0,6.51,0,24-.08h3.88a26.92,26.92,0,0,1,4.08.16,14.07,14.07,0,0,1,4.08,1.22,13.72,13.72,0,0,1,3.69,2.45,14.76,14.76,0,0,1,4.56,8,25.34,25.34,0,0,1,.29,4.85c0,1.63,0,3.28,0,5V85.32a26.08,26.08,0,0,1-.3,5.34,14.62,14.62,0,0,1-2.08,5.06,14.82,14.82,0,0,1-9,6.34,23.77,23.77,0,0,1-5.7.4H142.29l.18-.08c-3.91,4.06-7.73,8-11.37,11.77l-.4.41,0-.57c-.22-4.07-.43-8-.63-11.77l.24.22c-1.24,0-2.47,0-3.71-.09a14.68,14.68,0,0,1-3.56-.85A14.75,14.75,0,0,1,114,91.68a21.75,21.75,0,0,1-.55-6.32c0-4.08,0-7.92,0-11.48,0-1.77,0-3.48,0-5.12A15.68,15.68,0,0,1,114,64.1a14.62,14.62,0,0,1,9.24-9.71,7.07,7.07,0,0,1,1.09-.33c.34-.08.66-.18,1-.22.61-.08,1.12-.18,1.54-.19l1,0Z"/><path class="cls-7" d="M137.91,77.67a4.84,4.84,0,1,1-4.84-4.84A4.84,4.84,0,0,1,137.91,77.67Z"/><path class="cls-7" d="M152.25,77.67a4.84,4.84,0,1,1-4.84-4.84A4.84,4.84,0,0,1,152.25,77.67Z"/><path class="cls-7" d="M166.58,77.67a4.84,4.84,0,1,1-4.84-4.84A4.84,4.84,0,0,1,166.58,77.67Z"/><path class="cls-8" d="M139.28,225.26,97.33,209A243,243,0,0,1,206.69,84c6.21-3.41,12.66-6.6,19.17-9.47,4.47-2,9-3.82,13.58-5.5l15.67,42.18c-3.71,1.38-7.45,2.89-11.1,4.5-5.32,2.35-10.59,5-15.66,7.73A198,198,0,0,0,139.28,225.26Z"/><polygon class="cls-8" points="253.46 132.34 225.51 47.8 298.92 73.01 253.46 132.34"/><path class="cls-8" d="M139.18,459.32a242.25,242.25,0,0,1-59-115.61c-1.41-6.94-2.54-14-3.34-21.12a245.93,245.93,0,0,1-1.41-37l45,1.7a200.61,200.61,0,0,0,1.15,30.18c.66,5.78,1.58,11.59,2.73,17.25a197.32,197.32,0,0,0,48,94.14Z"/><polygon class="cls-8" points="141.32 308.58 45.85 299.44 102.57 238.01 141.32 308.58"/><polygon class="cls-8" points="474.01 378.07 552.63 419.86 482.15 452.37 474.01 378.07"/><path class="cls-8" d="M520.86,431l-37.78-24.44A200.54,200.54,0,0,0,494.72,386c2.56-5.22,4.92-10.61,7-16a198,198,0,0,0,2.59-135.25l42.58-14.55a243.09,243.09,0,0,1-3.2,166c-2.56,6.6-5.44,13.19-8.58,19.58A247.31,247.31,0,0,1,520.86,431Z"/><path class="cls-8" d="M488.89,195.49a196.19,196.19,0,0,0-94.8-78.67c-5.38-2.12-10.94-4-16.52-5.69a199.64,199.64,0,0,0-37.65-7.32L344.21,59a245.42,245.42,0,0,1,46.15,9c6.82,2,13.62,4.36,20.21,7A241,241,0,0,1,527,171.53Z"/><polygon class="cls-8" points="457.03 183.46 531.51 134.68 526.07 212.1 457.03 183.46"/><path class="cls-9" d="M239.5,149l1.68.07a32.45,32.45,0,0,1,31.16,31.08c.65,15.71,1.17,33.07.74,41.47-.89,17.39-18.4,19.42-18.4,19.42l-.06,7.1c-.11,11.72-1.9,24.6-13.63,24.43l-7.82-3.47A21.16,21.16,0,0,1,212.32,248l.06-64.84C211.52,165,221.36,149.4,239.5,149Z"/><path class="cls-10" d="M254.83,241.06a42.19,42.19,0,0,1-22.54-7.56s4.87,12.73,22.3,11.84Z"/><path class="cls-4" d="M265.94,195.8a2.48,2.48,0,0,1-2.49,2.41,2.38,2.38,0,0,1-2.48-2.34,2.49,2.49,0,0,1,2.49-2.41A2.37,2.37,0,0,1,265.94,195.8Z"/><path class="cls-4" d="M268.27,188.55c-.32.31-2.15-1.16-4.83-1.26s-4.68,1.17-5,.83c-.14-.15.2-.72,1.08-1.31a6.72,6.72,0,0,1,4-1.06,6.52,6.52,0,0,1,3.82,1.4C268.17,187.81,268.42,188.41,268.27,188.55Z"/><path class="cls-4" d="M242.79,195.21a2.49,2.49,0,0,1-2.5,2.41,2.38,2.38,0,0,1-2.47-2.34,2.49,2.49,0,0,1,2.49-2.41A2.38,2.38,0,0,1,242.79,195.21Z"/><path class="cls-4" d="M242,188c-.33.31-2.16-1.15-4.83-1.25s-4.68,1.17-5,.83c-.14-.15.2-.73,1.08-1.31a6.79,6.79,0,0,1,4-1.07,6.59,6.59,0,0,1,3.82,1.4C241.86,187.29,242.12,187.88,242,188Z"/><path class="cls-4" d="M250.9,208.23c0-.15,1.66-.38,4.37-.62.69,0,1.34-.15,1.47-.61a3.47,3.47,0,0,0-.38-2c-.57-1.68-1.18-3.44-1.81-5.28-2.52-7.51-4.31-13.68-4-13.78s2.59,5.91,5.11,13.43c.6,1.85,1.18,3.61,1.73,5.3a3.93,3.93,0,0,1,.25,2.69,1.72,1.72,0,0,1-1.16,1,4.63,4.63,0,0,1-1.17.11C252.58,208.43,250.9,208.38,250.9,208.23Z"/><path class="cls-4" d="M243.06,177.57c-.29.72-2.95.27-6.1.53s-5.72,1-6.11.34c-.17-.32.29-1,1.34-1.65a10.2,10.2,0,0,1,4.58-1.4,10.1,10.1,0,0,1,4.73.74C242.63,176.64,243.19,177.23,243.06,177.57Z"/><path class="cls-4" d="M267.58,180.77c-.49.59-2.31-.11-4.52-.23s-4.11.25-4.51-.4c-.18-.32.14-.92,1-1.46a6.56,6.56,0,0,1,7.28.51C267.57,179.85,267.8,180.48,267.58,180.77Z"/><path class="cls-4" d="M271,172.13s-4.17-11.07-9.33-13.82c-6.24-3.32-9.25,3.55-15.24,1.62s-12-5.12-18.33-.67c-7,4.86-4,8.58-4.66,16.29-2.92,31.23-9,39.86-10,25-.12-1.62-4.55-3.08-4.95-9.93-.52-8.88-.44-19.64,1.78-25.84,1.87-5.23,5-8.77,10.6-12.59,8.79-6,20.53-5.71,28.47-4.6S272.23,158.52,271,172.13Z"/><path class="cls-9" d="M214.51,200.17a4.72,4.72,0,0,0-4.92-4.75c-3.26.19-6.94,1.89-7,8.6-.09,11.91,11.89,9.54,11.91,9.2S214.52,205.16,214.51,200.17Z"/><path class="cls-10" d="M212,208.72c-.05,0-.21.14-.56.3a2.08,2.08,0,0,1-1.55,0c-1.26-.47-2.3-2.47-2.34-4.62a6.77,6.77,0,0,1,.6-3,2.38,2.38,0,0,1,1.57-1.58,1.05,1.05,0,0,1,1.22.58c.16.33.08.57.14.59s.26-.2.17-.69a1.33,1.33,0,0,0-.47-.75,1.55,1.55,0,0,0-1.14-.31,2.93,2.93,0,0,0-2.18,1.83,7.12,7.12,0,0,0-.75,3.32c.06,2.4,1.28,4.65,3,5.16a2.24,2.24,0,0,0,1.9-.3C211.94,209,212,208.74,212,208.72Z"/><path class="cls-4" d="M274.72,159.57c-1.68-1.54-4.17-2-5.84-3.54-3-2.83-2.63-8.57-6.34-10.44-2.2-1.11-4.88-.26-7.3-.75-3.9-.79-5.14-3.92-11.14-4.52-7.79-.78-10.85,4.79-10.85,4.79a9,9,0,0,0-9.05,0c-3.76,2-4.45,6.8-4.45,6.8s-1.17-.74-5.2,1.85c-2.56,1.65-4.89,5.51-6,8.34-1.7,4.2-.26,8.95,1.18,13.25.78,2.33,1.78,4.91,4,5.91,2.74,1.23,6.06-.68,7.43-3.34s3.38-5.28,5-7.82c2.78-4.39,5.57-8.47,3.9-11.62a13.58,13.58,0,0,1,8.33.75c2.62,1.16,4.82,3.13,7.42,4.35s6,1.48,8.07-.53a5.83,5.83,0,0,0,8.69,2.78c1.78,3.69,6.62,5.78,10.31,4S277.74,162.34,274.72,159.57Z"/><path class="cls-11" d="M208.78,172.44a15.08,15.08,0,0,1,1.11,2.84,5.79,5.79,0,0,0,1.71,2.58,5.19,5.19,0,0,0,3.62.78,8.81,8.81,0,0,0,3.69-1.16,14,14,0,0,0,2.53-2,17,17,0,0,1,2.2-2.11,10.79,10.79,0,0,1-1.84,2.46,12.58,12.58,0,0,1-2.55,2.21,9,9,0,0,1-4,1.3,5.64,5.64,0,0,1-4.09-1,6,6,0,0,1-1.79-2.92A12.15,12.15,0,0,1,208.78,172.44Z"/><path class="cls-11" d="M208.34,181.61a9.92,9.92,0,0,0,2.21,1.52,6.8,6.8,0,0,0,2.8.52,8.07,8.07,0,0,0,3.37-.93,16.24,16.24,0,0,0,4.9-4.25,12.07,12.07,0,0,1,1.83-2.08,9.7,9.7,0,0,1-1.43,2.39,14.48,14.48,0,0,1-5,4.58,8.27,8.27,0,0,1-3.68.94,6.63,6.63,0,0,1-3-.72C208.73,182.74,208.27,181.62,208.34,181.61Z"/><path class="cls-11" d="M208.12,188.44a10.68,10.68,0,0,0,2.22,1.19,7.23,7.23,0,0,0,5.78-.74,16.81,16.81,0,0,0,4.55-4,10.44,10.44,0,0,1,1.73-1.94,8.74,8.74,0,0,1-1.34,2.24,14.42,14.42,0,0,1-4.6,4.37,8.31,8.31,0,0,1-3.41,1.05,6.51,6.51,0,0,1-2.88-.46C208.6,189.44,208.05,188.46,208.12,188.44Z"/><path class="cls-10" d="M242.93,211.85a15.39,15.39,0,0,0-1.06,3.91,4.57,4.57,0,0,0,1,3.62,5,5,0,0,0,3.66,2.14h0a5.53,5.53,0,0,0,5.9-4.17l.75-2.89C250.48,213.44,243.11,212.06,242.93,211.85Z"/><path class="cls-4" d="M249.39,220.94c0-.06-.35,0-.95,0a8.54,8.54,0,0,1-2.5-.22,4.93,4.93,0,0,1-2.87-2.07,6.11,6.11,0,0,1-.8-4.27,6,6,0,0,1,.87-2.34l-.39.14c2.62.66,4.92,1.21,6.56,1.56a11.08,11.08,0,0,0,2.66.45,11.76,11.76,0,0,0-2.54-.89c-1.62-.48-3.89-1.11-6.5-1.8l-.24-.07-.14.21a6.71,6.71,0,0,0-1,2.62,6.63,6.63,0,0,0,1,4.76,5.35,5.35,0,0,0,3.31,2.2,7,7,0,0,0,2.65,0C249.08,221.12,249.4,221,249.39,220.94Z"/><path class="cls-4" d="M429.49,185.6c3.95-2.43,5-8.19,2.92-12.34s-6.53-6.73-11.1-7.54a21.36,21.36,0,0,0-18.48,5.83c-2.57,2.57-4.66,5.93-8.11,7.07-3,1-6.35,0-9.51.38-4.25.48-7.93,3.45-10.16,7.1s-3.19,7.93-3.75,12.17c-.52,3.89-.89,8.16-3.63,11s-6.85,3.26-10.16,5.19c-6.22,3.62-8.36,12.79-4.37,18.79,1.27,1.91,3.1,3.67,3.22,6,.11,2.1-1.27,3.94-1.93,5.93-1.71,5.12,2.41,11.29,7.8,11.68,2.71.2,5.64-.82,8.06.43s3.26,4.18,4.78,6.42a11.64,11.64,0,0,0,14.15,3.87c2-.95,3.92-2.54,6.14-2.36s3.94,2.1,6.12,2.56c2.85.59,5.59-1.47,7.32-3.81s3-5.11,5.17-7c2.88-2.49,6.89-3.06,10.51-4.25a29.48,29.48,0,0,0,17.25-41"/><path class="cls-11" d="M387.3,236.2a8.06,8.06,0,0,0-3.15-2.14h.25a5.39,5.39,0,0,0-.68-.12,3.15,3.15,0,0,0-2.49.27h0A5.88,5.88,0,0,0,378,237a6.94,6.94,0,0,0,.71,7.18,5.32,5.32,0,0,0,9.79-1.68A6.6,6.6,0,0,0,387.3,236.2Z"/><path class="cls-12" d="M438.27,279.86l5.28-76.34A6.49,6.49,0,0,0,438,196.7l-34-10.18c-11-1.64-18.87,11.61-20,22.63-1.3,12.25-2.41,27.25-1.35,36.48,2.14,18.55,17.27,21.57,17.27,21.57s-.17,18.86-.38,25.56L395,313.46Z"/><path class="cls-4" d="M387.59,222.85a2.36,2.36,0,0,0,2.17,2.48,2.27,2.27,0,0,0,2.53-2,2.37,2.37,0,0,0-2.17-2.48A2.26,2.26,0,0,0,387.59,222.85Z"/><path class="cls-4" d="M387,215.86c.28.32,2.13-.92,4.67-.81s4.35,1.47,4.64,1.17c.14-.13-.13-.7-.92-1.33a6.48,6.48,0,0,0-3.7-1.31,6.18,6.18,0,0,0-3.73,1C387.15,215.17,386.86,215.72,387,215.86Z"/><path class="cls-4" d="M410.53,224.63a2.37,2.37,0,0,0,2.17,2.48,2.27,2.27,0,0,0,2.53-2,2.36,2.36,0,0,0-2.17-2.48A2.26,2.26,0,0,0,410.53,224.63Z"/><path class="cls-4" d="M412,217.41c.29.32,2.13-.92,4.67-.81s4.36,1.47,4.64,1.17c.15-.13-.13-.7-.92-1.33a6.47,6.47,0,0,0-3.69-1.31,6.21,6.21,0,0,0-3.74,1C412.13,216.72,411.84,217.27,412,217.41Z"/><path class="cls-4" d="M401.94,235.87c0-.14-1.56-.48-4.1-.92-.65-.1-1.26-.25-1.35-.7a3.29,3.29,0,0,1,.52-1.9l2.13-4.87c3-6.92,5.15-12.63,4.87-12.74s-2.91,5.4-5.88,12.32l-2.06,4.9a3.78,3.78,0,0,0-.44,2.53,1.63,1.63,0,0,0,1,1,5.05,5.05,0,0,0,1.1.2C400.32,235.94,401.92,236,401.94,235.87Z"/><path class="cls-13" d="M399.78,267.17s11.25,1.26,23.85-5.59c0,0-5.54,13.63-23.9,11.11Z"/><path class="cls-13" d="M402.05,241.93a6.3,6.3,0,0,1,5.27-2.51,4.09,4.09,0,0,1,3.27,2,3.74,3.74,0,0,1-4.43,5.41,9.21,9.21,0,0,1-3.64-2.48,2.85,2.85,0,0,1-.77-1,1.3,1.3,0,0,1,.16-1.29"/><path class="cls-4" d="M409.34,238c-.41,0-.53,2.72-3,4.58S401,244,401,244.34c-.05.17.63.56,1.87.65a6.87,6.87,0,0,0,4.51-1.35,6.05,6.05,0,0,0,2.33-3.85C409.81,238.64,409.53,238,409.34,238Z"/><path class="cls-4" d="M411.3,206.9c.22.7,2.78.48,5.74,1s5.35,1.4,5.77.8c.19-.29-.2-1-1.14-1.67a10.1,10.1,0,0,0-8.77-1.35C411.78,206,411.21,206.56,411.3,206.9Z"/><path class="cls-4" d="M388.27,207.15c.43.6,2.2.07,4.31.14s3.87.55,4.31,0c.19-.29-.06-.88-.82-1.46a6.21,6.21,0,0,0-6.94-.08C388.36,206.28,388.09,206.86,388.27,207.15Z"/><path class="cls-4" d="M371.71,203.85a12.67,12.67,0,0,1,5-6.9c1.34-.85,2.89-1.35,4.14-2.33,2.7-2.11,3.37-5.84,5.06-8.82a13.89,13.89,0,0,1,10.71-6.88c3.65-.32,7.4.83,11,0,2.65-.62,5-2.3,7.64-2.76,5.21-.91,10,2.88,13.69,6.65,0,3.71-3,6.16-5.92,8.5a12.92,12.92,0,0,1-10.48,2.6c-2.83-.56-5.91-2-8.39-.56s-2.77,5.44-5.09,7.4c-3.32,2.79-8.48.05-12.65,1.22-3.23.9-5.28,3.94-7.44,6.49s-5.4,4.95-8.6,4A37.8,37.8,0,0,1,371.71,203.85Z"/><path class="cls-4" d="M410.93,188.71c2.33-.63,7.12-2.07,8.4-4.07,2.77-4.34,7.6-7.27,12.48-6.93a11.74,11.74,0,0,1,10.43,9.44,16.91,16.91,0,0,1,14.38,9.55,19.54,19.54,0,0,1,.89,2.18,12.85,12.85,0,0,1,.7,10.8c-.84,2.09-2.24,4.41-1.19,6.4s3.85,2.13,6,2.91a8.52,8.52,0,0,1,5.23,9.6c-.32,1.4-1,2.78-.74,4.19s1.52,2.51,2.46,3.66a10.62,10.62,0,0,1-6.48,17.19c-1.66.28-3.45.18-4.9,1-1.66,1-2.41,3-3.59,4.48a9.14,9.14,0,0,1-10,3,8.29,8.29,0,0,1-2-1c-1.13,1.52-2.88,2.54-5.86,2.5l1.25-38.86a3.19,3.19,0,0,1-2.38,1.81c-6.26,1.32-7-11.54-5.54-15a36.13,36.13,0,0,1-6.16-6.67c-1.69-2.57-3.1-9.53-2.69-12.65C419.43,192.29,409.9,189,410.93,188.71Z"/><path class="cls-12" d="M436.69,227.86c.25-4,5.1-4.72,8.5-2.69,1.86,1.11,3.26,3.32,3,7.51-.62,11.17-11.72,8.24-11.72,7.92S436.39,232.48,436.69,227.86Z"/><path class="cls-13" d="M440.15,236.56c.05,0,.19.14.51.31a1.9,1.9,0,0,0,1.45.11c1.21-.36,2.31-2.18,2.48-4.19a6.6,6.6,0,0,0-.39-2.82,2.28,2.28,0,0,0-1.38-1.58,1,1,0,0,0-1.18.47c-.17.3-.11.53-.17.55s-.23-.2-.12-.66a1.28,1.28,0,0,1,.48-.68,1.47,1.47,0,0,1,1.09-.22,2.72,2.72,0,0,1,1.94,1.85,6.49,6.49,0,0,1,.5,3.15c-.19,2.25-1.46,4.29-3.11,4.67a2.06,2.06,0,0,1-1.76-.4C440.16,236.83,440.11,236.57,440.15,236.56Z"/><path class="cls-11" d="M426.37,185.92a6.72,6.72,0,0,1,2.2,1.9c1.09,1.54,1.46,4.47.71,7.75l-.06.28.27.07a10.83,10.83,0,0,1,7.12,6.45,8.49,8.49,0,0,1,.53,2.74,15.53,15.53,0,0,1-.39,2.95,22.52,22.52,0,0,0-.47,3.18,5.25,5.25,0,0,0,.84,3.31c1.36,2.14,3.58,3.21,5.48,4.25a18.72,18.72,0,0,1,5.15,3.48,14,14,0,0,1,4,9.43,14.57,14.57,0,0,1-1.58,6.89c-.76,1.51-1.4,2.23-1.34,2.28s.19-.15.49-.49a11.91,11.91,0,0,0,1.12-1.65,14,14,0,0,0,1.86-7,14.37,14.37,0,0,0-4.07-9.93,19.37,19.37,0,0,0-5.3-3.65c-1.91-1-4-2.1-5.18-4-1.22-1.72-.63-3.92-.28-5.92a16.13,16.13,0,0,0,.39-3.1,9,9,0,0,0-.61-3,11.34,11.34,0,0,0-7.65-6.76l.21.36c.71-3.44.23-6.47-1-8.08a4.84,4.84,0,0,0-1.73-1.45A2.54,2.54,0,0,0,426.37,185.92Z"/><path class="cls-11" d="M444.27,240.8a8,8,0,0,0-3.15-2.13l.24,0a5.24,5.24,0,0,0-.67-.12,3.15,3.15,0,0,0-2.49.27h0a5.9,5.9,0,0,0-3.26,2.75,7,7,0,0,0,.72,7.18,5.84,5.84,0,0,0,5.74,2.47,5.91,5.91,0,0,0,4.05-4.15A6.63,6.63,0,0,0,444.27,240.8Z"/><path class="cls-12" d="M311.63,341.52s3.06-1.58,5.75-1,12.49,7,12.49,7L343.48,352l-5.94,25.45L328,373.2l-16.35,7.89Z"/><path class="cls-9" d="M286.76,347.52s7.44-.94,10.13-2.29,9.12-7.05,10.47-6.94,9.21,2.11,9.21,2.11l-5,4.83s9.74,5.91,12.64,8.08,12,11.92,12.44,14.31-.31,5.18-1.45,6.11-5.29-.93-5.29-.93a5.15,5.15,0,0,1-.93,4.25c-1.55,2.07-5.18,1.34-5.18,1.34s-.31,3.42-2,4.05-5.39-1.25-5.39-1.25-1.12,2.9-2.48,3.21-5.19-2-5.19-2-16.58-11.92-20.31-13.68-4.87-1.87-4.87-1.87Z"/><path class="cls-10" d="M316.48,381.19c-.07,0-.12-.29-.3-.73a12.67,12.67,0,0,0-.83-1.65,10.44,10.44,0,0,1-1.28-2.36,5.72,5.72,0,0,1,1.71,2.11,6,6,0,0,1,.74,1.81C316.62,380.87,316.54,381.2,316.48,381.19Z"/><path class="cls-10" d="M323.37,379.18a28.12,28.12,0,0,1-2.09-3.13c-1.13-1.73-2.35-2.88-2.26-3a7.4,7.4,0,0,1,2.67,2.71A10,10,0,0,1,323.37,379.18Z"/><path class="cls-10" d="M330,373.2c-.14,0-.6-1.76-1.75-3.7s-2.47-3.22-2.36-3.33a8.07,8.07,0,0,1,2.79,3.08A7.89,7.89,0,0,1,330,373.2Z"/><path class="cls-10" d="M325.17,360.26a6,6,0,0,1,.55,2.78,6.19,6.19,0,0,1-.3,2.82,11.81,11.81,0,0,1-.2-2.8A12.69,12.69,0,0,1,325.17,360.26Z"/><path class="cls-12" d="M301,350.93s2.59-8.29,3.52-9.33,12-1.2,12-1.2l.28,4.83-1.92,2-4.15-.27S308.19,353.83,301,350.93Z"/><path class="cls-12" d="M288.75,368.68s-1.07.83,0,2.8,4,.56,4.92,0c0,0-1.41,3.28.37,4.31a6.93,6.93,0,0,0,3.94.75s-.09,2,2.44,3.29,3.19,0,3.19,0,.29,3.24,3.19,3.56a5.21,5.21,0,0,0,3.13-.31l-1.12-.64s2.31-5.15,1-6.65a4.51,4.51,0,0,0-3.48-1.31s.58-3.05-1.09-3.9A3.08,3.08,0,0,0,300.8,372s-.19-3.34-2.63-3.27a5.43,5.43,0,0,0-3.75,1.58Z"/><path class="cls-13" d="M300.8,372a7.28,7.28,0,0,1-1.12,2.5,7.19,7.19,0,0,1-1.64,2.19,9.73,9.73,0,0,1,1.25-2.42A10.05,10.05,0,0,1,300.8,372Z"/><path class="cls-13" d="M306.41,374.57a6.72,6.72,0,0,1-1.06,2.69,6.79,6.79,0,0,1-1.78,2.28A16.25,16.25,0,0,1,305,377,15.89,15.89,0,0,1,306.41,374.57Z"/><path class="cls-4" d="M273.8,412.43H258.08l-3.86,54.8,16.06-.31c2.69-8.7,6.68-52.69,6.68-52.69Z"/><path class="cls-4" d="M184.77,412.43s-10.06,23.59-9.06,33.14,5.78,21.66,5.78,21.66l79.36-.13a148.07,148.07,0,0,0,3.23-17.28c1.68-11.79,6.2-37.39,6.2-37.39Z"/><path class="cls-11" d="M257.52,266.19s9.64,39.32,11,48.47c2.52,16.78,12,87.45,10.68,93.67S277.07,421,277.07,421s-79.12-5-87.62-4.23-12.11.5-14.18-9.22.06-60.19-1.74-72.39S171.71,317.08,171,299c-.6-15.72,3-28.32,10.45-37.42s24-18.29,24-18.29l5.87-8.56,42.52,21.25.71-6.55,1.77,10.05Z"/><g class="cls-14"><path d="M276.78,375.05c-.69-1.76-2.93-2.2-4.81-2.41-17.6-1.95-35.91-6.35-48.76-18.52-5-4.76-9-10.52-12.81-16.3-8.35-12.62-16.2-25.57-24.05-38.52l-6.1,2.31c3.74,18.27,7.42,31.51,13.51,46.49s10.81,29.52,26.24,34.43c10,3.17,28.91.74,39.34-.08a60.5,60.5,0,0,0,12.93-2,8.54,8.54,0,0,0,3.5-1.77A3.44,3.44,0,0,0,276.78,375.05Z"/></g><path class="cls-11" d="M189.71,257.64c-13.72,2.1-23.65,21.76-22.15,33.59.12.93-6.53,83.29,8.08,89.86,11.56,5.2,53.79,1.27,73.38.15a44.66,44.66,0,0,0,15.66-3.81L277,371.94c0,.08,10.39-2.26,10.39-2.26s3.52-8.32-.74-23.53l-20,.85-49.83,0a5.51,5.51,0,0,0-6.25-2.37l5.33-55"/><path class="cls-4" d="M215.88,289.6s0,.32-.07,1-.14,1.58-.24,2.81c-.23,2.49-.57,6.15-1,10.87-.9,9.47-2.2,23.22-3.83,40.36l-.21-.19a6.78,6.78,0,0,1,3.51.11,5.69,5.69,0,0,1,2.93,2.33l-.16-.08h32.34c5.85,0,11.92,0,18.17,0l19.29-.82h.19l0,.18a55.46,55.46,0,0,1,2,11.55,31.78,31.78,0,0,1-1.28,12.15l0,.12-.14,0-5.48,1.22-2.77.61-1.4.29-.72.15H277a.27.27,0,0,1-.25-.15c-.06-.17,0-.22,0-.24s0,0,0,0l-.08,0-.17.07-.33.15a52.55,52.55,0,0,0-5.26,2.62,18.85,18.85,0,0,1-2.42,1.31l-2.59,1.17a45.14,45.14,0,0,1-17.25,4.34l-6,.38c-14,.94-27.63,1.91-40.85,2.06A134.15,134.15,0,0,1,182.3,383a33.66,33.66,0,0,1-4.67-1,15.07,15.07,0,0,1-2.24-.83,6.59,6.59,0,0,1-1.92-1.47,14.88,14.88,0,0,1-2.46-4,33.59,33.59,0,0,1-1.51-4.36,99.19,99.19,0,0,1-2.76-17.53c-.46-5.74-.66-11.33-.75-16.73-.16-10.8.13-20.85.53-30,.21-4.59.46-8.95.72-13.08,0-1,.17-2.07.14-3a21.52,21.52,0,0,1-.11-3,29,29,0,0,1,.76-5.62,40.11,40.11,0,0,1,8.34-16.61,24.83,24.83,0,0,1,9.36-7.1,17.91,17.91,0,0,1,2.94-.9l1-.17-1,.22a19.61,19.61,0,0,0-2.92.95,24.82,24.82,0,0,0-9.24,7.13,39.84,39.84,0,0,0-8.21,16.55,28.45,28.45,0,0,0-.74,5.56,20.78,20.78,0,0,0,.12,2.94c0,1.06-.09,2-.13,3.08q-.37,6.19-.68,13.07c-.38,9.17-.65,19.22-.47,30,.1,5.39.31,11,.78,16.69A98.42,98.42,0,0,0,170,371.28c.84,2.88,1.86,5.86,3.87,8.15a6.3,6.3,0,0,0,1.77,1.36,15.55,15.55,0,0,0,2.17.79,33.21,33.21,0,0,0,4.6,1,134.22,134.22,0,0,0,19.36.91c13.2-.16,26.85-1.13,40.82-2.07,4-.32,8.07-.32,11.95-1.06a46.26,46.26,0,0,0,11.18-3.62l2.74-1.21a25,25,0,0,1,2.89-1.06,46,46,0,0,0,5.26-2.08l.32-.14.17-.07.08,0h0c-.09-.06.2.13-.19-.14,0,0,.18.08.22-.1a.21.21,0,0,0-.22-.16h0l.69-.14,1.39-.29,2.77-.61,5.48-1.22-.18.15a31.34,31.34,0,0,0,1.25-11.92,54.52,54.52,0,0,0-2-11.44l.25.17-19.3.81c-6.25.05-12.32,0-18.17,0l-32.35-.05h-.1l0-.09a5.41,5.41,0,0,0-2.73-2.2,6.51,6.51,0,0,0-3.33-.1l-.24.05,0-.24c1.7-17.14,3.06-30.88,4-40.35.47-4.72.84-8.37,1.1-10.86.13-1.23.23-2.16.29-2.81S215.88,289.6,215.88,289.6Z"/><path class="cls-4" d="M253.86,259.14a6.46,6.46,0,0,1-1-.49l-2.62-1.49.19-.08c-.52,2.62-1,6.47-1.9,11.09l-.06.3-.27-.17c-3.85-2.43-8.48-5.2-13.41-8.18-3.68-2.21-7.12-4.43-10.29-6.35s-6.09-3.56-8.54-4.93l-5.81-3.23-1.58-.89a2.86,2.86,0,0,1-.54-.34,3.2,3.2,0,0,1,.58.25l1.63.8c1.4.72,3.42,1.77,5.89,3.1s5.4,3,8.61,4.84l10.31,6.32c4.93,3,9.55,5.78,13.38,8.25l-.32.14c.92-4.58,1.48-8.44,2.08-11.05l0-.17.15.09,2.56,1.59A8.84,8.84,0,0,1,253.86,259.14Z"/><g class="cls-14"><path d="M213.92,247.48l21.67,16.15c4.77,3.55,9.65,7.16,15.31,9q-.15-7.53-.31-15.06l-2.22,10.57Z"/></g><path class="cls-4" d="M276,372.62a3.61,3.61,0,0,1-.1-1c0-.77-.06-1.7-.1-2.77-.08-2.33-.17-5.56-.47-9.1s-.75-6.74-1.17-9-.77-3.69-.69-3.72a3.63,3.63,0,0,1,.35,1c.2.63.43,1.55.7,2.69a66.81,66.81,0,0,1,1.33,9.05c.3,3.57.34,6.81.32,9.15,0,1.17,0,2.11-.07,2.76A4.2,4.2,0,0,1,276,372.62Z"/><path class="cls-4" d="M206.67,279.53c-.08,0-.46-1.24-1.32-3.17a32.41,32.41,0,0,0-4.31-7,32.06,32.06,0,0,0-6-5.67c-1.71-1.24-2.87-1.88-2.83-2a3.24,3.24,0,0,1,.86.37,19.85,19.85,0,0,1,2.18,1.29,28,28,0,0,1,10.4,12.85,18.22,18.22,0,0,1,.81,2.4A2.93,2.93,0,0,1,206.67,279.53Z"/><path class="cls-8" d="M343.94,349.69c-4.13-.9,50.38,13.47,50.84,13.55l25.88-8.3-22.23,46-61.62-20.52Z"/><g class="cls-14"><polygon points="368.43 356.31 363.77 355.07 358.43 387.59 367.68 390.67 368.43 356.31"/></g><polygon class="cls-3" points="396.15 301.12 397.83 279.97 440.02 263.9 441.51 271.79 412.77 285.14 396.15 301.12"/><path class="cls-8" d="M443.69,275.5s10.77,16.88,14.08,29.57c3.56,13.67.47,37.82.47,37.82l-12.15,54.54a16.25,16.25,0,0,1,3.13,7.24c.48,3.94-3.85,8.33-3.85,8.33s-1.88-1.13,5.33,11.8,7.56,42.43,7.56,42.43H351.08c5.1-25,15.53-64.75,15.53-65.41s.06-27.56.06-27.56-.47-26.08,1.93-35.5,24.82-44,35.6-52.76c11.47-9.32,37.32-18.87,37.32-18.87l2.17,8.37"/><path class="cls-8" d="M372.5,428c-.33-1.14,8-14.61,8-14.61l47.64,7.3,3.32,12.23Z"/><path class="cls-4" d="M372.5,428a1.83,1.83,0,0,1,.31,0l.88,0,3.38.26,12.45,1,42,3.42-.24.24c-.8-3-1.64-6.07-2.5-9.23-.28-1-.55-2-.81-3l.17.15-47.63-7.36.16-.07c-2.76,4.46-4.89,8.06-6.28,10.56-.69,1.26-1.2,2.24-1.5,2.92a4.74,4.74,0,0,0-.29.78,2.24,2.24,0,0,0-.05.28,2,2,0,0,1,.27-1.09,32.67,32.67,0,0,1,1.43-2.95c1.35-2.53,3.43-6.15,6.16-10.63l.05-.09.1,0,47.66,7.24.14,0,0,.13c.26,1,.53,2,.81,3,.85,3.16,1.7,6.26,2.5,9.23l.07.27-.3,0-42.05-3.59L377,428.39l-3.33-.31-.85-.08Z"/><path class="cls-4" d="M443.69,275.5l-.29.09-.88.21c-.77.18-1.9.45-3.35.83-2.9.75-7.1,1.88-12.1,3.7-1.25.46-2.55,1-3.88,1.55-.66.28-1.33.58-2,.92-.34.16-.68.32-1,.5a10.92,10.92,0,0,0-1,.59,50.77,50.77,0,0,0-7.13,6.49c-4.67,4.92-9.42,10.62-14.3,16.67s-9.37,11.93-13.4,17.3c-2,2.69-3.91,5.26-5.66,7.67a61.23,61.23,0,0,0-4.52,6.9,72.2,72.2,0,0,0-4.74,10.81c-.46,1.31-.8,2.33-1,3-.1.33-.19.59-.25.79a1.36,1.36,0,0,1-.1.27,1.87,1.87,0,0,1,.06-.28c.05-.2.12-.47.21-.8.19-.71.5-1.74.93-3.06a70.48,70.48,0,0,1,4.63-10.89,60.71,60.71,0,0,1,4.49-7q2.61-3.64,5.63-7.7c4-5.39,8.51-11.26,13.38-17.33s9.66-11.76,14.35-16.68a51.2,51.2,0,0,1,7.22-6.52c.32-.22.68-.4,1-.6s.68-.33,1-.5c.68-.34,1.36-.63,2-.92,1.33-.57,2.64-1.07,3.9-1.52a118.94,118.94,0,0,1,12.17-3.59c1.46-.36,2.61-.6,3.38-.76l.89-.17Z"/><path class="cls-4" d="M437,408.33a11.08,11.08,0,0,1-1.32-.68c-.83-.45-2-1.16-3.44-2.07a79.25,79.25,0,0,1-10.42-8,76.21,76.21,0,0,1-8.8-9.47c-1-1.29-1.78-2.37-2.28-3.13a7.79,7.79,0,0,1-.75-1.2,10.54,10.54,0,0,1,.89,1.11c.55.74,1.36,1.78,2.4,3.06a87.9,87.9,0,0,0,8.85,9.35,91.49,91.49,0,0,0,10.29,8c1.4.94,2.55,1.68,3.36,2.17A10.19,10.19,0,0,1,437,408.33Z"/><g class="cls-14"><polygon points="374.03 428.08 375.48 432.88 429.43 432.71 374.03 428.08"/></g><path class="cls-8" d="M399.11,315.17l1,78-13.23,74h34.77s15.35-55.75,19-67.88c3.53-11.77,8.81-71,9.28-73.94.18-1.14,3.9-21.61-7.05-31.26"/><path class="cls-4" d="M442.89,294.15s.23.21.66.64l.8.8c.16.16.34.32.51.52l.5.67a23.18,23.18,0,0,1,4.31,9.34,48.22,48.22,0,0,1,.82,16.33c-.15,1.6-.47,3.23-.62,4.92s-.34,3.45-.52,5.25l-1.14,11.44c-.81,8-1.72,16.79-2.82,26.22-.56,4.71-1.15,9.58-1.86,14.59-.35,2.51-.74,5-1.17,7.61-.22,1.29-.48,2.57-.73,3.87s-.61,2.6-1,3.88c-5.74,20.58-12.07,43.23-18.73,67.07l-.05.19H386.6l.06-.3c4.89-27.29,9.41-52.48,13.27-74v0c-.28-23.63-.5-43.13-.66-56.74-.07-6.79-.12-12.1-.15-15.74,0-1.8,0-3.18,0-4.13s0-1.41,0-1.41,0,.48.05,1.41,0,2.33.09,4.13c.06,3.63.15,9,.26,15.74.2,13.61.49,33.11.84,56.73v0c-3.84,21.57-8.33,46.76-13.19,74.06l-.25-.3h34.77l-.25.19c6.68-23.83,13-46.49,18.78-67.06.36-1.29.67-2.56,1-3.84s.51-2.58.73-3.86c.43-2.56.83-5.09,1.18-7.59.71-5,1.32-9.87,1.88-14.58,1.12-9.42,2.06-18.2,2.89-26.21L449,332.59c.19-1.8.37-3.55.55-5.25s.48-3.34.64-4.92a48.51,48.51,0,0,0-.73-16.25,23.36,23.36,0,0,0-4.21-9.33l-.48-.67c-.17-.2-.35-.37-.5-.53l-.77-.82Z"/><path class="cls-4" d="M433.59,291.89c0,.1-1.65-.3-4.34-.32A23.19,23.19,0,0,0,411,300.19c-1.7,2.08-2.43,3.6-2.52,3.55a4.9,4.9,0,0,1,.48-1.08,19.77,19.77,0,0,1,1.75-2.7,22.24,22.24,0,0,1,18.56-8.76,20.06,20.06,0,0,1,3.2.37A4.47,4.47,0,0,1,433.59,291.89Z"/><path class="cls-2" d="M135.14,175.26a1.94,1.94,0,0,0-1.1.41,3.09,3.09,0,0,0-.89,1.07,2.93,2.93,0,0,0-.3,2.28,2.81,2.81,0,0,0,1.51,1.68,2.94,2.94,0,0,0,2.34.26,3.2,3.2,0,0,0,1.75-1.65,3,3,0,0,0,.39-1.69,2.69,2.69,0,0,0-.68-1.52c-.67,1.2-1,1.8-1.64,3l-1.62-.85c1.12-2.12,1.7-3.16,2.89-5.22l2,1.16a5,5,0,0,1,1,1.74,5.42,5.42,0,0,1,.24,2.19,6.11,6.11,0,0,1-.73,2.38,6.52,6.52,0,0,1-1.91,2.25,5.1,5.1,0,0,1-2.53.95,5,5,0,0,1-2.73-.52,4.77,4.77,0,0,1-2.81-4.53,6.5,6.5,0,0,1,.82-3,6.3,6.3,0,0,1,2.46-2.65,4,4,0,0,1,3-.4C136,173.66,135.73,174.19,135.14,175.26Z"/><path class="cls-2" d="M138.88,167.29a3.37,3.37,0,0,1,.55-1.57l2.2,1.42-.4.63a2.45,2.45,0,0,0-.48,1.51,1.67,1.67,0,0,0,.92,1.17l3.19,2c-.55.89-.82,1.34-1.36,2.24l-6.95-4.13c.56-1,.85-1.43,1.44-2.37l1.14.71A3.46,3.46,0,0,1,138.88,167.29Z"/><path class="cls-2" d="M147.57,167.52a3.87,3.87,0,0,1-2.09.52,4.14,4.14,0,0,1-2.17-.71,4,4,0,0,1-1.5-1.71,3.91,3.91,0,0,1-.29-2.2,5.74,5.74,0,0,1,2.73-3.92,4,4,0,0,1,2.16-.48,4,4,0,0,1,2.13.82,4.13,4.13,0,0,1,1.4,1.79,4,4,0,0,1,.23,2.17,5.44,5.44,0,0,1-.9,2.15A5.16,5.16,0,0,1,147.57,167.52Zm.26-4.16a2.38,2.38,0,0,0-2.43-1.75,1.79,1.79,0,0,0-1.18.78,1.75,1.75,0,0,0-.33,1.38,2,2,0,0,0,.94,1.27,2.08,2.08,0,0,0,1.53.43,1.75,1.75,0,0,0,1.15-.75A1.84,1.84,0,0,0,147.83,163.36Z"/><path class="cls-2" d="M151.75,149.34l6.15,5.27c-.68.79-1,1.19-1.68,2l-.85-.7a2.81,2.81,0,0,1,0,1.38,3.33,3.33,0,0,1-.69,1.38,3.54,3.54,0,0,1-1.39,1.1,2.93,2.93,0,0,1-1.66.2,3.92,3.92,0,0,1-1.72-.79l-3.76-2.85c.66-.88,1-1.31,1.67-2.17l3.46,2.72a1.7,1.7,0,0,0,1.27.42,1.9,1.9,0,0,0,1.53-1.89,1.73,1.73,0,0,0-.69-1.15l-3.39-2.8C150.68,150.6,151,150.18,151.75,149.34Z"/><path class="cls-2" d="M155.8,145.14a3.73,3.73,0,0,1,.88-1.45,4,4,0,0,1,1.76-1.1,3.56,3.56,0,0,1,2,0,4.47,4.47,0,0,1,1.92,1.18,4.84,4.84,0,0,1,1.2,1.9,3.7,3.7,0,0,1-.85,3.73,3.39,3.39,0,0,1-1.32.9,2.81,2.81,0,0,1-1.38.18l3.68,3.36c-.68.75-1,1.12-1.69,1.89l-9-7.89c.73-.83,1.09-1.24,1.83-2l.85.77A2.81,2.81,0,0,1,155.8,145.14Zm3.23,0a2,2,0,0,0-1.87,2,2,2,0,0,0,.7,1.41,2,2,0,0,0,1.46.58,2,2,0,0,0,1.83-2,2,2,0,0,0-.68-1.42A1.87,1.87,0,0,0,159,145.12Z"/><path class="cls-2" d="M169.17,140.26c1-.93,1.54-1.39,2.58-2.29l1.25,1.45c-1.81,1.57-2.71,2.37-4.46,4l-7-7.41,2-1.89Z"/><path class="cls-2" d="M178.06,130.87c-1.92,1.46-2.87,2.21-4.73,3.74a1.59,1.59,0,0,0,2.26.17,1.43,1.43,0,0,0,.58-1.48l2.23-1.73a3.56,3.56,0,0,1,.25,1.62,3.92,3.92,0,0,1-.49,1.65,5,5,0,0,1-1.23,1.45,4.86,4.86,0,0,1-2.05,1,3.76,3.76,0,0,1-2.1-.12,4.3,4.3,0,0,1-1.86-1.31,4.16,4.16,0,0,1-1-2,3.58,3.58,0,0,1,.28-2.13,5,5,0,0,1,1.5-1.89,4.86,4.86,0,0,1,2.12-1.05,3.57,3.57,0,0,1,2.1.15,3.94,3.94,0,0,1,1.74,1.35A7.15,7.15,0,0,1,178.06,130.87Zm-3,.56a1.22,1.22,0,0,0-1-.5,1.83,1.83,0,0,0-1.17.45,1.81,1.81,0,0,0-.66,1,1.53,1.53,0,0,0,.21,1.16C173.51,132.69,174,132.26,175.09,131.43Z"/><path class="cls-2" d="M183.44,122.37a3.34,3.34,0,0,1,2.17,1.6l2.59,4-2.15,1.44-2.48-3.63a1.55,1.55,0,0,0-2.36-.44,1.56,1.56,0,0,0-.39,2.37l2.56,3.57c-.85.61-1.27.91-2.1,1.54l-4.83-6.49c.88-.66,1.32-1,2.22-1.63l.62.88a2.91,2.91,0,0,1,.42-1.35,3.77,3.77,0,0,1,1.13-1.16A3.35,3.35,0,0,1,183.44,122.37Z"/><path class="cls-2" d="M186.34,121.68a3.52,3.52,0,0,1,.42-2,3.84,3.84,0,0,1,1.45-1.49,3.71,3.71,0,0,1,1.56-.55,2.74,2.74,0,0,1,1.44.19c-.75-1.3-1.13-1.95-1.89-3.24,1-.57,1.46-.85,2.44-1.4,2.09,3.75,3.14,5.62,5.24,9.37-.92.51-1.37.77-2.27,1.3-.24-.41-.35-.61-.59-1a2.72,2.72,0,0,1-.43,1.34,3.61,3.61,0,0,1-1.18,1.11,3.74,3.74,0,0,1-1.89.56,3.62,3.62,0,0,1-1.94-.51,4.63,4.63,0,0,1-1.61-1.57A4.49,4.49,0,0,1,186.34,121.68Zm5.13-2.28a1.89,1.89,0,0,0-1.46.24,2,2,0,0,0-.9,1.17,1.9,1.9,0,0,0,.29,1.53,1.93,1.93,0,0,0,1.24,1,1.85,1.85,0,0,0,1.43-.23,1.88,1.88,0,0,0,.88-1.15,2.2,2.2,0,0,0-1.48-2.52Z"/><path class="cls-2" d="M194.4,113.38a1.17,1.17,0,0,1-.86-.62,1.15,1.15,0,0,1,0-1.07,2.07,2.07,0,0,1,2.13-1.13,1.24,1.24,0,0,1,.86.64,1.2,1.2,0,0,1,0,1.06,1.76,1.76,0,0,1-.86.89A1.84,1.84,0,0,1,194.4,113.38Zm2.85-.12,3.72,7.18c-.93.48-1.39.73-2.31,1.22l-3.86-7.11C195.78,114,196.26,113.76,197.25,113.26Z"/><path class="cls-2" d="M206.66,109.68a3.39,3.39,0,0,1,1.87,1.95l1.86,4.35c-1,.41-1.44.62-2.39,1-.72-1.6-1.08-2.4-1.81-4a1.62,1.62,0,0,0-.94-1,1.67,1.67,0,0,0-1.32.11,1.73,1.73,0,0,0-.94.94,1.7,1.7,0,0,0,.13,1.34l1.9,4c-1,.45-1.42.68-2.36,1.15L199,112.34l2.49-1.22.47,1a2.74,2.74,0,0,1,.65-1.25,4,4,0,0,1,1.33-1A3.42,3.42,0,0,1,206.66,109.68Z"/><path class="cls-2" d="M213.85,106.11a2.79,2.79,0,0,1,1.36.47c-.16-.43-.24-.64-.39-1.07,1.05-.39,1.57-.58,2.63-.94l2.65,7.63a4.46,4.46,0,0,1,.22,2.06,3.57,3.57,0,0,1-.85,1.84,4.82,4.82,0,0,1-2,1.31,5.15,5.15,0,0,1-3.13.32,3.22,3.22,0,0,1-2.11-1.62l2.4-1a1.2,1.2,0,0,0,.81.47,2.28,2.28,0,0,0,1.15-.16,1.84,1.84,0,0,0,1.06-.87,1.8,1.8,0,0,0,0-1.49c-.16-.43-.23-.65-.39-1.08a3,3,0,0,1-.69,1.24,3.45,3.45,0,0,1-1.36.9,3.67,3.67,0,0,1-2,.23,3.72,3.72,0,0,1-1.83-.83,4.51,4.51,0,0,1-1.32-1.83,4.44,4.44,0,0,1-.36-2.22,3.65,3.65,0,0,1,.77-1.89,4,4,0,0,1,1.71-1.22A3.9,3.9,0,0,1,213.85,106.11Zm1.32,2a2.05,2.05,0,0,0-2.59,1,1.87,1.87,0,0,0,0,1.57,1.94,1.94,0,0,0,1.06,1.16,1.89,1.89,0,0,0,1.46,0,1.87,1.87,0,0,0,1.08-1,1.9,1.9,0,0,0,0-1.57A1.88,1.88,0,0,0,215.17,108.13Z"/><path class="cls-2" d="M380.22,86.18a5,5,0,0,1,2.38-1.56,6.67,6.67,0,0,1,3.19-.15,6.34,6.34,0,0,1,3.4,1.65,4.59,4.59,0,0,1,1.4,3c-1.22-.26-1.84-.39-3.07-.63a2.29,2.29,0,0,0-.79-1.17,3.1,3.1,0,0,0-1.38-.6,2.85,2.85,0,0,0-2.26.45,3,3,0,0,0-1.16,2,3.06,3.06,0,0,0,.45,2.3,2.82,2.82,0,0,0,1.91,1.16,2.93,2.93,0,0,0,1.45-.09,2.28,2.28,0,0,0,1.14-.8c1.21.24,1.81.36,3,.62a4.84,4.84,0,0,1-2.43,2.23,6.14,6.14,0,0,1-3.54.33,6.47,6.47,0,0,1-2.76-1.16,5.19,5.19,0,0,1-1.72-2.17,5.3,5.3,0,0,1-.35-2.84A5.18,5.18,0,0,1,380.22,86.18Z"/><path class="cls-2" d="M396.54,89.44a3.47,3.47,0,0,1,1.72,0l-.7,2.62-.75-.2a2.49,2.49,0,0,0-1.63,0,1.74,1.74,0,0,0-.86,1.28c-.37,1.5-.56,2.25-.93,3.76-1.05-.26-1.58-.39-2.64-.63.75-3.26,1.12-4.88,1.86-8.14,1.12.26,1.68.39,2.79.67l-.34,1.35A3.53,3.53,0,0,1,396.54,89.44Z"/><path class="cls-2" d="M406.37,97c-2.37-.81-3.57-1.19-6-1.89a1.64,1.64,0,0,0,.18,1.29,1.7,1.7,0,0,0,1,.73,1.46,1.46,0,0,0,1.61-.35c1.11.36,1.67.54,2.78.92a3.67,3.67,0,0,1-1.24,1.14,4,4,0,0,1-1.7.53,5,5,0,0,1-2-.22A5.15,5.15,0,0,1,399,98a3.88,3.88,0,0,1-1.12-1.87,4.38,4.38,0,0,1,0-2.35,4.31,4.31,0,0,1,1.17-2,3.8,3.8,0,0,1,2-1,5.76,5.76,0,0,1,4.64,1.41,3.81,3.81,0,0,1,1.1,1.89,4.06,4.06,0,0,1-.16,2.27C406.57,96.57,406.48,96.8,406.37,97Zm-2.21-2.23a1.27,1.27,0,0,0-.15-1.14,2.11,2.11,0,0,0-2.32-.73,1.65,1.65,0,0,0-.88.85C402.16,94.18,402.83,94.39,404.16,94.81Z"/><path class="cls-2" d="M408.72,94.8a3.66,3.66,0,0,1,1.88-.92,4,4,0,0,1,2.13.23,4.09,4.09,0,0,1,1.44.92,2.86,2.86,0,0,1,.76,1.3l1.44-3.6c1.07.43,1.61.65,2.67,1.1L414.76,104c-1-.42-1.49-.62-2.49-1l.44-1.11a2.78,2.78,0,0,1-1.36.49,3.64,3.64,0,0,1-1.65-.25,3.82,3.82,0,0,1-2.48-3.07,4.86,4.86,0,0,1,.25-2.32A4.6,4.6,0,0,1,408.72,94.8Zm5.11,2.72a1.93,1.93,0,0,0-1.12-1,1.91,1.91,0,0,0-2.58,1.21,2,2,0,0,0,0,1.63,1.9,1.9,0,0,0,1.09,1,1.92,1.92,0,0,0,1.49,0,2,2,0,0,0,1.09-1.2A1.93,1.93,0,0,0,413.83,97.52Z"/><path class="cls-2" d="M420.58,96.07a1.25,1.25,0,0,1-.05-1.08,1.22,1.22,0,0,1,.84-.72,1.86,1.86,0,0,1,1.31.14,1.81,1.81,0,0,1,.95.87,1.24,1.24,0,0,1-.82,1.79,1.82,1.82,0,0,1-1.26-.14A1.88,1.88,0,0,1,420.58,96.07Zm1.9,2.24L419,105.89l-2.45-1.09,3.33-7.65C420.93,97.6,421.45,97.84,422.48,98.31Z"/><path class="cls-2" d="M426.14,107l-1,1.93c-.48-.26-.73-.38-1.21-.63a3.53,3.53,0,0,1-1.75-1.62,2.78,2.78,0,0,1,.22-2.36l1.43-3-1-.48.9-1.92,1,.48.88-1.83c1,.49,1.55.75,2.58,1.26-.36.73-.55,1.09-.91,1.82l1.66.84-1,1.89-1.63-.83-1.5,3a.67.67,0,0,0-.07.57,1,1,0,0,0,.49.44Z"/><path class="cls-2" d="M431.1,111.83a3.6,3.6,0,0,1-.79-1.72,3,3,0,0,1,.33-1.84c1,.57,1.53.86,2.53,1.44a1.28,1.28,0,0,0-.07,1,1.43,1.43,0,0,0,.66.75,1.64,1.64,0,0,0,1,.27.86.86,0,0,0,.67-.44.83.83,0,0,0,.1-.7,2.34,2.34,0,0,0-.38-.71,10.2,10.2,0,0,0-.82-.92,14.55,14.55,0,0,1-1.24-1.45,3.43,3.43,0,0,1-.59-1.4,2.46,2.46,0,0,1,.34-1.64A2.63,2.63,0,0,1,435,103a6.1,6.1,0,0,1,5.36,3.18,2.85,2.85,0,0,1-.16,2.63c-1-.65-1.55-1-2.59-1.6a1.09,1.09,0,0,0,.06-.9,1.52,1.52,0,0,0-.7-.75,1.23,1.23,0,0,0-.84-.21.86.86,0,0,0-.63.45.87.87,0,0,0,.06,1,10,10,0,0,0,1.09,1.37,13,13,0,0,1,1.2,1.5,3.19,3.19,0,0,1,.53,1.4,2.28,2.28,0,0,1-.4,1.57,2.89,2.89,0,0,1-1.28,1.12,3.33,3.33,0,0,1-1.8.25,5.14,5.14,0,0,1-2.07-.74A6.08,6.08,0,0,1,431.1,111.83Z"/><path class="cls-2" d="M441.18,110.76a3.79,3.79,0,0,1,2.18-.35,5.17,5.17,0,0,1,2.3.92,4.82,4.82,0,0,1,1.9,2.34,3.71,3.71,0,0,1-.13,2.77c-.95-.7-1.44-1-2.41-1.72a1.41,1.41,0,0,0-.64-1.62,1.52,1.52,0,0,0-1.32-.24,2.32,2.32,0,0,0-1.25,1,2.37,2.37,0,0,0-.5,1.55,1.46,1.46,0,0,0,.68,1.12,1.4,1.4,0,0,0,1.71,0c1,.67,1.43,1,2.37,1.7a4,4,0,0,1-2.55,1,4.55,4.55,0,0,1-2.73-.9,5.07,5.07,0,0,1-1.6-1.71,4,4,0,0,1-.49-2.12,4.51,4.51,0,0,1,.76-2.21A4.37,4.37,0,0,1,441.18,110.76Z"/><path class="cls-2" d="M447,122.28a4.13,4.13,0,0,1-.4-2.18,4.23,4.23,0,0,1,.88-2.18,4.06,4.06,0,0,1,1.84-1.45,3.93,3.93,0,0,1,2.28-.16,5.38,5.38,0,0,1,2.26,1.09,5.51,5.51,0,0,1,1.59,1.95,4,4,0,0,1,.37,2.25,4.45,4.45,0,0,1-2.92,3.47,4.16,4.16,0,0,1-2.24.1,5.68,5.68,0,0,1-3.66-2.89Zm4.26.51a2.45,2.45,0,0,0,2-2.39,1.82,1.82,0,0,0-.72-1.26,1.84,1.84,0,0,0-1.4-.42,2.08,2.08,0,0,0-1.37.89,2.15,2.15,0,0,0-.53,1.54,1.78,1.78,0,0,0,.69,1.23A1.87,1.87,0,0,0,451.28,122.79Z"/><path class="cls-2" d="M461.56,124.47a3.41,3.41,0,0,1,1.5.84l-1.84,2-.57-.52a2.46,2.46,0,0,0-1.44-.75,1.73,1.73,0,0,0-1.35.72l-2.58,2.89c-.8-.72-1.21-1.07-2-1.77l5.44-6.33c.86.74,1.29,1.12,2.14,1.88l-.93,1A3.41,3.41,0,0,1,461.56,124.47Z"/><path class="cls-2" d="M465,125.54a1.25,1.25,0,0,1,1.36-1.44,1.94,1.94,0,0,1,1.18.58,1.9,1.9,0,0,1,.61,1.15,1.25,1.25,0,0,1-1.38,1.41,1.84,1.84,0,0,1-1.15-.56A1.92,1.92,0,0,1,465,125.54Zm1,2.75-5.84,6c-.78-.76-1.17-1.13-2-1.87l5.73-6.07C464.83,127.09,465.24,127.49,466.06,128.29Z"/><path class="cls-2" d="M472.59,136.38a3.43,3.43,0,0,1-1.32,2.46l-3.66,3.22c-.71-.81-1.07-1.22-1.8-2l3.35-3.06a1.74,1.74,0,0,0,.64-1.23,2,2,0,0,0-1.76-1.88,1.71,1.71,0,0,0-1.27.56l-3.27,3.13c-.75-.78-1.13-1.17-1.89-1.94l5.92-5.88c.8.81,1.2,1.22,2,2.05l-.8.77a2.83,2.83,0,0,1,1.43.24,4,4,0,0,1,1.37,1A3.56,3.56,0,0,1,472.59,136.38Z"/><path class="cls-2" d="M478.39,142.3a2.78,2.78,0,0,1,0,1.49l.93-.73c.71.9,1.06,1.36,1.76,2.29-2.66,2-4,3-6.64,5a4.67,4.67,0,0,1-2,.88,3.68,3.68,0,0,1-2.06-.25,4.93,4.93,0,0,1-1.94-1.55,5.39,5.39,0,0,1-1.31-3,3.33,3.33,0,0,1,.91-2.59c.7.81,1,1.22,1.73,2.05a1.22,1.22,0,0,0-.21.94,2.34,2.34,0,0,0,.52,1.08,2,2,0,0,0,1.19.76,1.93,1.93,0,0,0,1.46-.51l.93-.73a3.2,3.2,0,0,1-1.43-.28,3.51,3.51,0,0,1-1.32-1,4,4,0,0,1-.87-1.87,3.87,3.87,0,0,1,.24-2.06,4.77,4.77,0,0,1,1.37-1.88,4.6,4.6,0,0,1,2.06-1.07,3.74,3.74,0,0,1,2.1.16,4.18,4.18,0,0,1,1.74,1.29A3.82,3.82,0,0,1,478.39,142.3Zm-1.55,1.94a2,2,0,0,0-.47-1.47A2,2,0,0,0,475,142a1.93,1.93,0,0,0-1.53.5,2.06,2.06,0,0,0-.8,1.42,2.07,2.07,0,0,0,1.76,2.19,2,2,0,0,0,1.55-.48A2,2,0,0,0,476.84,144.24Z"/><path class="cls-2" d="M540.32,266.69c-3.83-.35-5.74-.5-9.55-.75-.24-1.12-.36-1.68-.61-2.8,2.23-1.14,3.35-1.72,5.56-2.9-2.51-.09-3.77-.13-6.28-.18-.27-1.12-.41-1.68-.7-2.79,3.32-1.89,5-2.86,8.24-4.85.29,1,.43,1.55.7,2.59-2.45,1.25-3.68,1.86-6.14,3.07,2.77,0,4.16.06,6.94.14.26,1.07.39,1.6.63,2.67-2.47,1.28-3.71,1.9-6.19,3.13,2.75,0,4.12,0,6.87,0C540,265.11,540.11,265.64,540.32,266.69Z"/><path class="cls-2" d="M535.74,276.28c-.31-2.15-.48-3.23-.85-5.37a1.48,1.48,0,0,0-.95.64,1.52,1.52,0,0,0-.19,1.06,1.29,1.29,0,0,0,.9,1.11c.16,1,.24,1.51.38,2.52a3.26,3.26,0,0,1-1.39-.51,3.51,3.51,0,0,1-1.08-1.12A4.24,4.24,0,0,1,532,273a4.32,4.32,0,0,1,.11-2.07,3.45,3.45,0,0,1,1-1.6,3.86,3.86,0,0,1,1.87-.86,3.8,3.8,0,0,1,2,.13,3.36,3.36,0,0,1,1.55,1.17,4.67,4.67,0,0,1,.81,2,4.61,4.61,0,0,1-.12,2.11,3.42,3.42,0,0,1-1,1.59,3.73,3.73,0,0,1-1.84.77C536.19,276.26,536,276.27,535.74,276.28Zm.88-2.58a1.11,1.11,0,0,0,.84-.57,1.61,1.61,0,0,0,.16-1.1,1.59,1.59,0,0,0-.49-1,1.43,1.43,0,0,0-1-.35C536.33,271.9,536.43,272.5,536.62,273.7Z"/><path class="cls-2" d="M536.75,284.85c-.2-2.16-.32-3.24-.59-5.39a1.46,1.46,0,0,0-1,.59,1.51,1.51,0,0,0-.25,1.05,1.27,1.27,0,0,0,.85,1.15c.11,1,.16,1.51.25,2.52a3.19,3.19,0,0,1-1.36-.57,3.66,3.66,0,0,1-1-1.17,4.21,4.21,0,0,1-.51-1.64,4.32,4.32,0,0,1,.22-2.05,3.42,3.42,0,0,1,1.12-1.55,4,4,0,0,1,1.91-.77,3.83,3.83,0,0,1,2,.23,3.32,3.32,0,0,1,1.49,1.24,4.55,4.55,0,0,1,.71,2,4.46,4.46,0,0,1-.22,2.09,3.28,3.28,0,0,1-1.13,1.53,3.66,3.66,0,0,1-1.87.68C537.2,284.85,537,284.85,536.75,284.85Zm1-2.53a1.12,1.12,0,0,0,.87-.52,1.67,1.67,0,0,0,.22-1.1,1.63,1.63,0,0,0-.45-1,1.44,1.44,0,0,0-1-.4C537.55,280.52,537.62,281.12,537.75,282.32Z"/><path class="cls-2" d="M534.09,291.08c1.17-1,1.75-1.51,2.91-2.55l-3.06.22c-.07-.93-.11-1.4-.19-2.34l9.68-.83c.09,1,.13,1.48.2,2.47l-5.36.39c1.26.86,1.89,1.3,3.13,2.19.08,1.21.11,1.81.16,3-1.53-1.26-2.3-1.87-3.84-3.08-1.38,1.39-2.08,2.08-3.48,3.42C534.19,292.82,534.16,292.24,534.09,291.08Z"/><path class="cls-2" d="M544.06,297l-9.72.23c0-.94,0-1.41-.07-2.34l9.71-.37C544,295.5,544,296,544.06,297Z"/><path class="cls-2" d="M541.64,306.94c-4.26-2.13-6.41-3.13-10.73-5,0-1,0-1.48,0-2.47,1.5.67,2.25,1,3.74,1.71,2.83-1.25,4.24-1.9,7.05-3.25,0,1.09,0,1.64,0,2.73-1.83.74-2.75,1.1-4.58,1.81,1.82.72,2.74,1.09,4.56,1.85C541.68,305.36,541.67,305.89,541.64,306.94Z"/><path class="cls-2" d="M533.84,315.35c1.45-.69,2.17-1,3.62-1.76,0-.23,0-.34,0-.57L534,312.8c.06-.94.09-1.4.14-2.34l9.21.48c-.09,1.65-.14,2.47-.26,4.12a4.81,4.81,0,0,1-.55,2,2.71,2.71,0,0,1-4.24.72,3,3,0,0,1-.88-1.71c-1.53.78-2.3,1.16-3.83,1.9C533.71,316.92,533.75,316.4,533.84,315.35Zm5.24-2.22-.1,1.48a1.5,1.5,0,0,0,.22,1,1.1,1.1,0,0,0,.83.39,1.07,1.07,0,0,0,.85-.26,1.48,1.48,0,0,0,.38-1l.1-1.5Z"/><path class="cls-2" d="M535.69,326.89c.3-2.13.44-3.2.69-5.34a1.48,1.48,0,0,0-1.09.34,1.43,1.43,0,0,0-.48.95,1.26,1.26,0,0,0,.55,1.31c-.13,1-.2,1.5-.34,2.5a3.19,3.19,0,0,1-1.19-.87,3.48,3.48,0,0,1-.73-1.37,4.19,4.19,0,0,1-.11-1.71,4.45,4.45,0,0,1,.68-1.93,3.47,3.47,0,0,1,1.46-1.22,4,4,0,0,1,2-.3,3.9,3.9,0,0,1,1.94.7,3.23,3.23,0,0,1,1.15,1.54,4.52,4.52,0,0,1,.22,2.13,4.35,4.35,0,0,1-.71,2,3.2,3.2,0,0,1-1.45,1.2,3.52,3.52,0,0,1-2,.22A5.19,5.19,0,0,1,535.69,326.89Zm1.56-2.21a1.14,1.14,0,0,0,1-.3,1.68,1.68,0,0,0,.47-1,1.55,1.55,0,0,0-.21-1.05,1.4,1.4,0,0,0-.87-.62C537.48,322.9,537.41,323.49,537.25,324.68Z"/><path class="cls-2" d="M538.9,332.14a3.12,3.12,0,0,1,.06,1.5,3.46,3.46,0,0,1-.78,1.66,3.19,3.19,0,0,1-1.53,1,4.06,4.06,0,0,1-2,.06,4.29,4.29,0,0,1-1.86-.83,3.36,3.36,0,0,1-1.08-1.45,3.18,3.18,0,0,1-.14-1.76,3,3,0,0,1,.55-1.33,2.55,2.55,0,0,1,1-.81l-4.46-.73c.15-.91.22-1.36.36-2.27l10.7,1.63c-.15,1-.22,1.44-.38,2.41l-1-.17A2.56,2.56,0,0,1,538.9,332.14Zm-2.43,1.57a1.72,1.72,0,0,0,.69-1.13,1.65,1.65,0,0,0-.28-1.28,1.74,1.74,0,0,0-1.22-.71,1.78,1.78,0,0,0-1.39.27,1.74,1.74,0,0,0-.41,2.37,1.76,1.76,0,0,0,1.22.73A1.72,1.72,0,0,0,536.47,333.71Z"/><path class="cls-2" d="M536.32,338a3.26,3.26,0,0,1,1,1.5,3.37,3.37,0,0,1,.07,1.84,3.17,3.17,0,0,1-.63,1.36,2.39,2.39,0,0,1-1,.76l1,.24c-.23.95-.35,1.42-.58,2.37l-7.11-1.79c.23-.91.34-1.37.56-2.28l1,.24a2.48,2.48,0,0,1-.59-1.11,3.13,3.13,0,0,1,0-1.46,3.28,3.28,0,0,1,2.37-2.47,4.52,4.52,0,0,1,3.89.8Zm-1.72,4.67a1.69,1.69,0,0,0,.75-1.07,1.73,1.73,0,0,0-.2-1.3,1.76,1.76,0,0,0-1.19-.77,1.79,1.79,0,0,0-1.4.2,1.64,1.64,0,0,0-.75,1.06A1.69,1.69,0,0,0,532,342a1.79,1.79,0,0,0,1.17.78A1.76,1.76,0,0,0,534.6,342.63Z"/><path class="cls-2" d="M533.49,355.57c-3.53-3.2-5.33-4.74-9-7.72l.65-2.39c1.26,1.05,1.89,1.58,3.14,2.66,3.06-.45,4.6-.7,7.66-1.25-.27,1.06-.41,1.59-.7,2.64-2,.22-2.94.33-4.9.52,1.57,1.19,2.35,1.79,3.9,3C534,354.05,533.81,354.56,533.49,355.57Z"/><path class="cls-2" d="M528.33,368a3,3,0,0,1-2.46,0l-4-1.59c.35-.87.52-1.3.86-2.18l3.71,1.43a1.45,1.45,0,0,0,1.17,0,1.54,1.54,0,0,0,.76-.9,1.56,1.56,0,0,0,0-1.18,1.46,1.46,0,0,0-.89-.76l-3.74-1.36c.32-.88.48-1.32.79-2.2l3.75,1.31a1.43,1.43,0,0,0,1.17,0,1.48,1.48,0,0,0,.73-.92,1.54,1.54,0,0,0,0-1.18,1.47,1.47,0,0,0-.92-.72l-3.77-1.25c.29-.9.44-1.34.72-2.24l7,2.21c-.3.94-.45,1.4-.76,2.33l-.87-.29a2.57,2.57,0,0,1,.38,1.15,3,3,0,0,1-.18,1.37,3.59,3.59,0,0,1-.87,1.41,2.74,2.74,0,0,1-1.32.7,3.17,3.17,0,0,1,.54,1.39,3.27,3.27,0,0,1-.2,1.6A3.23,3.23,0,0,1,528.33,368Z"/><path class="cls-2" d="M521.23,375.81c.91-2,1.35-3,2.2-5a1.41,1.41,0,0,0-1.87.81,1.26,1.26,0,0,0,.15,1.42c-.42.93-.62,1.4-1.05,2.32a3.26,3.26,0,0,1-.89-1.18,3.64,3.64,0,0,1-.31-1.53,4.36,4.36,0,0,1,.39-1.68,4.41,4.41,0,0,1,1.21-1.68,3.43,3.43,0,0,1,1.75-.77,4.22,4.22,0,0,1,3.69,1.51,3.31,3.31,0,0,1,.67,1.81,4.94,4.94,0,0,1-1.65,3.84,3.33,3.33,0,0,1-1.74.76,3.67,3.67,0,0,1-2-.34C521.62,376,521.43,375.93,521.23,375.81Zm2.14-1.7a1.12,1.12,0,0,0,1,0,1.61,1.61,0,0,0,.74-.85,1.55,1.55,0,0,0,.11-1.07,1.36,1.36,0,0,0-.66-.84C524.1,372.45,523.86,373,523.37,374.11Z"/><path class="cls-2" d="M520.65,384.87a3.08,3.08,0,0,1-2.42-.32l-3.79-2,1.08-2.09,3.55,1.79a1.46,1.46,0,0,0,1.2.15,1.48,1.48,0,0,0,.86-.81,1.41,1.41,0,0,0-.72-2.05l-3.58-1.74c.42-.85.62-1.28,1-2.14l6.64,3.11c-.42.9-.63,1.34-1.06,2.23l-.88-.42a2.51,2.51,0,0,1,.25,1.24,3.38,3.38,0,0,1-.38,1.4A3.07,3.07,0,0,1,520.65,384.87Z"/><path class="cls-2" d="M513.23,388.75l-1.66-.94.6-1.05a3.13,3.13,0,0,1,1.5-1.48,2.4,2.4,0,0,1,2.06.28L518.3,387c.18-.35.27-.52.46-.86l1.64.87-.46.87,1.57.85c-.47.88-.71,1.32-1.2,2.19l-1.56-.87-.8,1.42-1.62-.92c.32-.56.48-.84.79-1.4l-2.57-1.43a.56.56,0,0,0-.5-.08.86.86,0,0,0-.4.42Z"/><path class="cls-2" d="M138.49,421.13a3,3,0,0,1,1.63.21,4.9,4.9,0,0,1,1.7,1.27l1,1.12,2.43-2.28c.66.7,1,1.05,1.66,1.74l-6.68,6.46c-1.16-1.19-1.73-1.79-2.85-3a5,5,0,0,1-1.13-1.83,2.74,2.74,0,0,1-.06-1.67,2.92,2.92,0,0,1,2.26-2Zm1.19,2.25a1.12,1.12,0,0,0-.88.32,1.09,1.09,0,0,0-.4.84,1.66,1.66,0,0,0,.5,1l.94,1,1.7-1.59-.92-1A1.63,1.63,0,0,0,139.68,423.38Z"/><path class="cls-2" d="M134.46,422.1a1.11,1.11,0,0,1-1.32,1.14,1.66,1.66,0,0,1-1-.61,1.71,1.71,0,0,1-.43-1.06,1.12,1.12,0,0,1,1.35-1.12,1.58,1.58,0,0,1,1,.6A1.63,1.63,0,0,1,134.46,422.1Zm-.65-2.51,5.69-4.72c.61.74.92,1.1,1.55,1.83l-5.62,4.81C134.78,420.75,134.45,420.37,133.81,419.59Z"/><path class="cls-2" d="M128.82,412a3.05,3.05,0,0,1,1.36-2.05l3.5-2.54c.55.76.84,1.15,1.41,1.91l-3.21,2.41a1.54,1.54,0,1,0,1.87,2.43l3.16-2.47,1.49,1.87-5.74,4.65c-.64-.78-.95-1.17-1.57-2l.77-.61a2.54,2.54,0,0,1-1.24-.33,3.51,3.51,0,0,1-1.11-1A3,3,0,0,1,128.82,412Z"/><path class="cls-2" d="M132.13,403.54a2.46,2.46,0,0,1,2-.53,3,3,0,0,1,1.63,1.27l.53.74-1.56,1.12-.33-.45a.85.85,0,0,0-.44-.37.64.64,0,0,0-.48.14l-6.83,4.85c-.58-.81-.86-1.23-1.43-2.05Zm-6.46,7.28a1.11,1.11,0,0,1-1.43,1,1.62,1.62,0,0,1-.91-.69,1.66,1.66,0,0,1-.33-1.09,1.07,1.07,0,0,1,.49-.85,1.09,1.09,0,0,1,1-.14,1.66,1.66,0,0,1,.9.67A1.68,1.68,0,0,1,125.67,410.82Z"/><path class="cls-2" d="M125.65,405.85a3.28,3.28,0,0,1-1.81-.33,3.52,3.52,0,0,1-1.38-1.28,3.31,3.31,0,0,1-.54-1.45,2.46,2.46,0,0,1,.18-1.28l-.89.55c-.53-.85-.79-1.28-1.3-2.13l6.35-3.79c.49.82.74,1.22,1.24,2l-.89.55a2.71,2.71,0,0,1,1.22.38,3.48,3.48,0,0,1,1.58,2.75,3.32,3.32,0,0,1-.43,1.77,4.29,4.29,0,0,1-1.41,1.51A4.13,4.13,0,0,1,125.65,405.85Zm-2.17-4.6a1.83,1.83,0,0,0,1.33,2.11,1.73,1.73,0,0,0,1.39-.3,1.83,1.83,0,0,0,.86-1.16,1.73,1.73,0,0,0-.24-1.29,1.68,1.68,0,0,0-1.07-.77,1.78,1.78,0,0,0-1.4.28A1.75,1.75,0,0,0,123.48,401.25Z"/><path class="cls-2" d="M113.73,386.75a3,3,0,0,1,1.71-1.78l3.92-1.84c.4.85.6,1.28,1,2.13L116.76,387a1.46,1.46,0,0,0-.81.85,1.58,1.58,0,0,0,.15,1.18,1.54,1.54,0,0,0,.86.83,1.43,1.43,0,0,0,1.17-.14l3.57-1.83,1.09,2.08-3.54,1.89a1.47,1.47,0,0,0-.78.88,1.8,1.8,0,0,0,1.08,2,1.46,1.46,0,0,0,1.16-.18l3.5-2c.47.82.7,1.24,1.18,2.06L119,398.37c-.5-.86-.75-1.29-1.24-2.16l.81-.46a2.49,2.49,0,0,1-1.12-.5,3.46,3.46,0,0,1-.9-1.08,3.54,3.54,0,0,1-.45-1.62,2.56,2.56,0,0,1,.38-1.46,3,3,0,0,1-1.4-.57,3.28,3.28,0,0,1-1.06-1.24A3.34,3.34,0,0,1,113.73,386.75Z"/><path class="cls-2" d="M113.47,384a3.27,3.27,0,0,1-1.73-.62,3.58,3.58,0,0,1-1.16-1.48,3.35,3.35,0,0,1-.29-1.51,2.45,2.45,0,0,1,.39-1.23l-1,.4c-.38-.92-.56-1.38-.93-2.31l6.88-2.71c.35.88.52,1.32.88,2.2l-1,.4a2.56,2.56,0,0,1,1.14.57,3.14,3.14,0,0,1,.85,1.19,3.26,3.26,0,0,1,.26,1.76,3.37,3.37,0,0,1-.71,1.68,4.39,4.39,0,0,1-1.64,1.25A4.13,4.13,0,0,1,113.47,384Zm-1.39-4.87a1.71,1.71,0,0,0,0,1.33,1.69,1.69,0,0,0,2.36.88,1.81,1.81,0,0,0,1-1,1.75,1.75,0,0,0-1-2.24,2,2,0,0,0-2.47,1Z"/><path class="cls-2" d="M106.44,368.55a3.12,3.12,0,0,1,1.94-1.52l4.11-1.32c.29.89.44,1.34.74,2.23l-3.8,1.29a1.42,1.42,0,0,0-1,2,1.53,1.53,0,0,0,.77.92,1.56,1.56,0,0,0,1.22,0l3.77-1.36c.33.89.49,1.33.83,2.21l-6.91,2.63c-.35-.92-.53-1.39-.87-2.32l.93-.34a2.49,2.49,0,0,1-1.08-.69,3.42,3.42,0,0,1-.74-1.26A3.05,3.05,0,0,1,106.44,368.55Z"/><path class="cls-2" d="M101.55,361.52l5.37-1.46a1.72,1.72,0,0,0,1.12-.76,1.7,1.7,0,0,0,.11-1.35,1.78,1.78,0,0,0-.75-1.14,1.72,1.72,0,0,0-1.36-.13l-5.4,1.33c-.24-1-.36-1.47-.59-2.45l5.41-1.25a3.88,3.88,0,0,1,2.18.08,3.52,3.52,0,0,1,1.61,1.16,4.82,4.82,0,0,1,.94,1.91,5.1,5.1,0,0,1,.12,2.11,3.49,3.49,0,0,1-.86,1.74,4,4,0,0,1-1.89,1.09L102.23,364C102,363,101.81,362.49,101.55,361.52Z"/><path class="cls-2" d="M108.25,350.58a3.24,3.24,0,0,1-.63,1.42,2.33,2.33,0,0,1-1.15.78c-.2-.93-.3-1.4-.49-2.33a.87.87,0,0,0,.53-.5,1.37,1.37,0,0,0,.07-.86,1.27,1.27,0,0,0-.29-.65.51.51,0,0,0-.47-.16.5.5,0,0,0-.4.43,8.16,8.16,0,0,0-.11,1.19,11.57,11.57,0,0,1-.1,1.47,2.33,2.33,0,0,1-.43,1.1,1.71,1.71,0,0,1-1.08.66,1.88,1.88,0,0,1-1.21-.13,2.42,2.42,0,0,1-1-.93,4.56,4.56,0,0,1-.65-1.69,3.78,3.78,0,0,1,.22-2.5,2.59,2.59,0,0,1,1.63-1.31c.15.9.24,1.34.41,2.24a.83.83,0,0,0-.53.47,1.36,1.36,0,0,0-.07.84,1.2,1.2,0,0,0,.28.62.47.47,0,0,0,.46.15.53.53,0,0,0,.39-.46,6.54,6.54,0,0,0,.09-1.18,12.64,12.64,0,0,1,.14-1.49,2.5,2.5,0,0,1,.48-1.08,1.78,1.78,0,0,1,1.13-.64,1.87,1.87,0,0,1,1.21.18,2.67,2.67,0,0,1,1,.94,4.69,4.69,0,0,1,.6,1.58A4.77,4.77,0,0,1,108.25,350.58Z"/><path class="cls-2" d="M101.66,345.18a3.33,3.33,0,0,1-1.51-1.06,3.58,3.58,0,0,1-.73-1.74,3.4,3.4,0,0,1,.11-1.54,2.49,2.49,0,0,1,.7-1.1l-1,.14c-.13-1-.19-1.49-.3-2.49l7.35-.82c.11.95.16,1.43.28,2.37l-1,.13a2.62,2.62,0,0,1,1,.86,3.25,3.25,0,0,1,.51,1.39,3.36,3.36,0,0,1-1.33,3.21,4.27,4.27,0,0,1-1.91.78A4,4,0,0,1,101.66,345.18Zm-.07-5.09a1.83,1.83,0,0,0,.34,2.46,1.71,1.71,0,0,0,1.39.31,1.81,1.81,0,0,0,1.26-.7,1.77,1.77,0,0,0-.33-2.42,1.8,1.8,0,0,0-1.39-.33A1.74,1.74,0,0,0,101.59,340.09Z"/><path class="cls-2" d="M98.91,328.26a3.08,3.08,0,0,1,2.27-.95l4.31-.2c.05.95.07,1.42.13,2.37l-4,.26a1.53,1.53,0,0,0-1.13.49,1.74,1.74,0,0,0,.17,2.25,1.51,1.51,0,0,0,1.18.32l4-.33c.08.95.12,1.43.22,2.38l-9.76,1c-.1-1-.14-1.52-.23-2.54l3.39-.28a2.64,2.64,0,0,1-.86-1,3.58,3.58,0,0,1-.39-1.46A3,3,0,0,1,98.91,328.26Z"/><path class="cls-2" d="M99.72,325.66a3.23,3.23,0,0,1-1.36-1.25,3.58,3.58,0,0,1-.51-1.84,3.51,3.51,0,0,1,.3-1.53,2.48,2.48,0,0,1,.84-1h-1c0-1,0-1.52,0-2.53l7.4.13c0,1,0,1.45,0,2.41h-1a2.52,2.52,0,0,1,.83,1,3.2,3.2,0,0,1,.34,1.45,3.41,3.41,0,0,1-1.73,3,4.23,4.23,0,0,1-2,.54A4,4,0,0,1,99.72,325.66Zm.58-5.11a1.72,1.72,0,0,0-.48,1.26,1.69,1.69,0,0,0,1.84,1.74A1.78,1.78,0,0,0,103,323a1.69,1.69,0,0,0,.48-1.24,1.75,1.75,0,0,0-.49-1.24,1.87,1.87,0,0,0-1.34-.51A1.73,1.73,0,0,0,100.3,320.55Z"/></g></svg>